<?xml version="1.0" encoding="UTF-8" standalone="no"?>
<!-- Created with Inkscape (http://www.inkscape.org/) -->

<svg
   xmlns:dc="http://purl.org/dc/elements/1.1/"
   xmlns:cc="http://creativecommons.org/ns#"
   xmlns:rdf="http://www.w3.org/1999/02/22-rdf-syntax-ns#"
   xmlns:svg="http://www.w3.org/2000/svg"
   xmlns="http://www.w3.org/2000/svg"
   version="1.1"
   width="533.49603"
   height="270.14139"
   id="svg3419">
  <defs
     id="defs3421" />
  <metadata
     id="metadata3424">
    <rdf:RDF>
      <cc:Work
         rdf:about="">
        <dc:format>image/svg+xml</dc:format>
        <dc:type
           rdf:resource="http://purl.org/dc/dcmitype/StillImage" />
        <dc:title></dc:title>
      </cc:Work>
    </rdf:RDF>
  </metadata>
  <g
     transform="translate(650.8429,-676.62792)"
     id="layer1">
    <g
       transform="matrix(0.28492337,0,0,0.28492337,-464.68747,676.29753)"
       id="g3460">
      <g
         transform="matrix(1.25,0,0,-1.25,-1578.6429,1657.3693)"
         id="g3023">
        <path
           d="m 1414.08,792.48 c 0,-60 54.72,-114 113.28,-114 41.04,0 67.68,10.8 99.84,40.32 L 1482,901.44 c -42,-30.48 -67.92,-57.12 -67.92,-108.96 z"
           id="path3025"
           style="fill:#0d6ab3;fill-opacity:1;fill-rule:nonzero;stroke:none" />
      </g>
      <g
         transform="matrix(1.25,0,0,-1.25,-1578.6429,1657.3693)"
         id="g3027">
        <path
           d="m 1538.88,1102.08 c 21.84,15.6 39.84,34.08 39.84,58.8 0,32.4 -21.12,58.56 -56.64,58.56 -37.2,0 -56.64,-25.92 -56.64,-58.56 0,-25.44 20.88,-50.16 44.88,-78.72 9.36,6 28.56,19.92 28.56,19.92 z"
           id="path3029"
           style="fill:#0d6ab3;fill-opacity:1;fill-rule:nonzero;stroke:none" />
      </g>
      <g
         transform="matrix(1.25,0,0,-1.25,-1578.6429,1657.3693)"
         id="g3031">
        <path
           d="m 2225.52,592.08 c 0,4.08 -2.64,6 -7.44,6 l -8.16,0 0,-21.12 3.36,0 0,9.36 3.6,0 5.52,-9.36 3.6,0 -6,9.36 c 3.12,0.48 5.52,1.92 5.52,5.76 z m -12.24,-3.12 0,6.48 4.32,0 c 3.6,0 4.56,-1.2 4.56,-3.12 0,-2.4 -1.2,-3.36 -5.04,-3.36 l -3.84,0 z"
           id="path3033"
           style="fill:#0d6ab3;fill-opacity:1;fill-rule:nonzero;stroke:none" />
      </g>
      <g
         transform="matrix(1.25,0,0,-1.25,-1578.6429,1657.3693)"
         id="g3035">
        <path
           d="m 2217.12,605.76 c -10.08,0 -18.48,-7.68 -18.48,-18.24 0,-10.56 8.4,-18.24 18.48,-18.24 9.84,0 18.24,7.68 18.24,18.24 0,10.56 -8.4,18.24 -18.24,18.24 z m 0,-33.36 c -8.4,0 -14.88,6.24 -14.88,15.12 0,8.88 6.48,15.36 14.88,15.36 8.16,0 14.64,-6.48 14.64,-15.36 0,-8.88 -6.48,-15.12 -14.64,-15.12 z"
           id="path3037"
           style="fill:#0d6ab3;fill-opacity:1;fill-rule:nonzero;stroke:none" />
      </g>
      <g
         transform="matrix(1.25,0,0,-1.25,-1578.6429,1657.3693)"
         id="g3039">
        <path
           d="m 1818.48,708.72 114.48,-139.2 246.24,0 0,181.2 -322.8,0.24 c -25.44,-29.52 -28.8,-31.68 -37.92,-42.24 z"
           id="path3041"
           style="fill:#0d6ab3;fill-opacity:1;fill-rule:nonzero;stroke:none" />
      </g>
      <g
         transform="matrix(1.25,0,0,-1.25,-1578.6429,1657.3693)"
         id="g3043">
        <path
           d="m 1788.24,1029.6 0,122.16 391.2,0 0,170.4 -554.64,0 c 58.08,-30.24 91.68,-88.08 91.68,-158.88 0,-59.52 -30.48,-99.6 -76.56,-134.16 0,0 -34.56,-26.88 -53.28,-40.08 l 144.96,-174.24 57.36,60.96 366.72,0 0,153.84 -367.44,0 0,0 z"
           id="path3045"
           style="fill:#0d6ab3;fill-opacity:1;fill-rule:nonzero;stroke:none" />
      </g>
      <g
         transform="matrix(1.25,0,0,-1.25,-1578.6429,1657.3693)"
         id="g3047">
        <path
           d="m 1420.32,1322.16 -379.2,0 -298.08,-752.64 252,0 48.72,139.68 235.92,0 c -8.4,25.68 -12.96,54.48 -12.96,86.4 0,98.4 69.36,162.24 134.4,206.64 -30.48,35.52 -74.64,89.52 -74.64,162.96 0,70.56 33.84,127.44 93.84,156.96 z m -330.72,-438.48 80.16,240.72 78,-240.72 -158.16,0 z"
           id="path3049"
           style="fill:#0d6ab3;fill-opacity:1;fill-rule:nonzero;stroke:none" />
      </g>
    </g>
  </g>
</svg>
