<?xml version="1.0" encoding="UTF-8" standalone="no"?>
<!-- Created with Inkscape (http://www.inkscape.org/) -->

<svg
   xmlns:dc="http://purl.org/dc/elements/1.1/"
   xmlns:cc="http://creativecommons.org/ns#"
   xmlns:rdf="http://www.w3.org/1999/02/22-rdf-syntax-ns#"
   xmlns:svg="http://www.w3.org/2000/svg"
   xmlns="http://www.w3.org/2000/svg"
   xmlns:xlink="http://www.w3.org/1999/xlink"
   xmlns:sodipodi="http://sodipodi.sourceforge.net/DTD/sodipodi-0.dtd"
   xmlns:inkscape="http://www.inkscape.org/namespaces/inkscape"
   width="1504.5554"
   height="377.8804"
   id="svg2"
   sodipodi:version="0.32"
   inkscape:version="0.47 r22583"
   version="1.0"
   sodipodi:docname="Memory document 4"
   inkscape:output_extension="org.inkscape.output.svg.inkscape">
  <defs
     id="defs4">
    <linearGradient
       inkscape:collect="always"
       id="linearGradient3775">
      <stop
         style="stop-color:#c9c9c9;stop-opacity:1"
         offset="0"
         id="stop3777" />
      <stop
         style="stop-color:#ffffff;stop-opacity:1"
         offset="1"
         id="stop3779" />
    </linearGradient>
    <linearGradient
       id="linearGradient3765">
      <stop
         style="stop-color:#000000;stop-opacity:1;"
         offset="0"
         id="stop3767" />
      <stop
         style="stop-color:#dbdbdb;stop-opacity:1"
         offset="1"
         id="stop3769" />
    </linearGradient>
    <inkscape:perspective
       sodipodi:type="inkscape:persp3d"
       inkscape:vp_x="0 : 192.5 : 1"
       inkscape:vp_y="0 : 1000 : 0"
       inkscape:vp_z="1024 : 192.5 : 1"
       inkscape:persp3d-origin="512 : 128.33333 : 1"
       id="perspective2876" />
    <inkscape:perspective
       id="perspective2964"
       inkscape:persp3d-origin="0.5 : 0.33333333 : 1"
       inkscape:vp_z="1 : 0.5 : 1"
       inkscape:vp_y="0 : 1000 : 0"
       inkscape:vp_x="0 : 0.5 : 1"
       sodipodi:type="inkscape:persp3d" />
    <linearGradient
       inkscape:collect="always"
       xlink:href="#linearGradient3765"
       id="linearGradient3771"
       x1="1445"
       y1="562"
       x2="1445"
       y2="366"
       gradientUnits="userSpaceOnUse"
       gradientTransform="translate(0,-300)" />
    <linearGradient
       inkscape:collect="always"
       xlink:href="#linearGradient3775"
       id="linearGradient3781"
       x1="1385"
       y1="318"
       x2="1385"
       y2="225"
       gradientUnits="userSpaceOnUse"
       gradientTransform="translate(-40,0)" />
    <filter
       inkscape:collect="always"
       id="filter3789"
       color-interpolation-filters="sRGB">
      <feGaussianBlur
         inkscape:collect="always"
         stdDeviation="1.4425"
         id="feGaussianBlur3791" />
    </filter>
  </defs>
  <sodipodi:namedview
     id="base"
     pagecolor="#ffffff"
     bordercolor="#666666"
     borderopacity="1.0"
     inkscape:pageopacity="0.0"
     inkscape:pageshadow="2"
     inkscape:zoom="1.4142136"
     inkscape:cx="1084.4562"
     inkscape:cy="184.31111"
     inkscape:document-units="px"
     inkscape:current-layer="layer1"
     showgrid="false"
     inkscape:window-width="1920"
     inkscape:window-height="1125"
     inkscape:window-x="0"
     inkscape:window-y="24"
     showguides="true"
     inkscape:guide-bbox="true"
     inkscape:window-maximized="1">
    <sodipodi:guide
       orientation="1,0"
       position="1377.5554,-101.24615"
       id="guide3773" />
  </sodipodi:namedview>
  <metadata
     id="metadata7">
    <rdf:RDF>
      <cc:Work
         rdf:about="">
        <dc:format>image/svg+xml</dc:format>
        <dc:type
           rdf:resource="http://purl.org/dc/dcmitype/StillImage" />
        <dc:title></dc:title>
      </cc:Work>
    </rdf:RDF>
  </metadata>
  <g
     inkscape:label="Ebene 1"
     inkscape:groupmode="layer"
     id="layer1"
     transform="translate(-7.4445889,-4.8734614)">
    <path
       style="fill:url(#linearGradient3771);fill-opacity:1;stroke:none"
       d="m 1086,65 426,0 0,284 -568,0 142,-284 z"
       id="rect2970"
       sodipodi:nodetypes="ccccc" />
    <path
       style="fill:url(#linearGradient3781);fill-opacity:1;stroke:#000000;stroke-width:4;stroke-miterlimit:4;stroke-opacity:1;stroke-dasharray:none"
       d="m 1108,100 0,218 43,0 0,-92 80,0 0,92 44,0 0,-218 -44,0 0,82 -80,0 0,-82 -43,0 z m 193,0 0,218 82,0 c 46.536,0 84,-37.464 84,-84 l 0,-50 c 0,-46.536 -37.464,-84 -84,-84 l -82,0 z m 44,41 26,0 c 29.916,0 54,24.084 54,54 l 0,28 c 0,29.916 -24.084,54 -54,54 l -26,0 0,-136 z"
       id="rect2975" />
    <g
       id="g3761"
       transform="matrix(7.6666669,0,0,7.6666669,-3944.2973,-833.6794)"
       style="stroke:none">
      <path
         id="path2982"
         style="fill:#dc181d;fill-opacity:1;fill-rule:nonzero;stroke:none"
         d="m 532.83134,113.78344 -16.5625,33.44625 c -1.94125,3.91875 -0.33625,8.67 3.5825,10.61125 3.92,1.94125 8.67125,0.33625 10.6125,-3.5825 0,0 4.8175,-10.6725 9.44875,-20.0225 4.60625,9.345 9.39625,20.00625 9.39625,20.00625 1.93375,3.92375 6.6825,5.53625 10.605,3.6025 3.92375,-1.93375 5.53625,-6.6825 3.6025,-10.605 l -16.48375,-33.4425 c -1.3325,-2.7025 -4.0825,-4.41625 -7.09625,-4.41875 -3.01375,-0.002 -5.7675,1.705 -7.105,4.405" />
      <path
         id="path2984"
         style="fill:#000000;fill-opacity:1;fill-rule:nonzero;stroke:none"
         d="m 642.73759,110.20094 c -3.91875,-1.94125 -8.67,-0.3375 -10.61125,3.5825 0,0 -4.81875,10.6725 -9.45,20.02375 -4.605,-9.345 -9.39625,-20.0075 -9.39625,-20.0075 -1.4025,-2.84625 -4.28625,-4.4675 -7.2625,-4.41 -0.0163,0 -0.0325,-0.002 -0.0475,-0.002 l -43.05375,0 c -4.34,0 -7.85875,3.51875 -7.85875,7.85875 0,4.34 3.51875,7.85875 7.85875,7.85875 l 12.05375,0 0,25.5775 c 0,4.37375 3.54625,7.92 7.92,7.92 4.37375,0 7.92,-3.54625 7.92,-7.92 l 0,-25.5775 10.38375,0 14.3625,29.14 c 1.33125,2.70375 4.0825,4.41625 7.09625,4.41875 3.01375,0.002 5.7675,-1.705 7.105,-4.405 l 16.5625,-33.445 c 1.94125,-3.92 0.3375,-8.67 -3.5825,-10.6125" />
    </g>
    <path
       id="path3783"
       d="m 1110,102 0,218 43,0 0,-92 80,0 0,92 44,0 0,-218 -44,0 0,82 -80,0 0,-82 -43,0 z m 193,0 0,218 82,0 c 46.536,0 84,-37.464 84,-84 l 0,-50 c 0,-46.536 -37.464,-84 -84,-84 l -82,0 z m 44,41 26,0 c 29.916,0 54,24.084 54,54 l 0,28 c 0,29.916 -24.084,54 -54,54 l -26,0 0,-136 z"
       style="fill:none;stroke:#000000;stroke-width:5;stroke-miterlimit:4;stroke-opacity:1;stroke-dasharray:none;filter:url(#filter3789)" />
  </g>
</svg>
