<?xml version="1.0" encoding="UTF-8" standalone="no"?>
<!-- Created with Inkscape (http://www.inkscape.org/) -->

<svg
   xmlns:dc="http://purl.org/dc/elements/1.1/"
   xmlns:cc="http://creativecommons.org/ns#"
   xmlns:rdf="http://www.w3.org/1999/02/22-rdf-syntax-ns#"
   xmlns:svg="http://www.w3.org/2000/svg"
   xmlns="http://www.w3.org/2000/svg"
   xmlns:sodipodi="http://sodipodi.sourceforge.net/DTD/sodipodi-0.dtd"
   xmlns:inkscape="http://www.inkscape.org/namespaces/inkscape"
   width="940.35999"
   height="510"
   id="svg32633"
   version="1.1"
   inkscape:version="0.48.1 "
   sodipodi:docname="Neues Dokument 4">
  <defs
     id="defs32635" />
  <sodipodi:namedview
     id="base"
     pagecolor="#ffffff"
     bordercolor="#666666"
     borderopacity="1.0"
     inkscape:pageopacity="0.0"
     inkscape:pageshadow="2"
     inkscape:zoom="1.546"
     inkscape:cx="470.17997"
     inkscape:cy="255"
     inkscape:document-units="px"
     inkscape:current-layer="layer1"
     showgrid="false"
     fit-margin-top="0"
     fit-margin-left="0"
     fit-margin-right="0"
     fit-margin-bottom="0"
     inkscape:window-width="1680"
     inkscape:window-height="990"
     inkscape:window-x="-4"
     inkscape:window-y="-4"
     inkscape:window-maximized="1" />
  <metadata
     id="metadata32638">
    <rdf:RDF>
      <cc:Work
         rdf:about="">
        <dc:format>image/svg+xml</dc:format>
        <dc:type
           rdf:resource="http://purl.org/dc/dcmitype/StillImage" />
        <dc:title></dc:title>
      </cc:Work>
    </rdf:RDF>
  </metadata>
  <g
     inkscape:label="Ebene 1"
     inkscape:groupmode="layer"
     id="layer1"
     transform="translate(-170.64241,-4.7479)">
    <path
       inkscape:connector-curvature="0"
       d="m 567.65504,160.63517 0,77.46925 c 10.18509,-0.34472 16.62795,-1.92857 19.44441,-4.78385 2.77639,-2.85404 4.16645,-9.87671 4.16645,-21.0264 l 0,-25.81025 c 0,-11.8826 -1.23291,-19.05869 -3.74223,-21.56614 -2.50932,-2.50932 -9.14348,-3.93541 -19.86863,-4.28261 z m 0,-104.32081 0,61.07236 c 3.08695,-0.15528 5.47826,-0.18634 7.21428,-0.18634 7.06025,0 11.57422,-1.73602 13.50311,-5.16987 1.92857,-3.43354 2.8913,-13.30994 2.8913,-29.590995 0,-8.603416 -0.77019,-14.58323 -2.3913,-18.05559 -1.58385,-3.433541 -3.66491,-5.632609 -6.25,-6.519876 -2.54659,-0.925466 -7.56149,-1.425466 -14.96895,-1.543478 z M 494.54541,9.7479 l 72.83944,0 c 23.0323,0 40.47081,1.776398 52.31491,5.285404 11.8441,3.510869 21.41211,9.838198 28.70372,20.563354 7.29162,10.725466 10.91801,28.009317 10.91801,51.851863 0,16.126399 -2.58695,27.353419 -7.71583,33.719259 -5.16988,6.36552 -15.39348,11.26521 -30.55559,14.66024 16.89813,3.74255 28.3177,10.03106 34.33633,18.75 6.05714,8.71926 9.02795,22.10653 9.02795,40.12361 l 0,25.69441 c 0,18.71149 -2.16149,32.60031 -6.48168,41.62795 -4.35962,9.02795 -11.26552,15.16211 -20.75621,18.48012 -9.45217,3.31801 -28.85807,4.97671 -58.21739,4.97671 l -84.41366,0 0,-275.73292"
       style="fill:#004a91;fill-opacity:1;fill-rule:nonzero;stroke:none"
       id="path1518" />
    <path
       inkscape:connector-curvature="0"
       d="m 748.1333,9.7479 0,220.13882 43.98167,0 0,55.5941 -117.12981,0 0,-275.73292 73.14814,0"
       style="fill:#004a91;fill-opacity:1;fill-rule:nonzero;stroke:none"
       id="path1520" />
    <path
       inkscape:connector-curvature="0"
       d="m 965.30162,9.7479 0,184.06646 c 0,20.98758 -0.65528,35.68665 -2.08385,44.17422 -1.34783,8.48758 -5.47826,17.20684 -12.30683,26.15746 -6.82889,8.95062 -15.81802,15.70217 -26.96771,20.33167 -11.18819,4.62982 -24.3441,6.9059 -39.4677,6.9059 -16.82081,0 -31.5972,-2.70186 -44.44441,-8.21739 -12.8472,-5.44006 -22.45372,-12.57733 -28.81925,-21.33509 -6.36584,-8.75776 -10.10808,-18.01677 -11.26553,-27.73913 -1.15839,-9.76087 -1.73603,-30.2469 -1.73603,-61.45839 l 0,-162.88571 73.14814,0 0,206.52019 c 0,12.07546 0.65839,19.79161 1.96584,23.18664 1.31056,3.35652 3.97391,5.01553 7.98634,5.01553 4.59099,0 7.56149,-1.85093 8.87329,-5.55559 1.31056,-3.70373 2.00621,-12.42298 2.00621,-26.23478 l 0,-202.93199 73.10963,0"
       style="fill:#004a91;fill-opacity:1;fill-rule:nonzero;stroke:none"
       id="path1522" />
    <path
       inkscape:connector-curvature="0"
       d="m 980.00069,9.7479 121.37321,0 0,54.783851 -51.9674,0 0,51.929189 48.7267,0 0,52.85497 -48.7267,0 0,60.57081 56.5972,0 0,55.5941 -126.00301,0 0,-275.73292"
       style="fill:#004a91;fill-opacity:1;fill-rule:nonzero;stroke:none"
       id="path1524" />
    <path
       inkscape:connector-curvature="0"
       d="m 656.85255,305.61995 0,200 -46.0264,0 -0.21739,-135.03106 -18.40279,135.03106 -32.5618,0 -19.29007,-132.25311 -0.24844,132.25311 -46.0264,0 0,-200 68.20994,0 c 1.81366,12.03696 3.93509,26.19596 6.32702,42.47671 l 7.52329,50.92608 11.99844,-93.40279 68.7115,0"
       style="fill:#004a91;fill-opacity:1;fill-rule:nonzero;stroke:none"
       id="path1526" />
    <path
       inkscape:connector-curvature="0"
       d="m 740.10876,357.08579 c 0,-9.29783 -0.5031,-15.23913 -1.54348,-17.82391 -1.04037,-2.58696 -3.12515,-3.89659 -6.36583,-3.89659 -2.70187,0 -4.78386,1.08075 -6.2115,3.16336 -1.42546,2.08385 -2.16149,8.29472 -2.16149,18.55714 l 0,93.24845 c 0,11.61273 0.5,18.75 1.42547,21.48913 0.92547,2.70186 3.12484,4.08975 6.5972,4.08975 3.54938,0 5.78696,-1.58075 6.75156,-4.70683 1.0031,-3.12516 1.50621,-10.57112 1.50621,-22.33789 l 0,-91.78261 z m 53.00901,65.62515 c 0,20.10031 -0.46273,34.29783 -1.46584,42.66957 -0.92547,8.33354 -3.9354,15.97236 -9.02795,22.91677 -5.05404,6.9059 -11.88261,12.1913 -20.52453,15.89503 -8.60342,3.70373 -18.67299,5.55559 -30.13137,5.55559 -10.8795,0 -20.64037,-1.73292 -29.32081,-5.24689 -8.68074,-3.47236 -15.62515,-8.71926 -20.91056,-15.74069 -5.24689,-6.98323 -8.41056,-14.58354 -9.41366,-22.83944 -1.00311,-8.17919 -1.50621,-22.64689 -1.50621,-43.20994 l 0,-34.18229 c 0,-20.0615 0.5,-34.29783 1.46583,-42.63106 0.92547,-8.37205 3.9351,-16.01087 9.02796,-22.87795 5.05403,-6.94472 11.8826,-12.23013 20.52453,-15.97236 8.60342,-3.66522 18.67298,-5.51708 30.13106,-5.51708 10.91832,0 20.67919,1.73913 29.32111,5.24689 8.64193,3.47236 15.62516,8.71926 20.91056,15.70218 5.28541,6.98323 8.41056,14.62205 9.41367,22.83975 1.0031,8.2559 1.50621,22.64658 1.50621,43.20963 l 0,34.18229"
       style="fill:#004a91;fill-opacity:1;fill-rule:nonzero;stroke:none"
       id="path1528" />
    <path
       inkscape:connector-curvature="0"
       d="m 936.25069,305.61995 -27.08354,200 -79.74534,0 -30.82547,-200 55.82547,0 c 6.32732,55.09255 10.91832,101.77453 13.69596,140.20062 2.7764,-38.8118 5.82577,-73.10963 9.06646,-103.00932 l 3.2795,-37.1913 55.78696,0"
       style="fill:#004a91;fill-opacity:1;fill-rule:nonzero;stroke:none"
       id="path1530" />
    <path
       inkscape:connector-curvature="0"
       d="m 947.94044,505.61995 53.04406,0 0,-199.98882 -53.04406,0 0,199.98882 z"
       style="fill:#004a91;fill-opacity:1;fill-rule:nonzero;stroke:none"
       id="path1532" />
    <path
       inkscape:connector-curvature="0"
       d="m 1014.3755,305.61995 88.3876,0 0,39.8146 -35.3398,0 0,38.00155 32.9863,0 0,38.00155 -32.9863,0 0,44.36739 38.5804,0 0,39.81491 -91.6282,0 0,-200"
       style="fill:#004a91;fill-opacity:1;fill-rule:nonzero;stroke:none"
       id="path1534" />
    <path
       inkscape:connector-curvature="0"
       d="m 175.64106,9.863739 129.01242,0 c 3.9736,56.635714 29.97671,94.714281 53.6264,121.604971 2.58696,2.8913 5.36273,3.74223 8.95062,5.90279 l -0.21739,11.1882 c 7.9087,34.91491 -13.88913,80.94131 -69.52174,90.54783 -33.17888,84.83789 28.58789,109.72205 25.69441,180.86428 -1.62112,39.5059 -8.10186,58.71895 -16.58944,86.8441 l -130.9413,0 0,-496.952171 z m 162.57702,0 132.29192,0 0,496.952171 -146.25776,0 c 7.02143,-15.58664 13.65745,-31.67453 18.71149,-46.60497 30.01522,-88.58043 -39.69907,-117.16832 24.49845,-221.18074 55.67112,-9.60652 77.54627,-55.55559 69.63727,-90.4705 l 0.21739,-11.1882 c -3.54969,-2.23913 -6.05715,-3.2795 -8.95062,-5.90279 -31.90591,-29.20528 -68.75,-54.205282 -90.16212,-121.604971"
       style="fill:#ed145a;fill-opacity:1;fill-rule:evenodd;stroke:none"
       id="path1536" />
  </g>
</svg>
