<?xml version="1.0" encoding="UTF-8" standalone="no"?>
<!-- Created with Inkscape (http://www.inkscape.org/) -->

<svg
   xmlns:dc="http://purl.org/dc/elements/1.1/"
   xmlns:cc="http://creativecommons.org/ns#"
   xmlns:rdf="http://www.w3.org/1999/02/22-rdf-syntax-ns#"
   xmlns:svg="http://www.w3.org/2000/svg"
   xmlns="http://www.w3.org/2000/svg"
   xmlns:sodipodi="http://sodipodi.sourceforge.net/DTD/sodipodi-0.dtd"
   xmlns:inkscape="http://www.inkscape.org/namespaces/inkscape"
   width="355"
   height="580"
   id="svg3295"
   sodipodi:version="0.32"
   inkscape:version="0.47 r22583"
   version="1.0"
   sodipodi:docname="EinsHDtief Logo.svg"
   inkscape:output_extension="org.inkscape.output.svg.inkscape">
  <defs
     id="defs3297">
    <inkscape:perspective
       sodipodi:type="inkscape:persp3d"
       inkscape:vp_x="0 : 526.18109 : 1"
       inkscape:vp_y="0 : 1000 : 0"
       inkscape:vp_z="744.09448 : 526.18109 : 1"
       inkscape:persp3d-origin="372.04724 : 350.78739 : 1"
       id="perspective3303" />
    <inkscape:perspective
       id="perspective2826"
       inkscape:persp3d-origin="0.5 : 0.33333333 : 1"
       inkscape:vp_z="1 : 0.5 : 1"
       inkscape:vp_y="0 : 1000 : 0"
       inkscape:vp_x="0 : 0.5 : 1"
       sodipodi:type="inkscape:persp3d" />
  </defs>
  <sodipodi:namedview
     id="base"
     pagecolor="#ffffff"
     bordercolor="#666666"
     borderopacity="1.0"
     inkscape:pageopacity="0.0"
     inkscape:pageshadow="2"
     inkscape:zoom="0.87167835"
     inkscape:cx="255.41094"
     inkscape:cy="239.40345"
     inkscape:document-units="px"
     inkscape:current-layer="layer1"
     showgrid="false"
     inkscape:window-width="1280"
     inkscape:window-height="1005"
     inkscape:window-x="-4"
     inkscape:window-y="-4"
     showguides="true"
     inkscape:guide-bbox="true"
     inkscape:window-maximized="1" />
  <metadata
     id="metadata3300">
    <rdf:RDF>
      <cc:Work
         rdf:about="">
        <dc:format>image/svg+xml</dc:format>
        <dc:type
           rdf:resource="http://purl.org/dc/dcmitype/StillImage" />
        <dc:title />
      </cc:Work>
    </rdf:RDF>
  </metadata>
  <g
     inkscape:label="Ebene 1"
     inkscape:groupmode="layer"
     id="layer1"
     transform="translate(18.924256,-311.47039)">
    <g
       id="g2819">
      <g
         transform="translate(-374.23892,295.52554)"
         id="g2837">
        <g
           id="g3267"
           transform="matrix(0.6039635,0,0,0.6039635,-127.32108,268.75172)"
           style="fill:#003257;fill-opacity:1">
          <path
             sodipodi:nodetypes="ccsssccssscc"
             id="path2481"
             d="m 1103.3125,190.59375 0,349.25 c 0,0 62.5789,0 89.4063,0 162.2387,0 189.9987,-82.53679 189.9987,-175.84375 0,-84.2665 -28.9785,-173.40625 -189.9987,-173.40625 -26.8274,1e-5 -89.4063,0 -89.4063,0 z m 89.4063,75.15625 c 0,0 17.4595,10e-6 24.9374,0 57.1768,0 72.9689,54.11217 72.9688,100.84375 0,49.62997 -16.5249,101.65625 -68.6875,101.65625 -8.7597,0 -29.2188,0 -29.2187,0 l 0,-202.5 z"
             style="fill:#003257;fill-opacity:1;fill-rule:evenodd;stroke:none" />
          <path
             id="rect2490"
             d="m 804.8125,190.59375 0,349.25 88.21875,0 0,-146.21875 103.78125,0 0,146.21875 88.2187,0 0,-349.25 -88.2187,0 0,125.6875 -103.78125,0 0,-125.6875 -88.21875,0 z"
             style="fill:#003257;fill-opacity:1;stroke:none" />
        </g>
      </g>
      <path
         sodipodi:nodetypes="ccccccc"
         id="path3277"
         d="m 55.338691,444.24284 171.515429,-61.60616 0,169.81699 -114.58691,39.94932 0,-126.26456 -56.928519,19.91979 0,-41.81538 z"
         style="fill:#003257;fill-opacity:1;fill-rule:evenodd;stroke:none" />
      <path
         id="path3279"
         d="m 159.48278,315.56988 c -93.802772,0 -169.940217,76.13744 -169.940217,169.94023 0,93.80278 76.137439,169.92134 169.940217,169.92135 93.80278,0 169.9402,-76.11857 169.9402,-169.92135 0,-93.80279 -76.13742,-169.94023 -169.9402,-169.94023 z m -0.54734,22.62976 c 81.11356,0 146.95187,65.83829 146.95187,146.95186 0,81.11358 -65.8383,146.933 -146.95187,146.933 -81.113568,0 -146.951857,-65.81942 -146.951857,-146.933 -6e-6,-81.11357 65.838295,-146.95186 146.951857,-146.95186 z"
         style="fill:#003257;fill-opacity:1;stroke:none" />
    </g>
  </g>
</svg>
