<?xml version="1.0" encoding="UTF-8" standalone="no"?>
<!-- Created with Inkscape (http://www.inkscape.org/) -->
<svg
   xmlns:dc="http://purl.org/dc/elements/1.1/"
   xmlns:cc="http://creativecommons.org/ns#"
   xmlns:rdf="http://www.w3.org/1999/02/22-rdf-syntax-ns#"
   xmlns:svg="http://www.w3.org/2000/svg"
   xmlns="http://www.w3.org/2000/svg"
   xmlns:xlink="http://www.w3.org/1999/xlink"
   xmlns:sodipodi="http://sodipodi.sourceforge.net/DTD/sodipodi-0.dtd"
   xmlns:inkscape="http://www.inkscape.org/namespaces/inkscape"
   width="1010"
   height="600"
   id="svg3317"
   sodipodi:version="0.32"
   inkscape:version="0.46"
   version="1.0"
   sodipodi:docname="Goldstar TV Logo.svg"
   inkscape:output_extension="org.inkscape.output.svg.inkscape">
  <defs
     id="defs3319">
    <linearGradient
       id="linearGradient3279">
      <stop
         style="stop-color:#f7df25;stop-opacity:1;"
         offset="0"
         id="stop3281" />
      <stop
         style="stop-color:#dfa014;stop-opacity:1;"
         offset="1"
         id="stop3283" />
    </linearGradient>
    <radialGradient
       inkscape:collect="always"
       xlink:href="#linearGradient3279"
       id="radialGradient3287"
       cx="2466.9338"
       cy="-1233.4005"
       fx="2466.9338"
       fy="-1233.4005"
       r="103.36697"
       gradientTransform="matrix(-2.3814319,-1.2992036,0.8961866,-1.6427041,9489.6815,-103.9617)"
       gradientUnits="userSpaceOnUse" />
    <inkscape:perspective
       sodipodi:type="inkscape:persp3d"
       inkscape:vp_x="0 : 526.18109 : 1"
       inkscape:vp_y="0 : 1000 : 0"
       inkscape:vp_z="744.09448 : 526.18109 : 1"
       inkscape:persp3d-origin="372.04724 : 350.78739 : 1"
       id="perspective3325" />
  </defs>
  <sodipodi:namedview
     id="base"
     pagecolor="#ffffff"
     bordercolor="#666666"
     borderopacity="1.0"
     inkscape:pageopacity="0.0"
     inkscape:pageshadow="2"
     inkscape:zoom="0.82892518"
     inkscape:cx="505"
     inkscape:cy="300"
     inkscape:document-units="px"
     inkscape:current-layer="layer1"
     showgrid="false"
     inkscape:window-width="1280"
     inkscape:window-height="1005"
     inkscape:window-x="-4"
     inkscape:window-y="-4" />
  <metadata
     id="metadata3322">
    <rdf:RDF>
      <cc:Work
         rdf:about="">
        <dc:format>image/svg+xml</dc:format>
        <dc:type
           rdf:resource="http://purl.org/dc/dcmitype/StillImage" />
      </cc:Work>
    </rdf:RDF>
  </metadata>
  <g
     inkscape:label="Ebene 1"
     inkscape:groupmode="layer"
     id="layer1"
     transform="translate(117.88845,-182.23151)">
    <g
       id="g3289"
       transform="translate(-1726.0871,1762.2296)">
      <g
         style="fill:#0f4083;fill-opacity:1"
         transform="translate(-220.30275,-284.36117)"
         id="g3238">
        <path
           style="fill:#0f4083;fill-opacity:1;fill-rule:evenodd;stroke:none;stroke-width:1px;stroke-linecap:butt;stroke-linejoin:miter;stroke-opacity:1"
           d="M 1925.2141,-891.58816 L 1925.2141,-915.15276 C 1925.2141,-915.15276 1832.5014,-939.96036 1832.5014,-865.90885 C 1832.5014,-855.03086 1836.416,-846.08031 1839.9625,-838.72535 C 1853.5499,-810.5473 1886.5284,-805.78902 1905.5607,-805.78902 C 1912.4821,-805.78902 1928.6321,-805.78902 1928.6321,-805.78902 L 1928.6321,-877.21799 L 1891.608,-877.21799 L 1891.608,-853.71937 L 1905.5607,-853.71937 L 1905.5607,-831.16623 C 1905.5607,-831.16623 1859.8866,-828.45428 1859.8865,-865.90885 C 1859.8864,-910.03636 1925.2141,-891.58816 1925.2141,-891.58816 z"
           id="path2485"
           sodipodi:nodetypes="ccsssccccccsc" />
        <rect
           style="opacity:1;fill:#0f4083;fill-opacity:1;stroke:none;stroke-width:13.29199982;stroke-miterlimit:4;stroke-dasharray:none;stroke-dashoffset:0;stroke-opacity:1"
           id="rect2487"
           width="26.062105"
           height="113.29924"
           x="2035.8715"
           y="-919.08826" />
        <path
           style="opacity:1;fill:#0f4083;fill-opacity:1;stroke:none;stroke-width:1;stroke-miterlimit:4;stroke-dasharray:none;stroke-dashoffset:0;stroke-opacity:1"
           d="M 1982.4986,-888.61055 C 1959.6004,-888.61055 1941.0298,-870.00878 1941.0299,-847.11055 C 1941.0299,-824.2123 1959.6004,-805.64179 1982.4986,-805.6418 C 2005.3969,-805.6418 2023.9986,-824.21229 2023.9986,-847.11055 C 2023.9986,-870.0088 2005.3968,-888.61054 1982.4986,-888.61055 z M 1982.2435,-864.32368 C 1991.9129,-864.32369 1999.7747,-856.4619 1999.7747,-846.79243 C 1999.7747,-837.12297 1991.9129,-829.29243 1982.2435,-829.29243 C 1972.574,-829.29244 1964.7435,-837.12296 1964.7435,-846.79243 C 1964.7435,-856.46191 1972.574,-864.32368 1982.2435,-864.32368 z"
           id="path3259"
           sodipodi:nodetypes="csssccsssc" />
        <path
           style="fill:#0f4083;fill-opacity:1;fill-rule:evenodd;stroke:none;stroke-width:1px;stroke-linecap:butt;stroke-linejoin:miter;stroke-opacity:1"
           d="M 2134.7332,-918.61331 L 2134.7332,-881.86327 C 2108.2822,-896.98341 2075.6755,-874.20625 2075.8269,-850.63397 C 2075.7979,-846.19147 2075.7063,-842.10642 2076.3641,-838.36641 C 2081.7747,-807.60494 2109.4076,-800.186 2134.7332,-809.20702 L 2134.7332,-805.73827 L 2160.1082,-805.73827 L 2160.1082,-918.61331 L 2134.7332,-918.61331 z M 2117.8269,-863.42577 C 2128.4999,-863.42578 2137.1707,-855.37951 2137.1707,-845.45702 C 2137.1707,-835.53454 2128.4999,-827.48827 2117.8269,-827.48827 C 2107.154,-827.48828 2098.4832,-835.53453 2098.4832,-845.45702 C 2098.4832,-855.37952 2107.154,-863.42577 2117.8269,-863.42577 z"
           id="path3266"
           sodipodi:nodetypes="cccsccccccsssc" />
        <path
           style="fill:#0f4083;fill-opacity:1;fill-rule:evenodd;stroke:none;stroke-width:1px;stroke-linecap:butt;stroke-linejoin:miter;stroke-opacity:1"
           d="M 2235.2377,-894.65226 L 2235.2377,-916.83136 C 2235.2377,-916.83136 2179.3533,-928.90696 2179.6955,-891.93325 C 2179.7437,-886.68227 2179.8865,-879.83359 2182.1283,-875.53503 C 2190.8208,-858.86737 2213.0667,-852.69482 2213.1967,-839.06405 C 2213.3138,-826.35936 2179.6955,-834.53241 2179.6955,-834.53241 L 2179.6955,-810.06152 C 2179.6955,-810.06152 2193.0055,-804.54925 2206.6593,-805.89827 C 2223.2275,-807.53523 2240.7055,-820.87644 2240.6887,-836.34507 C 2240.6521,-870.90407 2206.4564,-873.59982 2205.9713,-889.70298 C 2205.6356,-900.84486 2235.2377,-894.65226 2235.2377,-894.65226 z"
           id="path3271"
           sodipodi:nodetypes="ccsssccsssc" />
        <path
           style="fill:#0f4083;fill-opacity:1;fill-rule:evenodd;stroke:none;stroke-width:1px;stroke-linecap:butt;stroke-linejoin:miter;stroke-opacity:1"
           d="M 2280.0987,-905.33774 L 2256.1728,-905.33774 L 2256.1728,-885.68433 L 2249.7641,-885.68433 L 2249.7641,-864.32194 L 2256.1728,-864.32194 C 2256.1728,-864.32194 2256.1728,-834.43374 2256.1728,-822.02432 C 2256.1728,-818.69747 2257.3679,-814.09613 2259.293,-811.38282 C 2260.9598,-809.03346 2264.3235,-805.78902 2271.3698,-805.78902 C 2277.9188,-805.78902 2289.4981,-805.78902 2289.4981,-805.78902 L 2289.4981,-828.89731 C 2289.4981,-828.89731 2284.7441,-828.7409 2283.1122,-829.43245 C 2280.0987,-830.70949 2280.0987,-833.20238 2280.0987,-833.20238 L 2280.0987,-864.32194 L 2292.0616,-864.32194 L 2292.0616,-885.68433 L 2280.0987,-885.68433 L 2280.0987,-905.33774 z"
           id="path3281"
           sodipodi:nodetypes="ccccccsssccscccccc" />
        <path
           style="fill:#0f4083;fill-opacity:1;fill-rule:evenodd;stroke:none;stroke-width:1px;stroke-linecap:butt;stroke-linejoin:miter;stroke-opacity:1"
           d="M 2345.4765,-887.25777 C 2325.4401,-887.25777 2313.7578,-879.72653 2313.7578,-879.72652 L 2313.7578,-858.85152 C 2313.7578,-858.85152 2330.0509,-866.09986 2337.4765,-865.97652 C 2343.5948,-865.87489 2355.4214,-865.43352 2356.8203,-859.47652 C 2357.128,-858.16633 2354.9471,-855.99955 2353.6328,-856.28902 C 2327.4329,-862.05908 2308.2711,-849.96299 2307.4453,-832.88277 C 2306.1175,-805.76597 2330.7563,-798.96461 2355.664,-809.50777 L 2357.2578,-805.78902 L 2378.7265,-805.78902 C 2378.7265,-805.78902 2378.7265,-852.06873 2378.7265,-868.53902 C 2378.7265,-879.9832 2359.5863,-887.25776 2345.4765,-887.25777 z M 2343.164,-839.32027 C 2350.0034,-839.32027 2355.5703,-835.81186 2355.5703,-831.50777 C 2355.5703,-827.20368 2350.0034,-823.72652 2343.164,-823.72652 C 2336.3246,-823.72653 2330.789,-827.20368 2330.789,-831.50777 C 2330.789,-835.81187 2336.3247,-839.32027 2343.164,-839.32027 z"
           id="path3283" />
        <path
           style="fill:#0f4083;fill-opacity:1;fill-rule:evenodd;stroke:none;stroke-width:1px;stroke-linecap:butt;stroke-linejoin:miter;stroke-opacity:1"
           d="M 2400.1841,-887.27999 L 2400.1841,-805.78902 L 2424.3529,-805.78902 L 2424.3529,-842.3187 C 2424.3529,-842.3187 2424.3529,-849.50981 2431.451,-854.28163 C 2435.4063,-856.94063 2447.0111,-857.48599 2447.0111,-857.48599 C 2447.0111,-857.48599 2447.0111,-881.64399 2447.0111,-882.80039 C 2447.0111,-883.33559 2447.0111,-887.27999 2440.0626,-887.27999 C 2432.987,-887.27999 2424.3529,-877.15939 2424.3529,-877.15939 L 2424.3529,-887.27999 L 2400.1841,-887.27999 z"
           id="path3172"
           sodipodi:nodetypes="ccccscssccc" />
        <path
           style="fill:#0f4083;fill-opacity:1;fill-rule:evenodd;stroke:none;stroke-width:1px;stroke-linecap:butt;stroke-linejoin:miter;stroke-opacity:1"
           d="M 2455.0675,-919.00965 L 2455.0675,-892.94754 L 2481.1296,-892.94754 L 2481.1296,-805.78902 L 2508.4735,-805.78902 L 2508.4735,-892.94754 L 2551.1982,-892.94754 L 2571.2961,-805.78902 L 2608.4556,-805.78902 L 2633.2286,-919.00965 L 2607.5492,-919.00965 C 2607.5492,-919.00965 2595.2782,-860.33766 2591.9905,-846.1931 C 2591.7843,-845.3059 2589.4334,-845.33768 2589.1205,-846.1931 C 2582.5922,-864.04014 2572.5045,-919.00965 2572.5045,-919.00965 L 2455.0675,-919.00965 z"
           id="path3176"
           sodipodi:nodetypes="cccccccccccsscc" />
      </g>
      <g
         style="fill:#0f4083;fill-opacity:1"
         transform="translate(-219.044,-283.69243)"
         id="g3249">
        <path
           style="fill:#0f4083;fill-opacity:1;fill-rule:evenodd;stroke:none;stroke-width:1px;stroke-linecap:butt;stroke-linejoin:miter;stroke-opacity:1"
           d="M 2212.5688,-736.45957 C 2204.0562,-725.43805 2186.9438,-700.61582 2186.9438,-700.61582 L 2196.6626,-700.61582 L 2202.6626,-709.52207 L 2227.3813,-709.52207 L 2233.6313,-700.61582 L 2242.8188,-700.61582 C 2242.8188,-700.61582 2224.136,-726.98174 2217.1626,-736.33457 C 2216.3385,-737.43981 2213.4115,-737.55066 2212.5688,-736.45957 z M 2214.7251,-727.49082 L 2222.4126,-716.58457 L 2207.3813,-716.58457 L 2214.7251,-727.49082 z"
           id="path3182"
           sodipodi:nodetypes="cccccccsscccc" />
        <path
           style="fill:#0f4083;fill-opacity:1;fill-rule:evenodd;stroke:none;stroke-width:1px;stroke-linecap:butt;stroke-linejoin:miter;stroke-opacity:1"
           d="M 2244.8342,-736.87944 C 2244.8342,-736.87944 2244.8876,-719.13172 2244.8876,-710.92415 C 2244.8876,-709.19677 2244.7316,-705.83598 2248.0386,-703.02006 C 2250.722,-700.73507 2255.6508,-700.61582 2257.171,-700.61582 C 2266.1807,-700.61582 2282.6456,-700.61582 2282.6456,-700.61582 L 2282.6456,-707.71979 C 2282.6456,-707.71979 2265.4963,-707.73651 2258.1857,-707.71979 C 2256.8721,-707.71679 2255.5705,-708.14168 2254.498,-708.90019 C 2253.7434,-709.4339 2252.8352,-710.58737 2252.8451,-711.5116 C 2252.9223,-718.72258 2252.8451,-736.87944 2252.8451,-736.87944 L 2244.8342,-736.87944 z"
           id="path3195"
           sodipodi:nodetypes="csssccssscc" />
        <path
           sodipodi:nodetypes="csssccssscc"
           id="path3197"
           d="M 2286.5558,-736.87944 C 2286.5558,-736.87944 2286.6092,-719.13172 2286.6092,-710.92415 C 2286.6092,-709.19677 2286.4532,-705.83598 2289.7601,-703.02006 C 2292.4436,-700.73507 2297.3723,-700.61582 2298.8925,-700.61582 C 2307.9022,-700.61582 2324.3672,-700.61582 2324.3672,-700.61582 L 2324.3672,-707.71979 C 2324.3672,-707.71979 2307.2179,-707.73651 2299.9073,-707.71979 C 2298.5937,-707.71679 2297.292,-708.14168 2296.2196,-708.90019 C 2295.4649,-709.4339 2294.5568,-710.58737 2294.5667,-711.5116 C 2294.6438,-718.72258 2294.5667,-736.87944 2294.5667,-736.87944 L 2286.5558,-736.87944 z"
           style="fill:#0f4083;fill-opacity:1;fill-rule:evenodd;stroke:none;stroke-width:1px;stroke-linecap:butt;stroke-linejoin:miter;stroke-opacity:1" />
        <path
           style="fill:#0f4083;fill-opacity:1;fill-rule:evenodd;stroke:none;stroke-width:1px;stroke-linecap:butt;stroke-linejoin:miter;stroke-opacity:1"
           d="M 2369.3014,-730.07152 L 2369.3014,-736.87944 C 2369.3014,-736.87944 2351.6214,-736.87944 2343.1202,-736.87944 C 2337.5753,-736.87944 2335.1203,-735.60306 2333.1993,-734.26597 C 2330.6498,-732.4915 2329.1208,-730.07152 2329.1208,-726.70694 C 2329.1208,-718.39893 2329.1208,-714.7248 2329.1208,-709.41916 C 2329.1208,-707.81473 2330.7566,-704.4987 2332.9608,-702.87627 C 2335.5573,-700.96508 2340.5562,-700.61582 2343.0556,-700.61582 C 2351.7601,-700.61582 2369.3014,-700.61582 2369.3014,-700.61582 L 2369.3014,-707.71979 L 2342.4136,-707.71979 C 2342.4136,-707.71979 2338.4293,-707.38711 2337.2259,-708.57429 C 2335.8167,-709.96451 2336.3714,-715.11709 2336.3714,-715.11709 L 2369.3014,-715.11709 L 2369.3014,-721.91455 L 2336.3714,-721.91455 C 2336.3714,-721.91455 2335.8047,-728.28415 2337.0657,-729.27043 C 2338.1726,-730.13618 2339.2175,-730.07152 2342.0497,-730.07152 C 2351.3797,-730.07152 2369.3014,-730.07152 2369.3014,-730.07152 z"
           id="path3209"
           sodipodi:nodetypes="ccsssssscccsccccssc" />
        <path
           style="fill:#0f4083;fill-opacity:1;fill-rule:evenodd;stroke:none;stroke-width:1px;stroke-linecap:butt;stroke-linejoin:miter;stroke-opacity:1"
           d="M 2414.6199,-736.87944 C 2414.6199,-736.87944 2396.5251,-736.87944 2388.714,-736.87944 C 2383.3739,-736.87944 2373.8351,-734.7317 2373.8351,-725.38882 C 2373.8351,-718.76577 2381.3357,-715.4192 2386.0706,-715.4192 C 2390.5567,-715.4192 2395.1278,-715.4192 2399.3634,-715.4192 C 2401.576,-715.4192 2406.9078,-715.41922 2406.9161,-711.18966 C 2406.9239,-707.26223 2401.3002,-707.26223 2399.2879,-707.26223 C 2391.3972,-707.26223 2373.8351,-707.26223 2373.8351,-707.26223 L 2373.8351,-700.61582 C 2373.8351,-700.61582 2393.5411,-700.61582 2401.2829,-700.61582 C 2408.792,-700.61582 2414.6199,-702.97734 2414.6199,-711.34072 C 2414.6199,-716.29578 2410.1976,-721.91455 2401.9313,-721.91455 C 2397.4999,-721.91455 2391.7966,-721.91455 2387.2897,-721.91455 C 2384.446,-721.91455 2381.6456,-723.14986 2381.69,-725.99304 C 2381.734,-728.76099 2384.5379,-730.07152 2387.4667,-730.07152 C 2395.3399,-730.07152 2414.6199,-730.07152 2414.6199,-730.07152 L 2414.6199,-736.87944 z"
           id="path3211"
           sodipodi:nodetypes="cssssssccsssssscc" />
        <path
           sodipodi:nodetypes="cssssssccsssssscc"
           id="path3213"
           d="M 2482.7412,-736.87944 C 2482.7412,-736.87944 2464.6464,-736.87944 2456.8353,-736.87944 C 2451.4952,-736.87944 2441.9564,-734.7317 2441.9564,-725.38882 C 2441.9564,-718.76577 2449.457,-715.4192 2454.1919,-715.4192 C 2458.678,-715.4192 2463.2491,-715.4192 2467.4847,-715.4192 C 2469.6973,-715.4192 2475.0291,-715.41922 2475.0374,-711.18966 C 2475.0452,-707.26223 2469.4216,-707.26223 2467.4092,-707.26223 C 2459.5185,-707.26223 2441.9564,-707.26223 2441.9564,-707.26223 L 2441.9564,-700.61582 C 2441.9564,-700.61582 2461.6624,-700.61582 2469.4042,-700.61582 C 2476.9134,-700.61582 2482.7412,-702.97734 2482.7412,-711.34072 C 2482.7412,-716.29578 2478.3189,-721.91455 2470.0526,-721.91455 C 2465.6212,-721.91455 2459.9179,-721.91455 2455.4111,-721.91455 C 2452.5673,-721.91455 2449.7669,-723.14986 2449.8113,-725.99304 C 2449.8553,-728.76099 2452.6592,-730.07152 2455.588,-730.07152 C 2463.4612,-730.07152 2482.7412,-730.07152 2482.7412,-730.07152 L 2482.7412,-736.87944 z"
           style="fill:#0f4083;fill-opacity:1;fill-rule:evenodd;stroke:none;stroke-width:1px;stroke-linecap:butt;stroke-linejoin:miter;stroke-opacity:1" />
        <path
           style="fill:#0f4083;fill-opacity:1;fill-rule:evenodd;stroke:none;stroke-width:1px;stroke-linecap:butt;stroke-linejoin:miter;stroke-opacity:1"
           d="M 2527.2146,-730.07152 L 2527.2146,-736.87944 C 2527.2146,-736.87944 2507.8324,-736.87944 2499.5839,-736.87944 C 2494.8209,-736.87944 2492.5271,-735.7369 2490.5961,-733.99894 C 2488.3265,-731.95621 2487.2669,-729.60326 2487.2669,-727.35253 C 2487.2669,-722.33598 2487.2669,-715.06815 2487.2669,-710.13228 C 2487.2669,-706.61186 2488.8424,-704.76583 2490.5961,-703.25928 C 2492.4552,-701.66224 2495.0182,-700.61582 2498.5265,-700.61582 C 2507.2136,-700.61582 2527.2146,-700.61582 2527.2146,-700.61582 L 2527.2146,-707.26223 C 2527.2146,-707.26223 2508.0777,-707.236 2499.8104,-707.26223 C 2498.7494,-707.2656 2497.2803,-707.71048 2496.4532,-708.37515 C 2495.7694,-708.92464 2494.9391,-710.01055 2494.9574,-710.88755 C 2495.0546,-715.55081 2495.0145,-722.11328 2494.9574,-726.74831 C 2494.9477,-727.53379 2495.5273,-728.57311 2496.1107,-729.0991 C 2496.7381,-729.66469 2497.9084,-730.07281 2498.7531,-730.07152 C 2507.1591,-730.05866 2527.2146,-730.07152 2527.2146,-730.07152 z"
           id="path3219"
           sodipodi:nodetypes="ccssssssccssssssc" />
        <path
           style="fill:#0f4083;fill-opacity:1;fill-rule:evenodd;stroke:none;stroke-width:1px;stroke-linecap:butt;stroke-linejoin:miter;stroke-opacity:1"
           d="M 2540.6362,-736.87944 L 2532.6253,-736.87944 L 2532.6253,-700.61582 L 2540.6362,-700.61582 L 2540.6362,-715.0898 L 2569.7959,-715.0898 L 2569.7959,-700.61582 L 2577.0591,-700.61582 L 2577.0591,-736.87944 L 2569.7959,-736.87944 L 2569.7959,-722.03258 L 2540.6362,-722.03258 L 2540.6362,-736.87944 z"
           id="path2425" />
        <path
           style="fill:#0f4083;fill-opacity:1;fill-rule:evenodd;stroke:none;stroke-width:1px;stroke-linecap:butt;stroke-linejoin:miter;stroke-opacity:1"
           d="M 2582.828,-736.87944 C 2582.828,-736.87944 2582.8815,-719.13172 2582.8815,-710.92415 C 2582.8815,-709.19677 2582.7255,-705.83598 2586.0324,-703.02006 C 2588.7159,-700.73507 2593.6446,-700.61582 2595.1648,-700.61582 C 2604.1745,-700.61582 2620.6395,-700.61582 2620.6395,-700.61582 L 2620.6395,-707.71979 C 2620.6395,-707.71979 2603.4901,-707.73651 2596.1795,-707.71979 C 2594.8659,-707.71679 2593.5643,-708.14168 2592.4918,-708.90019 C 2591.7372,-709.4339 2590.8291,-710.58737 2590.8389,-711.5116 C 2590.9161,-718.72258 2590.8389,-736.87944 2590.8389,-736.87944 L 2582.828,-736.87944 z"
           id="path3198"
           sodipodi:nodetypes="csssccssscc" />
        <path
           sodipodi:nodetypes="cccccccsscccc"
           id="path3200"
           d="M 2647.967,-736.45957 C 2639.4544,-725.43805 2622.342,-700.61582 2622.342,-700.61582 L 2632.0607,-700.61582 L 2638.0607,-709.52207 L 2662.7795,-709.52207 L 2669.0295,-700.61582 L 2678.217,-700.61582 C 2678.217,-700.61582 2659.5342,-726.98174 2652.5607,-736.33457 C 2651.7367,-737.43981 2648.8097,-737.55066 2647.967,-736.45957 z M 2650.1232,-727.49082 L 2657.8107,-716.58457 L 2642.7795,-716.58457 L 2650.1232,-727.49082 z"
           style="fill:#0f4083;fill-opacity:1;fill-rule:evenodd;stroke:none;stroke-width:1px;stroke-linecap:butt;stroke-linejoin:miter;stroke-opacity:1" />
        <path
           sodipodi:nodetypes="ccsssssscccsccccssc"
           id="path3202"
           d="M 2769.2124,-730.07152 L 2769.2124,-736.87944 C 2769.2124,-736.87944 2751.5324,-736.87944 2743.0313,-736.87944 C 2737.4863,-736.87944 2735.0314,-735.60306 2733.1103,-734.26597 C 2730.5609,-732.4915 2729.0318,-730.07152 2729.0318,-726.70694 C 2729.0318,-718.39893 2729.0318,-714.7248 2729.0318,-709.41916 C 2729.0318,-707.81473 2730.6677,-704.4987 2732.8719,-702.87627 C 2735.4684,-700.96508 2740.4672,-700.61582 2742.9666,-700.61582 C 2751.6712,-700.61582 2769.2124,-700.61582 2769.2124,-700.61582 L 2769.2124,-707.71979 L 2742.3247,-707.71979 C 2742.3247,-707.71979 2738.3403,-707.38711 2737.137,-708.57429 C 2735.7278,-709.96451 2736.2825,-715.11709 2736.2825,-715.11709 L 2769.2124,-715.11709 L 2769.2124,-721.91455 L 2736.2825,-721.91455 C 2736.2825,-721.91455 2735.7158,-728.28415 2736.9768,-729.27043 C 2738.0836,-730.13618 2739.1286,-730.07152 2741.9607,-730.07152 C 2751.2907,-730.07152 2769.2124,-730.07152 2769.2124,-730.07152 z"
           style="fill:#0f4083;fill-opacity:1;fill-rule:evenodd;stroke:none;stroke-width:1px;stroke-linecap:butt;stroke-linejoin:miter;stroke-opacity:1" />
        <path
           style="fill:#0f4083;fill-opacity:1;fill-rule:evenodd;stroke:none;stroke-width:1px;stroke-linecap:butt;stroke-linejoin:miter;stroke-opacity:1"
           d="M 2724.1261,-736.99613 C 2724.1261,-736.99613 2701.2886,-736.99613 2691.8011,-736.99613 C 2689.2833,-736.99613 2685.8021,-735.7417 2683.9463,-734.0401 C 2682.2058,-732.44417 2680.5469,-729.30197 2680.5469,-726.94053 C 2680.5469,-722.04246 2680.5469,-715.38491 2680.5469,-710.55107 C 2680.5469,-708.15949 2682.3491,-704.99861 2684.1729,-703.4515 C 2686.222,-701.71318 2690.0203,-700.73251 2692.7075,-700.73251 C 2698.4202,-700.73251 2705.8236,-700.73251 2711.4383,-700.73251 C 2714.1555,-700.73251 2718.0476,-701.54777 2720.1239,-703.30044 C 2722.2068,-705.05864 2724.1261,-706.22155 2724.1261,-712.20508 C 2724.1261,-715.40518 2724.1261,-722.04246 2724.1261,-722.04246 L 2716.5741,-722.04246 C 2716.5741,-722.04246 2716.6497,-715.23262 2716.6497,-712.43926 C 2716.6497,-711.45777 2715.7963,-710.23654 2715.0738,-709.57217 C 2714.1314,-708.70555 2712.4554,-707.83647 2711.1752,-707.83647 C 2705.3207,-707.83647 2699.4602,-707.83647 2692.8585,-707.83647 C 2690.8634,-707.83647 2688.4509,-708.89586 2688.4509,-711.5707 C 2688.4509,-716.16753 2688.4509,-721.47686 2688.4509,-726.46377 C 2688.4509,-728.2439 2689.7722,-730.05335 2692.723,-730.05335 C 2701.977,-730.05335 2724.1261,-730.05335 2724.1261,-730.05335 L 2724.1261,-736.99613 z"
           id="path3214"
           sodipodi:nodetypes="csssssssssccssssssscc" />
        <path
           style="fill:#0f4083;fill-opacity:1;fill-rule:evenodd;stroke:none;stroke-width:1px;stroke-linecap:butt;stroke-linejoin:miter;stroke-opacity:1"
           d="M 2774.0534,-736.86582 L 2774.0534,-700.61582 L 2781.3971,-700.61582 L 2781.3971,-713.36582 L 2802.6784,-700.61582 L 2817.3346,-700.61582 L 2794.9596,-713.83457 C 2799.52,-713.83457 2802.5816,-713.83457 2805.1159,-713.83457 C 2811.0344,-713.83457 2817.3346,-717.17117 2817.3346,-725.14707 C 2817.3346,-733.12297 2810.863,-736.86582 2803.6784,-736.86582 C 2796.4938,-736.86582 2774.0534,-736.86582 2774.0534,-736.86582 z M 2781.3971,-729.92832 C 2781.3971,-729.92832 2797.6128,-729.92832 2804.4596,-729.92832 C 2807.4749,-729.92832 2810.0534,-729.09508 2810.0534,-725.24082 C 2810.0534,-721.3488 2807.3679,-720.77207 2804.3346,-720.77207 C 2797.727,-720.77206 2781.3971,-720.77207 2781.3971,-720.77207 L 2781.3971,-729.92832 z"
           id="path3226" />
        <path
           sodipodi:type="arc"
           style="opacity:1;fill:#0f4083;fill-opacity:1;stroke:none;stroke-width:12.99199963;stroke-miterlimit:4;stroke-dasharray:none;stroke-opacity:1"
           id="path3234"
           sodipodi:cx="-138.63058"
           sodipodi:cy="98.426582"
           sodipodi:rx="5.249156"
           sodipodi:ry="4.4183545"
           d="M -133.38143,98.426582 A 5.249156,4.4183545 0 1 1 -143.87974,98.426582 A 5.249156,4.4183545 0 1 1 -133.38143,98.426582 z"
           transform="translate(2966.1152,-803.46076)" />
      </g>
      <path
         transform="matrix(1.7295156,0,0,1.7295156,-2236.812,748.43567)"
         d="M 2542.9779,-1180.0579 L 2480.0108,-1206.4262 L 2484.6878,-1137.8275 L 2453.4014,-1198.5013 L 2412.8898,-1142.9454 L 2427.9234,-1209.5346 L 2361.1791,-1193.0167 L 2415.4982,-1234.3636 L 2353.7516,-1264.6125 L 2421.9398,-1261.3704 L 2394.0827,-1324.2325 L 2444.2339,-1277.9183 L 2463.3011,-1343.9796 L 2471.949,-1276.2644 L 2529.0187,-1314.6141 L 2492.1168,-1257.1825 L 2560.4855,-1249.8764 L 2495.3007,-1229.6012 L 2542.9779,-1180.0579 z"
         inkscape:randomized="0"
         inkscape:rounded="0"
         inkscape:flatsided="false"
         sodipodi:arg2="0.93227132"
         sodipodi:arg1="0.59475926"
         sodipodi:r2="40.588844"
         sodipodi:r1="105.22789"
         sodipodi:cy="-1239.0181"
         sodipodi:cx="2455.8193"
         sodipodi:sides="9"
         id="path3265"
         style="opacity:1;fill:url(#radialGradient3287);fill-opacity:1;stroke:none;stroke-width:12.99199963;stroke-miterlimit:4;stroke-dasharray:none;stroke-opacity:1"
         sodipodi:type="star" />
    </g>
  </g>
</svg>
