<?xml version="1.0" encoding="UTF-8" standalone="no"?>
<!-- Created with Inkscape (http://www.inkscape.org/) -->

<svg
   xmlns:dc="http://purl.org/dc/elements/1.1/"
   xmlns:cc="http://creativecommons.org/ns#"
   xmlns:rdf="http://www.w3.org/1999/02/22-rdf-syntax-ns#"
   xmlns:svg="http://www.w3.org/2000/svg"
   xmlns="http://www.w3.org/2000/svg"
   xmlns:sodipodi="http://sodipodi.sourceforge.net/DTD/sodipodi-0.dtd"
   xmlns:inkscape="http://www.inkscape.org/namespaces/inkscape"
   width="538.58276"
   height="170.16049"
   id="svg113359"
   version="1.1"
   inkscape:version="0.48.4 r9939"
   sodipodi:docname="Neues Dokument 6">
  <defs
     id="defs3">
    <clipPath
       clipPathUnits="userSpaceOnUse"
       id="clipPath3603">
      <path
         inkscape:connector-curvature="0"
         d="m 153.033,314.24 36.523,0 0,11.206 -36.523,0 0,-11.206 z"
         id="path3605" />
    </clipPath>
    <clipPath
       clipPathUnits="userSpaceOnUse"
       id="clipPath3591">
      <path
         inkscape:connector-curvature="0"
         d="m 152.733,329.647 c 0,0 -3.998,0 -3.998,-3.999 l 0,-11.611 c 0,0 0,-3.998 3.998,-3.998 l 37.122,0 c 0,0 3.999,0 3.999,3.998 l 0,11.611 c 0,0 0,3.999 -3.999,3.999"
         id="path3593" />
    </clipPath>
  </defs>
  <sodipodi:namedview
     inkscape:document-units="mm"
     id="base"
     pagecolor="#ffffff"
     bordercolor="#666666"
     borderopacity="1.0"
     inkscape:pageopacity="0.0"
     inkscape:pageshadow="2"
     inkscape:zoom="0.98994949"
     inkscape:cx="390.27989"
     inkscape:cy="-7.5499347"
     inkscape:current-layer="layer1"
     showgrid="false"
     units="mm"
     fit-margin-top="1"
     fit-margin-left="1"
     fit-margin-bottom="1"
     fit-margin-right="1"
     inkscape:window-width="1366"
     inkscape:window-height="716"
     inkscape:window-x="-8"
     inkscape:window-y="-8"
     inkscape:window-maximized="1" />
  <metadata
     id="metadata4">
    <rdf:RDF>
      <cc:Work
         rdf:about="">
        <dc:format>image/svg+xml</dc:format>
        <dc:type
           rdf:resource="http://purl.org/dc/dcmitype/StillImage" />
        <dc:title></dc:title>
      </cc:Work>
    </rdf:RDF>
  </metadata>
  <g
     inkscape:label="Layer 1"
     inkscape:groupmode="layer"
     id="layer1"
     transform="translate(-262.20117,-287.03451)">
    <g
       id="g113434">
      <g
         transform="matrix(14.552367,0,0,-14.552367,427.10116,348.88916)"
         id="g3553">
        <path
           id="path3555"
           style="fill:#6d6d6c;fill-opacity:1;fill-rule:nonzero;stroke:none"
           d="m 0,0 c 0.268,-1.586 0.536,-3.162 0.795,-5.051 l 0.017,0 c 0.427,1.849 0.862,3.405 1.297,4.95 l 1.465,0 c 0.452,-1.545 0.912,-3.101 1.356,-4.95 l 0.016,0 C 5.189,-3.162 5.432,-1.586 5.683,0 l 1.548,-0.202 -1.397,-6.971 -1.967,0 c -0.385,1.314 -0.778,2.627 -1.155,4.244 l -0.017,0 C 2.352,-4.546 2,-5.859 1.649,-7.173 l -1.975,0 -1.465,6.971"
           inkscape:connector-curvature="0" />
      </g>
      <path
         id="path3557"
         style="fill:#6d6d6c;fill-opacity:1;fill-rule:nonzero;stroke:none"
         d="m 537.56818,453.27329 25.69948,0 0,-102.91434 -25.69948,0 0,102.91434 z"
         inkscape:connector-curvature="0" />
      <g
         transform="matrix(14.552367,0,0,-14.552367,574.83679,350.35895)"
         id="g3559">
        <path
           id="path3561"
           style="fill:#6d6d6c;fill-opacity:1;fill-rule:nonzero;stroke:none"
           d="m 0,0 1.766,0 0,-5.749 2.143,0 0,-1.323 -3.909,0"
           inkscape:connector-curvature="0" />
      </g>
      <g
         transform="matrix(14.552367,0,0,-14.552367,672.6287,350.35895)"
         id="g3563">
        <path
           id="path3565"
           style="fill:#6d6d6c;fill-opacity:1;fill-rule:nonzero;stroke:none"
           d="m 0,0 c 2.344,0 3.247,-1.626 3.247,-3.334 0,-2.586 -1.556,-3.738 -3.314,-3.738 l -2.209,0 0,7.072 L 0,0 z m -0.511,-5.749 0.453,0 c 1.012,0 1.489,0.981 1.489,2.405 0,1.283 -0.661,2.02 -1.431,2.02 l -0.511,0"
           inkscape:connector-curvature="0" />
      </g>
      <g
         transform="matrix(14.552367,0,0,-14.552367,444.02556,339.954)"
         id="g3567">
        <path
           id="path3569"
           style="fill:#6d6d6c;fill-opacity:1;fill-rule:nonzero;stroke:none"
           d="m 0,0 -0.41,0 c -0.537,0.78 -1.075,1.555 -1.606,2.433 l -0.007,0 0,-2.433 -0.454,0 0,3.392 0.413,0 c 0.539,-0.775 1.072,-1.546 1.602,-2.418 l 0.009,0 0,2.418 0.453,0"
           inkscape:connector-curvature="0" />
      </g>
      <g
         transform="matrix(14.552367,0,0,-14.552367,470.96199,290.57782)"
         id="g3571">
        <path
           id="path3573"
           style="fill:#6d6d6c;fill-opacity:1;fill-rule:nonzero;stroke:none"
           d="m 0,0 1.056,-3.392 -0.635,0 -0.261,0.925 -0.996,0 -0.289,-0.925 -0.489,0 L -0.47,0 0,0 z m 0.076,-2.05 c -0.121,0.446 -0.241,0.858 -0.373,1.381 l -0.008,0 C -0.422,-1.192 -0.554,-1.604 -0.687,-2.05"
           inkscape:connector-curvature="0" />
      </g>
      <g
         transform="matrix(14.552367,0,0,-14.552367,494.91519,339.954)"
         id="g3575">
        <path
           id="path3577"
           style="fill:#6d6d6c;fill-opacity:1;fill-rule:nonzero;stroke:none"
           d="m 0,0 0,2.937 -0.867,0 0,0.455 2.301,0 0,-0.455 -0.868,0 0,-2.937"
           inkscape:connector-curvature="0" />
      </g>
      <g
         transform="matrix(14.552367,0,0,-14.552367,567.89531,318.34374)"
         id="g3579">
        <path
           id="path3581"
           style="fill:#6d6d6c;fill-opacity:1;fill-rule:nonzero;stroke:none"
           d="m 0,0 0,-1.341 c -0.288,-0.116 -0.591,-0.199 -0.899,-0.199 -0.93,0 -1.518,0.742 -1.518,1.698 0,0.885 0.584,1.66 1.533,1.66 0.296,0 0.592,-0.112 0.769,-0.25 L -0.288,1.183 c -0.146,0.092 -0.373,0.171 -0.58,0.171 -0.577,0 -0.973,-0.468 -0.973,-1.206 0,-0.769 0.454,-1.224 0.919,-1.224 0.146,0 0.265,0.018 0.381,0.079 l 0,0.997"
           inkscape:connector-curvature="0" />
      </g>
      <g
         transform="matrix(14.552367,0,0,-14.552367,597.20378,299.03275)"
         id="g3583">
        <path
           id="path3585"
           style="fill:#6d6d6c;fill-opacity:1;fill-rule:nonzero;stroke:none"
           d="m 0,0 -0.903,0 0,-0.892 0.884,0 0,-0.436 -0.884,0 0,-1.048 1.068,0 0,-0.436 -1.61,0 0,3.247 1.445,0"
           inkscape:connector-curvature="0" />
      </g>
      <g
         id="g3587"
         transform="matrix(14.552367,0,0,-14.552367,-1961.2479,5026.5875)">
        <g
           clip-path="url(#clipPath3591)"
           id="g3589">
          <g
             transform="translate(176.205,323.723)"
             id="g3595">
            <path
               id="path3597"
               style="fill:#6d6d6c;fill-opacity:1;fill-rule:nonzero;stroke:none"
               d="M 0,0 C 0,0.909 0.569,1.633 1.341,1.633 2.114,1.633 2.682,0.909 2.682,0 2.682,-0.97 2.167,-1.725 1.341,-1.725 0.515,-1.725 0,-0.97 0,0 m 2.106,0 c 0,0.599 -0.227,1.169 -0.765,1.169 -0.537,0 -0.765,-0.57 -0.765,-1.169 0,-0.621 0.2,-1.262 0.765,-1.262 0.565,0 0.765,0.641 0.765,1.262"
               inkscape:connector-curvature="0" />
          </g>
        </g>
      </g>
      <g
         id="g3599"
         transform="matrix(14.552367,0,0,-14.552367,-1961.2479,5026.5875)">
        <g
           clip-path="url(#clipPath3603)"
           id="g3601">
          <path
             id="path3607"
             style="fill:#ffd200;fill-opacity:1;fill-rule:nonzero;stroke:none"
             d="m 153.033,325.377 7.773,0 0,-11.138 -7.773,0 0,11.138 z m 6.648,-1.122 -5.529,0 0,-8.894 5.529,0 0,8.894 z"
             inkscape:connector-curvature="0" />
        </g>
      </g>
      <g
         transform="matrix(14.552367,0,0,-14.552367,779.48673,442.32991)"
         id="g3609">
        <path
           id="path3611"
           style="fill:#6d6d6c;fill-opacity:1;fill-rule:nonzero;stroke:none"
           d="m 0,0 c -0.184,-0.101 -0.43,-0.124 -0.638,-0.124 l -0.443,0 0,1.918 0.435,0 c 0.267,0 0.578,-0.039 0.788,-0.223 C 0.347,1.389 0.458,1.102 0.458,0.829 0.458,0.503 0.293,0.161 0,0 m -1.482,-0.124 -0.355,0 0,0.806 -0.687,0 0,-0.806 -0.355,0 0,1.918 0.355,0 0,-0.781 0.687,0 0,0.781 0.355,0 0,-1.918 z m -2.14,2.527 c -0.11,-1.736 -0.972,-2.754 -2.1,-3.155 l 6.942,0 0,3.155"
           inkscape:connector-curvature="0" />
      </g>
      <g
         transform="matrix(14.552367,0,0,-14.552367,778.01694,423.39728)"
         id="g3613">
        <path
           id="path3615"
           style="fill:#6d6d6c;fill-opacity:1;fill-rule:nonzero;stroke:none"
           d="m 0,0 c -0.179,0.158 -0.399,0.161 -0.625,0.161 l 0,-1.255 0.075,0 c 0.171,0 0.314,0.008 0.467,0.094 0.187,0.103 0.288,0.318 0.288,0.528 C 0.205,-0.298 0.132,-0.117 0,0"
           inkscape:connector-curvature="0" />
      </g>
    </g>
  </g>
</svg>
