<?xml version="1.0" encoding="UTF-8" standalone="no"?>
<!-- Created with Inkscape (http://www.inkscape.org/) -->

<svg
   xmlns:dc="http://purl.org/dc/elements/1.1/"
   xmlns:cc="http://creativecommons.org/ns#"
   xmlns:rdf="http://www.w3.org/1999/02/22-rdf-syntax-ns#"
   xmlns:svg="http://www.w3.org/2000/svg"
   xmlns="http://www.w3.org/2000/svg"
   xmlns:xlink="http://www.w3.org/1999/xlink"
   xmlns:sodipodi="http://sodipodi.sourceforge.net/DTD/sodipodi-0.dtd"
   xmlns:inkscape="http://www.inkscape.org/namespaces/inkscape"
   version="1.2"
   width="1056"
   height="168"
   id="svg2"
   inkscape:version="0.48.1 "
   sodipodi:docname="ORF Sport.svg">
  <sodipodi:namedview
     pagecolor="#ffffff"
     bordercolor="#666666"
     borderopacity="1"
     objecttolerance="10"
     gridtolerance="10"
     guidetolerance="10"
     inkscape:pageopacity="0"
     inkscape:pageshadow="2"
     inkscape:window-width="1366"
     inkscape:window-height="706"
     id="namedview29"
     showgrid="false"
     inkscape:zoom="0.45454545"
     inkscape:cx="359.81662"
     inkscape:cy="219.46469"
     inkscape:window-x="-8"
     inkscape:window-y="-8"
     inkscape:window-maximized="1"
     inkscape:current-layer="layer1" />
  <defs
     id="defs4">
    <linearGradient
       id="linearGradient3898">
      <stop
         id="stop3900"
         style="stop-color:#fba10d;stop-opacity:1"
         offset="0" />
      <stop
         id="stop3902"
         style="stop-color:#ffce08;stop-opacity:1"
         offset="1" />
    </linearGradient>
    <linearGradient
       id="linearGradient3094">
      <stop
         id="stop3096"
         style="stop-color:#ffab00;stop-opacity:1"
         offset="0" />
      <stop
         id="stop3098"
         style="stop-color:#ffcc00;stop-opacity:0"
         offset="1" />
    </linearGradient>
    <linearGradient
       x1="-790.9494"
       y1="103.82894"
       x2="-676.80225"
       y2="-9.3081369"
       id="linearGradient3888"
       xlink:href="#linearGradient3898"
       gradientUnits="userSpaceOnUse"
       gradientTransform="translate(-239.14286,921.42857)" />
  </defs>
  <metadata
     id="metadata7">
    <rdf:RDF>
      <cc:Work
         rdf:about="">
        <dc:format>image/svg+xml</dc:format>
        <dc:type
           rdf:resource="http://purl.org/dc/dcmitype/StillImage" />
        <dc:title />
      </cc:Work>
    </rdf:RDF>
  </metadata>
  <g
     transform="translate(0,-884.36126)"
     id="layer1">
    <rect
       width="163.89198"
       height="164.04282"
       x="-1054.299"
       y="886.86926"
       transform="scale(-1,1)"
       id="rect3872"
       style="fill:url(#linearGradient3888);fill-opacity:1;stroke:#000000;stroke-width:0.7857765;stroke-miterlimit:4;stroke-opacity:0;stroke-dasharray:none" />
    <rect
       width="508.1712"
       height="164.04282"
       x="382.23566"
       y="886.86926"
       id="rect3067"
       style="fill:#000000;fill-opacity:1;stroke:#000000;stroke-width:1.38364661;stroke-miterlimit:4;stroke-opacity:0;stroke-dasharray:none" />
    <g
       transform="matrix(0.80408415,0,0,0.80408415,-38.025613,576.5467)"
       id="g15458">
      <path
         d="m 48.263803,590.07699 476.720617,0 0,-204.16929 -476.720617,0 0,204.16929 z"
         id="path1264"
         style="font-size:8px;letter-spacing:0;word-spacing:0;fill:#ec1b24;fill-rule:nonzero;stroke:none;font-family:fnt1" />
      <path
         d="m 207.4963,487.92251 c 0,-33.21417 -26.93416,-58.89226 -60.70652,-58.89226 -33.63281,0 -60.706524,25.67809 -60.706524,58.89226 0,33.35373 27.073714,59.03182 60.706524,59.03182 33.77236,0 60.70652,-25.67809 60.70652,-59.03182 m -28.74837,0 c 0,18.00269 -15.35108,32.3768 -31.95815,32.3768 -16.60707,0 -31.81859,-14.37411 -31.81859,-32.3768 0,-17.86302 15.21152,-32.23724 31.81859,-32.23724 16.60707,0 31.95815,14.37422 31.95815,32.23724"
         id="path1266"
         style="font-size:8px;letter-spacing:0;word-spacing:0;fill:#ffffff;fill-rule:evenodd;stroke:none;font-family:fnt1" />
      <path
         d="m 247.6882,544.86103 28.0506,0 0,-33.21417 20.79373,0 21.91016,33.21417 34.74926,0 -28.0506,-39.91276 c 13.25775,-5.72177 22.46839,-18.2817 22.46839,-33.63284 0,-22.60787 -16.60707,-40.19188 -42.00612,-40.19188 l -57.91542,0 0,113.73748 z m 56.24076,-60.00875 -28.19016,0 0,-26.93415 28.19016,0 c 12.1413,0 15.76974,6.0009 15.76974,13.3973 0,7.67551 -3.62844,13.53685 -15.76974,13.53685"
         id="path1268"
         style="font-size:8px;letter-spacing:0;word-spacing:0;fill:#ffffff;fill-rule:evenodd;stroke:none;font-family:fnt1" />
      <path
         d="m 394.5003,544.72147 27.91103,0 0,-38.23814 52.75188,0 0,-26.79458 -52.75188,0 0,-21.77062 64.75363,0 0,-26.79458 -92.66466,0 0,113.59792 z"
         id="path1270"
         style="font-size:8px;letter-spacing:0;word-spacing:0;fill:#ffffff;fill-rule:nonzero;stroke:none;font-family:fnt1" />
    </g>
    <g
       transform="matrix(1.0415058,-0.01018791,0.00868866,0.96006329,0,0)"
       style="font-size:35.68634796px;font-style:oblique;font-variant:normal;font-weight:bold;font-stretch:normal;line-height:125%;letter-spacing:0px;word-spacing:0px;fill:#ffffff;fill-opacity:1;stroke:none;font-family:Trebuchet MS;-inkscape-font-specification:Trebuchet MS Bold Oblique"
       id="text3912">
      <path
         d="m 461.50625,986.39894 c -4.85117,-3.55462 -9.78592,-5.33197 -14.80426,-5.33205 -10.07864,8e-5 -15.11794,3.80569 -15.11791,11.41685 -3e-5,3.2202 2.67644,7.06763 8.02943,11.54226 l 9.47221,8.0295 c 2.92735,2.5092 4.95562,4.3388 6.08481,5.4888 1.12908,1.1501 2.32095,2.7497 3.5756,4.7989 1.25454,2.0492 2.19549,4.1193 2.82285,6.2102 0.62724,2.0911 0.94088,4.2239 0.94094,6.3985 -6e-5,8.4058 -3.147,14.9715 -9.44085,19.6972 -6.29394,4.7256 -14.45928,7.0885 -24.49603,7.0885 -8.23854,0 -16.01704,-1.7774 -23.33552,-5.3321 l 5.26931,-16.1216 c 5.60386,4.2239 12.10685,6.3358 19.509,6.3358 4.4747,0 8.18622,-0.9514 11.13456,-2.8543 2.94826,-1.9027 4.42242,-4.6106 4.42246,-8.1235 -4e-5,-3.471 -2.67652,-7.2975 -8.02943,-11.4796 l -9.8486,-7.8412 c -3.01105,-2.4255 -5.04977,-4.1819 -6.11616,-5.2693 -1.06643,-1.0873 -2.18511,-2.6032 -3.35605,-4.5479 -1.17097,-1.9446 -2.04919,-3.9415 -2.63466,-5.9907 -0.58549,-2.04915 -0.87823,-4.16105 -0.87822,-6.33575 -10e-6,-8.44756 2.80192,-15.13874 8.40581,-20.07358 5.60385,-4.93466 12.94324,-7.40203 22.0182,-7.40212 3.01099,9e-5 6.85842,0.3451 11.5423,1.03504 4.68378,0.69012 7.96664,1.47424 9.8486,2.35237 z"
         style="font-size:128.47085571px;fill:#ffffff;font-family:Trebuchet MS;-inkscape-font-specification:Trebuchet MS Bold Oblique"
         id="path3141" />
      <path
         d="m 492.99666,1026.4206 -6.21026,33.7487 -16.68615,0 17.31345,-91.77385 c 8.74034,-0.91994 15.41061,-1.37996 20.01084,-1.38005 24.29732,9e-5 36.446,9.13774 36.44608,27.41297 -8e-5,10.28773 -3.69068,18.36943 -11.07183,24.24513 -7.38128,5.8757 -16.94758,8.8136 -28.69893,8.8135 -3.76383,10e-5 -7.46489,-0.3554 -11.1032,-1.0664 z m 8.02943,-44.22457 -5.4575,30.29857 c 2.13279,0.5855 4.85108,0.8782 8.15489,0.8782 7.10934,0 12.75503,-1.5264 16.93707,-4.5793 4.18194,-3.0528 6.27294,-7.4439 6.273,-13.17327 -6e-5,-9.66033 -5.47847,-14.49053 -16.43524,-14.49061 -2.92744,8e-5 -6.08484,0.35555 -9.47222,1.06641 z"
         style="font-size:128.47085571px;fill:#ffffff;font-family:Trebuchet MS;-inkscape-font-specification:Trebuchet MS Bold Oblique"
         id="path3143" />
      <path
         d="m 548.26171,1025.9815 c 0,-16.3515 4.46427,-30.32984 13.39284,-41.93493 8.92853,-11.60495 20.544,-17.40746 34.84646,-17.40755 10.99858,9e-5 19.46711,2.91703 25.40562,8.75082 5.93834,5.83396 8.90756,14.27112 8.90765,25.31156 -9e-5,18.108 -4.55846,32.8077 -13.67513,44.0991 -9.11681,11.2914 -21.60005,16.9371 -37.44975,16.9371 -9.70226,0 -17.36575,-3.2724 -22.99051,-9.8173 -5.62479,-6.5448 -8.43718,-15.191 -8.43718,-25.9388 z m 16.93708,-1.6937 c -2e-5,7.0676 1.40094,12.6924 4.2029,16.8743 2.80191,4.1821 6.90026,6.2731 12.29507,6.273 9.95309,10e-5 17.81523,-4.4747 23.58644,-13.4242 5.77108,-8.9494 8.65666,-19.6344 8.65673,-32.0549 -7e-5,-14.05147 -6.18942,-21.07722 -18.56805,-21.07729 -8.6986,7e-5 -15.90207,4.60026 -21.61046,13.80058 -5.70845,9.20041 -8.56265,19.06991 -8.56263,29.60851 z"
         style="font-size:128.47085571px;fill:#ffffff;font-family:Trebuchet MS;-inkscape-font-specification:Trebuchet MS Bold Oblique"
         id="path3145" />
      <path
         d="m 685.3893,1019.4576 20.51268,40.7117 -18.37987,0 -17.56437,-38.0143 c -2.84379,-0.042 -6.33575,-0.2091 -10.4759,-0.5019 l -7.08848,38.5162 -16.81161,0 16.81161,-91.89931 c 12.21139,-0.6272 20.2199,-0.94085 24.02556,-0.94095 9.91127,1e-4 17.74205,1.91336 23.49235,5.73979 5.75017,3.82661 8.62529,9.35729 8.62536,16.59206 -7e-5,7.36038 -2.10152,13.74841 -6.30435,19.16401 -4.20297,5.4157 -9.81729,8.9599 -16.84298,10.6327 z m -18.75625,-37.07338 -4.70474,25.71928 c 2.46734,0.251 4.66289,0.3764 6.58664,0.3764 15.80789,0 23.71185,-5.0184 23.71191,-15.05521 -6e-5,-4.22375 -1.51603,-7.22432 -4.54792,-9.00174 -3.032,-1.77727 -8.06084,-2.66595 -15.08655,-2.66603 -0.58551,8e-5 -2.57196,0.20918 -5.95934,0.6273 z"
         style="font-size:128.47085571px;fill:#ffffff;font-family:Trebuchet MS;-inkscape-font-specification:Trebuchet MS Bold Oblique"
         id="path3147" />
      <path
         d="m 799.68318,982.57241 -28.98122,0 -14.17696,77.59689 -16.49797,0 14.17696,-77.59689 -29.23214,0 2.63466,-14.30242 74.77405,0 z"
         style="font-size:128.47085571px;fill:#ffffff;font-family:Trebuchet MS;-inkscape-font-specification:Trebuchet MS Bold Oblique"
         id="path3149" />
    </g>
    <g
       transform="matrix(1.0038413,-0.01057016,0.00837444,0.99608522,0,0)"
       style="font-size:57.88822174px;font-style:oblique;font-variant:normal;font-weight:bold;font-stretch:normal;line-height:125%;letter-spacing:0px;word-spacing:0px;fill:#ffffff;fill-opacity:1;stroke:none;font-family:Trebuchet MS;-inkscape-font-specification:Trebuchet MS Bold Oblique"
       id="text3924">
      <path
         d="m 967.89996,991.43422 0,36.12358 -20.45309,0 0,-36.12358 -35.41131,0 0,-20.45308 35.41131,0 0,-34.90253 20.45309,0 0,34.90253 35.51304,0 0,20.45308 z"
         style="font-size:208.39759827px;fill:#ffffff;font-family:Trebuchet MS;-inkscape-font-specification:Trebuchet MS Bold Oblique"
         id="path3152" />
    </g>
  </g>
</svg>
