<?xml version="1.0" encoding="UTF-8" standalone="no"?>
<!-- Created with Inkscape (http://www.inkscape.org/) -->
<svg
   xmlns:svg="http://www.w3.org/2000/svg"
   xmlns="http://www.w3.org/2000/svg"
   version="1.0"
   width="641.9776"
   height="285.12711"
   id="svg2">
  <defs
     id="defs4" />
  <g
     transform="translate(208.13167,-290.37022)"
     id="layer1">
    <g
       id="g3221">
      <path
         d="M -5.5115819,478.04384 C 8.9389262,473.36488 17.38446,469.26504 26.810335,460.09067 C 31.671156,455.36715 38.034488,448.96604 40.166313,441.69004 C 43.775839,429.35895 31.280655,414.9778 24.99937,408.33787 C 17.031459,399.92984 5.4168052,392.91238 -5.4295344,385.25462 C -19.860588,375.0483 -33.883378,364.38354 -32.594584,340.0098 C -32.311224,334.5769 -28.049266,326.0386 -25.621675,322.25793 C -18.062028,310.51866 -7.2156885,304.73276 6.9889591,298.30148 C 12.755403,295.70443 19.250688,293.95578 26.124069,292.64189 C 32.432139,291.43345 41.512061,290.31411 48.045127,290.3784 C 53.968336,290.4283 60.030546,291.70977 64.356506,292.9182 C 73.1229,297.83429 75.197771,297.40854 73.971288,310.00889 C 70.600574,319.48636 64.97877,325.68588 55.602801,330.6733 C 49.913047,333.70342 46.228523,335.34521 39.915095,337.20608 C 36.877647,338.10438 33.708527,339.75858 29.96,340.46966 C 24.357651,341.53204 22.892356,341.09897 14.20801,340.86551 C 13.04412,340.09184 13.673433,338.09197 13.673433,338.09197 L 7.5683666,334.32004 L 9.4791427,330.42716 C 14.49137,330.72856 18.4023,330.96202 28.4448,327.96912 C 37.39277,325.30243 42.939856,322.59148 50.629482,316.90173 C 55.157038,313.54342 57.099956,315.28503 56.313879,310.44902 C 55.345944,304.52045 49.868499,304.501 43.089572,304.27995 C 32.49445,303.92864 26.093618,305.89665 19.969097,308.48129 C 13.844295,311.06592 7.2153651,312.79484 3.1600763,316.33473 C 1.2992055,316.62372 -0.59380771,318.775 -2.9145392,318.63065 C -4.6256946,320.75542 -5.9020828,322.97634 -8.9821061,323.80528 C -9.9892319,327.92992 -13.051492,331.37733 -15.044316,334.16159 C -17.143998,337.07413 -14.969599,341.88505 -13.89988,348.98286 C -12.830443,356.07729 -6.8127817,361.22683 -1.9894609,366.69186 C 6.3097412,371.98069 12.441593,377.7773 20.446721,383.70756 C 22.892356,385.51852 25.658851,386.97649 28.098847,388.78238 C 32.651496,392.14576 36.148806,397.53439 39.952595,401.83554 C 42.599543,404.81744 45.995068,407.96711 47.987892,413.17388 C 48.542205,414.61408 49.957595,416.94722 50.321311,418.04006 C 52.169776,423.52483 53.478024,432.39611 53.358478,439.06254 C 52.912996,464.64303 26.054427,483.05438 12.272141,489.24854 C 5.5236643,492.29134 -13.434663,498.3107 -20.502306,499.51744 C -27.564593,500.73152 -44.963454,504.19669 -61.282164,502.10208 C -76.989323,500.08247 -105.70172,492.72611 -114.92064,480.04907 C -119.05797,474.36495 -125.4464,466.23323 -127.77954,456.8395 C -128.03076,449.97317 -130.54068,439.14995 -128.38911,433.03783 C -124.42856,410.90306 -108.31821,395.36507 -90.559301,385.42942 C -87.452493,382.43652 -83.805468,381.06061 -78.561477,379.92858 C -71.991194,378.51883 -65.866673,374.23008 -56.100484,375.16221 C -56.478297,377.13558 -56.585156,379.34945 -56.490703,381.76464 C -65.06819,383.54346 -72.091004,386.78758 -77.782449,391.30273 C -82.989222,394.31508 -91.887286,403.07415 -94.979997,407.04908 C -98.0744,411.00991 -102.39331,418.40547 -103.99225,421.21651 C -106.95301,426.53014 -107.36127,430.37115 -108.86548,440.6722 C -108.90298,442.09294 -107.50732,451.34401 -105.274,455.12834 C -96.847917,473.9175 -83.648704,484.77822 -61.143162,488.51237 C -57.496137,489.06668 -54.747405,488.79065 -52.963225,488.79573 C -28.293716,486.62668 -19.962372,482.72111 -5.5115819,478.04384 L -5.5115819,478.04384 z"
         id="path2391"
         style="fill:#efeeec" />
      <path
         d="M 401.08391,518.67285 L 418.2386,525.8795 L 412.02668,526.55308 L 418.2386,531.02904 C 418.2386,531.02904 373.12009,519.15048 369.81902,518.51581 C 367.03477,517.98123 359.10464,516.12741 362.32366,515.64781 C 358.03492,515.95626 348.90509,512.61769 343.32783,514.2093 C 334.71285,512.81196 323.48165,509.77451 315.30707,510.69959 C 299.49277,508.74962 264.61835,506.76413 263.03379,507.19184 C 261.66831,507.56261 246.28737,506.36122 237.18235,508.90836 C 236.12532,509.19707 234.56557,510.33418 233.38392,510.44837 C 231.13255,510.65504 229.07036,509.35384 226.84408,509.49284 C 225.18988,509.59998 223.54273,510.80137 221.95817,510.95813 C 217.87807,511.37345 214.4504,509.13476 210.33111,509.15957 C 208.77841,509.17226 207.33285,510.44837 205.81596,510.64968 C 203.9799,510.89413 202.16358,510.14725 200.33316,510.23437 C 198.37755,510.33418 196.30832,511.41095 194.34736,511.61762 C 183.05356,512.81196 170.79719,510.2541 160.23421,510.86368 C 158.13256,510.98858 155.90628,512.22183 153.88131,512.22183 C 152.15944,512.22183 150.6871,511.06499 148.83863,510.91359 C 145.54997,510.66237 141.72137,512.83874 138.03515,512.85115 C 136.92991,512.8565 135.43811,512.03829 134.41322,512.11498 C 133.27583,512.21479 132.1314,513.27717 131.02446,513.23967 C 129.02459,513.16496 114.17822,512.68 110.45648,513.05077 C 104.62068,513.64258 98.356873,513.45367 93.112882,514.03308 C 90.622699,514.30939 88.309016,515.623 85.995333,515.79414 C 72.002994,516.78689 63.400695,517.31442 48.208377,519.8046 C 43.008934,520.65496 37.996425,522.42138 32.877338,523.23227 C 20.47125,525.21269 9.2220041,525.88655 -2.7955563,528.32485 C -11.296353,530.0611 -19.754293,531.52104 -27.394014,532.8916 C -30.344058,533.41208 -33.274365,535.07333 -36.008718,534.99156 C -37.336703,534.95406 -38.744762,534.11808 -39.996057,534.2303 C -41.882021,534.39975 -43.486317,536.0985 -45.322376,536.57612 C -46.906936,536.99679 -48.484447,536.38186 -50.466557,536.65084 C -58.992165,537.80768 -69.08457,540.94663 -79.233928,542.73279 C -83.774171,543.52422 -88.503039,544.93961 -93.099954,546.26562 C -98.042822,547.69342 -103.11059,549.88248 -106.97134,549.80579 C -110.74496,549.73079 -113.78212,550.2211 -117.41674,551.76816 C -119.61821,552.22802 -117.15819,550.0071 -118.76785,550.29046 C -134.56439,553.29041 -148.51753,558.59699 -162.81128,563.92303 C -176.80221,569.14926 -207.62669,578.19168 -208.11136,574.7268 C -208.59631,571.26868 -200.27033,569.51297 -196.51644,567.34365 C -192.39715,564.95497 -188.81949,562.52033 -184.62548,560.89799 C -175.78437,557.4847 -166.4459,555.17637 -157.21429,553.33327 C -139.07925,549.71838 -120.63069,544.15353 -102.40092,538.21059 C -84.497655,532.38183 -65.658594,528.16273 -46.8872,523.61036 C -28.224639,519.07576 -9.2837927,514.4092 9.5800808,510.90118 C 48.466925,503.68918 77.209485,500.12251 117.67553,494.48266 C 137.53948,491.70912 168.3197,489.61479 188.4422,488.2135 C 230.62278,485.27079 273.24575,487.62197 316.94153,494.3008 C 339.73071,494.66452 368.62468,502.03498 389.25723,509.42884 C 400.14107,513.32877 433.84595,526.91144 433.84595,526.91144 L 401.08391,518.67285 L 401.08391,518.67285 z"
         id="path2393"
         style="fill:#000000" />
      <path
         d="M 292.53029,472.21875 C 290.42356,472.21875 286.42353,473.24533 285.96536,473.03697 L 283.15968,473.02428 L 282.06543,472.42739 C 282.57519,470.87469 286.92089,468.17079 293.79399,465.76068 C 294.80647,465.40965 296.49817,464.61117 297.73706,464.02641 L 298.63,463.60405 C 305.42669,460.44705 316.21777,453.87705 323.81999,446.89145 L 323.94489,446.77726 L 324.00184,446.62585 C 324.56885,445.13575 325.41723,443.929 326.23545,442.76483 C 326.86279,441.87189 327.37256,441.14277 327.81296,440.32652 L 327.86287,440.23207 L 327.88768,440.11788 C 329.64874,429.15735 321.78261,422.73678 315.96655,415.58737 C 312.52619,411.35559 308.9739,406.99212 306.98108,401.64635 L 306.35712,399.97974 L 305.5781,401.5894 C 303.64758,405.54487 301.77966,409.68898 300.13251,413.34841 C 294.61757,425.56023 289.24698,436.94876 280.72673,447.04822 C 280.0351,447.85206 279.12243,448.39932 278.48241,449.16059 C 277.32585,450.52579 275.92822,449.82176 275.38095,451.41168 L 274.93547,451.92144 L 274.77138,452.04635 C 270.58978,455.35475 268.20109,457.80743 264.2958,458.49906 C 261.52931,458.98204 254.70583,459.54876 254.70583,459.54876 C 253.36742,458.86954 253.56168,458.25996 250.80759,457.44203 C 250.09116,457.23507 248.60105,456.39204 248.60105,456.39204 C 244.18571,459.90712 239.71511,460.89451 232.47125,460.89451 C 227.76183,460.89451 223.73699,459.70045 220.81909,457.42934 C 211.25422,449.99121 209.85151,432.88642 212.59461,420.14679 C 214.54288,411.06687 219.87625,400.1117 223.76209,392.12095 L 224.24676,391.11382 C 224.52843,390.52906 224.76188,389.96403 224.99365,389.41676 C 225.3396,388.54159 225.66018,387.78766 226.08282,387.03908 C 226.44118,386.42217 226.9188,385.88224 227.36428,385.35978 C 227.8295,384.83761 228.30205,384.29739 228.60317,383.70586 L 228.66013,383.60605 L 228.67281,383.49891 L 228.68522,382.9071 L 228.99367,381.31718 C 230.68509,378.53828 235.24479,373.39946 236.93621,372.64017 C 237.84183,372.23021 238.79736,372.02326 239.76501,372.02326 C 240.93454,372.02326 241.93434,372.31198 242.74551,372.54571 L 242.92201,372.59562 L 243.13573,372.65793 L 243.27473,372.80934 C 244.00921,373.58837 244.14821,374.81457 244.26776,375.88428 C 244.33712,376.49386 244.39435,377.01603 244.52602,377.45644 L 244.63852,377.85906 L 244.31766,378.14073 C 239.99142,381.9214 236.87925,388.34733 236.56375,394.12618 L 236.55135,394.45239 L 236.25727,394.65371 C 234.26247,396.00678 232.7422,398.8604 232.45884,399.42007 L 232.24484,399.83003 L 232.57106,400.17598 C 233.03627,400.68405 233.58354,401.50199 232.86146,402.81052 C 231.35726,405.49497 228.77967,412.43066 227.49088,418.07756 C 223.52835,435.37125 225.51582,446.02333 233.56578,450.63829 L 234.15562,450.9786 L 234.57093,450.46884 C 239.75966,444.00372 243.27473,438.85418 246.18558,430.43374 C 247.36216,427.03258 250.76304,417.79589 251.53136,416.418 C 251.98417,415.61219 251.85052,411.38068 251.99657,410.6321 C 252.68115,407.06177 255.72565,401.18113 257.37252,397.45234 C 258.48481,394.93707 258.91253,395.71074 259.6487,393.48446 C 260.39023,391.27763 260.81287,389.84476 261.2014,387.48653 C 261.83776,383.61846 264.61666,381.21032 266.9873,377.5757 L 267.13871,377.3493 L 267.40797,377.26753 C 268.85522,376.83417 268.13173,378.17287 268.71622,376.64527 C 269.50765,374.53121 271.88562,372.44393 274.16885,371.18023 L 274.97269,370.80946 L 275.16188,370.73447 L 275.36855,370.75956 C 278.06004,371.14809 278.2044,373.2176 278.13673,375.48843 C 278.10995,376.29227 276.65199,378.07842 276.80875,378.69505 C 277.28637,380.65065 276.02972,382.60598 276.00491,384.74485 L 275.99786,384.99635 C 275.98517,386.05141 275.97277,387.14594 275.87296,388.25287 C 275.38095,394.54685 273.86604,397.75544 272.39538,404.51999 C 271.97302,406.5021 271.54502,408.46278 271.1565,410.39329 C 270.57173,413.23619 269.06922,417.53029 268.22619,420.18429 C 267.40797,422.74411 265.80536,428.35887 265.67369,428.98085 C 265.4845,429.79371 262.82346,435.31402 262.66106,435.90583 C 261.99988,438.31396 260.91268,440.56534 259.85565,442.74002 C 259.40284,443.6775 258.96976,444.5758 258.57391,445.46366 L 256.71134,447.6702 L 259.26553,447.28703 L 260.7734,447.13026 L 261.04435,447.08572 C 261.81098,446.95912 263.20127,446.60076 264.48471,445.78452 C 265.383,445.20511 266.60413,444.39422 267.42742,443.99836 L 267.57206,443.91631 L 267.67187,443.80241 C 279.92825,429.05049 285.95831,415.77628 294.12754,398.17611 C 299.63008,386.317 301.78671,380.61315 308.97898,369.05545 L 309.16817,368.75969 L 309.53357,368.71514 C 310.2376,368.62069 310.92923,368.51354 311.60111,368.41373 C 313.193,368.16252 314.69552,367.9237 316.21777,367.9237 C 317.82037,367.9237 319.21771,368.20002 320.48142,368.77209 L 320.95932,368.99145 L 320.90942,369.47612 C 320.36751,374.45113 320.36751,375.25497 318.91462,378.70773 C 318.02168,380.81982 319.12862,379.17295 318.39245,381.66313 L 318.32478,381.909 L 318.43699,382.14076 C 319.61357,384.55594 318.82016,386.94462 318.05382,389.25831 C 317.53137,390.83751 317.0467,392.3028 317.18034,393.69846 C 317.30525,394.8553 320.02889,399.50917 323.47967,404.01727 C 324.75775,405.67852 326.06431,407.14889 327.33506,408.57668 C 330.20306,411.8208 335.25842,414.50722 337.17625,419.11485 L 337.22615,419.24681 L 337.32794,419.34831 C 337.91242,419.92067 338.46504,420.41774 339.30807,420.61934 L 339.62893,420.69941 L 339.77865,420.98277 C 341.20108,423.57474 341.69675,425.69923 342.32578,428.38368 C 342.55219,429.32145 342.79833,430.36579 343.1065,431.54068 C 344.81597,437.99846 344.0798,445.31197 341.23153,450.18012 C 337.55406,456.44195 332.35997,460.61115 324.5367,463.80536 L 323.82534,464.09605 C 321.60104,465.0138 319.20531,467.29562 315.71505,467.91224 C 311.34454,468.67858 307.2822,471.33991 305.36409,471.33991 C 304.70292,471.33991 303.85453,471.76058 303.03096,472.21339 L 302.8866,472.29544 C 299.74934,473.37023 301.71735,473.45228 296.84384,473.45228 L 292.53029,472.21875 L 292.53029,472.21875 z"
         id="path2395"
         style="fill:#000000" />
      <path
         d="M 418.17573,406.46516 L 409.94419,432.98313 C 408.86207,436.22753 408.58576,439.39665 407.86932,442.62837 L 407.68577,442.62837 C 406.86924,439.4663 406.41643,436.30225 405.24014,433.13313 L 397.10305,406.46516 L 352.61386,406.46516 L 352.61386,416.77692 L 363.19658,416.77692 L 363.19658,462.00934 L 376.6721,462.00934 L 376.6721,416.77692 L 386.29393,416.77692 L 402.34705,462.00934 L 413.37722,462.00934 L 432.27859,406.46516 L 418.17573,406.46516 L 418.17573,406.46516 z"
         id="path2397"
         style="fill:#000000;fill-rule:nonzero" />
      <path
         d="M 168.60193,464.17471 L 168.40597,464.1124 C 162.21886,462.20698 161.03016,455.1196 160.27594,447.39248 C 157.70935,421.08315 159.57727,396.98036 165.39362,381.27122 L 165.51288,380.93796 L 165.87293,380.83815 C 166.50055,380.64924 167.07263,380.55479 167.62694,380.55479 C 168.86583,380.55479 169.77681,381.02001 170.66439,381.46718 L 171.50573,381.8808 L 172.0654,382.12694 L 171.91569,382.68661 L 171.77133,383.18933 C 170.90321,386.25864 169.28115,391.97321 172.84612,392.91802 L 173.39339,393.06238 L 173.39339,393.58991 C 173.39875,394.79665 173.50025,395.93573 173.60006,397.04803 C 173.74442,398.68982 173.90315,400.39365 173.75175,402.36166 L 173.80165,402.36871 L 174.97795,402.86607 L 175.20435,403.65214 C 175.61262,406.37409 175.48067,408.98354 175.36112,411.50586 C 175.23481,414.02622 175.11526,416.40418 175.55566,418.65527 L 176.20979,420.25252 C 176.5501,420.912 176.90141,421.59827 177.00827,422.3897 C 177.37904,425.01889 177.09032,427.65343 176.81401,430.20592 C 176.49315,433.16133 176.16693,436.19314 176.83177,439.28754 C 178.65712,435.63346 180.27917,430.98664 180.95106,427.38953 L 180.9708,427.30212 L 181.01337,427.22007 C 183.28984,422.6928 185.39657,417.97634 187.63554,412.98357 C 195.49631,395.4457 203.6207,377.31067 219.32278,366.16631 L 219.5241,366.02195 L 219.78095,366.02195 L 222.67912,366.02195 L 223.76124,366.02195 L 223.39048,366.95972 C 222.72367,368.68328 223.35298,369.51221 224.22646,370.65665 L 224.76809,371.38013 L 224.95727,371.65644 L 224.85549,371.97194 C 223.52215,375.93278 221.27811,379.09654 219.10878,382.1464 C 217.03391,385.06966 214.88263,388.0947 213.60624,391.79135 C 212.59376,393.829 211.57423,395.74683 210.54934,397.66465 C 208.77052,401.01055 206.93982,404.46331 205.3623,408.0531 C 205.64566,409.05318 205.45676,411.05305 204.77754,412.16535 C 204.29287,412.95847 203.66355,413.19728 203.18057,413.24014 C 203.21807,416.95117 201.04875,420.59114 199.10583,423.8299 L 198.31975,425.16325 C 196.76001,428.92954 195.4464,433.03642 194.18242,437.00966 C 191.49092,445.45492 188.70497,454.18381 183.00817,460.54038 L 181.51806,461.11245 L 180.86366,461.02505 L 180.69984,461.27655 C 180.20248,462.01244 179.69441,462.7737 178.88888,463.33873 L 178.73183,463.44559 L 178.53052,463.47773 C 176.20443,463.74869 174.45578,463.77914 172.92112,463.81635 C 171.36137,463.84145 170.13489,463.86823 168.80155,464.13186 L 168.60193,464.17471 L 168.60193,464.17471 z"
         id="path2399"
         style="fill:#000000" />
      <path
         d="M 113.0352,379.84456 C 103.1816,379.76251 94.490209,389.96205 88.390499,402.8156 C 98.835906,397.51437 107.99788,389.58424 113.0352,379.84456 L 113.0352,379.84456 z M 128.32169,468.77811 L 127.2328,468.05463 C 125.516,466.89779 123.26491,466.11876 121.09023,465.36313 L 119.42898,464.77837 L 119.08303,464.65346 L 118.98322,464.3326 C 116.43608,456.76788 116.70703,446.47388 118.10269,439.10343 C 115.97086,441.22989 112.35598,448.1904 110.16184,450.73048 C 102.18688,459.9621 93.144461,470.42527 78.273001,470.42527 C 76.593988,470.42527 74.852382,470.28796 73.098652,470.02433 C 68.608314,469.33807 66.023959,466.64629 63.558588,463.71598 C 61.433811,461.18294 60.195204,456.70557 59.772561,453.63062 C 58.252286,442.34219 61.521216,426.8792 64.081041,421.23399 C 62.382292,421.04508 60.692282,420.61003 59.692487,419.39088 C 58.836769,418.37135 58.61572,416.97034 59.000864,415.12187 L 59.080937,414.72433 L 59.503581,414.59237 C 60.886828,414.16465 62.232576,413.64953 63.540825,413.15922 C 65.262694,412.49805 67.043491,411.82588 68.986409,411.31075 C 75.367505,397.87809 82.134026,384.82492 93.106961,375.91953 C 96.074768,373.51139 103.93554,370.16042 111.97281,370.16042 C 114.59494,370.16042 117.23456,370.58813 119.83189,371.43652 C 122.24002,372.69515 123.90663,374.88928 124.52325,377.50409 C 125.19007,380.32754 124.5303,383.28294 122.73203,385.60395 C 114.09025,402.2486 101.4259,409.32329 81.417309,417.1147 L 80.663374,418.69926 C 75.827647,428.84157 67.546208,450.05155 78.519143,458.91211 C 86.567128,458.4593 91.522401,455.71085 97.666659,448.2403 C 99.515124,445.99626 102.15671,443.02845 104.02999,440.29946 C 104.54511,439.55088 105.06757,438.79695 105.58974,438.05344 C 112.63229,427.96104 121.21485,412.12193 127.01344,401.67116 C 129.44103,397.27556 131.3769,393.60908 133.88682,388.59657 L 133.92404,388.52185 L 133.97394,388.46462 C 141.37485,379.6111 152.57419,366.24244 170.38301,364.34942 C 171.6718,364.21211 173.03024,364.14275 174.4132,364.14275 C 177.98015,364.14275 181.26882,364.58823 184.01558,365.02328 L 184.31867,365.07319 L 184.4932,365.2996 C 185.38106,366.3992 186.81422,367.25492 188.19718,368.0785 C 190.63746,369.52575 193.3986,371.16557 193.34869,374.45423 L 193.32895,375.27978 L 192.45576,375.13345 C 190.71951,374.84473 189.32385,374.18525 187.97811,373.54353 C 186.43076,372.80736 184.9728,372.11574 183.1796,372.11574 L 182.84097,372.12279 C 181.65199,372.17805 180.56479,372.65596 179.40598,373.16036 C 178.58973,373.51844 177.74134,373.88921 176.82867,374.11561 L 175.17447,374.51147 C 171.75385,375.33505 168.52214,376.10844 165.40292,377.74318 C 164.28358,378.33471 163.246,379.05848 162.25326,379.76787 C 160.7186,380.84463 159.26571,381.86247 157.52439,382.42919 C 156.24095,384.08875 154.74352,385.70545 153.28555,387.26323 C 150.80242,389.93696 148.23047,392.69641 146.48886,395.92276 C 142.81505,402.70141 141.01142,411.24675 139.27517,419.5031 C 138.71014,422.19459 138.12537,424.98083 137.47661,427.66527 L 137.30011,428.4333 L 136.49627,428.17504 L 135.52128,427.63482 C 134.07572,433.70972 133.43401,440.73958 132.8171,447.56137 C 132.33243,452.875 131.84212,458.35949 130.96159,463.233 L 130.94918,463.30772 L 130.91873,463.38271 C 130.60323,464.11156 130.13265,464.65346 129.68012,465.17592 C 129.05786,465.8853 128.52864,466.50926 128.43418,467.53951 L 128.32169,468.77811 L 128.32169,468.77811 z"
         id="path2401"
         style="fill:#000000" />
      <path
         d="M -20.522043,499.53972 C -27.582356,500.74844 -44.982909,504.21896 -61.306975,502.12435 C -77.021466,500.09967 -105.73386,492.74331 -114.95109,480.06627 C -119.08984,474.38187 -125.47826,466.2572 -127.81168,456.84937 C -128.06826,449.98303 -130.57084,439.16179 -128.42661,433.04939 C -124.45873,410.90757 -108.34866,395.36958 -90.584395,385.43394 C -87.479278,382.44104 -83.83761,381.06314 -78.586571,379.9314 C -72.016287,378.51798 -65.891484,374.22924 -56.125296,375.16503 C -56.503109,377.14009 -56.61025,379.35396 -56.515797,381.76915 C -65.093002,383.54797 -72.116097,386.79209 -77.807543,391.30724 C -83.014034,394.31959 -91.917737,403.07866 -95.01214,407.05359 C -98.099212,411.02147 -102.42545,418.41533 -104.02242,421.22638 C -106.98515,426.53973 -107.39313,430.38299 -108.89593,440.67671 C -108.93343,442.1045 -107.53749,451.35923 -105.30586,455.1399 C -96.873011,473.92906 -83.680846,484.78809 -61.167974,488.52928 C -57.635139,487.99471 -56.490703,489.71827 -53.043299,489.25841 C -57.289186,486.5937 -61.269476,485.56881 -64.866596,482.36726 C -73.021439,475.10366 -80.812849,459.61558 -81.297521,446.70706 C -82.379646,418.34767 -64.998548,397.34464 -44.127472,390.94352 C -43.925877,392.22527 -43.07749,398.57084 -42.47327,399.46913 C -44.189783,400.28735 -43.749659,404.11088 -45.58741,404.81491 C -45.013359,409.33006 -52.610223,410.22835 -51.786647,414.97695 C -57.105636,421.92505 -59.545915,424.82322 -62.884486,433.63951 C -62.77227,434.60209 -63.986065,437.55016 -64.727594,437.69649 C -64.118018,443.50551 -65.608124,449.72477 -63.501393,454.52835 C -58.438979,475.30526 -36.537656,486.26043 -5.5313184,478.05907 C 6.7571961,474.80959 17.372055,469.28224 26.803005,460.10758 C 31.658468,455.37871 38.015033,448.97591 40.153907,441.7016 C 43.76879,429.37051 31.268249,414.98231 24.986682,408.34238 C 17.019053,399.93435 5.4043994,392.91689 -5.4422222,385.25744 C -19.880324,375.05281 -33.903114,364.381 -32.619677,340.00895 C -32.33096,334.57605 -28.06731,326.03607 -25.639438,322.25709 C -18.081765,310.51584 -7.235143,304.72458 6.9765533,298.29161 C 12.737358,295.68921 19.238283,293.94789 26.111381,292.63231 C 32.025849,291.50028 40.380313,290.44691 46.786502,290.37022 L 48.178772,290.37022 C 54.057432,290.43986 60.059022,291.71061 64.344101,292.91031 C 73.115569,297.82103 75.192414,297.39867 73.965931,310.00072 C 70.595217,319.48354 64.973413,325.68306 55.597444,330.67048 C 49.900641,333.70088 46.216117,335.34239 39.90269,337.20326 C 36.865241,338.09648 33.696121,339.75068 29.947312,340.46176 C 24.35032,341.52951 22.87995,341.0891 14.195604,340.85734 C 13.026357,340.08931 13.660745,338.09113 13.660745,338.09113 L 7.5556789,334.31046 L 9.4667369,330.42462 C 14.478964,330.72039 18.389895,330.9592 28.432394,327.96658 C 37.387412,325.29989 42.932808,322.5833 50.617077,316.89186 C 55.144632,313.54088 57.094599,315.28221 56.308522,310.44817 C 55.333538,304.51086 49.863142,304.49282 43.077166,304.27205 C 32.482044,303.92074 26.081212,305.88876 19.956691,308.47311 C 13.830197,311.0631 7.1976022,312.78695 3.1406218,316.32683 C 1.2797509,316.62288 -0.61326227,318.76711 -2.926945,318.62811 C -4.6434574,320.74753 -5.9198457,322.97381 -8.9945119,323.80443 C -10.006995,327.92203 -13.063898,331.37451 -15.064052,334.15341 C -17.163735,337.07159 -14.987362,341.88251 -13.919617,348.98201 C -12.85018,356.0818 -6.8251876,361.22429 -2.0089154,366.68933 C 6.2919784,371.97787 12.422138,377.78181 20.427266,383.70502 C 22.87995,385.51598 25.646163,386.981 28.079393,388.78689 C 32.63909,392.15027 36.134426,397.5389 39.945264,401.84005 C 42.587137,404.82026 45.989711,407.97698 47.975486,413.17839 C 48.535157,414.62395 49.943498,416.95709 50.308905,418.05162 C 52.157088,423.5347 53.465619,432.40767 53.346072,439.07241 C 52.900591,464.66023 26.042021,483.07157 12.259735,489.26545 C 5.5059014,492.30826 -13.454399,498.32592 -20.522043,499.53972 L -20.522043,499.53972 z"
         id="path2403"
         style="fill:#bd141d;fill-opacity:1" />
      <path
         d="M -49.776061,382.70015 C -52.499699,381.12799 -56.549631,381.69302 -56.549631,381.69302 C -65.126836,383.46649 -72.149931,386.71061 -77.841377,391.2328 C -83.04815,394.23811 -91.946214,402.99746 -95.038925,406.97239 C -98.133328,410.93999 -102.45929,418.33554 -104.05118,421.14659 C -107.01899,426.45853 -107.42697,430.30151 -108.92976,440.60058 C -108.96726,442.02838 -107.57161,451.27944 -105.33264,455.06378 C -96.906845,473.85293 -83.71468,484.71365 -61.196451,488.45513 C -57.668973,487.92027 -56.517488,489.63678 -53.072058,489.18425 C -57.323302,486.51757 -61.303592,485.49268 -64.893381,482.28606 C -73.055273,475.02415 -80.841326,459.53607 -81.331355,446.62557 C -82.41348,418.26618 -65.032382,397.26315 -44.161306,390.86204 C -44.161306,390.86204 -47.047065,384.26525 -49.776061,382.70015 L -49.776061,382.70015 z"
         id="path2405"
         style="fill:#eceded" />
    </g>
  </g>
</svg>
