<?xml version="1.0" encoding="UTF-8" standalone="no"?>
<!-- Created with Inkscape (http://www.inkscape.org/) -->

<svg
   xmlns:dc="http://purl.org/dc/elements/1.1/"
   xmlns:cc="http://creativecommons.org/ns#"
   xmlns:rdf="http://www.w3.org/1999/02/22-rdf-syntax-ns#"
   xmlns:svg="http://www.w3.org/2000/svg"
   xmlns="http://www.w3.org/2000/svg"
   xmlns:sodipodi="http://sodipodi.sourceforge.net/DTD/sodipodi-0.dtd"
   xmlns:inkscape="http://www.inkscape.org/namespaces/inkscape"
   id="svg3529"
   version="1.1"
   inkscape:version="0.48.2 r9819"
   width="300"
   height="61.019192"
   sodipodi:docname="1wdrhdlogo2012.png">
  <metadata
     id="metadata3535">
    <rdf:RDF>
      <cc:Work
         rdf:about="">
        <dc:format>image/svg+xml</dc:format>
        <dc:type
           rdf:resource="http://purl.org/dc/dcmitype/StillImage" />
        <dc:title></dc:title>
      </cc:Work>
    </rdf:RDF>
  </metadata>
  <defs
     id="defs3533">
    <inkscape:perspective
       sodipodi:type="inkscape:persp3d"
       inkscape:vp_x="0 : 0.5 : 1"
       inkscape:vp_y="0 : 1000 : 0"
       inkscape:vp_z="1 : 0.5 : 1"
       inkscape:persp3d-origin="0.5 : 0.33333333 : 1"
       id="perspective2863" />
    <inkscape:perspective
       id="perspective2876"
       inkscape:persp3d-origin="372.04724 : 350.78739 : 1"
       inkscape:vp_z="744.09448 : 526.18109 : 1"
       inkscape:vp_y="0 : 1000 : 0"
       inkscape:vp_x="0 : 526.18109 : 1"
       sodipodi:type="inkscape:persp3d" />
  </defs>
  <sodipodi:namedview
     pagecolor="#ffffff"
     bordercolor="#666666"
     borderopacity="1"
     objecttolerance="10"
     gridtolerance="10"
     guidetolerance="10"
     inkscape:pageopacity="0"
     inkscape:pageshadow="2"
     inkscape:window-width="1920"
     inkscape:window-height="1056"
     id="namedview3531"
     showgrid="false"
     fit-margin-top="1"
     fit-margin-left="1"
     fit-margin-right="1"
     fit-margin-bottom="1"
     inkscape:zoom="2.490411"
     inkscape:cx="258.39351"
     inkscape:cy="43.338731"
     inkscape:window-x="0"
     inkscape:window-y="24"
     inkscape:window-maximized="1"
     inkscape:current-layer="svg3529" />
  <path
     style="fill:#005ea8;fill-opacity:1;fill-rule:nonzero;stroke:none"
     d="M 100.39003,1 C 94.237312,1 86.861268,1.190232 82.349463,1.377354 l 0,58.214579 c 5.741048,0.18779 11.477879,0.37735 17.213288,0.37735 17.011459,0 30.130509,-8.993634 30.130509,-30.711048 C 129.69326,4.047225 114.11966,1 100.39003,1 z m 55.73273,0 c -5.73468,0 -12.27802,0.190232 -17.40196,0.377354 l 0,58.214579 14.94914,0 0,-21.335185 0.82728,0 c 1.64091,-1.1e-5 2.0367,0.192108 3.67197,3.686486 l 7.99707,17.648699 18.65014,0 -11.05945,-20.522418 c -1.64093,-3.057288 -3.0817,-4.486249 -4.71697,-5.297509 6.5587,-1.622537 11.27717,-7.819288 11.27717,-15.370044 0,-6.989414 -3.68887,-12.106386 -8.60664,-14.789492 C 167.81648,1.552905 162.06367,1 156.12276,1 z M 1,1.377354 l 13.72999,58.214579 16.18281,0 4.51377,-22.786557 c 1.023796,-4.930512 1.641202,-8.351607 2.046436,-15.341015 0.617848,7.551471 1.431992,11.674044 2.249632,15.979619 l 4.107381,22.147953 16.792392,0 13.729987,-58.214579 -15.152335,0 -4.310578,22.510802 c -0.824015,4.74266 -1.425686,8.003328 -2.249627,14.368592 -0.611468,-6.552387 -1.2288,-10.422023 -2.046435,-13.729987 l -5.326544,-23.149407 -14.354079,0 -5.326538,24.208907 C 24.762258,29.64265 23.93996,31.891433 23.322117,38.88084 23.12232,31.891433 22.511187,28.021797 21.899774,25.150848 L 16.979619,1.377354 z m 156.57414,11.901261 c 5.32943,-5e-6 7.16978,3.069846 7.16978,7.126241 0,4.742666 -3.47901,7.619711 -7.37298,7.619711 -0.20616,0 -2.0664,-0.0011 -3.701,-0.18868 l 0,-14.368591 c 2.25238,-0.18711 3.69802,-0.188681 3.9042,-0.188681 z m -55.96495,0.377361 c 10.04668,0 11.88674,7.618363 11.88674,16.792386 1e-5,11.295052 -5.52197,16.415027 -11.66904,16.415027 -1.4291,0 -2.878072,-0.0011 -4.107382,-0.188675 l 0,-32.830064 c 1.640924,-0.187042 3.072042,-0.188674 3.889682,-0.188674 z"
     id="path42897"
     inkscape:connector-curvature="0"
     sodipodi:nodetypes="sccssssccccscccccscsccccccccccccccccccccsssccssssccs" />
  <path
     style="font-size:145.24671936px;font-style:normal;font-variant:normal;font-weight:normal;font-stretch:normal;text-align:start;line-height:125%;letter-spacing:0px;word-spacing:0px;writing-mode:lr-tb;text-anchor:start;fill:#999999;fill-opacity:1;stroke:none;font-family:DejaVu Sans Mono;-inkscape-font-specification:DejaVu Sans Mono"
     d="m 207.59373,1.956206 0,58.062987 8.42879,0 0,-27.65916 22.96667,0 0,27.65916 8.42878,0 0,-58.062987 -8.42878,0 0,23.798919 -22.96667,0 0,-23.798919 -8.42879,0 z m 51.15706,0 0,58.062987 12.59005,0 c 9.46867,0 16.44508,-2.35514 20.9303,-7.047597 4.48513,-4.718366 6.72881,-12.036198 6.72886,-21.939628 -5e-5,-9.955222 -2.24373,-17.292032 -6.72886,-22.010458 -4.48522,-4.718323 -11.46163,-7.065246 -20.9303,-7.065304 l -12.59005,0 z m 8.42878,6.445541 3.98419,0 c 7.08767,5.1e-5 12.01713,1.638465 14.78579,4.904985 2.79628,3.240689 4.19665,9.144046 4.19668,17.725236 -3e-5,8.503474 -1.4004,14.387851 -4.19668,17.654406 -2.79635,3.240654 -7.72581,4.869577 -14.78579,4.869572 l -3.98419,0 0,-45.154199 z"
     id="path3623"
     inkscape:connector-curvature="0" />
</svg>
