<?xml version="1.0" encoding="UTF-8" standalone="no"?>
<!-- Created with Inkscape (http://www.inkscape.org/) -->
<svg
   xmlns:svg="http://www.w3.org/2000/svg"
   xmlns="http://www.w3.org/2000/svg"
   version="1.0"
   width="520"
   height="344.26999"
   id="svg2179">
  <defs
     id="defs2181" />
  <g
     transform="translate(-250.0003,26.914173)"
     id="layer1">
    <g
       transform="matrix(3.2632776,0,0,3.2632776,260.0006,-16.912679)"
       style="fill-rule:evenodd"
       id="Ebene_x0020_1">
      <polygon
         points="78.9982,5.11976 78.9484,5.11976 74.3587,11.2722 67.1964,11.2722 67.1783,11.3176 71.4556,15.251 66.6959,21.5174 66.7277,21.5632 73.9865,17.6755 78.1577,21.5632 78.2255,21.5174 78.468,15.251 85.8202,11.3176 85.8384,11.2722 78.6509,11.2722 78.9982,5.11976 "
         style="fill:#203981"
         id="polygon10" />
      <polygon
         points="122.679,5.11976 122.629,5.11976 118.039,11.2722 110.877,11.2722 110.859,11.3176 115.136,15.251 110.376,21.5174 110.408,21.5632 117.667,17.6755 121.838,21.5632 121.906,21.5174 122.149,15.251 129.501,11.3176 129.519,11.2722 122.332,11.2722 122.679,5.11976 "
         style="fill:#203981"
         id="polygon12" />
      <polygon
         points="134.441,17.056 134.391,17.056 129.802,23.2081 122.64,23.2081 122.622,23.2537 126.899,27.1874 122.139,33.4534 122.171,33.4992 129.43,29.6115 133.6,33.4992 133.669,33.4534 133.911,27.1874 141.263,23.2537 141.282,23.2081 134.094,23.2081 134.441,17.056 "
         style="fill:#203981"
         id="polygon14" />
      <polygon
         points="56.696,17.0558 56.6461,17.0558 52.0565,23.2079 44.8944,23.2079 44.876,23.2534 49.1534,27.1871 44.3939,33.4531 44.4255,33.499 51.6843,29.6112 55.8552,33.499 55.9232,33.4531 56.166,27.1871 63.5179,23.2534 63.5361,23.2079 56.349,23.2079 56.696,17.0558 "
         style="fill:#203981"
         id="polygon16" />
      <polygon
         points="102.823,0 102.773,0 98.1838,6.15195 91.0213,6.15195 91.003,6.19794 95.2804,10.1314 90.5209,16.3976 90.5524,16.4433 97.8116,12.5553 101.982,16.4433 102.05,16.3976 102.293,10.1314 109.645,6.19794 109.663,6.15195 102.476,6.15195 102.823,0 "
         style="fill:#203981"
         id="polygon18" />
      <polygon
         points="34.9642,64.2441 34.9142,64.2441 30.3249,70.3962 23.1626,70.3962 23.1442,70.4422 27.4216,74.3754 22.6618,80.6419 22.6936,80.6873 29.9526,76.7995 34.1233,80.6873 34.1913,80.6419 34.4342,74.3754 41.7862,70.4422 41.8042,70.3962 34.6171,70.3962 34.9642,64.2441 "
         style="fill:#203981"
         id="polygon20" />
      <polygon
         points="44.3045,78.105 44.2546,78.105 39.6653,84.257 32.5029,84.257 32.4848,84.3029 36.7622,88.2361 32.0024,94.5027 32.0342,94.5481 39.293,90.6603 43.4637,94.5481 43.5319,94.5027 43.7745,88.2361 51.1264,84.3029 51.1448,84.257 43.9574,84.257 44.3045,78.105 "
         style="fill:#203981"
         id="polygon22" />
      <polygon
         points="110.538,64.2441 110.489,64.2441 105.899,70.3962 98.7371,70.3962 98.7187,70.4422 102.996,74.3754 98.2366,80.6419 98.2683,80.6873 105.527,76.7995 109.698,80.6873 109.766,80.6419 110.008,74.3754 117.36,70.4422 117.379,70.3962 110.191,70.3962 110.538,64.2441 "
         style="fill:#203981"
         id="polygon24" />
      <polygon
         points="88.5605,78.105 88.5109,78.105 83.9212,84.257 76.759,84.257 76.7409,84.3029 81.0183,88.2361 76.2584,94.5027 76.29,94.5481 83.5492,90.6603 87.7196,94.5481 87.7877,94.5027 88.0308,88.2361 95.3826,84.3029 95.4009,84.257 88.2137,84.257 88.5605,78.105 "
         style="fill:#203981"
         id="polygon26" />
      <polygon
         points="64.1604,82.925 64.1104,82.925 59.5208,89.0774 52.3586,89.0774 52.3404,89.1228 56.6178,93.0564 51.858,99.3226 51.8898,99.3685 59.1487,95.4807 63.3198,99.3685 63.3875,99.3226 63.63,93.0564 70.9823,89.1228 71.0006,89.0774 63.8132,89.0774 64.1604,82.925 "
         style="fill:#203981"
         id="polygon28" />
      <polygon
         points="12.636,35.5394 79.4937,35.5394 66.8576,62.6371 0,62.6371 12.636,35.5394 "
         style="fill:#203981"
         id="polygon30" />
      <polygon
         points="6.97078,58.7611 15.9631,58.7611 17.6277,55.1913 13.0116,55.1913 15.2909,50.3038 19.6971,50.3038 21.3618,46.7334 16.9556,46.7334 18.8251,42.7246 23.4411,42.7246 25.1057,39.1547 16.1133,39.1547 6.97078,58.7611 "
         style="fill:#ffffff"
         id="polygon32" />
      <path
         d="M 40.5145,39.1547 L 36.1382,39.1547 L 29.24917,53.9282 C 28.608801,55.30114 28.12115,55.57589 27.22199,55.57589 C 26.322832,55.57556 26.09122,55.301477 26.73148,53.92831 L 33.62051,39.15471 L 29.24421,39.15471 L 22.07361,54.53201 C 20.35749,58.21215 21.720747,59.14564 25.55746,59.14564 C 29.39395,59.14564 31.62799,58.212153 33.34378,54.53234 L 40.51449,39.15464 L 40.5145,39.1547 z "
         style="fill:#ffffff"
         id="path34" />
      <path
         d="M 40.4329,58.7611 L 44.37689,50.30371 L 45.48587,50.30371 C 46.385028,50.30371 46.74108,50.633137 46.433771,51.292211 L 43.322261,57.964591 C 43.219604,58.184539 43.181534,58.459172 43.220594,58.761422 L 47.626824,58.761092 C 47.467722,58.458842 47.621433,58.129745 48.325729,56.619372 L 50.310649,52.362782 C 51.475859,49.864132 51.148741,48.765712 49.478389,48.491302 L 49.503916,48.435957 C 51.610206,48.161654 52.841316,46.678907 53.391796,45.497957 L 54.480316,43.163687 C 55.940076,40.033357 54.641399,39.154667 50.804686,39.154667 L 45.199366,39.154667 L 36.056826,58.761067 L 40.432906,58.761067 L 40.4329,58.7611 z M 47.91092,42.7246 L 49.0199,42.7246 C 50.06925,42.7246 50.12976,43.109152 49.374194,44.72933 C 48.567461,46.4591 48.079704,46.73373 47.150614,46.73373 L 46.041414,46.7334 L 47.910914,42.7246 L 47.91092,42.7246 z "
         style="fill:#ffffff"
         id="path36" />
      <path
         d="M 62.9467,43.4112 C 63.305395,42.642207 63.805917,42.34029 64.70518,42.34029 C 65.604338,42.34007 65.8233,42.64232 65.464601,43.4112 L 60.291361,54.5047 C 59.932886,55.273583 59.432364,55.57594 58.533101,55.57594 C 57.633943,55.57561 57.414981,55.27391 57.77368,54.50503 L 62.9467,43.41123 L 62.9467,43.4112 z M 53.38462,54.5321 C 51.66883,58.21224 53.031757,59.14573 56.86858,59.14573 C 60.70529,59.14573 62.939,58.212243 64.6549,54.53243 L 69.85377,43.38383 C 71.56945,39.70369 70.206523,38.77053 66.3697,38.77053 C 62.53299,38.7702 60.29928,39.704017 58.58338,43.38383 L 53.38462,54.53213 L 53.38462,54.5321 z "
         style="fill:#ffffff"
         id="path38" />
      <path
         d="M 90.6945,45.0587 L 91.41134,43.52093 C 93.03768,40.03345 91.82802,38.77053 88.11157,38.77053 C 83.91517,38.7702 81.78479,40.25328 80.14579,43.76805 C 77.09853,50.30378 84.15459,49.89172 82.28927,53.95595 C 81.751778,55.10927 81.17424,55.57591 80.27486,55.57591 C 79.40574,55.57558 79.24642,55.081659 79.771587,53.95595 L 80.411626,52.58279 L 76.035766,52.58279 L 75.177869,54.42237 C 73.487379,58.04717 74.593725,59.1457 78.580409,59.1457 C 82.866699,59.1457 84.834349,57.88257 86.742369,53.79113 C 89.726029,47.39272 82.831829,47.39283 84.432419,43.96025 C 84.970571,42.80659 85.547669,42.34029 86.446829,42.34029 C 87.315949,42.34007 87.475269,42.834541 86.950322,43.96025 L 86.438247,45.05867 L 90.694507,45.05867 L 90.6945,45.0587 z "
         style="fill:#d82527"
         id="path40" />
      <path
         d="M 96.1399,51.8415 L 97.15877,51.8415 C 101.44539,51.8415 103.25471,50.852779 104.88116,47.36541 L 106.62248,43.63047 C 108.24871,40.14343 107.36078,39.15471 103.07448,39.15471 L 97.67931,39.15471 L 88.53688,58.76111 L 92.91296,58.76111 L 96.13989,51.84149 L 96.1399,51.8415 z M 100.39087,42.7246 L 101.49985,42.7246 C 102.54898,42.7246 102.71193,42.889534 101.40589,45.69043 C 100.40715,47.83226 99.902445,48.27149 98.913285,48.27149 L 97.804415,48.27138 L 100.39087,42.72459 L 100.39087,42.7246 z "
         style="fill:#d82527"
         id="path42" />
      <path
         d="M 114.888,43.4112 C 115.24692,42.642207 115.74711,42.34029 116.64648,42.34029 C 117.54597,42.34007 117.7646,42.64232 117.4059,43.4112 L 112.23288,54.5047 C 111.8743,55.273583 111.37366,55.57594 110.47429,55.57594 C 109.57524,55.57561 109.35628,55.27391 109.71498,54.50503 L 114.888,43.41123 L 114.888,43.4112 z M 105.32592,54.5321 C 103.61013,58.21224 104.97306,59.14573 108.80977,59.14573 C 112.64659,59.14573 114.8803,58.212243 116.59609,54.53243 L 121.79529,43.38383 C 123.51108,39.70369 122.14749,38.77053 118.311,38.77053 C 114.4744,38.7702 112.24047,39.704017 110.52468,43.38383 L 105.32592,54.53213 L 105.32592,54.5321 z "
         style="fill:#d82527"
         id="path44" />
      <path
         d="M 123.685,58.7611 L 127.62877,50.30371 L 128.73753,50.30371 C 129.63702,50.30371 129.99274,50.633137 129.68532,51.292211 L 126.57414,57.964591 C 126.47148,58.184539 126.43319,58.459172 126.47214,58.761422 L 130.8787,58.761092 C 130.71971,58.458842 130.87331,58.129745 131.57739,56.619372 L 133.56264,52.362782 C 134.72741,49.864132 134.40029,48.765712 132.73005,48.491302 L 132.7558,48.435957 C 134.86198,48.161654 136.09298,46.678907 136.64357,45.497957 L 137.73187,43.163687 C 139.19207,40.033357 137.89284,39.154667 134.05624,39.154667 L 128.45103,39.154667 L 119.3086,58.761067 L 123.68501,58.761067 L 123.685,58.7611 z M 131.16302,42.7246 L 132.27189,42.7246 C 133.32113,42.7246 133.38142,43.109152 132.62574,44.72933 C 131.81923,46.4591 131.33125,46.73373 130.40227,46.73373 L 129.29329,46.7334 L 131.16301,42.7246 L 131.16302,42.7246 z "
         style="fill:#d82527"
         id="path46" />
      <polygon
         points="136.463,58.7611 140.84,58.7611 148.317,42.7246 151.555,42.7246 153.22,39.1547 142.369,39.1547 140.704,42.7246 143.941,42.7246 136.463,58.7611 "
         style="fill:#d82527"
         id="polygon48" />
    </g>
  </g>
</svg>
