<?xml version="1.0" encoding="UTF-8" standalone="no"?>
<svg
   xmlns:dc="http://purl.org/dc/elements/1.1/"
   xmlns:cc="http://creativecommons.org/ns#"
   xmlns:rdf="http://www.w3.org/1999/02/22-rdf-syntax-ns#"
   xmlns:svg="http://www.w3.org/2000/svg"
   xmlns="http://www.w3.org/2000/svg"
   xmlns:sodipodi="http://sodipodi.sourceforge.net/DTD/sodipodi-0.dtd"
   xmlns:inkscape="http://www.inkscape.org/namespaces/inkscape"
   width="211.63089"
   height="43.439564"
   viewBox="0 0 211.63072 43.44"
   id="svg2"
   version="1.1"
   inkscape:version="0.91 r13725"
   sodipodi:docname="One_HD_Logo.svg">
  <metadata
     id="metadata10">
    <rdf:RDF>
      <cc:Work
         rdf:about="">
        <dc:format>image/svg+xml</dc:format>
        <dc:type
           rdf:resource="http://purl.org/dc/dcmitype/StillImage" />
        <dc:title></dc:title>
      </cc:Work>
    </rdf:RDF>
  </metadata>
  <defs
     id="defs8" />
  <sodipodi:namedview
     pagecolor="#ffffff"
     bordercolor="#666666"
     borderopacity="1"
     objecttolerance="10"
     gridtolerance="10"
     guidetolerance="10"
     inkscape:pageopacity="0"
     inkscape:pageshadow="2"
     inkscape:window-width="1920"
     inkscape:window-height="1137"
     id="namedview6"
     showgrid="false"
     fit-margin-top="0"
     fit-margin-left="0"
     fit-margin-right="0"
     fit-margin-bottom="0"
     inkscape:zoom="1.6383237"
     inkscape:cx="105.81536"
     inkscape:cy="21.720055"
     inkscape:window-x="-8"
     inkscape:window-y="-8"
     inkscape:window-maximized="1"
     inkscape:current-layer="svg2" />
  <g
     id="g3338"
     transform="translate(-1.0011521,-1)">
    <path
       id="path4"
       word-spacing="0"
       letter-spacing="-2.11"
       font-size="70.421"
       font-weight="500"
       d="m 128.834,1 c -8.18,0 -14.81,6.655 -14.81,14.814 0,8.208 6.63,14.862 14.81,14.862 8.176,0 14.81,-6.654 14.81,-14.862 C 143.644,7.654 137.01,1 128.834,1 Z m 0,2.174 c 6.943,0 12.654,5.678 12.654,12.64 0,7.01 -5.71,12.688 -12.654,12.688 -6.943,0 -12.652,-5.678 -12.652,-12.688 0,-6.962 5.71,-12.64 12.652,-12.64 z m 6.02,3.812 -14.967,5.37 0,3.68 4.933,-1.772 0,11.134 10.034,-3.55 0,-14.862 z M 93.812,7.68 c -5.586,0 -9.905,1.737 -12.957,5.21 -3.004,3.475 -4.507,8.03 -4.507,13.663 0,6.103 1.573,10.61 4.718,13.52 3.146,2.91 7.724,4.366 13.733,4.366 2.15,0 4.45,-0.24 6.9,-0.71 2.48,-0.42 4.69,-1.01 6.62,-1.76 l -1.13,-9.58 c -1.74,0.75 -3.48,1.31 -5.21,1.69 -1.69,0.33 -3.41,0.49 -5.14,0.49 -2.44,0 -4.3,-0.4 -5.57,-1.2 -1.22,-0.846 -1.88,-1.927 -1.97,-3.24 l 19.852,0 c 0.282,-1.926 0.424,-3.757 0.424,-5.494 0,-5.165 -1.314,-9.273 -3.943,-12.325 C 103.002,9.213 99.058,7.665 93.799,7.665 Z M 20.154,7.75 C 14.614,7.75 10.037,9.51 6.422,13.03 2.807,16.553 1,21.248 1,27.116 c 0,6.103 1.5,10.516 4.506,13.24 3.05,2.72 7.35,4.084 12.89,4.084 5.397,0 9.926,-1.76 13.588,-5.282 3.662,-3.52 5.495,-8.145 5.495,-13.873 0,-5.633 -1.48,-9.954 -4.44,-12.96 -2.91,-3.05 -7.21,-4.575 -12.89,-4.575 z m 42.92,0 c -2.488,0 -4.694,0.516 -6.62,1.55 -1.877,0.985 -3.425,2.3 -4.645,3.942 0.14,-0.75 0.23,-1.573 0.28,-2.465 0.04,-0.94 0.07,-1.665 0.07,-2.18 l -11.839,0 0,34.997 12.82,0 0,-17.04 c 0,-1.973 0.564,-3.782 1.69,-5.425 1.128,-1.69 2.395,-2.54 3.804,-2.54 1.312,0 1.97,0.96 1.97,2.89 l 0,22.11 12.816,0 0,-24.789 c 0,-3.334 -0.82,-6.01 -2.464,-8.03 C 69.362,8.76 66.73,7.75 63.07,7.75 Z m 131.682,1.123 -9.682,0.154 0,34.577 c 1.195,0.034 2.424,0.067 3.688,0.1 1.297,0.035 2.767,0.052 4.406,0.052 5.874,0 10.585,-1.503 14.137,-4.508 3.55,-3.04 5.328,-7.444 5.328,-13.215 0,-5.77 -1.538,-10.074 -4.612,-12.908 -3.03,-2.834 -7.46,-4.252 -13.26,-4.252 z m -42.51,0.154 0,34.575 3.28,0 0,-16.596 19.77,0 0,16.596 3.28,0 0,-34.575 -3.28,0 0,15.263 -19.77,0 0,-15.262 -3.28,0 z m 42.1,2.51 c 9.903,0 14.855,4.9 14.855,14.7 0,4.953 -1.4,8.658 -4.2,11.117 -2.76,2.458 -6.55,3.687 -11.37,3.687 -1.71,0 -3.47,-0.11 -5.27,-0.35 l 0,-29 5.998,-0.15 z M 93.53,16.975 c 2.396,0 3.593,1.62 3.593,4.86 l -7.887,0 c 0,-1.456 0.4,-2.63 1.198,-3.522 0.798,-0.892 1.83,-1.338 3.097,-1.338 z m -74.15,1.76 c 1.736,0 2.957,0.587 3.66,1.76 0.752,1.175 1.128,3.028 1.128,5.564 0,2.25 -0.446,4.03 -1.338,5.35 -0.845,1.26 -2.09,1.9 -3.732,1.9 -1.737,0 -2.982,-0.57 -3.733,-1.69 -0.704,-1.18 -1.056,-3.15 -1.056,-5.92 0,-2.3 0.49,-4.04 1.48,-5.21 0.98,-1.18 2.18,-1.768 3.59,-1.768 z"
       style="font-weight:500;font-size:70.42099762px;line-height:125%;font-family:TheSansBlack-Plain;-inkscape-font-specification:'TheSansBlack-Plain Medium';letter-spacing:-2.1099999;word-spacing:0;fill:#d6004f"
       inkscape:connector-curvature="0" />
  </g>
</svg>
