<?xml version="1.0" encoding="UTF-8" standalone="no"?>
<!-- Created with Inkscape (http://www.inkscape.org/) -->
<svg
   xmlns:svg="http://www.w3.org/2000/svg"
   xmlns="http://www.w3.org/2000/svg"
   version="1.0"
   width="1133.8583"
   height="277.44095"
   id="svg3012">
  <defs
     id="defs3014" />
  <g
     transform="translate(210.71284,111.7935)"
     id="layer1">
    <g
       transform="matrix(2.7019131,0,0,2.7019131,-190.47482,-138.79952)"
       id="g3000">
      <path
         d="M 122.37968,23.524841 C 146.9025,22.996506 171.48019,23.489075 196.02423,23.280029 C 201.42793,22.763443 206.68192,27.485886 206.24188,33.025421 C 206.23207,52.02475 206.29767,71.028793 206.2101,90.026917 C 206.2982,95.31723 201.14922,99.471558 196.03998,99.046188 C 172.33746,98.9319 148.63507,99.085892 124.93346,98.973511 C 119.86116,99.402023 115.07404,95.180283 114.99429,90.07637 C 114.88324,71.070847 114.96532,52.058212 114.95428,33.051147 C 114.76131,28.613846 118.00722,24.383362 122.37968,23.524841 z"
         id="path20"
         style="fill:#fdbf00;fill-rule:nonzero;stroke:none" />
      <path
         d="M 230.32288,23.409958 C 232.16861,22.999023 234.08081,23.151718 235.96202,23.119156 C 259.67166,23.188416 283.38434,23.068695 307.0928,23.176575 C 312.02299,23.375916 316.03041,28.016846 315.79575,32.900177 C 315.78451,51.950836 315.85826,71.005905 315.75977,90.055283 C 315.66556,95.066544 311.07533,99.267288 306.07814,98.995361 C 284.06163,99.039749 262.04184,99.009354 240.02469,98.99707 C 236.27974,98.893692 232.34181,99.558304 228.76454,98.167221 C 225.21657,96.680832 223.05298,92.777817 223.21519,88.999481 C 223.2301,70.312073 223.21394,51.623688 223.22302,32.936554 C 223.05127,28.621201 226.09338,24.423462 230.32288,23.409958 z"
         id="path24"
         style="fill:#ba0f07;fill-rule:nonzero;stroke:none" />
      <rect
         width="9.7641315"
         height="9.7641315"
         x="209.63713"
         y="55.325825"
         id="rect2971"
         style="fill:#ba0f07;fill-opacity:1;fill-rule:nonzero;stroke:none;stroke-width:28.73999977;stroke-linecap:butt;stroke-linejoin:miter;marker:none;marker-start:none;marker-mid:none;marker-end:none;stroke-miterlimit:3.86400008;stroke-dasharray:none;stroke-dashoffset:0;stroke-opacity:1;visibility:visible;display:inline;overflow:visible;enable-background:accumulate" />
      <rect
         width="9.7641315"
         height="9.7641315"
         x="101.5378"
         y="55.325825"
         id="rect2969"
         style="fill:#ba0f07;fill-opacity:1;fill-rule:nonzero;stroke:none;stroke-width:28.73999977;stroke-linecap:butt;stroke-linejoin:miter;marker:none;marker-start:none;marker-mid:none;marker-end:none;stroke-miterlimit:3.86400008;stroke-dasharray:none;stroke-dashoffset:0;stroke-opacity:1;visibility:visible;display:inline;overflow:visible;enable-background:accumulate" />
      <path
         d="M 13.336258,23.404404 C 38.223251,23.030594 63.144287,23.367966 88.04425,23.237091 C 91.889374,23.023407 95.882492,25.246887 97.290909,28.913071 C 98.280182,31.133743 98.146179,33.616714 98.161713,35.990158 C 98.068649,53.999817 98.235138,72.013779 98.082947,90.021027 C 97.972916,95.231995 93.124802,99.463715 87.952637,99.021729 C 63.628891,98.977081 39.301376,99.081009 14.979233,98.980652 C 9.691132,99.124237 5.336868,94.210403 5.638611,89.027435 C 5.646271,70.346863 5.623795,51.664597 5.649475,32.984467 C 5.51741,28.486313 8.845825,24.153702 13.336258,23.404404 z"
         id="path14"
         style="fill:#196b26;fill-opacity:1;stroke:none;stroke-width:0.1;stroke-linecap:butt;stroke-linejoin:miter;stroke-miterlimit:10" />
      <path
         d="M 62.65,32 C 52.779837,33.009735 42.951922,34.529419 33.075,35.5 C 33.052463,38.040741 33.048932,40.558481 33.05,43.1 C 37.991697,43.106073 42.932938,43.119813 47.875,43.125 C 47.889618,58.372924 47.871765,73.601877 47.875,88.85 C 52.794251,88.853096 57.730262,88.862648 62.65,88.85 C 62.636222,69.899591 62.648047,50.950287 62.65,32 z"
         id="path26"
         style="fill:#ffffff;stroke:none;stroke-width:0.1;stroke-linecap:butt;stroke-linejoin:miter;stroke-miterlimit:10" />
      <path
         d="M 161.575,32.325 C 154.74657,32.318896 147.90037,32.362993 141.075,32.475 C 136.9336,32.936762 131.47057,33.065884 129.425,37.425 C 127.62302,41.646893 128.59398,46.392465 128.35,50.85 C 132.92566,51.981607 137.57206,52.857206 142.2,53.75 C 142.19863,49.893844 142.19999,46.055575 142.2,42.2 C 155.44315,42.195163 168.68134,42.201046 181.925,42.175 C 181.94348,44.650463 181.90464,47.126733 181.775,49.6 C 166.08174,57.262979 150.48521,65.120099 134.825,72.85 C 131.81272,74.379358 128.67615,75.910324 126.35,78.425 C 123.92108,81.35336 124.99187,85.417976 124.775,88.9 C 144.85081,88.909032 164.9239,88.911536 185,88.9 C 185.97494,88.878992 186.97388,88.880848 187.975,88.825 C 190.97835,88.657448 194.0188,88.156256 196.525,86.45 C 200.51568,83.282688 198.55829,77.678286 199,73.325 C 194.82821,72.375171 190.63033,71.490418 186.5,70.375 C 186.4959,73.178574 186.49002,75.995206 186.5,78.8 C 173.01767,78.825391 159.53182,78.796564 146.05,78.8 C 159.94563,72.145657 173.73062,65.260758 187.575,58.5 C 191.10059,56.612823 195.52858,54.465418 196.025,49.975 C 196.39769,45.291834 196.9681,39.93077 194.1,35.875 C 190.99908,32.750596 186.16047,32.783246 182.05,32.425 C 175.2232,32.395406 168.40343,32.331104 161.575,32.325 z"
         id="path30"
         style="fill:#ffffff;stroke:none;stroke-width:0.1;stroke-linecap:butt;stroke-linejoin:miter;stroke-miterlimit:10" />
      <path
         d="M 270.475,32.7 C 263.63072,32.701238 256.76883,32.719469 249.925,32.725 C 246.01456,32.951501 241.74367,32.960657 238.375,35.225 C 234.84458,38.221719 235.55555,43.296933 235.475,47.425 C 240.06863,48.084409 244.65739,48.845129 249.25,49.525 C 249.25786,47.158926 249.24489,44.790173 249.25,42.425 C 260.84205,42.453778 272.45762,42.380359 284.05,42.45 C 286.19322,42.643817 289.46228,42.33761 290.025,45.1 C 290.49884,47.689401 290.60543,50.430158 289.975,53 C 289.50744,55.187485 286.84585,55.28793 285.05,55.5 C 277.58209,55.691025 270.11914,55.507162 262.65,55.575 C 262.64184,58.617343 262.63946,61.65676 262.65,64.7 C 270.76563,64.705478 278.88348,64.649741 287,64.7 C 289.02272,64.823032 291.8871,64.708551 292.625,67.1 C 293.44864,70.15986 293.42128,73.578116 292.65,76.65 C 292.10625,78.438265 290.30831,78.771644 288.6,78.925 C 288.03056,78.976118 287.4711,79.017017 286.975,79.075 C 274.17899,79.134906 261.37102,79.05213 248.575,79.075 C 248.56579,76.406345 248.56139,73.742374 248.575,71.075 C 243.81385,71.872119 239.08179,72.745993 234.3,73.4 C 234.39513,77.896002 233.3594,83.469936 237.3,86.725 C 241.00808,89.237952 245.71714,88.972744 250,89.125 C 260.99298,89.095088 271.98154,89.15592 282.975,89.125 C 286.63949,89.114696 290.31083,89.08892 293.975,89.05 C 296.39256,88.993288 299.19814,88.755272 301.625,87.875 C 301.92836,87.764968 302.20972,87.656176 302.5,87.525 C 304.53195,86.606776 306.2099,85.13948 307.025,82.825 C 308.26943,77.842242 308.17743,72.482104 307.325,67.45 C 305.13062,61.302905 297.73161,60.421588 292.2,59.375 C 297.32738,59.115646 304.53817,57.29343 304.975,51.075 C 304.97189,46.11211 306.14298,40.397631 303.075,36.075 C 299.91788,32.965365 295.11701,33.04783 291,32.725 C 284.15583,32.70553 277.31928,32.698762 270.475,32.7 z"
         id="path34"
         style="fill:#ffffff;stroke:none;stroke-width:0.1;stroke-linecap:butt;stroke-linejoin:miter;stroke-miterlimit:10" />
      <path
         d="M 327.91695,45.663727 C 332.91783,44.14566 337.89642,42.552887 342.87877,40.968857 C 342.94136,45.578766 342.90149,50.189209 342.91429,54.79982 C 345.72893,54.808029 348.54539,54.807602 351.36565,54.804001 C 351.35912,58.257538 351.36009,61.711243 351.36258,65.165543 C 348.54416,65.168671 345.72925,65.169128 342.9164,65.173325 C 343.12099,72.039658 342.47873,78.97522 343.24345,85.797134 C 344.16078,89.427612 348.49622,89.119324 351.39116,88.611542 C 351.39792,91.91188 351.52986,95.211166 351.76744,98.504257 C 345.83137,99.560959 339.06399,100.58569 333.55453,97.506271 C 329.79468,95.461288 327.92982,91.136154 327.95532,86.988739 C 327.83867,79.714615 327.94977,72.437103 327.91632,65.161926 C 325.48712,65.168945 323.05991,65.169281 320.6368,65.168427 C 320.63603,61.713806 320.63667,58.259827 320.63396,54.805984 C 323.05762,54.805359 325.48518,54.806671 327.91498,54.814301 C 327.9095,51.763687 327.91016,48.713593 327.91695,45.663727 z"
         id="path40"
         style="fill:#000000;fill-rule:nonzero;stroke:none" />
      <path
         d="M 353.68665,54.813156 C 358.91773,54.799744 364.15008,54.81543 369.38425,54.797348 C 371.88847,64.911942 374.42895,75.017593 376.93951,85.13121 C 379.28218,75.002625 381.88663,64.936783 384.2504,54.81337 L 399.04584,54.81337 C 394.65536,67.797939 389.55569,84.450468 385.03931,98.499557 C 379.12546,98.488678 373.2131,98.531006 367.30232,98.467239 C 362.7896,83.907593 358.28307,69.346161 353.68665,54.813156 z"
         id="path44"
         style="fill:#000000;fill-rule:nonzero;stroke:none" />
    </g>
  </g>
</svg>
