<?xml version="1.0" encoding="UTF-8" standalone="no"?>
<!-- Created with Inkscape (http://www.inkscape.org/) -->
<svg
   xmlns:svg="http://www.w3.org/2000/svg"
   xmlns="http://www.w3.org/2000/svg"
   version="1.0"
   width="921.25983"
   height="425.19684"
   id="svg11022">
  <defs
     id="defs11024" />
  <g
     id="layer1">
    <g
       transform="matrix(3.543307e-5,0,0,3.543307e-5,-1.591158e-3,1.763548e-4)"
       style="fill-rule:evenodd"
       id="Ebene_x0020_1">
  
  <g
   id="_90461808">
   <path
   d="M 17068300,3553760 C 17241730,3353320 17435970,3130740 17653240,2884190 C 18878910,1493440 19507810,830760 19568970,765490 C 19652020,677320 19935440,383640 20464530,383640 C 20993620,383640 21277050,677320 21360030,765490 C 21421390,830760 22050160,1493440 23275830,2884190 C 24530530,4307830 25021220,4937490 25152090,5109210 C 25183140,5150200 25218060,5196500 25253230,5248300 C 25292760,5306680 25332290,5371510 25367330,5442920 C 25441140,5592630 25500030,5778780 25500030,6000030 C 25500030,6221220 25441140,6407430 25367330,6557140 C 25332290,6628420 25292760,6693320 25253230,6751700 C 25218060,6803500 25183140,6849800 25152090,6890790 C 25021220,7062570 24530530,7692040 23275830,9115870 C 22050160,10506560 21421390,11169170 21360030,11234380 C 21277050,11322680 20993620,11616350 20464530,11616350 C 19935440,11616350 19652020,11322680 19568970,11234380 C 19507810,11169170 18878910,10506560 17653240,9115870 C 17437810,8871280 17244960,8650350 17072600,8451110 L 1328200,8451110 C 870830,8451110 500060,8080340 500060,7622970 L 500060,4381960 C 500060,3924530 870830,3553760 1328200,3553760 L 17068300,3553760 z "
   style="fill:white;fill-opacity:1"
   id="_109102704" />

   <path
   d="M 24874500,5320470 C 24744830,5150200 24258060,4526230 23014050,3114730 C 21793440,1729610 21167200,1069530 21105970,1004570 C 21045120,939870 20848290,732410 20464480,732410 C 20080680,732410 19883840,939870 19823120,1004570 C 19761770,1069530 19135650,1729610 17914860,3114730 C 16670910,4526230 16184070,5150200 16054600,5320470 C 15943780,5465880 15777620,5685930 15777620,6000030 C 15777620,6314010 15943780,6533990 16054600,6679530 C 16184070,6849800 16670910,7473700 17914860,8885200 C 19135650,10270320 19761770,10930400 19823120,10995420 C 19883840,11060190 20080680,11267530 20464480,11267530 C 20848290,11267530 21045120,11060190 21105970,10995420 C 21167200,10930400 21793440,10270320 23014050,8885200 C 24258060,7473700 24744830,6849800 24874500,6679530 C 24985180,6533990 25151410,6314010 25151410,6000030 C 25151410,5685930 24985180,5465880 24874500,5320470 z M 21718740,3868550 L 20855940,7874010 C 20748480,8373190 20394020,8600380 19966260,8600380 C 19540650,8600380 19288590,8377050 19395360,7881410 L 19914140,5472900 L 19108710,5472900 C 18757230,5472900 18630350,5301810 18699860,4978910 C 18777340,4619590 18912950,4520480 19513130,4419210 C 19977640,4338570 20249690,4132810 20496300,3869750 C 20798320,3549390 20976050,3381780 21257450,3381780 C 21620320,3381780 21790530,3534650 21718740,3868550 z "
   style="fill:#0591e1;fill-opacity:1"
   id="_96883360" />

   <path
   d="M 1328140,3902580 L 16768440,3902580 C 16151560,4625220 15871040,4985680 15777050,5109210 C 15745870,5150200 15711020,5196500 15675850,5248300 C 15636190,5306680 15596850,5371510 15561750,5442920 C 15488000,5592630 15428860,5778780 15428860,6000030 C 15428860,6221220 15488000,6407430 15561750,6557140 C 15596850,6628420 15636190,6693320 15675850,6751700 C 15711020,6803500 15745870,6849800 15777050,6890790 C 15871360,7014500 16152630,7376420 16772930,8102410 L 1328130,8102410 C 1063430,8102410 848750,7887680 848750,7622970 L 848750,4381960 C 848750,4117130 1063430,3902580 1328130,3902580 L 1328140,3902580 z M 1886260,4934010 L 1886260,7084900 L 4034630,7084900 L 4034630,4934010 L 1886260,4934010 z M 3925900,6976240 L 1992460,6976240 L 1992460,5042730 L 3925900,5042730 L 3925900,6976240 z M 3802050,5169110 L 3031220,5169110 L 3031220,5277770 L 3210660,5275240 C 3382390,5272840 3551840,5416800 3551840,5619010 C 3551840,5805980 3397500,5955120 3210660,5955120 L 3031220,5955120 L 3031220,6046140 L 3731340,6852330 L 3802050,6852330 L 3802050,5169110 z M 2925020,5169110 L 2118830,5169110 L 2118830,5275240 L 2315920,5275240 C 2518130,5275240 2657160,5452220 2657160,5619010 C 2652100,5831340 2473160,5955120 2315920,5955120 L 2118830,5955120 L 2118830,6063850 L 2315920,6063850 C 2488280,6063850 2667280,6195220 2662220,6402430 C 2657160,6619880 2488280,6743600 2315920,6743600 L 2118830,6743600 L 2118830,6852330 L 2925020,6852330 L 2925020,5169110 z M 4893500,6832660 C 4873770,6976050 4931070,7039300 5071620,7039300 L 5567940,7039300 C 5963830,7039300 6143400,6735190 6189570,6399460 C 6219610,6181430 6183050,6009330 5981350,5931850 C 6123350,5880230 6226950,5710980 6254970,5507250 C 6299180,5186000 6205000,4973670 5872240,4973670 L 5355870,4973670 C 5215320,4973670 5140690,5036790 5120950,5180240 L 4893500,6832660 z M 5378190,6103950 L 5601970,6103950 C 5779830,6103950 5809690,6241770 5786790,6408190 C 5755610,6634750 5662380,6749480 5518860,6749480 L 5289330,6749480 L 5378190,6103950 z M 5493880,5263480 L 5697540,5263480 C 5818040,5263480 5894250,5335140 5867370,5530270 C 5841380,5719580 5750860,5814260 5593050,5814260 L 5418100,5814260 L 5493880,5263480 z M 7441990,6522860 L 7460400,6826970 C 7471280,7019180 7517830,7076550 7658370,7076550 C 7753060,7076550 7854510,7027720 7872220,6898570 C 7876590,6867070 7870960,6804010 7865200,6740950 L 7712130,5206110 C 7692150,4996620 7628710,4936410 7433640,4936410 C 7218530,4936410 7158630,4996620 7081020,5206110 L 6501010,6752330 C 6478810,6809700 6461040,6875800 6456360,6910140 C 6442510,7010580 6499430,7076550 6614230,7076550 C 6737510,7076550 6796270,7024880 6839850,6895720 L 6968690,6522860 L 7441990,6522860 z M 7073620,6218810 L 7372420,5361010 L 7423590,6218810 L 7073620,6218810 z M 8398840,6878640 C 8382210,6999070 8460580,7076550 8563800,7076550 C 8667090,7076550 8766650,6999070 8783340,6878640 L 8880750,6169980 L 9434760,5208960 C 9457090,5171640 9474040,5131470 9479610,5091310 C 9490290,5013830 9426290,4936410 9317370,4936410 C 9231280,4936410 9165000,4959370 9098460,5088460 L 8743430,5771250 L 8586760,5117120 C 8551970,4973670 8522690,4936410 8402200,4936410 C 8304660,4936410 8205740,4988090 8188730,5111420 C 8184430,5142990 8187080,5186000 8204670,5246210 L 8493590,6190100 L 8398840,6878640 z M 10042030,6138490 L 10575550,6138490 C 10719060,6138490 10786680,6063850 10800090,5966380 C 10813490,5868790 10766440,5794210 10622920,5794210 L 10089400,5794210 L 10154870,5318000 L 10725830,5318000 C 10869280,5318000 10936830,5243360 10950310,5145830 C 10963780,5048300 10916590,4973670 10773200,4973670 L 10024380,4973670 C 9883840,4973670 9809140,5036790 9789470,5180240 L 9562020,6832660 C 9542290,6976050 9599650,7039300 9740200,7039300 L 10508940,7039300 C 10652460,7039300 10720140,6964660 10733550,6867070 C 10746890,6769600 10699830,6694960 10556440,6694960 L 9965500,6694960 L 10042030,6138490 z M 11198940,6878640 C 11182370,6999070 11260680,7076550 11363900,7076550 C 11467250,7076550 11566810,6999070 11583380,6878640 L 11685280,6138490 L 11851620,6138490 C 12000770,6138490 12062630,6210080 12048650,6353660 L 11993240,6881490 C 11980400,7016340 12058200,7076550 12201590,7076550 C 12330680,7076550 12393870,7013490 12402220,6953280 C 12416390,6849930 12404750,6746640 12420630,6631900 L 12450990,6411030 C 12484130,6169980 12467110,6043740 12273320,5972070 C 12458130,5900280 12549660,5776950 12587230,5504400 C 12627450,5211800 12542640,4973670 12195520,4973670 L 11667630,4973670 C 11527090,4973670 11452450,5036790 11432720,5180240 L 11198940,6878640 z M 11805640,5263480 L 11972050,5263480 C 12155670,5263480 12206900,5349500 12178500,5556080 C 12147700,5779790 12029230,5848670 11874330,5848670 L 11725060,5848670 L 11805640,5263480 z M 12926570,6878640 C 12909990,6999070 12988240,7076550 13091520,7076550 C 13194870,7076550 13294430,6999070 13310940,6878640 L 13468620,5733940 L 13772540,6881490 C 13813530,7042140 13874750,7076550 14032440,7076550 C 14135790,7076550 14235340,6999070 14254260,6861370 L 14491950,5134320 C 14508650,5013830 14430220,4936410 14327060,4936410 C 14223770,4936410 14124210,5013830 14107520,5134320 L 13952430,6261760 L 13646100,5131470 C 13600120,4965130 13526560,4936410 13406130,4936410 C 13271280,4936410 13183110,5013830 13166600,5134320 L 12926570,6878640 z "
   style="fill:#003e80;fill-opacity:1"
   id="_98690992" />

  </g>

 </g>
  </g>
</svg>
