<?xml version="1.0" encoding="UTF-8" standalone="no"?>
<!-- Created with Inkscape (http://www.inkscape.org/) -->

<svg
   xmlns:dc="http://purl.org/dc/elements/1.1/"
   xmlns:cc="http://creativecommons.org/ns#"
   xmlns:rdf="http://www.w3.org/1999/02/22-rdf-syntax-ns#"
   xmlns:svg="http://www.w3.org/2000/svg"
   xmlns="http://www.w3.org/2000/svg"
   xmlns:xlink="http://www.w3.org/1999/xlink"
   xmlns:sodipodi="http://sodipodi.sourceforge.net/DTD/sodipodi-0.dtd"
   xmlns:inkscape="http://www.inkscape.org/namespaces/inkscape"
   width="160.46962"
   height="127.5"
   id="svg2"
   version="1.1"
   inkscape:version="0.47 r22583"
   sodipodi:docname="Disney_Channel_2010.svg">
  <defs
     id="defs4">
    <linearGradient
       inkscape:collect="always"
       id="linearGradient2870">
      <stop
         style="stop-color:#ffffff;stop-opacity:1;"
         offset="0"
         id="stop2872" />
      <stop
         style="stop-color:#e6e6e6;stop-opacity:1"
         offset="1"
         id="stop2874" />
    </linearGradient>
    <inkscape:perspective
       sodipodi:type="inkscape:persp3d"
       inkscape:vp_x="0 : 526.18109 : 1"
       inkscape:vp_y="0 : 1000 : 0"
       inkscape:vp_z="744.09448 : 526.18109 : 1"
       inkscape:persp3d-origin="372.04724 : 350.78739 : 1"
       id="perspective10" />
    <linearGradient
       inkscape:collect="always"
       xlink:href="#linearGradient2870"
       id="linearGradient2876"
       x1="483"
       y1="43.362179"
       x2="483"
       y2="106.77267"
       gradientUnits="userSpaceOnUse" />
    <filter
       inkscape:collect="always"
       id="filter3647"
       x="-0.012869455"
       width="1.025739"
       y="-0.17762105"
       height="1.3552421"
       color-interpolation-filters="sRGB">
      <feGaussianBlur
         inkscape:collect="always"
         stdDeviation="5.1597428"
         id="feGaussianBlur3649" />
    </filter>
    <filter
       inkscape:collect="always"
       id="filter3659"
       x="-0.012452061"
       width="1.0249041"
       y="-0.33054075"
       height="1.6610816"
       color-interpolation-filters="sRGB">
      <feGaussianBlur
         inkscape:collect="always"
         stdDeviation="3.5630364"
         id="feGaussianBlur3661" />
    </filter>
    <inkscape:perspective
       id="perspective3671"
       inkscape:persp3d-origin="0.5 : 0.33333333 : 1"
       inkscape:vp_z="1 : 0.5 : 1"
       inkscape:vp_y="0 : 1000 : 0"
       inkscape:vp_x="0 : 0.5 : 1"
       sodipodi:type="inkscape:persp3d" />
    <inkscape:perspective
       id="perspective3685"
       inkscape:persp3d-origin="0.5 : 0.33333333 : 1"
       inkscape:vp_z="1 : 0.5 : 1"
       inkscape:vp_y="0 : 1000 : 0"
       inkscape:vp_x="0 : 0.5 : 1"
       sodipodi:type="inkscape:persp3d" />
    <inkscape:perspective
       id="perspective3712"
       inkscape:persp3d-origin="60 : 33.333333 : 1"
       inkscape:vp_z="120 : 50 : 1"
       inkscape:vp_y="0 : 1000 : 0"
       inkscape:vp_x="0 : 50 : 1"
       sodipodi:type="inkscape:persp3d" />
    <inkscape:perspective
       id="perspective3762"
       inkscape:persp3d-origin="0.5 : 0.33333333 : 1"
       inkscape:vp_z="1 : 0.5 : 1"
       inkscape:vp_y="0 : 1000 : 0"
       inkscape:vp_x="0 : 0.5 : 1"
       sodipodi:type="inkscape:persp3d" />
    <inkscape:perspective
       id="perspective3799"
       inkscape:persp3d-origin="60 : 33.333333 : 1"
       inkscape:vp_z="120 : 50 : 1"
       inkscape:vp_y="0 : 1000 : 0"
       inkscape:vp_x="0 : 50 : 1"
       sodipodi:type="inkscape:persp3d" />
  </defs>
  <sodipodi:namedview
     id="base"
     pagecolor="#ffffff"
     bordercolor="#666666"
     borderopacity="1.0"
     inkscape:pageopacity="0.0"
     inkscape:pageshadow="2"
     inkscape:zoom="2"
     inkscape:cx="241.71585"
     inkscape:cy="32.874683"
     inkscape:document-units="px"
     inkscape:current-layer="layer1"
     showgrid="false"
     showguides="true"
     inkscape:guide-bbox="true"
     inkscape:window-width="1280"
     inkscape:window-height="712"
     inkscape:window-x="-4"
     inkscape:window-y="-4"
     inkscape:window-maximized="1">
    <sodipodi:guide
       orientation="1,0"
       position="-646.39014,-802.75"
       id="guide2848" />
  </sodipodi:namedview>
  <metadata
     id="metadata7">
    <rdf:RDF>
      <cc:Work
         rdf:about="">
        <dc:format>image/svg+xml</dc:format>
        <dc:type
           rdf:resource="http://purl.org/dc/dcmitype/StillImage" />
        <dc:title></dc:title>
      </cc:Work>
    </rdf:RDF>
  </metadata>
  <g
     inkscape:label="Layer 1"
     inkscape:groupmode="layer"
     id="layer1"
     transform="translate(-1443.3901,227.88782)">
    <path
       style="fill:#221e1f;fill-rule:nonzero;stroke:none"
       d="m 38.75,74.71875 c -2.6945,0.0725 -4.8897,0.41596 -5.375,0.9375 -0.4274,0.45628 -0.95415,0.84591 -0.96875,1.46875 0,0.61565 0.6903,0.6875 1.125,0.6875 0.4343,0 0.84375,-0.05909 0.84375,-0.3125 0,-0.36226 -0.59375,-0.27015 -0.59375,-0.625 0,-0.42006 2.23545,-0.53125 3.34375,-0.53125 9.5463,-0.0283 20.5483,6.58143 20.5625,12.1875 0,4.35297 -5.65245,5.33643 -8.78125,5.34375 -1.1155,0.008 -2.19715,-0.11659 -3.21875,-0.3125 -0.044,-1.39068 -0.151,-4.28536 -0.1875,-6.125 0.3643,-0.008 0.7106,-0.03125 1,-0.03125 2.3181,-0.0162 5.3677,0.83897 5.375,1.375 0,0.46345 -0.8125,0.77695 -0.8125,1.21875 0,0.33312 0.7302,0.26191 1.375,0.3125 0.1174,0.008 1.4448,-0.72333 1.4375,-1.875 0,-1.52101 -1.9103,-3.32699 -8.125,-3.3125 -0.093,0 -0.19625,0 -0.28125,0 -0.065,-1.71659 -0.31185,-4.41353 -1.28125,-4.40625 -0.8112,0 -1.0525,2.98086 -1.125,4.625 -3.4838,0.52874 -6.5625,1.94578 -6.5625,3.34375 0,1.13705 2.48975,3.99726 6.53125,5.75 0.065,1.28921 0.2859,2.19479 1.4375,2.1875 0.833,0 1.13215,-0.60542 1.21875,-1.25 1.3037,0.3404 2.71945,0.5 4.21875,0.5 C 55.75825,95.8548 60.452,92.72535 60.4375,88.4375 60.3965,82.69385 48.8391,74.43635 38.75,74.71875 z m 25.9375,1.875 c -3.4114,0.0162 -5.625,2.74845 -5.625,4.21875 0,0.55039 0.2034,1.21632 0.6875,1.78125 0.041,1.17336 0.3029,1.46875 0.6875,1.46875 0.4347,0 0.68435,-0.22682 0.84375,-0.53125 0.4926,0.14491 1.07865,0.22603 1.78125,0.21875 2.1946,0 5.66355,-2.49826 5.65625,-4.5625 0,-0.92711 -0.4854,-1.39582 -1.6875,-1.5625 -0.4999,-0.48519 -1.23555,-1.03125 -2.34375,-1.03125 z m -1.25,1.8125 c -1.05,0.61569 -2.11965,1.48189 -2.84375,2.34375 -0.041,-0.11576 -0.0625,-0.21131 -0.0625,-0.3125 0,-0.66636 0.97955,-1.7125 2.90625,-2.03125 z m 3,0.34375 c 0.7532,0 0.90625,0.61207 0.90625,0.84375 0,1.37619 -2.8385,2.5 -4.0625,2.5 -0.4998,0 -0.92635,-0.07865 -1.28125,-0.1875 0.9633,-1.09367 3.2859,-3.14905 4.4375,-3.15625 z m 13.75,5.125 c -0.2914,0 -0.34375,0.3305 -0.34375,0.65625 0,0.96329 1.34375,4.32855 1.34375,5.625 0,0.26796 -0.02905,0.7545 -0.21875,0.8125 -0.3198,0.0943 -3.11515,-5.03818 -4.28125,-5.125 -1.2021,-0.087 -1.85105,5.02102 -1.84375,6.28125 0,1.2531 0.22005,2.09375 1.15625,2.09375 1.3835,-0.008 0.66095,-5.09375 1.21875,-5.09375 0.4128,0 2.6843,4.66345 3.9375,4.65625 1.3689,0 2.15625,-1.99204 2.15625,-3.28125 0,-2.96961 -1.9734,-6.63221 -3.125,-6.625 z m 15,1.15625 c -0.04448,0.0052 -0.0784,0.02356 -0.125,0.0625 -0.7314,0.59383 -3.0697,3.30148 -3.0625,5.84375 0,0.57941 0.14045,1.29283 0.46875,1.9375 -0.5218,1.7021 -1.7934,5.48524 -1.75,7.78125 0.04,1.18061 1.2203,2.37082 1.9375,2.21875 0.2752,-0.0579 0.324,-1.62998 0.6875,-2.6875 0.5067,-1.52106 1.31125,-4.28086 1.59375,-5.46875 0.1295,0.0202 0.26865,0.03125 0.40625,0.03125 2.8535,-0.0162 6.0146,-3.06553 6,-5.6875 0,-2.62196 -1.53865,-3.24773 -2.03125,-3.21875 -1.3616,0.0797 -3.99605,2.98194 -5.53125,4.9375 -0.093,-0.20278 -0.15215,-0.38129 -0.15625,-0.5625 0,-0.82575 1.55395,-3.31454 1.84375,-3.9375 0.26565,-0.563981 0.03011,-1.286287 -0.28125,-1.25 z m -24.5,0.0625 c -1.0066,0 -6.0771,0.11262 -6.0625,2.9375 0,1.91217 2.83535,1.42954 4.71875,1.625 1.5356,0.15219 3.40625,0.64924 3.40625,1.15625 0,1.12265 -4.06595,1.58643 -4.90625,1.59375 -1.7239,0 -1.75,-0.4965 -1.75,-0.75 0,-0.25338 0.2939,-0.6803 0.9375,-0.6875 0.6521,0 1.9623,0.81982 2.875,0.8125 0.9196,0 1.6875,-0.39965 1.6875,-0.8125 0,-0.74602 -3.02685,-1.125 -3.96875,-1.125 -0.9848,0.008 -2.40625,0.42146 -2.40625,1.90625 0,0.76783 1.24685,2.57703 4.78125,2.5625 3.4842,-0.0162 4.375,-1.97878 4.375,-3 0,-2.4771 -2.35655,-2.76373 -4.40625,-2.9375 -1.5284,-0.13033 -3.1948,-0.21477 -3.1875,-0.5625 0,-1.12269 7.625,-0.26983 7.625,-1.8125 0,-0.91987 -2.38585,-0.91346 -3.71875,-0.90625 z m 18.84375,0.0625 c -2.3323,0.25338 -5.375,0.23941 -5.375,1 0,0.71711 1.43225,0.99204 1.46875,1.1875 0.04,0.20278 -0.1731,0.95569 -0.25,1.1875 -0.085,0.25338 -1.1219,0.32858 -1.1875,1.03125 0,0.15948 0.27135,0.39817 0.21875,0.59375 -0.1579,0.58666 -0.65625,1.80549 -0.65625,2.3125 0,0.77499 0.56995,2.48101 2.15625,2.4375 2.5063,-0.087 4.7838,-1.82078 4.8125,-2.125 0.057,-0.46349 -0.6397,-1 -1.125,-1 -0.4853,0 -3.194,0.59678 -3.375,0.4375 -0.1821,-0.16676 0.1539,-1.73507 0.5,-1.84375 0.34,-0.10848 2.4648,-0.07185 2.8125,-0.09375 0.9848,-0.0506 0.7939,-1.38678 0.1875,-1.4375 -0.3036,-0.0202 -2.23525,-0.01302 -2.34375,-0.1875 -0.1012,-0.17405 0.0431,-1.0621 0.25,-1.15625 0.442,-0.18092 3.3455,-0.2619 3.5625,-0.3125 0.3602,-0.0943 0.63175,-0.28232 0.71875,-0.59375 0.089,-0.31126 -1.0134,-1.58236 -2.375,-1.4375 z m -27,0.125 c -0.9921,0 -1.00255,3.9889 -1.03125,5.4375 -0.073,3.32448 0.4289,3.72595 1.3125,3.71875 0.7893,0 1.04125,-0.09383 0.96875,-2.875 -0.1214,-5.26555 -0.4749,-6.28125 -1.25,-6.28125 z m -19.5,2.21875 c 0,1.56456 -0.0625,3.82994 -0.0625,5.34375 -3.4697,-1.22408 -5.8125,-3.16783 -5.8125,-3.8125 0,-1.00672 3.0575,-1.39359 5.875,-1.53125 z m 56.4375,0.21875 c 0.4343,0.008 0.58645,0.41783 0.59375,1.0625 0,1.9484 -2.35105,3.56027 -4.03125,3.53125 1.1443,-1.99183 2.8218,-4.60824 3.4375,-4.59375 z m -49.15625,9.6875 c -0.9633,0 -3.23065,0.2617 -3.28125,2.5 0.053,2.24529 2.31795,2.46875 3.28125,2.46875 0.8039,0 1.9162,-0.17312 2.4375,-0.6875 0.1741,-0.16635 0.25,-0.34296 0.25,-0.53125 0,-0.33312 -0.3414,-0.59375 -0.8125,-0.59375 -0.3238,0 -0.4801,0.0426 -0.625,0.1875 -0.2307,0.23153 -0.4867,0.35573 -0.8125,0.40625 -0.1215,0.0283 -0.2535,0.0625 -0.375,0.0625 -0.2023,0 -0.41275,-0.0286 -0.59375,-0.0937 -0.2185,-0.0797 -0.4103,-0.22281 -0.5625,-0.375 -0.2307,-0.23921 -0.375,-0.53233 -0.375,-0.84375 0,-0.31126 0.1402,-0.61194 0.375,-0.84375 0.1538,-0.16676 0.3322,-0.32651 0.5625,-0.40625 0.1821,-0.0652 0.39705,-0.09375 0.59375,-0.09375 0.1215,0 0.22225,0.035 0.34375,0.0625 0.3278,0.0506 0.61175,0.1744 0.84375,0.40625 0.1457,0.1449 0.3003,0.1875 0.625,0.1875 0.4707,0 0.8125,-0.23642 0.8125,-0.5625 0,-0.18821 -0.0759,-0.38882 -0.25,-0.5625 -0.5213,-0.51421 -1.6336,-0.6875 -2.4375,-0.6875 z m 12.375,0 c -0.5938,0 -1.0545,0.2389 -1.25,0.59375 l -1.34375,2.59375 c -0.1538,0.29709 -0.4302,0.85736 -0.4375,1.03125 0,0.1955 0.0664,0.34574 0.1875,0.46875 0.1538,0.16676 0.396,0.25 0.6875,0.25 0.3278,0 0.7182,-0.10243 0.8125,-0.3125 l 0.21875,-0.46875 0.03125,-0.0312 0.03125,-0.0312 0.0625,0 2.3125,0 0.0625,0 0.03125,0.0312 0.03125,0.0312 0.0625,0.0937 c 0.1538,0.30438 0.15625,0.31978 0.15625,0.3125 0.081,0.21007 0.4721,0.375 0.8125,0.375 0.329519,-0.01 0.583341,-0.10131 0.71875,-0.25 C 65.964,101.99945 66,101.90219 66,101.75 l 0,-0.0937 c 0,-0.15219 -0.17295,-0.54324 -0.46875,-1.09375 L 64.21875,98 C 63.93545,97.47851 63.2196,97.40625 62.9375,97.40625 l -0.25,0 z m 4.65625,0.03125 c -0.4707,0 -1.03125,0.20438 -1.03125,0.71875 l 0,3.53125 c 0,0.46361 0.2942,0.6875 0.875,0.6875 0.4129,0 0.90625,-0.11517 0.90625,-0.6875 l 0,-1.8125 -0.03125,-0.3125 C 68.02765,99.4703 68.001651,99.437188 68,99.40625 L 68,99.375 c 0.0021,-0.02822 0.02875,-0.05155 0.0625,-0.0625 0.02667,-0.01347 0.04502,-0.0093 0.0625,0 0,0.0283 1.9708,2.47098 2,2.5 0.3966,0.49252 0.6881,0.5625 1.1875,0.5625 0.4781,0 1.03125,-0.17304 1.03125,-0.6875 l 0,-3.53125 c 0,-0.4635 -0.2941,-0.6875 -0.875,-0.6875 -0.2226,0 -0.53055,0.03051 -0.71875,0.21875 -0.1174,0.11576 -0.1875,0.27321 -0.1875,0.46875 l 0,1.875 0.0625,0.21875 0.0625,0.21875 c 0.041,0.0364 -0.0225,0.0791 -0.0625,0.0937 -0.041,0.0162 -0.0345,0.0242 -0.0625,0 L 68.53125,98.0312 c -0.3967,-0.48531 -0.6876,-0.59375 -1.1875,-0.59375 z m 6.59375,0 c -0.478,0 -1.03125,0.20438 -1.03125,0.71875 l 0,3.53125 c 0,0.46362 0.295,0.6875 0.875,0.6875 0.4056,0 0.875,-0.11516 0.875,-0.6875 l 0,-1.8125 -0.03125,-0.3125 c -0.041,-0.10847 -0.02825,-0.15836 -0.03125,-0.1875 0.0025,-0.02613 0.0032,-0.05228 0.03125,-0.0625 0.041,-0.0202 0.08175,-0.0242 0.09375,0 0,0.0283 1.9709,2.46378 2,2.5 0.3967,0.49252 0.66365,0.5625 1.15625,0.5625 0.4781,0 1.03125,-0.17304 1.03125,-0.6875 l 0,-3.53125 c 0,-0.4635 -0.2869,-0.6875 -0.875,-0.6875 -0.4056,0 -0.875,0.108 -0.875,0.6875 l 0,1.875 0.03125,0.21875 0.0625,0.21875 c 0,0.0364 -0.0215,0.0791 -0.0625,0.0937 -0.04,0.0162 -0.0345,0.0242 -0.0625,0 l -2,-2.53125 c -0.3967,-0.48526 -0.6876,-0.5937 -1.1875,-0.5937 z m -19.625,0.03125 c -0.5792,0 -0.9303,0.23833 -0.9375,0.6875 l 0,3.4375 c 0,0.20278 0.08955,0.37699 0.21875,0.5 0.1579,0.15947 0.39295,0.21875 0.71875,0.21875 0.5796,0 0.9302,-0.26242 0.9375,-0.71875 l 0,-1 c 0,-0.0797 0.07565,-0.125 0.15625,-0.125 l 1.9375,0 c 0.053,0 0.09375,0.0355 0.09375,0.0937 l 0,1.03125 c 0,0.45637 0.3514,0.71875 0.9375,0.71875 0.3197,0 0.55925,-0.0592 0.71875,-0.21875 0.1214,-0.11576 0.1875,-0.27329 0.1875,-0.46875 l 0,-3.46875 c 0,-0.44908 -0.3583,-0.6875 -0.9375,-0.6875 -0.3319,0 -0.5905,0.05195 -0.75,0.21875 -0.1173,0.12304 -0.15625,0.28046 -0.15625,0.46875 l 0,1.125 c 0,0.0579 -0.0678,0.125 -0.125,0.125 L 55.34375,99.375 c -0.057,0 -0.09375,-0.03545 -0.09375,-0.09375 l 0,-1.125 c 0,-0.1955 -0.0582,-0.3457 -0.1875,-0.46875 -0.1578,-0.15219 -0.4237,-0.21875 -0.75,-0.21875 z m 31.78125,0 c -0.6014,0 -0.9375,0.26242 -0.9375,0.71875 l 0,3.34375 c 0,0.26066 0.0502,0.46338 0.1875,0.59375 0.174,0.16677 0.46465,0.21875 0.90625,0.21875 l 3.125,0 c 0.2388,0 0.42275,-0.0571 0.53125,-0.1875 0.065,-0.087 0.09375,-0.20613 0.09375,-0.34375 0,-0.13033 -0.03255,-0.22589 -0.09375,-0.3125 -0.1093,-0.13033 -0.29085,-0.21875 -0.53125,-0.21875 l -2.125,0 c -0.093,0 -0.1794,-0.062 -0.1875,-0.15625 l 0,-2.9375 c 0,-0.45628 -0.35875,-0.71875 -0.96875,-0.71875 z m -5.5,0.0625 c -0.7893,0 -1.125,0.27182 -1.125,0.84375 l 0,3.15625 c 0,0.57225 0.3353,0.8125 1.125,0.8125 l 3.625,0 c 0.255,0 0.5625,-0.085 0.5625,-0.46875 0,-0.38371 -0.3091,-0.46875 -0.5625,-0.46875 l -2.65625,0 c -0.085,0 -0.15625,-0.062 -0.15625,-0.15625 l 0,-0.75 c 0,-0.087 0.06335,-0.14897 0.15625,-0.15625 l 2.3125,0 c 0.2307,0 0.413,-0.0718 0.5,-0.1875 0.053,-0.0725 0.0625,-0.16549 0.0625,-0.28125 0,-0.1016 -0.0295,-0.18484 -0.0625,-0.25 -0.089,-0.12305 -0.2664,-0.1875 -0.5,-0.1875 l -2.28125,0.03125 c -0.093,-0.008 -0.1794,-0.09355 -0.1875,-0.1875 l 0,-0.625 c 0,-0.087 0.06315,-0.1875 0.15625,-0.1875 l 2.65625,0 c 0.259,0 0.5625,-0.07767 0.5625,-0.46875 0,-0.38372 -0.3019,-0.46875 -0.5625,-0.46875 l -3.625,0 z m -17.78125,1.25 c 0.044,0 0.0967,0.0175 0.125,0.0625 l 0.78125,1.8125 0,0.0312 -0.03125,0.0312 -1.71875,0 -0.03125,-0.0312 0,-0.0312 0,-0.0312 c 0.6808,-1.54275 0.76665,-1.75231 0.78125,-1.78125 0.041,-0.0437 0.05755,-0.0625 0.09375,-0.0625 z"
       transform="translate(1443.3901,-227.88782)"
       id="path62842-8" />
    <text
       xml:space="preserve"
       style="font-size:26.2610054px;font-style:normal;font-variant:normal;font-weight:bold;font-stretch:normal;text-align:start;line-height:125%;writing-mode:lr-tb;text-anchor:start;fill:#ffffff;fill-opacity:1;stroke:none;font-family:Gotham Bold;-inkscape-font-specification:'Gotham Bold, Bold'"
       x="507.547"
       y="682.44006"
       id="text2844"
       sodipodi:linespacing="125%"
       inkscape:export-filename="C:\Documents and Settings\Jonathan\My Documents\© animation\shine.png"
       inkscape:export-xdpi="90"
       inkscape:export-ydpi="90"><tspan
         sodipodi:role="line"
         id="tspan2846"
         x="507.547"
         y="682.44006">COPYRIGHT 2010. ALL RIGHTS RESERVED.</tspan></text>
    <path
       style="fill:#0066ff;fill-opacity:1;stroke:none"
       d="m 1474.8274,-214.73307 c -6.4471,0 -11.6369,5.19006 -11.6369,11.6369 l 0,79.94048 c 0,6.44684 5.1898,11.6369 11.6369,11.6369 l 102.2024,0 c 6.447,0 11.6369,-5.19006 11.6369,-11.6369 l 0,-79.94048 c 0,-6.44684 -5.1899,-11.6369 -11.6369,-11.6369 l -102.2024,0 z m 3.7946,4.1741 96.0678,0 c 6.1666,0 9.6763,3.82602 9.6763,9.99256 l 0,73.74256 c 0,6.16655 -4.9644,11.13096 -11.131,11.13096 l -94.6131,0 c -6.1665,0 -11.1309,-4.96441 -11.1309,-11.13096 l 0,-72.60416 c 0,-6.16655 4.9644,-11.13096 11.1309,-11.13096 z"
       id="rect3752"
       sodipodi:nodetypes="cccccccccccccccccc" />
    <path
       style="fill:#ffaf00;fill-opacity:1;fill-rule:nonzero;stroke:none"
       d="m 1484.5668,-204.99349 c -1.1698,0.049 -2.3493,0.21857 -3.5417,0.37926 -6.6903,0.90594 -12.8253,3.48136 -17.8346,7.20982 -9.7641,7.61888 -13.891,17.38323 -14.1667,29.59822 1.0649,11.43659 8.5288,20.55458 18.9732,24.79167 -0.8362,1.05897 -1.6704,2.14361 -2.403,3.28869 -0.7974,1.19036 -1.4738,2.51474 -2.1505,3.79464 -0.069,0.13681 -0.1862,0.24205 -0.251,0.37926 l 0,0.12629 0,12.26934 c 0,3.79307 1.7615,7.11179 4.5536,9.23363 0.1093,0.10443 0.255,0.16595 0.3805,0.25298 -0.4291,-3.5118 -0.5869,-7.2184 -0.255,-11.13095 0.2266,-0.89275 0.476,-1.79075 0.7593,-2.65625 0.4048,-1.14168 0.8949,-2.33232 1.3912,-3.41518 1.1155,-2.29605 2.1954,-3.84326 3.0357,-4.80655 l 1.0119,-1.0119 0.3805,-0.25298 2.5297,-2.65625 c 0.8079,-0.62422 0.5019,-1.81135 0.1255,-2.1503 -1.7563,-1.58703 -0.6322,-0.2129 -5.3125,-3.54167 -2.7702,-1.97013 -5.5469,-4.05413 -7.8423,-6.45089 -0.1133,-0.11819 -0.9244,-0.86744 -1.0119,-1.0119 -3.2377,-5.32359 -4.3504,-12.20438 -2.6564,-19.09971 0.6411,-2.62164 1.6129,-5.17824 2.9094,-7.46279 l 0,0.25297 c 0.7091,-1.33964 1.5073,-2.58861 2.4035,-3.79464 0.2671,-0.36145 0.6015,-0.66349 0.8852,-1.0119 0.582,-0.68385 1.1325,-1.39526 1.7708,-2.02381 0.6383,-0.62856 1.3353,-1.20134 2.0238,-1.77084 4.8203,-3.98642 10.8456,-6.47501 17.0761,-6.83035 1.7794,-0.1016 3.5158,-0.008 5.3121,0.25297 13.4725,1.95557 22.0114,13.79991 20.1118,27.19494 -0.1173,0.72011 -0.2023,1.42363 -0.3804,2.1503 l 0,0.12629 c -0.041,0.16716 -0.081,0.33959 -0.1255,0.50595 -0.8104,3.01357 -2.1906,5.78955 -3.7947,8.34821 -0.1457,0.23193 -0.2145,0.39019 -0.1295,0.63224 -0.041,0.31126 0.1781,0.51656 0.7593,0.63244 0.2591,0.008 0.4983,0.11091 0.7586,0.12629 l 0.1254,0 c 2.5424,0.1449 5.0325,0.51546 7.5893,1.13839 5.8161,1.41958 11.1253,3.94659 15.5579,7.33631 0.6087,0.29709 1.3976,0.23355 1.2653,-0.63244 -0.045,-0.27929 0.069,-0.41371 0,-0.63224 -0.6355,-2.01369 -1.2107,-4.06729 -1.3916,-6.19792 -0.069,-0.81948 0,-1.70506 0,-2.52976 0.057,-1.07015 0.17,-2.22218 0.3805,-3.28869 2.3974,-12.29132 14.2168,-19.169 26.4358,-15.43155 8.4004,2.56943 14.8094,9.49835 17.2023,17.58185 0.3643,1.22477 0.5865,2.52883 0.759,3.79464 0.1578,1.52174 0.2671,3.14282 0.1255,4.68006 -0.069,0.7686 -0.2308,1.51167 -0.3805,2.27679 -2.3881,12.24214 -14.2663,19.16122 -26.4358,15.43154 -1.681,-0.51214 -3.2988,-1.17975 -4.807,-2.0238 -1.8566,-0.93585 -1.3976,1.19194 -1.2645,1.77063 0.4562,1.98151 1.7838,4.02843 2.4031,6.19791 0.3076,1.08476 0.542,2.17621 0.7589,3.28869 0.2186,1.11249 0.3846,2.28031 0.506,3.41518 0.041,0.49972 0.1052,1.0145 0.1255,1.51786 0,0.0421 0,0.0842 0,0.12628 0.073,1.7281 0.04,3.42538 -0.1255,5.18602 l 0.1255,0 9.7398,0 c -0.057,-1.18304 -0.1012,-2.36859 -0.251,-3.54167 -0.1133,-1.06177 -0.3157,-2.11355 -0.506,-3.1622 -0.3966,-2.20604 -0.9107,-4.42907 -1.6441,-6.57738 12.5488,1.56177 23.6446,-5.32606 26.4358,-17.45536 0.6711,-2.9134 0.7075,-5.88261 0.3805,-8.85417 -0.065,-0.70756 -0.1376,-1.44581 -0.255,-2.15029 -0.041,-0.21615 -0.081,-0.41699 -0.1255,-0.63245 -0.1295,-0.69679 -0.3278,-1.3336 -0.5059,-2.0238 -0.057,-0.19834 -0.065,-0.435 -0.1255,-0.63245 -0.2105,-0.73294 -0.4963,-1.42901 -0.7593,-2.15029 -3.2835,-9.02231 -10.6603,-17.05622 -20.3644,-20.74405 -14.5051,-5.52188 -28.6948,0.53339 -32.8869,13.53423 -0.2105,0.65486 -0.474,1.33433 -0.6323,2.02381 -0.04,0.1283 -0.097,0.25095 -0.1254,0.37926 l 0,0.25297 c -0.2348,1.12666 -0.4129,2.27812 -0.506,3.41518 -0.1214,1.36259 -0.085,2.67673 0,4.04762 -1.7174,-0.72857 -3.4947,-1.45386 -5.3125,-2.02381 -2.3258,-0.72319 -4.6378,-1.24383 -6.957,-1.64434 1.4219,-2.5872 2.6265,-5.3633 3.289,-8.22173 0.04,-0.16879 0.089,-0.33636 0.1255,-0.50595 0.3238,-1.36259 0.3765,-2.77072 0.506,-4.17411 0.1619,-1.74942 0.2914,-3.52321 0.1255,-5.3125 -1.5139,-16.36003 -16.3395,-28.05526 -33.8989,-27.32143 l 0,0.001 z"
       id="path38040-6"
       sodipodi:nodetypes="cscccsscccsccssccccsssssccsssssscccsscsccscssssssssssscsssssscccsscssssssssssccscscsssscc" />
    <path
       style="fill:#0066ff;fill-opacity:1;stroke:none"
       d="m 1588.6667,-145.4176 c -1.2843,0.95868 -2.6686,1.69154 -4.3006,2.02381 l 0,16.56994 c 0,6.16655 -4.9644,11.13096 -11.131,11.13096 l -94.6131,0 c -6.1665,0 -11.1309,-4.96441 -11.1309,-11.13096 l 0,-16.31696 -4.3006,0 0,19.98512 c 0,6.44684 5.1898,11.6369 11.6369,11.6369 l 102.2024,0 c 6.447,0 11.6369,-5.19006 11.6369,-11.6369 l 0,-22.26191 z"
       id="path3848" />
    <rect
       style="opacity:0;fill:#ffffff;fill-opacity:1;stroke:none"
       id="rect3857"
       width="160.46962"
       height="127.5"
       x="1443.3901"
       y="-227.88782"
       rx="2.7499998"
       ry="2.7499998" />
  </g>
</svg>
