<?xml version="1.0" encoding="UTF-8" standalone="no"?>
<!-- Created with Inkscape (http://www.inkscape.org/) -->
<svg
   xmlns:svg="http://www.w3.org/2000/svg"
   xmlns="http://www.w3.org/2000/svg"
   version="1.0"
   width="408.50125"
   height="75.747498"
   id="Logo_DLF"
   xml:space="preserve"><defs
     id="defs" /><path
     d="M -1.3322676e-15,75.7475 L -1.3322676e-15,0 L 408.50125,0 L 408.50125,75.7475 L -1.3322676e-15,75.7475 z"
     id="hintergrund"
     style="fill:#0071bc;fill-opacity:1;fill-rule:nonzero;stroke:none" /><path
     d="M 302.09375,15.59375 C 299.19875,15.59375 296.59999,16.5775 294.8125,18.4375 C 292.38375,20.92375 291.68751,23.721249 291.6875,27.1875 L 291.6875,28.0625 L 287.59375,28.0625 L 287.59375,33.84375 L 291.6875,33.84375 L 291.6875,58.59375 L 299.84375,58.59375 L 299.84375,33.84375 L 305.09375,33.84375 L 305.09375,28.0625 L 299.84375,28.0625 L 299.84375,27 C 299.84375,23.89125 300.87376,22.25 303.5625,22.25 C 304.57375,22.25 305.40499,22.43625 306.0625,22.6875 L 307.3125,16.3125 C 306.1775,15.92375 304.19124,15.59375 302.09375,15.59375 z M 30,16.59375 C 26.715,16.59375 23.546251,16.9375 21.5,17.375 L 21.5,58.625 C 23.175,58.81375 25.646249,59.062502 28.25,59.0625 C 34.32375,59.0625 38.367501,57.77375 41.21875,55.21875 C 45.18375,51.79375 47.156252,45.47375 47.15625,37.4375 C 47.15625,29.58875 45.627501,23.925 42.03125,20.5625 C 39.24125,17.8825 35.45375,16.59375 30,16.59375 z M 163.6875,16.875 L 163.6875,58.6875 L 172.1875,58.6875 L 172.1875,40.125 C 172.1875,39.31625 172.43875,37.999999 172.5625,37.5625 C 173.24375,35.56875 174.4175,35.09375 175.59375,35.09375 C 178.01125,35.09375 178.68749,37.63375 178.6875,40.6875 L 178.6875,58.6875 L 187.1875,58.6875 L 187.1875,41 C 187.1875,33.4 185.7,27.906249 179.6875,27.90625 C 178.385,27.90625 176.52125,28.4075 175.46875,28.96875 C 174.4175,29.5325 173.11625,30.411251 172.1875,31.65625 L 172.1875,16.875 L 163.6875,16.875 z M 192.34375,16.875 L 192.34375,58.6875 L 200.8125,58.6875 L 200.8125,16.875 L 192.34375,16.875 z M 275.34375,16.875 L 275.34375,30.84375 C 274.65875,29.22375 272.2875,27.906249 269.6875,27.90625 C 264.60125,27.90625 260.21876,33.2225 260.21875,43.625 C 260.21875,51.3525 262.62125,59.187499 269.375,59.1875 C 271.7925,59.1875 275.07499,57.647501 276.3125,55.28125 L 276.8125,58.6875 L 284,58.6875 C 283.87625,55.57125 283.74999,52.329999 283.75,49.21875 L 283.75,16.875 L 275.34375,16.875 z M 365.125,16.875 L 365.125,58.6875 L 373.625,58.6875 L 373.625,49.28125 L 375.15625,46.71875 L 379.25,58.6875 L 388.4375,58.6875 L 380.625,41.1875 L 388.375,28.40625 L 379.375,28.40625 L 375.46875,37.375 C 374.5375,39.2425 374.61501,39.38125 373.625,41.75 L 373.625,16.875 L 365.125,16.875 z M 115.34375,20.125 L 106.84375,22.6875 L 106.84375,28.40625 L 103.3125,28.40625 L 103.3125,34.15625 L 106.84375,34.15625 L 106.84375,48.15625 C 106.84375,53.0775 107.79875,55.5675 109.59375,57.125 C 111.0825,58.5625 113.17625,59.062502 115.59375,59.0625 C 117.63625,59.0625 119.38375,58.87625 120.625,58.625 L 120.625,51.96875 C 120.0675,52.03125 119.55625,52.093749 118.9375,52.09375 C 117.13875,52.09375 115.34375,51.203752 115.34375,47.21875 L 115.34375,34.15625 L 121.375,34.15625 L 121.375,28.40625 L 115.34375,28.40625 L 115.34375,20.125 z M 31.84375,23.3125 C 36.24625,23.3125 38.375001,28.526251 38.375,36.9375 C 38.375,48.1525 35.313749,52.156249 31.78125,52.15625 C 31.28625,52.15625 30.87,52.155001 29.9375,52.03125 L 29.9375,23.375 C 30.93125,23.31375 31.286249,23.312499 31.84375,23.3125 z M 62.46875,27.84375 C 55.525,27.84375 50.000002,33.908748 50,44.25 C 50,53.78375 54.726251,59 63.09375,59 C 66.13,59 69.361248,58.496249 71.53125,57.75 L 70.53125,51.90625 C 68.92125,52.33875 67.013749,52.781249 64.84375,52.78125 C 60.81375,52.78125 58.248749,50.772499 58.125,46.90625 L 72.75,47.03125 C 72.935,46.09625 72.999997,44.7425 73,42.5625 C 73,32.4725 68.851249,27.843749 62.46875,27.84375 z M 133.5,27.90625 C 127.05625,27.90625 123.21875,32.268752 123.21875,37.8125 C 123.21875,40.30625 124.01125,43.631248 129.15625,46.4375 C 131.82125,47.9925 132.8125,48.851249 132.8125,50.21875 C 132.8125,51.8425 131.70126,52.718751 129.59375,52.71875 C 127.7325,52.71875 125.58,51.966249 124.15625,51.34375 L 122.78125,57.375 C 124.27,58.31 127.23751,59.062502 129.59375,59.0625 C 136.2275,59.0625 140.68751,55.700002 140.6875,49.40625 C 140.6875,46.3525 139.52375,43.116251 134.8125,40.5 C 131.77625,38.75625 131.15625,37.932502 131.15625,36.8125 C 131.15625,35.505 132.0175,34.34375 134.1875,34.34375 C 135.67625,34.34375 136.98,34.596251 138.09375,35.21875 L 139.40625,29.09375 C 137.79375,28.47125 135.85624,27.906249 133.5,27.90625 z M 216.4375,27.90625 C 212.10125,27.90625 208.57875,29.158751 206.65625,30.15625 L 208.03125,35.59375 C 209.88875,34.53375 211.86376,33.96875 214.34375,33.96875 C 217.195,33.96875 218.9375,35.629999 218.9375,37.625 L 218.9375,38.75 C 211.80875,38.815 204.59375,41.9325 204.59375,49.96875 C 204.59375,55.265 207.88001,59.187499 212.40625,59.1875 C 214.9475,59.1875 218.17125,58.211251 220.03125,55.71875 L 220.53125,58.6875 L 227.90625,58.6875 C 227.65875,56.63 227.53126,54.396251 227.53125,52.03125 L 227.53125,41.1875 C 227.53125,35.3925 226.54249,27.906249 216.4375,27.90625 z M 248.3125,27.90625 C 245.3375,27.90625 241.9225,29.347501 240.125,31.96875 L 239.625,28.40625 L 232.4375,28.40625 C 232.56125,31.46 232.6875,34.762502 232.6875,37.875 L 232.6875,58.6875 L 241.1875,58.6875 L 241.1875,40.4375 C 241.1875,39.00375 241.4375,37.872499 241.75,37.1875 C 242.43125,35.75375 243.41501,35.09375 244.65625,35.09375 C 246.885,35.09375 247.6875,37.384999 247.6875,39.875 L 247.6875,58.6875 L 256.1875,58.6875 L 256.1875,39.5 C 256.1875,33.145 254.38501,27.906249 248.3125,27.90625 z M 352.34375,27.90625 C 349.365,27.90625 345.95124,29.347501 344.15625,31.96875 L 343.6875,28.40625 L 336.5,28.40625 C 336.62375,31.46 336.71874,34.762502 336.71875,37.875 L 336.71875,58.6875 L 345.21875,58.6875 L 345.21875,40.4375 C 345.21875,39.00375 345.4725,37.872499 345.78125,37.1875 C 346.46625,35.75375 347.44874,35.09375 348.6875,35.09375 C 350.91875,35.09375 351.71874,37.384999 351.71875,39.875 L 351.71875,58.6875 L 360.21875,58.6875 L 360.21875,39.5 C 360.21875,33.145 358.41749,27.906249 352.34375,27.90625 z M 156.75,28.03125 C 148.25875,28.03125 142.5,34.28125 142.5,43.9375 C 142.5,53.78125 147.50375,59.062502 155.375,59.0625 C 157.36,59.0625 159.10249,58.685002 160.03125,58.4375 L 159.46875,51.90625 C 158.7875,52.09125 157.99125,52.21875 157.125,52.21875 C 153.28,52.21875 150.875,48.916249 150.875,43.5625 C 150.875,38.015 153.4675,34.906248 157.3125,34.90625 C 158.30375,34.90625 159.03876,35.032501 159.71875,35.21875 L 160.65625,28.59375 C 159.79,28.34375 158.3625,28.03125 156.75,28.03125 z M 77.15625,28.40625 L 77.15625,46.53125 C 77.15625,54.81625 79.325002,59.187499 85.03125,59.1875 C 87.94375,59.1875 91.169998,57.776248 92.90625,55.40625 L 93.40625,58.6875 L 100.59375,58.6875 C 100.47,55.63625 100.34375,52.329999 100.34375,49.21875 L 100.34375,28.40625 L 91.84375,28.40625 L 91.84375,47.65625 C 91.84375,48.84 91.528751,49.908751 91.21875,50.53125 C 90.6625,51.6525 89.7375,52.093749 88.8125,52.09375 C 86.8275,52.09375 85.65625,49.737501 85.65625,45.5625 L 85.65625,28.40625 L 77.15625,28.40625 z M 308.28125,28.40625 L 308.28125,47.59375 C 308.28125,53.9525 310.07875,59.187499 316.15625,59.1875 C 319.13,59.1875 322.54501,57.77375 324.34375,55.15625 L 324.84375,58.6875 L 332.03125,58.6875 C 331.9075,55.63625 331.78126,52.329999 331.78125,49.21875 L 331.78125,28.40625 L 323.28125,28.40625 L 323.28125,46.65625 C 323.28125,48.0875 323.02875,49.222499 322.71875,49.90625 C 322.03875,51.34 321.05375,52.031251 319.8125,52.03125 C 317.58125,52.03125 316.78126,49.711252 316.78125,47.21875 L 316.78125,28.40625 L 308.28125,28.40625 z M 61.96875,33.78125 C 64.695,33.78125 65.499998,37.388749 65.5,41.3125 L 58.125,41.3125 C 58.125,37.76 59.302502,33.781249 61.96875,33.78125 z M 272.40625,35.09375 C 274.01625,35.09375 274.84626,36.505 275.21875,38.125 C 275.3425,38.7475 275.34376,39.3775 275.34375,40 L 275.34375,48.21875 C 275.34375,49.15 275.22001,49.78 274.96875,50.34375 C 274.47625,51.77875 273.45874,52.28125 272.40625,52.28125 C 270.54625,52.28125 268.56249,50.044998 268.5625,43.875 C 268.5625,38.8925 269.86499,35.09375 272.40625,35.09375 z M 219.25,43.8125 L 219.25,49.46875 C 219.25,50.02875 219.185,50.656249 219,50.96875 C 218.3775,52.58875 216.805,53.218749 215.625,53.21875 C 214.38625,53.21875 212.46876,52.0225 212.46875,48.90625 C 212.46875,45.23 215.59375,43.873751 219.25,43.8125 z"
     id="Text"
     style="fill:#ffffff;fill-opacity:1;fill-rule:nonzero;stroke:none" /></svg>