<?xml version="1.0" encoding="UTF-8" standalone="no"?>
<!-- Created with Inkscape (http://www.inkscape.org/) -->
<svg
   xmlns:svg="http://www.w3.org/2000/svg"
   xmlns="http://www.w3.org/2000/svg"
   version="1.0"
   width="544.00006"
   height="544"
   id="svg2">
  <defs
     id="defs4" />
  <g
     transform="translate(-6.4712476,3.0971002)"
     id="layer1">
    <g
       transform="matrix(0.8880597,0,0,0.8880597,0.7243933,-0.3466903)"
       id="g3208">
      <path
         d="M 6.4712477,-3.0971002 L 619.04273,-3.0971002 L 619.04273,609.47435 L 6.4712477,609.47435 L 6.4712477,-3.0971002 z"
         id="path17042"
         style="fill:#000000;fill-opacity:1;fill-rule:nonzero;stroke:none" />
      <g
         transform="matrix(34.669279,0,0,-34.669276,312.75001,137.48351)"
         id="g17052">
        <path
           d="M 0,0 C -1.891,0 -3.424,-1.533 -3.424,-3.425 C -3.424,-5.316 -1.891,-6.849 0,-6.849 C 1.891,-6.849 3.424,-5.316 3.424,-3.425 C 3.424,-1.533 1.891,0 0,0"
           id="path17054"
           style="fill:#ffffff;fill-opacity:1;fill-rule:nonzero;stroke:none" />
      </g>
      <g
         transform="matrix(34.669279,0,0,-34.669276,207.7853,422.93993)"
         id="g17056">
        <path
           d="M 0,0 L -0.005,0 L -0.005,-0.757 C -0.005,-0.85 -0.038,-0.935 -0.098,-0.996 C -0.155,-1.056 -0.232,-1.089 -0.314,-1.089 C -0.396,-1.089 -0.473,-1.056 -0.53,-0.996 C -0.59,-0.935 -0.622,-0.85 -0.622,-0.757 L -0.622,0 L -0.869,0 L -0.869,-0.757 C -0.869,-0.922 -0.815,-1.065 -0.711,-1.169 C -0.61,-1.27 -0.469,-1.325 -0.314,-1.325 C -0.159,-1.325 -0.018,-1.27 0.083,-1.169 C 0.187,-1.065 0.242,-0.922 0.242,-0.757 L 0.242,0 L 0.237,0"
           id="path17058"
           style="fill:#ffffff;fill-opacity:1;fill-rule:nonzero;stroke:none" />
      </g>
      <g
         transform="matrix(34.669279,0,0,-34.669276,280.39317,456.46858)"
         id="g17060">
        <path
           d="M 0,0 C -0.075,-0.079 -0.181,-0.122 -0.298,-0.122 C -0.416,-0.122 -0.522,-0.079 -0.597,0 C -0.673,0.079 -0.714,0.192 -0.714,0.317 C -0.714,0.442 -0.673,0.556 -0.597,0.635 C -0.522,0.714 -0.416,0.757 -0.298,0.757 C -0.181,0.757 -0.075,0.714 0,0.635 C 0.076,0.556 0.117,0.442 0.117,0.317 C 0.117,0.192 0.076,0.079 0,0 M 0.173,0.806 C 0.048,0.927 -0.121,0.994 -0.298,0.994 C -0.477,0.994 -0.645,0.927 -0.77,0.806 C -0.901,0.68 -0.972,0.507 -0.972,0.317 C -0.972,0.128 -0.901,-0.045 -0.77,-0.171 C -0.645,-0.292 -0.477,-0.358 -0.298,-0.358 C -0.121,-0.358 0.048,-0.292 0.173,-0.171 C 0.304,-0.045 0.375,0.128 0.375,0.317 C 0.375,0.507 0.304,0.68 0.173,0.806"
           id="path17062"
           style="fill:#ffffff;fill-opacity:1;fill-rule:nonzero;stroke:none" />
      </g>
      <g
         transform="matrix(34.669279,0,0,-34.669276,319.16729,422.00733)"
         id="g17064">
        <path
           d="M 0,0 C -0.155,0 -0.296,-0.055 -0.397,-0.157 C -0.5,-0.261 -0.556,-0.404 -0.556,-0.569 L -0.556,-1.326 L -0.309,-1.326 L -0.309,-0.569 C -0.309,-0.476 -0.276,-0.391 -0.217,-0.329 C -0.159,-0.269 -0.082,-0.237 0,-0.237 C 0.082,-0.237 0.159,-0.269 0.216,-0.329 C 0.276,-0.391 0.309,-0.476 0.309,-0.569 L 0.309,-1.326 L 0.556,-1.326 L 0.556,-0.569 C 0.556,-0.404 0.501,-0.261 0.397,-0.157 C 0.296,-0.055 0.155,0 0,0"
           id="path17066"
           style="fill:#ffffff;fill-opacity:1;fill-rule:nonzero;stroke:none" />
      </g>
      <g
         transform="matrix(34.669279,0,0,-34.669276,447.51643,422.93993)"
         id="g17068">
        <path
           d="M 0,0 L -0.005,0 L -0.005,-0.827 C -0.005,-0.986 -0.094,-1.089 -0.231,-1.089 C -0.395,-1.089 -0.478,-0.988 -0.478,-0.789 L -0.478,0 L -0.725,0 L -0.725,-0.789 C -0.725,-0.988 -0.808,-1.089 -0.972,-1.089 C -1.109,-1.089 -1.197,-0.986 -1.197,-0.827 L -1.197,0 L -1.444,0 L -1.444,-0.88 C -1.444,-1.13 -1.239,-1.325 -0.977,-1.325 C -0.819,-1.325 -0.683,-1.26 -0.601,-1.147 C -0.519,-1.26 -0.383,-1.325 -0.225,-1.325 C 0.036,-1.325 0.242,-1.13 0.242,-0.88 L 0.242,0 L 0.237,0"
           id="path17070"
           style="fill:#ffffff;fill-opacity:1;fill-rule:nonzero;stroke:none" />
      </g>
      <g
         transform="matrix(34.669279,0,0,-34.669276,482.0401,440.7114)"
         id="g17072">
        <path
           d="M 0,0 C -0.158,0.044 -0.294,0.082 -0.294,0.169 C -0.289,0.242 -0.265,0.277 -0.146,0.277 L 0.455,0.277 L 0.455,0.513 L -0.106,0.513 C -0.393,0.513 -0.552,0.387 -0.552,0.158 C -0.552,0.042 -0.497,-0.049 -0.384,-0.119 C -0.287,-0.179 -0.159,-0.216 -0.046,-0.249 C 0.119,-0.296 0.262,-0.337 0.262,-0.432 C 0.262,-0.514 0.216,-0.55 0.114,-0.55 L -0.552,-0.55 L -0.552,-0.787 L 0.114,-0.787 C 0.232,-0.787 0.332,-0.756 0.403,-0.697 C 0.479,-0.634 0.52,-0.538 0.52,-0.422 C 0.52,-0.145 0.232,-0.065 0,0"
           id="path17074"
           style="fill:#ffffff;fill-opacity:1;fill-rule:nonzero;stroke:none" />
      </g>
      <g
         transform="matrix(34.669279,0,0,-34.669276,223.62569,440.00761)"
         id="g17076">
        <path
           d="M 0,0 L 0,-0.796 L 0.23,-0.796 L 0.23,0 C 0.23,0.147 0.275,0.315 0.627,0.315 L 0.633,0.315 L 0.633,0.545 L 0.627,0.545 C 0.082,0.545 0,0.203 0,0"
           id="path17078"
           style="fill:#ffffff;fill-opacity:1;fill-rule:nonzero;stroke:none" />
      </g>
      <g
         transform="matrix(34.669279,0,0,-34.669276,162.68056,452.232)"
         id="g17080">
        <path
           d="M 0,0 L -0.005,0.002 L -0.007,-0.003 C -0.043,-0.07 -0.096,-0.129 -0.163,-0.171 C -0.371,-0.303 -0.648,-0.24 -0.779,-0.032 C -0.843,0.068 -0.864,0.188 -0.837,0.304 C -0.811,0.421 -0.741,0.52 -0.641,0.584 C -0.492,0.677 -0.303,0.675 -0.157,0.579 L -0.551,0.255 L -0.556,0.252 L -0.552,0.248 L -0.417,0.08 L -0.414,0.075 L -0.41,0.079 L 0.169,0.554 L 0.172,0.557 L 0.17,0.561 L 0.166,0.566 C 0.07,0.717 -0.079,0.822 -0.255,0.861 C -0.43,0.901 -0.61,0.87 -0.761,0.774 C -0.912,0.679 -1.018,0.53 -1.057,0.355 C -1.097,0.179 -1.066,-0.001 -0.97,-0.153 C -0.772,-0.466 -0.356,-0.56 -0.043,-0.362 C 0.056,-0.299 0.137,-0.212 0.192,-0.108 L 0.195,-0.103 L 0.19,-0.1"
           id="path17082"
           style="fill:#ffffff;fill-opacity:1;fill-rule:nonzero;stroke:none" />
      </g>
      <g
         transform="matrix(34.669279,0,0,-34.669276,381.92215,452.232)"
         id="g17084">
        <path
           d="M 0,0 L -0.005,0.002 L -0.008,-0.003 C -0.043,-0.07 -0.097,-0.129 -0.163,-0.171 C -0.371,-0.303 -0.648,-0.24 -0.78,-0.032 C -0.843,0.068 -0.864,0.188 -0.838,0.305 C -0.811,0.421 -0.741,0.52 -0.641,0.584 C -0.493,0.677 -0.304,0.675 -0.157,0.579 L -0.552,0.255 L -0.556,0.252 L -0.552,0.248 L -0.417,0.08 L -0.414,0.075 L -0.409,0.079 L 0.168,0.554 L 0.173,0.557 L 0.169,0.561 L 0.166,0.566 L 0.166,0.566 C -0.032,0.879 -0.448,0.972 -0.761,0.774 C -0.913,0.679 -1.018,0.53 -1.057,0.355 C -1.097,0.179 -1.066,-0.001 -0.971,-0.153 C -0.772,-0.466 -0.356,-0.56 -0.043,-0.362 C 0.056,-0.299 0.137,-0.212 0.192,-0.108 L 0.195,-0.103 L 0.19,-0.1"
           id="path17086"
           style="fill:#ffffff;fill-opacity:1;fill-rule:nonzero;stroke:none" />
      </g>
    </g>
  </g>
</svg>
