<?xml version="1.0" encoding="UTF-8" standalone="no"?>
<!-- Created with Inkscape (http://www.inkscape.org/) -->

<svg
   xmlns:dc="http://purl.org/dc/elements/1.1/"
   xmlns:cc="http://creativecommons.org/ns#"
   xmlns:rdf="http://www.w3.org/1999/02/22-rdf-syntax-ns#"
   xmlns:svg="http://www.w3.org/2000/svg"
   xmlns="http://www.w3.org/2000/svg"
   version="1.1"
   width="706.5"
   height="62.939999"
   id="svg2">
  <metadata
     id="metadata8">
    <rdf:RDF>
      <cc:Work
         rdf:about="">
        <dc:format>image/svg+xml</dc:format>
        <dc:type
           rdf:resource="http://purl.org/dc/dcmitype/StillImage" />
        <dc:title></dc:title>
      </cc:Work>
    </rdf:RDF>
  </metadata>
  <defs
     id="defs6" />
  <g
     transform="matrix(1.5723804,0,0,1.572378,511.35661,-943.18184)"
     id="g3909"
     style="fill:#171f50;fill-opacity:1">
    <path
       d="m 105.9857,599.84404 0,20.62868 7.57942,0 c 1.98922,3e-5 3.83901,-0.0798 6.26212,-1.58462 2.42312,-1.50478 4.27974,-4.63416 4.27974,-8.7154 0,-4.08126 -1.85653,-7.20772 -4.27974,-8.71222 -2.42321,-1.5045 -4.27321,-1.61644 -6.26212,-1.61644 z m 4.27973,4.25429 3.29969,0 c 1.49254,0 2.74752,-0.0946 3.98065,0.93868 1.40859,1.18036 2.01994,3.29806 1.99827,5.13569 -0.0219,1.85517 -0.70891,3.95991 -2.14145,5.13887 -1.20673,0.99311 -2.34498,0.93868 -3.83747,0.93868 l -3.29969,0 z"
       id="path3773"
       style="font-size:medium;font-style:normal;font-variant:normal;font-weight:normal;font-stretch:normal;text-indent:0;text-align:start;text-decoration:none;line-height:normal;letter-spacing:normal;word-spacing:normal;text-transform:none;direction:ltr;block-progression:tb;writing-mode:lr-tb;text-anchor:start;baseline-shift:baseline;color:#000000;fill:#171f50;fill-opacity:1;stroke:none;stroke-width:4.30000019;marker:none;visibility:visible;display:inline;overflow:visible;enable-background:accumulate;font-family:Sans;-inkscape-font-specification:Sans" />
    <path
       d="m 85.526757,599.85304 0,20.62078 4.28125,0 0,-8.15203 7.569663,0 0,8.15203 4.28121,-3.8e-4 0,-20.62085 -4.28121,3.8e-4 0,8.18757 -7.569663,0 0,-8.1875 z"
       id="rect3853"
       style="color:#000000;fill:#171f50;fill-opacity:1;fill-rule:nonzero;stroke:none;stroke-width:4.5;marker:none;visibility:visible;display:inline;overflow:visible;enable-background:accumulate" />
  </g>
  <g
     transform="matrix(0.95405321,0,0,0.95405321,-1.5145217,-0.0275128)"
     id="g3044">
    <path
       d="m 591.92507,0.0284604 62.99537,0 0,65.9715406 -62.99537,0 z"
       id="path3000"
       style="fill:#d30132;fill-opacity:1;fill-rule:evenodd;stroke:none" />
    <path
       d="m 613.25,9.4375 0,9.59375 7.625,0 0,36.5625 9.90625,0 0,-36.5625 0,-9.59375 -9.90625,0 -7.625,0 z"
       id="rect2995"
       style="fill:#ffffff;fill-opacity:1;fill-rule:evenodd;stroke:none" />
    <path
       d="M 57.894605,64.201106 36.544813,50.375029 3.6989787,64.201106 23.171866,41.848949 1.5874608,28.022872 H 35.137134 L 57.894605,1.7533264 V 28.022872 H 90.271213 L 57.894605,41.618514 z"
       id="XMLID_193_"
       style="fill:#171f50;fill-opacity:1" />
    <path
       d="m 98.248058,14.657665 c 1.173066,0 2.111522,-0.921739 2.111522,-2.073912 V 3.8272379 c 0,-1.1521731 -0.938456,-2.0739115 -2.111522,-2.0739115 H 63.290706 V 14.657665 h 34.957352 z"
       id="XMLID_192_"
       style="fill:#171f50;fill-opacity:1" />
    <path
       d="m 98.248058,64.201106 c 1.173066,0 2.111522,-0.921739 2.111522,-2.073912 v -8.756515 c 0,-1.152173 -0.938456,-2.073911 -2.111522,-2.073911 H 63.290706 v 12.904338 h 34.957352 z"
       id="XMLID_191_"
       style="fill:#171f50;fill-opacity:1" />
    <path
       d="m 565.59735,1.7533264 h -43.40342 c -1.17307,0 -2.11152,0.9217384 -2.11152,2.0739115 v 8.7565151 c 0,1.152173 0.93845,2.073912 2.11152,2.073912 h 15.24985 v 47.699964 c 0,1.152173 0.93845,2.073911 2.11152,2.073911 h 8.9153 c 1.17306,0 2.11151,-0.921738 2.11151,-2.073911 V 14.657665 h 15.24986 c 1.17306,0 2.11151,-0.921739 2.11151,-2.073912 V 3.8272379 c -0.23461,-1.1521731 -1.17306,-2.0739115 -2.34613,-2.0739115 z"
       id="XMLID_190_"
       style="fill:#171f50;fill-opacity:1" />
    <path
       d="m 392.21827,15.809838 c -0.93845,-2.765216 -2.58074,-5.299996 -4.69226,-7.3739079 -2.11152,-2.0739115 -4.45765,-3.6869538 -7.27301,-4.8391268 -2.81535,-1.1521731 -6.09994,-1.8434769 -9.61913,-1.8434769 h -23.69593 c -1.17306,0 -2.11151,0.9217384 -2.11151,2.0739115 V 62.357629 c 0,1.152173 0.93845,2.073911 2.11151,2.073911 h 8.9153 c 1.17307,0 2.11152,-0.921738 2.11152,-2.073911 v -14.97825 h 12.66911 c 3.51919,0 6.80378,-0.691304 9.61913,-1.843477 2.81536,-1.152173 5.16149,-2.765215 7.27301,-4.839127 2.11152,-2.073911 3.5192,-4.378257 4.69226,-7.143472 0.93845,-2.765216 1.64229,-5.9913 1.64229,-8.98695 -0.23461,-3.226085 -0.70384,-5.9913 -1.64229,-8.756515 z m -12.43449,12.673903 c -0.46923,1.152173 -1.17307,2.304346 -1.87691,3.226085 -0.93845,0.921738 -1.8769,1.382607 -2.81535,1.843477 -1.17307,0.460869 -3.04997,0.691303 -7.0384,0.691303 H 357.96476 V 14.657665 h 13.13833 c 1.40768,0 2.81536,0.230434 3.75381,0.691303 1.17307,0.46087 2.11152,1.152173 3.04997,2.073912 0.70384,0.921738 1.40768,1.843477 1.87691,2.99565 0.46922,1.152173 0.70384,2.534781 0.70384,4.147823 0,1.382607 -0.23462,2.765215 -0.70384,3.917388 z"
       id="XMLID_187_"
       style="fill:#171f50;fill-opacity:1" />
    <path
       d="m 303.06529,19.727226 c 0,1.382608 0.23462,2.073911 0.70384,2.765215 0.46923,0.691304 1.40768,1.382608 2.34613,2.073912 1.17307,0.460869 2.34614,0.921738 3.98843,1.382607 1.64229,0.46087 3.28458,0.691304 4.92687,0.921739 3.04997,0.460869 6.09994,1.152173 8.9153,1.843477 3.04997,0.691304 5.63071,1.843477 7.97685,3.226084 2.34613,1.382608 4.22303,3.456519 5.3961,5.760866 1.40768,2.53478 1.8769,5.53043 1.8769,9.217384 -0.23461,3.456519 -1.17306,6.682604 -2.81536,8.98695 -1.64229,2.304346 -3.75381,4.378257 -6.33455,5.760865 -2.58074,1.382608 -4.92687,2.534781 -7.97684,2.99565 -3.04997,0.460869 -6.33456,0.691304 -9.14992,0.691304 -7.273,-0.230435 -17.83059,-4.378258 -23.22669,-11.521731 -0.46923,-0.691304 -0.93845,-1.613042 0.23461,-2.765215 1.17307,-1.152173 6.56917,-6.682604 6.56917,-6.682604 1.17306,-1.152173 2.11152,-0.230434 2.58074,0.230435 3.04997,4.608692 9.38453,7.834777 14.3114,8.065211 2.58074,0 2.81536,0 4.45765,-0.230434 1.40768,-0.230435 2.81536,-0.46087 3.98842,-1.152173 1.17307,-0.46087 2.11152,-1.152173 2.81536,-2.073912 0.70384,-0.921738 1.17307,-2.073911 1.17307,-3.456519 0,-1.382608 -0.23462,-2.534781 -0.93846,-3.226085 -0.70384,-0.921738 -1.64229,-1.613042 -2.81535,-2.304346 -1.17307,-0.691304 -2.81536,-1.152173 -4.45765,-1.382607 -1.6423,-0.230435 -3.5192,-0.691304 -5.16149,-0.921739 -2.81536,-0.460869 -5.63072,-0.921738 -8.21146,-1.613042 -2.81536,-0.691304 -5.16149,-1.843477 -7.27301,-3.226085 -2.11151,-1.382607 -3.98842,-3.226084 -5.16148,-5.53043 -1.40768,-2.304346 -1.87691,-4.839127 -1.87691,-8.295646 0.23461,-3.226085 0.93845,-6.221735 2.58074,-8.756515 1.40768,-2.3043465 3.5192,-4.378258 5.86533,-5.9913003 2.34613,-1.3826076 4.92688,-2.5347807 7.97685,-3.2260845 5.63071,-1.38260768 11.49604,-1.15217307 17.12675,0.6913038 6.09994,1.8434769 11.02682,6.4521691 13.37295,9.678254 0.46923,0.691303 0.93845,1.613042 0,2.53478 l -6.33455,6.221735 c -1.17307,1.152173 -2.34613,0.921738 -3.04997,-0.230435 -3.28459,-4.839127 -7.50762,-6.913038 -12.4345,-7.143473 -5.63071,0 -11.73065,1.152173 -11.96527,6.682604 z"
       id="XMLID_186_"
       style="fill:#171f50;fill-opacity:1" />
    <path
       d="M 275.85017,9.3576685 C 272.8002,6.5924532 269.51562,4.5185417 265.5272,3.1359341 261.53878,1.7533264 257.55035,1.0620226 253.0927,1.0620226 c -4.22303,0 -8.44607,0.6913038 -12.19988,2.0739115 -3.98842,1.3826076 -7.50762,3.4565191 -10.32297,6.2217344 -3.04997,2.7652155 -5.3961,6.2217345 -7.0384,10.1391225 -1.64229,3.917389 -2.58074,8.526081 -2.58074,13.595642 0,5.069562 0.93845,9.678254 2.58074,13.595642 1.6423,3.917389 3.98843,7.373908 7.0384,10.139123 3.04997,2.765216 6.33455,4.839127 10.32297,6.221735 3.98843,1.382607 7.97685,2.073911 12.4345,2.073911 4.69226,0 9.14991,-0.691304 13.13833,-2.304346 3.98842,-1.613042 7.50762,-3.686954 10.32298,-6.682604 2.81535,-2.765215 5.16149,-6.221734 6.80378,-10.139122 1.64229,-3.917389 2.34613,-8.295646 2.34613,-13.134773 0,-5.069562 -0.93845,-9.678254 -2.58075,-13.595642 -2.11151,-3.686954 -4.69226,-7.143473 -7.50762,-9.9086885 z m -5.16148,32.4912805 c -0.93846,2.304346 -2.34613,4.378257 -3.98843,5.991299 -1.64229,1.613043 -3.75381,2.765216 -6.09994,3.686954 -2.34613,0.921739 -4.69226,1.152173 -7.50762,1.152173 -2.58074,0 -5.16148,-0.460869 -7.50762,-1.152173 -2.34613,-0.921738 -4.22303,-2.073911 -5.86532,-3.686954 -1.64229,-1.613042 -3.04997,-3.686953 -3.98843,-5.991299 -0.93845,-2.534781 -1.64229,-5.299996 -1.64229,-8.526081 0,-3.226085 0.46923,-6.221734 1.64229,-8.526081 0.93846,-2.53478 2.34614,-4.378257 3.98843,-5.991299 1.64229,-1.613043 3.75381,-2.765216 6.09994,-3.686954 2.34613,-0.921739 4.92687,-1.382608 7.50762,-1.382608 2.58074,0 5.16149,0.460869 7.50762,1.382608 2.34613,0.921738 4.22303,2.073911 5.86532,3.686954 1.6423,1.613042 3.04997,3.686953 3.98843,6.221734 0.93845,2.534781 1.64229,5.299996 1.64229,8.526081 -0.23461,2.765215 -0.70384,5.760865 -1.64229,8.295646 z"
       id="XMLID_183_"
       style="fill:#171f50;fill-opacity:1" />
    <path
       d="M 453.21768,9.3576685 C 450.16771,6.5924532 446.88312,4.5185417 442.8947,3.1359341 438.90628,1.7533264 434.91786,1.0620226 430.46021,1.0620226 c -4.22304,0 -8.44607,0.6913038 -12.19988,2.0739115 -3.98843,1.3826076 -7.50762,3.4565191 -10.32298,6.2217344 -3.04997,2.7652155 -5.3961,6.2217345 -7.03839,10.1391225 -1.64229,3.917389 -2.58075,8.526081 -2.58075,13.595642 0,5.069562 0.93846,9.678254 2.58075,13.595642 1.64229,3.917389 3.98842,7.373908 7.03839,10.139123 3.04997,2.765216 6.33455,4.839127 10.32298,6.221735 3.98842,1.382607 7.97684,2.073911 12.43449,2.073911 4.69226,0 9.14991,-0.691304 13.13833,-2.304346 3.98843,-1.613042 7.50762,-3.686954 10.32298,-6.682604 2.81536,-2.765215 5.16149,-6.221734 6.80378,-10.139122 1.64229,-3.917389 2.34613,-8.295646 2.34613,-13.134773 0,-5.069562 -0.93845,-9.678254 -2.58074,-13.595642 -2.11152,-3.686954 -4.45765,-7.143473 -7.50762,-9.9086885 z m -5.16149,32.4912805 c -0.93845,2.304346 -2.34613,4.378257 -3.98842,5.991299 -1.64229,1.613043 -3.75381,2.765216 -6.09994,3.686954 -2.34613,0.921739 -4.69227,1.152173 -7.50762,1.152173 -2.58075,0 -5.16149,-0.460869 -7.50762,-1.152173 -2.34613,-0.921738 -4.22304,-2.073911 -5.86533,-3.686954 -1.64229,-1.613042 -3.04997,-3.686953 -3.98842,-5.991299 -0.93845,-2.534781 -1.64229,-5.299996 -1.64229,-8.526081 0,-3.226085 0.46922,-6.221734 1.64229,-8.526081 0.93845,-2.53478 2.34613,-4.378257 3.98842,-5.991299 1.64229,-1.613043 3.75381,-2.765216 6.09994,-3.686954 2.34613,-0.921739 4.92688,-1.382608 7.50762,-1.382608 2.58074,0 5.16149,0.460869 7.50762,1.382608 2.34613,0.921738 4.22304,2.073911 5.86533,3.686954 1.64229,1.613042 3.04997,3.686953 3.98842,6.221734 0.93845,2.534781 1.64229,5.299996 1.64229,8.526081 0,2.765215 -0.70384,5.760865 -1.64229,8.295646 z"
       id="XMLID_180_"
       style="fill:#171f50;fill-opacity:1" />
    <path
       d="m 155.49365,1.7533264 h -8.91529 c -1.17307,0 -2.11152,0.9217384 -2.11152,2.0739115 V 42.540252 c 0,1.613043 -0.23461,2.99565 -0.93845,4.378258 -0.46923,1.152173 -1.40768,2.304346 -2.34613,2.99565 -0.93846,0.921738 -2.11152,1.382608 -3.5192,1.843477 -1.40768,0.460869 -3.75381,0.691304 -5.3961,0.691304 -1.64229,0 -4.22304,-0.230435 -5.63072,-0.691304 -1.40768,-0.460869 -2.58074,-1.152173 -3.51919,-1.843477 -0.93846,-0.691304 -1.6423,-1.843477 -2.34613,-2.99565 -0.46923,-1.152173 -0.93846,-2.765215 -0.93846,-4.378258 V 3.8272379 c 0,-1.1521731 -0.93845,-2.0739115 -2.11151,-2.0739115 h -8.9153 c -1.17307,0 -2.11152,0.9217384 -2.11152,2.0739115 V 42.770687 c 0,3.686954 0.70384,6.913038 2.11152,9.678254 1.40768,2.765215 3.28458,5.069561 5.63071,7.143473 2.34613,1.843476 5.16149,3.456519 8.21146,4.378257 3.04997,0.921739 6.33455,1.382608 9.61914,1.382608 3.28458,0 6.56916,-0.460869 9.61913,-1.382608 3.04997,-0.921738 5.86533,-2.534781 7.97685,-4.378257 2.34613,-1.843477 4.22304,-4.378258 5.3961,-7.143473 1.40768,-2.765216 2.11152,-5.9913 2.11152,-9.678254 V 3.8272379 c 0.23461,-1.1521731 -0.70384,-2.0739115 -1.87691,-2.0739115 z"
       id="XMLID_179_"
       style="fill:#171f50;fill-opacity:1" />
    <path
       d="M 218.36997,60.975021 203.82395,43.231556 c 0,0 11.73066,-4.147823 11.73066,-18.895638 0,-2.99565 -0.46923,-5.9913 -1.64229,-8.756515 -0.93846,-2.765215 -2.58075,-5.299996 -4.69227,-7.3739075 -2.11151,-2.0739115 -4.45764,-3.6869538 -7.273,-4.8391268 -2.81536,-1.1521731 -6.09994,-1.8434769 -9.61914,-1.8434769 H 168.8666 c -1.17306,0 -2.11152,0.9217384 -2.11152,2.0739115 V 62.127194 c 0,1.152173 0.93846,2.073912 2.11152,2.073912 h 8.9153 c 1.17306,0 2.11152,-0.921739 2.11152,-2.073912 V 14.657665 h 13.13833 c 1.40768,0 2.81536,0.230434 3.75381,0.691303 1.17307,0.46087 2.11152,1.152173 3.04997,2.073912 0.70384,0.921738 1.40768,1.843477 1.87691,2.99565 0.46922,1.152173 0.70383,2.534781 0.70383,4.147823 0,1.382607 -0.23461,2.765215 -0.70383,3.917388 -0.46923,1.152173 -1.17307,2.304346 -1.87691,3.226085 -0.93845,0.921738 -1.8769,1.382607 -2.81536,1.843477 -1.17306,0.460869 -3.04997,0.691303 -7.03839,0.691303 h -5.63071 c 0,0 -1.87691,0.921739 -1.17307,2.304347 l 20.64595,26.730414 c 0.46923,0.460869 0.93846,0.921739 1.64229,0.921739 h 11.49605 c 1.8769,0.230434 3.04997,-1.382608 1.40768,-3.226085 z"
       id="XMLID_177_"
       style="fill:#171f50;fill-opacity:1" />
    <path
       d="M 520.78625,60.975021 506.24024,43.231556 c 0,0 11.73065,-4.147823 11.73065,-18.895638 0,-2.99565 -0.46922,-5.9913 -1.64229,-8.756515 -0.93845,-2.765215 -2.58074,-5.299996 -4.69226,-7.3739075 -2.11152,-2.0739115 -4.45765,-3.6869538 -7.27301,-4.8391268 -2.81535,-1.1521731 -6.09994,-1.8434769 -9.61913,-1.8434769 h -23.69593 c -1.17306,0 -2.11151,0.9217384 -2.11151,2.0739115 V 62.127194 c 0,1.152173 0.93845,2.073912 2.11151,2.073912 h 8.9153 c 1.17307,0 2.11152,-0.921739 2.11152,-2.073912 V 14.42723 h 13.13833 c 1.40768,0 2.81536,0.230435 3.75381,0.691304 1.17307,0.460869 2.11152,1.152173 3.04997,2.073911 0.70384,0.921739 1.40768,1.843477 1.87691,2.99565 0.46922,1.152173 0.70384,2.534781 0.70384,4.147823 0,1.382608 -0.23462,2.765216 -0.70384,3.917389 -0.46923,1.152173 -1.17307,2.304346 -1.87691,3.226084 -0.93845,0.921739 -1.8769,1.382608 -2.81535,1.843477 -1.17307,0.460869 -3.04997,0.691304 -7.0384,0.691304 h -5.63071 c -1.17307,0 -1.87691,0.921738 -1.17307,2.304346 l 20.64596,26.730415 c 0.46922,0.460869 0.93845,0.921738 1.64229,0.921738 h 11.49604 c 2.11152,0.460869 3.04997,-1.152173 1.64229,-2.99565 z"
       id="XMLID_175_"
       style="fill:#171f50;fill-opacity:1" />
  </g>
</svg>
