<?xml version="1.0" encoding="UTF-8" standalone="no"?>
<!-- Created with Inkscape (http://www.inkscape.org/) -->

<svg
   xmlns:dc="http://purl.org/dc/elements/1.1/"
   xmlns:cc="http://creativecommons.org/ns#"
   xmlns:rdf="http://www.w3.org/1999/02/22-rdf-syntax-ns#"
   xmlns:svg="http://www.w3.org/2000/svg"
   xmlns="http://www.w3.org/2000/svg"
   xmlns:sodipodi="http://sodipodi.sourceforge.net/DTD/sodipodi-0.dtd"
   xmlns:inkscape="http://www.inkscape.org/namespaces/inkscape"
   version="1.1"
   width="773.73999"
   height="168.89999"
   id="svg2"
   inkscape:version="0.48.2 r9819"
   sodipodi:docname="AJAX1.svg">
  <sodipodi:namedview
     pagecolor="#ffffff"
     bordercolor="#666666"
     borderopacity="1"
     objecttolerance="10"
     gridtolerance="10"
     guidetolerance="10"
     inkscape:pageopacity="0"
     inkscape:pageshadow="2"
     inkscape:window-width="1280"
     inkscape:window-height="1004"
     id="namedview12"
     showgrid="false"
     fit-margin-top="0"
     fit-margin-left="0"
     fit-margin-right="0"
     fit-margin-bottom="0"
     inkscape:zoom="0.805"
     inkscape:cx="304.94185"
     inkscape:cy="14.48698"
     inkscape:window-x="-8"
     inkscape:window-y="-8"
     inkscape:window-maximized="1"
     inkscape:current-layer="svg2" />
  <defs
     id="defs4" />
  <metadata
     id="metadata7">
    <rdf:RDF>
      <cc:Work
         rdf:about="">
        <dc:format>image/svg+xml</dc:format>
        <dc:type
           rdf:resource="http://purl.org/dc/dcmitype/StillImage" />
        <dc:title />
      </cc:Work>
    </rdf:RDF>
  </metadata>
  <g
     transform="translate(-15.66,-872.79999)"
     id="layer1">
    <path
       d="m 15.66,877.1 0,160.9 46.14,0 0,-51.2 44,0 0,-45.6 -44,0 0,-19.6 54.5,0 -3.1,-44.5 z"
       id="path3000"
       style="fill:#ffae00;fill-opacity:1;stroke:none"
       inkscape:connector-curvature="0" />
    <path
       d="m 189.7,877.5 c -43.9,0 -79.5,35.6 -79.5,79.5 0,44 35.6,80 79.5,80 43.9,0 79.4,-36 79.4,-80 0,-43.9 -35.5,-79.5 -79.4,-79.5 z m 0,34.6 c 6.5,0 11.7,5.2 11.7,11.7 l 0,66.5 c 0,6.5 -5.2,11.7 -11.7,11.7 -6.5,0 -11.8,-5.2 -11.8,-11.7 l 0,-66.5 c 0,-6.5 5.3,-11.7 11.8,-11.7 z"
       id="path3002"
       style="fill:#ffae00;fill-opacity:1;stroke:none"
       inkscape:connector-curvature="0" />
    <path
       d="m 243.3,877.1 44.3,77.4 -47.4,83.5 52.2,0 21.3,-37 21.4,37 52.2,0 -47.4,-83.5 44.3,-77.4 -52.2,0 -18.3,31.9 -18.2,-31.9 -52.2,0 z"
       id="path3775"
       style="fill:#ffae00;fill-opacity:1;stroke:none"
       inkscape:connector-curvature="0" />
    <path
       d="m 553,904 c -1.5,0 -2.8,1.3 -2.8,2.8 l 0,104.2 c 0,2 1.3,3 2.8,3 l 16.2,0 c 1.5,0 2.8,-1 2.8,-3 l 0,-42.2 65.4,0 0,42.2 c 0,2 1.2,3 2.8,3 l 16.1,0 c 1.6,0 2.8,-1 2.8,-3 l 0,-104.2 c 0,-1.5 -1.2,-2.8 -2.8,-2.8 l -16.1,0 c -1.6,0 -2.8,1.3 -2.8,2.8 l 0,40.3 -65.4,0 0,-40.3 c 0,-1.5 -1.3,-2.8 -2.8,-2.8 l -16.2,0 z"
       id="rect3814"
       style="fill:#ffae00;fill-opacity:1;stroke:none"
       inkscape:connector-curvature="0" />
    <path
       d="m 677.2,904 c -1.9,0 -3.4,1.6 -3.4,3.5 l 0,102.5 c 0,2 1.5,4 3.4,4 l 24.4,0 9.7,0 17.4,0 c 33.6,0 60.7,-18.7 60.7,-41.6 l 0,-27 c 0,-22.8 -27.1,-41.4 -60.7,-41.4 l -17.4,0 -9.7,0 -24.4,0 z m 21.2,19.8 13.8,0 6.2,0 10.9,0 c 21.1,0 38.2,11.6 38.2,28.9 l 0,12 c 0,11.6 -7.4,28.5 -38.2,28.5 l -10.9,0 -6.2,0 -15.4,0 c -1.1,0 -1.9,-1.1 -1.9,-3.5 l -0.1,-62.5 c 0,-2.6 1,-3.4 3.6,-3.4 z"
       id="rect3850"
       style="fill:#ffae00;fill-opacity:1;stroke:none"
       inkscape:connector-curvature="0" />
    <rect
       width="19.219999"
       height="168.89999"
       rx="2.2219999"
       ry="2.3529999"
       x="462.20001"
       y="872.79999"
       id="rect3895"
       style="fill:#ffae00;fill-opacity:1;stroke:none" />
  </g>
</svg>
