<?xml version="1.0" encoding="UTF-8" standalone="no"?>
<!-- Created with Inkscape (http://www.inkscape.org/) -->
<svg
   xmlns:svg="http://www.w3.org/2000/svg"
   xmlns="http://www.w3.org/2000/svg"
   version="1.0"
   width="557.67474"
   height="259.42551"
   id="svg2">
  <defs
     id="defs4" />
  <g
     id="g3210">
    <path
       d="M 31.415345,71.74316 C 25.302181,71.74316 20.269175,76.83618 20.269175,83.03616 L 20.269175,120.24028 C 20.269175,126.44368 25.302181,131.55725 31.415345,131.55725 L 45.049637,131.55725 C 51.162887,131.55725 56.192554,126.44368 56.192554,120.24028 L 56.192554,83.03616 C 56.192554,76.83618 51.162887,71.74316 45.049637,71.74316 L 31.415345,71.74316 z M 76.488437,119.69836 C 76.488437,128.45726 73.25832,134.83102 67.338296,140.66373 C 72.54261,146.49557 74.33788,150.33524 74.33788,159.80899 C 74.33788,175.84742 62.111723,187.16781 46.136645,187.16781 L 31.047473,187.16781 C 18.493425,187.16781 8.06288,178.60325 3.94617,168.19634 C 3.23054,166.37367 4.12005,164.55443 6.26701,164.55443 L 21.89776,164.55443 L 24.780465,166.00897 L 26.034586,167.28629 C 27.469261,168.74168 28.897173,169.47366 32.127717,169.47366 L 43.812297,169.47366 C 50.079047,169.47366 54.222637,166.00897 54.222637,159.80899 L 54.222637,159.26365 C 54.222637,153.06367 50.079047,149.22486 43.986173,149.22486 L 28.897173,149.22486 C 12.92201,149.22486 0,135.91486 0,119.69836 L 0,83.60119 C 0,67.36243 12.92201,54.05244 28.897173,54.05244 L 47.390851,54.05244 C 63.369353,54.05244 76.488437,67.36243 76.488437,83.60119"
       id="path4210"
       style="fill:#666666;fill-opacity:1;fill-rule:nonzero;stroke:none" />
    <path
       d="M 130.36366,71.74316 C 124.24673,71.74316 119.04669,76.83618 119.04669,83.03616 L 119.04669,120.24028 C 119.04669,126.44368 124.24673,131.55725 130.36366,131.55725 L 143.64969,131.55725 C 149.93698,131.55725 154.97007,126.44368 154.97007,120.24028 L 154.97007,83.03616 C 154.97007,76.83618 149.93698,71.74316 143.64969,71.74316 L 130.36366,71.74316 z M 175.26253,119.69836 C 175.26253,135.91486 162.14345,149.22486 146.34216,149.22486 L 127.8484,149.22486 C 111.8699,149.22486 98.750812,135.91486 98.750812,119.69836 L 98.750812,83.60119 C 98.750812,67.36243 111.8699,54.05244 127.8484,54.05244 L 146.34216,54.05244 C 162.14345,54.05244 175.26253,67.36243 175.26253,83.60119"
       id="path4212"
       style="fill:#666666;fill-opacity:1;fill-rule:nonzero;stroke:none" />
    <path
       d="M 218.90463,55.89479 L 239.9128,55.89479 C 242.25341,55.89479 244.02899,57.71746 244.02899,60.07862 L 244.02899,69.382 C 244.02899,71.76286 242.25341,73.58552 239.9128,73.58552 L 218.90463,73.58552 L 218.90463,118.44159 C 218.90463,124.64156 223.9343,129.73801 230.04695,129.73801 L 239.9128,129.73801 C 242.25341,129.73801 244.02899,131.55725 244.02899,133.94152 L 244.02899,143.24148 C 244.02899,145.60607 242.25341,147.42873 239.9128,147.42873 L 227.70633,147.42873 C 211.72783,147.42873 198.78254,134.2891 198.60875,118.07346 L 198.60875,29.09758 C 198.60875,26.91107 200.58466,25.08498 202.75148,25.08498 L 214.76104,25.08498 C 217.10165,25.08498 218.90463,26.91107 218.90463,29.09758"
       id="path4214"
       style="fill:#e7e7e8;fill-opacity:1;fill-rule:nonzero;stroke:none" />
    <path
       d="M 310.11068,143.58992 C 309.2246,146.14799 307.59542,147.42873 304.90722,147.42873 L 291.79071,147.42873 C 289.10251,147.42873 287.12917,146.14799 286.41346,143.58992 L 259.29178,61.35594 C 258.2088,58.25595 260.72321,55.89479 263.60916,55.89479 L 273.6685,55.89479 C 276.35755,55.89479 278.15368,57.15242 278.87196,59.71049 L 298.2518,121.88916 L 317.65475,59.71049 C 318.37046,57.15242 320.34381,55.89479 323.032,55.89479 L 332.91754,55.89479 C 335.6066,55.89479 338.29565,58.06161 337.23493,61.35594"
       id="path4216"
       style="fill:#e7e7e8;fill-opacity:1;fill-rule:nonzero;stroke:none" />
    <path
       d="M 556.54723,0 L 356.44098,0 L 356.44098,147.9073 L 556.54723,147.9073 L 556.54723,0 z M 376.90722,129.15242 L 376.92777,19.21204 L 536.08441,19.21204 L 536.08441,129.12931"
       id="path4218"
       style="fill:#0397d7;fill-opacity:1;fill-rule:nonzero;stroke:none" />
    <path
       d="M 376.90722,18.99544 L 376.90722,128.93583 L 536.08441,128.93583 L 536.08441,18.99544 L 376.90722,18.99544 z"
       id="path4220"
       style="fill:#e7e7e8;fill-opacity:1;fill-rule:nonzero;stroke:none" />
    <path
       d="M 517.28672,76.18725 L 524.98147,59.42968 L 487.73711,41.80231 L 480.03894,58.54018"
       id="path4222"
       style="fill:#0397d7;fill-opacity:1;fill-rule:nonzero;stroke:none" />
    <path
       d="M 431.97245,58.54018 L 424.2777,41.78262 L 387.02991,59.42968 L 394.72552,76.16413"
       id="path4224"
       style="fill:#0397d7;fill-opacity:1;fill-rule:nonzero;stroke:none" />
    <path
       d="M 456.86395,133.59394 L 494.19477,115.96999 L 486.50003,99.27577 L 456.83997,113.25782 L 456.83997,113.28094 L 456.86395,113.28094 M 456.82028,133.57425 L 419.65982,115.96999 L 427.33745,99.27577 L 456.86395,113.23813"
       id="path4226"
       style="fill:#0397d7;fill-opacity:1;fill-rule:nonzero;stroke:none" />
    <path
       d="M 107.35903,201.84588 C 104.2385,201.84588 101.28919,204.38083 100.74727,207.48082 L 97.540268,225.9977 C 96.994923,229.09768 99.054732,231.63263 102.17869,231.63263 L 108.90004,231.63263 C 111.93325,231.63263 114.88341,229.09768 115.42448,225.9977 L 118.6349,207.48082 C 119.1734,204.38083 117.11359,201.84588 114.05727,201.84588 L 107.35903,201.84588 z M 102.87043,195.211 C 105.62626,193.30443 107.9001,193.04332 111.21754,193.04332 L 116.85248,193.04332 C 124.81176,193.04332 130.10254,199.65166 128.69167,207.74107 L 125.56771,225.73658 C 124.16283,233.82257 116.57167,240.45745 108.61581,240.45745 L 99.403171,240.45745 C 90.905388,240.45745 85.919383,234.62561 87.414157,225.9977 L 95.911084,177.0417 L 98.339022,174.96134 L 104.34551,174.96134 L 106.03805,177.0417"
       id="path4228"
       style="fill:#e7e7e8;fill-opacity:1;fill-rule:nonzero;stroke:none" />
    <path
       d="M 156.72596,201.84588 C 153.602,201.84588 150.65269,204.38083 150.11077,207.48082 L 149.16134,212.92142 L 167.04555,212.92142 L 167.99584,207.48082 C 168.54033,204.38083 166.48052,201.84588 163.33687,201.84588 L 156.72596,201.84588 z M 175.99793,219.64362 L 173.76433,221.63665 L 147.63917,221.63665 L 146.90377,225.9977 C 146.35843,229.09768 148.42166,231.63263 151.54219,231.63263 L 157.89627,231.63263 L 161.21371,230.54879 L 161.96966,229.81339 L 163.42419,229.18415 L 171.29273,229.18415 L 172.13943,231.00339 C 169.34336,236.27363 163.2504,240.45745 156.89633,240.45745 L 148.7701,240.45745 C 140.81081,240.45745 135.43356,233.82257 136.82475,225.73658 L 139.96754,207.74107 C 141.35273,199.65166 149.05091,193.04332 157.00677,193.04332 L 166.13294,193.04332 C 174.0888,193.04332 179.46947,199.65166 178.0586,207.74107"
       id="path4230"
       style="fill:#e7e7e8;fill-opacity:1;fill-rule:nonzero;stroke:none" />
    <path
       d="M 230.17793,201.84588 C 227.05397,201.84588 224.10809,204.38083 223.54305,207.56728 L 220.35574,225.9977 C 219.81382,229.09768 221.87363,231.63263 224.99759,231.63263 L 231.71551,231.63263 C 234.74872,231.63263 237.69889,229.09768 238.23995,225.9977 L 241.42726,207.56728 C 241.9923,204.38083 239.93249,201.84588 236.87616,201.84588 L 230.17793,201.84588 z M 248.36692,225.82305 C 246.97916,233.82257 239.3041,240.45745 231.43128,240.45745 L 225.79634,240.45745 C 222.39586,240.45745 220.28897,240.17322 218.20861,238.26751 L 214.91429,257.34258 L 212.48635,259.4255 L 206.50383,259.4255 L 204.78817,257.34258 L 213.41609,207.74107 C 214.84751,199.39397 222.21864,193.04332 230.45874,193.04332 L 239.6748,193.04332 C 247.54077,193.04332 252.91802,199.65166 251.50971,207.74107"
       id="path4232"
       style="fill:#e7e7e8;fill-opacity:1;fill-rule:nonzero;stroke:none" />
    <path
       d="M 275.48774,219.01438 C 271.99651,219.01438 269.41789,222.00735 268.85286,225.28198 L 268.76639,225.73658 C 268.18081,229.09768 270.26459,231.63263 273.30123,231.63263 L 279.65188,231.63263 C 282.68509,231.63263 285.6344,229.09768 286.17632,226.01739 L 287.39029,219.01438 L 275.48774,219.01438 z M 296.10466,227.0139 L 297.10461,231.09071 L 297.75354,231.37152 L 298.14136,232.82263 L 297.19193,238.26751 L 295.53963,239.54484 L 294.02516,239.54484 C 291.77102,239.54484 288.86109,238.26751 288.12911,236.35752 C 284.35708,240.08932 280.34361,240.45745 276.59127,240.45745 L 270.60875,240.45745 C 262.63319,240.45745 257.3621,233.7361 258.83719,225.28198 C 260.22495,217.28246 267.72621,211.10218 275.70519,211.10218 L 288.75407,211.10218 L 289.38332,207.48082 C 289.92524,204.38083 287.868,201.84588 284.81167,201.84588 L 279.8017,201.84588 L 276.48426,202.92544 L 275.72574,203.66512 L 274.1873,204.29351 L 266.51225,204.29351 L 265.55939,202.49396 C 268.44193,197.22372 274.53488,193.04332 280.79821,193.04332 L 287.52041,193.04332 C 295.47628,193.04332 300.85353,199.6782 299.44608,207.74107"
       id="path4234"
       style="fill:#e7e7e8;fill-opacity:1;fill-rule:nonzero;stroke:none" />
    <path
       d="M 340.11746,199.7621 L 337.68695,201.84588 L 329.27564,201.84588 C 326.61056,201.84588 323.33678,204.66506 322.77174,207.93884 L 317.72153,237.00988 L 314.88266,239.45751 L 309.61242,239.45751 L 307.59542,237.09635 L 312.67217,207.93884 C 314.38098,198.04987 321.34375,193.04332 330.8175,193.04332 L 339.22796,193.04332 L 340.91707,195.12367"
       id="path4236"
       style="fill:#e7e7e8;fill-opacity:1;fill-rule:nonzero;stroke:none" />
    <path
       d="M 359.45364,193.94994 L 369.92819,193.94994 L 371.61644,196.03372 L 370.81427,200.67215 L 368.38633,202.77818 L 357.91606,202.77818 L 354.0567,225.10734 C 353.51478,228.18421 355.57116,230.74313 358.6078,230.74313 L 363.53045,230.74313 L 365.21956,232.82263 L 364.41653,237.46448 L 362.01256,239.54484 L 355.9196,239.54484 C 347.96374,239.54484 342.65241,232.99642 343.97339,224.93355 L 351.67242,180.59971 L 354.07981,178.60325 L 360.06234,178.60325 L 361.77456,180.59971"
       id="path4238"
       style="fill:#e7e7e8;fill-opacity:1;fill-rule:nonzero;stroke:none" />
    <path
       d="M 419.44237,201.84588 C 416.40573,201.84588 413.37252,204.38083 412.8306,207.48082 L 409.60391,225.9977 C 409.08168,229.09768 411.22539,231.63263 414.26203,231.63263 L 420.8969,231.63263 C 424.01658,231.63263 426.96675,229.09768 427.50525,225.9977 L 430.71567,207.48082 C 431.25759,204.38083 429.20035,201.84588 426.0567,201.84588 L 419.44237,201.84588 z M 437.65447,225.73658 C 436.24702,233.82257 428.56854,240.45745 420.69914,240.45745 L 411.48651,240.45745 C 403.52722,240.45745 398.15339,233.82257 399.54115,225.73658 L 402.6848,207.74107 C 404.07256,199.65166 411.74676,193.04332 419.72317,193.04332 L 428.93924,193.04332 C 436.80863,193.04332 442.18588,199.65166 440.775,207.74107"
       id="path4240"
       style="fill:#e7e7e8;fill-opacity:1;fill-rule:nonzero;stroke:none" />
    <path
       d="M 479.56037,181.68355 L 477.24287,183.7639 L 472.14643,183.7639 C 469.0901,183.7639 466.14422,186.30142 465.59887,189.40141 L 464.81981,193.93025 L 474.74816,193.93025 L 476.34994,196.03372 L 475.55119,200.67215 L 473.23027,202.75165 L 463.30449,202.75165 L 457.27488,237.44479 L 454.84694,239.54484 L 448.75741,239.54484 L 447.14877,237.44479 L 455.47619,189.57606 C 456.88364,181.50633 464.44825,174.96134 472.40754,174.96134 L 478.76162,174.96134 L 480.3634,177.0417"
       id="path4242"
       style="fill:#e7e7e8;fill-opacity:1;fill-rule:nonzero;stroke:none" />
    <path
       d="M 525.21862,183.04819 L 522.90112,185.04123 L 513.59773,185.04123 L 511.88893,183.04819 L 512.81867,177.69406 L 515.25003,175.61028 L 524.54657,175.61028 L 526.15178,177.69406 L 525.21862,183.04819 z M 514.16277,237.46448 L 511.82215,239.54484 L 505.75231,239.54484 L 504.06063,237.46448 L 511.23657,196.03372 L 513.66451,193.94994 L 519.75832,193.94994 L 521.36011,196.03372"
       id="path4244"
       style="fill:#e7e7e8;fill-opacity:1;fill-rule:nonzero;stroke:none" />
    <path
       d="M 545.51193,193.94994 L 555.9822,193.94994 L 557.67473,196.03372 L 556.87512,200.67215 L 554.44719,202.77818 L 543.97349,202.77818 L 540.09102,225.10734 C 539.56879,228.18421 541.63202,230.74313 544.66866,230.74313 L 549.58789,230.74313 L 551.277,232.82263 L 550.47739,237.46448 L 548.07342,239.54484 L 541.98046,239.54484 C 534.02117,239.54484 528.7107,232.99642 530.03425,224.93355 L 537.72986,180.59971 L 540.13382,178.60325 L 546.1172,178.60325 L 547.832,180.59971"
       id="path4246"
       style="fill:#e7e7e8;fill-opacity:1;fill-rule:nonzero;stroke:none" />
  </g>
</svg>
