<?xml version="1.0" encoding="UTF-8" standalone="no"?>
<!-- Created with Inkscape (http://www.inkscape.org/) -->

<svg
   xmlns:dc="http://purl.org/dc/elements/1.1/"
   xmlns:cc="http://creativecommons.org/ns#"
   xmlns:rdf="http://www.w3.org/1999/02/22-rdf-syntax-ns#"
   xmlns:svg="http://www.w3.org/2000/svg"
   xmlns="http://www.w3.org/2000/svg"
   version="1.1"
   width="541.49603"
   height="230.32138"
   id="svg88847">
  <defs
     id="defs3">
    <clipPath
       id="clipPath8363">
      <path
         d="m 19.426,264.83 13.428,0 0,5.566 -13.428,0 0,-5.566 z"
         id="path8365" />
    </clipPath>
  </defs>
  <metadata
     id="metadata4">
    <rdf:RDF>
      <cc:Work
         rdf:about="">
        <dc:format>image/svg+xml</dc:format>
        <dc:type
           rdf:resource="http://purl.org/dc/dcmitype/StillImage" />
        <dc:title></dc:title>
      </cc:Work>
    </rdf:RDF>
  </metadata>
  <g
     transform="translate(-303.75084,-207.66205)"
     id="layer1">
    <g
       transform="matrix(39.583433,0,0,-39.583433,-460.19693,10915.864)"
       id="g8359">
      <g
         clip-path="url(#clipPath8363)"
         id="g8361">
        <g
           transform="translate(30.0193,269.2809)"
           id="g8367">
          <path
             d="M 0,0 C -0.012,0.098 -0.063,0.141 -0.127,0.133 -0.431,0.096 -0.66,-0.511 -0.65,-0.816 -0.647,-0.909 -0.589,-0.954 -0.523,-0.946 -0.218,-0.909 0.039,-0.32 0,0 m -3.747,-0.847 c 0.34,0.138 0.497,0.391 0.477,0.524 -0.007,0.048 -0.027,0.066 -0.075,0.06 -0.167,-0.021 -0.352,-0.382 -0.402,-0.584 m 6.448,0.558 C 2.543,-0.645 2.194,-0.821 1.891,-0.859 1.686,-0.885 1.488,-0.769 1.455,-0.553 1.339,-0.753 1.058,-0.979 0.793,-0.994 0.658,-1.002 0.495,-0.916 0.469,-0.698 0.452,-0.563 0.559,-0.415 0.676,-0.399 0.773,-0.385 0.865,-0.443 0.877,-0.543 0.888,-0.633 0.827,-0.707 0.751,-0.716 0.73,-0.719 0.71,-0.721 0.681,-0.718 0.677,-0.743 0.682,-0.875 0.854,-0.847 c 0.372,0.059 0.644,0.682 0.587,1 C 1.426,0.235 1.376,0.285 1.3,0.276 1.193,0.263 1.132,0.172 1.001,-0.013 0.775,-0.333 0.629,-0.32 0.435,-0.239 c -0.01,-0.445 -0.423,-0.852 -0.897,-0.91 -0.308,-0.038 -0.609,0.045 -0.652,0.397 -0.012,0.099 -0.004,0.193 0.02,0.281 -0.063,0.007 -0.12,0.024 -0.156,0.041 -0.1,-0.486 -0.552,-0.883 -1.034,-0.942 -0.286,-0.036 -0.528,0.076 -0.57,0.341 -0.267,-0.313 -0.495,-0.472 -0.847,-0.515 -0.282,-0.035 -0.465,0.067 -0.525,0.29 -0.245,-0.315 -0.4,-0.4 -0.603,-0.429 -0.19,-0.023 -0.338,0.043 -0.359,0.212 -0.024,0.193 0.133,0.29 0.112,0.459 -0.056,-0.028 -0.119,-0.06 -0.185,-0.068 -0.031,-0.004 -0.06,0.006 -0.064,0.041 -0.004,0.034 0.017,0.058 0.076,0.065 0.072,0.009 0.13,-0.001 0.171,0.004 0.135,0.016 0.262,0.184 0.243,0.34 -0.007,0.055 -0.047,0.096 -0.106,0.088 -0.252,-0.031 -0.725,-0.904 -0.834,-1.215 l -0.535,-0.07 0.111,0.217 c -0.172,-0.208 -0.277,-0.273 -0.47,-0.299 -0.204,-0.027 -0.308,0.11 -0.327,0.258 -10e-4,0.011 -0.002,0.021 -0.002,0.032 -10e-4,0.047 0.007,0.095 0.015,0.124 0,0 -0.054,-0.071 -0.079,-0.106 -0.155,-0.215 -0.293,-0.395 -0.554,-0.424 -0.19,-0.021 -0.331,0.05 -0.352,0.222 -0.034,0.273 0.338,0.915 0.41,1.092 l 0.488,0.06 -0.083,-0.174 c -0.361,-0.718 -0.391,-0.797 -0.377,-0.907 0.007,-0.059 0.05,-0.096 0.105,-0.089 0.183,0.023 0.429,0.429 0.819,1.227 l 0.494,0.058 c -0.102,-0.198 -0.476,-0.858 -0.47,-1.095 0.002,-0.066 0.042,-0.083 0.086,-0.077 0.145,0.018 0.405,0.285 0.574,0.657 0.269,0.596 0.478,1.081 0.751,1.717 l 0.479,0.06 c -0.256,-0.583 -0.452,-1.034 -0.717,-1.595 -0.013,-0.026 -0.002,-0.025 0.016,0.001 0.177,0.264 0.362,0.501 0.719,0.551 0.159,0.022 0.312,-0.029 0.333,-0.202 0.038,-0.307 -0.464,-0.418 -0.648,-0.461 0.143,-0.046 0.305,-0.054 0.326,-0.223 0.012,-0.093 -0.029,-0.141 -0.02,-0.217 0.005,-0.038 0.025,-0.049 0.067,-0.044 0.071,0.009 0.221,0.151 0.372,0.326 -0.029,0.472 0.522,0.937 0.95,0.99 0.221,0.027 0.388,-0.022 0.408,-0.181 0.04,-0.325 -0.671,-0.56 -0.909,-0.648 -0.005,-0.047 -0.003,-0.095 0.003,-0.14 0.021,-0.17 0.108,-0.258 0.317,-0.219 0.15,0.029 0.397,0.2 0.618,0.421 0.024,0.244 0.241,0.594 0.873,1.974 l 0.482,0.059 c -0.884,-1.939 -0.916,-1.946 -0.876,-2.155 0.016,-0.079 0.071,-0.121 0.15,-0.111 0.342,0.042 0.529,0.463 0.572,0.829 -0.015,0.034 -0.03,0.074 -0.036,0.119 -0.014,0.121 0.053,0.255 0.198,0.273 0.132,0.016 0.233,-0.07 0.254,-0.242 0.005,-0.042 0.012,-0.058 0.003,-0.129 0.041,-0.034 0.095,-0.078 0.169,-0.093 0.134,0.342 0.512,0.579 0.878,0.624 0.594,0.073 0.599,-0.375 0.913,-0.364 0.074,0.002 0.144,0.093 0.202,0.18 C 1.097,0.303 1.252,0.475 1.44,0.498 1.633,0.522 1.813,0.365 1.801,0.137 1.961,0.318 2.13,0.52 2.365,0.549 2.538,0.57 2.645,0.499 2.659,0.382 2.677,0.233 2.586,0.117 2.431,0.098 2.383,0.092 2.333,0.096 2.31,0.111 2.415,0.198 2.505,0.452 2.27,0.396 2.084,0.351 1.751,-0.075 1.795,-0.434 c -0.003,0.003 0.017,-0.235 0.236,-0.219 0.144,0.01 0.478,0.111 0.631,0.42 -0.275,0.292 0.288,0.342 0.08,0.025 0.094,-0.113 0.338,-0.835 -0.73,-1.274 -2,-0.82 -6.722,-1.135 -9.317,-2.969 -0.701,0.315 -1.515,0.396 -2.382,0.479 4.515,2.478 9.447,1.683 11.785,2.707 0.746,0.326 0.697,0.805 0.603,0.976 M -8.906,-1.158 c -0.021,-0.012 -0.042,-0.024 -0.064,-0.035 -0.08,-0.04 -0.167,-0.067 -0.252,-0.078 -0.276,-0.034 -0.609,0.119 -0.646,0.509 -0.092,0.963 2.077,1.208 2.701,1.297 0.241,0.035 0.365,0.033 0.43,0.018 0.044,-0.011 0.1,-0.039 0.096,-0.115 C -6.643,0.389 -6.686,0.346 -6.743,0.342 -6.823,0.338 -7.079,0.451 -7.148,0.409 -7.303,0.306 -7.58,0.059 -7.787,-0.32 c -0.497,-0.911 -0.583,-3.091 -2.05,-3.224 -0.328,-0.029 -0.645,0.193 -0.73,0.519 -0.113,0.433 0.144,0.716 0.384,0.818 0.033,0.014 0.065,0.025 0.097,0.032 0.205,0.047 0.098,-0.068 -0.002,-0.17 -0.07,-0.07 -0.11,-0.178 -0.095,-0.303 0.025,-0.208 0.247,-0.29 0.398,-0.276 0.832,0.078 1.032,1.62 1.49,2.353 0.378,0.718 1.03,0.991 0.977,0.985 -0.393,-0.047 -2.177,-0.349 -2.071,-1.214 0.027,-0.214 0.184,-0.321 0.391,-0.296 0.02,0.003 0.039,0.007 0.058,0.013 0.096,0.038 0.094,-0.037 0.034,-0.075"
             id="path8369"
             style="fill:#4aa6e2;fill-opacity:1;fill-rule:nonzero;stroke:none" />
        </g>
      </g>
    </g>
  </g>
</svg>
