<?xml version="1.0" encoding="UTF-8" standalone="no"?>
<!-- Created with Inkscape (http://www.inkscape.org/) -->

<svg
   xmlns:dc="http://purl.org/dc/elements/1.1/"
   xmlns:cc="http://creativecommons.org/ns#"
   xmlns:rdf="http://www.w3.org/1999/02/22-rdf-syntax-ns#"
   xmlns:svg="http://www.w3.org/2000/svg"
   xmlns="http://www.w3.org/2000/svg"
   xmlns:sodipodi="http://sodipodi.sourceforge.net/DTD/sodipodi-0.dtd"
   xmlns:inkscape="http://www.inkscape.org/namespaces/inkscape"
   width="845.99475"
   height="284.44919"
   id="svg2928"
   version="1.1"
   inkscape:version="0.47 r22583"
   sodipodi:docname="Neues Dokument 3">
  <defs
     id="defs2930">
    <inkscape:perspective
       sodipodi:type="inkscape:persp3d"
       inkscape:vp_x="0 : 526.18109 : 1"
       inkscape:vp_y="0 : 1000 : 0"
       inkscape:vp_z="744.09448 : 526.18109 : 1"
       inkscape:persp3d-origin="372.04724 : 350.78739 : 1"
       id="perspective2936" />
    <inkscape:perspective
       id="perspective2918"
       inkscape:persp3d-origin="0.5 : 0.33333333 : 1"
       inkscape:vp_z="1 : 0.5 : 1"
       inkscape:vp_y="0 : 1000 : 0"
       inkscape:vp_x="0 : 0.5 : 1"
       sodipodi:type="inkscape:persp3d" />
  </defs>
  <sodipodi:namedview
     id="base"
     pagecolor="#ffffff"
     bordercolor="#666666"
     borderopacity="1.0"
     inkscape:pageopacity="0.0"
     inkscape:pageshadow="2"
     inkscape:zoom="1.3948077"
     inkscape:cx="422.99738"
     inkscape:cy="142.22459"
     inkscape:document-units="px"
     inkscape:current-layer="layer1"
     showgrid="false"
     inkscape:window-width="1280"
     inkscape:window-height="1005"
     inkscape:window-x="-4"
     inkscape:window-y="-4"
     inkscape:window-maximized="1" />
  <metadata
     id="metadata2933">
    <rdf:RDF>
      <cc:Work
         rdf:about="">
        <dc:format>image/svg+xml</dc:format>
        <dc:type
           rdf:resource="http://purl.org/dc/dcmitype/StillImage" />
        <dc:title></dc:title>
      </cc:Work>
    </rdf:RDF>
  </metadata>
  <g
     inkscape:label="Ebene 1"
     inkscape:groupmode="layer"
     id="layer1"
     transform="translate(86.878994,-442.99473)">
    <g
       id="g2903"
       transform="matrix(0.4394352,0,0,0.4394352,30.359396,664.40966)">
      <g
         transform="matrix(1.3310622,0,0,1.3310622,-3088.0686,6.4410359)"
         id="g2866">
        <path
           style="fill:#ffffff;fill-opacity:1;fill-rule:nonzero;stroke:none"
           id="path5230"
           d="m 2119.5668,-336.15211 c 0,-13.97026 8.9736,-25.18727 20.0886,-25.18727 l 575.8811,0.0501 c 11.1152,0 20.0888,11.217 20.0888,25.18727 l 0,394.58964 c 0,13.868304 -8.9736,25.187283 -20.0888,25.187283 l -575.8811,-0.05019 c -11.115,0 -20.0886,-11.31898 -20.0886,-25.187283 l 0,-394.58965 z" />
        <path
           style="fill:#f26522;fill-opacity:1;fill-rule:nonzero;stroke:none"
           id="path7684"
           d="m 2119.5668,-358.19342 c 0,-13.97027 8.9736,-25.18728 20.0886,-25.18728 l 686.5826,0 c 11.1152,0 20.0888,11.21701 20.0888,25.18728 l 0,435.933536 c 0,13.868303 -8.9736,25.187284 -20.0888,25.187284 l -686.5826,0 c -11.115,0 -20.0886,-11.318981 -20.0886,-25.187284 l 0,-189.873276 c 21.7202,60.163918 63.3251,107.2753398 119.1042,144.495392 46.4996,27.124752 98.0978,46.907491 155.7124,46.907491 194.36,0 318.3589,-140.926372 318.3589,-314.687943 0,-44.05223 -12.6446,-85.96304 -29.0622,-124.10085 -33.1411,10.91108 -102.5846,24.88135 -138.1731,28.96026 -7.2401,54.04557 -55.8811,91.87746 -122.5712,106.35759 0,9.38149 -2.7533,69.44345 -3.5691,79.33481 27.4307,-4.07891 60.8777,-9.99333 88.8183,-18.15115 -32.6313,123.183084 -157.9558,176.514837 -268.0864,132.870491 -73.0125,-28.960255 -120.5318,-89.736021 -120.5318,-206.392851 l 0,-121.6535 z" />
      </g>
      <path
         id="rect2870"
         d="m 875.1927,-343.42811 0,326.4375 87.125,0 0,-140.78125 184.6563,0 0,140.78125 87.0938,0 0,-326.4375 -87.0938,0 0,123.0625 -184.6563,0 0,-123.0625 -87.125,0 z"
         style="fill:#f26522;fill-opacity:1;stroke:none" />
      <path
         sodipodi:nodetypes="ccccssssccccsszsscccc"
         id="rect2878"
         d="m 1296.5165,-343.44373 0,63.3125 78.5625,0 c 0,0 75.1602,0.0143 113.2188,0 22.1025,0.0143 49.0948,0.0143 64.7812,16.375 14.64,15.26936 16.4511,56.21425 16.2665,84.9375 -0.1939,30.16588 0.043,73.6702 -18.1415,88.999995 -14.022,11.82045 -40.6253,11.80777 -61.5,11.8125 -35.0915,0.008 -105.75,0 -105.75,0 l 0,-144.999995 -87.3438,0 0,206.031245 c 74.1239,-0.006 137.5161,-0.0127 198.9969,-0.006 34.8884,0.004 99.695,-1.51042 124.6281,-25.93115 33.9309,-33.23362 38.1682,-80.542705 38.1563,-137.281245 -0.012,-56.73855 1.3765,-101.66347 -52.6563,-143.40626 -25.6448,-19.81173 -85.2238,-19.81218 -115.6453,-19.81173 -51.5312,7.7e-4 -115.0109,-0.032 -115.0109,-0.032 l -78.5625,0 0,-5e-5 0,-3.1e-4 z"
         style="fill:#f26522;fill-opacity:1;stroke:none" />
    </g>
  </g>
</svg>
