<?xml version="1.0" encoding="UTF-8" standalone="no"?>
<!-- Created with Inkscape (http://www.inkscape.org/) -->
<svg
   xmlns:svg="http://www.w3.org/2000/svg"
   xmlns="http://www.w3.org/2000/svg"
   version="1.0"
   width="602.36218"
   height="148.5"
   id="svg9665">
  <defs
     id="defs9667" />
  <g
     id="layer1">
    <g
       transform="translate(-48.81891,-458.1122)"
       id="g9678">
      <polygon
         points="10580600,500700 16500000,500700 16500000,3691340 10580600,3691340 10580600,500700 "
         transform="matrix(3.543307e-5,0,0,3.543307e-5,48.8182,458.0938)"
         style="fill:white;fill-rule:evenodd"
         id="polygon9646" />
      <path
         d="M 423.72134,475.8351 L 633.46527,475.8351 L 633.46527,588.88927 L 423.72134,588.88927 L 423.72134,475.8351 L 423.72134,475.8351 z M 434.6411,577.6545 L 447.51323,577.6545 L 447.51323,523.6623 L 434.6411,523.6623 L 434.6411,577.6545 z M 499.72492,577.6545 L 499.72492,523.6623 L 488.79594,523.6623 L 488.79594,563.00222 L 475.43838,523.6623 L 458.92338,523.6623 L 458.92338,577.6545 L 469.8513,577.6545 L 469.8513,538.3936 L 483.12878,577.6545 L 499.72492,577.6545 z M 541.25141,533.456 L 541.25141,523.6623 L 511.13862,523.6623 L 511.13862,577.6545 L 524.0072,577.6545 L 524.0072,555.23175 L 540.44318,555.23175 L 540.44318,545.59856 L 524.0072,545.59856 L 524.0072,533.456 L 541.25141,533.456 z M 592.5748,550.70021 C 592.5748,536.61344 586.82401,522.84947 570.1485,522.84947 C 554.52535,522.84947 547.89086,536.77714 547.89086,550.70021 C 547.89086,564.94608 553.63704,578.54635 570.1485,578.54635 C 585.85633,578.54635 592.5748,565.0251 592.5748,550.70021 z M 579.21724,550.70021 C 579.21724,558.47069 578.32539,569.31852 570.1485,569.31852 C 563.02858,569.31852 561.24346,560.41348 561.24346,550.70021 C 561.24346,542.84612 562.37944,532.08084 570.1485,532.08084 C 578.48909,532.08084 579.21724,542.7671 579.21724,550.70021 z "
         style="fill:#004182;fill-rule:evenodd"
         id="path9648" />
      <rect
         width="299.81339"
         height="113.05417"
         x="66.534729"
         y="475.83508"
         style="fill:white;fill-rule:evenodd"
         id="rect9650" />
      <path
         d="M 66.534731,475.8351 L 222.99158,475.8351 L 222.99158,482.47738 L 230.58418,482.47738 C 235.40414,482.47738 237.30441,485.89242 237.30441,490.58907 L 237.30441,510.80116 C 231.02284,503.9686 223.08689,501.40502 213.74284,501.40502 C 193.23241,501.40502 183.47556,517.25281 182.31229,533.5251 C 182.23504,534.63273 182.02315,538.72136 182.85548,545.14466 L 196.89477,545.14466 C 196.89477,544.88954 196.40402,542.52084 196.235,540.82927 C 195.9402,537.93687 196.12729,534.27344 196.19178,533.37769 C 197.10701,520.51726 203.27626,509.24884 216.9552,509.3771 C 227.90721,509.51671 233.94359,517.20533 236.86327,520.19766 L 249.7191,534.5725 L 249.7191,475.8351 L 366.34811,475.8351 L 366.34811,588.88927 L 66.534731,588.88927 L 66.534731,510.64915 L 76.350755,510.64915 C 81.115085,510.64915 81.691227,512.86159 81.691227,517.42537 L 81.691227,545.99754 C 81.691227,545.99754 92.391306,528.92163 95.271305,524.50065 C 98.868116,518.98549 104.00662,508.83285 114.60359,508.44061 C 130.62749,507.85313 132.21489,525.37691 132.50402,528.61762 L 132.64788,528.76147 C 132.64788,528.76147 140.09166,509.11738 154.2989,508.44061 C 168.48701,507.7649 171.3943,521.8088 171.92721,527.16521 C 172.14052,529.26498 172.11217,534.32092 172.11217,534.32092 L 178.1202,534.32092 C 178.13969,534.32092 178.12268,532.21301 178.12268,532.21301 C 178.12268,515.35254 173.51461,500.99683 154.44312,501.51734 C 145.548,501.76537 139.28662,507.4088 135.1041,513.44872 C 132.35875,506.82132 124.73922,501.101 114.7478,501.51734 C 104.75851,501.93687 98.290912,508.73293 93.95851,515.65762 L 93.95851,503.72943 L 66.534731,503.72943 L 66.534731,475.8351 L 66.534731,475.8351 z M 304.14004,508.47675 C 307.25567,508.36124 311.65185,509.2173 312.3591,512.621 C 307.26028,512.621 303.85516,514.98864 303.85516,520.31671 C 303.85516,524.60943 307.96327,527.12553 311.7911,527.12553 C 317.45933,527.12553 319.72811,522.83281 319.72811,517.20852 C 319.72811,507.00061 313.34343,501.11695 303.7113,501.51734 C 293.71953,501.93687 287.82807,508.76943 283.49567,515.69269 L 283.49567,503.76451 L 256.07225,503.76451 L 256.07225,510.68458 L 265.88792,510.68458 C 270.64799,510.68458 271.22732,512.89313 271.22732,517.46151 L 271.22732,546.02907 C 271.22732,546.02907 281.9274,528.95317 284.8074,524.53679 C 288.39961,519.02057 293.53953,508.86899 304.14004,508.47675 z "
         style="fill:#006cb8;fill-rule:evenodd"
         id="path9652" />
      <polygon
         points="9134450,3691340 10401400,3691340 10401400,500700 9134450,500700 9134450,3691340 "
         transform="matrix(3.543307e-5,0,0,3.543307e-5,48.8182,458.0938)"
         style="fill:#6795ce;fill-rule:nonzero"
         id="polygon9654" />
    </g>
  </g>
</svg>
