<svg xmlns="http://www.w3.org/2000/svg" xmlns:xlink="http://www.w3.org/1999/xlink" enable-background="new 0 0 1412.381 800" height="396.02" width="858.02" viewBox="0 0 858.01673 396.02493"><defs><path id="10" d="m 279,499.95 v 74.046 c 0,11 9,20 20,20 H 654.22 V 499.949 H 279 z"/><path id="11" d="m 663.56 499.96 c 0 0 167.42 5.828 295.53 -119.51 50.31 -49.21 76.981 -97.07 84.51 -115.45 h -250.42 l -0.179 -58.65 l -104.3 42.31 l -0.02 16.32 h -88.68 c 0 0 -14.793 1.436 -15.326 16.682 v 218.3 l 78.885 -0.009 z"/><path id="12" d="m 1055 269.06 h -11.725 l -1.384 -0.028 c -9.416 20.693 -35.785 65.46 -82.76 111.42 -128.17 125.34 -295.58 119.51 -295.58 119.51 l -27.56 0.04 v 72 c 0 7.168 5.832 13 13 13 l 405.81 0.016 c 7.453 -0.047 11.766 -5.281 11.509 -13.02 l 0.035 -292 c -0.0001 -7.168 -4.378 -10.792 -11.398 -10.937 z"/><path id="13" d="m 663.56 499.97 h -75.71 v 87.02 h 366.99 v -152.67 h -64.51 c -112.14 69.63 -226.77 65.64 -226.77 65.64 z"/><path id="14" d="M 644.9 280 644.95 499.96 281.4 499.96 281.35 280"/><path d="m 791.03 260 c -41.06 0 -74.43 41.45 -74.43 82.5 0 41.06 33.28 74.34 74.34 74.34 v -40.04 h 64.58 c 0 0 9.762 -21.316 9.762 -34.3 0 -15.729 -4.897 -28.31 -13.233 -40.32 h -61.11 v -34.02" id="15"/><path id="16" d="m 495.81 366.1 h -95.63 v 133.89 h 95.63 v -133.89"/><path id="17" d="m 602.16 474.04 h -132.96 v 100.08 h 132.96 v -100.08"/><path id="18" d="M 469.2,574.12 V 474.04 H 602.16 V 574.12 H 469.2 M 663.83,425.48 H 425.51 v 205.2 h 238.32 v -205.2"/><path id="19" d="M 289,467.04 H454.84 V597.12 H289 z"/><path id="1A" d="m 514.96 419.92 h -268.08 v 232.32 h 268.08 v -232.32"/><path id="1B" d="m 984 185.68 h -318 v 338.88 h 318 v -338.88"/><path id="1C" d="M 666,524.56 V 185.68 H 984 V 524.56 H 666 M 1020.72,149.2 h -393.6 v 413.52 h 393.6 V 149.2"/><path id="1D" d="m 1165.1 283 h -305.75 v 309.36 h 305.75 v -309.36"/><path id="1E" d="M 859.35,592.36 V 283 h 305.76 V 592.36 H 859.36 M 1223.31,232.88 H 810.72 v 423.6 h 412.56 v -423.6"/><path id="1F" d="m 877.61 466.26 h -208.08 v 137.52 h 208.08 v -137.52"/><path id="1G" d="M 669.53,603.78 V 466.26 H 877.61 V 603.78 H 669.53 M 939.59,418.54 h -319.2 v 249.12 h 319.2 V 418.54"/><path id="1H" d="m 602.16 298.05 h -302.16 v 246.96 h 302.16 v -246.96"/><path id="1I" d="M 300,545.01 V 298.05 H 602.16 V 545.01 H 300 M 621,282.05 H 281.16 V 566.93 H 621 V 282.05"/><clipPath><use xlink:href="#19"/></clipPath><clipPath><use xlink:href="#15"/></clipPath><clipPath><use xlink:href="#18"/></clipPath><clipPath><use xlink:href="#17"/></clipPath><clipPath><use xlink:href="#14"/></clipPath><clipPath><use xlink:href="#13"/></clipPath><clipPath><use xlink:href="#10"/></clipPath><clipPath><use xlink:href="#12"/></clipPath><clipPath><use xlink:href="#11"/></clipPath><clipPath><use xlink:href="#16"/></clipPath><clipPath><use xlink:href="#1F"/></clipPath><clipPath><use xlink:href="#1E"/></clipPath><clipPath><use xlink:href="#1G"/></clipPath><clipPath><use xlink:href="#1I"/></clipPath><clipPath><use xlink:href="#1H"/></clipPath><clipPath><use xlink:href="#1A"/></clipPath><clipPath><use xlink:href="#1B"/></clipPath><clipPath><use xlink:href="#1C"/></clipPath><clipPath><use xlink:href="#1D"/></clipPath><linearGradient id="0" gradientUnits="userSpaceOnUse" x1="1100.5" y1="380.1" x2="1105.9" y2="382.02"><stop offset="0.012" stop-opacity="0.25" stop-color="#892531"/><stop offset="0.037" stop-opacity="0.274" stop-color="#8e2430"/><stop offset="0.182" stop-opacity="0.411" stop-color="#a51e2c"/><stop offset="0.319" stop-opacity="0.539" stop-color="#b31b29"/><stop offset="0.436" stop-opacity="0.65" stop-color="#b81a28"/><stop offset="0.791" stop-color="#6d151a"/></linearGradient><linearGradient id="Y" gradientUnits="userSpaceOnUse" x1="10.767" x2="-3.363"><stop offset="0.012" stop-opacity="0.25" stop-color="#892531"/><stop offset="0.075" stop-opacity="0.313" stop-color="#a12331"/><stop offset="0.207" stop-opacity="0.444" stop-color="#df1f31"/><stop offset="0.264" stop-opacity="0.5" stop-color="#fb1d31"/><stop offset="0.793" stop-color="#6d151a"/></linearGradient><linearGradient id="b" gradientUnits="userSpaceOnUse" x1="787.88" x2="805.55"><stop offset="0.012" stop-opacity="0.25" stop-color="#892531"/><stop offset="0.29" stop-opacity="0.904" stop-color="#71171d"/><stop offset="0.331" stop-color="#6d151a"/></linearGradient><linearGradient id="c" gradientUnits="userSpaceOnUse" x1="787.34" x2="806.2"><stop offset="0.012" stop-color="#892531"/><stop offset="0.146" stop-color="#711c25"/><stop offset="0.331" stop-color="#490e10"/></linearGradient><linearGradient id="a" gradientUnits="userSpaceOnUse" x2="0"><stop stop-opacity="0.5" stop-color="#b81a28"/><stop offset="0.069" stop-opacity="0.5" stop-color="#d01b2b"/><stop offset="0.172" stop-opacity="0.5" stop-color="#fb1d31"/><stop offset="0.417" stop-color="#6d151a"/></linearGradient><linearGradient id="d" gradientUnits="userSpaceOnUse" x1="15.937" x2="-4.873"><stop offset="0.196" stop-opacity="0.35" stop-color="#892531"/><stop offset="0.309" stop-opacity="0.589" stop-color="#a11f2c"/><stop offset="0.42" stop-opacity="0.823" stop-color="#b21b29"/><stop offset="0.503" stop-color="#b81a28"/><stop offset="0.773" stop-color="#6d151a"/></linearGradient><linearGradient xlink:href="#p" id="r" gradientUnits="userSpaceOnUse" y1="107.43" x2="0" y2="357.37"/><linearGradient id="z" gradientUnits="userSpaceOnUse" gradientTransform="matrix(-1.3224 0 0 -1.1169 1329.19 1172.87)" x1="410.43" x2="709.46"><stop stop-opacity="0" stop-color="#fff"/><stop offset="0.024" stop-opacity="0.081" stop-color="#fff8fb"/><stop offset="0.12" stop-opacity="0.399" stop-color="#ffe3ec"/><stop offset="0.213" stop-opacity="0.709" stop-color="#ffd6e4"/><stop offset="0.301" stop-color="#ffd2e1"/><stop offset="0.368" stop-opacity="0.877" stop-color="#feccdb"/><stop offset="0.455" stop-opacity="0.717" stop-color="#f9bccb"/><stop offset="0.554" stop-opacity="0.535" stop-color="#f3a1b0"/><stop offset="0.661" stop-opacity="0.339" stop-color="#e97b8b"/><stop offset="0.774" stop-opacity="0.133" stop-color="#dd4c5c"/><stop offset="0.847" stop-opacity="0" stop-color="#d42939"/></linearGradient><linearGradient id="y" gradientUnits="userSpaceOnUse" gradientTransform="matrix(1.3224 0 0 1.1169 -378.75 -228.71)" x1="295.69" x2="594.96"><stop stop-opacity="0.1" stop-color="#ffeded"/><stop offset="0.027" stop-opacity="0.233" stop-color="#fff4f4"/><stop offset="0.088" stop-opacity="0.528" stop-color="#fffcfc"/><stop offset="0.184" stop-color="#fff"/><stop offset="0.255" stop-opacity="0.92" stop-color="#fef9fa"/><stop offset="0.346" stop-opacity="0.816" stop-color="#fbe9eb"/><stop offset="0.45" stop-opacity="0.699" stop-color="#f5ced2"/><stop offset="0.563" stop-opacity="0.572" stop-color="#eea8af"/><stop offset="0.682" stop-opacity="0.436" stop-color="#e47882"/><stop offset="0.805" stop-opacity="0.296" stop-color="#d83e4c"/><stop offset="0.847" stop-opacity="0.25" stop-color="#d42939"/></linearGradient><linearGradient id="f" gradientUnits="userSpaceOnUse" y1="387.02" x2="0" y2="406.56"><stop offset="0.012" stop-opacity="0.25" stop-color="#892531"/><stop offset="0.127" stop-opacity="0.442" stop-color="#a11f2c"/><stop offset="0.221" stop-opacity="0.6" stop-color="#b81a28"/><stop offset="0.331" stop-color="#6d151a"/></linearGradient><linearGradient id="X" gradientUnits="userSpaceOnUse" y1="73.76" x2="0" y2="47.19"><stop stop-opacity="0.5" stop-color="#6d151a"/><stop offset="0.035" stop-opacity="0.5" stop-color="#85161e"/><stop offset="0.11" stop-opacity="0.5" stop-color="#c31a28"/><stop offset="0.172" stop-opacity="0.5" stop-color="#fb1d31"/><stop offset="0.436" stop-color="#6d151a"/></linearGradient><linearGradient id="p" y2="555.37" gradientUnits="userSpaceOnUse" x2="0" y1="305.43"><stop stop-color="#fff"/><stop stop-color="#fff" offset="0.255"/><stop stop-color="#fff" offset="0.27"/><stop stop-color="#fcfbfc" offset="0.434"/><stop stop-color="#f1f1f1" offset="0.58"/><stop stop-color="#dfdedf" offset="0.719"/><stop stop-color="#c7c5c6" offset="0.855"/><stop stop-color="#a7a4a6" offset="0.986"/><stop stop-color="#a3a0a2" offset="1"/></linearGradient><linearGradient id="i" gradientUnits="userSpaceOnUse" x1="4.767" y1="66.51" x2="791.32" y2="391.49"><stop stop-color="#892531"/><stop stop-color="#a82e31" offset="0.209"/><stop stop-color="#490e10" offset="0.417"/><stop stop-color="#951421" offset="1"/></linearGradient><linearGradient xlink:href="#p" id="q" gradientUnits="userSpaceOnUse" y1="107.43" x2="0" y2="357.37"/><linearGradient id="e" gradientUnits="userSpaceOnUse" y1="71.09" x2="0" y2="51.36" xlink:href="#a"/><linearGradient id="E" gradientUnits="userSpaceOnUse" x1="714.11" y1="100.9" x2="748.42" y2="361.62"><stop stop-color="#fff"/><stop offset="0.195" stop-color="#fcfcfc"/><stop offset="0.355" stop-color="#f3f2f2"/><stop offset="0.501" stop-color="#e3e1e2"/><stop offset="0.639" stop-color="#cdc9cc"/><stop offset="0.693" stop-color="#c2bdc1"/><stop offset="0.785" stop-color="#b1adb0"/><stop offset="0.883" stop-color="#a6a3a5"/><stop offset="1" stop-color="#a3a0a2"/></linearGradient><linearGradient id="K" gradientUnits="userSpaceOnUse" y1="105.32" x2="0" y2="356.13"><stop stop-color="#3c0908"/><stop offset="0.31" stop-color="#3c0908"/><stop offset="0.335" stop-color="#892531"/><stop offset="0.393" stop-color="#691d22"/><stop offset="0.644" stop-color="#6d151a"/><stop offset="0.782" stop-color="#6d151a"/><stop offset="0.783" stop-color="#6b1519"/><stop offset="0.784" stop-color="#641317"/><stop offset="0.784" stop-color="#591012"/><stop offset="0.784" stop-color="#480c0c"/><stop offset="0.784" stop-color="#3c0908"/><stop offset="1" stop-color="#3c0908"/></linearGradient><linearGradient id="F" gradientUnits="userSpaceOnUse" x1="481.28" y1="106.33" x2="488.59" y2="366.49"><stop stop-color="#fff"/><stop offset="0.207" stop-color="#fcfbfc"/><stop offset="0.393" stop-color="#f2f1f1"/><stop offset="0.571" stop-color="#e1dee0"/><stop offset="0.743" stop-color="#c9c5c8"/><stop offset="0.834" stop-color="#b9b4b8"/><stop offset="0.866" stop-color="#b1acaf"/><stop offset="0.927" stop-color="#a6a3a5"/><stop offset="1" stop-color="#a3a0a2"/></linearGradient><linearGradient id="I" gradientUnits="userSpaceOnUse" y1="83" x2="0" y2="419.04"><stop stop-color="#a8a1a6"/><stop offset="0.056" stop-color="#a59da2"/><stop offset="0.113" stop-color="#9b9296"/><stop offset="0.17" stop-color="#8b7f81"/><stop offset="0.227" stop-color="#756465"/><stop offset="0.312" stop-color="#7a6b6c"/><stop offset="0.435" stop-color="#887d7f"/><stop offset="0.579" stop-color="#a09c9e"/><stop offset="0.596" stop-color="#a3a0a2"/><stop offset="0.651" stop-color="#978d8c"/><stop offset="0.651" stop-color="#908584"/><stop offset="0.652" stop-color="#7c6d6d"/><stop offset="0.652" stop-color="#756465"/><stop offset="0.896" stop-color="#756465"/><stop offset="1" stop-color="#756465"/></linearGradient><linearGradient id="J" gradientUnits="userSpaceOnUse" y1="82.97" x2="0" y2="421.67"><stop stop-color="#e0c8c8"/><stop offset="0.09" stop-color="#dcc6c5"/><stop offset="0.183" stop-color="#d0bfbd"/><stop offset="0.227" stop-color="#c7bbb7"/><stop offset="0.342" stop-color="#cbc1be"/><stop offset="0.508" stop-color="#d8d3d1"/><stop offset="0.646" stop-color="#e6e6e6"/><stop offset="0.646" stop-color="#e2e2e2"/><stop offset="0.647" stop-color="#cbc7c7"/><stop offset="0.647" stop-color="#b8b2b1"/><stop offset="0.647" stop-color="#a9a1a0"/><stop offset="0.647" stop-color="#9f9695"/><stop offset="0.647" stop-color="#998f8e"/><stop offset="0.647" stop-color="#978d8c"/><stop offset="0.896" stop-color="#978d8c"/><stop offset="1"/></linearGradient><linearGradient id="G" gradientUnits="userSpaceOnUse" y1="-12.46" x2="0" y2="383.05"><stop offset="0.017" stop-color="#e6e6e6"/><stop offset="0.307" stop-color="#e6e6e6"/><stop offset="0.644" stop-color="#e0c8c8"/><stop offset="1" stop-color="#978d8c"/></linearGradient><linearGradient id="D" gradientUnits="userSpaceOnUse" y1="106" x2="0" y2="301.96"><stop stop-color="#fff"/><stop offset="0.577" stop-color="#fdfdfd"/><stop offset="0.828" stop-color="#f6f6f6"/><stop offset="1" stop-color="#ebebeb"/></linearGradient><linearGradient id="1" gradientUnits="userSpaceOnUse" y1="310.78" x2="0" y2="292.42"><stop offset="0.387" stop-opacity="0.25" stop-color="#892531"/><stop offset="0.434" stop-opacity="0.36" stop-color="#8e2430"/><stop offset="0.49" stop-opacity="0.49" stop-color="#9c212d"/><stop offset="0.551" stop-opacity="0.629" stop-color="#b41b29"/><stop offset="0.56" stop-opacity="0.65" stop-color="#b81a28"/><stop offset="0.768" stop-color="#6d151a"/></linearGradient><linearGradient id="2" gradientUnits="userSpaceOnUse" x1="789.42" x2="803.87"><stop stop-color="#6d151a"/><stop offset="0.222" stop-color="#6d0710"/><stop offset="0.466" stop-color="#892531"/><stop offset="0.677" stop-color="#6d151a"/></linearGradient><linearGradient id="B" gradientUnits="userSpaceOnUse" y1="105.29" x2="0" y2="380.23"><stop offset="0.043" stop-color="#e0c8c8"/><stop offset="0.239" stop-color="#dcc6c5"/><stop offset="0.438" stop-color="#d0bfbd"/><stop offset="0.534" stop-color="#c7bbb7"/><stop offset="1" stop-color="#7d7372"/></linearGradient><linearGradient id="4" gradientUnits="userSpaceOnUse" x1="845.44" y1="234.87" x2="917.99" y2="552"><stop stop-color="#3c0908"/><stop stop-color="#3c0908" offset="0.313"/><stop stop-color="#892531" offset="0.356"/><stop stop-color="#691d22" offset="0.387"/><stop stop-color="#892531" offset="0.509"/><stop stop-color="#6d151a" offset="0.601"/><stop stop-color="#591013" offset="0.606"/><stop stop-color="#490c0d" offset="0.611"/><stop stop-color="#3f0a09" offset="0.618"/><stop stop-color="#3c0908" offset="0.626"/></linearGradient><linearGradient id="7" gradientUnits="userSpaceOnUse" x1="1022.2" y1="302.47" x2="968.93" y2="461.24"><stop stop-color="#892531"/><stop offset="0.6" stop-color="#3c0908"/></linearGradient><linearGradient id="A" gradientUnits="userSpaceOnUse" y1="109.33" x2="0" y2="375.26"><stop stop-color="#b9b4b8"/><stop offset="0.062" stop-color="#b6b0b4"/><stop offset="0.126" stop-color="#ada4a7"/><stop offset="0.19" stop-color="#9d9193"/><stop offset="0.227" stop-color="#918384"/><stop offset="0.326" stop-color="#968a8b"/><stop offset="0.468" stop-color="#a49c9e"/><stop offset="0.596" stop-color="#b5b3b5"/><stop offset="0.651" stop-color="#aca4a3"/><stop offset="0.652" stop-color="#988c8c"/><stop offset="0.652" stop-color="#918384"/><stop offset="0.896" stop-color="#918384"/><stop offset="1" stop-color="#918384"/></linearGradient><linearGradient id="5" gradientUnits="userSpaceOnUse" x1="977.38" y1="450.24" x2="1022.7" y2="299.94"><stop offset="0.46" stop-color="#3c0908"/><stop offset="1" stop-color="#6d151a"/></linearGradient><linearGradient id="H" gradientUnits="userSpaceOnUse" y1="372.23" x2="0" y2="249.29"><stop stop-opacity="0.5" stop-color="#c7bbb7"/><stop offset="0.46" stop-opacity="0.264" stop-color="#c8bdb9"/><stop offset="0.66" stop-opacity="0.161" stop-color="#cdc4c0"/><stop offset="0.81" stop-opacity="0.084" stop-color="#d5cfcd"/><stop offset="0.935" stop-opacity="0.02" stop-color="#e1dfdf"/><stop offset="0.974" stop-opacity="0" stop-color="#e6e6e6"/></linearGradient><linearGradient id="L" gradientUnits="userSpaceOnUse" x1="446.35" y1="40.45" x2="481.36" y2="440.63"><stop offset="0.32" stop-color="#3c0908"/><stop offset="0.336" stop-color="#892531"/><stop offset="0.369" stop-color="#691d22"/><stop offset="0.638" stop-color="#6d151a"/><stop offset="0.638" stop-color="#6a1419"/><stop offset="0.638" stop-color="#621216"/><stop offset="0.639" stop-color="#540f11"/><stop offset="0.639" stop-color="#3f0a09"/><stop offset="0.639" stop-color="#3c0908"/><stop offset="1" stop-color="#3c0908"/></linearGradient><linearGradient id="V" gradientUnits="userSpaceOnUse" x1="39.36" y1="74.08" x2="18.13" y2="144.98"><stop offset="0.095" stop-color="#ffeded"/><stop offset="0.129" stop-color="#ffe8eb"/><stop offset="0.171" stop-color="#ffd8e4"/><stop offset="0.184" stop-color="#ffd2e1"/><stop offset="0.902" stop-opacity="0" stop-color="#fb1d31"/></linearGradient><radialGradient r="86.995" cx="796.08" cy="300.6" gradientUnits="userSpaceOnUse" id="R"><stop stop-opacity="0.8"/><stop offset="1" stop-opacity="0"/></radialGradient><radialGradient r="330.87" cx="284.76" cy="281.87" gradientUnits="userSpaceOnUse" id="Q"><stop offset="0.417" stop-color="#801519"/><stop offset="0.476" stop-opacity="0.899" stop-color="#8b181d"/><stop offset="0.706" stop-opacity="0.505" stop-color="#b3212c"/><stop offset="0.888" stop-opacity="0.192" stop-color="#cb2736"/><stop offset="1" stop-opacity="0" stop-color="#d42939"/></radialGradient><radialGradient xlink:href="#8" id="C" gradientUnits="userSpaceOnUse" cx="404.02" cy="320" r="370.95"/><radialGradient r="65.07" cx="292.47" cy="273.9" gradientUnits="userSpaceOnUse" id="P"><stop stop-color="#b81a28"/><stop offset="1" stop-opacity="0" stop-color="#b81a28"/></radialGradient><radialGradient r="440.69" cx="555.74" cy="150.56" gradientUnits="userSpaceOnUse" id="g"><stop offset="0.417" stop-color="#801519"/><stop offset="0.802" stop-color="#bb232f"/><stop offset="1" stop-color="#d42939"/></radialGradient><radialGradient r="33.497" gradientTransform="matrix(0.9969 0.0092 -0.0166 1.8043 9.06 -311.04)" cx="823.15" cy="376.75" gradientUnits="userSpaceOnUse" id="9"><stop offset="0.239" stop-color="#e0dddc"/><stop offset="0.491" stop-opacity="0.67" stop-color="#e5e3e2"/><stop offset="0.826" stop-opacity="0.229" stop-color="#f4f3f3"/><stop offset="1" stop-opacity="0" stop-color="#fff"/></radialGradient><radialGradient r="370.95" cx="683" cy="518" gradientUnits="userSpaceOnUse" id="8"><stop offset="0.096" stop-color="#e5e5e5"/><stop offset="0.591" stop-color="#fff"/></radialGradient><radialGradient xlink:href="#M" id="Z" gradientUnits="userSpaceOnUse" cx="790.12" cy="70.33" r="19.1"/><radialGradient xlink:href="#N" id="3" gradientUnits="userSpaceOnUse" cx="685.33" cy="226" r="69.2"/><radialGradient r="19.1" cx="1069.1" cy="268.33" gradientUnits="userSpaceOnUse" id="M"><stop stop-color="#6d151a"/><stop offset="0.447" stop-color="#6d151a"/><stop offset="0.677" stop-opacity="0.585" stop-color="#751a21"/><stop offset="1" stop-opacity="0" stop-color="#892531"/></radialGradient><radialGradient xlink:href="#P" id="U" gradientUnits="userSpaceOnUse" cx="13.487" cy="75.9" r="65.07"/><radialGradient xlink:href="#9" id="6" gradientUnits="userSpaceOnUse" gradientTransform="matrix(0.9969 0.0092 -0.0166 1.8043 9.06 -311.04)" cx="823.15" cy="376.75" r="33.497"/><radialGradient xlink:href="#R" id="S" gradientUnits="userSpaceOnUse" cx="517.1" cy="102.6" r="86.995"/><radialGradient xlink:href="#Q" id="T" gradientUnits="userSpaceOnUse" cx="5.777" cy="83.87" r="330.87"/><radialGradient xlink:href="#g" id="h" gradientUnits="userSpaceOnUse" cx="276.76" cy="-47.44" r="440.69"/><radialGradient xlink:href="#n" id="o" gradientUnits="userSpaceOnUse" cx="755.02" cy="344.81" fx="643.07" fy="346.94" r="388.33"/><radialGradient id="n" fx="922.05" fy="544.94" gradientUnits="userSpaceOnUse" cy="542.81" cx="1034" r="388.33"><stop stop-color="#574d4c"/><stop stop-color="#615554" offset="0.21"/><stop stop-color="#756465" offset="0.485"/><stop stop-color="#7c6c6c" offset="0.541"/><stop stop-color="#978a87" offset="0.791"/><stop stop-color="#a19591" offset="0.932"/></radialGradient><radialGradient r="83.44" cx="783.33" cy="336.48" gradientUnits="userSpaceOnUse" id="x"><stop stop-color="#756465"/><stop offset="0.362" stop-opacity="0" stop-color="#574d4c"/></radialGradient><radialGradient xlink:href="#l" id="m" gradientUnits="userSpaceOnUse" cx="4.757" cy="387.97" r="30.15"/><radialGradient xlink:href="#j" id="k" gradientUnits="userSpaceOnUse" cx="789.52" cy="388" r="46.917"/><radialGradient id="j" gradientUnits="userSpaceOnUse" cy="586" cx="1068.5" r="46.917"><stop stop-color="#ffd2e1"/><stop stop-color="#ffd2e1" offset="0.068"/><stop stop-color="#b81a28" stop-opacity="0" offset="0.847"/><stop stop-color="#6d151a" stop-opacity="0" offset="1"/></radialGradient><radialGradient id="l" gradientUnits="userSpaceOnUse" cy="585.97" cx="283.74" r="30.15"><stop stop-color="#6d151a"/><stop stop-color="#6d151a" offset="0.166"/><stop stop-color="#6d151a" stop-opacity="0" offset="0.687"/></radialGradient><radialGradient r="69.2" cx="685.33" cy="226" gradientUnits="userSpaceOnUse" id="N"><stop offset="0.239" stop-color="#b81a28"/><stop offset="0.315" stop-color="#981822"/><stop offset="0.402" stop-color="#79161c"/><stop offset="0.451" stop-color="#6d151a"/></radialGradient><radialGradient xlink:href="#x" id="w" gradientUnits="userSpaceOnUse" cx="783.33" cy="336.48" r="83.44"/><radialGradient xlink:href="#u" id="v" gradientUnits="userSpaceOnUse" cx="560.52" cy="420" r="224"/><radialGradient xlink:href="#O" id="W" gradientUnits="userSpaceOnUse" cx="9.467" cy="71.29" r="48.33"/><radialGradient id="u" gradientUnits="userSpaceOnUse" cy="618" cx="839.5" r="224"><stop stop-color="#756465"/><stop stop-color="#756465" offset="0.622"/><stop stop-color="#7c6c6c" offset="0.67"/><stop stop-color="#978a87" offset="0.881"/><stop stop-color="#a19591" offset="1"/></radialGradient><radialGradient id="s" gradientUnits="userSpaceOnUse" cy="515.96" cx="730" r="337.09"><stop stop-color="#a8a1a6" offset="0.014"/><stop stop-color="#a8a1a6" offset="0.183"/><stop stop-color="#a19591" offset="0.334"/><stop stop-color="#a59894" offset="0.415"/><stop stop-color="#b1a19d" offset="0.498"/><stop stop-color="#c6b0ad" offset="0.581"/><stop stop-color="#c9b2af" offset="0.592"/><stop stop-color="#c2adaa" offset="0.685"/><stop stop-color="#af9f9c" offset="0.819"/><stop stop-color="#a19591" offset="0.896"/></radialGradient><radialGradient r="48.33" cx="288.45" cy="269.29" gradientUnits="userSpaceOnUse" id="O"><stop offset="0.123" stop-color="#ffeded"/><stop offset="0.189" stop-color="#ffd5e2"/><stop offset="0.196" stop-color="#ffd2e1"/><stop offset="1" stop-opacity="0" stop-color="#fb1d31"/></radialGradient><radialGradient xlink:href="#s" id="t" gradientUnits="userSpaceOnUse" cx="451.02" cy="317.96" r="337.09"/></defs><path d="m 796.02 98 v -16 c 0 -11 -9 -20 -20 -20 h -256 v -62 l -119 47 v 15 h -381 c -11 0 -20.09 9.09 -20 20 v 294 c 0 11 9 20 20 20 h 756 c 10.984 0.125 20.03 -8.922 20 -20 v -106 l 62 -172 h -62 z" fill="url(#i)"/><path d="m 766.42 62 c -0.1 -0.06 -246.4 0 -246.4 0 v -62 l -119 47 v 15.01 h -380.89 c -11.52 -0.001 -20.11 9.63 -20.11 19.45 v 215.54 l 9 5 l 375.56 -0.041 c 0 0 167.42 5.828 295.53 -119.51 55.896 -54.681 82.62 -107.7 86.32 -120.45 z" fill="url(#h)"/><path fill="#e5e5e5" d="m 320.02 207.66 h 69 v 51.23 h -69 z"/><path d="m 784.12 383.73 l 6.313 6.146 c -6.313 6.641 -14.176 6.125 -14.176 6.125 l -756.25 0.016 c 0 0 -8.465 0.545 -15.06 -6.874 l 8.146 -4.573 c 3.294 2.615 6.91 2.447 6.91 2.447 h 756.25 c -0.0001 0 4.8 0.005 7.863 -3.287 z" fill="url(#f)"/><path d="m 520.02 62 h 256.55 c 0 0 8.218 -0.156 14.188 6.514 l -5.855 5.903 c -3.395 -3.793 -9.849 -3.358 -9.849 -3.358 h -263.06 l 8.06 -9.05 z" fill="url(#e)"/><path d="m 13.11 384.55 l -8.146 4.573 c -5.23 -5.95 -4.94 -12.55 -4.94 -12.55 v -79.59 l 9 5.02 v 74.57 c 0 0.0001 0 4.602 4.09 7.988 z" fill="url(#d)"/><path d="m 796.02 270.04 v 106.26 c 0 0 0.473 7.302 -5.563 13.609 l -6.297 -6.203 c 3.469 -3.5 3.193 -9.141 3.193 -9.141 l 0.001 -107.51 l 8.659 2.983 z" fill="url(#c)"/><path d="m 784.92 74.42 l 5.855 -5.903 c 5.1 5.55 5.2 12.48 5.2 12.48 v 17.04 l -8.658 6.958 v -22.859 c 0 0 0.221 -4.469 -2.462 -7.724 z" fill="url(#b)"/><path d="m 64.957 396 h -44.44 c -11.961 0.193 -20.958 -9.632 -20.5 -20.326 v -8.67 l 9 -11 l 0.002 20.657 c 0.11 4.781 4.779 10.499 10.749 10.343 h 35.37 l 9.816 9 z" fill="url(#m)"/><path d="m 796.02 298 v 77.51 c 0.368 11.08 -8.507 20.46 -19.675 20.5 h -117.13 l -12 -9 l 128.57 -0.002 c 6.249 0.024 11.593 -3.913 11.599 -12.436 v -76.57 h 8.673 z" fill="url(#k)"/><path transform="translate(-278.98 -198)" fill="url(#0)" d="M 1137 296 1075 468.04 1069.3 466.08 1128.4 302"/><path transform="translate(-278.98 -198)" fill="url(#1)" d="m 1137 296 l -10 7 h -60.7 l 8.7 -6.96"/><path d="m 760.72 71.05 l 14.614 0.031 c 4.334 -0.12 7.808 1.349 9.531 3.344 1.625 1.75 2.481 4.63 2.511 7.599 v 22.98 l 8.7 -6.96 v -16.04 c 0 -11.05 -8.954 -20 -20 -20 h -15.333 l 0.031 9.05 z" fill="url(#Z)"/><path transform="translate(-278.98 -198)" fill="url(#2)" d="m 799 198 v 62 l -8.06 9.06 v -58.85"/><path transform="translate(-278.98 -198)" fill="url(#3)" d="M 680 260 680 245 799 198 790.94 210.21 689 250.03 689 269"/><path d="m 0.017 81.46 v 215.54 l 9 5 v -220.54 c 0 -2.53 1.199 -5.203 3.241 -7.216 l -6.346 -6.346 c -3.68 3.653 -5.895 8.58 -5.895 13.562 z" fill="url(#Y)"/><path d="m 410.02 71 l -9 -9 h -380.89 c -5.678 -0.0001 -10.637 2.346 -14.213 5.896 l 6.346 6.346 c 1.95 -1.922 4.668 -3.241 7.865 -3.241 h 389.88 z" fill="url(#X)"/><path d="m 410.04 71.01 l -9.04 -9 c 0 0 -380.6 -0.019 -380.87 -0.019 -5.678 -0.0001 -10.696 2.444 -14.272 5.994 l 6.328 6.328 c 1.95 -1.922 4.651 -3.32 7.849 -3.32 l 390 0.019 z" fill="url(#W)"/><path d="m 0.017 81.46 v 215.54 l 9 5 v -220.54 c 0 -2.53 1.199 -5.203 3.241 -7.216 l -6.346 -6.346 c -3.68 3.653 -5.895 8.58 -5.895 13.562 z" fill="url(#V)"/><path d="m 20.13 70 c -7.14 0 -12.11 6.04 -12.11 11.46 v 50.54 h 1 v -50.54 c 0 -5.107 4.8 -10.457 11.11 -10.457 h 69.89 v -1 h -69.894 z" opacity="0.3" fill="url(#U)"/><path d="m 0.517 297.28 v -215.82 c 0 -9.155 7.878 -18.957 19.606 -18.957 h 381.39 l -0.5 -0.5 h -380.89 c -11.38 0 -20.11 9.5 -20.11 19.46 v 215.54 l 0.5 0.284 z" fill="url(#T)"/><path d="m 520.02 15.66 c -0.97 -0.032 -1.941 -0.054 -2.919 -0.054 -48.05 0 -86.995 38.949 -86.995 86.996 0 48.05 38.949 86.996 86.995 86.996 48.05 0 86.996 -38.949 86.996 -86.996 0 -14.658 -3.631 -28.467 -10.03 -40.584 h -74.05 v -46.36 z" fill="url(#S)"/><path d="m 408.02 70.08 l -393.17 -0.08 c -4.417 0 -3.417 -5.917 4.833 -6 h 382.13 l 6.21 6.083 z" opacity="0.75" fill="url(#y)"/><path d="m 391.02 388.23 l 390.58 0.091 c 9.541 -5.196 3.416 6.584 -4.834 6.677 h -385.04 l -0.757 -6.77 z" opacity="0.35" fill="url(#z)"/><path d="m 506.02 14.56 l -96 37.471 v 18.97 l -4 18.681 v 191.69 c 0 33.29 10.771 54.982 34.04 66.15 25.46 12.23 65.91 11.48 65.96 11.48 v -344.44 z" fill="url(#L)"/><path d="m 299.02 356 h -98.8 v -143.46 c 0 -18.18 -2.106 -35.926 -27.28 -35.926 -20.794 0 -31.25 12.759 -31.25 35.926 v 141.15 l -5 2.313 h -101.67 v -250.38 h 105.67 v 16.843 c 1.941 -1.384 3.44 -2.455 3.704 -2.647 10.292 -7.52 24.388 -17.819 60.48 -17.819 15.979 0 41.27 2.463 61.47 14.197 25.659 14.9 36.67 40.02 36.67 74.66 v 163.14 l -4 2 z" fill="url(#K)"/><path d="m 196.22 356 v -144.46 c 0 -18.18 -2.106 -35.926 -27.28 -35.926 -20.795 0 -32.25 12.759 -32.25 35.926 v 144.46 h -105.67 v -251.38 h 105.67 v 16.843 c 1.941 -1.385 3.44 -2.456 3.705 -2.648 10.291 -7.52 24.387 -17.818 60.48 -17.818 15.979 0 39.27 2.463 59.47 14.197 25.659 14.9 38.669 40.02 38.669 74.66 v 166.14 h -102.8 z" fill="url(#J)"/><path d="m 197.22 355 v -143.46 c 0 -17.866 -2.186 -36.926 -28.28 -36.926 -21.439 0 -33.25 13.11 -33.25 36.926 v 143.46 h -103.67 v -249.38 h 103.67 v 17.784 c 2.668 -1.902 4.961 -3.539 5.293 -3.781 10.186 -7.442 24.13 -17.627 59.892 -17.627 15.856 0 38.958 2.439 58.97 14.06 25.34 14.71 38.18 39.54 38.18 73.8 v 165.14 h -100.8 z" fill="url(#I)"/><path d="m 259.86 116.09 c -20.01 -11.65 -43.11 -14.09 -58.96 -14.09 -1.553 0 -3.051 0.026 -4.523 0.063 v 95.58 c 0.709 4.53 0.869 9.349 0.869 14.09 v 90.24 h 100.77 v -111.95 c 0 -34.32 -12.84 -59.19 -38.16 -73.926 z" fill="url(#H)"/><path transform="translate(-278.98 -198)" fill="url(#4)" d="m 791 302.19 v 74.61 h 61.52 l 67.4 174.56 l 3.8 1.83 l 54.55 -117.6 l -46.36 -133.4"/><path transform="translate(-278.98 -198)" fill="url(#5)" d="M 1018.2 312.18 977.68 433.89 980.5 442 1026.7 301.98"/><path d="m 512.8 359 c -22.932 0 -49.09 -0.878 -69.29 -11.366 -22.853 -11.867 -33.496 -33.606 -33.496 -66.27 v -229.33 l 101.94 -39.819 v 91.97 h 140.98 l 48.573 139.85 l 46.22 -140.03 h 101.72 l -90.5 251.22 l -114.24 -0.04 l -67.48 -176.38 h -65.27 v 90.1 c 0 10.152 3.978 14.333 13.728 14.429 l 0.22 -0.007 c 5.076 -0.121 22.23 -0.542 29.42 -0.836 l 6.244 -0.255 v 73.12 l -5.209 0.692 c -8.265 1.099 -24.91 2.943 -43.551 2.943 z" fill="url(#G)"/><path d="m 525.67 284.34 c -5.095 -0.05 -8.742 -1.208 -11.134 -3.651 -41.811 13.329 -78.39 18.369 -101.99 20.241 3.683 21.72 14.06 36.798 31.431 45.819 20 10.384 46.02 11.254 68.831 11.254 18.581 0 35.18 -1.839 43.42 -2.935 l 4.341 -0.577 v -71.21 l -5.203 0.212 c -7.982 0.325 -28.24 0.809 -29.691 0.844 z" fill="url(#v)"/><path d="m 748.42 105 l -46.51 140.15 l -48.64 -139.96 h -142.31 v -91.51 l -99.94 39.04 v 228.65 c 0 6.924 0.541 13.632 1.526 19.56 23.606 -1.872 60.18 -6.912 101.99 -20.241 -2.451 -2.504 -3.584 -6.357 -3.584 -11.777 v -91.1 h 66.956 l 67.48 176.38 l 112.85 0.04 l 89.8 -249.23 h -99.57 z" fill="url(#t)"/><path fill="url(#r)" d="m 37.02 301.96 h 93.67 v 47.04 h -93.67 z"/><path fill="url(#q)" d="m 202.22 301.96 h 90.8 v 47.04 h -90.8 z"/><path d="m 509.43 282.28 c -36.85 11.276 -69.29 16.14 -91.86 18.214 3.499 19.877 12.981 33.642 28.715 41.813 19 9.863 44.3 10.691 66.53 10.691 18.243 0 34.513 -1.794 42.759 -2.891 v -61.62 c -8.376 0.341 -29.855 0.848 -29.855 0.848 -7.639 -0.059 -13.07 -2.434 -16.282 -7.06 z" fill="url(#F)"/><path d="m 748.42 105 l -46.536 140.15 l -21.795 -62.709 c -24.937 24.396 -51.36 43.825 -77.75 59.29 l 43.02 112.45 l 112.85 0.04 l 89.8 -249.22 h -99.57 z" fill="url(#o)"/><path d="m 752.02 110 l -50.01 150.66 l -25.85 -74.4 c -22.382 21.298 -45.882 38.688 -69.42 52.88 l 42.1 110.04 l 105.91 0.04 l 86.13 -239.22 h -88.82 z" fill="url(#E)"/><use width="1412.38" height="800" xlink:href="#15" transform="translate(-278.98 -198)" opacity="0.75" fill="url(#w)"/><g fill="#c9b2af"><path d="m 202.22 348 h 90.8 v 1 h -90.8 z"/><path d="m 37.02 348 h 93.67 v 1 h -93.67 z"/><path d="m 446.28 341.31 c -15.47 -8.03 -25.08 -21.489 -28.715 -40.831 -0.064 0.006 0.064 0.013 0 0.019 3.499 19.877 12.981 33.642 28.715 41.813 19 9.862 44.3 10.69 66.53 10.69 18.243 0 34.513 -1.794 42.759 -2.891 v -1 c -8.246 1.097 -24.516 2.891 -42.759 2.891 -22.22 0 -47.526 -0.828 -66.53 -10.691 z"/><path transform="translate(-278.98 -198)" d="m 1034.1 546.22 l -0.4 1 l -105.89 -0.04 l -0.38 -1"/></g><path d="m 200.88 106 c -34.14 0 -47.32 9.633 -56.941 16.664 -0.863 0.63 -13.243 9.445 -13.243 9.445 v -22.476 h -93.68 v 192.34 h 93.67 v -91.42 c 0 -26.645 13.94 -41.926 38.25 -41.926 33.28 0 33.28 28.316 33.28 41.926 v 91.42 h 90.8 v -113.1 c 0 -74.79 -64.44 -82.86 -92.14 -82.86 z" fill="url(#D)"/><path d="m 649.72 110.19 h -143.76 v -89.19 l -89.94 35.13 v 225.24 c 0 6.916 0.518 13.284 1.546 19.13 22.573 -2.074 55.01 -6.938 91.86 -18.214 -2.301 -3.309 -3.475 -7.76 -3.475 -13.374 v -96.1 h 75.4 l 25.38 66.34 c 23.541 -14.191 47.04 -31.582 69.42 -52.88 l -26.439 -76.07 z" fill="url(#C)"/><path fill="url(#B)" d="m 320.02 198 h 71 v 61 h -71 z"/><path fill="url(#A)" d="m 321.02 199 h 69 v 59 h -69 z"/><path fill="#f2f2f2" d="m 326.02 204 h 59 v 49 h -59 z"/><path transform="translate(-278.98 -198)" fill="url(#6)" d="m 856.89 375.8 l -0.69 1 h -66.26 v -1"/><path transform="translate(-278.98 -198)" fill="url(#7)" d="M 1018.2 312.18 977.68 433.89 978.27 435.59 1020 310.04"/></svg>