<?xml version="1.0" encoding="UTF-8" standalone="no"?>
<!-- Created with Inkscape (http://www.inkscape.org/) -->
<svg
   xmlns:svg="http://www.w3.org/2000/svg"
   xmlns="http://www.w3.org/2000/svg"
   version="1.0"
   width="1133.8583"
   height="405"
   id="svg2">
  <defs
     id="defs4">
    <clipPath
       id="clipPath2642">
      <path
         d="M 317.48,107.008 L 568.926,107.008 L 568.926,27.322 L 317.48,27.322 L 317.48,107.008"
         id="path2644" />
    </clipPath>
    <clipPath
       id="clipPath2514">
      <path
         d="M 117.116,268.49 L 126.996,228.864 L 263.799,262.972 L 253.919,302.599 L 117.116,268.49"
         id="path2516" />
    </clipPath>
    <clipPath
       id="clipPath2506">
      <path
         d="M 170.034,256.903 L 219.267,269.034 C 219.267,269.034 221.315,269.553 223.488,269.959 C 226.012,270.429 227.754,270.616 229.432,270.704 C 231.337,270.803 232.741,270.813 234.908,270.378 C 236.519,270.054 238.375,268.967 238.375,268.967 C 238.375,268.967 240.646,268.746 241.158,268.587 C 241.726,268.411 243.945,267.937 244.129,267.135 C 244.286,266.451 243.768,265.718 242.608,264.747 C 240.975,263.381 239.514,262.369 237.891,261.456 C 235.525,260.126 233.347,259.401 231.783,258.952 C 231.127,258.764 230.27,258.501 230.27,258.501 L 212.158,253.925 L 212.509,252.216 L 212.458,252.07 L 212.062,251.575 L 211.966,251.477 C 211.966,251.477 209.544,250.482 207.526,249.97 C 206.003,249.583 204.384,249.338 204.384,249.338 C 204.384,249.338 203.169,248.86 202.032,248.729 C 200.721,248.577 200.255,248.659 200.255,248.659 L 200.177,248.75 L 200.519,249.37 L 200.366,249.967 L 199.526,249.753 L 199.591,249.53 L 198.384,249.666 L 197.163,249.542 L 186.394,247.027 L 184.124,246.83 L 183.054,246.618 C 183.054,246.618 178.866,245.694 177.163,245.361 C 175.46,245.029 172.541,244.609 170.762,244.42 C 167.437,244.066 161.32,243.743 154.748,243.855 C 150.282,243.931 142.351,245.041 141.625,245.392 C 141.5,245.453 141.218,246.065 141.218,246.065 L 140.352,246.807 L 140.023,247.61 L 139.815,247.632 L 135.738,247.813 C 135.738,247.813 137.047,248.397 137.537,248.575 C 138.026,248.752 138.867,248.998 139.045,249.024 C 139.222,249.05 142.173,249.325 142.173,249.325 L 130.481,270.966 L 134.001,271.834 C 134.001,271.834 134.574,271.976 134.951,272.009 C 135.292,272.04 135.434,271.966 135.563,271.92 C 135.836,271.822 151.133,260.602 151.133,260.602 C 151.133,260.602 153.385,258.805 155.08,258.131 C 155.52,257.957 156.84,257.385 158.662,257.234 C 160.316,257.097 162.363,257.124 164.198,257.087 C 167.005,257.03 169.354,256.955 169.354,256.955 L 169.638,256.851 L 170.034,256.903"
         id="path2508" />
    </clipPath>
    <clipPath
       id="clipPath2498">
      <path
         d="M 117.116,268.49 L 126.996,228.864 L 263.799,262.972 L 253.919,302.599"
         id="path2500" />
    </clipPath>
    <clipPath
       id="clipPath2488">
      <path
         d="M 0.03,419.528 L 595.276,419.528 L 595.276,0.03 L 0.03,0.03 L 0.03,419.528 z"
         id="path2490" />
    </clipPath>
    <clipPath
       id="clipPath2476">
      <path
         d="M 61.758,30.328 L 97.692,30.229 C 97.692,30.229 99.189,30.235 100.753,30.141 C 102.57,30.032 103.8,29.862 104.969,29.634 C 106.296,29.376 107.263,29.142 108.678,28.472 C 109.731,27.973 110.821,26.907 110.821,26.907 C 110.821,26.907 112.344,26.365 112.669,26.168 C 113.03,25.95 114.475,25.243 114.463,24.66 C 114.454,24.163 113.972,23.748 113.008,23.279 C 111.65,22.62 110.473,22.174 109.2,21.825 C 107.345,21.316 105.723,21.19 104.57,21.15 C 104.087,21.133 103.453,21.1 103.453,21.1 L 90.213,21.058 L 90.162,19.823 L 90.102,19.731 L 89.744,19.458 L 89.662,19.408 C 89.662,19.408 87.825,19.138 86.35,19.132 C 85.236,19.127 84.081,19.237 84.081,19.237 C 84.081,19.237 83.163,19.116 82.359,19.221 C 81.431,19.342 81.125,19.477 81.125,19.477 L 81.087,19.553 L 81.429,19.921 L 81.426,20.358 L 80.812,20.355 L 80.818,20.19 L 80.011,20.491 L 79.15,20.615 L 71.314,20.732 L 69.719,20.985 L 68.947,21.023 C 68.947,21.023 65.909,21.106 64.681,21.169 C 63.453,21.233 61.373,21.444 60.117,21.619 C 57.77,21.946 53.509,22.772 49.009,23.976 C 45.951,24.794 40.687,26.918 40.248,27.283 C 40.172,27.347 40.084,27.816 40.084,27.816 L 39.615,28.475 L 39.527,29.083 L 39.388,29.134 L 36.615,29.957 C 36.615,29.957 37.615,30.135 37.982,30.173 C 38.35,30.211 38.97,30.236 39.096,30.223 C 39.223,30.211 41.299,29.894 41.299,29.894 L 36.97,46.78 L 39.539,46.773 C 39.539,46.773 39.957,46.773 40.223,46.731 C 40.462,46.694 40.547,46.618 40.628,46.564 C 40.799,46.45 49.394,36.112 49.394,36.112 C 49.394,36.112 50.634,34.49 51.685,33.737 C 51.957,33.541 52.767,32.922 53.994,32.505 C 55.108,32.127 56.52,31.795 57.775,31.455 C 59.696,30.935 61.299,30.481 61.299,30.481 L 61.476,30.36 L 61.758,30.328"
         id="path2478" />
    </clipPath>
    <clipPath
       id="clipPath2468">
      <path
         d="M 127.276,47.369 L 27.354,47.369 L 27.354,18.426 L 127.276,18.426 L 127.276,47.369 z"
         id="path2470" />
    </clipPath>
    <clipPath
       id="clipPath2458">
      <path
         d="M 0.03,419.528 L 595.276,419.528 L 595.276,0.03 L 0.03,0.03 L 0.03,419.528 z"
         id="path2460" />
    </clipPath>
    <clipPath
       id="clipPath2440">
      <path
         d="M 0.03,419.528 L 595.276,419.528 L 595.276,0.03 L 0.03,0.03 L 0.03,419.528 z"
         id="path2442" />
    </clipPath>
    <clipPath
       id="clipPath3487">
      <path
         d="M 471.968,44.595 L 574.293,44.595 L 574.293,62.362 L 471.968,62.362 L 471.968,44.595 z"
         id="path3489" />
    </clipPath>
    <clipPath
       id="clipPath3389">
      <path
         d="M 181.417,13.621 L 246.06,13.621 L 246.06,30.308 L 181.417,30.308 L 181.417,13.621 z"
         id="path3391" />
    </clipPath>
    <clipPath
       id="clipPath3347">
      <path
         d="M 398.741,42.377 L 432.725,42.377 L 432.725,66.143 L 398.741,66.143 L 398.741,42.377 z"
         id="path3349" />
    </clipPath>
    <clipPath
       id="clipPath3287">
      <path
         d="M 442.205,12.323 L 525.995,12.323 L 525.995,38.67 L 442.205,38.67 L 442.205,12.323 z"
         id="path3289" />
    </clipPath>
    <clipPath
       id="clipPath3231">
      <path
         d="M 302.791,15.623 L 375.591,15.623 L 375.591,31.725 L 302.791,31.725 L 302.791,15.623 z"
         id="path3233" />
    </clipPath>
    <clipPath
       id="clipPath3197">
      <path
         d="M 312.52,46.551 L 356.049,46.551 L 356.049,64.323 L 312.52,64.323 L 312.52,46.551 z"
         id="path3199" />
    </clipPath>
    <clipPath
       id="clipPath3149">
      <path
         d="M 201.26,49.639 L 280.113,49.639 L 280.113,63.615 L 201.26,63.615 L 201.26,49.639 z"
         id="path3151" />
    </clipPath>
    <clipPath
       id="clipPath3137">
      <path
         d="M 106.095,50.283 L 169.913,50.283 L 169.913,61.489 L 106.095,61.489 L 106.095,50.283 z"
         id="path3139" />
    </clipPath>
    <clipPath
       id="clipPath3101">
      <path
         d="M 64.168,12.938 L 124.725,12.938 L 124.725,29.251 L 64.168,29.251 L 64.168,12.938 z"
         id="path3103" />
    </clipPath>
    <clipPath
       id="clipPath3093">
      <path
         d="M 21.968,49.299 L 75.578,49.299 L 75.578,62.362 L 21.968,62.362 L 21.968,49.299 z"
         id="path3095" />
    </clipPath>
    <clipPath
       id="clipPath3085">
      <path
         d="M 0,0 L 595.276,0 L 595.276,841.89 L 0,841.89 L 0,0 z"
         id="path3087" />
    </clipPath>
    <clipPath
       id="clipPath3077">
      <path
         d="M 0,0 L 595.276,0 L 595.276,841.89 L 0,841.89 L 0,0 z"
         id="path3079" />
    </clipPath>
  </defs>
  <g
     transform="translate(-188.35894,-146.58095)"
     id="layer1">
    <g
       transform="translate(35.432458,35.37572)"
       id="g4115">
      <g
         transform="matrix(1.25,0,0,-1.25,442.39795,359.14547)"
         id="g3073">
        <g
           clip-path="url(#clipPath3077)"
           id="g3075" />
      </g>
      <g
         transform="matrix(1.25,0,0,-1.25,442.39795,359.14547)"
         id="g3081">
        <g
           clip-path="url(#clipPath3085)"
           id="g3083" />
      </g>
      <g
         transform="matrix(1.25,0,0,-1.25,442.39795,359.14547)"
         id="g3089">
        <g
           clip-path="url(#clipPath3093)"
           id="g3091" />
      </g>
      <path
         d="M 538.27139,420.50815 L 504.61437,420.50815 L 479.41919,366.31185 L 462.48284,366.31185 L 462.48284,420.50815 L 431.16012,420.50815 L 431.16012,279.30853 L 480.47216,279.30853 C 511.38891,279.30853 531.71252,289.47033 531.71252,323.34302 C 531.71252,340.49503 524.93798,354.24709 508.42029,360.60297 L 538.27139,420.50815 z M 501.64576,321.64304 C 501.64576,307.89099 494.2369,304.28805 481.75348,304.28805 L 461.84852,304.28805 L 461.84852,340.7107 L 481.75348,340.7107 C 493.60258,340.7107 501.64576,333.92348 501.64576,321.64304"
         id="path3293"
         style="fill:#14295e;fill-opacity:1;fill-rule:evenodd;stroke:none" />
      <path
         d="M 313.8769,146.58095 L 297.15623,146.58095 L 297.15623,279.30606 L 313.8769,279.30606 L 313.8769,146.58095 z"
         id="path3295"
         style="fill:#14295e;fill-opacity:1;fill-rule:nonzero;stroke:none" />
      <path
         d="M 416.7622,370.97804 C 416.7622,406.75369 398.13857,420.50574 363.83454,420.50574 L 313.8755,420.50574 L 313.8755,279.30612 L 363.83454,279.30612 C 396.85724,279.30612 416.7622,293.92085 416.7622,328.41517 L 416.7622,370.97804 z M 386.27678,368.00942 L 386.27678,331.59946 C 386.27678,314.44745 378.44928,305.98562 361.08159,305.98562 L 346.0609,305.98562 L 346.0609,393.83893 L 361.08159,393.83893 C 378.44928,393.83893 386.27678,385.16143 386.27678,368.00942"
         id="path3299"
         style="fill:#14295e;fill-opacity:1;fill-rule:evenodd;stroke:none" />
      <path
         d="M 297.1575,420.50815 L 297.1575,279.30853 L 267.3064,279.30853 L 267.3064,367.16184 L 219.68166,279.30853 L 188.35894,279.30853 L 188.35894,420.50815 L 218.19735,420.50815 L 218.19735,338.16073 L 263.91913,420.50815 L 297.1575,420.50815 z"
         id="path3303"
         style="fill:#14295e;fill-opacity:1;fill-rule:nonzero;stroke:none" />
      <path
         d="M 313.8769,420.50568 L 297.15623,420.50568 L 297.15623,480.82951 L 313.8769,480.82951 L 313.8769,420.50568 z"
         id="path3305"
         style="fill:#14295e;fill-opacity:1;fill-rule:nonzero;stroke:none" />
      <path
         d="M 620.8927,298.49042 C 615.31068,297.50088 613.12862,297.2979 609.53837,297.2979 C 599.98551,297.2979 597.19451,300.68517 597.19451,312.43277 L 597.19451,317.40584 L 616.31291,317.40584 L 616.31291,334.92576 L 597.19451,334.92576 L 597.19451,420.55895 L 574.68883,420.55895 L 574.68883,334.92576 L 560.3532,334.92576 L 560.3532,317.40584 L 574.68883,317.40584 L 574.68883,312.03949 C 574.68883,289.33084 585.24392,278.1795 606.55707,278.1795 C 612.53236,278.1795 616.51589,278.57277 622.2882,279.77798 L 620.8927,298.49042 z"
         id="path3309"
         style="fill:#fbbe5e;fill-opacity:1;fill-rule:nonzero;stroke:none" />
      <path
         d="M 672.28049,346.88016 C 672.28049,338.31684 667.7007,333.34377 659.53066,333.34377 C 651.5636,333.34377 646.98381,338.31684 646.98381,346.88016 L 646.98381,357.43524 L 672.28049,357.43524 L 672.28049,346.88016 z M 694.3802,389.49377 C 694.3802,410.99722 682.23931,422.74483 659.73364,422.74483 C 637.43095,422.74483 624.8841,410.19798 624.8841,387.70499 L 624.8841,351.06667 C 624.8841,327.1655 636.63171,315.21491 659.93662,315.21491 C 683.63482,315.21491 694.3802,326.16327 694.3802,350.06445 L 694.3802,375.15814 L 646.98381,375.15814 L 646.98381,391.28256 C 646.98381,399.24962 651.5636,403.62642 659.93662,403.62642 C 668.48726,403.62642 672.07751,399.4526 672.07751,389.49377 L 672.07751,387.90797 L 694.3802,387.90797 L 694.3802,389.49377 z"
         id="path3313"
         style="fill:#fbbe5e;fill-opacity:1;fill-rule:nonzero;stroke:none" />
      <path
         d="M 759.49174,340.70692 C 744.95313,341.50616 738.99052,344.89343 733.80178,355.63881 C 732.60926,358.03654 732.013,359.82532 732.013,360.42158 L 732.013,420.55512 L 709.52001,420.55512 L 709.52001,317.40201 L 731.02346,317.40201 L 731.02346,333.93238 C 739.3838,320.58629 745.56207,316.61545 759.49174,315.21994 L 759.49174,340.70692 z"
         id="path3317"
         style="fill:#fbbe5e;fill-opacity:1;fill-rule:nonzero;stroke:none" />
      <path
         d="M 816.04136,420.55636 L 816.04136,347.673 C 816.04136,339.70594 813.45333,336.12837 807.28774,336.12837 C 802.09901,336.12837 797.51922,338.51342 792.34317,343.68947 L 792.34317,420.55636 L 769.85018,420.55636 L 769.85018,317.40325 L 790.16111,317.40325 L 791.15065,326.96879 C 800.10724,318.20249 806.28552,315.22119 814.64586,315.22119 C 829.98371,315.22119 838.54703,324.77405 838.54703,341.90069 L 838.54703,420.55636 L 816.04136,420.55636 z"
         id="path3321"
         style="fill:#fbbe5e;fill-opacity:1;fill-rule:nonzero;stroke:none" />
      <path
         d="M 896.89039,343.49543 C 896.89039,335.92165 893.30014,332.54707 884.9398,332.54707 C 877.77199,332.54707 873.97875,335.73135 873.97875,341.69396 C 873.97875,348.07522 878.57123,352.45203 892.29791,359.42955 C 912.62152,369.78165 920.3856,378.94123 920.3856,392.47762 L 920.3856,395.26862 C 920.3856,411.9893 906.83653,422.74736 885.33308,422.74736 C 863.23337,422.74736 849.69699,411.78632 849.69699,393.87312 L 849.69699,389.68661 L 872.18997,389.68661 L 872.18997,392.47762 C 872.18997,401.6372 876.1735,405.62073 885.53606,405.62073 C 893.49044,405.62073 897.47396,402.43644 897.47396,395.86489 C 897.47396,389.09035 893.10984,384.71354 879.56077,377.74871 C 859.64312,367.5869 852.27232,358.6303 852.27232,344.29467 L 852.27232,341.89694 C 852.27232,324.97329 864.22291,315.42043 885.53606,315.42043 C 906.44325,315.42043 918.59682,325.37925 918.59682,342.30291 L 918.59682,346.47673 L 896.89039,346.47673 L 896.89039,343.49543 z"
         id="path3325"
         style="fill:#fbbe5e;fill-opacity:1;fill-rule:nonzero;stroke:none" />
      <path
         d="M 978.32844,346.88016 C 978.32844,338.31684 973.74865,333.34377 965.57861,333.34377 C 957.62424,333.34377 953.04445,338.31684 953.04445,346.88016 L 953.04445,357.43524 L 978.32844,357.43524 L 978.32844,346.88016 z M 1000.4408,389.49377 C 1000.4408,410.99722 988.28726,422.74483 965.78159,422.74483 C 943.49159,422.74483 930.93205,410.19798 930.93205,387.70499 L 930.93205,351.06667 C 930.93205,327.1655 942.69235,315.21491 965.98457,315.21491 C 989.68277,315.21491 1000.4408,326.16327 1000.4408,350.06445 L 1000.4408,375.15814 L 953.04445,375.15814 L 953.04445,391.28256 C 953.04445,399.24962 957.62424,403.62642 965.98457,403.62642 C 974.54789,403.62642 978.13814,399.4526 978.13814,389.49377 L 978.13814,387.90797 L 1000.4408,387.90797 L 1000.4408,389.49377 z"
         id="path3329"
         style="fill:#fbbe5e;fill-opacity:1;fill-rule:nonzero;stroke:none" />
      <path
         d="M 1062.5661,420.55636 L 1062.5661,346.87375 C 1062.5661,339.90892 1059.5848,336.33136 1053.7998,336.33136 C 1048.8267,336.33136 1044.2469,338.51342 1037.8784,343.68947 L 1037.8784,420.55636 L 1015.3727,420.55636 L 1015.3727,282.16043 L 1037.8784,282.16043 L 1037.8784,324.58375 C 1047.6342,317.99951 1054.4087,315.41149 1062.7564,315.41149 C 1077.701,315.41149 1085.0718,324.58375 1085.0718,343.09321 L 1085.0718,420.55636 L 1062.5661,420.55636 z"
         id="path3333"
         style="fill:#fbbe5e;fill-opacity:1;fill-rule:nonzero;stroke:none" />
      <path
         d="M 1147.1361,346.88016 C 1147.1361,338.31684 1142.5563,333.34377 1134.3863,333.34377 C 1126.4319,333.34377 1121.8394,338.31684 1121.8394,346.88016 L 1121.8394,357.43524 L 1147.1361,357.43524 L 1147.1361,346.88016 z M 1169.2358,389.49377 C 1169.2358,410.99722 1157.0949,422.74483 1134.5893,422.74483 C 1112.2866,422.74483 1099.7397,410.19798 1099.7397,387.70499 L 1099.7397,351.06667 C 1099.7397,327.1655 1111.4873,315.21491 1134.7922,315.21491 C 1158.4904,315.21491 1169.2358,326.16327 1169.2358,350.06445 L 1169.2358,375.15814 L 1121.8394,375.15814 L 1121.8394,391.28256 C 1121.8394,399.24962 1126.4319,403.62642 1134.7922,403.62642 C 1143.3556,403.62642 1146.9458,399.4526 1146.9458,389.49377 L 1146.9458,387.90797 L 1169.2358,387.90797 L 1169.2358,389.49377 z"
         id="path3337"
         style="fill:#fbbe5e;fill-opacity:1;fill-rule:nonzero;stroke:none" />
      <path
         d="M 1228.8466,420.55636 L 1228.8466,347.673 C 1228.8466,339.70594 1226.2586,336.12837 1220.0803,336.12837 C 1214.9042,336.12837 1210.3245,338.51342 1205.1484,343.68947 L 1205.1484,420.55636 L 1182.6554,420.55636 L 1182.6554,317.40325 L 1202.9663,317.40325 L 1203.9559,326.96879 C 1212.9125,318.20249 1219.0908,315.22119 1227.4511,315.22119 C 1242.789,315.22119 1251.3523,324.77405 1251.3523,341.90069 L 1251.3523,420.55636 L 1228.8466,420.55636 z"
         id="path3341"
         style="fill:#fbbe5e;fill-opacity:1;fill-rule:nonzero;stroke:none" />
    </g>
  </g>
</svg>
