<?xml version="1.0" encoding="UTF-8" standalone="no"?>
<!-- Created with Inkscape (http://www.inkscape.org/) -->

<svg
   xmlns:dc="http://purl.org/dc/elements/1.1/"
   xmlns:cc="http://creativecommons.org/ns#"
   xmlns:rdf="http://www.w3.org/1999/02/22-rdf-syntax-ns#"
   xmlns:svg="http://www.w3.org/2000/svg"
   xmlns="http://www.w3.org/2000/svg"
   xmlns:sodipodi="http://sodipodi.sourceforge.net/DTD/sodipodi-0.dtd"
   xmlns:inkscape="http://www.inkscape.org/namespaces/inkscape"
   version="1.0"
   width="174.342"
   height="236.93352"
   id="svg25695"
   sodipodi:version="0.32"
   inkscape:version="0.48.3.1 r9886"
   sodipodi:docname="Ö1-Logo_neu.svg"
   inkscape:output_extension="org.inkscape.output.svg.inkscape">
  <metadata
     id="metadata17">
    <rdf:RDF>
      <cc:Work
         rdf:about="">
        <dc:format>image/svg+xml</dc:format>
        <dc:type
           rdf:resource="http://purl.org/dc/dcmitype/StillImage" />
        <dc:title />
      </cc:Work>
    </rdf:RDF>
  </metadata>
  <sodipodi:namedview
     inkscape:window-height="718"
     inkscape:window-width="1024"
     inkscape:pageshadow="2"
     inkscape:pageopacity="0.0"
     guidetolerance="10.0"
     gridtolerance="10.0"
     objecttolerance="10.0"
     borderopacity="1.0"
     bordercolor="#666666"
     pagecolor="#ffffff"
     id="base"
     showgrid="false"
     inkscape:zoom="1.2941176"
     inkscape:cx="102.60317"
     inkscape:cy="157.75114"
     inkscape:window-x="273"
     inkscape:window-y="-11"
     inkscape:current-layer="g4759"
     inkscape:window-maximized="0"
     fit-margin-top="0"
     fit-margin-left="0"
     fit-margin-right="0"
     fit-margin-bottom="0" />
  <defs
     id="defs25697">
    <inkscape:perspective
       sodipodi:type="inkscape:persp3d"
       inkscape:vp_x="0 : 178.5 : 1"
       inkscape:vp_y="0 : 1000 : 0"
       inkscape:vp_z="200 : 178.5 : 1"
       inkscape:persp3d-origin="100 : 119 : 1"
       id="perspective19" />
    <clipPath
       id="clipPath2409"
       clipPathUnits="userSpaceOnUse">
      <path
         id="path2411"
         d="m 2479,3.23047 0,3502.20953 -2479,0 0,-3502.20953 2479,0 z"
         inkscape:connector-curvature="0" />
    </clipPath>
    <inkscape:perspective
       id="perspective2399"
       inkscape:persp3d-origin="372.04724 : 350.78739 : 1"
       inkscape:vp_z="744.09448 : 526.18109 : 1"
       inkscape:vp_y="0 : 1000 : 0"
       inkscape:vp_x="0 : 526.18109 : 1"
       sodipodi:type="inkscape:persp3d" />
  </defs>
  <g
     id="g4759"
     transform="translate(-11.124099,-97.591814)">
    <g
       style="fill:#000000"
       transform="matrix(2.3642732,0,0,2.3642732,-65.048152,-1065.8366)"
       id="g3868">
      <path
         id="path2433"
         style="fill:#000000;fill-opacity:1;fill-rule:evenodd;stroke:none"
         d="m 39.62195,584.04283 c 0,-0.4218 -0.3423,-0.7521 -0.740699,-0.7521 -0.420661,0 -0.752281,0.3303 -0.752281,0.7521 0,0.3975 0.33162,0.7395 0.752281,0.7395 0.398399,0 0.740699,-0.342 0.740699,-0.7395 z m -2.63322,0 c 0,-0.4218 -0.34101,-0.7521 -0.751169,-0.7521 -0.421891,0 -0.751171,0.3303 -0.751171,0.7521 0,0.3975 0.32928,0.7395 0.751171,0.7395 0.410159,0 0.751169,-0.342 0.751169,-0.7395 z m 4.45662,4.5447 c 0,-2.0964 -1.698,-3.7137 -3.817949,-3.7137 -2.11875,0 -3.816811,1.6173 -3.816811,3.7137 0,2.0964 1.698061,3.7137 3.816811,3.7137 2.119949,0 3.817949,-1.6173 3.817949,-3.7137 z m -1.8117,0 c 0,1.1274 -0.96915,2.0274 -2.006249,2.0274 -1.047661,0 -2.00508,-0.9 -2.00508,-2.0274 0,-1.1286 0.957419,-2.0286 2.00508,-2.0286 1.037099,0 2.006249,0.9 2.006249,2.0286"
         inkscape:connector-curvature="0" />
      <path
         id="path2435"
         style="fill:#000000;fill-opacity:1;fill-rule:nonzero;stroke:none"
         d="m 48.05585,589.81783 c 0,-3.0759 -4.2738,-1.5843 -4.2738,-2.7234 0,-0.4089 0.354,-0.6597 1.1286,-0.6597 0.671401,0 1.1964,0.2274 1.8117,0.831 l 1.2645,-1.1169 c -0.648,-0.8778 -1.6863,-1.275 -3.008399,-1.275 -1.583101,0 -3.008101,0.8661 -3.008101,2.2557 0,3.0189 4.2738,1.6395 4.2738,2.7786 0,0.4911 -0.433499,0.7302 -1.321799,0.7302 -0.8097,0 -1.629001,-0.4572 -1.937101,-1.0254 l -1.3218,1.1835 c 0.8658,1.0371 2.0049,1.5048 3.2016,1.5048 1.594801,0 3.1908,-0.8895 3.1908,-2.4834"
         inkscape:connector-curvature="0" />
      <path
         id="path2437"
         style="fill:#000000;fill-opacity:1;fill-rule:nonzero;stroke:none"
         d="m 54.07235,586.69603 0,-1.6863 -5.6286,0 0,1.6863 1.937101,0 0,5.4681 1.754399,0 0,-5.4681 1.9371,0"
         inkscape:connector-curvature="0" />
      <path
         id="path2439"
         style="fill:#000000;fill-opacity:1;fill-rule:nonzero;stroke:none"
         d="m 60.64775,592.16413 0,-1.6746 -4.068899,0 0,-1.1613 3.316499,0 0,-1.6407 -3.316499,0 0,-1.002 4.068899,0 0,-1.6758 -5.824199,0 0,7.1544 5.824199,0"
         inkscape:connector-curvature="0" />
      <path
         id="path2441"
         style="fill:#000000;fill-opacity:1;fill-rule:evenodd;stroke:none"
         d="m 68.15705,592.16413 -1.767,-2.5068 c 0.8436,-0.2379 1.4142,-1.1496 1.4142,-2.1186 0,-1.4238 -1.05,-2.529 -2.644799,-2.529 l -3.635101,0 0,7.1544 1.7553,0 0,-2.0847 1.3104,0 1.377901,2.0847 2.189099,0 z m -2.1093,-4.6137 c 0,0.4791 -0.226199,0.8436 -0.990299,0.8436 l -1.777801,0 0,-1.698 1.777801,0 c 0.7641,0 0.990299,0.3879 0.990299,0.8544"
         inkscape:connector-curvature="0" />
      <path
         id="path2443"
         style="fill:#000000;fill-opacity:1;fill-rule:evenodd;stroke:none"
         d="m 75.459051,592.16413 -1.766101,-2.5068 c 0.842701,-0.2379 1.4145,-1.1496 1.4145,-2.1186 0,-1.4238 -1.049999,-2.529 -2.6436,-2.529 l -3.6363,0 0,7.1544 1.7553,0 0,-2.0847 1.3101,0 1.3794,2.0847 2.186701,0 z m -2.106901,-4.6137 c 0,0.4791 -0.2286,0.8436 -0.9927,0.8436 l -1.7766,0 0,-1.698 1.7766,0 c 0.7641,0 0.9927,0.3879 0.9927,0.8544"
         inkscape:connector-curvature="0" />
      <path
         id="path2445"
         style="fill:#000000;fill-opacity:1;fill-rule:nonzero;stroke:none"
         d="m 81.953451,592.16413 0,-1.6746 -4.067401,0 0,-1.1613 3.3153,0 0,-1.6407 -3.3153,0 0,-1.002 4.067401,0 0,-1.6758 -5.823001,0 0,7.1544 5.823001,0"
         inkscape:connector-curvature="0" />
      <path
         id="path2447"
         style="fill:#000000;fill-opacity:1;fill-rule:nonzero;stroke:none"
         d="m 82.83125,585.01093 0,7.15314 1.754299,0 0,-7.15314 -1.754299,0 z"
         inkscape:connector-curvature="0" />
      <path
         id="path2449"
         style="fill:#000000;fill-opacity:1;fill-rule:nonzero;stroke:none"
         d="m 92.37965,590.83153 -1.412099,-1.0254 c -0.3645,0.5016 -0.957301,0.8088 -1.619401,0.8088 -1.1145,0 -2.005199,-0.9 -2.005199,-2.0274 0,-1.1286 0.877799,-2.0286 2.005199,-2.0286 0.6621,0 1.2093,0.2964 1.596001,0.8556 l 1.435499,-1.0713 c -0.6714,-0.9807 -1.9029,-1.4694 -3.0315,-1.4694 -2.1867,0 -3.8169,1.6173 -3.8169,3.7137 0,2.0964 1.608,3.7137 3.8169,3.7137 1.1286,0 2.2464,-0.4677 3.0315,-1.4697"
         inkscape:connector-curvature="0" />
      <path
         id="path2451"
         style="fill:#000000;fill-opacity:1;fill-rule:nonzero;stroke:none"
         d="m 99.525951,592.16413 0,-7.1544 -1.7544,0 0,2.6556 -2.919001,0 0,-2.6556 -1.7544,0 0,7.1544 1.7544,0 0,-2.8137 2.919001,0 0,2.8137 1.7544,0"
         inkscape:connector-curvature="0" />
      <path
         id="path2453"
         style="fill:#000000;fill-opacity:1;fill-rule:nonzero;stroke:none"
         d="m 105.64295,592.16413 0,-7.4955 -2.6331,1.5834 0,1.9254 0.8895,-0.6036 0,4.5903 1.7436,0"
         inkscape:connector-curvature="0" />
      <path
         id="path2455"
         style="fill:#000000;fill-opacity:1;fill-rule:evenodd;stroke:none"
         d="m 57.09455,580.05613 -1.789499,-2.5521 c 0.957599,-0.2967 1.6758,-1.1169 1.6758,-2.154 0,-1.4016 -0.979501,-2.4492 -2.575801,-2.4492 l -3.8625,0 0,7.1553 1.322101,0 0,-2.2569 2.072999,0 1.494,2.2569 1.6629,0 z m -1.4355,-4.7061 c 0,0.6387 -0.4218,1.1964 -1.356899,1.1964 l -2.4375,0 0,-2.3919 2.4375,0 c 0.935099,0 1.356899,0.558 1.356899,1.1955"
         inkscape:connector-curvature="0" />
      <path
         id="path2457"
         style="fill:#000000;fill-opacity:1;fill-rule:evenodd;stroke:none"
         d="m 65.575551,580.05613 -3.430201,-7.3371 -3.5331,7.3371 1.4145,0 0.5916,-1.344 2.952,0 0.5802,1.344 1.425001,0 z m -2.518501,-2.5299 -1.926599,0 0.969299,-2.2209 0.9573,2.2209"
         inkscape:connector-curvature="0" />
      <path
         id="path2459"
         style="fill:#000000;fill-opacity:1;fill-rule:evenodd;stroke:none"
         d="m 74.65865,576.47863 c 0,-1.8915 -1.4238,-3.5778 -3.8403,-3.5778 l -3.247199,0 0,7.1553 3.247199,0 c 2.3601,0 3.8403,-1.6863 3.8403,-3.5775 z m -1.3218,0 c 0,1.2633 -0.9798,2.3226 -2.5185,2.3226 l -1.9254,0 0,-4.6467 1.9254,0 c 1.5387,0 2.5185,1.0596 2.5185,2.3241"
         inkscape:connector-curvature="0" />
      <path
         id="path2461"
         style="fill:#000000;fill-opacity:1;fill-rule:nonzero;stroke:none"
         d="m 77.03165,572.90203 0,7.15431 1.320702,0 0,-7.15431 -1.320702,0 z"
         inkscape:connector-curvature="0" />
      <path
         id="path2463"
         style="fill:#000000;fill-opacity:1;fill-rule:evenodd;stroke:none"
         d="m 88.40345,576.47863 c 0,-2.0967 -1.698,-3.7254 -3.8388,-3.7254 -2.1423,0 -3.8403,1.6287 -3.8403,3.7254 0,2.0964 1.698,3.7254 3.8403,3.7254 2.1408,0 3.8388,-1.629 3.8388,-3.7254 z m -1.389599,0 c 0,1.3896 -1.161301,2.4714 -2.449201,2.4714 -1.2879,0 -2.4495,-1.0818 -2.4495,-2.4714 0,-1.3899 1.1616,-2.4729 2.4495,-2.4729 1.2879,0 2.449201,1.083 2.449201,2.4729"
         inkscape:connector-curvature="0" />
    </g>
    <path
       d="M 11.124099,184.72285 98.254919,97.591814 185.4661,184.72285 98.335066,271.85033 11.124099,184.72285"
       style="fill:#000000;fill-opacity:1;fill-rule:nonzero;stroke:none"
       id="path2469"
       inkscape:connector-curvature="0" />
    <path
       d="m 88.544138,174.50706 0,61.5139 23.355952,0 0,-100.44142 -35.264085,21.22029 0,25.79801 11.908133,-8.09078"
       style="fill:#ffffff;fill-opacity:1;fill-rule:evenodd;stroke:none"
       id="path2471"
       inkscape:connector-curvature="0" />
  </g>
</svg>
