<?xml version="1.0" encoding="utf-8"?>
<!-- Generator: Adobe Illustrator 13.0.2, SVG Export Plug-In . SVG Version: 6.00 Build 14948)  -->
<!DOCTYPE svg PUBLIC "-//W3C//DTD SVG 1.1//EN" "http://www.w3.org/Graphics/SVG/1.1/DTD/svg11.dtd">
<svg version="1.1" id="Ebene_1" xmlns="http://www.w3.org/2000/svg" xmlns:xlink="http://www.w3.org/1999/xlink" x="0px" y="0px"
	 width="803.078px" height="133.875px" viewBox="0 0 803.078 133.875" enable-background="new 0 0 803.078 133.875"
	 xml:space="preserve">
<g>
	<rect fill="#D32824" width="313.703" height="133.875"/>
	<path fill="#FFFFFF" d="M227.891,104.188h18.344V79.07h34.703V61.516h-34.703V47.203h42.547V29.625h-60.891V104.188z
		 M85.859,66.938c0,11.75-10.141,21.141-20.984,21.141c-10.969,0-20.992-9.391-20.992-21.141c0-11.766,10.023-21.141,20.992-21.141
		C75.719,45.797,85.859,55.172,85.859,66.938 M104.813,66.938c0-21.859-17.75-38.727-39.938-38.727S24.922,45.078,24.922,66.938
		s17.766,38.719,39.953,38.719S104.813,88.797,104.813,66.938 M131.266,104.234h18.375V82.5h13.719l14.422,21.734h22.906
		l-18.484-26.133C190.914,74.297,197,66.109,197,56c0-14.836-10.969-26.375-27.672-26.375h-38.063V104.234z M168.25,64.914h-18.609
		V47.219h18.609c7.984,0,10.375,3.914,10.375,8.781C178.625,61,176.234,64.914,168.25,64.914"/>
	<rect x="313.703" fill="#007787" width="313.703" height="133.875"/>
	<path fill="#FFFFFF" d="M577.703,105.484c14.813,0,26.469-8.188,26.469-22.297v-0.281c0-13.375-12.375-17.844-23.891-21.297
		c-9.906-3.016-19.125-5.758-19.125-12.805v-0.273c0-6.203,5.617-10.797,14.406-10.797c7.188,0,15.078,2.734,21.984,7.203
		l5.047-8.352c-7.625-5.039-17.703-8.203-26.75-8.203c-14.688,0-25.328,8.492-25.328,21.289v0.289c0,13.664,12.953,17.695,24.594,21
		c9.781,2.727,18.563,5.602,18.563,13.086v0.289c0,7.195-6.484,11.797-15.391,11.797c-8.781,0-17.688-3.445-25.742-9.492
		l-5.617,7.906C555.266,101.313,567.055,105.484,577.703,105.484 M464.5,104.047h11.078V61.469c0-13.953,9.5-23.305,22.297-23.305
		c13.078,0,20.578,8.633,20.578,22.445v43.438h11.063V57.875c0-17.688-10.5-29.781-28.469-29.781
		c-12.797,0-20.578,6.484-25.469,14.531V29.688H464.5V104.047z M427.688,104.047h11.086V29.688h-11.086V104.047z M348.141,62.484
		c1.594-14.391,11.375-25.031,24.172-25.031c14.656,0,22.438,11.5,23.734,25.031H348.141z M348.141,71.391h58.984
		c0.141-1.719,0.141-2.867,0.141-3.875c0-21.875-12.656-39.422-34.672-39.422c-20.547,0-35.656,17.258-35.656,38.844
		c0,23.156,16.68,38.828,37.109,38.828c14.102,0,23.141-5.609,30.641-13.953l-6.906-6.18c-6.039,6.32-13.234,10.5-23.445,10.5
		C361.227,96.133,349.734,87.078,348.141,71.391"/>
	<path fill="#D32824" d="M784.688,66.93c0,10.867-8.109,19.836-21.625,19.836h-16V47.109h16
		C776.578,47.109,784.688,56.07,784.688,66.93 M803.078,66.93c0-19.82-15.297-37.492-40.016-37.492h-34.25v74.992h34.25
		C787.313,104.43,803.078,86.766,803.078,66.93 M711.5,104.43V29.438h-18.391V57.25h-30.563V29.438h-18.391v74.992h18.391V74.938
		h30.563v29.492H711.5z"/>
	<path fill="#D32824" d="M662.641,112.281h-7.609v21.594h133.875V104.75c-2.375,1.453-4.891,2.734-7.609,3.758v17.758H662.641
		V112.281z M781.297,25.484c2.719,1.016,5.234,2.273,7.609,3.688V0H655.031v21.859h7.609V7.609h118.656V25.484z"/>
</g>
</svg>
