<?xml version="1.0" encoding="UTF-8" standalone="no"?>
<!-- Created with Inkscape (http://www.inkscape.org/) -->
<svg
   xmlns:svg="http://www.w3.org/2000/svg"
   xmlns="http://www.w3.org/2000/svg"
   version="1.0"
   width="636.93024"
   height="192.35945"
   id="svg11358">
  <defs
     id="defs11360" />
  <g
     transform="translate(-37.861325,-6.5134324)"
     id="g3171">
    <path
       d="M 159.2885,102.04654 C 159.2885,68.722526 132.28258,43.004873 98.579645,43.004873 C 64.867245,43.004873 37.861325,68.722526 37.861325,102.04654 C 37.861325,135.36113 64.867245,161.0693 98.579645,161.0693 C 132.28258,161.0693 159.2885,135.36113 159.2885,102.04654 M 130.47332,102.04654 C 130.47332,119.9684 115.07115,134.27181 98.579645,134.27181 C 81.898695,134.27181 66.676475,119.9684 66.676475,102.04654 C 66.676475,84.115263 81.898695,69.811849 98.579645,69.811849 C 115.07115,69.811849 130.47332,84.115263 130.47332,102.04654"
       id="path3593"
       style="font-size:10px;letter-spacing:0;word-spacing:0;fill:#000000;fill-rule:nonzero;stroke:none" />
    <path
       d="M 199.48002,158.90014 L 227.3953,158.90014 L 227.3953,125.76557 L 248.23465,125.76557 L 270.1634,158.90014 L 304.9556,158.90014 L 276.86987,119.06851 C 290.09338,113.27142 299.33846,100.77727 299.33846,85.384531 C 299.33846,62.745408 282.66697,45.183518 257.2903,45.183518 L 199.48002,45.183518 L 199.48002,158.90014 z M 255.66106,98.968004 L 227.3953,98.968004 L 227.3953,71.981083 L 255.66106,71.981083 C 267.80473,71.981083 271.43266,77.95812 271.43266,85.384531 C 271.43266,92.990886 267.80473,98.968004 255.66106,98.968004"
       id="path3595"
       style="font-size:10px;letter-spacing:0;word-spacing:0;fill:#000000;fill-rule:nonzero;stroke:none" />
    <path
       d="M 346.27442,158.83386 L 374.16123,158.83386 L 374.16123,120.5462 L 426.86588,120.5462 L 426.86588,93.767618 L 374.16123,93.767618 L 374.16123,71.962099 L 438.82012,71.962099 L 438.82012,45.183518 L 346.27442,45.183518 L 346.27442,158.83386 z"
       id="path3597"
       style="font-size:10px;letter-spacing:0;word-spacing:0;fill:#000000;fill-rule:nonzero;stroke:none" />
    <path
       d="M 482.43206,6.5134324 L 674.79154,6.5134324 L 674.79154,198.87289 L 482.43206,198.87289 L 482.43206,6.5134324 z"
       id="path3589"
       style="font-size:10px;letter-spacing:0;word-spacing:0;fill:#ec1b24;fill-rule:nonzero;stroke:none" />
    <path
       d="M 618.18631,80.725207 C 618.18631,61.33301 602.29399,44.735356 577.11635,44.735356 C 558.09915,44.735356 543.36748,52.065479 531.67146,71.118385 L 555.06351,82.29656 C 560.15263,73.21653 567.29526,68.672004 576.04494,68.672004 C 584.79463,68.672004 591.31227,74.439646 591.31227,80.37697 C 591.31227,84.394706 589.52658,88.242756 584.08033,92.430098 L 534.17138,131.92879 L 534.17138,156.56184 L 617.8292,156.56184 L 617.8292,131.57168 L 573.45572,131.57168 L 599.5263,111.83125 C 610.68657,103.44761 618.18631,93.135444 618.18631,80.725207"
       id="path3599"
       style="font-size:10px;letter-spacing:0;word-spacing:0;fill:#ffffff;fill-rule:nonzero;stroke:none" />
    <path
       d="M 159.2885,102.04654 C 159.2885,68.722526 132.28258,43.004873 98.579645,43.004873 C 64.867245,43.004873 37.861325,68.722526 37.861325,102.04654 C 37.861325,135.36113 64.867245,161.0693 98.579645,161.0693 C 132.28258,161.0693 159.2885,135.36113 159.2885,102.04654 M 130.47332,102.04654 C 130.47332,119.9684 115.07115,134.27181 98.579645,134.27181 C 81.898695,134.27181 66.676475,119.9684 66.676475,102.04654 C 66.676475,84.115263 81.898695,69.811849 98.579645,69.811849 C 115.07115,69.811849 130.47332,84.115263 130.47332,102.04654"
       id="path3605"
       style="font-size:10px;letter-spacing:0;word-spacing:0;fill:#000000;fill-rule:nonzero;stroke:none" />
    <path
       d="M 199.48002,158.90014 L 227.3953,158.90014 L 227.3953,125.76557 L 248.23465,125.76557 L 270.1634,158.90014 L 304.9556,158.90014 L 276.86987,119.06851 C 290.09338,113.27142 299.33846,100.77727 299.33846,85.384531 C 299.33846,62.745408 282.66697,45.183518 257.2903,45.183518 L 199.48002,45.183518 L 199.48002,158.90014 z M 255.66106,98.968004 L 227.3953,98.968004 L 227.3953,71.981083 L 255.66106,71.981083 C 267.80473,71.981083 271.43266,77.95812 271.43266,85.384531 C 271.43266,92.990886 267.80473,98.968004 255.66106,98.968004"
       id="path3607"
       style="font-size:10px;letter-spacing:0;word-spacing:0;fill:#000000;fill-rule:nonzero;stroke:none" />
    <path
       d="M 346.27442,158.83386 L 374.16123,158.83386 L 374.16123,120.5462 L 426.86588,120.5462 L 426.86588,93.767618 L 374.16123,93.767618 L 374.16123,71.962099 L 438.82012,71.962099 L 438.82012,45.183518 L 346.27442,45.183518 L 346.27442,158.83386 z"
       id="path3609"
       style="font-size:10px;letter-spacing:0;word-spacing:0;fill:#000000;fill-rule:nonzero;stroke:none" />
    <path
       d="M 482.43206,6.5134324 L 674.79154,6.5134324 L 674.79154,198.87289 L 482.43206,198.87289 L 482.43206,6.5134324 z"
       id="path3601"
       style="font-size:10px;letter-spacing:0;word-spacing:0;fill:#e2001a;fill-opacity:1;fill-rule:nonzero;stroke:none" />
    <path
       d="M 618.18631,80.725207 C 618.18631,61.33301 602.29399,44.735356 577.11635,44.735356 C 558.09915,44.735356 543.36748,52.065479 531.67146,71.118385 L 555.06351,82.29656 C 560.15263,73.21653 567.29526,68.672004 576.04494,68.672004 C 584.79463,68.672004 591.31227,74.439646 591.31227,80.37697 C 591.31227,84.394706 589.52658,88.242756 584.08033,92.430098 L 534.17138,131.92879 L 534.17138,156.56184 L 617.8292,156.56184 L 617.8292,131.57168 L 573.45572,131.57168 L 599.5263,111.83125 C 610.68657,103.44761 618.18631,93.135444 618.18631,80.725207"
       id="path3611"
       style="font-size:10px;letter-spacing:0;word-spacing:0;fill:#f8e606;fill-opacity:1;fill-rule:nonzero;stroke:none" />
  </g>
</svg>
