<?xml version="1.0" encoding="UTF-8" standalone="no"?>
<!-- Created with Inkscape (http://www.inkscape.org/) -->

<svg
   xmlns:dc="http://purl.org/dc/elements/1.1/"
   xmlns:cc="http://creativecommons.org/ns#"
   xmlns:rdf="http://www.w3.org/1999/02/22-rdf-syntax-ns#"
   xmlns:svg="http://www.w3.org/2000/svg"
   xmlns="http://www.w3.org/2000/svg"
   xmlns:sodipodi="http://sodipodi.sourceforge.net/DTD/sodipodi-0.dtd"
   xmlns:inkscape="http://www.inkscape.org/namespaces/inkscape"
   version="1.0"
   width="362.71875"
   height="139.03618"
   id="svg5340"
   inkscape:version="0.48.2 r9819"
   sodipodi:docname="Phoenix_2008.svg">
  <metadata
     id="metadata12">
    <rdf:RDF>
      <cc:Work
         rdf:about="">
        <dc:format>image/svg+xml</dc:format>
        <dc:type
           rdf:resource="http://purl.org/dc/dcmitype/StillImage" />
        <dc:title></dc:title>
      </cc:Work>
    </rdf:RDF>
  </metadata>
  <sodipodi:namedview
     pagecolor="#ffffff"
     bordercolor="#666666"
     borderopacity="1"
     objecttolerance="10"
     gridtolerance="10"
     guidetolerance="10"
     inkscape:pageopacity="0"
     inkscape:pageshadow="2"
     inkscape:window-width="1024"
     inkscape:window-height="576"
     id="namedview10"
     showgrid="false"
     showguides="true"
     inkscape:guide-bbox="true"
     fit-margin-top="0"
     fit-margin-left="0"
     fit-margin-right="0"
     fit-margin-bottom="0"
     inkscape:zoom="0.93466011"
     inkscape:cx="302.40797"
     inkscape:cy="95.551786"
     inkscape:window-x="0"
     inkscape:window-y="24"
     inkscape:window-maximized="1"
     inkscape:current-layer="svg5340">
    <sodipodi:guide
       orientation="0,1"
       position="248.2529,68.708868"
       id="guide3067" />
    <sodipodi:guide
       orientation="0,1"
       position="306.56287,105.20287"
       id="guide3090" />
  </sodipodi:namedview>
  <defs
     id="defs5342" />
  <path
     style="fill:#e6e6e6;fill-opacity:1;fill-rule:nonzero;stroke:none"
     d="M 12.40625,0 C 5.57762,0 0,5.54665 0,12.34375 L 0,126.6875 c 0,6.7936 5.57762,12.34375 12.40625,12.34375 l 223.46875,0 c 6.82512,0 12.40625,-5.55015 12.40625,-12.34375 l 0,-114.34375 C 248.28125,5.54665 242.70012,0 235.875,0 L 12.40625,0 z m 259.15625,24.5625 0,45.75 9.25,0 0,-19.84375 20.75,0 0,19.84375 9.25,0 0,-45.75 -9.25,0 0,16.625 -20.75,0 0,-16.625 -9.25,0 z m 49.8125,0 0,45.75 18.46875,0 c 12.67386,0 22.875,-10.20114 22.875,-22.875 0,-12.67386 -10.20114,-22.875 -22.875,-22.875 l -18.46875,0 z m 9.25,9.28125 9.53125,0 c 7.36248,0 13.3125,5.91877 13.3125,13.28125 l 0,0.65625 c 0,7.36248 -5.95002,13.28125 -13.3125,13.28125 l -9.53125,0 0,-20.71875 0,-6.5 z"
     id="path2994"
     inkscape:connector-curvature="0" />
  <path
     d="m 47.88229,98.54091 0,40.49527 8.75913,0 0,-40.49527 c 0.0102,-3.54221 2.95359,-6.48177 6.48528,-6.48878 l 185.14728,0 0,-8.75914 -185.14728,0 c -8.40878,0.0175 -15.2269,6.83213 -15.24441,15.24792"
     id="path2998"
     style="fill:#faba00;fill-opacity:1;fill-rule:nonzero;stroke:none"
     inkscape:connector-curvature="0" />
  <path
     d="m 48.29168,23.90363 0,46.33588 8.32119,0 0,-13.48908 c 0,-3.58424 0.10159,-5.82661 0.35036,-6.83213 0.46949,-1.94453 1.32433,-3.51425 2.54016,-4.64235 1.21927,-1.12818 2.68035,-1.6643 4.37957,-1.66424 1.31037,0 2.44205,0.28735 3.32847,0.9635 0.89343,0.67271 1.47149,1.69224 1.83942,3.06571 0.36789,1.37344 0.52554,4.01519 0.52554,7.88323 l 0,14.71536 8.3212,0 0,-22.16064 c 0,-3.85051 -1.03358,-6.76906 -2.97811,-8.75913 -2.27388,-2.28789 -5.00667,-3.41608 -8.32119,-3.41608 -1.69928,0 -3.42315,0.34345 -5.0803,1.05111 -1.65723,0.70422 -3.27235,1.82887 -4.90512,3.24088 l 0,-16.29202 z M 29.37193,35.90366 c -2.0076,0 -3.93107,0.38187 -5.69344,1.13869 -1.75884,0.7673 -3.3916,1.89554 -4.90513,3.41607 l 0,-3.67884 -8.32117,0 0,45.63514 8.32117,0 0,-15.76646 c 1.63622,1.55913 3.33195,2.73288 4.99272,3.41606 1.66073,0.69373 3.41952,0.96357 5.34307,0.96352 4.32002,0 8.05837,-1.64314 11.21171,-4.99272 3.14979,-3.3495 4.72991,-7.55044 4.72993,-12.52557 0,-5.1574 -1.50659,-9.31629 -4.55474,-12.61317 -3.05169,-3.29694 -6.76209,-4.99274 -11.12412,-4.99272 z m 69.02205,0 c -4.36205,0 -8.20203,1.52061 -11.56207,4.55476 -3.82599,3.47562 -5.69347,7.83064 -5.69343,13.05113 0,4.88059 1.69573,9.02897 5.0803,12.43798 3.38802,3.41256 7.47334,5.08033 12.26279,5.08031 3.26191,0 6.22956,-0.72179 8.93433,-2.27739 2.70132,-1.53809 4.8246,-3.73136 6.39418,-6.48176 1.56613,-2.73986 2.36494,-5.69341 2.36496,-8.84674 0,-3.13577 -0.80931,-6.0579 -2.36496,-8.75914 -1.55913,-2.70482 -3.71043,-4.821 -6.48177,-6.39418 -2.7714,-1.57663 -5.78804,-2.36502 -8.93433,-2.36497 z m 38.27746,0 c -4.95417,0 -9.06393,1.70985 -12.3504,5.08032 -3.28993,3.36351 -4.90506,7.60289 -4.90511,12.70074 0,4.97871 1.60811,9.13062 4.90511,12.43799 3.29695,3.31096 7.54692,4.90515 12.78835,4.90513 3.38104,0 6.30312,-0.55712 8.75915,-1.75184 2.45957,-1.19124 4.54082,-3.02716 6.30658,-5.51826 l -7.00731,-3.32846 c -2.25285,2.19328 -4.92959,3.24082 -8.05842,3.24087 -2.62422,0 -4.78951,-0.69019 -6.48175,-2.10219 -1.68877,-1.39446 -2.76787,-3.32147 -3.15331,-5.69345 l 26.97818,0 0,-1.57664 c 0,-5.52878 -1.60459,-9.95033 -4.90513,-13.31389 -3.29343,-3.37053 -7.6135,-5.08037 -12.87594,-5.08032 z m 39.59134,0 c -1.6187,0 -3.18487,0.33635 -4.72994,0.96351 -1.53811,0.62716 -3.26886,1.72385 -5.16791,3.32848 l 0,-3.41607 -8.40877,0 0,33.45993 8.40877,0 0,-13.48908 c 0,-3.47914 0.10503,-5.70036 0.35038,-6.74454 0.46598,-2.00059 1.32786,-3.59478 2.54014,-4.72994 1.21227,-1.1387 2.68028,-1.66432 4.37957,-1.66424 1.30687,0 2.43856,0.37134 3.32848,1.0511 0.88642,0.69022 1.48202,1.67115 1.83942,2.97811 0.36088,1.31387 0.52553,3.90301 0.52555,7.88323 l 0,14.71536 8.32119,0 0,-22.16064 c 0,-3.84702 -0.94955,-6.70608 -2.89052,-8.67155 -2.31242,-2.30891 -5.18885,-3.50368 -8.49636,-3.50366 z m 17.95623,0.87592 0,33.45993 8.40878,0 0,-33.45993 z m 13.22631,0.17519 11.47448,15.85404 -12.61316,17.51828 9.54746,0 7.88323,-10.94892 7.97082,10.94914 9.72265,-2.2e-4 -12.78834,-17.69346 11.29928,-15.67886 -9.54746,0 -6.56936,9.10951 -6.65694,-9.10951 z m -70.33593,6.0438 c 2.15826,0 4.06433,0.57813 5.69345,1.75183 1.63271,1.16671 2.69078,2.69788 3.24089,4.55475 l -18.21902,0 c 0.94248,-2.06716 2.04621,-3.47913 3.15329,-4.29198 1.76585,-1.31036 3.79793,-2.01465 6.13139,-2.0146 z M 27.6201,43.61171 c 2.62775,0 4.758,0.97402 6.48177,2.80293 1.71328,1.83592 2.62783,4.13785 2.62774,7.00731 0,2.88352 -0.87934,5.32198 -2.62774,7.1825 -1.74833,1.86045 -3.91704,2.80284 -6.48177,2.80293 -2.63825,0 -4.82798,-0.96354 -6.56935,-2.80293 -1.73783,-1.83241 -2.62772,-4.20792 -2.62775,-7.1825 0,-2.90803 0.88999,-5.29058 2.62775,-7.0949 1.74132,-1.79738 3.93116,-2.71531 6.56935,-2.71534 z m 70.94906,0.17518 c 2.65929,0 4.85611,0.92846 6.56937,2.71535 1.71328,1.78686 2.54015,4.13787 2.54015,7.00731 0,2.86949 -0.88284,5.18888 -2.62775,7.00731 -1.73781,1.8254 -3.85404,2.71537 -6.48177,2.71534 -2.62423,0 -4.85949,-0.91101 -6.56935,-2.71534 -1.71679,-1.79738 -2.54021,-4.09572 -2.54016,-7.00731 0,-2.82746 0.89691,-5.19591 2.62775,-7.00731 1.73781,-1.8114 3.87149,-2.7154 6.48176,-2.71535 z"
     id="path3002"
     style="fill:#000000;fill-opacity:1;fill-rule:nonzero;stroke:none"
     inkscape:connector-curvature="0"
     sodipodi:nodetypes="cccscccccsccscsccccsccccccccccscsccsssccscccscscscccccccscssccccccscccccsccscscccccccccccccccccccccccccccscccccccscccccc" />
</svg>
