<?xml version="1.0" encoding="UTF-8" standalone="no"?>
<!-- Created with Inkscape (http://www.inkscape.org/) -->

<svg
   xmlns:dc="http://purl.org/dc/elements/1.1/"
   xmlns:cc="http://creativecommons.org/ns#"
   xmlns:rdf="http://www.w3.org/1999/02/22-rdf-syntax-ns#"
   xmlns:svg="http://www.w3.org/2000/svg"
   xmlns="http://www.w3.org/2000/svg"
   xmlns:sodipodi="http://sodipodi.sourceforge.net/DTD/sodipodi-0.dtd"
   xmlns:inkscape="http://www.inkscape.org/namespaces/inkscape"
   width="600.23517"
   height="241.035"
   id="svg2934"
   version="1.1"
   inkscape:version="0.47 r22583"
   sodipodi:docname="Neues Dokument 4">
  <defs
     id="defs2936">
    <inkscape:perspective
       sodipodi:type="inkscape:persp3d"
       inkscape:vp_x="0 : 526.18109 : 1"
       inkscape:vp_y="0 : 1000 : 0"
       inkscape:vp_z="744.09448 : 526.18109 : 1"
       inkscape:persp3d-origin="372.04724 : 350.78739 : 1"
       id="perspective2942" />
    <inkscape:perspective
       id="perspective2924"
       inkscape:persp3d-origin="0.5 : 0.33333333 : 1"
       inkscape:vp_z="1 : 0.5 : 1"
       inkscape:vp_y="0 : 1000 : 0"
       inkscape:vp_x="0 : 0.5 : 1"
       sodipodi:type="inkscape:persp3d" />
  </defs>
  <sodipodi:namedview
     id="base"
     pagecolor="#ffffff"
     bordercolor="#666666"
     borderopacity="1.0"
     inkscape:pageopacity="0.0"
     inkscape:pageshadow="2"
     inkscape:zoom="1.3900985"
     inkscape:cx="300.11758"
     inkscape:cy="120.5175"
     inkscape:document-units="px"
     inkscape:current-layer="layer1"
     showgrid="false"
     inkscape:window-width="1280"
     inkscape:window-height="1005"
     inkscape:window-x="-4"
     inkscape:window-y="-4"
     inkscape:window-maximized="1" />
  <metadata
     id="metadata2939">
    <rdf:RDF>
      <cc:Work
         rdf:about="">
        <dc:format>image/svg+xml</dc:format>
        <dc:type
           rdf:resource="http://purl.org/dc/dcmitype/StillImage" />
        <dc:title></dc:title>
      </cc:Work>
    </rdf:RDF>
  </metadata>
  <g
     inkscape:label="Ebene 1"
     inkscape:groupmode="layer"
     id="layer1"
     transform="translate(-5.8755401,-434.70182)">
    <g
       transform="matrix(0.80835983,0,0,0.80835983,-225.12529,-70.206149)"
       id="g2909">
      <path
         sodipodi:nodetypes="cccccccccccccccccccccccccccccccsscccccssssccccccc"
         id="path2885"
         d="m 662.44577,775.27448 0,-75.46064 41.002,0.17552 0,27.99575 0,28.75 43,0 43,0 0,-28.5 0,-28.24575 c 13.0704,0.25425 26.4011,0 39.4182,0 1.4339,0 1.5818,5.64998 1.5818,74.63876 l 0,76.10704 -20.5,0 -20.5,0 0,-33 0,-33.00005 -43,0 -43,0 0,33.00005 0,33 -20.5,0 -20.5,0 0,-75.46068 0,0 -10e-4,0 -10e-4,0 z m 198,27.52949 0,-48.06886 20,0 20,0 0,34 0,34.00005 30.25,-0.017 c 54.62407,-0.031 56.14027,-1.2994 56.18047,-46.98269 0.031,-35.21515 -3.361,-42.72803 -21.00217,-46.51851 -5.6112,-1.20564 -16.2906,-1.48557 -56.1783,-1.47254 l -49.25,0.0161 0,-14.06333 0,-14.06333 59.75,0.38387 c 66.06407,0.42442 66.32417,-0.90113 80.55903,5.69617 13.3126,6.16988 21.4844,18.76365 25.1962,36.02158 2.2664,10.53777 3.1352,43.05066 1.5156,56.71726 -3.6361,30.68102 -12.5148,44.32302 -37.48154,50.97872 -7.0191,1.8711 -11.93452,1.48538 -68.78929,1.85538 l -60.75,-0.41368 0,-48.06882 0,3e-5 0,-4e-4 z"
         style="fill:#ed1c24;fill-opacity:1" />
      <g
         transform="matrix(0.77555791,0,0,0.77555791,49.916384,552.6054)"
         id="g2904">
        <path
           style="fill:#ed1c24;fill-opacity:1;fill-rule:nonzero;stroke:none"
           id="path2836"
           d="m 304.10269,198.61994 376.33448,0 0,-105.780263 -376.33448,0 0,105.780263 z" />
        <g
           id="g2838"
           transform="matrix(5.5486919,0,0,-5.5486919,680.43617,218.96144)">
          <path
             style="fill:#ed1c24;fill-opacity:1;fill-rule:evenodd;stroke:none"
             id="path2840"
             d="m 0,0 0,-46.56 -67.824,0 c 0,0 8.31,22.608 30.185,36.051 C -16.864,2.2 0,0 0,0" />
        </g>
      </g>
    </g>
  </g>
</svg>
