<?xml version="1.0" encoding="UTF-8" standalone="no"?>
<!-- Created with Inkscape (http://www.inkscape.org/) -->
<svg
   xmlns:svg="http://www.w3.org/2000/svg"
   xmlns="http://www.w3.org/2000/svg"
   version="1.0"
   width="885.82672"
   height="183.18896"
   id="svg26043">
  <defs
     id="defs26045">
    <linearGradient
       id="linearGradient5905">
      <stop
         style="stop-color:#eb008b;stop-opacity:1"
         offset="0"
         id="stop5907" />
      <stop
         style="stop-color:white;stop-opacity:1"
         offset="0.49565217"
         id="stop5913" />
      <stop
         style="stop-color:#eb008b;stop-opacity:1"
         offset="1"
         id="stop5909" />
    </linearGradient>
  </defs>
  <g
     transform="translate(-28.52862,-113.1251)"
     id="g7050">
    <path
       d="M 840.84944,174.76828 L 856.294,174.76828 L 868.90174,222.80388 L 869.21694,222.80388 L 881.98232,174.76828 L 896.63883,174.76828 L 877.41204,237.06634 L 859.76113,237.06634 L 840.84944,174.76828 z "
       style="font-size:10px;letter-spacing:0;word-spacing:0;fill:black;fill-rule:nonzero;stroke:none;font-family:fnt0, &quot;TheSans&quot;, Arial"
       id="path8523" />
    <path
       d="M 825.40499,226.6807 C 820.99228,226.6807 818.6283,224.74232 818.6283,218.07591 L 818.6283,185.76849 L 835.80638,185.76849 L 832.49682,174.76828 L 789.47285,174.76828 L 789.47285,185.76849 L 803.65658,185.76849 L 803.65658,219.88832 C 803.65658,232.96885 809.96049,238.04345 820.99228,238.04345 C 823.98663,238.04345 826.50814,237.60221 828.39927,237.00329 L 828.39927,226.31824 C 827.61134,226.52312 826.50814,226.6807 825.40499,226.6807"
       style="font-size:10px;letter-spacing:0;word-spacing:0;fill:black;fill-rule:nonzero;stroke:none;font-family:fnt0, &quot;TheSans&quot;, Arial"
       id="path8525" />
    <path
       d="M 719.81495,145.66008 C 697.43618,145.66008 679.31248,163.78372 679.31248,186.13105 C 679.31248,205.97245 693.65385,222.47292 712.4079,225.94005 L 712.4079,186.13105 L 727.22205,186.13105 L 727.22205,225.94005 C 745.97605,222.47292 760.31735,205.97245 760.31735,186.13105 C 760.31735,163.78372 742.19377,145.66008 719.81495,145.66008 M 719.81495,130.89323 C 750.23117,130.89323 774.97392,155.63597 774.97392,186.13105 C 774.97392,216.62601 750.23117,241.33726 719.81495,241.33726 C 689.24114,241.33726 664.49834,216.62601 664.49834,186.13105 C 664.49834,155.63597 689.24114,130.89323 719.81495,130.89323"
       style="font-size:10px;letter-spacing:0;word-spacing:0;fill:#ed7e00;fill-rule:nonzero;stroke:none;font-family:fnt0, &quot;TheSans&quot;, Arial"
       id="path8527" />
    <path
       d="M 46.717928,277.56886 L 53.65223,277.56886 L 53.65223,238.73691 C 53.65223,227.35835 58.852892,222.53591 69.884676,222.53591 L 69.884676,215.03433 C 63.108032,215.03433 57.907305,216.83093 53.494632,225.67209 L 53.17944,225.67209 C 53.17944,223.13477 52.864242,219.51008 52.706643,215.86956 L 46.245131,215.86956 C 46.40273,222.28375 46.717928,228.57189 46.717928,235.00187 L 46.717928,277.56886 z "
       style="font-size:10px;letter-spacing:0;word-spacing:0;fill:black;fill-rule:nonzero;stroke:none;font-family:fnt0, &quot;TheSans&quot;, Arial"
       id="path8529" />
    <path
       d="M 115.43025,235.45886 C 115.43025,230.99892 115.43025,215.03433 96.360978,215.03433 C 89.58434,215.03433 85.329194,217.31947 79.498142,220.47139 L 80.601328,227.97308 C 81.231652,227.35835 87.850759,221.55879 96.04578,221.55879 C 108.81114,221.55879 108.81114,232.70093 108.81114,240.45468 L 104.39847,240.45468 C 95.572984,240.45468 74.612607,240.80144 74.612607,260.53256 C 74.612607,270.55575 82.177239,278.43559 91.790706,278.43559 C 99.82813,278.43559 104.87126,275.52009 109.12633,268.74335 L 109.44153,268.74335 L 109.91433,277.56886 L 116.21823,277.56886 C 115.74544,272.99853 115.43025,268.38089 115.43025,263.77912 L 115.43025,235.45886 z M 108.81114,253.74019 C 108.81114,270.55575 96.833769,271.89532 93.524282,271.89532 C 85.959584,271.89532 82.177239,265.73331 82.177239,260.53256 C 82.177239,246.47492 94.31227,246.47492 108.81114,246.47492 L 108.81114,253.74019 z "
       style="font-size:10px;letter-spacing:0;word-spacing:0;fill:black;fill-rule:nonzero;stroke:none;font-family:fnt0, &quot;TheSans&quot;, Arial"
       id="path8531" />
    <path
       d="M 172.9532,186.8402 L 165.86128,186.8402 L 165.86128,223.84399 L 165.5461,223.84399 C 162.55174,218.17051 157.82387,215.03433 150.10157,215.03433 C 134.49952,215.03433 129.61398,232.70093 129.61398,244.4262 C 129.61398,253.03097 130.24438,278.43559 150.41677,278.43559 C 158.13906,278.43559 162.07894,274.93696 166.64927,269.1059 L 166.80687,269.1059 L 166.80687,277.56886 L 173.42598,277.56886 C 173.11079,272.27357 172.9532,266.80497 172.9532,257.12847 L 172.9532,186.8402 z M 137.02102,246.74283 C 137.02102,232.44877 140.64577,221.55879 151.20476,221.55879 C 166.33408,221.55879 166.33408,239.24125 166.33408,247.46779 C 166.33408,260.02823 163.02453,271.89532 151.04715,271.89532 C 137.02102,271.89532 137.02102,251.81744 137.02102,246.74283"
       style="font-size:10px;letter-spacing:0;word-spacing:0;fill:black;fill-rule:nonzero;stroke:none;font-family:fnt0, &quot;TheSans&quot;, Arial"
       id="path8533" />
    <path
       d="M 190.60401,277.56886 L 197.69592,277.56886 L 197.69592,215.86956 L 190.60401,215.86956 L 190.60401,277.56886 z M 189.97362,202.19017 L 198.4839,202.19017 L 198.4839,191.31595 L 189.97362,191.31595 L 189.97362,202.19017 z "
       style="font-size:10px;letter-spacing:0;word-spacing:0;fill:black;fill-rule:nonzero;stroke:none;font-family:fnt0, &quot;TheSans&quot;, Arial"
       id="path8535" />
    <path
       d="M 235.83438,271.89532 C 220.23227,271.89532 220.23227,251.69141 220.23227,246.74283 C 220.23227,241.7785 220.23227,221.55879 235.83438,221.55879 C 251.43651,221.55879 251.43651,241.7785 251.43651,246.74283 C 251.43651,251.69141 251.43651,271.89532 235.83438,271.89532 M 235.83438,278.43559 C 253.80048,278.43559 258.84353,262.21883 258.84353,246.74283 C 258.84353,231.25108 253.80048,215.03433 235.83438,215.03433 C 217.71071,215.03433 212.66764,231.25108 212.66764,246.74283 C 212.66764,262.21883 217.71071,278.43559 235.83438,278.43559"
       style="font-size:10px;letter-spacing:0;word-spacing:0;fill:black;fill-rule:nonzero;stroke:none;font-family:fnt0, &quot;TheSans&quot;, Arial"
       id="path8537" />
    <path
       d="M 273.34248,186.8402 L 273.34248,266.9468 C 273.34248,271.40674 273.18488,275.29941 272.86968,277.56886 L 286.89582,277.56886 C 287.05342,275.7722 287.36861,272.14749 287.36861,267.90812 L 287.68381,267.90812 C 290.04778,273.23488 294.61812,278.54592 304.23152,278.54592 C 319.83363,278.54592 326.13748,263.77912 326.13748,246.47492 C 326.13748,226.16067 318.10006,214.30937 304.70432,214.30937 C 295.7213,214.30937 290.67817,219.38399 288.6294,224.23798 L 288.3142,224.23798 L 288.3142,186.8402 L 273.34248,186.8402 z M 288.3142,246.23849 C 288.3142,234.15084 291.78135,225.29389 299.97637,225.29389 C 308.32906,225.29389 311.16575,233.42589 311.16575,245.87605 C 311.16575,260.28039 308.95945,267.54561 300.13397,267.54561 C 291.30856,267.54561 288.3142,257.97951 288.3142,246.23849"
       style="font-size:10px;letter-spacing:0;word-spacing:0;fill:black;fill-rule:nonzero;stroke:none;font-family:fnt0, &quot;TheSans&quot;, Arial"
       id="path8539" />
    <path
       d="M 339.69083,277.56886 L 354.66258,277.56886 L 354.66258,243.46483 C 354.66258,231.83415 361.59684,228.0833 367.74311,228.0833 C 369.31909,228.0833 370.57988,228.33548 371.99823,228.71373 L 371.99823,214.65608 C 371.05265,214.53 370.26467,214.30937 369.31909,214.30937 C 360.02091,214.30937 355.29294,221.81096 353.55938,226.63345 L 353.24417,226.63345 C 353.24417,222.89835 352.92897,219.00574 352.77138,215.27069 L 339.21804,215.27069 C 339.53322,218.06017 339.69083,221.68492 339.69083,225.54605 L 339.69083,277.56886 z "
       style="font-size:10px;letter-spacing:0;word-spacing:0;fill:black;fill-rule:nonzero;stroke:none;font-family:fnt0, &quot;TheSans&quot;, Arial"
       id="path8541" />
    <path
       d="M 424.47807,262.70741 C 421.6413,264.75619 417.2286,267.54561 408.08794,267.54561 C 396.42577,267.54561 392.1707,261.13143 392.1707,250.47788 L 428.26041,250.47788 L 428.26041,247.57807 C 428.26041,222.17347 416.75582,214.30937 403.36008,214.30937 C 387.60037,214.30937 377.67177,228.71373 377.67177,247.3417 C 377.67177,264.15732 386.49717,278.54592 406.51194,278.54592 C 415.49504,278.54592 421.95651,275.89827 425.10843,274.57451 L 424.47807,262.70741 z M 392.1707,241.03786 C 392.1707,232.81127 395.4802,224.47435 403.36008,224.47435 C 410.13671,224.47435 413.76147,230.02174 413.76147,241.03786 L 392.1707,241.03786 z "
       style="font-size:10px;letter-spacing:0;word-spacing:0;fill:black;fill-rule:nonzero;stroke:none;font-family:fnt0, &quot;TheSans&quot;, Arial"
       id="path8543" />
    <path
       d="M 441.97134,277.56886 L 456.94307,277.56886 L 456.94307,239.82432 C 456.94307,232.9373 460.56778,226.63345 467.18688,226.63345 C 472.70279,226.63345 475.22429,230.52608 475.22429,238.24833 L 475.22429,277.56886 L 490.19601,277.56886 L 490.19601,239.82432 C 490.19601,232.9373 493.6632,226.63345 500.2823,226.63345 C 505.95573,226.63345 508.3197,230.52608 508.3197,238.24833 L 508.3197,277.56886 L 523.29143,277.56886 L 523.29143,239.11511 C 523.29143,223.98576 519.0363,214.30937 505.48294,214.30937 C 496.18476,214.30937 491.772,219.87252 488.77765,224.23798 C 486.88652,220.83389 483.57696,214.30937 473.018,214.30937 C 464.35011,214.30937 459.46463,220.21928 457.25828,225.07327 L 456.94307,225.07327 C 456.94307,221.81096 456.62786,218.53295 456.47029,215.27069 L 441.49857,215.27069 C 441.81377,217.55589 441.97134,220.94417 441.97134,225.43572 L 441.97134,277.56886 z "
       style="font-size:10px;letter-spacing:0;word-spacing:0;fill:black;fill-rule:nonzero;stroke:none;font-family:fnt0, &quot;TheSans&quot;, Arial"
       id="path8545" />
    <path
       d="M 582.70547,262.70741 C 580.02639,264.75619 575.61363,267.54561 566.31545,267.54561 C 554.81086,267.54561 550.55573,261.13143 550.55573,250.47788 L 586.64544,250.47788 L 586.64544,247.57807 C 586.64544,222.17347 575.14085,214.30937 561.58749,214.30937 C 545.82777,214.30937 536.0568,228.71373 536.0568,247.3417 C 536.0568,264.15732 544.72463,278.54592 564.73946,278.54592 C 573.7225,278.54592 580.3416,275.89827 583.49346,274.57451 L 582.70547,262.70741 z M 550.55573,241.03786 C 550.55573,232.81127 553.86529,224.47435 561.58749,224.47435 C 568.52181,224.47435 572.1465,230.02174 572.1465,241.03786 L 550.55573,241.03786 z "
       style="font-size:10px;letter-spacing:0;word-spacing:0;fill:black;fill-rule:nonzero;stroke:none;font-family:fnt0, &quot;TheSans&quot;, Arial"
       id="path8547" />
    <path
       d="M 600.6716,277.56886 L 615.64332,277.56886 L 615.64332,241.29002 C 615.64332,233.29985 618.48009,226.63345 626.35985,226.63345 C 632.50618,226.63345 634.87016,230.65216 634.87016,240.17102 L 634.87016,277.56886 L 649.84188,277.56886 L 649.84188,237.41309 C 649.84188,224.8211 645.74434,214.30937 631.56061,214.30937 C 621.3168,214.30937 617.06168,221.086 615.01289,224.8211 L 615.01289,224.8211 L 614.69769,224.8211 C 614.69769,221.68492 614.38253,218.42261 614.22491,215.27069 L 600.19875,215.27069 C 600.51396,218.06017 600.6716,221.68492 600.6716,225.54605 L 600.6716,277.56886 z "
       style="font-size:10px;letter-spacing:0;word-spacing:0;fill:black;fill-rule:nonzero;stroke:none;font-family:fnt0, &quot;TheSans&quot;, Arial"
       id="path8549" />
  </g>
</svg>
