<?xml version="1.0" encoding="UTF-8" standalone="no"?>
<!-- Created with Inkscape (http://www.inkscape.org/) -->

<svg
   xmlns:dc="http://purl.org/dc/elements/1.1/"
   xmlns:cc="http://creativecommons.org/ns#"
   xmlns:rdf="http://www.w3.org/1999/02/22-rdf-syntax-ns#"
   xmlns:svg="http://www.w3.org/2000/svg"
   xmlns="http://www.w3.org/2000/svg"
   xmlns:sodipodi="http://sodipodi.sourceforge.net/DTD/sodipodi-0.dtd"
   xmlns:inkscape="http://www.inkscape.org/namespaces/inkscape"
   width="395.65363"
   height="75.919708"
   id="svg3727"
   version="1.1"
   inkscape:version="0.48.3.1 r9886"
   sodipodi:docname="RBB_Berlin_Logo.svg">
  <defs
     id="defs3729">
    <inkscape:perspective
       sodipodi:type="inkscape:persp3d"
       inkscape:vp_x="0 : 526.18109 : 1"
       inkscape:vp_y="0 : 1000 : 0"
       inkscape:vp_z="744.09448 : 526.18109 : 1"
       inkscape:persp3d-origin="372.04724 : 350.78739 : 1"
       id="perspective3735" />
    <inkscape:perspective
       id="perspective3711"
       inkscape:persp3d-origin="0.5 : 0.33333333 : 1"
       inkscape:vp_z="1 : 0.5 : 1"
       inkscape:vp_y="0 : 1000 : 0"
       inkscape:vp_x="0 : 0.5 : 1"
       sodipodi:type="inkscape:persp3d" />
  </defs>
  <sodipodi:namedview
     id="base"
     pagecolor="#ffffff"
     bordercolor="#666666"
     borderopacity="1.0"
     inkscape:pageopacity="0.0"
     inkscape:pageshadow="2"
     inkscape:zoom="1.2547158"
     inkscape:cx="269.77899"
     inkscape:cy="48.328231"
     inkscape:document-units="px"
     inkscape:current-layer="g3129"
     showgrid="false"
     inkscape:window-width="1280"
     inkscape:window-height="737"
     inkscape:window-x="-8"
     inkscape:window-y="-8"
     inkscape:window-maximized="1"
     fit-margin-top="0"
     fit-margin-left="0"
     fit-margin-right="0"
     fit-margin-bottom="0" />
  <metadata
     id="metadata3732">
    <rdf:RDF>
      <cc:Work
         rdf:about="">
        <dc:format>image/svg+xml</dc:format>
        <dc:type
           rdf:resource="http://purl.org/dc/dcmitype/StillImage" />
        <dc:title />
      </cc:Work>
    </rdf:RDF>
  </metadata>
  <g
     inkscape:label="Ebene 1"
     inkscape:groupmode="layer"
     id="layer1"
     transform="translate(92.904696,-405.49769)">
    <g
       id="g2904"
       transform="matrix(0.7660017,0,0,0.7660017,-321.51477,143.65803)"
       style="fill:#104272;fill-opacity:1">
      <g
         id="g3129">
        <path
           inkscape:connector-curvature="0"
           d="m 379.23218,440.93814 -27.70193,0 -22.34493,-36.16061 -8.14048,0 0,36.16061 -22.59893,0 0,-98.61382 36.38915,0 c 5.02192,9e-5 9.3959,0.34227 13.12195,1.02654 3.72593,0.68445 7.16842,2.10835 10.32747,4.27173 3.23992,2.25183 5.81166,5.11069 7.71523,8.57655 1.90343,3.46602 2.85518,7.87019 2.85524,13.21252 -6e-5,7.55009 -1.55931,13.67619 -4.67773,18.37833 -3.11857,4.70226 -7.29005,8.44415 -12.51447,11.22568 l 27.56943,41.92247 z m -33.70515,-68.41375 c -5e-5,-2.47245 -0.43544,-4.6028 -1.30613,-6.39103 -0.8708,-1.78808 -2.31867,-3.16783 -4.34362,-4.13926 -1.41753,-0.6622 -2.99703,-1.08165 -4.73848,-1.25834 -1.74155,-0.17652 -3.90828,-0.26483 -6.50023,-0.26491 l -7.59373,0 0,26.55752 6.50025,0 c 3.15892,6e-5 5.84204,-0.20968 8.04934,-0.62917 2.20719,-0.41939 4.0803,-1.31347 5.61936,-2.68224 1.45793,-1.2362 2.54131,-2.7153 3.2501,-4.4373 0.7087,-1.72186 1.06309,-3.97362 1.06314,-6.75527 z"
           style="font-size:98.63599396px;font-style:normal;font-variant:normal;font-weight:bold;font-stretch:normal;text-align:start;line-height:100%;writing-mode:lr-tb;text-anchor:start;fill:#104272;fill-opacity:1;stroke:none;font-family:Tahoma Small Cap;-inkscape-font-specification:Tahoma Small Cap Bold"
           id="path2870"
           sodipodi:nodetypes="ccccccccscssscccscsccccscsc" />
        <path
           inkscape:connector-curvature="0"
           sodipodi:nodetypes="cscsccccscsssccsccsssccccssscccscsccccssscc"
           id="path2879"
           style="font-size:98.63599396px;font-style:normal;font-variant:normal;font-weight:bold;font-stretch:normal;text-align:start;line-height:100%;writing-mode:lr-tb;text-anchor:start;fill:#104272;fill-opacity:1;stroke:none;font-family:Tahoma Small Cap;-inkscape-font-specification:Tahoma Small Cap Bold"
           d="m 545.30819,410.24022 c -8e-5,4.90091 -0.87086,9.20573 -2.61236,12.9145 -1.74165,3.70879 -4.08447,6.77737 -7.0285,9.20573 -3.48321,2.91403 -7.30844,4.98918 -11.4757,6.22543 -4.16739,1.23628 -9.46467,1.8544 -15.89185,1.8544 l -37.0706,0 0,-98.61381 35.43733,0 c 6.80038,9e-5 11.95252,0.27604 15.45645,0.82784 3.50382,0.552 6.78999,1.71099 9.85855,3.47698 3.31721,1.89865 5.79479,4.43739 7.43279,7.61626 1.63783,3.17903 2.45677,6.84366 2.45684,10.99388 -7e-5,4.81265 -1.13002,9.09541 -3.38983,12.84827 -2.25998,3.75298 -8.10095,6.51251 -12.08163,8.27853 l 0,0.52982 c 5.72224,1.28048 10.30424,3.89648 13.746,7.84805 3.44158,3.95166 5.16243,9.28302 5.16251,15.99412 z M 520.9562,369.70853 c -5e-5,-1.58938 -0.38361,-3.22302 -1.1507,-4.90088 -0.76716,-1.67769 -1.95929,-2.89188 -3.57643,-3.64255 -1.53427,-0.70635 -3.34842,-1.09268 -5.44241,-1.15899 -2.09407,-0.0662 -5.21439,-0.0993 -9.36096,-0.0993 l -7.0585,0 0,20.8619 8.36469,0 c 3.98069,5e-5 6.76929,-0.0441 8.36577,-0.13241 1.5964,-0.0883 3.24467,-0.55185 4.94482,-1.3908 1.86592,-0.92713 3.15137,-2.20754 3.85635,-3.84124 0.70486,-1.63356 1.05732,-3.53209 1.05737,-5.69563 l 0,-1.1e-4 z m 0.40537,40.0681 c -5e-5,-3.04647 -0.58057,-5.4307 -1.74158,-7.15266 -1.1611,-1.72191 -2.90267,-3.02438 -5.22472,-3.90746 -1.40988,-0.57394 -3.34842,-0.89405 -5.81559,-0.96031 -2.46729,-0.0662 -5.77419,-0.0993 -9.92075,-0.0993 l -4.29173,0 0,24.70314 1.244,0 c 6.05398,2e-5 10.24205,-0.0441 12.56418,-0.13243 2.32205,-0.0882 4.68561,-0.68433 7.09068,-1.78815 2.11472,-0.97133 3.65933,-2.39523 4.63383,-4.27173 0.9744,-1.87643 1.46163,-4.00678 1.46168,-6.39101 l 0,-1.1e-4 z" />
        <path
           inkscape:connector-curvature="0"
           d="m 459.1465,410.24022 c -8e-5,4.90091 -0.87086,9.20573 -2.61236,12.9145 -1.74165,3.70879 -4.08447,6.77737 -7.02849,9.20573 -3.48322,2.91403 -7.30845,4.98918 -11.47571,6.22543 -4.16739,1.23628 -9.46466,1.8544 -15.89184,1.8544 l -37.07061,0 0,-98.61381 35.43733,0 c 6.80038,9e-5 11.95252,0.27604 15.45646,0.82784 3.50382,0.552 6.78998,1.71099 9.85854,3.47698 3.31721,1.89865 5.79479,4.43739 7.43279,7.61626 1.63783,3.17903 2.45677,6.84366 2.45685,10.99388 -8e-5,4.81265 -1.13003,9.09541 -3.38984,12.84827 -2.25998,3.75298 -8.10095,6.51251 -12.08163,8.27853 l 0,0.52982 c 5.72225,1.28048 10.30425,3.89648 13.746,7.84805 3.44159,3.95166 5.16243,9.28302 5.16251,15.99412 z m -24.35198,-40.53169 c -5e-5,-1.58938 -0.38362,-3.22302 -1.1507,-4.90088 -0.76717,-1.67769 -1.95929,-2.89188 -3.57643,-3.64255 -1.53428,-0.70635 -3.34843,-1.09268 -5.44242,-1.15899 -2.09407,-0.0662 -5.21439,-0.0993 -9.36096,-0.0993 l -7.05849,0 0,20.8619 8.36468,0 c 3.98069,5e-5 6.76929,-0.0441 8.36578,-0.13241 1.59639,-0.0883 3.24466,-0.55185 4.94482,-1.3908 1.86592,-0.92713 3.15136,-2.20754 3.85634,-3.84124 0.70486,-1.63356 1.05733,-3.53209 1.05738,-5.69563 l 0,-1.1e-4 z m 0.40536,40.0681 c -5e-5,-3.04647 -0.58057,-5.4307 -1.74157,-7.15266 -1.16111,-1.72191 -2.90267,-3.02438 -5.22473,-3.90746 -1.40988,-0.57394 -3.34841,-0.89405 -5.81559,-0.96031 -2.46729,-0.0662 -5.77419,-0.0993 -9.92075,-0.0993 l -4.29172,0 0,24.70314 1.24399,0 c 6.05398,2e-5 10.24205,-0.0441 12.56419,-0.13243 2.32204,-0.0882 4.6856,-0.68433 7.09067,-1.78815 2.11473,-0.97133 3.65933,-2.39523 4.63383,-4.27173 0.9744,-1.87643 1.46163,-4.00678 1.46168,-6.39101 l 0,-1.1e-4 z"
           style="font-size:98.63599396px;font-style:normal;font-variant:normal;font-weight:bold;font-stretch:normal;text-align:start;line-height:100%;writing-mode:lr-tb;text-anchor:start;fill:#104272;fill-opacity:1;stroke:none;font-family:Tahoma Small Cap;-inkscape-font-specification:Tahoma Small Cap Bold"
           id="path2881"
           sodipodi:nodetypes="cscsccccscsssccsccsssccccssscccscsccccssscc" />
        <g
           transform="matrix(0.79528357,0,0,0.79528357,109.01817,92.612879)"
           id="g3121">
          <path
             inkscape:connector-curvature="0"
             d="m 628.48767,437.05889 0,-76.00974 41.13219,0 0,10.8661 -28.51692,0 0,21.41418 26.50271,0 0,10.81311 -26.50271,0 0,22.05025 30.26609,0 0,10.8661 z"
             id="path2865"
             style="font-size:72px;font-style:normal;font-variant:normal;font-weight:bold;font-stretch:normal;text-align:start;line-height:100%;writing-mode:lr-tb;text-anchor:start;fill:#104272;fill-opacity:1;stroke:none;font-family:Segoe Media Center Semibold;-inkscape-font-specification:Segoe Media Center Semibold Bold" />
          <path
             inkscape:connector-curvature="0"
             sodipodi:nodetypes="ccccccc"
             d="m 749.62043,437.05889 0,-76.00974 12.61529,0 0,65.14364 26.10095,0 0,10.8661 -38.71624,0 z"
             id="path2869"
             style="font-size:72px;font-style:normal;font-variant:normal;font-weight:bold;font-stretch:normal;text-align:start;line-height:100%;writing-mode:lr-tb;text-anchor:start;fill:#104272;fill-opacity:1;stroke:none;font-family:Segoe Media Center Semibold;-inkscape-font-specification:Segoe Media Center Semibold Bold" />
          <path
             inkscape:connector-curvature="0"
             d="m 801.41413,437.05889 0,-76.00974 12.61526,0 0,76.00974 z"
             id="path2871"
             style="font-size:72px;font-style:normal;font-variant:normal;font-weight:bold;font-stretch:normal;text-align:start;line-height:100%;writing-mode:lr-tb;text-anchor:start;fill:#104272;fill-opacity:1;stroke:none;font-family:Segoe Media Center Semibold;-inkscape-font-specification:Segoe Media Center Semibold Bold" />
          <path
             inkscape:connector-curvature="0"
             sodipodi:nodetypes="ccccccccccc"
             d="m 872.5588,437.05889 c -10.53272,-20.39694 -22.38456,-40.233 -33.28695,-60.36228 l 0.31804,60.36228 -12.40326,0 0,-76.00974 15.95465,0 c 10.79691,20.14343 21.32709,39.36546 32.49185,59.30218 l -0.37103,-59.30218 12.40326,0 0,76.00974 -15.10656,0 z"
             id="path2873"
             style="font-size:72px;font-style:normal;font-variant:normal;font-weight:bold;font-stretch:normal;text-align:start;line-height:100%;writing-mode:lr-tb;text-anchor:start;fill:#104272;fill-opacity:1;stroke:none;font-family:Segoe Media Center Semibold;-inkscape-font-specification:Segoe Media Center Semibold Bold" />
          <path
             inkscape:connector-curvature="0"
             sodipodi:nodetypes="cccsssccssscccccssscccccssscc"
             d="m 563.02728,437.14861 0,-76.23659 24.08311,0 c 7.44286,8e-5 13.23768,1.60384 17.38449,4.81131 4.14671,3.20759 6.22008,7.45183 6.22014,12.73267 -6e-5,4.07593 -1.23167,7.69991 -3.69487,10.87196 -2.46329,3.17214 -5.80374,5.43159 -10.02134,6.77836 l 0,0.21265 c 5.49353,0.74433 8.60971,2.76454 11.64008,6.06065 3.03027,3.29617 4.54543,7.47837 4.54549,12.5466 -6e-5,6.69864 -2.48988,12.07701 -7.46949,16.13516 -4.9797,4.05815 -11.27958,6.08723 -18.89965,6.08723 l -23.78796,0 z m 12.65294,-65.76336 0,21.10594 8.75196,0 c 4.2885,5e-5 7.61122,-1.01006 9.96818,-3.03032 2.35688,-2.02017 3.53533,-4.891 3.53537,-8.6125 -4e-5,-3.15432 -1.11647,-5.5201 -3.3493,-7.09734 -2.23291,-1.57713 -5.58221,-2.36572 -10.04792,-2.36578 l -8.85829,0 z m 0,31.57917 0,23.71096 9.54011,0 c 4.57203,10e-6 8.14285,-1.0987 10.71246,-3.29614 2.56953,-2.19741 3.85431,-5.12141 3.85436,-8.772 -5e-5,-3.61509 -1.32027,-6.45934 -3.96068,-8.53275 -2.6405,-2.07335 -6.54802,-3.11004 -11.72258,-3.11007 l -8.42367,0 z"
             style="font-size:190.05383301px;font-style:normal;font-variant:normal;font-weight:bold;font-stretch:normal;text-align:start;line-height:100%;writing-mode:lr-tb;text-anchor:start;fill:#104272;fill-opacity:1;stroke:none;font-family:Segoe Media Center Semibold;-inkscape-font-specification:Segoe Media Center Semibold Bold"
             id="path2885" />
          <path
             sodipodi:nodetypes="ccccccccscssscccscsccccscsc"
             id="path2870-1"
             style="font-size:98.63599396px;font-style:normal;font-variant:normal;font-weight:bold;font-stretch:normal;text-align:start;line-height:100%;writing-mode:lr-tb;text-anchor:start;fill:#104272;fill-opacity:1;stroke:none;font-family:Tahoma Small Cap;-inkscape-font-specification:Tahoma Small Cap Bold"
             d="m 741.9655,436.09714 -20.85866,0 -16.825,-27.22778 -6.12952,0 0,27.22778 -17.01627,0 0,-74.25303 27.39986,0 c 3.78134,7e-5 7.07481,0.25772 9.8804,0.77295 2.80551,0.51537 5.39759,1.58753 7.77626,3.21648 2.43955,1.69555 4.37599,3.84818 5.80931,6.45786 1.43322,2.6098 2.14986,5.926 2.1499,9.9486 -4e-5,5.68497 -1.17411,10.29773 -3.52217,13.83829 -2.34818,3.54065 -5.48918,6.35817 -9.423,8.45258 l 20.75889,31.56627 z m -25.37888,-51.51335 c -5e-5,-1.86168 -0.32788,-3.46576 -0.98348,-4.81224 -0.65568,-1.34637 -1.74588,-2.38528 -3.2706,-3.11673 -1.06736,-0.49861 -2.25668,-0.81445 -3.56793,-0.94749 -1.31132,-0.13292 -2.9428,-0.19941 -4.89446,-0.19947 l -5.71783,0 0,19.99696 4.89447,0 c 2.37857,5e-5 4.39887,-0.15789 6.0609,-0.47374 1.66194,-0.3158 3.07233,-0.98901 4.2312,-2.01964 1.09777,-0.93083 1.91352,-2.04454 2.44722,-3.34115 0.53363,-1.29651 0.80046,-2.99201 0.80051,-5.0865 z"
             inkscape:connector-curvature="0" />
        </g>
      </g>
    </g>
  </g>
</svg>
