<?xml version="1.0" encoding="UTF-8" standalone="no"?>
<!-- Created with Inkscape (http://www.inkscape.org/) -->

<svg
   xmlns:dc="http://purl.org/dc/elements/1.1/"
   xmlns:cc="http://creativecommons.org/ns#"
   xmlns:rdf="http://www.w3.org/1999/02/22-rdf-syntax-ns#"
   xmlns:svg="http://www.w3.org/2000/svg"
   xmlns="http://www.w3.org/2000/svg"
   xmlns:xlink="http://www.w3.org/1999/xlink"
   xmlns:sodipodi="http://sodipodi.sourceforge.net/DTD/sodipodi-0.dtd"
   xmlns:inkscape="http://www.inkscape.org/namespaces/inkscape"
   version="1.1"
   width="1207.064"
   height="188.125"
   id="svg2"
   inkscape:version="0.91pre2 r13516"
   sodipodi:docname="sky cinema hd.svg">
  <sodipodi:namedview
     pagecolor="#ffffff"
     bordercolor="#666666"
     borderopacity="1"
     objecttolerance="10"
     gridtolerance="10"
     guidetolerance="10"
     inkscape:pageopacity="0"
     inkscape:pageshadow="2"
     inkscape:window-width="1920"
     inkscape:window-height="1017"
     id="namedview110"
     showgrid="false"
     fit-margin-top="0"
     fit-margin-left="0"
     fit-margin-right="0"
     fit-margin-bottom="0"
     inkscape:zoom="1.0248902"
     inkscape:cx="583.87898"
     inkscape:cy="94.0625"
     inkscape:window-x="-8"
     inkscape:window-y="-8"
     inkscape:window-maximized="1"
     inkscape:current-layer="svg2" />
  <metadata
     id="metadata8">
    <rdf:RDF>
      <cc:Work
         rdf:about="">
        <dc:format>image/svg+xml</dc:format>
        <dc:type
           rdf:resource="http://purl.org/dc/dcmitype/StillImage" />
        <dc:title></dc:title>
      </cc:Work>
    </rdf:RDF>
  </metadata>
  <defs
     id="defs6">
    <linearGradient
       id="linearGradient3962">
      <stop
         id="stop3964"
         style="stop-color:#505050;stop-opacity:1"
         offset="0" />
      <stop
         id="stop3966"
         style="stop-color:#808080;stop-opacity:1"
         offset="0.11204819" />
      <stop
         id="stop3968"
         style="stop-color:#808080;stop-opacity:1"
         offset="0.94417667" />
      <stop
         id="stop3970"
         style="stop-color:#b4b4b4;stop-opacity:1"
         offset="1" />
    </linearGradient>
    <linearGradient
       id="linearGradient3946">
      <stop
         id="stop3948"
         style="stop-color:#a0a0a0;stop-opacity:1"
         offset="0" />
      <stop
         id="stop3958"
         style="stop-color:#c8c8c8;stop-opacity:1"
         offset="0.11235955" />
      <stop
         id="stop3956"
         style="stop-color:#c8c8c8;stop-opacity:1"
         offset="0.94382024" />
      <stop
         id="stop3950"
         style="stop-color:#f0f0f0;stop-opacity:1"
         offset="1" />
    </linearGradient>
    <linearGradient
       id="linearGradient3898">
      <stop
         id="stop3900"
         style="stop-color:#0d1329;stop-opacity:1"
         offset="0" />
      <stop
         id="stop3908"
         style="stop-color:#202f66;stop-opacity:1"
         offset="0.11200321" />
      <stop
         id="stop3910"
         style="stop-color:#202f66;stop-opacity:1"
         offset="0.94379765" />
      <stop
         id="stop3902"
         style="stop-color:#334ba3;stop-opacity:1"
         offset="1" />
    </linearGradient>
    <linearGradient
       id="linearGradient3890">
      <stop
         id="stop3892"
         style="stop-color:#ffffff;stop-opacity:1"
         offset="0" />
      <stop
         id="stop3894"
         style="stop-color:#ffffff;stop-opacity:0"
         offset="1" />
    </linearGradient>
    <linearGradient
       x1="695.35712"
       y1="-46.142857"
       x2="695.35712"
       y2="-401.85715"
       id="linearGradient4145"
       xlink:href="#linearGradient3962"
       gradientUnits="userSpaceOnUse"
       gradientTransform="matrix(0.57823315,0,0,0.50033761,-55.376664,206.14678)" />
    <linearGradient
       x1="1189.4546"
       y1="-46"
       x2="1189.4546"
       y2="-402"
       id="linearGradient4149"
       xlink:href="#linearGradient3946"
       gradientUnits="userSpaceOnUse"
       gradientTransform="matrix(0.50033761,0,0,0.50033761,-2.5050642,206.14678)" />
    <linearGradient
       x1="13.928571"
       y1="-46.142857"
       x2="13.928571"
       y2="-402"
       id="linearGradient4153"
       xlink:href="#linearGradient3898"
       gradientUnits="userSpaceOnUse"
       gradientTransform="matrix(0.50033761,0,0,0.50033761,-2.5050642,206.14678)" />
    <radialGradient
       cx="49.82143"
       cy="43.910713"
       r="19.285715"
       fx="49.82143"
       fy="43.910713"
       id="radialGradient4168"
       xlink:href="#linearGradient3890"
       gradientUnits="userSpaceOnUse"
       gradientTransform="matrix(0.31337453,-0.25678773,0.08202941,0.10010574,-1.6332093,23.696989)" />
  </defs>
  <path
     d="m 30.267049,5.0110608 c -13.99547,0 -25.2670491,11.2715802 -25.2670491,25.2670492 l 0,127.58609 c 0,13.99547 11.2715791,25.26705 25.2670491,25.26705 l 315.134521,0 0,-178.1201892 z"
     id="rect2987"
     style="fill:url(#linearGradient4153);fill-opacity:1;stroke:none"
     inkscape:connector-curvature="0" />
  <path
     d="m 23.625179,10.346837 a 2.4959906,7.8135363 50.667864 1 1 -12.087303,9.90467 2.4959906,7.8135363 50.667864 1 1 12.087303,-9.90467 z"
     id="path3888"
     style="fill:url(#radialGradient4168);fill-opacity:1;stroke:none"
     inkscape:connector-curvature="0" />
  <rect
     width="849.71747"
     height="178.12019"
     x="345.40826"
     y="5.0110607"
     id="rect3871"
     style="fill:url(#linearGradient4149);fill-opacity:1;stroke:none" />
  <path
     d="m 338.83379,5.0110608 c 0,0 -1.7347,4.394195 -1.7347,11.7579342 l 0,154.182165 c 0,6.20395 1.7347,12.18009 1.7347,12.18009 l 17.96137,0 c 0,0 -1.7347,-6.07581 -1.7347,-12.18009 l 0,-154.041445 c 0,-7.5154416 1.7347,-11.8986542 1.7347,-11.8986542 z m 846.05341,0 c 0,0 1.7347,4.3832126 1.7347,11.8986542 l 0,154.041445 c 0,6.10428 -1.7347,12.18009 -1.7347,12.18009 l 12.2335,-4.39071 c 0,0 5.1496,-1.58543 5.1496,-7.78938 l 0,-154.182165 c 0,-7.3637392 -4.6617,-8.3429342 -4.6617,-8.3429342 z"
     id="rect3883"
     style="fill:url(#linearGradient4145);fill-opacity:1;stroke:none"
     inkscape:connector-curvature="0"
     sodipodi:nodetypes="cssccssccsssccsscs" />
  <path
     d="m 141.70894,18.461327 c -4.96723,0 -9.5079,2.472553 -9.5079,8.55185 l 0,107.121223 c 0,2.38412 2.57973,4.39911 4.57756,4.39911 l 12.47084,0 c 4.98671,0 9.11327,-3.4842 9.11327,-9.5674 l 0,-107.106345 c 0,-2.395827 -2.18938,-3.398438 -4.1755,-3.398438 z M 76.707436,54.311352 c -18.998805,0 -28.972185,11.676869 -28.972185,25.708422 0,12.470775 7.679487,21.056676 23.0082,24.484806 l 24.473154,5.47319 c 4.976605,1.11297 5.985645,1.51977 5.985645,4.05607 0,1.94709 -1.01107,3.2345 -5.502269,3.2345 l -37.947921,0 c -6.083205,0 -8.52953,3.79354 -8.52953,8.75295 l 0,7.9272 c 0,1.9861 0.984554,4.58502 3.368673,4.58502 l 41.62893,0 c 22.483267,0 32.560727,-12.02512 32.560727,-25.04997 0,-13.47343 -8.78765,-22.059881 -24.01631,-25.47384 L 78.283949,82.521642 c -4.974301,-1.115137 -5.978199,-1.511965 -5.978199,-4.056067 0,-1.939128 1.007175,-2.951591 5.502273,-2.951591 l 36.416007,0 c 6.0676,0 9.52277,-4.072158 9.52277,-9.043307 l 0,-7.904884 c 0,-1.990033 -1.98914,-4.254441 -4.36935,-4.254441 z M 199.0212,53.980774 c -3.74982,0 -6.42662,1.994356 -8.65678,4.399103 l -31.76827,34.110727 28.49626,41.524816 c 1.64493,2.397 3.69098,4.51809 6.18047,4.51809 l 16.97727,0 c 2.5402,0 4.41771,-2.01543 4.41771,-4.15371 0,-1.31109 -0.65931,-2.14768 -1.47983,-3.36868 l -24.62141,-36.638616 18.46391,-20.062893 36.70506,55.058549 -17.04777,34.6531 c -0.45653,1.03013 -0.98904,2.02417 -0.98904,3.01917 0,2.02514 2.48552,3.60293 4.51065,3.60293 l 15.04383,0 c 3.06696,0 4.38973,-1.65741 5.52523,-4.12347 L 300.36518,61.027233 c 0.48715,-1.036384 0.99646,-2.019877 0.99646,-3.026617 0,-2.021214 -2.13967,-4.019842 -4.17261,-4.019842 l -15.16282,0 c -3.03579,0 -4.68633,1.264363 -5.78584,3.736281 L 255.11391,105.21329 225.27166,58.207856 c -1.84175,-2.914637 -3.78492,-4.227082 -8.20977,-4.227082 z"
     id="path5649"
     style="fill:#ffffff;fill-opacity:1;fill-rule:nonzero;stroke:none"
     inkscape:connector-curvature="0" />
  <g
     transform="translate(0,-200)"
     id="g4536">
    <path
       d="m 683.375,247.53125 c -10.69152,0 -19.28125,8.621 -19.28125,19.3125 l 0,54.46875 c 0,10.6915 8.58973,19.28125 19.28125,19.28125 l 60.90625,0 0,-16.875 -60.625,0 c -1.1879,0 -2.15625,-0.96831 -2.15625,-2.15625 l 0,-19.0625 62.78125,0 0,-16.875 -62.78125,0 0,-19.0625 c 0,-1.18794 0.96835,-2.125 2.15625,-2.125 l 60.625,0 0,-16.90625 -60.90625,0 z"
       id="rect3798"
       style="fill:#202f66;fill-opacity:1;stroke:none"
       inkscape:connector-curvature="0" />
    <path
       d="m 931.99451,247.53975 c -5.29031,0 -12.29222,3.67709 -15.43228,11.66412 l -32.00598,81.39868 18.62194,0 8.11486,-20.63893 49.1738,0 8.11485,20.63893 18.62197,0 -31.99036,-81.38304 c -3.0922,-7.86528 -9.63314,-11.67976 -15.44793,-11.67976 l -7.77087,0 z m 1.78246,17.16784 c 0.10575,-0.005 0.22581,0 0.35961,0 l 3.518,0 c 1.04684,0 1.10611,0.0667 1.68864,1.54792 l 14.54106,36.96244 -36.00867,0 14.58797,-37.1188 c 0.45595,-1.15996 0.57314,-1.36083 1.31339,-1.39156 z"
       id="rect3010"
       style="fill:#202f66;fill-opacity:1;stroke:none"
       inkscape:connector-curvature="0" />
    <rect
       width="16.886395"
       height="93.062798"
       ry="0"
       x="527.56488"
       y="247.53976"
       id="rect3807"
       style="fill:#202f66;fill-opacity:1;stroke:none" />
    <path
       d="m 461.6422,247.53975 c -17.8192,0 -32.1624,14.34316 -32.1624,32.16233 l 0,28.73814 c 0,17.81917 14.3432,32.16233 32.1624,32.16233 l 50.3933,0 0,-17.04275 -50.8155,0 c -8.1372,0 -14.6974,-6.5446 -14.6974,-14.68178 l 0,-29.61373 c 0,-8.13719 6.5602,-14.68179 14.6974,-14.68179 l 50.8155,0 0,-17.04275 -50.3933,0 z"
       id="rect3809"
       style="fill:#202f66;fill-opacity:1;stroke:none"
       inkscape:connector-curvature="0" />
    <path
       d="m 568.67404,247.53975 c -5.14848,0 -8.8966,3.59795 -8.8966,8.00541 l 0,85.05739 17.01147,0 0,-64.07449 60.52519,61.94805 c 1.52593,1.56221 2.64329,2.12644 5.23789,2.12644 5.14847,0 8.89665,-3.59798 8.89665,-8.0054 l 0,-85.0574 -17.01148,0 0,64.07449 -60.52519,-61.94805 c -1.52598,-1.56217 -2.64328,-2.12644 -5.23793,-2.12644 z"
       id="path3826"
       style="fill:#202f66;fill-opacity:1;stroke:none"
       inkscape:connector-curvature="0" />
    <path
       d="m 775.125,247.53125 c -6.66803,0.0233 -10.90625,4.01906 -10.90625,11.0625 l 0,82 16.90625,0 0,-60.71875 25.15625,38.9375 c 5.60412,8.6742 16.08338,8.6742 21.6875,0 l 25.15625,-38.9375 0,60.71875 16.90625,0 0,-82 c 0,-7.04344 -4.23822,-11.0392 -10.90625,-11.0625 -4.98853,-0.0174 -7.77277,1.53852 -9.96875,4.9375 l -32.03125,49.5625 -32.03125,-49.5625 c -2.19598,-3.39898 -4.98022,-4.95493 -9.96875,-4.9375 z"
       id="rect4522"
       style="fill:#202f66;fill-opacity:1;stroke:none"
       inkscape:connector-curvature="0" />
  </g>
  <path
     d="m 19.872174,9.9988 c -4.856941,0 -13.6192895,7.21308 -14.8445305,18.96592 -2.287e-4,0.005 2.259e-4,0.0105 0,0.0156 -0.018771,0.42673 -0.027643,0.86562 -0.027643,1.29778 l 0,127.58609 c 0,4.5681 1.0566484,8.84987 2.9163836,12.53971 -0.1718867,-1.15864 -0.2434293,-2.38479 -0.1935043,-3.67435 0.291085,-7.51871 5.2442622,-11.54419 22.2867662,-20.78163 23.9573,-12.98542 94.544474,-26.57387 115.568434,-30.65037 135.4773,-26.26874 179.08221,-35.209042 314.44675,-44.995172 94.1836,-6.80897 101.6905,-7.947113 195.9156,-7.737723 85.10275,0.18912 181.849,-4.967842 322.4104,15.261638 48.83647,7.8472 131.43887,31.411567 153.94147,42.667637 22.2947,11.15201 68.7047,28.62913 69.4953,42.0922 0.1196,2.0371 0.01,4.08761 -0.235,6.09786 1.3679,-3.2764 2.1424,-6.94332 2.1424,-10.8198 l 0,-127.58609 c 0,-0.28633 -0.01,-0.57598 -0.013,-0.85995 -1.7478,-6.42547 -7.4447,-18.13724 -17.4153,-18.13724 -12.166,0 -6.9936,4.73757 -99.6408,4.73757 l -970.49851,0 C 36.123745,15.98281 33.647144,9.9988 19.872174,9.9988 Z"
     id="rect3007"
     style="opacity:0.4;fill:#ffffff;fill-opacity:1;stroke:none"
     inkscape:connector-curvature="0"
     sodipodi:nodetypes="sccsscssssscsccsscsscs" />
  <path
     d="M 26.757984,0 C 11.930884,0 0,13.53309 0,30.3125 L 0,157.84375 C 0,174.62316 11.930884,188.125 26.757984,188.125 l 1153.548116,0 c 14.8271,0 26.7579,-13.50184 26.7579,-30.28125 l 0,-127.53125 c 0,-8.266725 -2.8959,-15.745489 -7.6073,-21.2061661 C 1194.6051,3.4831861 1187.8283,0 1180.3061,0 Z m 0.08284,5.3597074 1153.382376,0 c 12.3654,0 22.1046,11.0042726 22.1046,24.9840426 l 0,127.46875 c 0,13.97975 -9.7392,24.95279 -22.1046,24.95279 l -1153.382376,0 c -12.36541,0 -22.104729,-10.97304 -22.104729,-24.95279 l 0,-127.46875 c 0,-13.97977 9.739319,-24.9840426 22.104729,-24.9840426 z"
     id="rect4116"
     style="fill:#333333;stroke:none"
     inkscape:connector-curvature="0"
     sodipodi:nodetypes="sssssssssssssssssss" />
</svg>
