<?xml version="1.0" encoding="UTF-8" standalone="no"?>
<!-- Created with Inkscape (http://www.inkscape.org/) -->
<svg
   xmlns:dc="http://purl.org/dc/elements/1.1/"
   xmlns:cc="http://creativecommons.org/ns#"
   xmlns:rdf="http://www.w3.org/1999/02/22-rdf-syntax-ns#"
   xmlns:svg="http://www.w3.org/2000/svg"
   xmlns="http://www.w3.org/2000/svg"
   xmlns:sodipodi="http://sodipodi.sourceforge.net/DTD/sodipodi-0.dtd"
   xmlns:inkscape="http://www.inkscape.org/namespaces/inkscape"
   width="608.6875"
   height="172.98463"
   id="svg2601"
   sodipodi:version="0.32"
   inkscape:version="0.46"
   version="1.0"
   sodipodi:docname="Spiegel Geschichte Logo.svg"
   inkscape:output_extension="org.inkscape.output.svg.inkscape">
  <defs
     id="defs2603">
    <inkscape:perspective
       sodipodi:type="inkscape:persp3d"
       inkscape:vp_x="0 : 526.18109 : 1"
       inkscape:vp_y="0 : 1000 : 0"
       inkscape:vp_z="744.09448 : 526.18109 : 1"
       inkscape:persp3d-origin="372.04724 : 350.78739 : 1"
       id="perspective2609" />
  </defs>
  <sodipodi:namedview
     id="base"
     pagecolor="#ffffff"
     bordercolor="#666666"
     borderopacity="1.0"
     inkscape:pageopacity="0.0"
     inkscape:pageshadow="2"
     inkscape:zoom="1.0780492"
     inkscape:cx="304.34375"
     inkscape:cy="86.492317"
     inkscape:document-units="px"
     inkscape:current-layer="layer1"
     showgrid="false"
     inkscape:snap-global="false"
     inkscape:window-width="1024"
     inkscape:window-height="749"
     inkscape:window-x="0"
     inkscape:window-y="0" />
  <metadata
     id="metadata2606">
    <rdf:RDF>
      <cc:Work
         rdf:about="">
        <dc:format>image/svg+xml</dc:format>
        <dc:type
           rdf:resource="http://purl.org/dc/dcmitype/StillImage" />
      </cc:Work>
    </rdf:RDF>
  </metadata>
  <g
     inkscape:label="Ebene 1"
     inkscape:groupmode="layer"
     id="layer1"
     transform="translate(-51.221858,-445.86987)">
    <g
       id="g2559"
       transform="matrix(0.1874802,0,0,0.1874802,21.068179,542.25212)">
      <rect
         width="1659.1766"
         height="469.34601"
         x="163.33521"
         y="-514.09296"
         style="fill:#ac000b;fill-opacity:1;fill-rule:nonzero;stroke:none;stroke-width:1.00187933;stroke-linecap:butt;stroke-linejoin:bevel;stroke-miterlimit:4;stroke-dasharray:none;stroke-dashoffset:0;stroke-opacity:1"
         id="rect4407" />
      <path
         sodipodi:nodetypes="cscccccccscccccccccssccccccccscccccccccccccccccccccccccccccccccccccccccccccccccccsccsscccccccccccccccccccccccccccccccccccccccccccccccccc"
         id="path2236"
         style="fill:#000000;fill-opacity:1"
         d="M 329.31906,-126.38659 C 307.74387,-126.38659 295.32902,-145.85214 295.32902,-159.992 C 295.32902,-185.84698 295.42374,-232.74128 295.42374,-232.74128 L 351.77259,-232.83305 C 351.69373,-233.16061 352.33596,-175.66995 352.33596,-175.66995 L 420.47753,-175.66883 C 420.07056,-175.66995 420.07056,-232.79354 420.07056,-261.64762 L 295.41304,-261.64762 L 295.43435,-398.87572 C 295.37549,-419.21266 314.44552,-432.2235 329.274,-432.32724 C 370.14754,-432.61321 445.59854,-432.32724 445.59854,-432.32724 C 466.04624,-432.37335 479.80554,-416.02774 479.85257,-398.50561 L 479.67195,-340.90834 L 420.07056,-340.90834 L 420.47753,-382.20398 C 397.76621,-382.24875 352.33596,-382.222 352.33596,-382.222 C 352.33596,-382.222 351.79916,-313.00468 353.67646,-311.44666 L 479.67195,-310.90181 C 479.82366,-260.24377 479.74592,-210.51488 479.62848,-160.0424 C 479.62848,-139.63411 461.27766,-126.15635 444.84159,-126.15635 C 434.89839,-126.15635 412.36741,-126.41275 387.68406,-126.41275 C 365.09535,-126.41275 340.83662,-126.38659 329.31906,-126.38659 z M 510.91538,-175.66995 L 534.29746,-175.66995 L 534.3107,-278.70177 L 534.07187,-382.20398 L 510.91538,-382.222 L 511.07131,-432.4734 L 687.94034,-432.41901 C 705.81295,-432.41901 721.83097,-418.26151 721.83097,-398.50865 C 721.83097,-376.96178 721.83097,-347.46853 721.83097,-347.46853 L 721.83097,-295.51077 C 721.83097,-276.1848 705.95545,-261.80704 687.28356,-261.80704 L 671.21879,-262.03805 C 587.65063,-261.64762 615.73174,-261.64762 594.16368,-261.64762 L 594.16368,-175.66995 L 615.73174,-175.66995 L 615.73174,-126.38089 L 510.91538,-126.38089 L 510.91538,-175.66995 z M 663.90701,-310.90181 C 663.90701,-340.90834 663.90701,-382.222 663.90701,-382.222 L 594.16368,-382.222 C 594.642,-381.98955 594.16368,-340.90834 594.16368,-310.90181 C 594.16368,-310.90181 662.8704,-310.26108 663.90701,-310.90181 z M 736.2706,-175.66995 L 758.44325,-175.66995 L 758.444,-382.20398 L 736.2706,-382.222 L 736.38223,-432.42956 L 838.66818,-432.43948 L 838.66818,-382.222 L 816.49544,-382.222 L 816.49544,-175.66995 L 838.66818,-175.66995 L 838.71099,-126.38205 L 736.2706,-126.38089 L 736.2706,-175.66995 z M 865.88016,-175.66995 L 887.059,-175.66883 L 886.84345,-382.222 L 865.88016,-382.222 L 865.88016,-432.43948 L 1073.9003,-432.43948 L 1073.9003,-340.90834 L 1017.8639,-340.90834 C 1017.8639,-340.90834 1017.8639,-382.222 1017.8639,-382.222 L 946.2031,-382.20398 C 946.10499,-382.222 946.10499,-340.90834 946.10499,-310.90181 L 1038.8272,-310.90181 L 1038.8272,-261.64762 C 1017.8639,-261.64762 946.10499,-261.64762 946.10499,-261.64762 L 946.10499,-175.66995 C 946.10499,-175.66995 1017.8639,-175.66995 1017.8639,-175.66995 L 1018.021,-232.49396 L 1073.8794,-231.99658 L 1073.8794,-179.42401 L 1073.8794,-126.85144 L 865.90428,-126.37388 L 865.88016,-175.66995 z M 1138.8851,-126.20122 C 1112.3543,-126.20122 1103.219,-148.95783 1103.219,-160.11523 C 1103.219,-171.21449 1103.3988,-140.88213 1103.6728,-281.33481 L 1103.9207,-400.59821 C 1103.9207,-413.60974 1116.6611,-431.96017 1137.3017,-431.96017 C 1178.4241,-431.96017 1218.2387,-432.32724 1255.3909,-432.32724 C 1274.0845,-432.32724 1288.4988,-416.16422 1288.4988,-398.11632 L 1288.4796,-340.40109 L 1228.1515,-340.90834 L 1228.1515,-382.222 L 1160.2485,-382.20398 L 1160.0801,-175.66995 L 1228.1515,-175.66995 C 1228.3758,-204.32931 1228.2559,-232.98817 1228.1515,-261.64762 L 1181.3197,-261.64762 L 1181.3197,-310.90181 L 1288.3885,-310.90181 L 1288.3941,-126.38205 L 1209.3006,-126.44748 C 1180.2804,-126.44748 1165.4488,-126.20122 1138.8851,-126.20122 z M 1319.4791,-126.38089 L 1319.4791,-175.66995 L 1340.8993,-175.66995 L 1340.8993,-382.222 L 1319.4791,-382.222 L 1319.4791,-432.43948 L 1527.7869,-432.42956 L 1527.5251,-340.90834 L 1471.3896,-340.90834 C 1471.3896,-340.90834 1471.3896,-382.222 1471.3896,-382.222 L 1400.974,-382.222 C 1400.974,-340.90834 1400.974,-340.90834 1400.974,-310.90181 L 1492.1128,-310.3861 L 1491.8249,-261.64762 C 1471.3896,-261.64762 1400.974,-261.64762 1400.974,-261.64762 L 1400.974,-175.66995 C 1400.974,-175.66995 1471.3896,-175.66995 1471.3896,-175.66995 L 1471.4593,-232.46598 L 1527.7869,-232.46598 L 1527.7869,-126.38205 C 1319.4791,-126.38089 1319.4791,-126.38089 1319.4791,-126.38089 z M 1560.6448,-175.1417 L 1584.153,-175.66995 C 1584.153,-232.79354 1584.153,-310.90181 1584.153,-382.222 L 1560.517,-382.222 L 1560.6448,-432.42956 L 1667.6175,-432.43948 L 1667.6175,-382.222 C 1667.6175,-382.222 1642.7506,-382.222 1642.7506,-382.222 L 1642.7506,-175.66995 L 1713.1662,-175.66995 L 1713.1662,-232.79354 L 1769.3016,-232.79354 L 1769.3016,-126.38089 L 1560.517,-126.38089 L 1560.6448,-175.1417 z" />
      <path
         sodipodi:nodetypes="cscccccccscccccccccssccccccccscccccccccccccccccccccccccccccccccccccccccccccccccccsccsscccccccccccccccccccccccccccccccccccccccccccccccccc"
         id="path5380"
         style="fill:#ffffff;fill-opacity:1"
         d="M 291.80573,-126.38659 C 270.23044,-126.38659 257.81555,-145.85214 257.81555,-159.992 C 257.81555,-185.84698 257.91033,-232.74128 257.91033,-232.74128 L 314.25917,-232.83305 C 314.18022,-233.16061 314.82263,-175.66995 314.82263,-175.66995 L 382.9642,-175.66883 C 382.55714,-175.66995 382.55714,-232.79354 382.55714,-261.64762 L 257.89955,-261.64762 L 257.92087,-398.87572 C 257.86205,-419.21266 276.9321,-432.2235 291.76058,-432.32724 C 332.63421,-432.61321 408.08521,-432.32724 408.08521,-432.32724 C 428.53282,-432.37335 442.29221,-416.02774 442.33915,-398.50561 L 442.15852,-340.90834 L 382.55714,-340.90834 L 382.9642,-382.20398 C 360.25278,-382.24875 314.82263,-382.222 314.82263,-382.222 C 314.82263,-382.222 314.28583,-313.00468 316.16313,-311.44666 L 442.15852,-310.90181 C 442.31023,-260.24377 442.2326,-210.51488 442.11506,-160.0424 C 442.11506,-139.63411 423.76423,-126.15635 407.32817,-126.15635 C 397.38496,-126.15635 374.85398,-126.41275 350.17073,-126.41275 C 327.58202,-126.41275 303.32319,-126.38659 291.80573,-126.38659 z M 473.40195,-175.66995 L 496.78404,-175.66995 L 496.79737,-278.70177 L 496.55845,-382.20398 L 473.40195,-382.222 L 473.55798,-432.4734 L 650.42701,-432.41901 C 668.29962,-432.41901 684.31755,-418.26151 684.31755,-398.50865 C 684.31755,-376.96178 684.31755,-347.46853 684.31755,-347.46853 L 684.31755,-295.51077 C 684.31755,-276.1848 668.44212,-261.80704 649.77023,-261.80704 L 633.70536,-262.03805 C 550.13721,-261.64762 578.21832,-261.64762 556.65035,-261.64762 L 556.65035,-175.66995 L 578.21832,-175.66995 L 578.21832,-126.38089 L 473.40195,-126.38089 L 473.40195,-175.66995 z M 626.39359,-310.90181 C 626.39359,-340.90834 626.39359,-382.222 626.39359,-382.222 L 556.65035,-382.222 C 557.12867,-381.98955 556.65035,-340.90834 556.65035,-310.90181 C 556.65035,-310.90181 625.35698,-310.26108 626.39359,-310.90181 z M 698.75718,-175.66995 L 720.92992,-175.66995 L 720.93058,-382.20398 L 698.75718,-382.222 L 698.8689,-432.42956 L 801.15476,-432.43948 L 801.15476,-382.222 L 778.98202,-382.222 L 778.98202,-175.66995 L 801.15476,-175.66995 L 801.19766,-126.38205 L 698.75718,-126.38089 L 698.75718,-175.66995 z M 828.36673,-175.66995 L 849.54567,-175.66883 L 849.33003,-382.222 L 828.36673,-382.222 L 828.36673,-432.43948 L 1036.387,-432.43948 L 1036.387,-340.90834 L 980.35049,-340.90834 C 980.35049,-340.90834 980.35049,-382.222 980.35049,-382.222 L 908.68967,-382.20398 C 908.59157,-382.222 908.59157,-340.90834 908.59157,-310.90181 L 1001.3138,-310.90181 L 1001.3138,-261.64762 C 980.35049,-261.64762 908.59157,-261.64762 908.59157,-261.64762 L 908.59157,-175.66995 C 908.59157,-175.66995 980.35049,-175.66995 980.35049,-175.66995 L 980.50755,-232.49396 L 1036.366,-231.99658 L 1036.366,-179.42401 L 1036.366,-126.85144 L 828.39095,-126.37388 L 828.36673,-175.66995 z M 1101.3718,-126.20122 C 1074.841,-126.20122 1065.7055,-148.95783 1065.7055,-160.11523 C 1065.7055,-171.21449 1065.8855,-140.88213 1066.1593,-281.33481 L 1066.4074,-400.59821 C 1066.4074,-413.60974 1079.1478,-431.96017 1099.7882,-431.96017 C 1140.9108,-431.96017 1180.7253,-432.32724 1217.8775,-432.32724 C 1236.5711,-432.32724 1250.9854,-416.16422 1250.9854,-398.11632 L 1250.9662,-340.40109 L 1190.638,-340.90834 L 1190.638,-382.222 L 1122.7351,-382.20398 L 1122.5668,-175.66995 L 1190.638,-175.66995 C 1190.8624,-204.32931 1190.7425,-232.98817 1190.638,-261.64762 L 1143.8064,-261.64762 L 1143.8064,-310.90181 L 1250.8751,-310.90181 L 1250.8807,-126.38205 L 1171.7872,-126.44748 C 1142.767,-126.44748 1127.9353,-126.20122 1101.3718,-126.20122 z M 1281.9657,-126.38089 L 1281.9657,-175.66995 L 1303.3859,-175.66995 L 1303.3859,-382.222 L 1281.9657,-382.222 L 1281.9657,-432.43948 L 1490.2735,-432.42956 L 1490.0118,-340.90834 L 1433.8763,-340.90834 C 1433.8763,-340.90834 1433.8763,-382.222 1433.8763,-382.222 L 1363.4607,-382.222 C 1363.4607,-340.90834 1363.4607,-340.90834 1363.4607,-310.90181 L 1454.5993,-310.3861 L 1454.3115,-261.64762 C 1433.8763,-261.64762 1363.4607,-261.64762 1363.4607,-261.64762 L 1363.4607,-175.66995 C 1363.4607,-175.66995 1433.8763,-175.66995 1433.8763,-175.66995 L 1433.9458,-232.46598 L 1490.2735,-232.46598 L 1490.2735,-126.38205 C 1281.9657,-126.38089 1281.9657,-126.38089 1281.9657,-126.38089 z M 1523.1314,-175.1417 L 1546.6396,-175.66995 C 1546.6396,-232.79354 1546.6396,-310.90181 1546.6396,-382.222 L 1523.0036,-382.222 L 1523.1314,-432.42956 L 1630.1042,-432.43948 L 1630.1042,-382.222 C 1630.1042,-382.222 1605.2371,-382.222 1605.2371,-382.222 L 1605.2371,-175.66995 L 1675.6527,-175.66995 L 1675.6527,-232.79354 L 1731.7882,-232.79354 L 1731.7882,-126.38089 L 1523.0036,-126.38089 L 1523.1314,-175.1417 z" />
    </g>
    <g
       id="g2596"
       transform="translate(-0.1218916,114.50615)">
      <path
         sodipodi:nodetypes="csssssccccccsssssccccsssssssssccssssssssssccccccccccccccccccccccccccccccccccccccccccccccccccccccccccccccccccccccc"
         id="text2564"
         d="M 90.625,436.34375 C 79.019169,436.34382 69.577635,439.44907 62.28125,445.6875 C 54.984835,451.92606 51.343746,460.0118 51.34375,469.90625 C 51.343745,479.58296 54.984835,487.54289 62.28125,493.8125 C 69.577635,500.08212 78.893088,503.21876 90.25,503.21875 C 95.414999,503.21875 100.63225,502.41479 105.90625,500.78125 C 111.18013,499.14773 115.13615,497.02003 117.71875,494.4375 L 117.71875,467.78125 L 92,467.78125 L 92,479.75 L 101.40625,479.75 L 101.40625,487.34375 C 97.796888,488.8995 94.203151,489.68752 90.625,489.6875 C 83.873064,489.68751 78.450729,487.9221 74.3125,484.375 C 70.174216,480.82794 68.093727,476.16262 68.09375,470.4375 C 68.093729,464.4635 70.174216,459.57703 74.3125,455.71875 C 78.450729,451.86057 84.345738,449.90629 92,449.90625 C 99.934207,449.9063 108.03605,451.92375 116.34375,455.9375 L 116.34375,441.6875 C 108.7828,438.10937 100.20829,436.34383 90.625,436.34375 z M 214.65625,436.34375 C 207.09535,436.34382 201.04288,438.06187 196.53125,441.5 C 192.01961,444.93824 189.78125,449.46191 189.78125,455.0625 C 189.78124,459.38749 190.80587,462.91834 192.875,465.6875 C 194.94412,468.45675 197.403,470.60026 200.25,472.09375 C 203.09698,473.58729 206.94301,475.19511 211.8125,476.9375 C 216.68193,478.67995 219.75552,480.16154 221.03125,481.375 C 222.30692,482.58849 222.93747,483.88097 222.9375,485.25 C 222.93746,489.26381 219.75349,491.28127 213.375,491.28125 C 209.61009,491.28126 206.04787,490.58795 202.6875,489.25 C 199.3271,487.91208 195.48105,485.7998 191.125,482.875 L 191.125,496.90625 C 198.71698,501.10675 206.5664,503.21876 214.65625,503.21875 C 222.15487,503.21875 228.19177,501.42194 232.78125,497.84375 C 237.37062,494.26556 239.65618,489.47378 239.65625,483.4375 C 239.65619,479.20592 238.60019,475.70674 236.5,472.9375 C 234.3997,470.16832 231.92487,468.02464 229.03125,466.5 C 226.13754,464.97541 222.26026,463.30483 217.4375,461.53125 C 212.61469,459.75775 209.58832,458.30766 208.34375,457.1875 C 207.09914,456.06741 206.46873,454.90088 206.46875,453.65625 C 206.46873,452.03834 207.33562,450.73016 209.0625,449.75 C 210.78934,448.76994 213.10642,448.28132 216.03125,448.28125 C 221.16514,448.28131 228.06881,450.23572 236.71875,454.125 L 236.71875,441.375 C 228.97114,438.01467 221.62592,436.34383 214.65625,436.34375 z M 132,437.1875 L 132,502.375 L 180.0625,502.375 L 180.0625,490.4375 L 148.21875,490.4375 L 148.21875,474.75 L 177.96875,474.75 L 177.96875,462.8125 L 148.21875,462.8125 L 148.21875,449.125 L 179.40625,449.125 L 179.40625,437.1875 L 132,437.1875 z M 314.34375,437.1875 L 314.34375,502.375 L 330.5625,502.375 L 330.5625,476 L 355.0625,476 L 355.0625,502.375 L 371.28125,502.375 L 371.28125,437.1875 L 355.0625,437.1875 L 355.0625,463.34375 L 330.5625,463.34375 L 330.5625,437.1875 L 314.34375,437.1875 z M 387.25,437.1875 L 387.25,502.375 L 403.5,502.375 L 403.5,437.1875 L 387.25,437.1875 z M 480.375,437.1875 L 480.375,502.375 L 496.625,502.375 L 496.625,476 L 521.09375,476 L 521.09375,502.375 L 537.34375,502.375 L 537.34375,452.84375 L 537.25,452.84375 L 537.25,437.1875 L 521.09375,437.1875 L 521.09375,463.34375 L 496.625,463.34375 L 496.625,437.1875 L 480.375,437.1875 z M 547.4375,437.1875 L 547.4375,449.125 L 568.125,449.125 L 568.125,502.375 L 584.34375,502.375 L 584.34375,449.125 L 605.96875,449.125 L 605.96875,437.1875 L 547.4375,437.1875 z M 611.96875,437.1875 L 611.96875,502.375 L 660.03125,502.375 L 660.03125,490.4375 L 628.21875,490.4375 L 628.21875,474.75 L 657.9375,474.75 L 657.9375,462.8125 L 628.21875,462.8125 L 628.21875,449.125 L 659.375,449.125 L 659.375,437.1875 L 611.96875,437.1875 z"
         style="font-size:95.58448792px;font-style:normal;font-variant:normal;font-weight:bold;font-stretch:normal;text-align:start;line-height:100%;writing-mode:lr-tb;text-anchor:start;fill:#000000;fill-opacity:1;stroke:none;stroke-width:1px;stroke-linecap:butt;stroke-linejoin:miter;stroke-opacity:1;font-family:Gill Sans MT;-inkscape-font-specification:Gill Sans MT Bold" />
      <path
         id="text2584"
         d="M 281.91281,436.9421 C 271.29869,436.94217 262.71228,440.2299 256.13156,446.8171 C 249.55081,453.40442 246.25656,461.40665 246.25656,470.84835 C 246.25656,480.29012 249.39048,488.24601 255.63156,494.6921 C 261.87263,501.13821 270.25859,504.34833 280.78781,504.34835 C 288.75134,504.34835 296.37922,502.25744 303.66281,498.0671 L 296.60031,487.28585 C 294.55288,488.23684 292.82814,488.94243 291.44406,489.3796 C 288.61359,490.2736 285.65712,490.72338 282.60031,490.72335 C 276.42995,490.72336 271.36123,488.83136 267.41281,485.03585 C 263.46435,481.24035 261.50655,476.40155 261.50656,470.5671 C 261.50654,464.76407 263.5015,460.00312 267.50656,456.2546 C 271.51158,452.50618 276.66342,450.62964 282.97531,450.6296 C 286.89193,450.62963 290.96218,451.46277 295.16281,453.1296 L 303.41281,443.4421 L 303.41281,442.72335 C 297.55377,438.86516 290.37572,436.94216 281.91281,436.9421 z"
         style="font-size:91.53559875px;font-style:normal;font-variant:normal;font-weight:bold;font-stretch:normal;text-align:start;line-height:100%;writing-mode:lr-tb;text-anchor:start;fill:#000000;fill-opacity:1;stroke:none;stroke-width:1px;stroke-linecap:butt;stroke-linejoin:miter;stroke-opacity:1;font-family:Gill Sans MT;-inkscape-font-specification:Gill Sans MT Bold" />
      <path
         style="font-size:91.53559875px;font-style:normal;font-variant:normal;font-weight:bold;font-stretch:normal;text-align:start;line-height:100%;writing-mode:lr-tb;text-anchor:start;fill:#000000;fill-opacity:1;stroke:none;stroke-width:1px;stroke-linecap:butt;stroke-linejoin:miter;stroke-opacity:1;font-family:Gill Sans MT;-inkscape-font-specification:Gill Sans MT Bold"
         d="M 448.4763,436.9421 C 437.86218,436.94217 429.27577,440.2299 422.69505,446.8171 C 416.1143,453.40442 412.82005,461.40665 412.82005,470.84835 C 412.82005,480.29012 415.95397,488.24601 422.19505,494.6921 C 428.43612,501.13821 436.82208,504.34833 447.3513,504.34835 C 455.31483,504.34835 462.94271,502.25744 470.2263,498.0671 L 463.1638,487.28585 C 461.11637,488.23684 459.39163,488.94243 458.00755,489.3796 C 455.17708,490.2736 452.22061,490.72338 449.1638,490.72335 C 442.99344,490.72336 437.92472,488.83136 433.9763,485.03585 C 430.02784,481.24035 428.07004,476.40155 428.07005,470.5671 C 428.07003,464.76407 430.06499,460.00312 434.07005,456.2546 C 438.07507,452.50618 443.22691,450.62964 449.5388,450.6296 C 453.45542,450.62963 457.52567,451.46277 461.7263,453.1296 L 469.9763,443.4421 L 469.9763,442.72335 C 464.11726,438.86516 456.93921,436.94216 448.4763,436.9421 z"
         id="path2591"
         sodipodi:nodetypes="cssssccsssssscccc" />
    </g>
  </g>
</svg>
