<?xml version="1.0" encoding="UTF-8" standalone="no"?>
<!-- Created with Inkscape (http://www.inkscape.org/) -->

<svg
   xmlns:dc="http://purl.org/dc/elements/1.1/"
   xmlns:cc="http://creativecommons.org/ns#"
   xmlns:rdf="http://www.w3.org/1999/02/22-rdf-syntax-ns#"
   xmlns:svg="http://www.w3.org/2000/svg"
   xmlns="http://www.w3.org/2000/svg"
   xmlns:sodipodi="http://sodipodi.sourceforge.net/DTD/sodipodi-0.dtd"
   xmlns:inkscape="http://www.inkscape.org/namespaces/inkscape"
   width="538.5827"
   height="143.40683"
   id="svg111522"
   version="1.1"
   inkscape:version="0.48.4 r9939"
   sodipodi:docname="Neues Dokument 4">
  <defs
     id="defs3">
    <clipPath
       clipPathUnits="userSpaceOnUse"
       id="clipPath108235">
      <path
         inkscape:connector-curvature="0"
         d="m 99.413,192.999 c 0,0 -3.998,0 -3.998,-3.999 l 0,-11.611 c 0,0 0,-3.998 3.998,-3.998 l 37.123,0 c 0,0 3.999,0 3.999,3.998 l 0,11.611 c 0,0 0,3.999 -3.999,3.999"
         id="path108237" />
    </clipPath>
  </defs>
  <sodipodi:namedview
     inkscape:document-units="mm"
     id="base"
     pagecolor="#ffffff"
     bordercolor="#666666"
     borderopacity="1.0"
     inkscape:pageopacity="0.0"
     inkscape:pageshadow="2"
     inkscape:zoom="1.979899"
     inkscape:cx="259.78851"
     inkscape:cy="38.422941"
     inkscape:current-layer="layer1"
     showgrid="false"
     units="mm"
     fit-margin-top="1"
     fit-margin-left="1"
     fit-margin-bottom="1"
     fit-margin-right="1"
     inkscape:window-width="1920"
     inkscape:window-height="1028"
     inkscape:window-x="1358"
     inkscape:window-y="-8"
     inkscape:window-maximized="1" />
  <metadata
     id="metadata4">
    <rdf:RDF>
      <cc:Work
         rdf:about="">
        <dc:format>image/svg+xml</dc:format>
        <dc:type
           rdf:resource="http://purl.org/dc/dcmitype/StillImage" />
        <dc:title></dc:title>
      </cc:Work>
    </rdf:RDF>
  </metadata>
  <g
     inkscape:label="Layer 1"
     inkscape:groupmode="layer"
     id="layer1"
     transform="translate(-421.95285,-209.11285)">
    <g
       id="g111711">
      <g
         transform="matrix(16.430062,0,0,-16.430062,908.01421,212.93547)"
         id="g108215">
        <path
           id="path108217"
           style="fill:#f04924;fill-opacity:1;fill-rule:nonzero;stroke:none"
           d="m 0,0 -1.9,0 0,-4.287 0.39,0 0,3.947 1.51,0 c 1.487,0 2.566,-1.033 2.566,-2.456 C 2.566,-4.25 1.511,-5.254 0,-5.254 l -0.663,0 0,-0.339 0.663,0 c 1.727,0 2.981,1.176 2.981,2.797 C 2.981,-1.169 1.727,0 0,0"
           inkscape:connector-curvature="0" />
      </g>
      <g
         transform="matrix(16.430062,0,0,-16.430062,785.46238,255.98223)"
         id="g108219">
        <path
           id="path108221"
           style="fill:#f04924;fill-opacity:1;fill-rule:nonzero;stroke:none"
           d="m 0,0 3.657,0 0,-1.667 0.39,0 0,4.287 -0.39,0 0,-2.272 -3.657,0 0,2.272 -0.39,0 0,-4.287 0.39,0"
           inkscape:connector-curvature="0" />
      </g>
      <g
         transform="matrix(16.430062,0,0,-16.430062,425.49616,322.90187)"
         id="g108223">
        <path
           id="path108225"
           style="fill:#0d1013;fill-opacity:1;fill-rule:nonzero;stroke:none"
           d="m 0,0 0,0.009 c 0,0.877 0.683,1.595 1.617,1.595 0.556,0 0.891,-0.15 1.212,-0.423 L 2.402,0.665 C 2.163,0.864 1.952,0.978 1.595,0.978 1.102,0.978 0.709,0.542 0.709,0.018 l 0,-0.009 c 0,-0.564 0.388,-0.978 0.935,-0.978 0.247,0 0.467,0.061 0.639,0.184 l 0,0.441 -0.683,0 0,0.586 1.339,0 0,-1.339 C 2.622,-1.366 2.186,-1.587 1.622,-1.587 0.661,-1.587 0,-0.912 0,0"
           inkscape:connector-curvature="0" />
      </g>
      <g
         transform="matrix(16.430062,0,0,-16.430062,480.96405,297.43528)"
         id="g108227">
        <path
           id="path108229"
           style="fill:#0d1013;fill-opacity:1;fill-rule:nonzero;stroke:none"
           d="m 0,0 2.327,0 0,-0.603 -1.653,0 0,-0.626 1.454,0 0,-0.604 -1.454,0 0,-0.648 1.675,0 0,-0.603 -2.349,0"
           inkscape:connector-curvature="0" />
      </g>
      <g
         id="g108231"
         transform="matrix(16.430062,0,0,-16.430062,-1247.1005,3290.7132)">
        <g
           clip-path="url(#clipPath108235)"
           id="g108233">
          <g
             transform="translate(107.82,179.548)"
             id="g108239">
            <path
               id="path108241"
               style="fill:#0d1013;fill-opacity:1;fill-rule:nonzero;stroke:none"
               d="M 0,0 0.401,0.48 C 0.678,0.251 0.969,0.106 1.322,0.106 c 0.278,0 0.445,0.11 0.445,0.29 l 0,0.009 c 0,0.172 -0.106,0.26 -0.622,0.393 -0.621,0.158 -1.022,0.33 -1.022,0.943 l 0,0.008 c 0,0.56 0.45,0.93 1.08,0.93 0.449,0 0.832,-0.141 1.146,-0.392 L 1.996,1.776 C 1.723,1.965 1.454,2.08 1.194,2.08 0.934,2.08 0.797,1.961 0.797,1.811 l 0,-0.009 C 0.797,1.6 0.93,1.534 1.463,1.397 2.089,1.234 2.441,1.009 2.441,0.471 l 0,-0.008 C 2.441,-0.15 1.974,-0.494 1.309,-0.494 0.842,-0.494 0.37,-0.331 0,0"
               inkscape:connector-curvature="0" />
          </g>
        </g>
      </g>
      <path
         id="path108243"
         style="fill:#0d1013;fill-opacity:1;fill-rule:nonzero;stroke:none"
         d="m 676.20247,348.08916 11.17178,0 0,-50.67031 -11.17178,0 0,50.67031 z"
         inkscape:connector-curvature="0" />
      <g
         transform="matrix(16.430062,0,0,-16.430062,720.84295,338.69116)"
         id="g108245">
        <path
           id="path108247"
           style="fill:#0d1013;fill-opacity:1;fill-rule:nonzero;stroke:none"
           d="m 0,0 c -0.529,0 -0.895,0.441 -0.895,0.97 l 0,0.009 c 0,0.528 0.375,0.96 0.895,0.96 0.308,0 0.551,-0.132 0.789,-0.348 L 1.221,2.089 C 0.934,2.371 0.586,2.565 0.005,2.565 -0.943,2.565 -1.604,1.846 -1.604,0.97 l 0,-0.009 c 0,-0.886 0.674,-1.587 1.582,-1.587 0.595,0 0.948,0.212 1.265,0.551 L 0.811,0.361 C 0.569,0.141 0.353,0 0,0"
           inkscape:connector-curvature="0" />
      </g>
      <g
         transform="matrix(16.430062,0,0,-16.430062,780.08975,317.47995)"
         id="g108249">
        <path
           id="path108251"
           style="fill:#0d1013;fill-opacity:1;fill-rule:nonzero;stroke:none"
           d="m 0,0 -1.251,0 0,1.22 -0.679,0 0,-3.084 0.679,0 0,1.238 1.251,0 0,-1.238 0.679,0 0,3.084 -0.679,0"
           inkscape:connector-curvature="0" />
      </g>
      <g
         transform="matrix(16.430062,0,0,-16.430062,569.17705,322.90187)"
         id="g108253">
        <path
           id="path108255"
           style="fill:#0d1013;fill-opacity:1;fill-rule:nonzero;stroke:none"
           d="M 0,0 0,0.009 C 0,0.886 0.661,1.604 1.609,1.604 2.19,1.604 2.538,1.41 2.825,1.128 L 2.393,0.63 C 2.155,0.846 1.912,0.978 1.604,0.978 1.084,0.978 0.709,0.546 0.709,0.018 l 0,-0.009 c 0,-0.529 0.366,-0.97 0.895,-0.97 0.352,0 0.569,0.14 0.811,0.361 L 2.847,-1.037 C 2.529,-1.375 2.177,-1.587 1.582,-1.587 0.674,-1.587 0,-0.886 0,0"
           inkscape:connector-curvature="0" />
      </g>
      <g
         transform="matrix(16.430062,0,0,-16.430062,621.86826,297.43528)"
         id="g108257">
        <path
           id="path108259"
           style="fill:#0d1013;fill-opacity:1;fill-rule:nonzero;stroke:none"
           d="m 0,0 0.678,0 0,-1.22 1.252,0 0,1.22 0.679,0 0,-3.084 -0.679,0 0,1.238 -1.252,0 0,-1.238 -0.678,0"
           inkscape:connector-curvature="0" />
      </g>
      <g
         transform="matrix(16.430062,0,0,-16.430062,797.83422,307.70407)"
         id="g108261">
        <path
           id="path108263"
           style="fill:#0d1013;fill-opacity:1;fill-rule:nonzero;stroke:none"
           d="m 0,0 0.939,0 0,-2.459 0.678,0 0,2.459 0.939,0 0,0.626 -2.556,0"
           inkscape:connector-curvature="0" />
      </g>
      <g
         transform="matrix(16.430062,0,0,-16.430062,857.04816,327.55158)"
         id="g108265">
        <path
           id="path108267"
           style="fill:#0d1013;fill-opacity:1;fill-rule:nonzero;stroke:none"
           d="m 0,0 1.454,0 0,0.604 -1.454,0 0,0.625 1.652,0 0,0.604 -2.326,0 0,-3.084 2.348,0 0,0.603 -1.674,0"
           inkscape:connector-curvature="0" />
      </g>
      <g
         transform="matrix(16.430062,0,0,-16.430062,647.40057,268.81411)"
         id="g108269">
        <path
           id="path108271"
           style="fill:#f04924;fill-opacity:1;fill-rule:nonzero;stroke:none"
           d="M 0,0 -0.298,0 C -1.913,0 -3.527,0 -5.142,0 L -5.44,0 C -5.509,0 -5.573,0.027 -5.622,0.069 L -5.622,0 -5.92,0 c -0.826,0 -1.652,0 -2.478,0 l -0.298,0 0,0.415 0.191,0 0,1.693 -0.073,0 0,-0.724 c 0,-0.15 -0.119,-0.276 -0.269,-0.276 l -0.789,0 0,-0.693 0.187,0 0,-0.415 -1.178,0 0,0.063 C -10.674,0.024 -10.733,0 -10.8,0 l -1.294,0 c -0.15,0 -0.272,0.126 -0.272,0.276 l 0,0.615 0.788,0 0,-0.476 0.249,0 0,0.693 -1.037,0 0,1.153 c 0,0.146 0.122,0.268 0.268,0.268 l 1.295,0 c 0.066,0 0.125,-0.023 0.172,-0.06 l 0,0.06 1.784,0 c 0.056,0 0.108,-0.016 0.151,-0.045 l 0,0.045 0.298,0 c 0.826,0 1.652,0 2.478,0 l 0.298,0 0,-0.067 c 0.047,0.042 0.107,0.067 0.175,0.067 l 1.297,0 c 0.073,0 0.138,-0.029 0.186,-0.075 l 0,0.075 0.298,0 c 0.844,0 1.688,0 2.532,0 l 0.297,0 0,-0.421 -0.21,0 0,-1.693 0.266,0 0,0.476 L 0,0.891 0,0 z m 0.765,3.418 -14.114,0 0,-4.132 14.114,0 0,4.132 z"
           inkscape:connector-curvature="0" />
      </g>
      <path
         id="path108273"
         style="fill:#f04924;fill-opacity:1;fill-rule:nonzero;stroke:none"
         d="m 489.06407,243.67612 4.38682,0 0,-9.49658 -4.38682,0 0,9.49658 z"
         inkscape:connector-curvature="0" />
      <path
         id="path108275"
         style="fill:#f04924;fill-opacity:1;fill-rule:nonzero;stroke:none"
         d="m 566.2525,262.01206 4.38735,0 0,-11.38616 -4.38735,0 0,11.38616 z"
         inkscape:connector-curvature="0" />
      <g
         transform="matrix(16.430062,0,0,-16.430062,610.69581,239.93006)"
         id="g108277">
        <path
           id="path108279"
           style="fill:#f04924;fill-opacity:1;fill-rule:nonzero;stroke:none"
           d="m 0,0 -0.486,0 0,0.35 -0.277,0 0,-0.578 0.765,0 0,-0.422 -0.765,0 0,-0.693 0.277,0 0,0.476 0.784,0 0,-0.476 0.094,0 0,1.693 -0.094,0 0,-0.35"
           inkscape:connector-curvature="0" />
      </g>
      <g
         transform="matrix(16.430062,0,0,-16.430062,578.73934,239.93006)"
         id="g108281">
        <path
           id="path108283"
           style="fill:#f04924;fill-opacity:1;fill-rule:nonzero;stroke:none"
           d="m 0,0 -0.51,0 0,0.35 -0.25,0 0,-0.578 1.061,0 0,-1.115 0.098,0 0,1.693 -0.101,0 0,-0.35"
           inkscape:connector-curvature="0" />
      </g>
      <g
         transform="matrix(16.430062,0,0,-16.430062,547.02933,239.93006)"
         id="g108285">
        <path
           id="path108287"
           style="fill:#f04924;fill-opacity:1;fill-rule:nonzero;stroke:none"
           d="m 0,0 -0.298,0 0,0.35 -0.276,0 0,-0.578 0.764,0 0,-0.422 -0.764,0 0,-0.693 0.276,0 0,0.476 0.691,0 0,0.867 -0.204,0"
           inkscape:connector-curvature="0" />
      </g>
      <path
         id="path108289"
         style="fill:#f04924;fill-opacity:1;fill-rule:nonzero;stroke:none"
         d="m 520.57693,262.01206 4.12315,0 0,-27.81609 -4.12315,0 0,27.81609 z"
         inkscape:connector-curvature="0" />
      <g
         transform="matrix(16.430062,0,0,-16.430062,469.47943,239.93006)"
         id="g108291">
        <path
           id="path108293"
           style="fill:#f04924;fill-opacity:1;fill-rule:nonzero;stroke:none"
           d="m 0,0 -0.5,0 0,0.35 -0.249,0 0,-0.578 1.047,0 0,-1.115 0.098,0 0,1.693 -0.098,0 0,-0.35"
           inkscape:connector-curvature="0" />
      </g>
      <g
         transform="matrix(16.430062,0,0,-16.430062,484.18434,262.01206)"
         id="g108295">
        <path
           id="path108297"
           style="fill:#0d1013;fill-opacity:1;fill-rule:nonzero;stroke:none"
           d="m 0,0 0.187,0 0,-0.415 0.298,0 0,0.415 -0.187,0 0,0.693 -0.298,0"
           inkscape:connector-curvature="0" />
      </g>
      <path
         id="path108299"
         style="fill:#0d1013;fill-opacity:1;fill-rule:nonzero;stroke:none"
         d="m 545.25488,250.6096 4.89734,0 0,-6.93348 -4.89734,0 0,6.93348 z"
         inkscape:connector-curvature="0" />
      <g
         transform="matrix(16.430062,0,0,-16.430062,469.47943,231.61645)"
         id="g108301">
        <path
           id="path108303"
           style="fill:#0d1013;fill-opacity:1;fill-rule:nonzero;stroke:none"
           d="m 0,0 0,-0.506 0.298,0 0,0.35 -0.099,0 0,0.36 C 0.151,0.242 0.092,0.265 0.026,0.265 l -0.298,0 C -0.122,0.265 0,0.149 0,0"
           inkscape:connector-curvature="0" />
      </g>
      <path
         id="path108305"
         style="fill:#0d1013;fill-opacity:1;fill-rule:nonzero;stroke:none"
         d="m 452.26073,261.99563 4.89616,0 0,-7.82084 -4.89616,0 0,7.82084 z"
         inkscape:connector-curvature="0" />
      <path
         id="path108307"
         style="fill:#0d1013;fill-opacity:1;fill-rule:nonzero;stroke:none"
         d="m 452.26073,243.67612 4.89616,0 0,-9.49658 -4.89616,0 0,9.49658 z"
         inkscape:connector-curvature="0" />
      <g
         transform="matrix(16.430062,0,0,-16.430062,474.35916,262.01206)"
         id="g108309">
        <path
           id="path108311"
           style="fill:#0d1013;fill-opacity:1;fill-rule:nonzero;stroke:none"
           d="m 0,0 0,1.115 -0.298,0 0,-1.265 c 0,-0.146 -0.119,-0.265 -0.268,-0.265 l 0.298,0 c 0.066,0 0.126,0.025 0.172,0.063 l 0,0.352"
           inkscape:connector-curvature="0" />
      </g>
      <g
         transform="matrix(16.430062,0,0,-16.430062,504.52476,228.01827)"
         id="g108313">
        <path
           id="path108315"
           style="fill:#0d1013;fill-opacity:1;fill-rule:nonzero;stroke:none"
           d="m 0,0 c -0.043,0.029 -0.095,0.046 -0.151,0.046 l -0.298,0 c 0.15,0 0.269,-0.119 0.269,-0.269 l 0,-0.877 c 0,-0.15 -0.119,-0.276 -0.269,-0.276 l 0.298,0 c 0.15,0 0.269,0.126 0.269,0.276 l 0,0.724 -0.118,0"
           inkscape:connector-curvature="0" />
      </g>
      <path
         id="path108317"
         style="fill:#0d1013;fill-opacity:1;fill-rule:nonzero;stroke:none"
         d="m 484.18434,243.67612 4.89524,0 0,-9.49658 -4.89524,0 0,9.49658 z"
         inkscape:connector-curvature="0" />
      <g
         transform="matrix(16.430062,0,0,-16.430062,520.57693,262.01206)"
         id="g108319">
        <path
           id="path108321"
           style="fill:#0d1013;fill-opacity:1;fill-rule:nonzero;stroke:none"
           d="m 0,0 0,1.693 0.068,0 0,0.422 -0.179,0 0,-0.422 -0.187,0 0,-1.693 0.187,0 0,-0.415 0.179,0 0,0.415"
           inkscape:connector-curvature="0" />
      </g>
      <g
         transform="matrix(16.430062,0,0,-16.430062,553.48634,239.93006)"
         id="g108323">
        <path
           id="path108325"
           style="fill:#0d1013;fill-opacity:1;fill-rule:nonzero;stroke:none"
           d="m 0,0 0,0.5 c 0,0.081 0.036,0.154 0.093,0.204 l 0,0.068 -0.297,0 0,-0.772"
           inkscape:connector-curvature="0" />
      </g>
      <path
         id="path108327"
         style="fill:#0d1013;fill-opacity:1;fill-rule:nonzero;stroke:none"
         d="m 532.68588,243.67612 4.89616,0 0,-9.49658 -4.89616,0 0,9.49658 z"
         inkscape:connector-curvature="0" />
      <path
         id="path108329"
         style="fill:#0d1013;fill-opacity:1;fill-rule:nonzero;stroke:none"
         d="m 532.68588,261.99563 4.89616,0 0,-11.38577 -4.89616,0 0,11.38577 z"
         inkscape:connector-curvature="0" />
      <g
         transform="matrix(16.430062,0,0,-16.430062,553.48634,264.46014)"
         id="g108331">
        <path
           id="path108333"
           style="fill:#0d1013;fill-opacity:1;fill-rule:nonzero;stroke:none"
           d="m 0,0 0,0.626 -0.204,0 0,-0.891 0.297,0 0,0.069 C 0.037,-0.147 0,-0.078 0,0"
           inkscape:connector-curvature="0" />
      </g>
      <g
         transform="matrix(16.430062,0,0,-16.430062,561.37277,234.17954)"
         id="g108335">
        <path
           id="path108337"
           style="fill:#0d1013;fill-opacity:1;fill-rule:nonzero;stroke:none"
           d="m 0,0 0,-1.693 0.298,0 0,0.693 -0.138,0 0,0.422 0.138,0 0,0.578"
           inkscape:connector-curvature="0" />
      </g>
      <g
         transform="matrix(16.430062,0,0,-16.430062,578.73934,231.73146)"
         id="g108339">
        <path
           id="path108341"
           style="fill:#0d1013;fill-opacity:1;fill-rule:nonzero;stroke:none"
           d="m 0,0 0,-0.5 0.298,0 0,0.35 -0.083,0 0,0.346 C 0.167,0.243 0.102,0.272 0.029,0.272 l -0.298,0 C -0.119,0.272 0,0.149 0,0"
           inkscape:connector-curvature="0" />
      </g>
      <g
         transform="matrix(16.430062,0,0,-16.430062,583.68479,262.01206)"
         id="g108343">
        <path
           id="path108345"
           style="fill:#0d1013;fill-opacity:1;fill-rule:nonzero;stroke:none"
           d="m 0,0 0,1.115 -0.298,0 0,-1.53 0.212,0 0,0.415"
           inkscape:connector-curvature="0" />
      </g>
      <g
         transform="matrix(16.430062,0,0,-16.430062,615.6084,239.93006)"
         id="g108347">
        <path
           id="path108349"
           style="fill:#0d1013;fill-opacity:1;fill-rule:nonzero;stroke:none"
           d="m 0,0 0,0.35 -0.097,0 0,0.422 -0.201,0 0,-0.772"
           inkscape:connector-curvature="0" />
      </g>
      <path
         id="path108351"
         style="fill:#0d1013;fill-opacity:1;fill-rule:nonzero;stroke:none"
         d="m 593.26352,261.99563 4.89734,0 0,-11.38577 -4.89734,0 0,11.38577 z"
         inkscape:connector-curvature="0" />
      <path
         id="path108353"
         style="fill:#0d1013;fill-opacity:1;fill-rule:nonzero;stroke:none"
         d="m 605.83252,250.6096 4.89734,0 0,-6.93348 -4.89734,0 0,6.93348 z"
         inkscape:connector-curvature="0" />
      <path
         id="path108355"
         style="fill:#0d1013;fill-opacity:1;fill-rule:nonzero;stroke:none"
         d="m 593.26352,243.67612 4.89734,0 0,-9.49658 -4.89734,0 0,9.49658 z"
         inkscape:connector-curvature="0" />
      <g
         transform="matrix(16.430062,0,0,-16.430062,615.6084,262.01206)"
         id="g108357">
        <path
           id="path108359"
           style="fill:#0d1013;fill-opacity:1;fill-rule:nonzero;stroke:none"
           d="m 0,0 0,0.476 -0.298,0 0,-0.891 0.198,0 0,0.415"
           inkscape:connector-curvature="0" />
      </g>
      <path
         id="path108361"
         style="fill:#0d1013;fill-opacity:1;fill-rule:nonzero;stroke:none"
         d="m 642.48798,268.81411 4.89616,0 0,-14.63984 -4.89616,0 0,14.63984 z"
         inkscape:connector-curvature="0" />
      <g
         transform="matrix(16.430062,0,0,-16.430062,625.28571,234.17954)"
         id="g108363">
        <path
           id="path108365"
           style="fill:#0d1013;fill-opacity:1;fill-rule:nonzero;stroke:none"
           d="m 0,0 0,-1.693 0.298,0 0,1.693 0.211,0 0,0.421 -0.298,0 0,-0.421"
           inkscape:connector-curvature="0" />
      </g>
      <g
         transform="matrix(16.430062,0,0,-16.430062,469.47943,264.46014)"
         id="g108367">
        <path
           id="path108369"
           style="fill:#ffffff;fill-opacity:1;fill-rule:nonzero;stroke:none"
           d="m 0,0 0,1.265 -1.047,0 0,0.578 0.547,0 0,-0.35 0.5,0 0,0.506 c 0,0.15 -0.122,0.265 -0.272,0.265 l -0.996,0 c -0.147,0 -0.269,-0.122 -0.269,-0.268 l 0,-1.153 1.037,0 0,-0.693 -0.547,0 0,0.476 -0.49,0 0,-0.616 c 0,-0.149 0.122,-0.275 0.272,-0.275 l 0.996,0 C -0.119,-0.265 0,-0.146 0,0"
           inkscape:connector-curvature="0" />
      </g>
      <path
         id="path108371"
         style="fill:#ffffff;fill-opacity:1;fill-rule:nonzero;stroke:none"
         d="m 484.18434,234.17954 9.26708,0 0,9.49658 -9.26708,0 0,-9.49658 z m 9.26655,0 z m 0,9.49658 z m 8.10003,2.39878 0,-14.40916 c 0,-2.46451 -1.95518,-4.40326 -4.41969,-4.40326 l -24.39864,0 0,6.91706 3.23672,0 0,27.81609 -3.18743,0 0,6.81848 14.47488,0 0,-6.81848 -3.07242,0 0,-11.38603 12.94689,0 c 2.46451,0 4.41969,-2.07019 4.41969,-4.5347"
         inkscape:connector-curvature="0" />
      <g
         transform="matrix(16.430062,0,0,-16.430062,515.6972,262.01206)"
         id="g108373">
        <path
           id="path108375"
           style="fill:#ffffff;fill-opacity:1;fill-rule:nonzero;stroke:none"
           d="m 0,0 0,1.693 0.187,0 0,0.422 -0.867,0 0,-0.422 0.19,0 0,-1.693 -0.19,0 0,-0.415 0.867,0 0,0.415"
           inkscape:connector-curvature="0" />
      </g>
      <g
         transform="matrix(16.430062,0,0,-16.430062,547.02933,254.17492)"
         id="g108377">
        <path
           id="path108379"
           style="fill:#ffffff;fill-opacity:1;fill-rule:nonzero;stroke:none"
           d="m 0,0 -0.298,0 0,-0.476 -0.574,0 0,0.693 0.765,0 0,0.422 -0.765,0 0,0.578 0.574,0 0,-0.35 0.487,0 0,0.772 -1.731,0 0,-0.422 0.184,0 0,-1.693 -0.184,0 0,-0.415 1.731,0 0,0.891"
           inkscape:connector-curvature="0" />
      </g>
      <g
         transform="matrix(16.430062,0,0,-16.430062,568.88131,243.67612)"
         id="g108381">
        <path
           id="path108383"
           style="fill:#ffffff;fill-opacity:1;fill-rule:nonzero;stroke:none"
           d="m 0,0 -0.297,0 0,-0.422 0.404,0 0,-0.693 -0.564,0 0,1.693 0.547,0 0,-0.35 0.51,0 0,0.5 c 0,0.149 -0.119,0.271 -0.269,0.271 l -0.999,0 C -0.736,0.999 -0.797,0.974 -0.843,0.932 -0.9,0.882 -0.937,0.809 -0.937,0.728 l 0,-1.993 c 0,-0.077 0.037,-0.147 0.094,-0.196 0.049,-0.042 0.113,-0.069 0.182,-0.069 l 1.264,0 0,1.53"
           inkscape:connector-curvature="0" />
      </g>
      <g
         transform="matrix(16.430062,0,0,-16.430062,607.60696,254.17492)"
         id="g108385">
        <path
           id="path108387"
           style="fill:#ffffff;fill-opacity:1;fill-rule:nonzero;stroke:none"
           d="m 0,0 -0.298,0 0,-0.476 -0.574,0 0,0.693 0.765,0 0,0.422 -0.765,0 0,0.578 0.574,0 0,-0.35 0.486,0 0,0.772 -1.73,0 0,-0.422 0.184,0 0,-1.693 -0.184,0 0,-0.415 1.73,0 0,0.891"
           inkscape:connector-curvature="0" />
      </g>
      <g
         transform="matrix(16.430062,0,0,-16.430062,639.46485,254.17492)"
         id="g108389">
        <path
           id="path108391"
           style="fill:#ffffff;fill-opacity:1;fill-rule:nonzero;stroke:none"
           d="m 0,0 -0.298,0 0,-0.476 -0.564,0 0,1.693 0.211,0 0,0.422 -0.898,0 0,-0.422 0.19,0 0,-1.693 -0.193,0 0,-0.415 1.737,0 0,0.891"
           inkscape:connector-curvature="0" />
      </g>
    </g>
  </g>
</svg>
