<?xml version="1.0" encoding="UTF-8" standalone="no"?>
<!-- Created with Inkscape (http://www.inkscape.org/) -->

<svg
   xmlns:dc="http://purl.org/dc/elements/1.1/"
   xmlns:cc="http://creativecommons.org/ns#"
   xmlns:rdf="http://www.w3.org/1999/02/22-rdf-syntax-ns#"
   xmlns:svg="http://www.w3.org/2000/svg"
   xmlns="http://www.w3.org/2000/svg"
   version="1.1"
   width="611.54333"
   height="95.349831"
   id="svg18566">
  <defs
     id="defs3" />
  <metadata
     id="metadata4">
    <rdf:RDF>
      <cc:Work
         rdf:about="">
        <dc:format>image/svg+xml</dc:format>
        <dc:type
           rdf:resource="http://purl.org/dc/dcmitype/StillImage" />
        <dc:title></dc:title>
      </cc:Work>
    </rdf:RDF>
  </metadata>
  <g
     transform="translate(-183.19914,-331.07976)"
     id="layer1">
    <g
       transform="matrix(8.1451948,0,0,8.1451948,-1321.6524,-3034.2633)"
       id="g19490">
      <g
         id="g18705">
        <path
           d="m 184.9708,422.49414 0.43625,-1.62625 5.7775,0 c 0.27375,0 0.52875,-0.2225 0.56625,-0.49625 0.02,-0.13625 -0.02,-0.2725 -0.10625,-0.3725 -0.08,-0.0925 -0.19125,-0.1425 -0.31125,-0.1425 l -3.695,0 c -0.5675,0 -1.06125,-0.21625 -1.38875,-0.6075 -0.32875,-0.3925 -0.455,-0.91625 -0.355,-1.4775 0.23,-1.28375 1.31375,-2.09875 2.47,-2.09875 l 6.0425,0 -0.435,1.62625 -5.8575,0 c -0.25375,0 -0.48625,0.205 -0.56375,0.4975 -0.0312,0.1175 -0.007,0.23625 0.0675,0.335 0.08,0.10375 0.20625,0.16625 0.3375,0.16625 l 3.715,0 c 0.56875,0 1.06125,0.21625 1.38875,0.6075 0.3275,0.39375 0.44125,0.91875 0.3475,1.48375 -0.21125,1.27 -1.19625,2.105 -2.49375,2.105 l -5.9425,0"
           id="path17037"
           style="fill:#232933;fill-opacity:1;fill-rule:nonzero;stroke:none" />
        <path
           d="m 216.01455,415.67289 c -2.0275,0 -2.87,1.04875 -3.42625,3.12875 l -0.99,3.6925 1.7575,0 0.98,-3.6925 c 0.21,-0.77875 0.70875,-1.50375 1.67875,-1.50375 l 2.06625,0 0.4275,-1.625 -2.49375,0"
           id="path17041"
           style="fill:#232933;fill-opacity:1;fill-rule:nonzero;stroke:none" />
        <path
           d="m 223.6733,415.67289 -2.72,0 0.6125,-2.28625 -1.7575,0 -2.44,9.1075 1.7575,0 1.39125,-5.19625 2.72125,0 0.435,-1.625"
           id="path17045"
           style="fill:#232933;fill-opacity:1;fill-rule:nonzero;stroke:none" />
        <path
           d="m 199.97955,415.67289 -2.8175,0 -1.7575,0 -2.4075,8.985 1.7575,0 0.58,-2.16375 3.735,0 c 1.605,0 2.82625,-1.0125 3.21875,-2.46125 l 0.255,-0.95375 c 0.38875,-1.44 -0.0113,-3.40625 -2.56375,-3.40625 m 0.945,2.98625 -0.255,0.9525 c -0.17875,0.66875 -0.77375,1.25625 -1.6,1.25625 l -3.3,0 0.9575,-3.57 3.2525,0 c 1.1575,0 1.02875,1.055 0.945,1.36125"
           id="path17049"
           style="fill:#232933;fill-opacity:1;fill-rule:nonzero;stroke:none" />
        <path
           d="m 209.20205,415.67289 -2.50625,0 c -1.5025,0 -2.8275,1.0125 -3.22,2.46125 l -0.255,0.9525 c -0.38875,1.44 -0.0288,3.4075 2.56375,3.4075 l 2.5075,0 c 1.60375,0 2.82625,-1.0125 3.21875,-2.46125 l 0.255,-0.95375 c 0.38875,-1.44 -0.0113,-3.40625 -2.56375,-3.40625 m 0.945,2.98625 -0.255,0.9525 c -0.17875,0.66875 -0.77375,1.25625 -1.6,1.25625 l -2.5075,0 c -1.15625,0 -1.02875,-1.05375 -0.945,-1.36 l 0.255,-0.9525 c 0.18,-0.67 0.80125,-1.2575 1.60125,-1.2575 l 2.50625,0 c 1.1575,0 1.02875,1.055 0.945,1.36125"
           id="path17053"
           style="fill:#232933;fill-opacity:1;fill-rule:nonzero;stroke:none" />
      </g>
      <path
         d="m 227.52705,413.38664 c -0.4475,1.355 -1.725,2.28625 -3.16625,2.28625 l -0.415,1.625 1.95625,0 -1.395,5.19625 2.3275,0 2.4725,-9.1075 c 0,0 -1.78,0 -1.78,0"
         id="path17057"
         style="fill:#f9ae0c;fill-opacity:1;fill-rule:nonzero;stroke:none" />
      <path
         d="m 240.3208,422.10414 0.2825,-1.0525 3.20375,0 c 0.1775,0 0.3425,-0.145 0.3675,-0.3225 0.0125,-0.0875 -0.0125,-0.175 -0.0688,-0.24125 -0.0525,-0.0587 -0.12375,-0.0913 -0.20125,-0.0913 l -1.71125,0 c -0.3675,0 -0.6875,-0.14 -0.9,-0.39375 -0.2125,-0.25375 -0.295,-0.59375 -0.23,-0.9575 0.14875,-0.83125 0.85125,-1.35875 1.6,-1.35875 l 3.14,0 -0.28125,1.05375 -3.02125,0 c -0.16375,0 -0.31375,0.13125 -0.365,0.32125 -0.02,0.0762 -0.005,0.15375 0.0437,0.2175 0.0525,0.0675 0.13375,0.1075 0.21875,0.1075 l 1.72375,0 c 0.36875,0 0.6875,0.14 0.9,0.39375 0.21125,0.255 0.285,0.595 0.225,0.96125 -0.1375,0.82125 -0.775,1.3625 -1.615,1.3625 l -3.31125,0"
         id="path17061"
         style="fill:#ffffff;fill-opacity:1;fill-rule:nonzero;stroke:none" />
      <path
         d="m 239.6333,417.69164 -0.5625,2.2025 -0.0937,0.35375 c -0.11625,0.43375 -0.595,0.81375 -1.13,0.81375 l -1.17375,0 c -0.74875,0 -0.66625,-0.6825 -0.6125,-0.88125 l 0.0775,-0.28625 0.59375,-2.2025 -1.12125,0 -0.5975,2.21625 c -0.2525,0.9325 -0.0188,2.20625 1.66,2.20625 l 1.17375,0 c 1.03875,0 1.92375,-0.65625 2.1775,-1.59375 l 0.74125,-2.82875 -1.1325,0"
         id="path17073"
         style="fill:#ffffff;fill-opacity:1;fill-rule:nonzero;stroke:none" />
      <g
         id="g18716">
        <path
           d="m 246.2983,417.30789 -3.635,0 c -0.97125,0 -1.80125,0.7025 -1.97375,1.67125 -0.085,0.475 -0.37875,1.6925 -0.37875,1.6925 l -0.075,0.28125 -0.74,0.8175 -2.035,0.71375 6.17125,0 c 1.0225,0 1.82125,-0.675 1.98875,-1.68 0.08,-0.4825 -0.0288,-0.9325 -0.3075,-1.26625 -0.15625,-0.1875 -0.35375,-0.32875 -0.57875,-0.41875 l 1.0775,0 0.0763,-0.28125 0.41,-1.53 z m -0.495,0.38 -0.2825,1.0525 -3.02,0 c -0.165,0 -0.315,0.13125 -0.365,0.32125 -0.0213,0.0762 -0.005,0.15375 0.0437,0.2175 0.0525,0.0675 0.13375,0.1075 0.21875,0.1075 l 1.72375,0 c 0.3675,0 0.6875,0.14 0.9,0.39375 0.21125,0.255 0.285,0.595 0.22375,0.96125 -0.13625,0.82125 -0.775,1.3625 -1.61375,1.3625 l -3.31125,0 0.28125,-1.0525 3.205,0 c 0.1775,0 0.3425,-0.14375 0.3675,-0.3225 0.0112,-0.0875 -0.0138,-0.175 -0.07,-0.24125 -0.0513,-0.0587 -0.1225,-0.0913 -0.20125,-0.0913 l -1.71125,0 c -0.3675,0 -0.68625,-0.14 -0.89875,-0.39375 -0.2125,-0.25375 -0.295,-0.59375 -0.23,-0.95625 0.14875,-0.8325 0.85,-1.35875 1.6,-1.35875 l 3.14,0"
           id="path17065"
           style="fill:#293f9c;fill-opacity:1;fill-rule:nonzero;stroke:none" />
        <path
           d="m 240.7658,417.31164 -1.4275,0 -0.0725,0.28625 -0.5625,2.2025 -0.0937,0.35 c -0.07,0.26375 -0.305,0.53125 -0.66875,0.53125 l -1.2675,0 c -0.0662,0 -0.1825,-0.008 -0.225,-0.0625 -0.0538,-0.0713 -0.0463,-0.2425 -0.02,-0.33875 l 0.0763,-0.2875 0.72375,-2.68125 -3.99125,-0.001 -1.0175,-2.36375 -0.6575,2.36375 -2.7275,0 2.31625,1.60125 -0.6875,2.57375 2.11,-1.59125 1.775,1.2 -0.48625,-2.17125 1.1875,-0.60875 -0.4025,1.495 c -0.19875,0.73375 -0.0925,1.465 0.2825,1.955 0.255,0.3325 0.765,0.73 1.74375,0.73 l 1.17375,0 c 1.18125,0 2.23625,-0.73625 2.545,-1.875 l 0.74125,-2.83125 0.125,-0.47625 -0.4925,0"
           id="path17069"
           style="fill:#293f9c;fill-opacity:1;fill-rule:nonzero;stroke:none" />
        <path
           d="m 240.7658,417.69164 -0.74125,2.82875 c -0.25375,0.9375 -1.045,1.59375 -2.08375,1.59375 l -1.2675,0 c -1.67875,0 -1.9125,-1.27375 -1.66,-2.20625 l 0.5975,-2.21625 1.12125,0 -0.59375,2.2025 -0.0763,0.28625 c -0.0538,0.19875 -0.1375,0.88125 0.61125,0.88125 l 1.2675,0 c 0.535,0 0.92,-0.38 1.03625,-0.81375 l 0.0937,-0.35375 0.5625,-2.2025 1.1325,0"
           id="path17077"
           style="fill:#ffffff;fill-opacity:1;fill-rule:nonzero;stroke:none" />
        <path
           d="m 232.2958,416.07164 0.695,1.61375 2.67375,0 -2.19375,1.035 0.36875,1.595 -1.25375,-0.90125 -1.48,1.11625 0.475,-1.7775 -1.54375,-1.0675 1.80875,0 0.45,-1.61375"
           id="path17081"
           style="fill:#ffffff;fill-opacity:1;fill-rule:nonzero;stroke:none" />
      </g>
      <g
         id="g18712">
        <path
           d="m 252.0883,417.31789 -0.52875,1.97125 -3.105,0 0.52875,-1.97125 -1.33375,0 -1.3875,5.17625 1.33375,0 0.5275,-1.97125 3.10625,0 -0.52875,1.97125 1.335,0 1.38625,-5.17625 -1.33375,0"
           id="path17085"
           style="fill:#918f90;fill-opacity:1;fill-rule:nonzero;stroke:none" />
        <path
           d="m 257.5733,417.31789 -3.4775,0 -1.38625,5.17625 4.1725,0 c 1.21875,0 2.145,-0.7675 2.4425,-1.8675 l 0.19375,-0.72375 c 0.29625,-1.0925 -0.007,-2.585 -1.945,-2.585 m 0.7175,2.26625 -0.19375,0.7225 c -0.13625,0.50875 -0.5875,0.95375 -1.215,0.95375 l -2.50875,0 0.72625,-2.70875 2.47375,0 c 0.87875,0 0.78125,0.8 0.7175,1.0325"
           id="path17089"
           style="fill:#918f90;fill-opacity:1;fill-rule:nonzero;stroke:none" />
      </g>
    </g>
  </g>
</svg>
