<?xml version="1.0" encoding="UTF-8" ?>
<!DOCTYPE svg PUBLIC "-//W3C//DTD SVG 1.1//EN" "http://www.w3.org/Graphics/SVG/1.1/DTD/svg11.dtd">
<svg width="611pt" height="112pt" viewBox="0 0 611 112" version="1.1" xmlns="http://www.w3.org/2000/svg">
<g id="#ffffffff">
</g>
<g id="#434750ff">
<path fill="#434750" opacity="1.00" d=" M 346.96 1.01 C 352.65 0.27 358.47 -0.23 364.13 0.98 C 362.36 8.41 360.23 15.75 358.27 23.13 C 367.20 23.50 376.15 23.25 385.09 23.26 C 384.01 28.64 382.36 33.89 380.98 39.20 C 372.00 39.39 363.02 39.23 354.04 39.27 C 349.68 54.82 345.61 70.46 341.45 86.07 C 340.93 87.32 341.11 89.03 339.98 89.93 C 334.31 90.12 328.63 89.95 322.96 89.98 C 331.12 60.37 338.78 30.62 346.96 1.01 Z" />
<path fill="#434750" opacity="1.00" d=" M 12.34 37.36 C 16.43 28.43 26.23 22.84 35.96 23.24 C 55.50 23.41 75.06 22.99 94.59 23.48 C 93.18 28.77 91.88 34.09 90.26 39.32 C 71.15 39.27 52.04 39.31 32.94 39.36 C 29.39 39.10 26.20 42.49 26.56 45.96 C 26.86 48.10 28.91 49.36 30.96 49.23 C 43.00 49.34 55.04 49.20 67.07 49.32 C 72.18 49.32 77.50 50.99 80.91 54.95 C 85.31 59.75 85.96 66.95 84.07 72.97 C 82.30 79.85 77.35 85.87 70.82 88.72 C 66.81 90.46 62.40 91.13 58.05 91.04 C 39.02 90.99 19.98 91.12 0.95 91.05 C 2.36 85.68 3.91 80.35 5.19 74.94 C 24.16 74.72 43.13 74.95 62.09 74.88 C 66.00 75.28 69.80 70.76 67.88 67.06 C 67.28 65.55 65.60 64.79 64.04 64.87 C 51.69 64.75 39.33 64.96 26.98 64.79 C 21.12 64.70 15.27 61.76 12.21 56.66 C 8.62 50.81 9.46 43.32 12.34 37.36 Z" />
<path fill="#434750" opacity="1.00" d=" M 104.68 23.53 C 115.08 22.93 125.55 23.47 135.98 23.29 C 143.86 23.53 151.89 22.57 159.64 24.44 C 165.58 25.87 171.02 29.68 173.86 35.16 C 177.35 41.92 177.33 49.95 175.42 57.18 C 173.45 64.45 172.02 72.22 167.20 78.26 C 161.74 85.29 153.15 90.77 143.97 90.03 C 129.98 89.96 115.99 90.01 102.01 89.99 C 102.84 97.59 100.19 104.80 98.23 112.00 L 80.77 112.00 C 88.92 82.56 96.51 52.95 104.68 23.53 M 117.48 40.27 C 114.51 51.85 110.98 63.32 108.44 75.00 C 119.30 74.78 130.17 74.99 141.03 74.90 C 145.93 74.90 150.74 72.57 153.74 68.70 C 156.93 64.83 157.52 59.68 158.93 55.03 C 160.14 51.09 160.80 46.37 158.27 42.80 C 156.19 39.87 152.34 39.27 149.00 39.28 C 139.68 39.28 130.35 39.32 121.03 39.27 C 119.92 39.52 117.83 38.68 117.48 40.27 Z" />
<path fill="#434750" opacity="1.00" d=" M 214.25 23.45 C 223.82 23.14 233.40 23.33 242.98 23.35 C 250.91 23.48 259.51 26.15 264.15 33.01 C 269.71 41.24 268.88 51.95 265.99 61.01 C 264.25 68.81 261.34 76.71 255.28 82.23 C 251.03 86.03 245.81 89.11 240.12 89.96 C 227.75 90.08 215.38 89.92 203.01 90.02 C 194.44 90.72 185.92 85.09 182.83 77.13 C 180.30 70.73 180.53 63.57 182.33 57.02 C 184.04 51.06 185.03 44.75 188.37 39.41 C 193.71 30.30 203.70 24.13 214.25 23.45 M 215.24 39.41 C 208.18 40.04 202.21 45.68 200.62 52.49 C 199.34 57.88 196.89 63.36 198.24 68.99 C 199.37 73.17 203.96 75.10 207.96 74.91 C 216.34 74.91 224.71 74.95 233.09 74.89 C 240.48 74.80 246.95 69.03 248.65 61.96 C 249.85 56.20 253.08 50.17 250.71 44.29 C 249.20 40.42 244.74 39.22 240.97 39.29 C 232.39 39.37 223.81 39.12 215.24 39.41 Z" />
<path fill="#434750" opacity="1.00" d=" M 287.47 30.48 C 292.73 25.62 299.96 23.62 306.99 23.40 C 315.96 23.17 324.94 23.39 333.91 23.29 C 332.66 28.62 331.11 33.87 329.84 39.19 C 322.35 39.49 314.84 39.01 307.36 39.43 C 300.08 40.06 294.75 46.35 292.95 53.06 C 289.51 65.33 286.45 77.70 283.03 89.98 C 277.28 90.02 271.53 90.00 265.78 89.99 C 269.02 77.60 272.39 65.24 275.72 52.88 C 278.04 44.76 281.13 36.37 287.47 30.48 Z" />
</g>
<g id="#f7a511ff">
<path fill="#f7a511" opacity="1.00" d=" M 423.41 1.15 C 429.20 0.20 435.21 0.25 441.04 0.99 C 433.09 30.67 424.92 60.28 416.92 89.95 C 409.26 90.06 401.60 89.97 393.94 89.99 C 398.46 73.20 402.91 56.39 407.50 39.62 C 401.19 38.79 394.78 39.49 388.43 39.29 C 389.23 33.87 390.91 28.62 392.28 23.32 C 405.97 23.40 419.11 14.18 423.41 1.15 Z" />
</g>
<g id="#b2b5baff">
<path fill="#b2b5ba" opacity="1.00" d=" M 453.08 24.09 C 458.96 24.02 464.84 23.86 470.72 24.13 C 468.50 32.38 466.23 40.62 464.02 48.87 C 477.54 49.01 491.07 49.02 504.59 48.81 C 506.76 40.58 508.85 32.33 511.11 24.12 C 517.00 24.00 522.91 23.83 528.80 24.18 C 525.92 35.48 522.71 46.71 519.76 57.99 C 516.63 68.58 514.32 79.40 511.04 89.93 C 505.25 90.04 499.47 89.99 493.68 89.99 C 495.37 81.64 498.18 73.57 500.02 65.26 C 486.48 65.23 472.95 65.06 459.42 65.28 C 457.57 73.58 455.15 81.75 452.96 89.97 C 447.21 90.05 441.46 89.97 435.71 90.01 C 436.88 83.46 439.06 77.15 440.67 70.70 C 444.81 55.16 449.02 39.65 453.08 24.09 Z" />
<path fill="#b2b5ba" opacity="1.00" d=" M 537.28 24.17 C 554.85 23.75 572.44 24.10 590.01 24.02 C 598.42 23.59 605.85 29.94 608.67 37.53 C 610.79 42.90 610.11 48.83 609.63 54.43 C 607.60 62.01 606.61 70.23 601.83 76.73 C 599.59 80.44 596.52 83.65 592.73 85.80 C 589.10 87.84 585.30 90.18 580.98 89.99 C 560.62 89.98 540.26 90.04 519.90 89.97 C 525.54 68.01 531.63 46.14 537.28 24.17 M 550.54 41.57 C 547.40 52.44 544.69 63.44 541.60 74.32 C 543.05 74.66 544.53 74.83 546.03 74.78 C 555.01 74.65 563.99 74.73 572.98 74.70 C 578.36 74.93 583.86 72.42 587.10 68.09 C 589.74 64.55 590.24 60.03 591.56 55.93 C 592.87 51.77 593.64 46.79 591.10 42.94 C 588.78 39.87 584.54 39.84 581.05 39.75 C 571.70 39.74 562.35 39.64 553.01 39.64 C 551.58 39.52 550.76 40.17 550.54 41.57 Z" />
</g>
</svg>
