<?xml version="1.0" encoding="UTF-8" standalone="no"?>
<!-- Created with Inkscape (http://www.inkscape.org/) -->
<svg
   xmlns:svg="http://www.w3.org/2000/svg"
   xmlns="http://www.w3.org/2000/svg"
   version="1.0"
   width="744.09448"
   height="496.06299"
   id="svg1936">
  <defs
     id="defs1938" />
  <g
     id="layer1">
    <g
       transform="matrix(3.543307,0,0,3.543307,5.37707e-4,-7.045208e-4)"
       style="fill-rule:evenodd"
       id="Ebene_x0020_1">
  
  <g
   id="_46918288">
   <path
   d="M 5.2136,101.113 L 204.9996,101.113 L 204.9996,133.8466 L 5.2136,133.8466 L 5.2136,101.113 L 5.2136,101.113 z M 199.6476,125.7021 L 199.6476,122.999 L 193.8759,122.999 L 193.8759,118.5423 L 199.3553,118.5423 L 199.3553,115.9609 L 193.8759,115.9609 L 193.8759,111.9183 L 199.6476,111.9183 L 199.6476,109.2639 L 190.71,109.2639 L 190.71,125.7021 L 199.6476,125.7021 L 199.6476,125.7021 z M 184.6855,125.7021 L 184.6855,122.9259 L 179.3522,122.9259 L 179.3522,109.2639 L 176.1863,109.2639 L 176.1863,125.7021 L 184.6855,125.7021 L 184.6855,125.7021 z M 170.4937,125.7021 L 170.4937,122.9259 L 165.1604,122.9259 L 165.1604,109.2639 L 161.9944,109.2639 L 161.9944,125.7021 L 170.4937,125.7021 L 170.4937,125.7021 z M 155.1019,125.7021 L 155.1019,122.999 L 149.3302,122.999 L 149.3302,118.5423 L 154.8096,118.5423 L 154.8096,115.9609 L 149.3302,115.9609 L 149.3302,111.9183 L 155.1019,111.9183 L 155.1019,109.2639 L 146.1643,109.2639 L 146.1643,125.7021 L 155.1019,125.7021 L 155.1019,125.7021 z M 139.9233,109.2639 L 136.7573,109.2639 L 134.5168,118.4449 C 134.2733,119.4191 134.0785,120.4419 133.908,121.5865 L 133.8837,121.5865 C 133.7375,120.4419 133.4697,119.2973 133.2261,118.3962 L 130.6934,109.2639 L 127.3327,109.2639 L 124.8243,118.4449 C 124.5321,119.4921 124.3617,120.588 124.1912,121.6839 L 124.1668,121.6839 C 124.0207,120.5393 123.8259,119.4191 123.558,118.3476 L 121.3175,109.2639 L 117.9324,109.2639 L 122.1212,125.7021 L 125.7985,125.7021 L 128.1851,116.5697 C 128.4773,115.4739 128.6721,114.4023 128.7939,113.2577 L 128.8182,113.2577 C 128.9887,114.4267 129.1592,115.5956 129.4514,116.6428 L 131.838,125.7021 L 135.7345,125.7021 L 139.9233,109.2639 L 139.9233,109.2639 z M 114.6539,125.7021 L 108.7848,109.2639 L 105.2048,109.2639 L 99.4576,125.7021 L 102.6478,125.7021 L 103.7924,122.3414 L 110.0024,122.3414 L 111.147,125.7021 L 114.6539,125.7021 L 114.6539,125.7021 z M 109.1744,119.833 L 104.596,119.833 L 106.0816,115.6444 C 106.3981,114.6946 106.666,113.7448 106.8609,112.8925 L 106.8852,112.8925 C 107.08,113.8179 107.3236,114.6215 107.6402,115.5226 L 109.1744,119.833 z M 96.611,114.2562 C 96.611,111.0416 94.3948,109.1665 90.3522,109.1665 C 88.745,109.1665 87.2838,109.1908 85.9443,109.2639 L 85.9443,125.7021 L 89.1103,125.7021 L 89.1103,119.9061 C 89.4999,119.9548 89.8896,119.9548 90.1818,119.9548 C 94.1757,119.9548 96.611,117.4465 96.611,114.2562 L 96.611,114.2562 z M 93.3234,114.4511 C 93.3234,116.2288 91.9839,117.3004 90.0357,117.3247 C 89.7434,117.3247 89.4269,117.3004 89.1103,117.2516 L 89.1103,111.7722 C 89.4755,111.7479 89.8408,111.7479 90.2305,111.7479 C 92.3736,111.7479 93.3234,112.7951 93.3234,114.4511 z M 79.5419,117.2516 C 79.5419,111.6261 76.4491,108.996 72.0656,108.996 C 67.6577,108.996 64.029,112.2593 64.029,117.69 C 64.029,122.7798 66.4887,125.9741 71.5054,125.9741 C 75.9621,125.9741 79.5419,122.6823 79.5419,117.2516 L 79.5419,117.2516 z M 76.1568,117.4951 C 76.1568,121.4404 73.8677,123.0964 71.7246,123.0964 C 68.7779,123.0964 67.4141,120.8316 67.4141,117.349 C 67.4141,113.6474 69.5084,111.8453 71.7733,111.8453 C 74.5982,111.8453 76.1568,113.8422 76.1568,117.4951 z M 59.2706,125.7021 L 55.3254,120.174 C 54.9114,119.6139 54.4487,118.9807 53.986,118.3719 C 56.47,117.9823 58.1747,116.2288 58.1747,113.7935 C 58.1747,110.4328 55.8368,109.1665 52.2082,109.1665 C 50.3087,109.1665 48.7744,109.1908 47.4837,109.2639 L 47.4837,125.7021 L 50.6496,125.7021 L 50.6496,118.9076 L 50.7714,118.9076 L 55.3497,125.7021 L 59.2706,125.7021 L 59.2706,125.7021 z M 54.8627,114.1101 C 54.8627,115.6444 53.6937,116.6185 51.7942,116.6185 C 51.3071,116.6185 50.8688,116.5941 50.6496,116.5697 L 50.6496,111.8209 C 50.9662,111.7722 51.4289,111.7479 51.8916,111.7479 C 53.8886,111.7479 54.8627,112.5272 54.8627,114.1101 z M 39.7622,119.3216 L 39.7622,109.2639 L 36.6206,109.2639 L 36.6206,119.5165 C 36.6206,122.3171 35.5978,123.3399 33.1625,123.3399 C 30.4349,123.3399 29.7531,121.8787 29.7531,119.8087 L 29.7531,109.2639 L 26.5871,109.2639 L 26.5871,120.0035 C 26.5871,123.1451 27.7561,125.9741 32.9433,125.9741 C 37.2781,125.9741 39.7622,123.827 39.7622,119.3216 L 39.7622,119.3216 z M 19.6842,125.7021 L 19.6842,122.999 L 13.9126,122.999 L 13.9126,118.5423 L 19.3919,118.5423 L 19.3919,115.9609 L 13.9126,115.9609 L 13.9126,111.9183 L 19.6842,111.9183 L 19.6842,109.2639 L 10.7466,109.2639 L 10.7466,125.7021 L 19.6842,125.7021 L 19.6842,125.7021 z "
   style="fill:#df0024"
   id="_47482568" />

   <path
   d="M 59.6079,65.1452 C 59.6079,38.718 25.9164,43.7279 25.9164,30.577 C 25.9164,25.8176 29.6738,22.3107 37.8149,22.3107 C 42.8248,22.3107 48.0851,23.1874 52.8446,24.5651 L 53.9718,7.6568 C 48.7114,6.6547 43.0752,6.1538 38.5664,6.1538 C 17.3996,6.1538 5.0001,16.6745 5.0001,32.581 C 5.0001,60.8868 38.6916,53.4972 38.6916,67.9007 C 38.6916,73.9125 33.5565,76.9184 26.4173,76.9184 C 20.2803,76.9184 13.3916,75.5407 8.6323,73.7873 L 7.6303,91.8229 C 13.0159,93.0962 19.0278,93.7225 24.9144,93.7225 C 46.457,93.7225 59.6079,81.5526 59.6079,65.1452 L 59.6079,65.1452 z M 135.3825,92.1986 L 117.4721,65.02 C 115.4682,61.8888 113.2137,58.7576 110.9592,55.5012 C 122.2316,52.7457 129.6211,43.4775 129.6211,32.0799 C 129.6211,14.1696 117.5973,7.0305 97.6831,7.0305 C 87.538,7.0305 78.395,7.1558 71.2559,7.6568 L 71.2559,92.1986 L 90.7945,92.1986 L 90.7945,59.1333 L 91.546,59.1333 L 111.5855,92.1986 L 135.3825,92.1986 z M 109.2058,33.7081 C 109.2058,40.8473 103.9455,45.2309 95.6791,45.2309 C 93.8004,45.2309 91.7964,45.1057 90.7945,44.9804 L 90.7945,23.3126 C 91.9217,23.1874 94.1761,23.0622 96.1801,23.0622 C 105.3232,23.0622 109.2058,27.07 109.2058,33.7081 L 109.2058,33.7081 z M 204.2261,92.1986 L 204.2261,7.6568 L 190.4489,7.6568 L 168.1549,14.7958 L 170.9103,32.9567 L 184.437,27.6963 L 184.437,92.1986 L 204.2261,92.1986 L 204.2261,92.1986 z "
   id="_47514128" />

  </g>

 </g>
  </g>
</svg>
