<?xml version="1.0" encoding="UTF-8" standalone="no"?>
<!-- Created with Inkscape (http://www.inkscape.org/) -->
<svg
   xmlns:svg="http://www.w3.org/2000/svg"
   xmlns="http://www.w3.org/2000/svg"
   version="1.0"
   width="744.09448"
   height="496.06299"
   id="svg2013">
  <defs
     id="defs2015" />
  <g
     id="layer1">
    <g
       transform="matrix(3.543307,0,0,3.543307,-0.480112,-7.045208e-4)"
       style="fill-rule:evenodd"
       id="Ebene_x0020_1">
  
  <g
   id="_47771160">
   <path
   d="M 135.382,92.1986 L 117.4716,65.02 C 115.4677,61.8888 113.2132,58.7576 110.9587,55.5012 C 122.2311,52.7457 129.6206,43.4775 129.6206,32.0799 C 129.6206,14.1696 117.5968,7.0305 97.6826,7.0305 C 87.5375,7.0305 78.3945,7.1558 71.2554,7.6568 L 71.2554,92.1986 L 90.794,92.1986 L 90.794,59.1333 L 91.5455,59.1333 L 111.585,92.1986 L 135.382,92.1986 z M 109.2053,33.7081 C 109.2053,40.8473 103.945,45.2309 95.6786,45.2309 C 93.7999,45.2309 91.7959,45.1057 90.794,44.9804 L 90.794,23.3126 C 91.9212,23.1874 94.1756,23.0622 96.1796,23.0622 C 105.3227,23.0622 109.2053,27.07 109.2053,33.7081 L 109.2053,33.7081 z M 59.6074,65.1452 C 59.6074,38.718 25.9159,43.7279 25.9159,30.577 C 25.9159,25.8176 29.6733,22.3107 37.8144,22.3107 C 42.8243,22.3107 48.0846,23.1874 52.8441,24.5651 L 53.9713,7.6568 C 48.7109,6.6547 43.0747,6.1538 38.5659,6.1538 C 17.3991,6.1538 4.9996,16.6745 4.9996,32.581 C 4.9996,60.8868 38.6911,53.4972 38.6911,67.9007 C 38.6911,73.9125 33.556,76.9184 26.4168,76.9184 C 20.2798,76.9184 13.3911,75.5407 8.6318,73.7873 L 7.6298,91.8229 C 13.0154,93.0962 19.0273,93.7225 24.9139,93.7225 C 46.4565,93.7225 59.6074,81.5526 59.6074,65.1452 L 59.6074,65.1452 z M 205.2714,65.415 C 205.2714,56.2791 199.89,48.3947 190.2536,45.8918 L 190.5038,45.5163 C 198.263,42.7631 203.5193,36.005 203.5193,26.9943 C 203.5193,14.9801 194.6338,6.3448 178.2393,6.3448 C 170.9807,6.3448 163.3467,7.8466 157.9652,10.0993 L 159.5922,25.868 C 163.722,23.8657 168.2274,22.6141 172.8579,22.6141 C 180.2416,22.6141 183.3704,26.3686 183.3704,31.1243 C 183.3704,36.7559 178.2393,42.5128 160.8436,42.0121 L 160.8436,57.2803 C 180.1165,54.527 184.6218,60.5342 184.6218,66.5413 C 184.6218,72.4233 179.1153,77.0538 170.2298,77.0538 C 165.8496,77.0538 162.0952,76.5531 158.591,75.3017 L 157.0892,91.8213 C 160.5934,92.9684 165.349,93.5942 170.6053,93.5942 C 191.5051,93.5942 205.2714,82.5603 205.2714,65.415 L 205.2714,65.415 z "
   id="_46864928" />

   <path
   d="M 5.2136,101.113 L 204.9996,101.113 L 204.9996,133.8466 L 5.2136,133.8466 L 5.2136,101.113 L 5.2136,101.113 z M 199.7916,125.7393 L 199.7916,123.0161 L 193.9771,123.0161 L 193.9771,118.5264 L 199.4972,118.5264 L 199.4972,115.9258 L 193.9771,115.9258 L 193.9771,111.8532 L 199.7916,111.8532 L 199.7916,109.1791 L 190.7878,109.1791 L 190.7878,125.7393 L 199.7916,125.7393 L 199.7916,125.7393 z M 188.281,125.7393 L 188.281,122.9425 L 182.9081,122.9425 L 182.9081,109.1791 L 179.7188,109.1791 L 179.7188,125.7393 L 188.281,125.7393 L 188.281,125.7393 z M 177.281,125.7393 L 177.281,122.9425 L 171.9081,122.9425 L 171.9081,109.1791 L 168.7188,109.1791 L 168.7188,125.7393 L 177.281,125.7393 L 177.281,125.7393 z M 165.0518,125.7393 L 165.0518,123.0161 L 159.2373,123.0161 L 159.2373,118.5264 L 164.7574,118.5264 L 164.7574,115.9258 L 159.2373,115.9258 L 159.2373,111.8532 L 165.0518,111.8532 L 165.0518,109.1791 L 156.048,109.1791 L 156.048,125.7393 L 165.0518,125.7393 L 165.0518,125.7393 z M 153.2769,109.1791 L 150.0876,109.1791 L 147.8305,118.4283 C 147.5851,119.4096 147.3889,120.44 147.2171,121.5931 L 147.1926,121.5931 C 147.0454,120.44 146.7755,119.2869 146.5302,118.3792 L 143.9787,109.1791 L 140.593,109.1791 L 138.066,118.4283 C 137.7716,119.4832 137.5999,120.5872 137.4282,121.6913 L 137.4036,121.6913 C 137.2564,120.5382 137.0602,119.4096 136.7903,118.3301 L 134.5332,109.1791 L 131.123,109.1791 L 135.3428,125.7393 L 139.0474,125.7393 L 141.4517,116.5392 C 141.7461,115.4352 141.9424,114.3557 142.065,113.2026 L 142.0896,113.2026 C 142.2613,114.3802 142.433,115.5578 142.7274,116.6128 L 145.1318,125.7393 L 149.0571,125.7393 L 153.2769,109.1791 z M 111.307,125.7393 L 111.307,109.1791 L 108.2158,109.1791 L 108.2158,114.3311 C 108.2158,116.3674 108.2648,119.3115 108.3875,120.9798 C 107.7741,119.7286 107.1117,118.3547 106.3512,117.0789 L 101.7389,109.1791 L 97.5927,109.1791 L 97.5927,125.7393 L 100.6839,125.7393 L 100.6839,119.8267 C 100.6839,117.8395 100.6348,115.2389 100.5367,113.8159 C 101.0274,114.8954 101.5917,116.1221 102.3277,117.3733 L 107.1853,125.7393 L 111.307,125.7393 z M 95.3544,125.7393 L 89.4417,109.1791 L 85.8353,109.1791 L 80.0453,125.7393 L 83.2592,125.7393 L 84.4123,122.3537 L 90.6684,122.3537 L 91.8215,125.7393 L 95.3544,125.7393 L 95.3544,125.7393 z M 89.8343,119.8267 L 85.2219,119.8267 L 86.7185,115.6069 C 87.0374,114.6501 87.3073,113.6933 87.5036,112.8346 L 87.5281,112.8346 C 87.7244,113.7669 87.9697,114.5765 88.2887,115.4842 L 89.8343,119.8267 z M 79.031,125.7393 L 79.031,122.9425 L 73.6581,122.9425 L 73.6581,109.1791 L 70.4688,109.1791 L 70.4688,125.7393 L 79.031,125.7393 z M 67.737,125.7393 L 63.7625,120.1702 C 63.3454,119.6059 62.8793,118.968 62.4132,118.3547 C 64.9156,117.9621 66.633,116.1957 66.633,113.7423 C 66.633,110.3567 64.2777,109.0809 60.6222,109.0809 C 58.7086,109.0809 57.1629,109.1055 55.8627,109.1791 L 55.8627,125.7393 L 59.052,125.7393 L 59.052,118.8944 L 59.1747,118.8944 L 63.787,125.7393 L 67.737,125.7393 z M 63.2964,114.0613 C 63.2964,115.6069 62.1188,116.5882 60.2051,116.5882 C 59.7144,116.5882 59.2728,116.5637 59.052,116.5392 L 59.052,111.7551 C 59.371,111.706 59.8371,111.6815 60.3033,111.6815 C 62.315,111.6815 63.2964,112.4666 63.2964,114.0613 z M 53.5544,125.7393 L 47.6417,109.1791 L 44.0353,109.1791 L 38.2453,125.7393 L 41.4592,125.7393 L 42.6123,122.3537 L 48.8684,122.3537 L 50.0215,125.7393 L 53.5544,125.7393 L 53.5544,125.7393 z M 48.0343,119.8267 L 43.4219,119.8267 L 44.9185,115.6069 C 45.2374,114.6501 45.5073,113.6933 45.7036,112.8346 L 45.7281,112.8346 C 45.9244,113.7669 46.1697,114.5765 46.4887,115.4842 L 48.0343,119.8267 z M 37.2544,125.7393 L 31.3417,109.1791 L 27.7353,109.1791 L 21.9453,125.7393 L 25.1592,125.7393 L 26.3123,122.3537 L 32.5684,122.3537 L 33.7215,125.7393 L 37.2544,125.7393 L 37.2544,125.7393 z M 31.7343,119.8267 L 27.1219,119.8267 L 28.6185,115.6069 C 28.9374,114.6501 29.2073,113.6933 29.4036,112.8346 L 29.4281,112.8346 C 29.6244,113.7669 29.8697,114.5765 30.1887,115.4842 L 31.7343,119.8267 z M 20.6068,120.6118 C 20.6068,115.4352 13.6392,116.5392 13.6392,113.5706 C 13.6392,112.393 14.5715,111.5588 16.4115,111.5588 C 17.4174,111.5588 18.4478,111.7306 19.3801,112.0004 L 19.5518,109.2036 C 18.5705,109.0319 17.491,108.9092 16.5587,108.9092 C 12.5842,108.9092 10.2535,110.9455 10.2535,113.8895 C 10.2535,119.336 17.1966,117.8885 17.1966,121.0534 C 17.1966,122.5745 15.9454,123.2369 14.3261,123.2369 C 13.124,123.2369 11.7992,122.967 10.8669,122.6481 L 10.6706,125.6166 C 11.701,125.8906 12.8787,126.0133 14.0563,126.0133 C 18.1289,126.0133 20.6068,123.7275 20.6068,120.6118 L 20.6068,120.6118 z M 129.4888,117.177 C 129.4888,111.3626 126.2258,109.0809 121.0983,109.0809 C 119.062,109.0809 117.0502,109.1545 115.75,109.2036 L 115.75,125.7148 C 117.1484,125.7679 118.6449,125.8415 120.3623,125.8415 C 125.7597,125.8415 129.4888,122.8689 129.4888,117.177 L 129.4888,117.177 z M 126.0541,117.4224 C 126.0541,121.3478 123.797,123.1142 120.6812,123.1142 C 120.0434,123.1142 119.3809,123.0651 118.9393,122.9915 L 118.9393,111.8287 C 119.4545,111.7796 120.1415,111.7551 120.8775,111.7551 C 124.6557,111.7551 126.0541,113.865 126.0541,117.4224 L 126.0541,117.4224 z "
   style="fill:#009f3d"
   id="_48024288" />

  </g>

 </g>
  </g>
</svg>
