<?xml version="1.0" encoding="UTF-8" standalone="no"?>
<!-- Created with Inkscape (http://www.inkscape.org/) -->

<svg
   xmlns:dc="http://purl.org/dc/elements/1.1/"
   xmlns:cc="http://creativecommons.org/ns#"
   xmlns:rdf="http://www.w3.org/1999/02/22-rdf-syntax-ns#"
   xmlns:svg="http://www.w3.org/2000/svg"
   xmlns="http://www.w3.org/2000/svg"
   xmlns:xlink="http://www.w3.org/1999/xlink"
   xmlns:sodipodi="http://sodipodi.sourceforge.net/DTD/sodipodi-0.dtd"
   xmlns:inkscape="http://www.inkscape.org/namespaces/inkscape"
   version="1.0"
   width="1091.5814"
   height="151.80695"
   id="Super-RTL_logo2007"
   xml:space="preserve"
   inkscape:version="0.48.2 r9819"
   sodipodi:docname="AJAX1.svg"><metadata
     id="metadata17"><rdf:RDF><cc:Work
         rdf:about=""><dc:format>image/svg+xml</dc:format><dc:type
           rdf:resource="http://purl.org/dc/dcmitype/StillImage" /><dc:title /></cc:Work></rdf:RDF></metadata><sodipodi:namedview
     pagecolor="#ffffff"
     bordercolor="#666666"
     borderopacity="1"
     objecttolerance="10"
     gridtolerance="10"
     guidetolerance="10"
     inkscape:pageopacity="0"
     inkscape:pageshadow="2"
     inkscape:window-width="1280"
     inkscape:window-height="1004"
     id="namedview15"
     showgrid="false"
     inkscape:zoom="0.87925607"
     inkscape:cx="788.34804"
     inkscape:cy="131.33288"
     inkscape:window-x="-8"
     inkscape:window-y="-8"
     inkscape:window-maximized="1"
     inkscape:current-layer="g3926"
     fit-margin-top="0"
     fit-margin-left="0"
     fit-margin-right="0"
     fit-margin-bottom="0" /><defs
     id="defs5"><linearGradient
       id="linearGradient7157"><stop
         id="stop7161"
         style="stop-color:#fb8c01;stop-opacity:1"
         offset="0" /><stop
         id="stop7169"
         style="stop-color:#e35202;stop-opacity:1"
         offset="1" /></linearGradient><linearGradient
       x1="143.44417"
       y1="422.30911"
       x2="313.14142"
       y2="422.30911"
       id="linearGradient3246"
       xlink:href="#linearGradient7157"
       gradientUnits="userSpaceOnUse"
       gradientTransform="matrix(1.25,0,0,-1.25,67.889496,611.29137)" /><inkscape:perspective
       sodipodi:type="inkscape:persp3d"
       inkscape:vp_x="0 : 0.5 : 1"
       inkscape:vp_y="0 : 1000 : 0"
       inkscape:vp_z="1 : 0.5 : 1"
       inkscape:persp3d-origin="0.5 : 0.33333333 : 1"
       id="perspective3893-0" /><inkscape:perspective
       sodipodi:type="inkscape:persp3d"
       inkscape:vp_x="0 : 0.5 : 1"
       inkscape:vp_y="0 : 1000 : 0"
       inkscape:vp_z="1 : 0.5 : 1"
       inkscape:persp3d-origin="0.5 : 0.33333333 : 1"
       id="perspective3893" /><linearGradient
       id="linearGradient2489-0"><stop
         id="stop2491-8"
         offset="0"
         style="stop-color:#cf2027;stop-opacity:1;" /><stop
         style="stop-color:#eb1d2b;stop-opacity:1;"
         offset="0.49652803"
         id="stop3267-9" /><stop
         id="stop2493-2"
         offset="1"
         style="stop-color:#f16276;stop-opacity:1;" /></linearGradient><linearGradient
       y2="186.00531"
       x2="681.38068"
       y1="122.54211"
       x1="677.43103"
       gradientUnits="userSpaceOnUse"
       id="linearGradient5522-2"
       xlink:href="#linearGradient2489-0"
       inkscape:collect="always"
       gradientTransform="translate(-1289.6369,496.86055)" /><inkscape:perspective
       sodipodi:type="inkscape:persp3d"
       inkscape:vp_x="0 : 0.5 : 1"
       inkscape:vp_y="0 : 1000 : 0"
       inkscape:vp_z="1 : 0.5 : 1"
       inkscape:persp3d-origin="0.5 : 0.33333333 : 1"
       id="perspective3266" /><inkscape:perspective
       id="perspective5584"
       inkscape:persp3d-origin="372.04724 : 350.78739 : 1"
       inkscape:vp_z="744.09448 : 526.18109 : 1"
       inkscape:vp_y="0 : 1000 : 0"
       inkscape:vp_x="0 : 526.18109 : 1"
       sodipodi:type="inkscape:persp3d" /><linearGradient
       id="linearGradient2489"><stop
         id="stop2491"
         offset="0"
         style="stop-color:#cf2027;stop-opacity:1;" /><stop
         style="stop-color:#eb1d2b;stop-opacity:1;"
         offset="0.49652803"
         id="stop3267" /><stop
         id="stop2493"
         offset="1"
         style="stop-color:#f16276;stop-opacity:1;" /></linearGradient></defs><g
     id="g3926"
     transform="translate(-9.4981247,-7.5015123)"><g
       transform="translate(0,7.3242188e-6)"
       id="box_links"><path
         inkscape:connector-curvature="0"
         style="fill:url(#linearGradient3246);fill-opacity:1;fill-rule:nonzero;stroke:none"
         id="box_links_bg"
         d="m 46.560082,7.501505 c -20.472319,0 -37.0619573,16.589637 -37.0619573,37.06195 l 0,77.683045 c 0,20.47232 16.5896383,37.06195 37.0619573,37.06195 l 371.413768,0 c 24.06086,0 43.56251,-19.50165 43.56251,-43.53308 l 0,-64.711365 c 0,-18.207413 9.2949,-34.208775 23.35491,-43.5625 l -438.331188,0" /><path
         inkscape:connector-curvature="0"
         style="fill:#ffffff;fill-opacity:1;fill-rule:nonzero;stroke:none"
         id="text_SUPER"
         d="m 373.38185,76.360268 -7.73595,-0.147075 0,-15.442476 9.2949,-0.147075 c 4.58862,0 7.41238,3.294401 7.41238,7.706538 0,4.85335 -2.55903,8.030088 -8.97133,8.030088 m 18.53097,18.413325 c -1.41189,-1.735451 -3.67679,-4.294488 -5.97109,-4.294488 11.11859,-3.147325 18.00152,-11.295075 18.00152,-23.149013 0,-14.854199 -12.5893,-25.26685 -28.7083,-25.119775 l -31.44384,0.29415 0,81.830453 21.70771,0 0,-7.14766 c 0,-1.55897 0.14708,-17.26618 -0.26472,-20.413505 0.97066,0.558875 2.6767,1.558962 4.55921,4.000335 l 12.85402,15.41308 c 2.70612,3.29439 5.5887,5.14749 6.58879,6.0005 2.11783,1.41189 5.41223,2.14725 8.97135,2.14725 l 19.44283,0 -25.73748,-29.561327 m -121.5691,29.561327 59.12264,0 0,-19.26634 -37.562,0.11765 0,-13.559963 18.26625,0.147063 c 8.29482,0.117663 14.4424,-3.7356 14.29534,-11.706863 l -0.29415,-7.588887 -32.26744,0.147075 0,-10.853862 22.70781,0.147075 c 8.44189,0 14.29533,-3.735613 14.29533,-11.706875 l 0,-7.706526 -58.56378,0 0,81.830453 M 225.60463,78.03688 c -1.55895,0 -2.82376,0 -5.00042,-0.117662 0.14707,-2.853176 0.14707,-10.294988 0.14707,-12.148088 l 0,-5.412212 5.85344,-0.323563 c 6.32406,-0.11765 11.73629,0 11.73629,8.000675 0,7.177075 -2.14724,10.147925 -12.73638,10.00085 m 20.0017,-32.385087 c -5.00042,-2.588463 -8.58896,-3.441476 -16.7073,-3.441476 l -29.56132,0.29415 0,81.830453 21.56065,0 0,-13.85411 c 0,-7.14768 -0.14708,-10.853867 -0.55888,-14.560068 2.55904,0.147075 5.00043,0.264726 6.70645,0.264726 19.26634,0 32.41452,-10.559713 32.41452,-28.002363 0,-10.1185 -5.11809,-18.413325 -13.85412,-22.531312 M 151.03951,125.7762 c 20.26642,0 32.59099,-10.44205 32.59099,-29.149507 l 0,-54.122226 -21.59006,0 0,54.563438 c 0,6.118165 -3.26498,9.559625 -11.148,9.559625 -7.4124,0 -11.11859,-3.73561 -11.11859,-9.559625 l 0,-40.4446 c 0,-8.412475 -3.88268,-14.118838 -12.00102,-14.118838 l -9.73611,0 0,54.122226 c 0,18.295667 12.85402,29.149507 33.00279,29.149507 m -79.506727,-0.14706 c 19.560478,0 33.414587,-8.58896 33.414587,-24.44325 0,-9.706697 -5.853433,-17.442647 -16.854363,-23.854947 l -12.148086,-7.0006 c -5.11808,-3.117913 -6.000508,-4.823938 -6.000508,-6.294651 0,-1.970749 1.853098,-4.412137 8.706619,-4.412137 4.853351,0 9.294904,0.735363 17.736794,3.7062 L 101.24118,44.50463 C 90.94619,41.91618 84.533882,41.063168 78.35689,41.063168 c -16.972024,0 -30.267267,9.147825 -30.267267,23.707887 0,8.706613 4.55921,15.295412 13.295243,20.4429 l 14.707126,8.55955 c 5.000423,2.853188 6.70645,5.559288 6.70645,8.000675 0,2.11782 -2.264897,4.85335 -11.265659,4.85335 -5.000423,0 -9.294904,-0.70594 -19.001607,-3.44146 l -4.588624,18.70746 c 10.85386,2.85319 17.14851,3.73561 23.590231,3.73561" /></g><g
       transform="translate(0,7.3242188e-6)"
       id="box_rechts"><path
         inkscape:connector-curvature="0"
         style="fill:#e04d04;fill-opacity:1;fill-rule:nonzero;stroke:none"
         id="box_rechts_bg_orange"
         d="m 846.98072,7.501505 -324.49804,0 c -24.06085,0 -43.53308,19.50165 -43.53308,43.5625 l 0,64.711365 c 0,18.14859 -9.2949,34.17936 -23.38434,43.53308 l 391.41546,0 c 22.7078,0 41.12113,-18.38389 41.12113,-41.09171 l 0,-68.03516 c 0,-22.7078 -18.41333,-42.680075 -41.12113,-42.680075" /><path
         inkscape:connector-curvature="0"
         style="fill:#ffffff;fill-opacity:1;fill-rule:nonzero;stroke:none"
         id="box_rechts_bg_weiss"
         d="m 468.65461,154.48452 c 9.64787,-10.44205 15.14834,-24.17851 15.14834,-38.70915 l 0,-64.711365 c 0,-10.353812 4.00033,-20.060512 11.32448,-27.35525 7.29474,-7.32415 17.03085,-11.3539 27.35525,-11.3539 l 324.49804,0 c 9.55964,0 18.61923,4.02975 25.53158,11.324488 6.8241,7.147662 10.7362,16.82495 10.7362,26.502237 l 0,68.03516 c 0,9.6773 -3.79444,18.7663 -10.61855,25.64924 -6.85352,6.8241 -15.97194,10.61854 -25.64923,10.61854 l -378.32611,0" /><path
         inkscape:connector-curvature="0"
         style="fill:#e04d04;fill-opacity:1;fill-rule:nonzero;stroke:none"
         id="text_RTL"
         d="m 797.09415,58.299918 0,42.091792 59.26972,0 0,12.64813 -105.42069,0 0,-54.739922 46.15097,0 m -60.29922,0 0.0588,12.883437 -30.20844,0 0,41.856485 -43.09187,0 0.0294,-41.856485 -30.532,0 0,-12.883437 103.74407,0 m -159.48407,24.825625 -18.9722,-0.02941 0.0294,-12.1775 18.53099,-0.02941 c 3.64736,0 5.76519,3.117912 5.76519,5.971087 0,3.323813 -2.17665,5.912263 -5.35339,6.265238 m 25.7963,10.942099 1.14715,-0.08824 c 8.53014,0.2059 16.76612,-7.382975 16.76612,-17.148513 C 620.99098,63.68272 611.28427,58.29992 602.37175,58.29992 l -84.30125,0 -0.0294,54.73992 40.29753,0 0,-17.913283 8.26541,-0.02941 20.88411,17.972113 42.18004,0 -26.56106,-19.001613" /></g><g
       transform="matrix(3.2013245,0,0,3.0245362,-411.38252,-69.204942)"
       style="font-size:40px;font-style:normal;font-variant:normal;font-weight:bold;font-stretch:normal;text-align:start;line-height:100%;writing-mode:lr-tb;text-anchor:start;fill:#e04d04;fill-opacity:1;stroke:none;font-family:Albany;-inkscape-font-specification:Albany Bold"
       id="g3913"><path
         style="fill:#e04d04;fill-opacity:1;stroke:none"
         d="m 422.61491,39.230687 c -0.0357,6.182134 0,6.198367 0,6.198367 l 9.04426,0 0,-11.074218 8.70965,0 0,32.187401 c 0,0 -0.0689,-0.03127 -4.35482,0 -1.17417,0.0086 -2.46466,-0.488394 -3.26608,-1.396732 -0.79803,-0.904497 -1.08821,-2.291775 -1.08875,-3.529349 -0.003,-6.166654 0,-6.248598 0,-6.248598 l -9.04426,0 0,11.174679 -8.72917,0 0,-32.187401 c 0,0 -0.008,-0.0035 4.36458,0 1.16344,9.37e-4 2.48649,0.334773 3.29411,1.221177 0.83647,0.918065 1.07784,2.37927 1.07048,3.654674 z"
         id="path3915"
         inkscape:connector-curvature="0"
         sodipodi:nodetypes="scccccsascccccsas" /><path
         style="fill:#e04d04;fill-opacity:1;stroke:none"
         d="m 446.65472,34.37237 c 0,0 7.51502,0 11.55783,0 4.04281,0 7.74317,1.091302 10.29207,3.83789 2.92019,3.146672 3.99271,8.146673 3.94254,12.557144 -0.0475,4.178561 -1.22491,8.830829 -4.00478,11.798228 -2.55909,2.731736 -6.22852,3.99414 -10.22983,3.99414 -4.00131,0 -11.55783,0 -11.55783,0 z m 8.45424,23.571415 c 0,0 -0.0665,0 1.85634,0 1.92284,0 3.47236,-0.111045 4.73694,-1.18725 1.62092,-1.379475 2.63562,-3.749927 2.7079,-5.950069 0.0795,-2.420078 -0.79087,-5.189565 -2.54189,-6.748047 -1.27813,-1.137587 -2.86944,-1.089593 -4.90295,-1.089593 -2.03351,0 -1.85634,0 -1.85634,0 z"
         id="path3917"
         inkscape:connector-curvature="0"
         sodipodi:nodetypes="czaaazccczaaazcc" /></g></g></svg>