<?xml version="1.0" encoding="UTF-8" standalone="no"?>
<svg xmlns="http://www.w3.org/2000/svg"
   xmlns:dc="http://purl.org/dc/elements/1.1/"
   xmlns:cc="http://creativecommons.org/ns#"
   xmlns:rdf="http://www.w3.org/1999/02/22-rdf-syntax-ns#"
   width="139.14767" height="75">
  <metadata><rdf:RDF><cc:Work rdf:about="">
    <dc:format>image/svg+xml</dc:format>
    <dc:type rdf:resource="http://purl.org/dc/dcmitype/StillImage"/>
    <dc:title>Syfy HD</dc:title>
  </cc:Work></rdf:RDF></metadata>
  <g style="fill:#371a5b;fill-opacity:1;fill-rule:nonzero;stroke:none"
     transform="translate(-78.143562,-861.99413)">
    <path
       d="m 179.6273,882.4165 -11.9593,0 0,-1.31268 c 0,-0.78888 0.0318,-1.64717 0.1767,-2.41711 0.0947,-0.57429 0.25245,-1.07287 0.43546,-1.45152 0.29662,-0.57431 0.5112,-0.8646 1.16122,-1.2622 0.65635,-0.37866 1.99428,-0.88985 4.65752,-0.89616 l 8.15377,0 0,-13.08267 -8.15377,0 c -3.87496,-0.005 -7.27657,0.6816 -10.16701,2.09525 -2.15835,1.05394 -3.97592,2.51809 -5.32647,4.15263 -2.03844,2.46128 -3.01665,5.14976 -3.50259,7.40909 -0.48595,2.26564 -0.5175,4.21573 -0.5175,5.45269 l 0,35.36675 13.08897,0 -0.007,-21.67823 11.95932,0 0,-12.37584"/>
    <path
       d="m 199.6836,936.99387 c 11.51122,-0.009 17.5887,-8.42515 17.60763,-16.33281 l 0,-38.24456 -12.29379,0 0,19.04024 c 0,0.87091 -0.11365,2.05738 -1.04762,3.08606 -0.92141,1.00976 -2.1205,1.78602 -4.08321,1.77339 -2.05106,0.0152 -3.50891,-0.7447 -4.24729,-1.786 -0.73839,-1.02869 -0.88353,-2.20885 -0.88353,-3.07345 l 0,-19.04024 -12.48312,0 0,19.3116 c 0.0121,8.05283 5.9702,16.3202 15.97939,16.33914 1.9501,0 3.88758,-0.39784 5.77456,-1.14859 l 0.90878,-0.35948 -0.005,0.9782 0,2.80208 c 0,0.58691 -0.009,1.40103 -0.63111,2.48652 -0.61216,1.09181 -1.96271,2.16468 -4.23467,2.14574 -2.04475,0.009 -3.35743,-0.89617 -4.05796,-1.82388 -0.70682,-0.9214 -0.8646,-1.82387 -0.88985,-1.95009 l -12.62195,-0.0505 0.25245,2.0069 c 1.46415,6.9042 7.74987,13.85259 16.9576,13.83998"/>
    <path
       d="m 134.32077,936.99387 c 11.51123,-0.009 17.58871,-8.42515 17.60764,-16.33281 l 0,-38.24456 -12.29379,0 0,19.04024 c 0,0.87091 -0.0568,2.02582 -1.04763,3.08606 -0.94033,1.00346 -2.12049,1.78602 -4.0832,1.77339 -2.05108,0.0152 -3.50891,-0.7447 -4.2473,-1.786 -0.74469,-1.02869 -0.88353,-2.20885 -0.88984,-3.07345 l 0,-19.04024 -12.47681,0 0,19.3116 c 0.0121,8.05283 5.9702,16.3202 15.97309,16.33914 1.95641,0 3.89388,-0.39784 5.78086,-1.14859 l 0.90878,-0.35948 0,0.9782 -0.007,2.80208 c 0,0.58061 -0.0121,1.40103 -0.63741,2.48652 -0.60586,1.09181 -1.95641,2.16468 -4.22836,2.14574 -2.04476,0.009 -3.36376,-0.89617 -4.05797,-1.82388 -0.70682,-0.9214 -0.87091,-1.82387 -0.88984,-1.95009 l -12.62196,-0.0505 0.25243,2.0069 c 1.46415,6.9042 7.7499,13.85259 16.95761,13.83998"/>
    <path transform="matrix(6.310982,0,0,-6.310982,-243.56822,4869.9475)translate(50.979,628.98)"
       d="M 0,0 C 0,0 0.001,0.17 0.008,0.271 L 1.966,0.265 1.961,0.146 c -0.002,-0.35 0.211,-0.684 0.398,-0.821 0.187,-0.139 0.454,-0.184 0.617,-0.184 0.419,0.001 0.802,0.257 0.807,0.651 L 3.782,-0.172 C 3.769,0.135 3.574,0.303 3.296,0.433 3.046,0.55 2.619,0.731 2.156,0.961 1.692,1.191 1.191,1.469 0.796,1.781 0.226,2.233 -0.031,2.815 0,3.625 0.027,4.314 0.327,4.908 0.887,5.4 1.447,5.892 2.138,6.088 2.87,6.088 3.8,6.088 4.577,5.713 5.091,5.101 5.612,4.461 5.712,3.854 5.734,3.408 l 0.004,-0.086 -2.032,0 C 3.685,3.531 3.587,3.781 3.468,3.917 3.328,4.079 3.113,4.184 2.843,4.183 2.688,4.182 2.506,4.136 2.352,4.039 2.201,3.944 2.076,3.786 2.077,3.579 2.075,3.355 2.179,3.18 2.468,3.033 2.75,2.887 3.604,2.509 3.724,2.463 4.941,1.989 5.711,1.221 5.799,0.061 5.8,0.036 5.801,0.01 5.801,-0.019 5.802,-0.411 5.684,-1.089 5.236,-1.681 4.786,-2.273 4.006,-2.79 2.985,-2.79 0.966,-2.783 0.005,-1.317 0,0"/>
  </g>
</svg>