<?xml version="1.0" encoding="UTF-8" standalone="no"?>
<!-- Created with Inkscape (http://www.inkscape.org/) -->
<svg
   xmlns:dc="http://purl.org/dc/elements/1.1/"
   xmlns:cc="http://creativecommons.org/ns#"
   xmlns:rdf="http://www.w3.org/1999/02/22-rdf-syntax-ns#"
   xmlns:svg="http://www.w3.org/2000/svg"
   xmlns="http://www.w3.org/2000/svg"
   xmlns:sodipodi="http://sodipodi.sourceforge.net/DTD/sodipodi-0.dtd"
   xmlns:inkscape="http://www.inkscape.org/namespaces/inkscape"
   width="785.94946"
   height="244.94458"
   id="svg3380"
   sodipodi:version="0.32"
   inkscape:version="0.46"
   version="1.0"
   sodipodi:docname="Funkhaus Europa Logo.svg"
   inkscape:output_extension="org.inkscape.output.svg.inkscape">
  <defs
     id="defs3382">
    <inkscape:perspective
       sodipodi:type="inkscape:persp3d"
       inkscape:vp_x="0 : 526.18109 : 1"
       inkscape:vp_y="0 : 1000 : 0"
       inkscape:vp_z="744.09448 : 526.18109 : 1"
       inkscape:persp3d-origin="372.04724 : 350.78739 : 1"
       id="perspective3388" />
  </defs>
  <sodipodi:namedview
     id="base"
     pagecolor="#ffffff"
     bordercolor="#666666"
     borderopacity="1.0"
     inkscape:pageopacity="0.0"
     inkscape:pageshadow="2"
     inkscape:zoom="0.83490749"
     inkscape:cx="392.97473"
     inkscape:cy="122.47229"
     inkscape:document-units="px"
     inkscape:current-layer="layer1"
     showgrid="false"
     inkscape:window-width="1024"
     inkscape:window-height="749"
     inkscape:window-x="-4"
     inkscape:window-y="-4" />
  <metadata
     id="metadata3385">
    <rdf:RDF>
      <cc:Work
         rdf:about="">
        <dc:format>image/svg+xml</dc:format>
        <dc:type
           rdf:resource="http://purl.org/dc/dcmitype/StillImage" />
      </cc:Work>
    </rdf:RDF>
  </metadata>
  <g
     inkscape:label="Ebene 1"
     inkscape:groupmode="layer"
     id="layer1"
     transform="translate(42.9747,-409.88989)">
    <g
       id="g3363"
       transform="translate(-1592.0451,-884.41843)">
      <g
         transform="translate(1242.0311,1023.8779)"
         style="fill:#000000"
         id="g3336">
        <path
           style="fill:#000000;fill-rule:evenodd;stroke:none;stroke-width:1px;stroke-linecap:butt;stroke-linejoin:miter;stroke-opacity:1"
           d="M 587.35868,291.81013 L 595.26277,279.63357 C 595.26277,279.63357 583.98103,270.2862 572.51183,273.22486 C 564.2407,275.34411 553.71293,278.91251 553.71293,296.29623 C 553.71293,299.05198 553.71293,305.48205 553.71293,305.48205 L 546.2361,305.48205 L 546.2361,319.58123 L 553.71293,319.58123 L 553.71293,378.5414 L 572.51183,378.5414 L 572.51183,319.58123 L 590.88348,319.58123 C 590.88348,319.58123 590.88348,346.97056 590.88348,358.46076 C 590.88348,363.56927 592.99241,370.91754 596.65132,374.48255 C 600.93686,378.6581 605.97663,380.68188 615.15903,380.64129 C 623.08634,380.60577 633.33522,373.15759 633.33522,373.15759 L 637.82731,381.2117 L 652.59485,372.43479 L 647.28016,363.37411 L 647.28016,302.61498 L 629.76301,308.16624 C 629.76301,308.16624 629.76301,341.39335 629.76301,354.72104 C 629.76301,362.85528 624.24302,365.72202 618.22732,365.547 C 612.79492,365.38489 609.68237,361.51857 609.68237,354.56999 C 609.68237,340.01968 609.68237,305.48205 609.68237,305.48205 L 572.51183,305.48205 C 572.51183,305.48205 572.51183,301.74364 572.51183,299.50059 C 572.51183,295.49672 572.42919,289.10178 579.56141,288.39215 C 584.04321,287.94623 587.35868,291.81013 587.35868,291.81013 z"
           id="path2489"
           sodipodi:nodetypes="ccssccccccccsssccccccsssccssc" />
        <path
           style="fill:#000000;fill-rule:evenodd;stroke:none;stroke-width:1px;stroke-linecap:butt;stroke-linejoin:miter;stroke-opacity:1"
           d="M 667.53786,378.5414 L 685.06911,378.5414 C 685.0691,378.5414 685.06911,347.74606 685.06911,334.41837 C 685.0691,326.28413 688.10972,321.40954 695.74586,320.2221 C 701.05315,319.39681 705.13161,322.49907 705.13161,329.44765 C 705.13161,343.99795 705.13161,378.5414 705.13161,378.5414 L 723.94411,378.5414 L 723.94411,364.4164 C 723.94411,364.41641 723.94411,337.0316 723.94411,325.5414 C 723.94411,320.43288 721.82177,313.10641 718.16286,309.5414 C 713.87731,305.36584 708.84526,303.31331 699.66286,303.3539 C 691.73558,303.38943 684.03885,311.92202 684.03885,311.92202 L 679.99734,303.00502 L 663.93435,309.86366 L 667.53786,320.63515 L 667.53786,378.5414 z"
           id="path3261"
           sodipodi:nodetypes="ccssscccsssccccc" />
        <path
           style="fill:#000000;fill-rule:evenodd;stroke:none;stroke-width:1px;stroke-linecap:butt;stroke-linejoin:miter;stroke-opacity:1"
           d="M 759.21875,270.875 L 740.40625,280.28125 L 740.40625,378.53125 L 759.21875,378.53125 L 759.21875,342.15625 L 783.53125,378.53125 L 808.15625,378.53125 L 778.53125,337.4375 L 801.5,305.46875 L 778.25,305.46875 L 759.21875,334.25 L 759.21875,270.875 z"
           id="path3270" />
        <path
           sodipodi:nodetypes="ccssscccssscccc"
           id="path3275"
           d="M 816.60251,378.5414 L 835.51974,378.5414 C 835.63543,378.5414 835.63543,347.74606 835.63543,334.41837 C 835.63542,326.28413 838.56035,321.40954 846.19649,320.2221 C 851.50378,319.39681 855.58224,322.49907 855.58224,329.44765 C 855.58224,343.99795 855.58224,378.5414 855.58224,378.5414 L 874.39474,378.5414 L 874.39474,364.4164 C 874.39474,364.41641 874.39474,337.0316 874.39474,325.5414 C 874.39474,320.43288 872.2724,313.10641 868.61349,309.5414 C 864.32794,305.36584 859.29589,303.31331 850.11349,303.3539 C 842.18621,303.38943 835.63543,311.92202 835.63543,311.92202 L 835.63543,270.43042 L 816.60251,279.54823 L 816.60251,378.5414 z"
           style="fill:#000000;fill-rule:evenodd;stroke:none;stroke-width:1px;stroke-linecap:butt;stroke-linejoin:miter;stroke-opacity:1" />
        <path
           style="fill:#000000;fill-rule:evenodd;stroke:none;stroke-width:1px;stroke-linecap:butt;stroke-linejoin:miter;stroke-opacity:1"
           d="M 916.71875,304.09375 C 898.527,304.3442 888.37498,315.71875 888.375,315.71875 L 896.65625,328.375 C 896.65625,328.375 906.2114,318.68297 918.78125,319.78125 C 927.06215,320.50478 926.06247,333.68751 926.0625,333.6875 C 926.0625,333.6875 912.41156,331.20741 901.15625,335.53125 C 893.39485,338.51287 886.7663,345.37245 886.53125,355.90625 C 886.06698,376.71356 901.56694,382.06305 914.21875,381.75 C 924.96476,381.48412 930.65625,372.93751 930.65625,372.9375 L 939.625,382.75 L 952.09375,371.125 L 945,362.96875 C 945,362.96875 944.99999,341.91414 945,331.40625 C 945,315.70004 938.98789,305.46923 920.46875,304.1875 C 919.18535,304.09867 917.93153,304.07705 916.71875,304.09375 z M 924.65625,346.9375 C 925.13637,346.92838 925.40625,346.9375 925.40625,346.9375 L 925.40625,363.375 C 925.40622,363.37499 907.4445,372.72429 907.6875,357.8125 C 907.84965,347.86051 921.29541,347.00134 924.65625,346.9375 z"
           id="path3283" />
        <path
           style="fill:#000000;fill-rule:evenodd;stroke:none;stroke-width:1px;stroke-linecap:butt;stroke-linejoin:miter;stroke-opacity:1"
           d="M 1019.1234,305.48205 L 1001.5922,305.48205 C 1001.7433,302.79455 1001.5922,341.40436 1001.5922,354.73205 C 1001.5922,362.86629 996.0766,365.75082 990.0609,365.5758 C 984.62853,365.41369 981.52965,361.52438 981.52965,354.5758 C 981.52965,340.0255 981.52965,305.48205 981.52965,305.48205 L 962.90465,305.48205 L 963.84215,365.66955 C 964.81289,369.10169 966.37961,372.41763 968.4984,374.48205 C 972.78395,378.65761 977.816,380.71014 986.9984,380.66955 C 994.92568,380.63402 1005.1859,373.16955 1005.1859,373.16955 L 1009.6547,381.23205 L 1024.4359,372.4508 L 1019.1234,363.3883 L 1019.1234,305.48205 z"
           id="path3290"
           sodipodi:nodetypes="ccscscccssccccc" />
        <path
           style="fill:#000000;fill-rule:evenodd;stroke:none;stroke-width:1px;stroke-linecap:butt;stroke-linejoin:miter;stroke-opacity:1"
           d="M 1064.2812,303.84653 C 1045.2401,304.38474 1034.1016,317.11614 1034.5938,330.46027 C 1035.2846,348.97781 1065.125,350.93 1065.125,350.93 L 1065.125,350.96087 C 1077.4571,353.83615 1074.4876,363.62477 1065.9688,365.71885 C 1060.2121,367.13393 1040.239,359.00875 1040.239,359.00875 L 1032.9577,373.39631 C 1032.9578,373.39632 1051.9946,381.52018 1065.9688,381.12517 C 1085.0099,380.58694 1093.4607,366.99099 1092.9685,353.64686 C 1092.2777,335.12933 1065.125,334.07258 1065.125,334.07258 L 1065.125,334.0417 C 1052.7929,331.16641 1055.7625,321.34692 1064.2812,319.25286 C 1070.0379,317.83777 1083.0625,325.39686 1083.0625,325.39686 L 1090.3438,311.87387 C 1090.3437,311.87389 1078.2554,303.45152 1064.2812,303.84653 z"
           id="path3297"
           sodipodi:nodetypes="ccccsccscccsccc" />
        <path
           style="fill:#000000;fill-rule:evenodd;stroke:none;stroke-width:1px;stroke-linecap:butt;stroke-linejoin:miter;stroke-opacity:1"
           d="M 580,408.65625 C 557.65462,408.75877 547.96485,431.62602 547.9375,446.46875 C 547.91076,460.99067 553.78259,483.54653 577.4375,485.78125 C 593.46766,487.29565 609.90625,476.15625 609.90625,476.15625 L 603.0625,464.40625 C 603.06247,464.40624 588.68992,472.47365 582.5625,471.25 C 567.45627,468.23327 569.53125,453.09375 569.53125,453.09375 L 611.59375,453.09375 C 611.59376,453.09376 613.86273,408.49941 580,408.65625 z M 581.0625,425.125 C 591.94829,425.15167 591.9375,439.84375 591.9375,439.84375 L 569.9375,439.84375 C 569.9375,439.84375 569.50056,425.09612 581.0625,425.125 z"
           id="path3307" />
        <path
           sodipodi:nodetypes="ccscscccssccccc"
           id="path3312"
           d="M 682.21126,410.67916 L 664.68006,410.67916 C 664.83116,407.99166 664.68006,446.60147 664.68006,459.92916 C 664.68006,468.0634 659.16446,470.94793 653.14876,470.77291 C 647.71639,470.6108 644.61751,466.72149 644.61751,459.77291 C 644.61751,445.22261 644.61751,410.67916 644.61751,410.67916 L 625.99251,410.67916 L 626.93001,470.86666 C 627.90075,474.2988 629.46747,477.61474 631.58626,479.67916 C 635.87181,483.85472 640.90386,485.90725 650.08626,485.86666 C 658.01354,485.83113 668.27376,478.36666 668.27376,478.36666 L 672.74256,486.42916 L 687.52376,477.64791 L 682.21126,468.58541 L 682.21126,410.67916 z"
           style="fill:#000000;fill-rule:evenodd;stroke:none;stroke-width:1px;stroke-linecap:butt;stroke-linejoin:miter;stroke-opacity:1" />
        <path
           style="fill:#000000;fill-rule:evenodd;stroke:none;stroke-width:1px;stroke-linecap:butt;stroke-linejoin:miter;stroke-opacity:1"
           d="M 701.19661,484.56054 C 701.19661,484.56054 701.19661,439.85144 701.19661,419.34355 C 701.19661,417.71208 698.80238,414.85745 698.80238,414.85745 L 715.84045,408.43198 L 720.22952,418.70063 C 720.22952,418.70063 723.57872,413.01371 729.48052,410.3591 C 736.53209,407.18732 744.3983,409.48628 744.3983,409.48628 L 737.14766,430.02974 C 737.14766,430.02974 731.64946,427.99298 728.52236,428.50401 C 721.72489,429.61484 720.22952,436.99938 720.22952,439.85144 C 720.22952,453.92755 720.22952,484.56054 720.22952,484.56054 L 701.19661,484.56054 z"
           id="path3320"
           sodipodi:nodetypes="cscccsccsscc" />
        <path
           style="opacity:1;fill:#000000;fill-opacity:1;stroke:none;stroke-width:1;stroke-miterlimit:4;stroke-dasharray:none;stroke-dashoffset:0;stroke-opacity:1"
           d="M 776.09375,409.3125 C 757.58025,409.3125 742.5625,426.52435 742.5625,447.75 C 742.5625,468.97566 757.58026,486.21875 776.09375,486.21875 C 794.60725,486.21875 809.625,468.97567 809.625,447.75 C 809.625,426.52434 794.60725,409.3125 776.09375,409.3125 z M 776.3125,424.90625 C 782.90695,424.90624 788.25,435.24246 788.25,447.96875 C 788.24999,460.69503 782.90693,471.03125 776.3125,471.03125 C 769.71809,471.03125 764.375,460.69504 764.375,447.96875 C 764.37499,435.24245 769.71807,424.90625 776.3125,424.90625 z"
           id="path3322" />
        <path
           style="fill:#000000;fill-rule:evenodd;stroke:none;stroke-width:1px;stroke-linecap:butt;stroke-linejoin:miter;stroke-opacity:1"
           d="M 835.5,408.4375 L 819.625,413.875 L 819.625,515.375 L 838.96875,510.53125 L 838.96875,484.5625 C 838.96876,484.56249 883.56778,497.42959 883.0625,447.75 C 882.51965,394.37668 838.95863,412.11889 838.95863,412.11889 L 837.06544,413.06664 L 835.5,408.4375 z M 848.90625,425.65625 C 849.33021,425.65986 849.77048,425.67953 850.21875,425.75 C 857.41046,426.88063 860.90625,432.566 860.90625,447.75 C 860.90624,468.16385 856.13663,468.76608 850,470.1875 C 843.96696,471.58495 838.96875,466.5625 838.96875,466.5625 L 838.96875,432.59375 C 838.96876,432.59374 842.54692,425.60205 848.90625,425.65625 z"
           id="path3329"
           sodipodi:nodetypes="cccccsccccsssccc" />
        <path
           id="path3334"
           d="M 922.09289,409.32229 C 903.90114,409.57274 893.74912,420.94729 893.74914,420.94729 L 902.03039,433.60354 C 902.03039,433.60354 911.58554,423.91151 924.15539,425.00979 C 932.43629,425.73332 931.43661,438.91605 931.43664,438.91604 C 931.43664,438.91604 917.7857,436.43595 906.53039,440.75979 C 898.76899,443.74141 892.14044,450.60099 891.90539,461.13479 C 891.44112,481.9421 906.94108,487.29159 919.59289,486.97854 C 930.3389,486.71266 936.03039,478.16605 936.03039,478.16604 L 944.99914,487.97854 L 957.46789,476.35354 L 950.37414,468.19729 C 950.37414,468.19729 950.37413,447.14268 950.37414,436.63479 C 950.37414,420.92858 944.36203,410.69777 925.84289,409.41604 C 924.55949,409.32721 923.30567,409.30559 922.09289,409.32229 z M 930.03039,452.16604 C 930.51051,452.15692 930.78039,452.16604 930.78039,452.16604 L 930.78039,468.60354 C 930.78036,468.60353 912.81864,477.95283 913.06164,463.04104 C 913.22379,453.08905 926.66955,452.22988 930.03039,452.16604 z"
           style="fill:#000000;fill-rule:evenodd;stroke:none;stroke-width:1px;stroke-linecap:butt;stroke-linejoin:miter;stroke-opacity:1" />
      </g>
      <path
         id="path3351"
         d="M 1658.7266,1296.8901 C 1598.1889,1296.8901 1549.0704,1346.0398 1549.0704,1406.5776 C 1549.0704,1467.1154 1598.189,1516.2339 1658.7266,1516.2339 C 1719.2644,1516.2339 1768.3829,1467.1153 1768.3829,1406.5776 C 1768.3829,1346.0398 1719.2645,1296.8901 1658.7266,1296.8901 z M 1658.7892,1328.6401 C 1701.8078,1328.6401 1736.7266,1363.5589 1736.7266,1406.5776 C 1736.7267,1444.6147 1709.412,1476.2761 1673.3516,1483.1089 L 1673.3516,1404.4526 L 1643.7266,1404.4526 L 1643.7266,1483.0463 C 1607.9122,1476.0181 1580.8516,1444.4401 1580.8516,1406.5776 C 1580.8516,1363.5589 1615.7703,1328.6401 1658.7892,1328.6401 z"
         style="opacity:1;fill:#aa5c11;fill-opacity:1;stroke:none;stroke-width:0.99184018;stroke-miterlimit:4;stroke-dasharray:none;stroke-dashoffset:0;stroke-opacity:1" />
    </g>
  </g>
</svg>
