<?xml version="1.0" encoding="UTF-8" standalone="no"?>
<!-- Created with Inkscape (http://www.inkscape.org/) -->

<svg
   xmlns:dc="http://purl.org/dc/elements/1.1/"
   xmlns:cc="http://creativecommons.org/ns#"
   xmlns:rdf="http://www.w3.org/1999/02/22-rdf-syntax-ns#"
   xmlns:svg="http://www.w3.org/2000/svg"
   xmlns="http://www.w3.org/2000/svg"
   version="1.1"
   width="400.42966"
   height="157.18306"
   id="svg2">
  <defs
     id="defs4" />
  <metadata
     id="metadata7">
    <rdf:RDF>
      <cc:Work
         rdf:about="">
        <dc:format>image/svg+xml</dc:format>
        <dc:type
           rdf:resource="http://purl.org/dc/dcmitype/StillImage" />
        <dc:title></dc:title>
      </cc:Work>
    </rdf:RDF>
  </metadata>
  <g
     transform="translate(51.730961,-177.34877)"
     id="layer1">
    <rect
       width="80.133942"
       height="163.12645"
       x="317.79413"
       y="184.05466"
       transform="matrix(1,0,-0.26747149,0.96356578,0,0)"
       id="rect3112"
       style="fill:#d40055;fill-opacity:1;stroke:none" />
    <path
       d="m 149.57488,298.40891 24.08308,0 0,-30.80375 1.83951,0 c 2.74313,0 9.65743,-0.15298 13.41713,5.93001 l 14.79678,24.87374 25.91452,0 -13.48168,-22.64698 c -4.45356,-7.59202 -8.11645,-11.65829 -10.99673,-13.74792 l 0,-0.25044 c 8.1245,-2.88028 17.01548,-9.82685 17.01548,-23.97819 0,-17.53184 -12.56193,-26.56803 -34.81356,-26.56803 l -37.77453,0 0,30.2632 -0.24204,0 c -4.57458,-18.25797 -19.97646,-30.2632 -48.10969,-30.2632 l -53.265163,0 -8.116439,35.60423 c -1.702349,7.33384 -3.146537,16.63629 -3.146537,16.63629 l -0.258176,0 c 0,0 -1.831445,-10.34322 -3.533794,-17.68513 l -6.946587,-34.55539 -29.2385486,0 -6.9465764,34.55539 c -1.702355,7.34191 -3.5338,17.68513 -3.5338,17.68513 l -0.266567,0 c 0,0 -1.43611,-9.30245 -3.138465,-16.63629 l -8.116443,-35.60423 -26.447015,0 23.300481,87.19123 26.6003086,0 13.2235074,-55.90341 0.137478,0 0.121348,0 13.223507,55.90341 26.180771,0 19.395559,-72.39446 0.258176,0 0,6.76907 0,65.62539 29.730695,0 c 28.52858,0 44.26931,-13.08634 48.90036,-31.79611 l 0.23365,0 0,31.79611 z m -47.1738,-19.76668 -7.325765,0 0,-47.65788 6.672255,0 c 15.97471,0 23.1714,7.06759 23.1714,23.30855 0,15.96663 -7.19669,24.34933 -22.51789,24.34933 m 84.42391,-29.46446 -13.16703,0 0,-19.50044 12.37636,0 c 8.25359,0 11.65831,3.26755 11.65831,9.81073 0,6.02682 -3.53381,9.68971 -10.86764,9.68971"
       id="path3491"
       style="fill:#034b7a;fill-opacity:1;fill-rule:nonzero;stroke:none" />
  </g>
</svg>
