<svg xmlns="http://www.w3.org/2000/svg" width="213.633" height="45.439" viewBox="0 0 213.63282 45.439455">
  <path style="line-height:125%;-inkscape-font-specification:'TheSansBlack-Plain Medium'" d="M128.834 1c-8.18 0-14.81 6.655-14.81 14.814 0 8.208 6.63 14.862 14.81 14.862 8.176 0 14.81-6.654 14.81-14.862 0-8.16-6.634-14.814-14.81-14.814zm0 2.174c6.943 0 12.654 5.678 12.654 12.64 0 7.01-5.71 12.688-12.654 12.688-6.943 0-12.652-5.678-12.652-12.688 0-6.962 5.71-12.64 12.652-12.64zm6.02 3.812l-14.967 5.37v3.68l4.933-1.772v11.134l10.034-3.55V6.986zm-41.042.694c-5.586 0-9.905 1.737-12.957 5.21-3.004 3.475-4.507 8.03-4.507 13.663 0 6.103 1.573 10.61 4.718 13.52 3.146 2.91 7.724 4.366 13.733 4.366 2.15 0 4.45-.24 6.9-.71 2.48-.42 4.69-1.01 6.62-1.76l-1.13-9.58c-1.74.75-3.48 1.31-5.21 1.69-1.69.33-3.41.49-5.14.49-2.44 0-4.3-.4-5.57-1.2-1.22-.846-1.88-1.927-1.97-3.24h19.852c.282-1.926.424-3.757.424-5.494 0-5.165-1.314-9.273-3.943-12.325-2.63-3.097-6.574-4.645-11.833-4.645zm-73.658.07c-5.54 0-10.117 1.76-13.732 5.28C2.807 16.553 1 21.248 1 27.116c0 6.103 1.5 10.516 4.506 13.24 3.05 2.72 7.35 4.084 12.89 4.084 5.397 0 9.926-1.76 13.588-5.282 3.662-3.52 5.495-8.145 5.495-13.873 0-5.633-1.48-9.954-4.44-12.96-2.91-3.05-7.21-4.575-12.89-4.575zm42.92 0c-2.488 0-4.694.516-6.62 1.55-1.877.985-3.425 2.3-4.645 3.942.14-.75.23-1.573.28-2.465.04-.94.07-1.665.07-2.18H40.32v34.997h12.82v-17.04c0-1.973.564-3.782 1.69-5.425 1.128-1.69 2.395-2.54 3.804-2.54 1.312 0 1.97.96 1.97 2.89v22.11H73.42V18.8c0-3.334-.82-6.01-2.464-8.03-1.594-2.01-4.226-3.02-7.886-3.02zm131.682 1.123l-9.682.154v34.577c1.195.034 2.424.067 3.688.1 1.297.035 2.767.052 4.406.052 5.874 0 10.585-1.503 14.137-4.508 3.55-3.04 5.328-7.444 5.328-13.215 0-5.77-1.538-10.074-4.612-12.908-3.03-2.834-7.46-4.252-13.26-4.252zm-42.51.154v34.575h3.28V27.006h19.77v16.596h3.28V9.027h-3.28V24.29h-19.77V9.028h-3.28zm42.1 2.51c9.903 0 14.855 4.9 14.855 14.7 0 4.953-1.4 8.658-4.2 11.117-2.76 2.458-6.55 3.687-11.37 3.687-1.71 0-3.47-.11-5.27-.35v-29l5.998-.15zM93.53 16.975c2.396 0 3.593 1.62 3.593 4.86h-7.887c0-1.456.4-2.63 1.198-3.522.798-.892 1.83-1.338 3.097-1.338zm-74.15 1.76c1.736 0 2.957.587 3.66 1.76.752 1.175 1.128 3.028 1.128 5.564 0 2.25-.446 4.03-1.338 5.35-.845 1.26-2.09 1.9-3.732 1.9-1.737 0-2.982-.57-3.733-1.69-.704-1.18-1.056-3.15-1.056-5.92 0-2.3.49-4.04 1.48-5.21.98-1.18 2.18-1.768 3.59-1.768z" font-weight="500" font-size="70.421" font-family="TheSansBlack-Plain" letter-spacing="-2.11" word-spacing="0" fill="#d6004f"/>
</svg>
