<?xml version="1.0" encoding="UTF-8" standalone="no"?>
<!-- Created with Inkscape (http://www.inkscape.org/) -->
<svg
   xmlns:svg="http://www.w3.org/2000/svg"
   xmlns="http://www.w3.org/2000/svg"
   version="1.0"
   width="744.09448"
   height="218.26772"
   id="svg2016">
  <defs
     id="defs2018" />
  <g
     transform="translate(-4894.9,5637.395)"
     id="layer1">
    <g
       transform="matrix(3.219536,0,0,3.219536,-10846.69,12124.56)"
       id="g7869">
      <path
         d="M 5003.8714,-5489.8702 L 5110.0818,-5489.8702 C 5112.8162,-5489.8702 5115.014,-5487.6724 5115.014,-5484.9635 L 5115.014,-5459.5865 C 5115.014,-5456.852 5112.8162,-5454.6542 5110.0818,-5454.6542 L 5003.8714,-5454.6542 L 4998.198,-5454.6542 L 4949.4374,-5454.6542 L 4899.8078,-5454.6542 C 4897.0989,-5454.6542 4894.9011,-5456.852 4894.9011,-5459.5865 L 4894.9011,-5506.4816 C 4894.9011,-5509.1905 4897.0989,-5511.4138 4899.8078,-5511.4138 L 4952.2485,-5511.4138 L 4998.9392,-5511.4138 C 5001.6481,-5511.4138 5003.8714,-5509.1905 5003.8714,-5506.4816 L 5003.8714,-5489.8702 z "
         style="fill:white;fill-rule:nonzero;stroke:none"
         id="path6920" />
      <path
         d="M 4949.4118,-5508.5771 L 4899.8078,-5508.5771 C 4898.6578,-5508.5771 4897.7378,-5507.6316 4897.7378,-5506.4816 L 4897.7378,-5459.5865 C 4897.7378,-5458.4365 4898.6578,-5457.4909 4899.8078,-5457.4909 L 4949.4374,-5457.4909 C 4949.4118,-5463.6243 4949.4118,-5480.6701 4949.4118,-5508.5771"
         style="fill:#003e80;fill-rule:nonzero;stroke:none"
         id="path6922" />
      <path
         d="M 4903.8457,-5483.0212 C 4903.8457,-5493.9336 4912.688,-5502.7504 4923.5748,-5502.7504 C 4934.4616,-5502.7504 4943.304,-5493.9336 4943.304,-5483.0212 C 4943.304,-5472.1344 4934.4616,-5463.2921 4923.5748,-5463.2921 C 4912.688,-5463.2921 4903.8457,-5472.1344 4903.8457,-5483.0212"
         style="fill:white;fill-rule:nonzero;stroke:none"
         id="path6924" />
      <path
         d="M 4912.918,-5494.3681 L 4912.918,-5471.7 L 4928.4815,-5471.7 C 4930.4749,-5471.7 4932.4172,-5471.7255 4934.1294,-5473.0544 C 4936.3272,-5474.7156 4936.4039,-5477.3478 4936.4039,-5478.2167 C 4936.4039,-5479.2645 4936.2505,-5481.9479 4933.4138,-5483.3535 C 4932.9027,-5483.609 4932.5194,-5483.7368 4931.4971,-5483.9924 C 4932.0083,-5484.1457 4932.2894,-5484.2735 4932.5194,-5484.3757 C 4935.0494,-5485.5768 4935.2539,-5487.8257 4935.2539,-5488.7969 C 4935.2539,-5491.6591 4933.7461,-5492.9114 4932.6727,-5493.4992 C 4931.1394,-5494.2914 4929.2993,-5494.3169 4927.6126,-5494.3681 L 4912.918,-5494.3681 z M 4918.5148,-5490.4324 L 4927.1015,-5490.4324 C 4927.4593,-5490.4324 4929.0438,-5490.5602 4929.606,-5489.1291 C 4929.7849,-5488.6435 4929.7849,-5488.1835 4929.7849,-5488.0046 C 4929.7849,-5487.7746 4929.7849,-5487.1357 4929.4271,-5486.5735 C 4928.8393,-5485.4746 4927.7404,-5485.4746 4926.6415,-5485.4746 L 4918.5148,-5485.4746 L 4918.5148,-5490.4324 z M 4918.5148,-5481.4879 L 4927.7404,-5481.5134 C 4928.6349,-5481.4879 4929.4271,-5481.4623 4930.066,-5480.7468 C 4930.6794,-5480.0568 4930.756,-5479.009 4930.756,-5478.7534 C 4930.756,-5476.9134 4929.7849,-5476.1723 4929.0182,-5475.9167 C 4928.3793,-5475.6867 4927.7149,-5475.6867 4927.0504,-5475.6867 L 4918.5148,-5475.6867 L 4918.5148,-5481.4879 z "
         style="fill:#003e80;fill-rule:nonzero;stroke:none"
         id="path6926" />
      <path
         d="M 5001.0347,-5506.4816 C 5001.0347,-5507.6316 5000.0892,-5508.5771 4998.9392,-5508.5771 L 4949.4374,-5508.5771 C 4949.4374,-5481.7434 4949.4374,-5464.7232 4949.4374,-5457.4909 L 5001.0347,-5457.4909 L 5001.0347,-5506.4816 z "
         style="fill:#e10079;fill-rule:nonzero;stroke:none"
         id="path6928" />
      <path
         d="M 4977.2933,-5487.9024 C 4983.4523,-5487.9024 4987.6434,-5485.7813 4989.2024,-5483.4301 C 4990.2246,-5481.9223 4990.7357,-5480.4912 4990.7357,-5478.0378 C 4990.7357,-5476.9389 4990.6846,-5475.2011 4989.9179,-5473.2333 C 4989.0746,-5471.0611 4987.2346,-5468.3777 4982.4812,-5466.6399 C 4980.6667,-5465.9755 4978.8011,-5465.2343 4973.8177,-5465.2343 C 4973.0255,-5465.2343 4965.6398,-5465.1066 4961.2442,-5468.1221 C 4960.8098,-5468.4544 4960.0175,-5469.0166 4959.2253,-5470.0644 C 4958.1775,-5471.5211 4957.9731,-5473.31 4957.9219,-5474.7667 L 4967.9654,-5474.7922 C 4968.0676,-5474.3578 4968.1443,-5474 4968.451,-5473.5911 C 4969.2432,-5472.4922 4970.7766,-5471.8022 4973.6644,-5471.8022 C 4974.2522,-5471.8022 4975.1722,-5471.8022 4976.7055,-5472.4155 C 4979.0822,-5473.3867 4979.8745,-5475.84 4980.0022,-5476.8878 C 4980.1045,-5477.7056 4980.2322,-5478.8301 4979.3633,-5480.0823 C 4978.29,-5481.6668 4975.7344,-5482.2034 4974.0222,-5482.2034 C 4972.8721,-5482.2034 4970.7254,-5482.0246 4969.6265,-5481.4623 C 4969.0899,-5481.2068 4968.7065,-5480.7979 4968.2976,-5480.3634 L 4958.7142,-5480.3379 L 4963.5954,-5498.8403 L 4992.5502,-5498.8403 L 4990.5057,-5491.9658 L 4971.1855,-5491.9658 L 4969.6265,-5486.4457 C 4971.4666,-5487.0846 4973.2299,-5487.9024 4977.2933,-5487.9024"
         style="fill:white;fill-rule:nonzero;stroke:none"
         id="path6930" />
      <path
         d="M 5110.0818,-5487.0335 L 5001.0347,-5487.0335 C 5001.0347,-5471.47 5001.0347,-5461.6309 5001.0347,-5457.4909 L 5110.0818,-5457.4909 C 5111.2318,-5457.4909 5112.1773,-5458.4365 5112.1773,-5459.5865 L 5112.1773,-5484.9635 C 5112.1773,-5486.1135 5111.2318,-5487.0335 5110.0818,-5487.0335"
         style="fill:#003e80;fill-rule:nonzero;stroke:none"
         id="path6932" />
      <path
         d="M 5023.0384,-5473.54 C 5023.6262,-5476.3 5021.0961,-5476.8623 5017.5439,-5476.8623 C 5014.5538,-5476.8623 5011.7171,-5476.4534 5010.7204,-5473.54 L 5014.5538,-5473.54 C 5014.9116,-5474.3833 5015.6783,-5474.7667 5017.0838,-5474.7667 C 5018.745,-5474.7667 5019.4094,-5474.4089 5019.2817,-5473.7445 C 5019.1539,-5473.2333 5018.9494,-5473.0033 5017.9527,-5472.9267 L 5014.0938,-5472.6967 C 5011.3082,-5472.5178 5009.6726,-5471.7255 5009.1871,-5469.5022 C 5008.7526,-5467.4577 5010.1838,-5466.461 5013.3016,-5466.461 C 5015.2438,-5466.461 5016.8538,-5466.7166 5018.1828,-5467.7388 C 5018.1316,-5467.4833 5018.1316,-5467.151 5018.1828,-5466.8444 L 5022.0161,-5466.8444 C 5021.8117,-5467.4066 5021.8117,-5467.7899 5021.9906,-5468.6077 L 5023.0384,-5473.54 z M 5018.745,-5470.8055 C 5018.4639,-5469.4766 5017.0583,-5468.6588 5014.8605,-5468.6588 C 5013.8382,-5468.6588 5013.2505,-5469.0933 5013.4038,-5469.8344 C 5013.5316,-5470.4477 5013.9149,-5470.7289 5014.7071,-5470.8311 L 5017.365,-5471.1377 C 5018.0805,-5471.24 5018.5661,-5471.3166 5018.8728,-5471.4189 L 5018.745,-5470.8055 z "
         style="fill:white;fill-rule:nonzero;stroke:none"
         id="path6934" />
      <path
         d="M 5090.6082,-5466.8444 L 5103.8206,-5466.8444 L 5103.8206,-5480.0568 L 5090.6082,-5480.0568 L 5090.6082,-5466.8444 z M 5103.1561,-5467.5088 L 5091.2726,-5467.5088 L 5091.2726,-5479.3923 L 5103.1561,-5479.3923 L 5103.1561,-5467.5088 z "
         style="fill:white;fill-rule:nonzero;stroke:none"
         id="path6936" />
      <path
         d="M 5096.9971,-5468.2755 L 5092.0393,-5468.2755 L 5092.0393,-5468.9399 L 5093.266,-5468.9399 C 5094.3138,-5468.9399 5095.3616,-5469.7066 5095.3871,-5471.0355 C 5095.4127,-5472.3133 5094.3138,-5473.1056 5093.266,-5473.1056 L 5092.0393,-5473.1056 L 5092.0393,-5473.77 L 5093.266,-5473.77 C 5094.2115,-5473.77 5095.336,-5474.5367 5095.3616,-5475.84 C 5095.3616,-5476.8623 5094.4926,-5477.9612 5093.266,-5477.9612 L 5092.0393,-5477.9612 L 5092.0393,-5478.6001 L 5096.9971,-5478.6001 L 5096.9971,-5468.2755 z "
         style="fill:white;fill-rule:nonzero;stroke:none"
         id="path6938" />
      <path
         d="M 5102.3894,-5468.2755 L 5101.955,-5468.2755 L 5097.6616,-5473.2333 L 5097.6616,-5473.77 L 5098.7605,-5473.77 C 5099.9105,-5473.77 5100.8561,-5474.69 5100.8561,-5475.84 C 5100.8561,-5477.0923 5099.8083,-5477.9612 5098.7605,-5477.9612 L 5097.6616,-5477.9356 L 5097.6616,-5478.6001 L 5102.3894,-5478.6001 L 5102.3894,-5468.2755 z "
         style="fill:white;fill-rule:nonzero;stroke:none"
         id="path6940" />
      <path
         d="M 5067.0456,-5477.0156 C 5063.0078,-5477.0156 5059.9155,-5475.2011 5059.1744,-5471.7511 C 5058.4077,-5468.1221 5060.4777,-5466.461 5064.8734,-5466.461 C 5069.039,-5466.461 5071.2623,-5468.1221 5072.0801,-5469.7577 L 5068.0423,-5469.7577 C 5067.4801,-5469.1699 5066.7134,-5468.6588 5065.4867,-5468.6588 C 5063.5445,-5468.6588 5062.8289,-5469.5788 5062.9056,-5470.8311 L 5072.489,-5470.8311 L 5072.5657,-5471.1122 C 5073.4346,-5475.2011 5071.2368,-5477.0156 5067.0456,-5477.0156 M 5063.34,-5472.8244 C 5063.7745,-5473.8978 5064.7967,-5474.8178 5066.5856,-5474.8178 C 5068.4001,-5474.8178 5069.0134,-5473.8978 5068.9879,-5472.8244 L 5063.34,-5472.8244 z "
         style="fill:white;fill-rule:nonzero;stroke:none"
         id="path6942" />
      <path
         d="M 5043.2531,-5469.1699 C 5043.7131,-5469.1699 5044.0964,-5469.1699 5044.6075,-5469.1955 L 5044.0964,-5466.8188 C 5043.3042,-5466.7166 5042.282,-5466.6399 5041.1575,-5466.6399 C 5038.6786,-5466.6399 5037.7841,-5467.2533 5038.2186,-5469.3488 L 5039.2408,-5474.1022 L 5037.2474,-5474.1022 L 5037.733,-5476.3256 L 5032.8774,-5473.0033 L 5036.4808,-5466.8444 L 5031.2929,-5466.8444 L 5029.3251,-5470.55 L 5027.6129,-5469.3744 L 5027.0762,-5466.8444 L 5023.2428,-5466.8444 L 5026.0795,-5480.0312 L 5029.9129,-5480.0312 L 5028.4307,-5473.2078 L 5032.9796,-5476.6067 L 5037.7841,-5476.6067 L 5038.1675,-5476.6067 L 5039.7775,-5476.6067 L 5040.4675,-5479.699 L 5044.2753,-5479.699 L 5043.6109,-5476.6067 L 5046.1409,-5476.6067 L 5045.5787,-5474.1022 L 5043.0742,-5474.1022 L 5042.2308,-5470.1666 C 5042.0264,-5469.2722 5042.2308,-5469.1699 5043.2531,-5469.1699"
         style="fill:white;fill-rule:nonzero;stroke:none"
         id="path6944" />
      <path
         d="M 5053.3988,-5466.8444 L 5053.6543,-5468.1221 L 5053.6288,-5468.1221 C 5052.6577,-5467.151 5051.0987,-5466.461 5049.1565,-5466.461 C 5046.8309,-5466.461 5045.2464,-5467.4577 5045.8598,-5470.3966 L 5047.2142,-5476.6067 L 5051.0221,-5476.6067 L 5049.9487,-5471.5722 C 5049.5909,-5469.9111 5050.1532,-5469.3233 5051.431,-5469.3233 C 5052.7854,-5469.3233 5053.9866,-5470.0644 5054.3188,-5471.6744 L 5055.3921,-5476.6067 L 5059.2,-5476.6067 L 5057.1044,-5466.8444 L 5053.3988,-5466.8444 z "
         style="fill:white;fill-rule:nonzero;stroke:none"
         id="path6946" />
      <path
         d="M 5072.719,-5466.8444 L 5075.5813,-5480.0312 L 5079.3891,-5480.0312 L 5076.5524,-5466.8444 L 5072.719,-5466.8444 z "
         style="fill:white;fill-rule:nonzero;stroke:none"
         id="path6948" />
      <path
         d="M 5081.8936,-5466.8444 L 5078.0858,-5466.8444 L 5080.9225,-5480.0312 L 5084.7559,-5480.0312 L 5081.8936,-5466.8444 z "
         style="fill:white;fill-rule:nonzero;stroke:none"
         id="path6950" />
    </g>
  </g>
</svg>
