<?xml version="1.0" encoding="UTF-8" standalone="no"?>
<!-- Created with Inkscape (http://www.inkscape.org/) -->
<svg
   xmlns:svg="http://www.w3.org/2000/svg"
   xmlns="http://www.w3.org/2000/svg"
   version="1.0"
   width="602.36218"
   height="249.80315"
   id="svg4497">
  <defs
     id="defs4499" />
  <g
     transform="translate(-500.74796,-1.0084457)"
     id="layer1">
    <g
       transform="matrix(9.2392044,0,0,9.2392044,-4108.0482,-1756.9544)"
       id="g4567">
      <path
         d="M 559.94045,201.45638 L 529.68545,201.45638 L 531.4142,192.64888 L 531.50295,192.18888 L 531.03545,192.18888 L 505.61795,192.18888 L 505.3017,192.18888 L 505.2392,192.50138 L 500.83795,214.93388 L 500.74795,215.39263 L 501.21545,215.39263 L 526.63295,215.39263 L 526.95045,215.39263 L 527.01045,215.08263 L 527.32295,213.49138 L 559.94045,213.49138 C 561.13545,213.49138 562.1092,212.57013 562.1092,211.43763 L 562.1092,203.50763 C 562.1092,202.37638 561.13545,201.45638 559.94045,201.45638"
         id="path687"
         style="fill:#ffffff;fill-opacity:1;fill-rule:nonzero;stroke:none" />
      <path
         d="M 529.53125,202.21875 L 527.46875,212.71875 L 548.125,212.71875 L 548.125,202.21875 L 529.53125,202.21875 z M 548.875,202.21875 L 548.875,212.71875 L 559.9375,212.71875 C 560.70377,212.71875 561.34375,212.14 561.34375,211.4375 L 561.34375,203.5 C 561.34372,202.79874 560.70375,202.21875 559.9375,202.21875 L 548.875,202.21875 z"
         id="path691"
         style="fill:#003c7f;fill-opacity:1;fill-rule:nonzero;stroke:none" />
      <path
         d="M 505.93557,192.96025 L 501.68432,214.62275 L 526.31682,214.62275 L 530.56682,192.96025 L 505.93557,192.96025 z"
         id="path699"
         style="fill:#e30061;fill-opacity:1;fill-rule:nonzero;stroke:none" />
      <path
         d="M 507.90625,197.1875 L 505.21875,210.375 L 510.0625,210.375 C 512.35875,210.375 515.34877,209.58125 515.90625,206.96875 C 516.31625,205.03 515.30748,203.87875 513.71875,203.53125 L 513.71875,203.5 C 515.12875,203.06 516.39498,202.045 516.65625,200.59375 C 517.1175,198.04625 515.28626,197.18499 512.625,197.1875 L 507.90625,197.1875 z M 519.34375,197.1875 L 517.59375,204.71875 L 520.21875,204.78125 C 520.605,203.9975 521.28375,203.59376 522.125,203.59375 C 523.3125,203.59375 523.53377,205.05 523.3125,206.09375 C 523.07375,207.2075 522.29376,208.59375 520.90625,208.59375 C 520.0275,208.59375 519.56501,207.98376 519.625,207.21875 L 516.90625,207.21875 C 516.5,209.65 518.28877,210.53126 520.5,210.53125 C 523.11375,210.53125 525.45876,208.9775 526,206.3125 C 526.6,203.34625 525.29752,201.71874 523.03125,201.71875 C 522.15625,201.71875 521.41128,201.87751 520.625,202.40625 L 521.375,199.5625 L 526.71875,199.5625 L 527.21875,197.1875 L 519.34375,197.1875 z M 510.25,199.375 L 512.25,199.375 C 513.435,199.375 513.97372,199.88 513.75,200.9375 C 513.525,201.99875 512.78124,202.46876 511.59375,202.46875 L 509.59375,202.46875 L 510.25,199.375 z M 552.875,203.75 C 551.9425,203.75 550.90625,203.78125 550.90625,203.78125 L 550.90625,210.96875 L 552.5625,210.96875 C 554.65501,210.96874 555.75,210.2075 555.75,208.75 C 555.75,207.88 555.2,207.29375 554.34375,207.09375 C 554.90372,206.76375 555.28125,206.28875 555.28125,205.5625 C 555.28127,204.7875 554.80125,203.75 552.875,203.75 z M 555.15625,203.78125 L 555.15625,203.84375 C 555.39874,204.03 555.65375,204.32875 555.78125,204.6875 C 555.91249,204.6825 556.1175,204.67625 556.3125,204.6875 C 556.86374,204.715 557.09625,204.83625 557.34375,205.03125 C 557.59499,205.2275 557.72125,205.5375 557.71875,205.84375 C 557.71751,206.25876 557.53875,206.69125 556.9375,206.9375 C 556.45003,207.13749 555.84375,207.1875 555.84375,207.1875 L 555.84375,207.34375 C 555.84373,207.34376 556.21,207.5025 556.5625,207.96875 C 556.86499,208.37125 558.625,210.96875 558.625,210.96875 L 560.0625,210.96875 C 560.0625,210.96875 557.735,207.69625 557.5625,207.46875 C 558.38128,207.18501 558.96875,206.53125 558.96875,205.5625 C 558.96878,205.32126 558.81875,204.725 558.375,204.34375 C 558.08125,204.09375 557.655,203.81375 556.28125,203.78125 C 555.9975,203.7725 555.15625,203.78125 555.15625,203.78125 z M 536.59375,203.8125 L 535.3125,210 L 536.375,210 L 537.65625,203.8125 L 536.59375,203.8125 z M 509.1875,204.65625 L 511.125,204.65625 C 512.09,204.65625 513.22874,205.02625 513,206.4375 C 512.7725,207.8575 511.61,208.18749 510.59375,208.1875 L 508.46875,208.1875 L 509.1875,204.65625 z M 552.09375,204.6875 C 552.10249,204.6875 552.4375,204.6875 552.65625,204.6875 C 553.5675,204.6875 554.08,205.13625 554.09375,205.78125 C 554.10251,206.175 553.99375,206.56625 553.59375,206.84375 C 553.26751,207.07125 552.8125,207.125 552.8125,207.125 L 552.8125,207.3125 C 552.81251,207.3125 553.43125,207.41375 553.75,207.5625 C 554.34622,207.84124 554.52625,208.2525 554.53125,208.8125 C 554.53497,209.69375 553.7,209.96875 552.90625,209.96875 L 552.09375,209.96875 L 552.09375,204.6875 z M 533.75,205.71875 C 533.12865,205.84375 532.62515,206.39875 532.25,207.125 L 532.21875,207.125 C 532.44,206.47375 532.55126,206.14251 532.625,205.8125 L 531.59375,205.8125 C 531.5,206.345 531.34623,207.085 531.1875,207.8125 L 530.4375,211.40625 L 531.5,211.40625 L 531.78125,210.0625 C 531.9575,210.0875 532.09753,210.09375 532.25,210.09375 C 534.0975,210.09375 534.97127,208.62625 535,207.03125 C 535.015,206.1325 534.67749,205.71876 534.03125,205.71875 C 533.93797,205.71875 533.83876,205.70089 533.75,205.71875 z M 544.46875,205.71875 C 543.25625,205.71875 542.63872,206.29001 542.625,207.0625 C 542.6075,208.05375 543.69748,208.18249 543.6875,208.75 C 543.68125,209.055 543.40122,209.25 542.96875,209.25 C 542.75625,209.25 542.53749,209.1925 542.34375,209.125 L 542.125,210.03125 C 542.33625,210.065 542.59499,210.09376 542.875,210.09375 C 544.1875,210.09375 544.79998,209.36125 544.8125,208.65625 C 544.82875,207.72375 543.74251,207.48499 543.75,206.96875 C 543.75375,206.69875 543.96373,206.53125 544.40625,206.53125 C 544.59125,206.53125 544.78376,206.5325 544.96875,206.59375 L 545.1875,205.78125 C 544.975,205.7375 544.74001,205.71875 544.46875,205.71875 z M 538.40625,205.8125 L 537.8125,208.71875 C 537.645,209.54 537.87626,210.09376 538.6875,210.09375 C 539.49125,210.09375 540.075,209.44249 540.46875,208.6875 L 540.5,208.71875 C 540.26,209.38 540.14,209.74501 540.09375,210 L 541.125,210 C 541.2175,209.4925 541.41001,208.575 541.53125,208 L 542,205.8125 L 540.9375,205.8125 L 540.71875,206.875 C 540.51625,207.85875 539.72376,209.15625 539.15625,209.15625 C 538.88625,209.15625 538.80372,208.95375 538.90625,208.4375 L 539.46875,205.8125 L 538.40625,205.8125 z M 533.59375,206.625 C 533.8,206.625 533.91374,206.8025 533.90625,207.21875 C 533.89,208.09875 533.40376,209.25 532.4375,209.25 C 532.285,209.25 532.10251,209.2 531.96875,209.15625 L 532.03125,208.90625 C 532.21625,208.0325 532.99249,206.62499 533.59375,206.625 z"
         id="path703"
         style="fill:#ffffff;fill-opacity:1;fill-rule:nonzero;stroke:none" />
    </g>
  </g>
</svg>
