<?xml version="1.0" encoding="UTF-8" standalone="no"?>
<!-- Created with Inkscape (http://www.inkscape.org/) -->
<svg
   xmlns:svg="http://www.w3.org/2000/svg"
   xmlns="http://www.w3.org/2000/svg"
   version="1.0"
   width="744.09448"
   height="425.19684"
   id="svg2016">
  <defs
     id="defs2018" />
  <g
     transform="translate(-4633.529,5311.088)"
     id="layer1">
    <g
       transform="matrix(4.0197,0,0,4.0197,-13974.13,14878.4)"
       id="g7834">
      <path
         d="M 4711.5723,-4950.3139 L 4637.9202,-4950.3139 C 4635.4924,-4950.3139 4633.5246,-4952.2817 4633.5246,-4954.6839 L 4633.5246,-4982.5399 C 4633.5246,-4984.9421 4635.4924,-4986.9099 4637.9202,-4986.9099 L 4681.5952,-4986.9099 C 4694.1943,-5002.2435 4716.3002,-5014.0758 4741.0638,-5017.3726 C 4778.2221,-5022.2793 4810.5503,-5005.9235 4809.8092,-4977.8631 C 4809.6047,-4970.4008 4806.9725,-4963.1174 4802.6024,-4956.3962 L 4805.0558,-4956.4217 C 4807.4836,-4956.4217 4809.4514,-4954.4539 4809.4514,-4952.0261 L 4809.4514,-4925.6524 C 4809.4514,-4923.2246 4807.4836,-4921.2568 4805.0558,-4921.2568 L 4715.9679,-4921.2568 C 4713.5401,-4921.2568 4711.5723,-4923.2246 4711.5723,-4925.6524 L 4711.5723,-4950.3139 z "
         style="fill:white;fill-rule:nonzero;stroke:none"
         id="path7092" />
      <path
         d="M 4779.4488,-4968.7397 C 4777.8899,-4967.0019 4775.5898,-4963.7307 4769.2775,-4963.7307 L 4744.7439,-4963.7307 C 4744.7439,-4963.7307 4765.8275,-4979.0387 4773.9031,-4985.0955 C 4781.4166,-4990.7433 4785.3777,-4997.4134 4782.6944,-5004.7224 C 4781.5188,-5008.0447 4779.0654,-5010.6258 4775.8965,-5012.4658 C 4794.8845,-5007.048 4807.3303,-4994.3723 4806.8702,-4977.9398 C 4806.6402,-4969.4553 4803.0113,-4961.0474 4796.8523,-4953.4828 L 4782.2088,-4953.4573 C 4782.2088,-4953.4573 4783.5122,-4968.7397 4783.5122,-4968.7397 L 4779.4488,-4968.7397 z M 4683.0008,-4983.9966 C 4694.8588,-4999.1512 4716.7091,-5011.188 4741.4472,-5014.4592 C 4746.175,-5015.0981 4750.7495,-5015.3792 4755.1707,-5015.3281 C 4751.6695,-5014.6892 4748.2706,-5013.5136 4745.2805,-5011.878 C 4740.706,-5009.348 4734.5215,-5005.7446 4734.5215,-5005.7446 L 4737.1027,-5001.4512 C 4737.1027,-5001.4512 4743.7216,-5005.438 4746.7883,-5006.7924 C 4752.2829,-5009.2202 4759.4385,-5008.1213 4763.4508,-5003.1379 C 4767.8464,-4997.5412 4765.4186,-4991.2033 4759.2085,-4986.5266 L 4755.8096,-4983.9966 L 4683.0008,-4983.9966 z "
         style="fill:#eb6909;fill-rule:nonzero;stroke:none"
         id="path7094" />
      <path
         d="M 4805.0558,-4953.4828 L 4782.2088,-4953.4573 L 4722.5102,-4953.4573 L 4722.4847,-4961.1751 L 4755.8096,-4983.9966 L 4637.9202,-4983.9966 C 4637.1024,-4983.9966 4636.438,-4983.3321 4636.438,-4982.5399 L 4636.438,-4954.6839 C 4636.438,-4953.8917 4637.1024,-4953.2273 4637.9202,-4953.2273 L 4714.5112,-4953.2273 L 4714.5112,-4925.6524 C 4714.5112,-4924.8347 4715.1757,-4924.1702 4715.9679,-4924.1702 L 4805.0558,-4924.1702 C 4805.8736,-4924.1702 4806.5125,-4924.8347 4806.5125,-4925.6524 L 4806.5125,-4952.0261 C 4806.5125,-4952.8184 4805.8736,-4953.4828 4805.0558,-4953.4828"
         style="fill:#003e80;fill-rule:nonzero;stroke:none"
         id="path7096" />
      <path
         d="M 4729.1037,-4937.9704 C 4729.9981,-4938.4048 4730.9692,-4939.4015 4730.9692,-4941.906 C 4730.9692,-4945.2027 4729.4359,-4946.4805 4726.4458,-4946.4805 L 4722.7147,-4946.4805 L 4722.7147,-4930.9425 L 4725.3725,-4930.9425 L 4725.3725,-4937.3059 C 4725.8581,-4937.3059 4726.4203,-4937.3315 4726.7525,-4937.3826 L 4728.6437,-4930.9425 L 4731.3526,-4930.9425 L 4729.1037,-4937.9704 z M 4726.3181,-4939.5037 L 4725.3725,-4939.5037 L 4725.3725,-4944.2827 L 4726.3181,-4944.2827 C 4727.7748,-4944.2827 4728.3114,-4943.746 4728.3114,-4941.906 C 4728.3114,-4940.0404 4727.7748,-4939.5037 4726.3181,-4939.5037"
         style="fill:white;fill-rule:nonzero;stroke:none"
         id="path7098" />
      <path
         d="M 4740.2971,-4946.4805 L 4736.9749,-4946.4805 L 4734.1382,-4930.9425 L 4736.7193,-4930.9425 L 4737.1793,-4934.3926 L 4740.0927,-4934.3926 L 4740.5783,-4930.9425 L 4743.1594,-4930.9425 L 4740.2971,-4946.4805 z M 4737.5627,-4936.7182 L 4738.6104,-4943.3882 L 4738.6616,-4943.3882 L 4739.7094,-4936.7182 L 4737.5627,-4936.7182 z "
         style="fill:white;fill-rule:nonzero;stroke:none"
         id="path7100" />
      <path
         d="M 4699.5099,-4967.8708 C 4700.4299,-4968.3052 4701.4266,-4969.3275 4701.4266,-4971.8831 C 4701.4266,-4975.3076 4699.8422,-4976.6109 4696.7755,-4976.6109 L 4692.9421,-4976.6109 L 4692.9421,-4960.6385 L 4695.6765,-4960.6385 L 4695.6765,-4967.1808 C 4696.1621,-4967.1808 4696.7499,-4967.2063 4697.0821,-4967.2574 L 4699.0499,-4960.6385 L 4701.81,-4960.6385 L 4699.5099,-4967.8708 z M 4696.6477,-4969.4553 L 4695.6765,-4969.4553 L 4695.6765,-4974.362 L 4696.6477,-4974.362 C 4698.1299,-4974.362 4698.6921,-4973.7998 4698.6921,-4971.8831 C 4698.6921,-4969.9919 4698.1299,-4969.4553 4696.6477,-4969.4553"
         style="fill:white;fill-rule:nonzero;stroke:none"
         id="path7102" />
      <path
         d="M 4750.8517,-4946.4805 L 4746.8906,-4946.4805 L 4746.8906,-4930.9425 L 4750.8517,-4930.9425 C 4753.6118,-4930.9425 4755.0685,-4932.4503 4755.0685,-4935.6448 L 4755.0685,-4941.7782 C 4755.0685,-4944.9727 4753.6118,-4946.4805 4750.8517,-4946.4805 M 4752.4106,-4935.3126 C 4752.4106,-4933.677 4751.8995,-4933.1403 4750.4939,-4933.1403 L 4749.5739,-4933.1403 L 4749.5739,-4944.2827 L 4750.4939,-4944.2827 C 4751.8995,-4944.2827 4752.4106,-4943.746 4752.4106,-4942.1104 L 4752.4106,-4935.3126 z "
         style="fill:white;fill-rule:nonzero;stroke:none"
         id="path7104" />
      <path
         d="M 4651.2093,-4969.0719 C 4652.5126,-4969.583 4653.1004,-4971.0397 4653.1004,-4972.3942 C 4653.1004,-4975.1031 4651.7971,-4976.6109 4648.8581,-4976.6109 L 4644.7948,-4976.6109 L 4644.7948,-4960.664 L 4649.1137,-4960.664 C 4652.2315,-4960.664 4653.4071,-4962.6574 4653.4071,-4965.2896 C 4653.4071,-4967.3341 4652.5893,-4968.4586 4651.2093,-4969.0719 M 4647.5292,-4974.362 L 4648.577,-4974.362 C 4649.7782,-4974.362 4650.3659,-4973.5953 4650.3659,-4972.1131 C 4650.3659,-4970.7842 4649.5737,-4970.0686 4648.5259,-4970.0686 L 4647.5292,-4970.0686 L 4647.5292,-4974.362 z M 4648.6793,-4962.9129 L 4647.5292,-4962.9129 L 4647.5292,-4967.8197 L 4648.4237,-4967.8197 C 4650.0593,-4967.8197 4650.6726,-4967.0019 4650.6726,-4965.3663 C 4650.6726,-4963.7563 4650.1359,-4962.9129 4648.6793,-4962.9129"
         style="fill:white;fill-rule:nonzero;stroke:none"
         id="path7106" />
      <path
         d="M 4663.3228,-4976.6109 L 4659.9238,-4976.6109 L 4656.9849,-4960.6385 L 4659.6427,-4960.6385 L 4660.1283,-4964.1907 L 4663.1183,-4964.1907 L 4663.6039,-4960.6385 L 4666.2617,-4960.6385 L 4663.3228,-4976.6109 z M 4660.5116,-4966.5674 L 4661.6105,-4973.4164 L 4661.6361,-4973.4164 L 4662.735,-4966.5674 L 4660.5116,-4966.5674 z "
         style="fill:white;fill-rule:nonzero;stroke:none"
         id="path7108" />
      <path
         d="M 4782.9499,-4930.7892 L 4798.999,-4930.7892 L 4798.999,-4946.8638 L 4782.9499,-4946.8638 L 4782.9499,-4930.7892 z M 4798.1812,-4931.607 L 4783.7422,-4931.607 L 4783.7422,-4946.046 L 4798.1812,-4946.046 L 4798.1812,-4931.607 z "
         style="fill:white;fill-rule:nonzero;stroke:none"
         id="path7110" />
      <path
         d="M 4790.6934,-4932.527 L 4784.6877,-4932.527 L 4784.6877,-4933.3448 L 4786.1444,-4933.3448 C 4787.4478,-4933.3448 4788.7,-4934.2648 4788.7511,-4935.9004 C 4788.7767,-4937.4337 4787.4478,-4938.4304 4786.1444,-4938.4304 L 4784.6877,-4938.4304 L 4784.6877,-4939.2226 L 4786.1444,-4939.2226 C 4787.32,-4939.2226 4788.6745,-4940.1682 4788.7,-4941.7527 C 4788.7,-4942.9793 4787.6778,-4944.3083 4786.1444,-4944.3083 L 4784.6877,-4944.3083 L 4784.6877,-4945.1005 L 4790.6934,-4945.1005 L 4790.6934,-4932.527 z "
         style="fill:white;fill-rule:nonzero;stroke:none"
         id="path7112" />
      <path
         d="M 4797.2612,-4932.527 L 4796.7246,-4932.527 L 4791.4856,-4938.5582 L 4791.4856,-4939.2226 L 4792.8401,-4939.2226 C 4794.2201,-4939.2226 4795.3957,-4940.3471 4795.3957,-4941.7527 C 4795.3957,-4943.2605 4794.1179,-4944.3338 4792.8401,-4944.3083 L 4791.4856,-4944.2827 L 4791.4856,-4945.1005 L 4797.2612,-4945.1005 L 4797.2612,-4932.527 z "
         style="fill:white;fill-rule:nonzero;stroke:none"
         id="path7114" />
      <path
         d="M 4771.0409,-4946.6849 C 4768.2553,-4946.6849 4766.9775,-4944.896 4766.9775,-4942.7238 L 4766.9775,-4934.7248 C 4766.9775,-4932.527 4768.2553,-4930.7381 4771.0409,-4930.7381 C 4773.852,-4930.7381 4775.1298,-4932.527 4775.1298,-4934.7248 L 4775.1298,-4942.7238 C 4775.1298,-4944.896 4773.852,-4946.6849 4771.0409,-4946.6849 M 4772.472,-4934.7759 C 4772.472,-4933.6259 4772.1398,-4933.0637 4771.0409,-4933.0637 C 4769.9675,-4933.0637 4769.6353,-4933.6259 4769.6353,-4934.7759 L 4769.6353,-4942.6471 C 4769.6353,-4943.7971 4769.9675,-4944.3594 4771.0409,-4944.3594 C 4772.1398,-4944.3594 4772.472,-4943.7971 4772.472,-4942.6471 L 4772.472,-4934.7759 z "
         style="fill:white;fill-rule:nonzero;stroke:none"
         id="path7116" />
      <path
         d="M 4673.8007,-4967.283 L 4673.8007,-4960.6385 L 4671.0662,-4960.6385 L 4671.0662,-4967.283 L 4667.744,-4976.6109 L 4670.5295,-4976.6109 L 4672.4718,-4970.5286 L 4672.4973,-4970.5286 L 4674.3374,-4976.6109 L 4677.123,-4976.6109 L 4673.8007,-4967.283 z "
         style="fill:white;fill-rule:nonzero;stroke:none"
         id="path7118" />
      <path
         d="M 4688.5465,-4960.6385 L 4680.9052,-4960.6385 L 4680.9052,-4976.6109 L 4688.2398,-4976.6109 L 4688.2398,-4974.2086 L 4683.6397,-4974.2086 L 4683.6397,-4970.0942 L 4687.1664,-4970.0942 L 4687.1664,-4967.7175 L 4683.6397,-4967.7175 L 4683.6397,-4963.0407 L 4688.5465,-4963.0407 L 4688.5465,-4960.6385 z "
         style="fill:white;fill-rule:nonzero;stroke:none"
         id="path7120" />
      <path
         d="M 4714.639,-4960.6385 L 4712.2368,-4960.6385 L 4708.7612,-4970.6053 L 4708.7101,-4970.6053 L 4708.7101,-4960.6385 L 4706.2311,-4960.6385 L 4706.2311,-4976.6109 L 4708.7612,-4976.6109 L 4712.109,-4967.4874 L 4712.1601,-4967.4874 L 4712.1601,-4976.6109 L 4714.639,-4976.6109 L 4714.639,-4960.6385 z "
         style="fill:white;fill-rule:nonzero;stroke:none"
         id="path7122" />
      <path
         d="M 4762.3774,-4930.9425 L 4759.7196,-4930.9425 L 4759.7196,-4946.4805 L 4762.3774,-4946.4805 L 4762.3774,-4930.9425 z "
         style="fill:white;fill-rule:nonzero;stroke:none"
         id="path7124" />
    </g>
  </g>
</svg>
