<?xml version="1.0" encoding="UTF-8" standalone="no"?>
<!-- Generator: Adobe Illustrator 14.0.0, SVG Export Plug-In . SVG Version: 6.00 Build 43363)  -->

<svg
   xmlns:dc="http://purl.org/dc/elements/1.1/"
   xmlns:cc="http://creativecommons.org/ns#"
   xmlns:rdf="http://www.w3.org/1999/02/22-rdf-syntax-ns#"
   xmlns:svg="http://www.w3.org/2000/svg"
   xmlns="http://www.w3.org/2000/svg"
   xmlns:sodipodi="http://sodipodi.sourceforge.net/DTD/sodipodi-0.dtd"
   xmlns:inkscape="http://www.inkscape.org/namespaces/inkscape"
   version="1.1"
   id="Ebene_1"
   x="0px"
   y="0px"
   width="740"
   height="146"
   viewBox="0 0 740.00001 146"
   enable-background="new 0 0 283.465 198.425"
   xml:space="preserve">

<path
   style="fill:#ed1c24;fill-rule:evenodd"
   clip-rule="evenodd"
   d="m 55.451401,79.108627 v -32.16044 c 0,-13.18516 -6.775255,-19.595066 -22.054644,-19.595066 -7.763652,0 -16.884312,2.097491 -16.884312,2.097491 V 9.262972e-4 H 4.7138e-6 V 95.745024 c 0,0 8.7487877862,3.943805 19.8397192862,3.943805 h 12.571897 c 15.031475,0 23.03978,-7.267822 23.03978,-20.580202 l 0,0 z m -16.388483,-3.20006 c 0,7.267822 -3.575194,8.993441 -10.350449,8.993441 H 16.512445 v -40.91249 c 0,0 6.161991,-1.722356 11.955371,-1.722356 6.654559,0 10.595102,2.955407 10.595102,9.486008 v 24.155397 l 0,0 z"
   id="path3"
   clip-path="none" /><path
   style="fill:#ce1337;fill-rule:evenodd"
   clip-rule="evenodd"
   d="m 121.1195,52.862263 v -4.43311 c 0,-13.925643 -6.65456,-21.07277 -22.795125,-21.07277 h -7.884347 c -15.034737,0 -22.798389,7.026431 -22.798389,22.426516 v 26.618236 c 0,17.132227 11.5835,23.408389 28.96038,23.408389 13.677731,0 24.152131,-3.20006 24.152131,-3.20006 l -2.71401,-14.046338 c 0,0 -10.47441,2.466101 -19.347154,2.466101 -8.252958,0 -14.910779,-1.109093 -14.910779,-9.861143 v -5.297551 l 16.023134,0.123958 C 114.83682,69.991229 121.1195,64.325067 121.1195,52.862263 l 0,0 z m -15.15543,-2.462839 c 0,6.406644 -3.57519,7.515737 -10.102534,7.515737 H 83.782207 v -9.241355 c 0,-6.406644 4.808245,-7.88761 11.214889,-7.88761 6.282684,0 10.966974,1.725619 10.966974,8.011567 v 1.601661 l 0,0 z"
   id="path5"
   clip-path="none" /><path
   style="fill:#ce1337;fill-rule:evenodd"
   clip-rule="evenodd"
   d="M 183.57449,77.38627 V 50.647339 c 0,-17.125703 -11.4628,-23.290956 -28.96037,-23.290956 -13.55378,0 -24.02818,3.203322 -24.02818,3.203322 l 2.71075,13.925643 c 0,0 10.47441,-2.462839 19.34715,-2.462839 8.25622,0 14.91078,1.109093 14.91078,9.857881 v 5.173593 h -16.14383 c -15.03473,0 -21.19346,5.542204 -21.19346,17.128965 v 4.553806 c 0,13.928906 6.65456,20.948813 22.79512,20.948813 h 7.88435 c 14.91078,0.0033 22.67769,-6.899212 22.67769,-22.299297 l 0,0 z m -15.89591,1.109094 c 0,6.406644 -4.9322,7.763652 -11.45954,7.763652 -6.28595,0 -10.84628,-1.604923 -10.84628,-7.884348 v -1.849576 c 0,-6.285948 3.57519,-7.395042 9.9851,-7.395042 h 12.19676 l 0.12396,9.365314 0,0 z"
   id="path7"
   clip-path="none" /><path
   style="fill:#ed1c24"
   d="m 234.19481,97.229252 -2.71075,-13.804948 c 0,0 -5.0529,1.604923 -8.99671,1.604923 -3.57193,0 -5.4215,-0.743745 -5.4215,-4.315677 V 42.883687 h 13.92238 V 28.217561 H 217.06585 V 8.7464521 h -16.6364 V 28.341519 h -8.74879 v 14.542168 h 8.74879 v 41.64971 c 0,10.846279 6.65456,15.279389 16.88431,15.279389 8.13226,-0.0033 16.88105,-2.583534 16.88105,-2.583534 l 0,0 z"
   id="path9"
   clip-path="none" /><path
   style="fill:#ed1c24;fill-rule:evenodd"
   clip-rule="evenodd"
   d="m 294.92419,52.862263 v -4.43311 c 0,-13.925643 -6.65456,-21.07277 -22.79513,-21.07277 h -7.88435 c -15.03147,0 -22.79839,7.026431 -22.79839,22.426516 v 26.618236 c 0,17.132227 11.58676,23.408389 28.95712,23.408389 13.67773,0 24.15214,-3.20006 24.15214,-3.20006 l -2.71076,-14.046338 c 0,0 -10.47441,2.466101 -19.34715,2.466101 -8.25622,0 -14.90752,-1.109093 -14.90752,-9.861143 v -5.297551 l 16.01987,0.123958 c 15.03474,-0.0033 21.31417,-5.669424 21.31417,-17.132228 l 0,0 z m -15.15217,-2.462839 c 0,6.406644 -3.57194,7.515737 -10.1058,7.515737 h -12.07607 v -9.241355 c 0,-6.406644 4.80172,-7.88761 11.21163,-7.88761 6.28595,0 10.96697,1.725619 10.96697,8.011567 v 1.601661 l 0.003,0 z"
   id="path11"
   clip-path="none" /><path
   style="fill:#ed1c24"
   d="M 404.81248,96.368074 V 28.217561 H 388.55122 V 84.77805 c 0,0 -3.95033,0.613263 -10.97024,0.613263 -6.77199,0 -11.33232,-2.831449 -11.33232,-9.486008 V 28.214299 h -16.40153 v 49.661277 c 0,15.654524 11.46281,21.809991 24.77845,21.809991 h 2.95214 c 13.92238,0.0033 27.23476,-3.317493 27.23476,-3.317493 l 0,0 z"
   id="path13"
   clip-path="none" /><path
   style="fill:#ed1c24"
   d="M 474.53856,98.95487 V 48.305195 c 0,-14.666126 -7.89413,-20.948812 -21.07603,-20.948812 -10.10254,0 -18.1141,1.725618 -18.1141,1.725618 V 9.262972e-4 h -16.5157 V 98.95487 h 16.5157 V 43.372993 c 0,0 7.27108,-1.353746 11.95211,-1.353746 6.5306,0 11.09093,1.970271 11.09093,9.733923 v 47.2017 h 16.14709 l 0,0 z"
   id="path15"
   clip-path="none" /><path
   style="fill:#ed1c24"
   d="m 536.61842,81.943338 v -7.76039 c 0,-12.079329 -6.89921,-18.117363 -22.91582,-18.117363 -9.61323,0 -11.08767,-2.462839 -11.08767,-7.395041 v -1.474442 c 0,-5.669423 3.81658,-6.165253 10.10253,-6.165253 9.24462,0 19.83972,3.330542 19.83972,3.330542 l 2.5868,-13.925644 c 0,0 -9.12066,-3.082626 -22.91909,-3.082626 -15.40334,0 -25.75705,4.19172 -25.75705,18.733888 v 5.790119 c 0,12.076067 7.02317,18.485973 22.30582,18.485973 10.84301,0 11.82489,2.952145 11.82489,7.884348 v 1.725618 c 0,5.173593 -5.1736,5.538942 -12.68607,5.538942 -7.52226,0 -19.09598,-3.451237 -19.09598,-3.451237 l -2.71727,14.421473 c 0,0 10.60162,3.20006 23.41491,3.20006 16.50592,0.0065 27.10428,-3.689366 27.10428,-17.738967 l 0,0 z"
   id="path17"
   clip-path="none" /><path
   style="fill:#ed1c24;fill-rule:evenodd"
   clip-rule="evenodd"
   d="m 600.99801,52.862263 v -4.43311 c 0,-13.925643 -6.65129,-21.07277 -22.7886,-21.07277 h -7.88761 c -15.03473,0 -22.79839,7.026431 -22.79839,22.426516 v 26.618236 c 0,17.132227 11.5835,23.408389 28.96038,23.408389 13.67447,0 24.15214,-3.20006 24.15214,-3.20006 l -2.71402,-14.046338 c 0,0 -10.4744,2.466101 -19.35041,2.466101 -8.2497,0 -14.90426,-1.109093 -14.90426,-9.861143 v -5.297551 l 16.01335,0.123958 c 15.04126,-0.0033 21.31742,-5.669424 21.31742,-17.132228 l 0,0 z m -15.15216,-2.462839 c 0,6.406644 -3.5752,7.515737 -10.10254,7.515737 h -12.07607 v -9.241355 c 0,-6.406644 4.80499,-7.88761 11.21489,-7.88761 6.28269,0 10.96045,1.725619 10.96045,8.011567 v 1.601661 l 0.003,0 z"
   id="path19"
   clip-path="none" /><path
   style="fill:#ed1c24"
   d="M 673.73169,97.229252 671.0242,83.424304 c 0,0 -5.05942,1.604923 -8.9967,1.604923 -3.57846,0 -5.42804,-0.743745 -5.42804,-4.315677 V 42.883687 h 13.92891 V 28.217561 H 656.59946 V 8.7464521 H 639.96307 V 28.341519 h -8.74879 v 14.542168 h 8.74879 v 41.64971 c 0,10.846279 6.65456,15.279389 16.88431,15.279389 8.13879,-0.0033 16.88431,-2.583534 16.88431,-2.583534 l 0,0 z"
   id="path21"
   clip-path="none" /><polygon
   style="fill:#ed1c24"
   points="250.227,110.291 243.397,88.639 249.028,88.639 253.012,103.838 256.955,88.639 262.426,88.639 255.703,110.291 "
   id="polygon23"
   clip-path="none"
   transform="matrix(3.2620387,0,0,3.2620387,-116.04376,-260.81864)" /><path
   style="fill:#ed1c24"
   d="m 673.65014,97.229252 -2.71402,-13.804948 c 0,0 -5.05289,1.604923 -8.99017,1.604923 -3.58172,0 -5.42804,-0.743745 -5.42804,-4.315677 V 42.883687 h 13.92891 V 28.217561 H 656.51791 V 8.7464521 H 639.88152 V 28.341519 h -8.74879 v 14.542168 h 8.74879 v 41.64971 c 0,10.846279 6.65782,15.279389 16.88757,15.279389 8.13226,-0.0033 16.88105,-2.583534 16.88105,-2.583534 l 0,0 z"
   id="path25"
   clip-path="none" /><rect
   style="fill:#ed1c24"
   x="309.06186"
   y="58.547997"
   width="25.378662"
   height="14.545431"
   id="rect27"
   clip-path="none" /><rect
   style="fill:#ed1c24"
   x="613.17847"
   y="84.406181"
   width="14.54217"
   height="14.54217"
   id="rect29"
   clip-path="none" /><path
   id="path33"
   d="m 79.698134,135.20591 c -3.633911,-1.26567 -6.566484,-2.28669 -6.566484,-5.96301 0,-1.76476 0.890537,-3.49364 2.596583,-4.54402 1.927865,-1.1776 4.52771,-1.29829 6.158729,-1.29829 3.744821,0 6.155467,0.89706 7.271084,3.12177 0.629574,1.23957 0.554547,2.34867 0.518665,2.96845 h -3.301184 c -0.03588,-0.5578 -0.03588,-1.23631 -0.296845,-1.92134 -0.740483,-1.82348 -2.707492,-2.31604 -4.377656,-2.31604 -2.965193,0 -5.082256,1.36027 -5.082256,3.523 0,2.28669 2.113801,3.00107 5.007229,3.98947 l 1.745191,0.55455 c 3.115247,1.05037 6.863329,2.28669 6.863329,6.30878 0,1.23631 -0.371872,2.22471 -0.815509,3.00108 -2.113802,3.3338 -7.010122,3.3338 -8.347557,3.3338 -4.341774,0 -6.194612,-1.26567 -6.752421,-1.72888 -2.077918,-1.57557 -2.113801,-3.86552 -2.113801,-5.07247 h 3.562147 c 0.03914,0.9623 0.03914,2.50851 1.295029,3.65022 0.7046,0.61653 2.042036,1.29829 4.227602,1.29829 3.858992,0 5.34322,-1.97353 5.34322,-4.05145 0,-2.56722 -2.227973,-3.30771 -5.010492,-4.23413 l -1.924603,-0.61978 z"
   clip-path="none" /><path
   id="path35"
   d="m 115.4566,138.85613 c -0.15005,0.89706 -0.33273,2.25407 -1.26241,3.55562 -2.1138,3.05979 -6.38054,3.58824 -9.12392,3.58824 -9.384884,0 -10.128629,-6.24354 -10.128629,-10.57553 0,-2.93583 0.371872,-6.89268 2.710754,-9.30333 2.743375,-2.78578 6.974235,-2.78578 8.158355,-2.78578 6.08371,0 9.42403,2.38129 9.42403,7.17322 h -3.523 c 0.0359,-4.32546 -3.45123,-5.32038 -6.04782,-5.32038 -5.936908,0 -6.974236,4.85391 -6.974236,10.45157 0,2.93257 0.296845,8.49761 6.641506,8.49761 1.74193,0 3.37621,-0.46647 4.44943,-1.23631 1.70604,-1.23632 1.967,-2.9652 2.1138,-4.04819 h 3.56214 z"
   clip-path="none" /><path
   id="path37"
   d="m 139.71638,145.59876 h -3.55888 v -10.51355 h -11.90644 v 10.51355 h -3.59803 v -21.8263 h 3.59803 v 9.212 h 11.90644 v -9.212 h 3.55888 v 21.8263 z"
   clip-path="none" /><path
   id="path39"
   d="m 168.02109,145.59876 h -3.74808 l -3.48386,-8.53349 h -9.38488 l -3.9699,8.53349 h -3.30119 l 10.49725,-21.8263 h 4.2276 l 9.16306,21.8263 z m -12.68933,-24.01839 h -3.30118 v -2.8445 h 3.30118 v 2.8445 z m 4.60274,13.47222 -2.44653,-6.05434 c -0.47952,-1.1776 -0.66872,-1.67343 -1.07647,-2.87712 h -0.075 c -0.51866,1.26893 -0.62957,1.51358 -1.22326,2.87712 l -2.78252,6.05434 h 7.60381 z m 1.48423,-13.47222 h -3.2653 v -2.8445 h 3.2653 v 2.8445 z"
   clip-path="none" /><path
   id="path41"
   d="m 189.75606,140.92752 c 1.07973,3.27835 1.18738,3.6437 2.18883,4.67124 h -3.78397 c -0.33273,-0.31315 -0.62957,-0.55781 -0.9623,-1.36353 -0.18594,-0.49257 -0.37187,-1.02102 -0.77963,-2.50198 l -0.29684,-1.05364 c -0.37188,-1.26894 -0.85466,-2.75316 -2.00289,-3.61434 -1.44509,-1.05038 -3.48712,-1.05038 -4.93221,-1.02102 h -3.30118 v 9.55777 h -3.48712 V 123.7431 h 9.53168 c 1.89198,0.0326 4.34177,0.0326 6.11958,1.36027 1.03733,0.77311 2.03878,2.22797 2.03878,4.26675 0,0.87096 -0.18594,1.69952 -0.55455,2.47262 -1.11236,2.35193 -3.37621,2.9391 -4.26675,3.18702 0.66872,0.21529 1.55926,0.46647 2.37477,1.26893 0.85465,0.8677 1.29503,2.07466 1.70604,3.33706 l 0.40776,1.29177 z m -13.87019,-6.98402 h 3.26204 c 2.59658,0.0294 4.34177,-0.0294 5.49327,-0.67851 1.37006,-0.74374 1.85284,-2.04203 1.85284,-3.4023 0,-0.55455 0,-2.63247 -2.22471,-3.55563 -1.00145,-0.40123 -2.18883,-0.43385 -4.6745,-0.46647 h -3.70894 v 8.10291 z"
   clip-path="none" /><path
   id="path43"
   d="m 200.73608,145.59876 h -3.59803 v -21.85892 h 14.39538 v 2.10402 h -10.79735 v 7.91696 h 10.12537 v 2.10076 h -10.12537 v 9.73718 z"
   clip-path="none" /><path
   id="path45"
   d="m 232.67144,145.59876 h -15.50121 v -21.8263 h 14.50303 v 2.10402 h -10.905 v 7.32653 h 9.97858 v 2.0975 h -9.97858 v 8.1975 h 11.90644 v 2.10075 z"
   clip-path="none" /><path
   id="path47"
   d="m 255.37523,140.92752 c 1.07647,3.27835 1.18738,3.6437 2.18883,4.67124 h -3.78397 c -0.33599,-0.31315 -0.62957,-0.55781 -0.9623,-1.36353 -0.18594,-0.49257 -0.37187,-1.02102 -0.77963,-2.50198 l -0.29684,-1.05364 c -0.37188,-1.26894 -0.85466,-2.75316 -2.00289,-3.61434 -1.44509,-1.05038 -3.48712,-1.05038 -4.93547,-1.02102 h -3.29792 v 9.55777 h -3.48712 V 123.7431 h 9.53494 c 1.89198,0.0326 4.33851,0.0326 6.11958,1.36027 1.03733,0.77311 2.03878,2.22797 2.03878,4.26675 0,0.87096 -0.18594,1.69952 -0.55781,2.47262 -1.11236,2.35193 -3.37295,2.9391 -4.26675,3.18702 0.66872,0.21529 1.55926,0.46647 2.37477,1.26893 0.85139,0.8677 1.29829,2.07466 1.70604,3.33706 l 0.40776,1.29177 z m -13.87345,-6.98402 h 3.26204 c 2.59332,0.0294 4.34177,-0.0294 5.49001,-0.67851 1.37005,-0.74374 1.85284,-2.04203 1.85284,-3.4023 0,-0.55455 0,-2.63247 -2.22471,-3.55563 -1.00471,-0.40123 -2.18883,-0.43385 -4.67451,-0.46647 h -3.70893 v 8.10291 z"
   clip-path="none" /><path
   id="path49"
   d="m 275.59008,145.59876 h -3.59803 v -21.85892 h 14.39212 v 2.10402 h -10.79409 v 7.91696 h 10.12537 v 2.10076 h -10.12537 v 9.73718 z"
   clip-path="none" /><path
   id="path51"
   d="m 307.53197,145.59876 h -15.50774 v -21.8263 h 14.50303 v 2.10402 h -10.905 v 7.32653 h 9.97858 v 2.0975 h -9.97858 v 8.1975 h 11.90971 v 2.10075 z"
   clip-path="none" /><path
   id="path53"
   d="m 330.23249,140.92752 c 1.07648,3.27835 1.18738,3.6437 2.18557,4.67124 h -3.78397 c -0.33272,-0.31315 -0.62957,-0.55781 -0.9623,-1.36353 -0.1892,-0.49257 -0.37187,-1.02102 -0.77963,-2.50198 l -0.29684,-1.05364 c -0.37187,-1.26894 -0.85139,-2.75316 -2.00289,-3.61434 -1.44835,-1.05038 -3.48712,-1.05038 -4.9322,-1.02102 h -3.30445 v 9.55777 h -3.48712 V 123.7431 h 9.53168 c 1.89198,0.0326 4.34177,0.0326 6.11958,1.36027 1.04059,0.77311 2.03878,2.22797 2.03878,4.26675 0,0.87096 -0.18594,1.69952 -0.55455,2.47262 -1.11236,2.35193 -3.37621,2.9391 -4.26675,3.18702 0.66872,0.21529 1.556,0.46647 2.37477,1.26893 0.85139,0.8677 1.29829,2.07466 1.70604,3.33706 l 0.41428,1.29177 z m -13.87671,-6.98402 h 3.2653 c 2.59658,0.0294 4.34177,-0.0294 5.49001,-0.67851 1.37006,-0.74374 1.85284,-2.04203 1.85284,-3.4023 0,-0.55455 0,-2.63247 -2.22797,-3.55563 -1.00145,-0.40123 -2.18883,-0.43385 -4.6745,-0.46647 h -3.70894 v 8.10291 z"
   clip-path="none" /><path
   id="path55"
   d="m 357.45421,145.59876 h -3.93076 l -11.49543,-15.24677 c -0.81551,-1.14171 -1.37658,-1.88546 -2.22797,-3.12177 0.15006,1.42877 0.15006,1.98006 0.18594,3.31423 v 15.05431 h -3.11851 v -21.8263 h 4.04493 l 10.16451,13.53746 c 1.59187,2.16599 1.96701,2.72054 3.45124,5.10183 -0.0392,-2.69118 -0.075,-3.00108 -0.15006,-5.689 V 123.7692 h 3.07611 v 21.82956 z"
   clip-path="none" /><path
   id="path57"
   d="m 370.03263,135.20591 c -3.63718,-1.26567 -6.56975,-2.28669 -6.56975,-5.96301 0,-1.76476 0.89054,-3.49364 2.59985,-4.54402 1.93112,-1.1776 4.52444,-1.29829 6.15546,-1.29829 3.75135,0 6.16199,0.89706 7.27435,3.12177 0.62631,1.23957 0.55455,2.34867 0.5154,2.96845 h -3.30118 c -0.0391,-0.5578 -0.0391,-1.23631 -0.29685,-1.92134 -0.74374,-1.82348 -2.71075,-2.31604 -4.37765,-2.31604 -2.9652,0 -5.08226,1.36027 -5.08226,3.523 0,2.28669 2.1138,3.00107 5.00723,3.98947 l 1.73867,0.55455 c 3.11524,1.05037 6.86333,2.28669 6.86333,6.30878 0,1.23631 -0.36861,2.22471 -0.81225,3.00108 -2.1138,3.3338 -7.01012,3.3338 -8.35082,3.3338 -4.33851,0 -6.19135,-1.26567 -6.7459,-1.72888 -2.07792,-1.57557 -2.1138,-3.86552 -2.1138,-5.07247 h 3.56215 c 0.0359,0.9623 0.0359,2.50851 1.29503,3.65022 0.7046,0.61653 2.03877,1.29829 4.23086,1.29829 3.85899,0 5.34322,-1.97353 5.34322,-4.05145 0,-2.56722 -2.22471,-3.30771 -5.00723,-4.23413 l -1.92786,-0.61978 z"
   clip-path="none" /><path
   id="path59"
   d="m 401.86034,145.59876 h -15.50447 v -21.8263 h 14.49976 v 2.10402 H 389.9539 v 7.32653 h 9.97857 v 2.0975 h -9.97857 v 8.1975 h 11.90318 v 2.10075 z"
   clip-path="none" /><path
   id="path61"
   d="m 426.26691,145.59876 h -3.56541 v -10.51355 h -11.90644 v 10.51355 h -3.59476 v -21.8263 h 3.59476 v 9.212 h 11.90644 v -9.212 h 3.56541 v 21.8263 z"
   clip-path="none" /><path
   id="path63"
   d="M 449.0392,145.59876 H 433.538 v -21.8263 h 14.49976 v 2.10402 H 437.1295 v 7.32653 h 9.97858 v 2.0975 h -9.97858 v 8.1975 h 11.90644 v 2.10075 z"
   clip-path="none" /><path
   id="path65"
   d="m 475.00503,145.59876 h -3.92749 l -11.49869,-15.24677 c -0.81877,-1.14171 -1.37332,-1.88546 -2.23123,-3.12177 0.14679,1.42877 0.14679,1.98006 0.19246,3.31423 v 15.05431 h -3.11851 v -21.8263 h 4.04166 l 10.16125,13.53746 c 1.5984,2.16599 1.97028,2.72054 3.4545,5.10183 -0.0391,-2.69118 -0.0718,-3.00108 -0.15005,-5.689 V 123.7692 h 3.0761 v 21.82956 z"
   clip-path="none" />
</svg>