<?xml version="1.0" encoding="UTF-8" standalone="no"?>
<!-- Created with Inkscape (http://www.inkscape.org/) -->
<svg
   xmlns:svg="http://www.w3.org/2000/svg"
   xmlns="http://www.w3.org/2000/svg"
   version="1.0"
   width="602.36218"
   height="198.74409"
   id="svg1973">
  <defs
     id="defs1975" />
  <g
     id="layer1">
    <g
       transform="matrix(3.543307e-5,0,0,3.543307e-5,-3.691406e-6,-6.375343e-3)"
       style="fill-rule:evenodd"
       id="Layer_x0020_1">
  
  <g
   id="_77750408">
   <path
   d="M 500000,2804810 C 500000,1531830 1531840,500000 2804550,500000 C 4077600,500000 5109170,1531830 5109170,2804810 C 5109170,4056210 4076560,5109360 2804550,5109360 C 1532670,5109360 500000,4056080 500000,2804810 L 500000,2804810 z M 4493750,2804810 C 4493750,1871950 3737420,1115690 2804550,1115690 C 1871690,1115690 1115700,1871950 1115700,2804810 C 1115700,3604440 1698250,4318640 2496840,4465760 L 2496840,2804550 L 3112530,2804550 L 3112530,4465760 C 3911060,4318650 4493750,3604430 4493750,2804810 L 4493750,2804810 z "
   style="fill:#71bf44;fill-opacity:1"
   id="_47832688" />

   <path
   d="M 5941190,1589060 L 5941190,1651800 L 6042030,1651800 L 6085110,1589060 L 6101420,1565180 C 6108800,1573700 6116110,1581750 6123420,1589060 C 6190190,1656300 6253390,1675690 6340020,1675690 C 6438050,1675690 6514740,1645900 6569630,1589060 C 6638540,1518280 6673090,1405620 6673090,1257670 C 6673090,1209890 6666920,1161380 6653700,1115690 C 6641150,1072610 6622430,1032080 6596600,997060 L 6596400,997060 C 6543850,925950 6462520,878230 6346460,878230 C 6260040,878230 6184750,930560 6136440,997330 C 6135500,998740 6134360,1000140 6133420,1001550 L 6130070,1001550 L 6130070,997330 L 6130070,589970 L 5814770,589970 L 5814770,695720 L 5877040,695720 C 5922000,695720 5941190,713230 5941190,759660 L 5941190,997330 L 5941190,1115690 L 5941190,1589060 z M 7148410,997330 L 7148410,902380 L 6808960,902380 L 6808960,997330 L 6808960,1007990 L 6897000,1007990 C 6941750,1007990 6960940,1025510 6960940,1072140 L 6960940,1115690 L 6960940,1482110 C 6960940,1528470 6941750,1545990 6897000,1545990 L 6808960,1545990 L 6808960,1589060 L 6808760,1589060 L 6808760,1651800 L 7314820,1651800 L 7314820,1589060 L 7314820,1545990 L 7213970,1545990 C 7169210,1545990 7150020,1528470 7150020,1482110 L 7150020,1214590 C 7150020,1181710 7155530,1147630 7166130,1115690 C 7182500,1067640 7210880,1024300 7250870,997330 C 7278110,978870 7310520,967940 7348630,967940 C 7372520,967940 7398090,971020 7415870,990480 C 7401640,990680 7388420,993030 7375880,997060 L 7537310,997330 L 7375880,997330 C 7337500,1010070 7310050,1040400 7310050,1086570 C 7310050,1096970 7311460,1106700 7313880,1115690 C 7326630,1162990 7371380,1189030 7423920,1189030 C 7478600,1189030 7516250,1158500 7533960,1115690 C 7541540,1096970 7545570,1076170 7545570,1054360 C 7545570,1033560 7542750,1014370 7537310,997330 C 7512420,918280 7436000,878230 7351720,878230 C 7273620,878230 7225580,918750 7169950,997060 L 7250870,997330 L 7169950,997330 C 7164050,1005580 7157870,1014570 7151700,1024030 L 7148410,1024030 L 7148410,997330 z M 7962450,997330 C 7976140,992830 7991570,990480 8008610,990480 C 8026320,990480 8042230,992830 8056180,997330 C 8108720,1014100 8135690,1060260 8146560,1115420 L 8344710,1115690 L 8146560,1115690 C 8151330,1139310 8153210,1164870 8152740,1190430 L 7854760,1190430 C 7856150,1164960 7859430,1139500 7865760,1115690 L 7865830,1115690 C 7880520,1060260 7910380,1014100 7962450,997330 z M 8278210,997330 C 8219230,927010 8131470,878230 8011900,878230 C 7897560,878230 7802150,922310 7736600,997330 C 7707270,1030940 7683860,1070660 7667480,1115690 C 7649770,1163930 7640240,1218410 7640240,1277130 C 7640240,1417020 7678350,1522100 7752700,1589060 C 7816170,1646370 7905620,1675690 8019680,1675690 C 8133350,1675690 8217820,1645160 8275120,1589060 C 8325050,1539810 8354430,1471170 8364100,1385960 L 8231110,1385960 C 8210240,1496540 8152740,1555720 8037460,1555720 C 7888570,1555720 7849990,1421250 7854760,1296250 L 8367450,1296250 C 8372890,1238280 8365570,1175070 8344710,1115690 C 8329540,1073080 8307530,1032550 8278210,997330 z M 8859820,997330 L 8859820,902380 L 8515400,902380 L 8515400,997330 L 8515400,1007990 L 8605110,1007990 C 8650070,1007990 8669260,1025510 8669260,1072140 L 8669260,1115690 L 8669260,1482110 C 8669260,1528470 8650070,1545990 8605110,1545990 L 8515400,1545990 L 8515400,1589060 L 8970330,1589060 L 8970330,1545990 L 8922290,1545990 C 8877330,1545990 8858140,1528470 8858140,1482110 L 8858140,1193790 C 8858140,1167020 8864510,1140310 8875650,1115690 C 8904500,1052210 8966030,1003230 9037560,1003230 C 9121570,1003230 9144310,1048450 9148810,1115690 C 9149550,1125350 9149750,1135350 9149750,1145750 L 9149750,1482110 C 9149750,1528470 9130360,1545990 9085600,1545990 L 9037560,1545990 L 9037560,1589060 L 9037490,1589060 L 9037490,1651800 L 9445850,1651800 L 9445850,1589060 L 9445850,1545990 L 9402770,1545990 C 9357820,1545990 9338630,1528470 9338630,1482110 L 9338630,1193790 C 9338630,1165880 9344530,1139310 9354730,1115690 C 9383380,1049130 9446790,1003230 9516440,1003230 C 9578910,1003230 9630040,1039930 9630040,1104080 L 9630040,1115690 L 9630040,1482110 C 9630040,1528470 9610850,1545990 9566090,1545990 L 9519730,1545990 L 9519730,1589060 L 9519660,1589060 L 9519660,1651800 L 9968080,1651800 L 9968080,1589060 L 9968080,1545990 L 9883060,1545990 C 9838310,1545990 9819180,1528470 9819180,1482110 L 9819180,1115690 L 9819180,1104080 C 9819180,1063350 9811130,1027590 9796640,997330 C 9760470,920360 9683780,878230 9596420,878230 C 9489670,878230 9419820,922510 9356880,997330 C 9348090,1007730 9339370,1018860 9330580,1030470 C 9327290,1018600 9323260,1007730 9318500,997330 C 9282530,916140 9211280,878230 9117540,878230 C 9010790,878230 8946170,921570 8890550,997330 C 8881090,1010070 8872100,1023830 8863100,1038520 L 8859820,1038520 L 8859820,997330 z M 10406430,997330 C 10420180,992830 10435550,990480 10452590,990480 C 10470370,990480 10486210,992830 10500160,997330 C 10552700,1014100 10579670,1060260 10590610,1115420 L 10788680,1115690 L 10590610,1115690 C 10595310,1139310 10597190,1164870 10596720,1190430 L 10298940,1190430 C 10300140,1164960 10303670,1139500 10309800,1115690 L 10309870,1115690 C 10324500,1060260 10354560,1014100 10406430,997330 z M 10722190,997330 C 10663480,927010 10575450,878230 10455880,878230 C 10341540,878230 10246200,922310 10180640,997330 C 10151250,1030940 10127840,1070660 10111460,1115690 C 10093750,1163930 10084290,1218410 10084290,1277130 C 10084290,1417020 10122600,1522100 10196950,1589060 C 10260150,1646370 10349590,1675690 10463930,1675690 C 10577330,1675690 10661800,1645160 10719100,1589060 C 10769090,1539810 10798410,1471170 10808140,1385960 L 10675360,1385960 C 10654490,1496540 10596720,1555720 10481440,1555720 C 10332550,1555720 10294240,1421250 10298940,1296250 L 10811430,1296250 C 10816870,1238280 10809750,1175070 10788680,1115690 C 10773590,1073080 10751580,1032550 10722190,997330 z M 11281050,997330 L 11281050,902380 L 10936640,902380 L 10936640,997330 L 10936640,1007990 L 10989640,1007990 C 11072980,1007990 11092170,1025510 11092170,1094350 L 11092170,1115690 L 11092170,1482110 C 11092170,1528470 11072980,1545990 11028020,1545990 L 10936640,1545990 L 10936640,1589060 L 11407730,1589060 L 11407730,1545990 L 11345200,1545990 C 11300240,1545990 11281050,1528470 11281050,1482110 L 11281050,1187410 C 11281050,1161850 11287420,1137700 11298090,1115690 C 11330500,1049390 11402700,1003230 11460470,1003230 C 11529580,1003230 11588290,1023830 11599430,1115420 L 11694710,1115550 L 11599430,1115690 C 11600640,1125820 11601310,1136960 11601310,1148830 L 11601310,1482110 C 11601310,1528470 11582120,1545990 11514950,1545990 L 11476370,1545990 L 11476370,1589060 L 11944050,1589060 L 11944050,1545990 L 11886340,1545990 C 11809650,1545990 11790190,1528470 11790190,1482110 L 11790190,1136020 C 11790190,1129260 11790180,1122450 11789990,1115690 L 11789990,1115420 L 11789980,1115420 C 11788080,1069110 11779290,1029940 11764890,997330 C 11729600,917550 11658810,878230 11563000,878230 C 11457650,878230 11378610,923720 11317010,997330 C 11305470,1011010 11294540,1025980 11284400,1041610 L 11281050,1041610 L 11281050,997330 z M 6443680,1115690 C 6454350,1156620 6458380,1209890 6458380,1277130 C 6458380,1461240 6400870,1550950 6293650,1550950 C 6163680,1550950 6128660,1472380 6128660,1277130 C 6128660,1211440 6135940,1157580 6150110,1115690 L 6150200,1115690 C 6176230,1040130 6224540,1003230 6293650,1003230 C 6378870,1003230 6423150,1037050 6443680,1115690 z M 6664770,2180870 C 6327000,2264410 6059280,2475090 5895490,2772610 C 5779280,2983500 5715130,3238000 5715130,3522030 C 5715130,3780490 5752770,4004660 5827120,4192870 C 6010570,4658200 6417450,4902970 7029580,4902970 C 7644270,4902970 8012640,4644980 8159850,4192870 C 8189440,4102690 8210040,4004460 8222120,3899120 L 7761690,3899120 C 7740150,4012980 7707470,4111210 7661580,4192870 C 7553150,4385780 7371110,4487100 7090640,4487100 C 6829090,4487100 6665980,4367330 6570830,4192870 C 6478310,4023110 6450120,3801820 6458380,3588520 L 8233190,3588520 C 8258550,3324150 8206480,3027780 8070810,2772410 L 8070700,2772410 C 7924420,2496990 7681160,2269350 7332800,2180870 C 7231480,2155040 7121170,2141080 7001870,2141080 C 6883310,2141080 6770580,2154840 6664770,2180870 L 6664770,2180870 z M 6808960,1589060 L 7314820,1589060 L 6808960,1589060 z M 8970330,1589060 L 8515540,1589060 L 8515540,1651800 L 8970330,1651800 L 8970330,1589060 L 8515400,1589060 M 9037560,1589060 L 9445850,1589060 L 9037560,1589060 z M 9519730,1589060 L 9968080,1589060 L 9519730,1589060 z M 11407730,1589060 L 10936840,1589060 L 10936840,1651800 L 11407730,1651800 L 11407730,1589060 L 10936640,1589060 M 11944050,1589060 L 11476440,1589060 L 11476440,1651800 L 11944050,1651800 L 11944050,1589060 L 11476370,1589060 M 12822490,2180870 C 12737080,2154370 12641870,2141080 12538200,2141080 C 12430510,2141080 12330600,2154840 12238070,2180870 C 11958540,2258970 11744030,2448590 11573130,2706580 L 11562260,2706580 L 11562260,2224150 L 10369720,2224150 L 10369720,2590100 L 10552700,2590100 C 10786600,2590100 10874640,2630360 10899460,2772410 L 11759190,2772610 L 10899460,2772610 C 10905440,2805750 10907780,2844600 10907780,2889760 L 10907780,4192870 L 10907780,4231920 C 10907780,4392620 10841290,4453680 10685960,4453680 L 10369720,4453680 L 10369720,4819640 L 12000410,4819640 L 12000410,4453680 L 11784080,4453680 C 11628750,4453680 11562260,4392620 11562260,4231920 L 11562260,4192870 L 11562260,3211500 C 11562260,3040600 11644390,2886470 11759190,2772610 C 11882990,2649750 12045160,2573530 12183380,2573530 C 12364680,2573530 12525650,2614730 12609730,2772610 C 12648780,2846480 12671460,2945650 12671460,3078240 L 12671460,4192870 L 12671460,4231920 C 12671460,4392620 12604690,4453680 12371800,4453680 L 12238810,4453680 L 12238810,4819640 L 13858350,4819640 L 13858350,4453680 L 13658540,4453680 C 13392490,4453680 13326000,4392620 13326000,4231920 L 13326000,4192870 L 13326000,3033950 C 13326000,2939010 13318420,2851920 13303720,2772410 L 13303680,2772410 C 13245880,2455820 13076210,2259620 12822490,2180870 L 12822490,2180870 z M 15432740,2180600 C 15332500,2154950 15229190,2141080 15124490,2141080 C 15018680,2141080 14910720,2154370 14807050,2180870 C 14494580,2260380 14218130,2459190 14134800,2772610 C 14118490,2834870 14109500,2901640 14109500,2972890 C 14109500,3962050 15844320,3657160 15856400,4192870 C 15856600,4194750 15856600,4196630 15856600,4198510 C 15856600,4426040 15618000,4531380 15423880,4531380 C 15089940,4531380 14826240,4419600 14657220,4192600 L 14657020,4192600 C 14579220,4087780 14521520,3958640 14486790,3804910 L 14081790,3804910 L 14081790,4192870 L 14081790,4819640 L 14447940,4819640 L 14558720,4620090 C 14819330,4847620 15152140,4902970 15484940,4902970 C 15971870,4902970 16434650,4694900 16493560,4192870 C 16497860,4157580 16500000,4120670 16500000,4082090 C 16500000,3067100 14752840,3272290 14752840,2839840 C 14752840,2815680 14755660,2793470 14760890,2772610 C 14803970,2601980 15011300,2540380 15174410,2540380 C 15437370,2540380 15637390,2618080 15783190,2772610 C 15874110,2868960 15944160,2994900 15995290,3150370 L 16355810,3150370 L 16355810,2772610 L 16355810,2224150 L 16050710,2224150 L 15939670,2412830 C 15786550,2309360 15614910,2226560 15433820,2180600 L 15432740,2180600 L 15432740,2180600 z M 8984080,4192870 L 8984080,4231920 C 8984080,4392620 8917520,4453680 8762260,4453680 L 8507080,4453680 L 8507080,4819640 L 10132060,4819640 L 10132060,4453680 L 9860320,4453680 C 9705050,4453680 9638560,4392620 9638560,4231920 L 9638560,4192870 L 9638560,2772610 L 9638560,2224150 L 8507080,2224150 L 8507080,2590100 L 8762260,2590100 C 8904030,2590100 8972000,2641230 8982610,2772610 C 8983610,2785150 8984080,2798170 8984080,2812130 L 8984080,4192870 L 8984080,4192870 z M 6572510,2772610 C 6655580,2627540 6789100,2529310 6990730,2529310 C 7201420,2529310 7331120,2627540 7405470,2772610 C 7469810,2898750 7492560,3059990 7489940,3222370 L 6458380,3222370 C 6466230,3059990 6500310,2898750 6572510,2772610 z "
   style="fill:black;fill-opacity:1"
   id="_77762816" />

  </g>

 </g>
  </g>
</svg>
