<?xml version="1.0" encoding="UTF-8" ?>
<!DOCTYPE svg PUBLIC "-//W3C//DTD SVG 1.1//EN" "http://www.w3.org/Graphics/SVG/1.1/DTD/svg11.dtd">
<svg width="1000pt" height="582pt" viewBox="0 0 1000 582" version="1.1" xmlns="http://www.w3.org/2000/svg">
<g id="#000000ff">
<path fill="#000000" opacity="1.00" d=" M 0.00 0.00 L 486.15 0.00 C 486.14 161.99 486.16 323.98 486.14 485.97 C 324.09 485.99 162.05 485.97 0.00 485.98 L 0.00 0.00 M 233.96 27.08 C 204.97 30.00 176.65 39.04 151.21 53.21 C 122.46 69.13 97.55 91.81 78.69 118.69 C 59.70 145.78 47.05 177.26 42.04 209.96 C 36.35 246.68 40.28 284.84 53.32 319.63 C 69.76 363.47 100.79 401.63 140.35 426.67 C 168.18 444.40 200.12 455.67 232.94 459.16 C 268.64 463.08 305.33 458.11 338.59 444.49 C 383.22 426.33 421.63 392.89 445.23 350.82 C 405.09 327.69 364.78 304.86 324.65 281.72 C 314.51 298.88 298.08 312.42 278.83 317.97 C 253.65 325.66 224.88 319.25 205.22 301.77 C 190.06 288.47 180.44 269.08 178.92 248.98 C 177.85 234.19 181.06 219.11 188.16 206.07 C 195.90 191.74 208.25 179.95 222.93 172.90 C 241.98 163.63 264.88 162.62 284.62 170.36 C 301.43 176.68 315.53 189.24 324.61 204.64 C 364.79 181.59 405.02 158.62 445.24 135.63 C 424.88 99.08 393.15 69.11 356.05 49.93 C 318.75 30.62 275.71 22.54 233.96 27.08 Z" />
<path fill="#000000" opacity="1.00" d=" M 521.07 34.87 C 567.29 34.83 613.52 34.78 659.74 34.89 C 706.23 92.64 752.30 150.75 798.81 208.49 C 798.89 150.61 798.82 92.72 798.93 34.84 C 845.15 34.85 891.37 34.78 937.59 34.88 C 937.65 172.26 937.59 309.64 937.62 447.03 C 937.60 448.44 937.66 449.88 937.52 451.30 C 891.99 451.37 846.46 451.33 800.94 451.31 C 800.29 451.24 798.98 451.11 798.33 451.04 C 752.19 393.36 706.10 335.64 659.94 277.98 C 659.70 335.74 659.90 393.50 659.80 451.26 C 613.55 451.46 567.30 451.43 521.05 451.30 C 520.99 312.49 521.01 173.68 521.07 34.87 Z" />
<path fill="#000000" opacity="1.00" d=" M 32.46 523.50 C 39.05 519.94 46.96 519.02 54.23 520.73 C 62.39 522.63 69.45 528.19 73.82 535.26 C 68.71 538.43 63.50 541.49 58.12 544.18 C 55.57 542.15 53.27 539.52 49.94 538.82 C 43.49 537.05 36.36 541.55 34.97 548.04 C 32.86 555.74 40.06 564.13 48.01 563.11 C 52.22 563.10 55.24 559.93 58.15 557.34 C 63.47 560.19 68.70 563.26 73.85 566.41 C 68.95 574.79 60.05 579.93 50.76 582.00 L 43.34 582.00 C 39.26 580.85 35.08 579.78 31.43 577.55 C 22.12 572.25 15.94 561.77 16.14 551.02 C 15.74 539.72 22.51 528.71 32.46 523.50 Z" />
<path fill="#000000" opacity="1.00" d=" M 298.33 520.39 C 307.70 519.00 317.67 521.84 324.42 528.59 C 332.60 536.13 335.88 548.27 332.93 558.95 C 329.86 571.57 317.88 581.15 304.99 581.84 C 293.12 582.71 281.10 575.89 275.70 565.30 C 271.38 557.17 270.93 547.10 274.70 538.68 C 278.73 529.05 288.00 521.89 298.33 520.39 M 299.30 540.32 C 294.96 541.87 291.71 546.35 291.86 551.00 C 291.66 556.94 297.10 562.29 303.00 562.21 C 310.03 562.52 316.09 554.88 313.96 548.11 C 312.57 541.93 305.21 537.97 299.30 540.32 Z" />
<path fill="#000000" opacity="1.00" d=" M 339.73 544.81 C 342.16 531.87 353.76 521.18 366.95 520.25 C 377.02 519.14 387.47 523.23 393.86 531.14 C 402.36 541.02 403.22 556.36 396.31 567.33 C 391.56 575.33 382.95 580.02 374.09 582.00 L 366.31 582.00 C 361.78 580.72 357.09 579.57 353.16 576.86 C 342.75 570.18 337.10 556.93 339.73 544.81 M 366.30 540.32 C 361.62 542.01 358.22 547.02 358.85 552.04 C 359.31 557.19 363.75 561.74 368.96 562.13 C 375.61 563.05 382.15 556.67 381.21 549.96 C 381.01 542.90 372.82 537.66 366.30 540.32 Z" />
<path fill="#000000" opacity="1.00" d=" M 774.03 533.02 C 780.07 524.50 790.62 519.29 801.08 520.01 C 810.69 520.43 819.88 525.79 825.17 533.80 C 829.16 540.03 831.05 547.66 830.01 555.02 C 828.72 564.12 823.34 572.70 815.34 577.36 C 811.58 579.68 807.28 580.78 803.08 582.00 L 795.41 582.00 C 791.82 580.88 788.12 580.00 784.80 578.18 C 776.69 573.97 770.73 565.90 769.04 556.93 C 767.37 548.71 769.24 539.88 774.03 533.02 M 795.33 540.36 C 791.10 542.04 787.92 546.37 788.16 551.00 C 787.95 556.83 793.22 562.06 798.98 562.15 C 805.74 562.56 811.81 555.68 810.43 549.01 C 809.53 542.29 801.59 537.67 795.33 540.36 Z" />
<path fill="#000000" opacity="1.00" d=" M 93.61 521.35 C 103.50 521.21 113.43 521.04 123.31 521.44 C 129.47 541.14 135.75 560.81 141.76 580.55 C 134.89 580.56 128.02 580.61 121.15 580.57 C 119.67 577.45 119.38 573.92 117.95 570.78 C 111.66 570.42 105.33 570.53 99.04 570.72 C 97.76 573.92 97.42 577.45 95.86 580.53 C 88.96 580.61 82.05 580.57 75.14 580.60 C 81.22 560.83 87.41 541.08 93.61 521.35 M 103.22 555.97 C 106.70 556.07 110.19 556.07 113.67 555.97 C 112.14 549.85 110.43 543.76 108.42 537.77 C 106.51 543.78 104.87 549.88 103.22 555.97 Z" />
<path fill="#000000" opacity="1.00" d=" M 147.97 521.30 C 157.65 521.16 167.33 521.25 177.01 521.26 C 181.54 521.42 186.25 520.88 190.58 522.54 C 196.80 524.69 201.87 529.88 203.84 536.15 C 205.53 542.13 204.67 548.92 200.94 553.97 C 198.97 556.96 195.90 558.88 193.19 561.10 C 196.63 567.76 201.01 573.90 204.44 580.57 C 197.20 580.54 189.93 580.77 182.70 580.47 C 179.53 574.84 177.01 568.85 173.74 563.29 C 171.71 563.14 169.66 563.18 167.63 563.25 C 167.27 569.00 167.64 574.77 167.41 580.53 C 160.94 580.66 154.46 580.57 147.99 580.52 C 147.70 560.79 147.73 541.02 147.97 521.30 M 167.56 538.60 C 167.39 541.87 167.40 545.16 167.55 548.44 C 172.32 548.40 177.16 548.86 181.89 548.17 C 186.01 546.72 186.03 540.25 181.89 538.82 C 177.16 538.21 172.33 538.59 167.56 538.60 Z" />
<path fill="#000000" opacity="1.00" d=" M 210.11 521.28 C 229.90 521.21 249.70 521.16 269.48 521.34 C 269.56 527.05 269.59 532.76 269.46 538.47 C 263.27 538.70 257.05 538.34 250.86 538.66 C 250.58 552.61 250.94 566.57 250.69 580.52 C 243.35 580.51 235.98 580.81 228.66 580.37 C 228.57 566.44 228.77 552.51 228.57 538.59 C 222.40 538.37 216.23 538.70 210.07 538.45 C 210.05 532.73 209.99 527.00 210.11 521.28 Z" />
<path fill="#000000" opacity="1.00" d=" M 407.09 521.30 C 413.60 521.26 420.13 521.11 426.64 521.32 C 433.55 529.28 439.78 537.82 446.60 545.87 C 446.86 537.69 446.54 529.49 446.79 521.31 C 453.28 521.20 459.78 521.20 466.27 521.27 C 466.43 540.98 466.27 560.70 466.38 580.42 C 459.85 580.72 453.25 580.72 446.72 580.43 C 439.81 572.55 433.74 563.95 426.81 556.09 C 426.38 564.22 426.78 572.38 426.57 580.52 C 420.09 580.62 413.60 580.58 407.11 580.54 C 406.93 560.80 406.98 541.04 407.09 521.30 Z" />
<path fill="#000000" opacity="1.00" d=" M 506.63 521.24 C 513.21 521.34 519.84 520.97 526.40 521.49 C 533.04 529.53 539.20 537.97 546.14 545.76 C 546.31 537.60 546.08 529.44 546.27 521.28 C 552.73 521.19 559.21 521.18 565.68 521.33 C 565.76 541.06 565.80 560.79 565.66 580.52 C 559.22 580.60 552.77 580.62 546.34 580.52 C 539.18 572.68 533.12 563.87 526.12 555.88 C 525.91 564.08 526.17 572.29 525.99 580.49 C 519.52 580.63 513.04 580.63 506.58 580.48 C 506.53 560.74 506.43 540.98 506.63 521.24 Z" />
<path fill="#000000" opacity="1.00" d=" M 574.46 521.31 C 591.68 521.14 608.92 521.26 626.15 521.31 C 626.22 527.05 626.55 532.84 625.87 538.55 C 615.25 538.58 604.62 538.42 594.00 538.66 C 593.94 540.38 593.99 542.13 594.17 543.86 C 603.14 544.16 612.12 543.73 621.10 544.02 C 621.20 548.83 621.33 553.66 620.97 558.46 C 611.99 558.62 603.00 558.34 594.03 558.61 C 593.94 560.62 593.92 562.66 594.10 564.68 C 604.78 564.87 615.47 564.65 626.16 564.81 C 626.24 570.04 626.42 575.30 626.05 580.52 C 608.86 580.59 591.67 580.62 574.48 580.51 C 574.35 560.78 574.39 541.04 574.46 521.31 Z" />
<path fill="#000000" opacity="1.00" d=" M 632.97 521.33 C 652.73 521.12 672.50 521.28 692.26 521.29 C 692.20 526.99 692.86 532.97 691.82 538.52 C 685.78 538.65 679.73 538.37 673.70 538.63 C 673.51 552.59 673.80 566.56 673.56 580.52 C 666.23 580.54 658.88 580.73 651.56 580.42 C 651.48 566.46 651.69 552.50 651.47 538.56 C 645.29 538.32 639.09 538.82 632.93 538.28 C 632.78 532.64 632.68 526.97 632.97 521.33 Z" />
<path fill="#000000" opacity="1.00" d=" M 697.32 521.30 C 703.90 521.22 710.49 521.17 717.07 521.32 C 718.98 529.82 720.07 538.51 722.22 546.97 C 725.77 539.31 728.49 531.29 732.14 523.68 C 735.51 531.21 738.17 539.05 741.81 546.45 C 744.43 538.30 744.94 529.57 747.14 521.29 C 753.68 521.16 760.22 521.24 766.76 521.31 C 763.09 541.05 759.34 560.79 755.47 580.49 C 750.06 580.65 744.64 580.59 739.24 580.53 C 736.57 575.41 734.72 569.90 732.06 564.78 C 729.33 569.90 727.59 575.50 724.75 580.56 C 719.42 580.60 714.07 580.73 708.75 580.48 C 704.67 560.81 701.12 541.03 697.32 521.30 Z" />
<path fill="#000000" opacity="1.00" d=" M 836.35 521.33 C 846.23 521.18 856.12 521.23 866.01 521.27 C 870.71 521.35 875.63 520.92 880.06 522.87 C 888.43 526.10 894.01 535.11 893.21 544.05 C 892.48 551.21 887.62 557.23 881.69 560.97 C 885.14 567.68 889.46 573.91 893.07 580.54 C 885.80 580.56 878.53 580.64 871.26 580.52 C 867.93 575.00 865.54 568.96 862.50 563.29 C 860.41 562.85 858.25 563.02 856.15 563.12 C 855.85 568.93 856.32 574.76 855.92 580.57 C 849.40 580.60 842.88 580.61 836.37 580.52 C 836.23 560.79 836.27 541.06 836.35 521.33 M 856.10 538.58 C 855.99 541.85 855.99 545.14 856.10 548.42 C 860.39 548.56 864.69 548.56 868.99 548.43 C 870.93 548.35 872.61 546.86 873.24 545.08 C 874.53 542.29 872.05 538.62 869.05 538.58 C 864.73 538.49 860.41 538.47 856.10 538.58 Z" />
<path fill="#000000" opacity="1.00" d=" M 899.54 521.35 C 906.05 521.10 912.56 521.28 919.07 521.31 C 919.82 527.54 919.03 533.97 919.45 540.27 C 924.70 534.18 929.03 527.35 934.32 521.30 C 942.63 521.14 950.95 521.26 959.27 521.31 C 951.96 530.95 943.90 540.02 936.62 549.67 C 943.80 560.24 952.04 570.06 959.31 580.56 C 950.98 580.53 942.65 580.66 934.33 580.54 C 929.07 573.49 924.66 565.82 919.46 558.73 C 919.24 565.93 919.42 573.15 919.35 580.37 C 912.77 580.79 906.14 580.55 899.55 580.49 C 899.43 560.78 899.45 541.06 899.54 521.35 Z" />
<path fill="#000000" opacity="1.00" d=" M 968.84 564.75 C 973.21 564.56 977.60 564.55 981.98 564.73 C 981.97 565.32 981.96 566.51 981.95 567.10 C 980.32 567.21 978.70 567.19 977.10 567.31 C 976.64 571.78 977.01 576.28 976.75 580.77 C 975.60 580.67 973.18 581.12 973.69 579.14 C 973.58 575.21 973.77 571.28 973.67 567.35 C 972.07 567.19 970.46 567.20 968.89 567.07 C 968.87 566.49 968.85 565.33 968.84 564.75 Z" />
<path fill="#000000" opacity="1.00" d=" M 984.11 564.67 C 985.64 564.55 987.19 564.54 988.75 564.69 C 990.02 568.69 990.62 572.88 992.03 576.86 C 993.28 572.89 993.77 568.73 995.08 564.78 C 996.70 564.58 998.34 564.57 1000.00 564.50 L 1000.00 580.87 C 999.26 580.76 997.79 580.54 997.06 580.43 C 996.74 576.27 997.11 572.09 996.73 567.93 C 995.16 572.03 994.70 576.43 993.37 580.59 C 992.38 580.69 991.40 580.71 990.44 580.66 C 989.08 576.54 988.69 572.16 987.19 568.07 C 986.82 572.26 987.24 576.49 986.84 580.68 C 986.17 580.69 984.84 580.70 984.17 580.71 C 983.84 575.37 983.94 570.01 984.11 564.67 Z" />
</g>
<g id="#ffffffff">
<path fill="#ffffff" opacity="1.00" d=" M 486.15 0.00 L 972.33 0.00 C 972.31 161.98 972.36 323.96 972.26 485.94 C 810.22 486.03 648.18 485.96 486.14 485.97 C 486.16 323.98 486.14 161.99 486.15 0.00 M 521.07 34.87 C 521.01 173.68 520.99 312.49 521.05 451.30 C 567.30 451.43 613.55 451.46 659.80 451.26 C 659.90 393.50 659.70 335.74 659.94 277.98 C 706.10 335.64 752.19 393.36 798.33 451.04 C 798.98 451.11 800.29 451.24 800.94 451.31 C 846.46 451.33 891.99 451.37 937.52 451.30 C 937.66 449.88 937.60 448.44 937.62 447.03 C 937.59 309.64 937.65 172.26 937.59 34.88 C 891.37 34.78 845.15 34.85 798.93 34.84 C 798.82 92.72 798.89 150.61 798.81 208.49 C 752.30 150.75 706.23 92.64 659.74 34.89 C 613.52 34.78 567.29 34.83 521.07 34.87 Z" />
<path fill="#ffffff" opacity="1.00" d=" M 233.96 27.08 C 275.71 22.54 318.75 30.62 356.05 49.93 C 393.15 69.11 424.88 99.08 445.24 135.63 C 405.02 158.62 364.79 181.59 324.61 204.64 C 315.53 189.24 301.43 176.68 284.62 170.36 C 264.88 162.62 241.98 163.63 222.93 172.90 C 208.25 179.95 195.90 191.74 188.16 206.07 C 181.06 219.11 177.85 234.19 178.92 248.98 C 180.44 269.08 190.06 288.47 205.22 301.77 C 224.88 319.25 253.65 325.66 278.83 317.97 C 298.08 312.42 314.51 298.88 324.65 281.72 C 364.78 304.86 405.09 327.69 445.23 350.82 C 421.63 392.89 383.22 426.33 338.59 444.49 C 305.33 458.11 268.64 463.08 232.94 459.16 C 200.12 455.67 168.18 444.40 140.35 426.67 C 100.79 401.63 69.76 363.47 53.32 319.63 C 40.28 284.84 36.35 246.68 42.04 209.96 C 47.05 177.26 59.70 145.78 78.69 118.69 C 97.55 91.81 122.46 69.13 151.21 53.21 C 176.65 39.04 204.97 30.00 233.96 27.08 Z" />
</g>
</svg>
