<?xml version="1.0" encoding="UTF-8" ?>
<!DOCTYPE svg PUBLIC "-//W3C//DTD SVG 1.1//EN" "http://www.w3.org/Graphics/SVG/1.1/DTD/svg11.dtd">
<svg width="2088pt" height="739pt" viewBox="0 0 2088 739" version="1.1" xmlns="http://www.w3.org/2000/svg">
<g id="#fefefeff">
<path fill="#fefefe" opacity="1.00" d=" M 165.62 227.84 C 172.41 226.55 179.35 226.71 186.22 226.41 C 186.58 231.95 186.06 237.49 185.95 243.03 C 184.95 266.08 184.23 289.14 183.04 312.18 C 178.17 311.01 173.61 308.93 169.05 306.94 C 145.76 296.54 124.42 281.67 107.06 262.96 C 103.92 259.56 99.46 256.14 99.79 251.00 C 99.76 247.71 102.77 245.81 105.20 244.24 C 113.29 238.91 122.54 235.42 132.12 234.04 C 143.30 232.05 154.46 229.91 165.62 227.84 Z" />
</g>
<g id="#000000ff">
<path fill="#000000" opacity="1.00" d=" M 21.55 14.53 C 48.71 4.21 78.00 0.18 106.97 0.67 C 117.50 0.52 128.04 0.98 138.55 1.70 C 152.26 3.45 165.98 5.17 179.63 7.34 C 193.28 10.36 207.05 12.94 220.55 16.64 C 239.41 23.06 258.36 29.19 277.13 35.87 C 289.37 41.36 301.82 46.39 313.93 52.18 C 321.47 55.76 328.55 60.22 335.90 64.15 C 347.36 70.54 359.12 76.51 369.83 84.15 C 378.55 90.09 387.43 95.81 395.88 102.14 C 407.97 111.98 420.42 121.48 431.15 132.85 C 454.80 154.25 473.25 181.14 485.33 210.61 C 489.32 224.03 493.28 237.94 491.82 252.09 C 490.56 267.53 484.04 281.78 477.84 295.74 C 473.32 305.05 466.08 312.60 458.97 319.96 C 456.43 322.43 454.13 325.26 450.98 326.97 C 448.67 328.25 446.20 329.25 444.02 330.73 C 433.21 338.68 421.57 345.36 409.74 351.65 C 391.32 359.37 371.76 364.05 352.04 367.00 C 347.38 367.72 342.71 368.48 337.99 368.44 C 320.66 368.42 303.33 368.37 285.99 368.46 C 282.90 368.47 279.69 368.30 276.91 366.80 C 275.32 366.04 273.75 365.10 271.94 365.05 C 262.42 364.10 252.82 363.78 243.39 362.08 C 242.45 369.48 240.74 377.74 234.65 382.68 C 227.17 386.88 218.18 385.27 210.07 384.25 C 203.56 383.86 195.97 382.80 191.96 377.00 C 186.02 366.97 184.17 355.24 182.37 343.91 C 182.34 342.40 180.63 342.05 179.61 341.42 C 152.27 328.32 126.94 310.95 105.20 289.81 C 94.50 280.14 85.09 269.16 76.10 257.91 C 69.25 249.31 69.27 235.25 77.65 227.64 C 95.08 210.31 118.65 200.96 142.13 195.16 C 157.22 191.80 172.38 188.64 187.77 186.96 C 188.18 174.27 190.14 161.71 191.15 149.07 C 192.29 134.65 195.21 120.45 197.51 106.19 C 197.94 103.35 199.90 100.29 203.01 100.04 C 206.20 100.14 208.98 101.97 211.86 103.17 C 215.62 104.99 219.82 106.17 222.97 109.03 C 227.29 113.59 230.31 119.40 231.54 125.57 C 233.48 134.52 235.73 143.43 236.64 152.56 C 237.60 162.53 238.72 172.49 239.62 182.47 C 257.44 182.62 275.38 183.38 292.88 187.03 C 306.26 189.81 319.96 191.43 332.88 196.08 C 345.77 201.06 359.23 205.87 369.58 215.40 C 376.75 222.12 382.89 230.86 383.81 240.90 C 384.70 249.04 380.47 256.55 375.89 262.91 C 369.93 270.53 361.14 277.30 350.99 276.85 C 345.06 276.97 339.47 274.84 333.91 273.09 C 327.87 271.84 321.63 270.18 317.00 265.87 C 324.60 261.56 332.96 257.27 337.43 249.39 C 338.90 246.53 340.31 243.40 340.12 240.12 C 340.00 238.17 337.96 237.73 336.44 237.36 C 325.80 234.91 315.06 232.93 304.40 230.59 C 292.79 227.96 280.87 227.22 269.17 225.11 C 259.95 224.17 250.68 223.63 241.41 223.81 C 243.42 258.91 241.92 294.07 242.06 329.21 C 260.14 332.63 278.65 332.93 297.00 332.86 C 309.71 333.01 322.31 330.99 334.76 328.62 C 362.18 323.02 389.04 312.54 411.27 295.28 C 424.14 285.23 433.84 270.84 436.76 254.64 C 438.62 244.97 439.07 234.75 435.89 225.30 C 432.18 214.24 427.86 203.40 423.37 192.64 C 422.51 190.61 421.29 188.76 419.97 187.01 C 413.49 178.54 407.60 169.57 400.15 161.89 C 384.81 143.86 366.95 128.14 347.96 114.07 C 328.20 100.84 308.02 87.84 285.69 79.35 C 273.64 74.74 262.03 68.95 249.58 65.45 C 237.30 61.74 225.09 57.77 212.75 54.24 C 196.36 50.44 179.92 46.91 163.46 43.45 C 146.39 41.15 129.18 40.18 112.07 38.24 C 101.11 37.01 90.06 37.02 79.05 37.49 C 69.94 37.95 60.59 37.86 51.85 40.80 C 49.04 41.97 45.76 43.10 44.30 45.98 C 47.71 49.80 52.64 51.54 56.91 54.14 C 58.43 54.97 59.58 57.61 57.85 58.80 C 51.97 63.40 44.04 62.83 37.00 63.15 C 26.68 63.75 17.44 58.51 8.11 54.94 C 5.45 53.78 2.21 52.64 0.97 49.77 C -0.58 43.31 2.94 37.18 5.49 31.48 C 9.11 24.60 13.69 17.00 21.55 14.53 M 165.62 227.84 C 154.46 229.91 143.30 232.05 132.12 234.04 C 122.54 235.42 113.29 238.91 105.20 244.24 C 102.77 245.81 99.76 247.71 99.79 251.00 C 99.46 256.14 103.92 259.56 107.06 262.96 C 124.42 281.67 145.76 296.54 169.05 306.94 C 173.61 308.93 178.17 311.01 183.04 312.18 C 184.23 289.14 184.95 266.08 185.95 243.03 C 186.06 237.49 186.58 231.95 186.22 226.41 C 179.35 226.71 172.41 226.55 165.62 227.84 Z" />
<path fill="#000000" opacity="1.00" d=" M 525.94 41.07 C 541.09 36.50 557.70 32.50 573.23 37.67 C 578.83 39.20 582.58 43.90 587.32 46.90 C 594.94 48.62 602.94 49.39 610.00 53.01 C 615.31 55.79 619.20 60.46 623.44 64.56 C 628.18 69.06 631.31 75.40 631.25 82.00 C 629.82 95.47 625.09 108.86 616.35 119.36 C 603.69 135.03 585.97 145.58 567.81 153.71 C 549.58 161.40 529.13 161.69 509.90 158.25 C 506.84 160.73 505.09 164.53 501.84 166.83 C 499.08 168.93 495.15 170.96 491.78 169.05 C 486.83 166.31 481.11 163.99 478.02 158.96 C 474.23 152.64 475.10 144.95 475.43 137.93 C 468.25 129.61 461.65 119.40 462.37 107.95 C 463.36 90.69 472.28 74.50 485.15 63.18 C 496.75 52.70 511.12 45.73 525.94 41.07 M 492.24 104.20 C 494.83 102.81 496.23 100.14 497.89 97.85 C 501.79 92.20 506.30 87.00 511.10 82.10 C 514.09 79.02 517.43 76.25 520.01 72.80 C 506.87 78.51 495.78 90.11 492.24 104.20 M 571.81 80.72 C 559.56 85.88 549.44 94.87 540.48 104.49 C 533.61 111.90 526.20 119.37 522.77 129.11 C 526.16 129.25 529.59 129.30 532.96 128.72 C 549.65 126.03 566.50 121.99 581.12 113.19 C 590.28 107.61 598.56 99.64 602.20 89.34 C 603.17 85.46 604.39 80.05 600.73 77.22 C 591.04 75.83 580.84 76.75 571.81 80.72 Z" />
<path fill="#000000" opacity="1.00" d=" M 814.85 158.04 C 815.09 155.11 818.49 154.77 820.76 155.34 C 825.27 156.51 828.64 160.02 831.45 163.55 C 838.86 173.14 844.69 183.80 850.68 194.29 C 855.79 202.67 859.57 211.77 863.12 220.88 C 868.20 234.32 871.55 248.54 871.56 262.96 C 871.42 275.38 873.11 288.05 870.01 300.24 C 867.37 311.51 861.88 322.41 853.08 330.11 C 847.73 334.78 839.38 336.62 833.01 332.99 C 826.26 329.02 820.06 323.93 815.40 317.60 C 799.62 296.22 788.26 272.08 774.88 249.22 C 773.88 247.73 773.30 245.64 771.40 245.10 C 770.70 247.66 770.14 250.26 770.00 252.92 C 769.00 275.31 767.57 297.68 766.47 320.06 C 765.95 326.48 765.21 333.21 761.83 338.84 C 759.33 342.68 754.10 342.05 750.18 341.58 C 743.71 339.86 737.09 336.41 733.89 330.25 C 729.75 322.52 730.11 313.51 730.15 305.02 C 729.92 294.92 731.88 284.96 732.55 274.92 C 733.74 261.19 737.26 247.82 739.56 234.26 C 741.39 223.67 744.49 213.33 748.36 203.31 C 749.92 199.05 752.03 194.57 756.19 192.29 C 759.70 190.11 764.28 191.13 767.27 193.74 C 775.72 200.74 782.05 209.82 788.21 218.80 C 801.91 238.42 815.58 258.06 829.33 277.65 C 831.90 281.05 833.87 284.93 837.03 287.86 C 840.89 283.54 838.71 277.22 838.48 272.03 C 835.36 247.50 829.36 223.43 821.94 199.87 C 819.48 191.87 818.30 183.56 816.63 175.38 C 815.60 169.67 814.07 163.88 814.85 158.04 Z" />
<path fill="#000000" opacity="1.00" d=" M 1247.07 168.92 C 1261.66 165.38 1277.75 170.10 1288.45 180.55 C 1297.45 189.15 1302.92 201.52 1302.61 214.02 C 1302.89 223.14 1299.08 231.64 1295.25 239.69 C 1314.11 234.88 1334.68 237.75 1351.41 247.72 C 1351.43 238.74 1352.04 229.44 1356.31 221.33 C 1359.53 214.02 1365.46 208.50 1371.50 203.50 C 1379.91 196.30 1390.84 191.84 1402.01 192.13 C 1418.64 191.89 1434.65 202.03 1442.19 216.75 C 1449.99 231.25 1448.84 249.99 1439.45 263.50 C 1432.93 273.61 1421.87 279.58 1410.95 283.83 C 1401.23 287.51 1390.63 286.34 1380.79 283.84 C 1383.21 293.69 1385.21 303.90 1383.85 314.07 C 1382.15 333.90 1371.15 352.42 1355.25 364.22 C 1338.48 376.50 1316.18 381.01 1296.03 375.80 C 1282.61 372.12 1269.90 364.83 1260.86 354.14 C 1246.11 337.72 1240.17 313.83 1245.30 292.37 C 1247.65 281.51 1253.27 271.79 1259.43 262.69 C 1249.12 262.83 1238.42 261.10 1229.72 255.23 C 1218.26 248.01 1210.56 235.36 1209.08 221.94 C 1207.46 209.35 1212.40 196.81 1219.85 186.85 C 1226.25 177.73 1236.15 171.18 1247.07 168.92 Z" />
<path fill="#000000" opacity="1.00" d=" M 1058.57 194.57 C 1064.42 187.21 1070.50 179.52 1079.08 175.21 C 1080.07 176.05 1081.68 176.62 1081.74 178.15 C 1082.31 185.07 1081.56 192.25 1078.39 198.52 C 1068.23 218.56 1059.04 239.07 1049.41 259.36 C 1045.80 269.03 1041.17 280.11 1046.14 290.16 C 1048.10 289.51 1048.89 287.47 1050.01 285.92 C 1055.97 276.97 1062.32 268.28 1068.44 259.45 C 1078.12 245.99 1089.40 233.81 1100.93 221.94 C 1108.28 214.62 1115.49 207.12 1123.41 200.40 C 1130.81 194.23 1140.63 189.41 1150.46 191.81 C 1158.25 193.50 1163.13 200.45 1167.23 206.72 C 1173.70 217.69 1178.77 230.04 1178.61 242.99 C 1179.04 260.28 1173.21 277.34 1163.63 291.62 C 1153.52 307.16 1139.75 319.90 1125.14 331.14 C 1109.98 342.57 1090.85 348.03 1071.96 347.56 C 1065.14 358.02 1060.10 369.62 1056.49 381.56 C 1053.06 391.63 1049.62 401.73 1047.47 412.16 C 1045.97 419.34 1044.12 426.43 1042.47 433.57 C 1040.22 442.73 1039.45 452.18 1037.20 461.35 C 1035.85 466.77 1035.19 472.35 1033.68 477.73 C 1032.93 480.56 1029.67 481.66 1027.03 481.57 C 1021.24 481.35 1015.98 478.06 1012.06 473.97 C 1005.21 466.72 1001.87 457.08 999.41 447.62 C 997.66 441.91 997.20 435.91 997.39 429.97 C 997.21 420.44 1000.47 411.35 1003.25 402.38 C 1005.13 396.85 1006.10 391.08 1007.75 385.49 C 1013.84 365.92 1020.45 346.48 1028.85 327.77 C 1030.24 324.89 1031.27 321.39 1029.66 318.38 C 1022.22 302.48 1019.98 284.22 1023.32 267.00 C 1028.15 240.24 1040.87 215.11 1058.57 194.57 M 1146.10 223.98 C 1134.34 239.26 1122.52 254.51 1110.72 269.76 C 1101.25 282.31 1091.05 294.49 1083.31 308.19 C 1098.77 309.88 1113.25 302.25 1125.28 293.32 C 1134.24 286.75 1142.77 279.22 1148.89 269.86 C 1155.71 256.69 1157.84 240.00 1150.51 226.56 C 1149.76 224.77 1147.68 224.57 1146.10 223.98 Z" />
<path fill="#000000" opacity="1.00" d=" M 628.93 181.62 C 649.64 178.72 670.78 178.19 691.55 180.81 C 703.76 182.83 716.90 185.04 726.56 193.39 C 730.43 196.66 727.46 201.96 725.40 205.40 C 721.92 211.31 714.48 212.21 708.33 213.12 C 680.58 215.93 652.83 218.72 625.08 221.51 C 613.60 222.38 601.91 224.27 591.61 229.67 C 590.82 230.02 590.26 230.59 589.91 231.37 C 619.97 235.18 649.94 239.64 680.04 243.14 C 685.64 243.74 691.44 244.62 696.29 247.71 C 703.02 252.06 710.52 256.13 714.54 263.41 C 719.89 270.18 722.83 278.53 724.22 286.96 C 724.95 298.70 722.30 311.37 714.40 320.42 C 704.62 330.18 691.56 336.13 678.22 339.21 C 653.85 344.74 628.26 341.29 604.84 333.31 C 593.31 329.26 582.01 323.43 573.77 314.20 C 568.29 308.11 564.47 300.23 564.21 291.95 C 564.10 287.55 566.65 283.64 569.63 280.63 C 574.99 275.46 581.04 270.74 588.20 268.36 C 597.73 264.81 608.07 264.78 618.09 265.38 C 635.05 267.41 651.68 271.50 668.22 275.67 C 672.22 276.64 675.93 278.51 679.51 280.51 C 681.55 281.59 683.18 284.41 681.53 286.50 C 678.46 291.52 672.27 292.86 667.32 295.33 C 657.70 299.57 646.75 298.10 637.10 294.76 C 627.39 291.96 618.19 287.71 608.64 284.50 C 603.35 284.04 597.74 284.47 592.88 286.76 C 588.49 288.88 584.62 294.09 586.90 299.07 C 588.03 303.22 592.63 304.56 596.09 306.21 C 611.06 309.53 626.70 309.28 641.63 305.87 C 653.86 303.36 665.87 299.84 677.61 295.59 C 684.41 293.13 690.95 288.88 694.53 282.43 C 696.19 279.61 696.01 275.74 693.75 273.29 C 689.76 268.47 683.28 267.41 677.78 265.18 C 674.07 263.59 669.98 263.62 666.05 263.17 C 648.43 261.37 630.69 261.83 613.02 261.36 C 599.05 261.64 584.95 258.74 572.41 252.51 C 566.90 249.70 560.60 247.36 557.12 241.90 C 554.15 237.59 555.72 232.17 556.45 227.43 C 558.24 217.21 562.54 206.46 571.67 200.71 C 589.11 190.32 608.96 184.59 628.93 181.62 Z" />
<path fill="#000000" opacity="1.00" d=" M 961.00 183.05 C 968.61 182.00 976.28 181.32 983.97 181.35 C 989.69 181.27 996.25 180.04 1001.14 183.83 C 1006.04 187.96 1009.67 193.32 1013.98 198.02 C 1017.92 202.30 1020.64 207.84 1020.95 213.70 C 1018.44 217.08 1014.95 219.72 1010.84 220.78 C 1003.37 222.65 995.59 221.62 987.99 221.88 C 975.00 222.52 961.98 222.31 949.00 223.08 C 947.17 223.09 945.52 224.09 944.69 225.70 C 941.40 231.77 940.15 238.63 938.40 245.24 C 954.08 246.93 970.24 243.88 985.84 247.28 C 987.18 247.60 988.91 248.02 989.38 249.53 C 991.27 255.12 992.14 261.09 991.76 266.99 C 991.55 270.57 987.43 271.60 984.54 272.14 C 967.19 274.84 949.59 272.90 932.14 273.96 C 930.42 275.45 929.56 277.63 928.46 279.56 C 925.49 285.31 922.33 291.01 920.07 297.10 C 918.82 300.22 919.36 303.64 919.31 306.91 C 928.83 307.01 937.90 303.82 947.18 302.17 C 961.16 299.31 975.19 294.79 989.64 296.37 C 995.22 301.30 997.40 308.98 998.50 316.11 C 999.05 320.30 995.11 323.07 992.01 325.02 C 980.07 332.44 967.75 339.32 954.83 344.87 C 943.80 349.54 932.12 353.44 920.01 353.34 C 913.20 353.35 906.22 351.46 900.85 347.15 C 894.12 341.89 887.91 335.54 884.48 327.60 C 879.61 316.56 878.80 303.55 883.24 292.24 C 886.67 283.20 891.19 274.63 894.67 265.61 C 897.09 260.70 893.28 255.50 894.43 250.43 C 897.67 246.52 904.04 247.29 906.93 242.94 C 911.16 236.11 912.69 228.08 915.69 220.71 C 907.36 217.75 897.16 218.21 890.72 211.28 C 887.08 207.37 883.47 202.02 884.44 196.47 C 887.75 192.46 893.42 192.17 898.16 191.19 C 918.95 187.27 940.09 186.07 961.00 183.05 Z" />
<path fill="#000000" opacity="1.00" d=" M 507.49 182.33 C 508.90 180.78 510.81 181.92 512.32 182.64 C 516.68 184.83 521.10 187.03 524.97 190.04 C 530.05 194.02 533.32 199.95 534.80 206.16 C 536.10 211.12 535.60 216.28 536.20 221.33 C 537.60 240.54 537.91 259.81 539.23 279.02 C 539.57 297.00 539.05 315.00 539.55 332.97 C 539.31 335.89 539.80 339.34 537.56 341.63 C 534.24 345.42 528.84 346.71 523.97 346.22 C 518.01 345.55 512.25 343.75 506.46 342.30 C 504.19 341.59 501.46 341.07 500.21 338.80 C 497.38 334.32 495.97 329.09 495.21 323.89 C 493.24 310.35 493.73 296.64 493.72 283.00 C 493.30 268.04 495.69 253.21 496.76 238.32 C 498.29 223.24 501.50 208.40 503.72 193.42 C 504.69 189.69 504.89 185.32 507.49 182.33 Z" />
<path fill="#000000" opacity="1.00" d=" M 1236.77 402.03 C 1291.39 402.02 1346.01 401.90 1400.64 402.09 C 1400.59 430.06 1400.62 458.03 1400.62 486.00 C 1400.58 487.78 1400.40 489.55 1400.27 491.33 C 1345.79 491.57 1291.31 491.32 1236.84 491.48 C 1235.69 481.66 1237.64 471.79 1236.76 461.96 C 1236.95 448.32 1237.85 434.65 1237.00 421.01 C 1237.27 414.67 1236.44 408.36 1236.77 402.03 Z" />
</g>
<g id="#e73435ff">
<path fill="#e73435" opacity="1.00" d=" M 409.74 351.65 C 421.57 345.36 433.21 338.68 444.02 330.73 C 444.31 332.82 444.60 334.92 444.64 337.04 C 444.64 424.36 444.64 511.68 444.65 599.00 C 444.49 606.38 444.80 613.89 443.10 621.13 C 440.76 629.83 438.22 638.50 434.81 646.85 C 431.64 654.98 427.27 662.56 423.29 670.31 C 414.62 684.76 403.66 697.97 390.24 708.25 C 381.56 714.80 372.74 721.49 362.58 725.59 C 358.68 727.06 355.44 730.61 351.04 730.35 C 296.68 730.31 242.32 730.33 187.96 730.35 C 183.78 730.42 180.10 728.17 176.32 726.71 C 151.68 715.94 127.74 702.27 108.92 682.80 C 114.22 672.03 120.53 661.78 126.20 651.20 C 135.31 635.05 144.12 618.70 153.54 602.75 C 156.30 596.63 159.90 590.95 163.13 585.08 C 170.78 571.35 178.27 557.53 186.28 544.01 C 190.68 549.63 193.06 556.70 198.12 561.88 C 202.89 566.66 208.57 570.91 215.21 572.60 C 221.98 574.47 229.07 575.23 236.08 574.88 C 241.96 574.67 247.48 572.50 253.12 571.08 C 258.55 569.38 264.73 568.19 268.38 563.38 C 273.63 556.89 276.87 548.41 276.29 540.00 C 275.83 518.67 276.06 497.34 275.99 476.00 C 276.72 439.61 275.64 403.18 276.91 366.80 C 279.69 368.30 282.90 368.47 285.99 368.46 C 303.33 368.37 320.66 368.42 337.99 368.44 C 342.71 368.48 347.38 367.72 352.04 367.00 C 371.76 364.05 391.32 359.37 409.74 351.65 Z" />
<path fill="#e73435" opacity="1.00" d=" M 1598.37 391.41 C 1638.69 389.39 1679.62 399.05 1714.42 419.60 C 1742.79 436.21 1767.01 460.12 1783.20 488.81 C 1801.55 521.01 1808.98 559.30 1803.68 596.01 C 1798.86 630.66 1782.77 663.40 1759.14 689.10 C 1744.70 704.73 1727.79 718.35 1708.87 728.13 C 1685.94 728.61 1662.95 728.19 1640.00 728.33 C 1596.99 728.34 1553.97 728.31 1510.96 728.35 C 1509.44 728.34 1507.91 728.19 1506.63 727.37 C 1475.16 709.77 1448.39 683.39 1431.60 651.37 C 1414.26 618.69 1408.03 580.23 1414.45 543.78 C 1420.12 510.39 1436.29 479.09 1459.39 454.42 C 1494.96 416.07 1546.31 393.70 1598.37 391.41 M 1600.47 521.74 C 1589.67 523.45 1579.67 529.29 1572.74 537.72 C 1560.67 551.92 1558.23 573.15 1566.01 589.97 C 1571.86 603.01 1583.95 613.13 1597.99 616.09 C 1614.48 619.86 1632.69 613.39 1643.08 600.03 C 1656.91 583.26 1657.42 557.09 1644.22 539.81 C 1634.51 526.21 1616.97 518.97 1600.47 521.74 Z" />
<path fill="#e73435" opacity="1.00" d=" M 1062.05 405.09 C 1076.44 398.51 1092.25 395.31 1108.04 394.90 C 1129.83 394.13 1152.25 397.76 1171.44 408.55 C 1187.19 417.12 1199.97 430.59 1208.82 446.09 C 1220.14 466.22 1225.41 489.18 1227.56 512.01 C 1227.21 584.74 1227.67 657.50 1227.32 730.24 C 1195.88 730.46 1164.43 730.27 1133.00 730.33 C 1110.41 730.20 1087.80 730.60 1065.23 730.14 C 1065.25 681.75 1065.24 633.37 1065.29 584.99 C 1065.09 577.08 1066.72 568.17 1061.70 561.35 C 1051.99 547.85 1030.15 547.29 1018.46 558.46 C 1015.18 561.78 1012.69 566.18 1012.78 570.96 C 1012.79 624.02 1012.80 677.08 1012.78 730.14 C 987.86 730.59 962.92 730.20 938.00 730.33 C 908.65 730.26 879.30 730.47 849.95 730.23 C 849.76 622.47 849.93 514.70 849.87 406.94 C 849.42 404.45 851.15 401.55 853.96 402.01 C 897.64 401.92 941.32 402.11 985.00 401.99 C 991.08 401.90 997.16 402.32 1003.25 402.38 C 1000.47 411.35 997.21 420.44 997.39 429.97 C 997.20 435.91 997.66 441.91 999.41 447.62 C 1001.87 457.08 1005.21 466.72 1012.06 473.97 C 1015.98 478.06 1021.24 481.35 1027.03 481.57 C 1029.67 481.66 1032.93 480.56 1033.68 477.73 C 1035.19 472.35 1035.85 466.77 1037.20 461.35 C 1039.45 452.18 1040.22 442.73 1042.47 433.57 C 1044.12 426.43 1045.97 419.34 1047.47 412.16 C 1052.70 410.62 1057.11 407.29 1062.05 405.09 Z" />
<path fill="#e73435" opacity="1.00" d=" M 2025.67 402.63 C 2033.73 399.01 2042.70 398.79 2051.33 397.69 C 2063.51 396.30 2075.77 396.53 2088.00 396.85 L 2088.00 548.44 C 2079.95 545.94 2071.97 543.17 2063.75 541.30 C 2056.30 539.52 2048.62 539.11 2041.00 539.04 C 2032.91 539.18 2024.63 539.91 2017.13 543.16 C 2008.05 547.05 1999.31 552.25 1992.72 559.73 C 1981.99 571.75 1976.66 588.02 1976.69 604.01 C 1976.68 635.34 1976.69 666.67 1976.69 698.00 C 1976.57 708.74 1977.29 719.47 1976.95 730.21 C 1953.30 730.50 1929.65 730.25 1906.00 730.33 C 1876.69 730.25 1847.37 730.50 1818.06 730.21 C 1817.95 621.50 1817.98 512.78 1818.05 404.07 C 1840.69 403.27 1863.35 403.83 1886.00 403.67 C 1914.28 403.79 1942.57 403.43 1970.84 403.83 C 1973.82 407.41 1974.65 412.38 1974.73 416.94 C 1974.71 426.35 1975.67 435.76 1975.11 445.18 C 1980.63 435.32 1989.85 428.55 1997.53 420.53 C 2005.39 412.53 2015.43 407.00 2025.67 402.63 Z" />
<path fill="#e73435" opacity="1.00" d=" M 469.31 403.97 C 471.52 403.68 473.75 403.58 476.00 403.63 C 524.65 403.78 573.31 403.51 621.96 403.77 C 622.03 457.51 622.02 511.27 621.97 565.01 C 621.27 572.18 621.94 579.82 626.01 585.97 C 631.64 595.02 642.41 600.57 653.06 599.69 C 668.28 599.37 681.67 585.34 680.88 570.06 C 680.40 565.72 680.20 561.36 680.32 557.00 C 680.33 505.99 680.36 454.98 680.30 403.98 C 684.18 403.42 688.10 403.70 692.00 403.67 C 740.69 403.67 789.38 403.67 838.07 403.67 C 839.22 403.72 840.37 403.86 841.53 404.10 C 841.89 464.06 841.57 524.03 841.67 584.00 C 841.97 601.30 840.78 619.08 834.17 635.26 C 831.37 642.74 829.65 650.69 825.68 657.69 C 822.88 662.53 820.59 667.70 817.11 672.12 C 810.52 681.13 801.76 688.14 793.55 695.57 C 783.06 704.79 771.44 712.68 758.97 718.96 C 750.56 723.16 742.54 729.01 733.03 730.31 C 678.01 730.37 622.99 730.30 567.97 730.35 C 563.76 730.37 560.00 728.23 556.14 726.86 C 544.33 721.86 533.01 715.66 522.24 708.70 C 499.07 693.23 480.00 670.97 470.24 644.72 C 468.76 640.98 469.45 636.89 469.33 633.00 C 469.32 556.65 469.36 480.31 469.31 403.97 Z" />
<path fill="#e73435" opacity="1.00" d=" M 1236.84 491.48 C 1291.31 491.32 1345.79 491.57 1400.27 491.33 C 1400.36 570.97 1400.43 650.60 1400.23 730.23 C 1348.16 730.49 1296.07 730.23 1244.00 730.36 C 1241.69 730.37 1239.39 730.29 1237.11 730.22 C 1237.13 699.48 1237.13 668.74 1237.14 638.00 C 1237.26 620.34 1236.87 602.66 1237.47 585.00 C 1236.55 553.84 1237.74 522.63 1236.84 491.48 M 1284.43 512.53 C 1276.28 513.79 1270.08 521.82 1270.71 530.02 C 1270.86 538.87 1279.06 546.72 1287.99 545.96 C 1296.95 545.59 1304.14 536.82 1303.26 527.99 C 1302.99 518.68 1293.69 510.76 1284.43 512.53 M 1351.43 512.53 C 1342.91 513.82 1336.63 522.52 1337.79 531.01 C 1338.45 539.49 1346.42 546.69 1355.00 545.96 C 1363.95 545.58 1371.15 536.82 1370.26 527.99 C 1370.00 518.67 1360.69 510.76 1351.43 512.53 Z" />
</g>
<g id="#f6e551ff">
<path fill="#f6e551" opacity="1.00" d=" M 1284.43 512.53 C 1293.69 510.76 1302.99 518.68 1303.26 527.99 C 1304.14 536.82 1296.95 545.59 1287.99 545.96 C 1279.06 546.72 1270.86 538.87 1270.71 530.02 C 1270.08 521.82 1276.28 513.79 1284.43 512.53 Z" />
<path fill="#f6e551" opacity="1.00" d=" M 1351.43 512.53 C 1360.69 510.76 1370.00 518.67 1370.26 527.99 C 1371.15 536.82 1363.95 545.58 1355.00 545.96 C 1346.42 546.69 1338.45 539.49 1337.79 531.01 C 1336.63 522.52 1342.91 513.82 1351.43 512.53 Z" />
</g>
</svg>
