<?xml version="1.0" encoding="UTF-8" standalone="no"?>
<!-- Created with Inkscape (http://www.inkscape.org/) -->
<svg
   xmlns:svg="http://www.w3.org/2000/svg"
   xmlns="http://www.w3.org/2000/svg"
   version="1.0"
   width="573.53632"
   height="76.419998"
   id="Logo_DRK">
  <defs
     id="defs" />
  <path
     d="M 0,76.42 L 0,0 L 573.5363,0 L 573.5363,76.42 L 0,76.42 z"
     id="hintergrund"
     style="fill:#f26521;fill-opacity:1;fill-rule:nonzero;stroke:none" />
  <path
     d="M 368.71875,12.84375 C 366.08875,12.84375 363.78125,14.9825 363.84375,18.25 C 363.78126,21.389999 365.9675,23.5625 368.65625,23.5625 C 371.41125,23.562499 373.65625,21.39 373.59375,18.25 C 373.59375,14.982499 371.40875,12.84375 368.71875,12.84375 z M 30.28125,16.71875 C 26.9625,16.71875 23.784999,17.091249 21.71875,17.53125 L 21.71875,59.15625 C 23.41,59.345 25.903751,59.593751 28.53125,59.59375 C 34.66625,59.59375 38.742499,58.266249 41.625,55.6875 C 45.63125,52.23125 47.624999,45.886249 47.625,37.78125 C 47.625,29.86125 46.06875,24.147499 42.4375,20.75 C 39.62,18.0475 35.791249,16.718749 30.28125,16.71875 z M 350.75,16.8125 L 350.75,31.125 C 350.05874,29.49375 347.6925,28.1875 345.0625,28.1875 C 339.93125,28.1875 335.5,33.53875 335.5,44.03125 C 335.50001,51.823748 337.9275,59.71875 344.75,59.71875 C 347.18875,59.71875 350.5025,58.1675 351.75,55.78125 L 352.25,59.21875 L 359.53125,59.21875 C 359.40376,56.075002 359.28125,52.83125 359.28125,49.6875 L 359.28125,16.8125 L 350.75,16.8125 z M 165.3125,17.03125 L 165.3125,59.21875 L 173.90625,59.21875 L 173.90625,40.5 C 173.90625,39.68125 174.15751,38.347501 174.28125,37.90625 C 174.97,35.895 176.15375,35.406248 177.34375,35.40625 C 179.785,35.40625 180.46875,37.977498 180.46875,41.0625 L 180.46875,59.21875 L 189.0625,59.21875 L 189.0625,41.375 C 189.0625,33.70625 187.54125,28.15625 181.46875,28.15625 C 180.155,28.15625 178.28125,28.655 177.21875,29.21875 C 176.1525,29.78625 174.845,30.678749 173.90625,31.9375 L 173.90625,17.03125 L 165.3125,17.03125 z M 194.25,17.03125 L 194.25,59.21875 L 202.8125,59.21875 L 202.8125,17.03125 L 194.25,17.03125 z M 278.0625,17.03125 L 278.0625,31.125 C 277.37125,29.49125 275.0025,28.15625 272.375,28.15625 C 267.24,28.15625 262.78124,33.50375 262.78125,44 C 262.78125,51.79625 265.23875,59.718749 272.0625,59.71875 C 274.50375,59.71875 277.81124,58.13625 279.0625,55.75 L 279.5625,59.21875 L 286.84375,59.21875 C 286.72,56.075 286.59376,52.8 286.59375,49.65625 L 286.59375,17.03125 L 278.0625,17.03125 z M 475.90625,17.09375 L 475.90625,59.15625 L 484.4375,59.15625 L 484.4375,17.09375 L 475.90625,17.09375 z M 417.25,17.53125 L 417.25,59.21875 L 426.03125,59.21875 L 426.03125,40.125 L 426.125,40.125 L 435.625,59.21875 L 446.09375,59.21875 L 433.625,37.0625 L 445.1875,17.53125 L 435.34375,17.53125 L 426.125,34.75 L 426.03125,34.75 L 426.03125,17.53125 L 417.25,17.53125 z M 116.5,20.3125 L 107.90625,22.875 L 107.90625,28.65625 L 104.34375,28.65625 L 104.34375,34.4375 L 107.90625,34.4375 L 107.90625,48.59375 C 107.90625,53.56 108.84,56.083748 110.65625,57.65625 C 112.15875,59.1 114.30875,59.593751 116.75,59.59375 C 118.8175,59.59375 120.56125,59.41 121.8125,59.15625 L 121.8125,52.4375 C 121.24875,52.5 120.75125,52.562498 120.125,52.5625 C 118.30875,52.5625 116.5,51.67625 116.5,47.65625 L 116.5,34.4375 L 122.5625,34.4375 L 122.5625,28.65625 L 116.5,28.65625 L 116.5,20.3125 z M 499.53125,20.40625 L 491,22.96875 L 491,28.71875 L 487.4375,28.71875 L 487.4375,34.5 L 491,34.5 L 491,48.59375 C 491,53.54625 491.9412,56.0575 493.75,57.625 C 495.25,59.06625 497.34755,59.5625 499.78125,59.5625 C 501.83874,59.562501 503.59875,59.3725 504.84375,59.125 L 504.84375,52.4375 C 504.28375,52.494999 503.78125,52.53125 503.15625,52.53125 C 501.34755,52.531251 499.53125,51.67 499.53125,47.65625 L 499.53125,34.5 L 505.59375,34.5 L 505.59375,28.71875 L 499.53125,28.71875 L 499.53125,20.40625 z M 32.15625,23.5 C 36.6025,23.5 38.749998,28.793751 38.75,37.28125 C 38.75,48.595 35.663749,52.625 32.09375,52.625 C 31.59125,52.625 31.1575,52.626251 30.21875,52.5 L 30.21875,23.5625 C 31.21875,23.50125 31.591249,23.5 32.15625,23.5 z M 552.21875,28.03125 C 547.43503,28.031251 546.27875,30.74375 544.59375,34.03125 L 544.46875,34.03125 C 544.41622,32.211251 544.33245,30.35 544.28125,28.53125 L 536.6875,28.53125 C 536.84501,30.1125 536.90625,31.97375 536.90625,34.90625 L 536.90625,59.09375 L 545.21875,59.09375 L 545.21875,45.40625 C 545.21874,40.945 545.7875,36.25 550.625,36.25 C 551.78499,36.249999 552.51495,36.39125 553.40625,36.625 L 553.40625,28.03125 L 552.21875,28.03125 z M 63.09375,28.09375 C 56.0825,28.09375 50.499999,34.19125 50.5,44.625 C 50.5,54.24375 55.265001,59.531251 63.71875,59.53125 C 66.78625,59.53125 70.056248,59.034998 72.25,58.28125 L 71.21875,52.375 C 69.59125,52.815 67.663748,53.249999 65.46875,53.25 C 61.40125,53.25 58.846251,51.2425 58.71875,47.34375 L 73.5,47.46875 C 73.68625,46.52375 73.749998,45.135 73.75,42.9375 C 73.75,32.75375 69.542499,28.09375 63.09375,28.09375 z M 134.84375,28.15625 C 128.3325,28.15625 124.4375,32.563749 124.4375,38.15625 C 124.4375,40.67 125.2725,44.013748 130.46875,46.84375 C 133.15875,48.41125 134.15626,49.27375 134.15625,50.65625 C 134.15625,52.29 133.035,53.187501 130.90625,53.1875 C 129.02875,53.1875 126.81625,52.441251 125.375,51.8125 L 124,57.90625 C 125.5025,58.8475 128.52625,59.593751 130.90625,59.59375 C 137.605,59.59375 142.09375,56.195002 142.09375,49.84375 C 142.09375,46.76125 140.91626,43.516249 136.15625,40.875 C 133.08875,39.11375 132.46875,38.2875 132.46875,37.15625 C 132.46875,35.83625 133.34001,34.625002 135.53125,34.625 C 137.03375,34.625 138.34125,34.902501 139.46875,35.53125 L 140.78125,29.375 C 139.155,28.745 137.22251,28.15625 134.84375,28.15625 z M 218.59375,28.15625 C 214.2125,28.15625 210.66125,29.4325 208.71875,30.4375 L 210.09375,35.90625 C 211.97125,34.83375 213.96125,34.250002 216.46875,34.25 C 219.3475,34.25 221.09374,35.961251 221.09375,37.96875 L 221.09375,39.09375 C 213.89625,39.16 206.625,42.29625 206.625,50.40625 C 206.625,55.75 209.96125,59.718749 214.53125,59.71875 C 217.0975,59.71875 220.34126,58.701252 222.21875,56.1875 L 222.71875,59.21875 L 230.1875,59.21875 C 229.93625,57.14125 229.81249,54.890001 229.8125,52.5 L 229.8125,41.5625 C 229.8125,35.72 228.7975,28.15625 218.59375,28.15625 z M 250.78125,28.15625 C 247.77625,28.15625 244.31625,29.612501 242.5,32.25 L 242,28.65625 L 234.75,28.65625 C 234.87375,31.7375 235,35.075 235,38.21875 L 235,59.21875 L 243.59375,59.21875 L 243.59375,40.8125 C 243.59375,39.365 243.84,38.22625 244.15625,37.53125 C 244.84375,36.0875 245.84124,35.406248 247.09375,35.40625 C 249.34625,35.40625 250.15625,37.707499 250.15625,40.21875 L 250.15625,59.21875 L 258.71875,59.21875 L 258.71875,39.84375 C 258.71875,33.43 256.9175,28.15625 250.78125,28.15625 z M 389.0625,28.15625 C 382.86499,28.15625 377.0625,33.22625 377.0625,44.03125 C 377.0625,53.585002 381.17625,59.6875 389.0625,59.6875 C 393.44374,59.687499 400.84375,56.84875 400.84375,43.78125 C 400.84375,34.606249 396.75875,28.15625 389.0625,28.15625 z M 307.46875,28.1875 C 302.685,28.187499 301.52875,30.9025 299.84375,34.1875 L 299.75,34.1875 C 299.69501,32.367501 299.58625,30.475 299.53125,28.65625 L 291.96875,28.65625 C 292.12376,30.241249 292.15625,32.12875 292.15625,35.0625 L 292.15625,59.21875 L 300.46875,59.21875 L 300.46875,45.5625 C 300.46875,41.102501 301.03875,36.40625 305.875,36.40625 C 307.03374,36.40625 307.79375,36.5125 308.6875,36.75 L 308.6875,28.1875 L 307.46875,28.1875 z M 320.5625,28.1875 C 316.18124,28.1875 312.62625,29.43375 310.6875,30.4375 L 312.0625,35.90625 C 313.93625,34.836249 315.93375,34.28125 318.4375,34.28125 C 321.31625,34.28125 323.0625,35.99125 323.0625,38 L 323.0625,39.125 C 315.86499,39.190001 308.625,42.33125 308.625,50.4375 C 308.625,55.777498 311.9325,59.71875 316.5,59.71875 C 319.06875,59.718751 322.3375,58.7325 324.21875,56.21875 L 324.6875,59.21875 L 332.15625,59.21875 C 331.90876,57.141249 331.78125,54.89 331.78125,52.5 L 331.78125,41.5625 C 331.78126,35.719999 330.7625,28.1875 320.5625,28.1875 z M 158.3125,28.28125 C 149.73625,28.28125 143.90624,34.57 143.90625,44.3125 C 143.90625,54.24375 148.98625,59.593751 156.9375,59.59375 C 158.93875,59.59375 160.68625,59.219999 161.625,58.96875 L 161.0625,52.375 C 160.375,52.56375 159.56125,52.6875 158.6875,52.6875 C 154.805,52.6875 152.37499,49.34 152.375,43.9375 C 152.375,38.3425 154.9925,35.218751 158.875,35.21875 C 159.87625,35.21875 160.625,35.342501 161.3125,35.53125 L 162.25,28.84375 C 161.3725,28.59375 159.9425,28.281249 158.3125,28.28125 z M 77.9375,28.65625 L 77.9375,46.96875 C 77.9375,55.325 80.115,59.718749 85.875,59.71875 C 88.815,59.71875 92.090002,58.265002 93.84375,55.875 L 94.34375,59.21875 L 101.59375,59.21875 C 101.47,56.1375 101.34375,52.8 101.34375,49.65625 L 101.34375,28.65625 L 92.78125,28.65625 L 92.78125,48.09375 C 92.78125,49.28625 92.468749,50.342499 92.15625,50.96875 C 91.5925,52.1 90.626253,52.562498 89.6875,52.5625 C 87.68625,52.5625 86.499999,50.181249 86.5,45.96875 L 86.5,28.65625 L 77.9375,28.65625 z M 364.4375,28.6875 L 364.4375,59.21875 L 373,59.21875 L 373,28.6875 L 364.4375,28.6875 z M 446.9375,28.71875 L 446.9375,46.96875 C 446.93751,55.305 449.1312,59.6875 454.875,59.6875 C 457.80749,59.687498 461.065,58.2275 462.8125,55.84375 L 463.3125,59.1875 L 470.53125,59.1875 C 470.40376,56.12 470.28125,52.785 470.28125,49.65625 L 470.28125,28.71875 L 461.75,28.71875 L 461.75,48.09375 C 461.75001,49.283751 461.4387,50.3425 461.125,50.96875 C 460.565,52.096251 459.6238,52.53125 458.6875,52.53125 C 456.69,52.53125 455.5,50.16875 455.5,45.96875 L 455.5,28.71875 L 446.9375,28.71875 z M 508.625,28.71875 L 508.625,46.96875 C 508.625,55.305 510.82,59.6875 516.5625,59.6875 C 519.49623,59.687498 522.72125,58.2275 524.46875,55.84375 L 524.96875,59.1875 L 532.21875,59.1875 C 532.09494,56.12 531.96875,52.785 531.96875,49.65625 L 531.96875,28.71875 L 523.40625,28.71875 L 523.40625,48.09375 C 523.40623,49.283751 523.09375,50.3425 522.78125,50.96875 C 522.21993,52.096251 521.28245,52.53125 520.34375,52.53125 C 518.34872,52.53125 517.1875,50.16875 517.1875,45.96875 L 517.1875,28.71875 L 508.625,28.71875 z M 62.59375,34.0625 C 65.3475,34.0625 66.156252,37.728751 66.15625,41.6875 L 58.71875,41.6875 C 58.71875,38.10375 59.9,34.062499 62.59375,34.0625 z M 388.59375,34.4375 C 390.9125,34.437501 391.90625,39.3225 391.90625,43.84375 C 391.90624,48.6825 390.91,53.40625 388.65625,53.40625 C 386.21499,53.406251 385.03125,49.7525 385.03125,43.84375 C 385.03125,39.3225 385.96625,34.4375 388.59375,34.4375 z M 275.125,35.40625 C 276.75125,35.40625 277.56249,36.834999 277.9375,38.46875 C 278.065,39.09375 278.06249,39.715002 278.0625,40.34375 L 278.0625,48.65625 C 278.0625,49.59875 277.93499,50.213752 277.6875,50.78125 C 277.185,52.22625 276.19125,52.750001 275.125,52.75 C 273.2475,52.75 271.25,50.47125 271.25,44.25 C 271.25,39.21875 272.55875,35.406248 275.125,35.40625 z M 347.8125,35.40625 C 349.44,35.406251 350.25,36.86625 350.625,38.5 C 350.75249,39.128751 350.75,39.74625 350.75,40.375 L 350.75,48.65625 C 350.74999,49.598752 350.62625,50.245 350.375,50.8125 C 349.87624,52.256248 348.87625,52.75 347.8125,52.75 C 345.935,52.750001 343.9375,50.49875 343.9375,44.28125 C 343.9375,39.253748 345.2475,35.40625 347.8125,35.40625 z M 221.40625,44.1875 L 221.40625,49.90625 C 221.40625,50.47 221.34499,51.121251 221.15625,51.4375 C 220.53,53.07 218.97125,53.6875 217.78125,53.6875 C 216.52875,53.6875 214.59375,52.4875 214.59375,49.34375 C 214.59375,45.63625 217.71624,44.252499 221.40625,44.1875 z M 323.375,44.21875 L 323.375,49.9375 C 323.37499,50.505001 323.31375,51.125 323.125,51.4375 C 322.49874,53.074999 320.94,53.6875 319.75,53.6875 C 318.49874,53.687502 316.5625,52.515 316.5625,49.375 C 316.5625,45.667498 319.685,44.28375 323.375,44.21875 z"
     id="text"
     style="fill:#ffffff;fill-opacity:1;fill-rule:nonzero;stroke:none" />
</svg>
