<?xml version="1.0" encoding="UTF-8" standalone="no"?>
<!-- Created with Inkscape (http://www.inkscape.org/) -->
<svg
   xmlns:dc="http://purl.org/dc/elements/1.1/"
   xmlns:cc="http://creativecommons.org/ns#"
   xmlns:rdf="http://www.w3.org/1999/02/22-rdf-syntax-ns#"
   xmlns:svg="http://www.w3.org/2000/svg"
   xmlns="http://www.w3.org/2000/svg"
   xmlns:sodipodi="http://sodipodi.sourceforge.net/DTD/sodipodi-0.dtd"
   xmlns:inkscape="http://www.inkscape.org/namespaces/inkscape"
   width="805"
   height="135"
   id="svg3574"
   sodipodi:version="0.32"
   inkscape:version="0.46"
   version="1.0"
   sodipodi:docname="HD TV Eins Festival Logo.svg"
   inkscape:output_extension="org.inkscape.output.svg.inkscape">
  <defs
     id="defs3576">
    <clipPath
       id="clipPath3093">
      <path
         id="path3095"
         d="M 21.968,49.299 L 75.578,49.299 L 75.578,62.362 L 21.968,62.362 L 21.968,49.299 z" />
    </clipPath>
    <clipPath
       id="clipPath3085">
      <path
         id="path3087"
         d="M 0,0 L 595.276,0 L 595.276,841.89 L 0,841.89 L 0,0 z" />
    </clipPath>
    <clipPath
       id="clipPath3077">
      <path
         id="path3079"
         d="M 0,0 L 595.276,0 L 595.276,841.89 L 0,841.89 L 0,0 z" />
    </clipPath>
    <inkscape:perspective
       sodipodi:type="inkscape:persp3d"
       inkscape:vp_x="0 : 526.18109 : 1"
       inkscape:vp_y="0 : 1000 : 0"
       inkscape:vp_z="744.09448 : 526.18109 : 1"
       inkscape:persp3d-origin="372.04724 : 350.78739 : 1"
       id="perspective3582" />
  </defs>
  <sodipodi:namedview
     id="base"
     pagecolor="#ffffff"
     bordercolor="#666666"
     borderopacity="1.0"
     inkscape:pageopacity="0.0"
     inkscape:pageshadow="2"
     inkscape:zoom="1.0400179"
     inkscape:cx="402.5"
     inkscape:cy="67.5"
     inkscape:document-units="px"
     inkscape:current-layer="layer1"
     showgrid="false"
     inkscape:window-width="1280"
     inkscape:window-height="1005"
     inkscape:window-x="-4"
     inkscape:window-y="-4" />
  <metadata
     id="metadata3579">
    <rdf:RDF>
      <cc:Work
         rdf:about="">
        <dc:format>image/svg+xml</dc:format>
        <dc:type
           rdf:resource="http://purl.org/dc/dcmitype/StillImage" />
      </cc:Work>
    </rdf:RDF>
  </metadata>
  <g
     inkscape:label="Ebene 1"
     inkscape:groupmode="layer"
     id="layer1"
     transform="translate(-89.46799,-455.98894)">
    <g
       id="g3548"
       transform="matrix(1.3217071,0,0,1.3217071,-480.35223,370.91977)">
      <g
         transform="matrix(0.468528,0,0,0.468528,408.0585,-50.362425)"
         id="g3591">
        <g
           transform="matrix(1.25,0,0,-1.25,442.39795,359.14547)"
           id="g3073">
          <g
             clip-path="url(#clipPath3077)"
             id="g3075" />
        </g>
        <g
           transform="matrix(1.25,0,0,-1.25,442.39795,359.14547)"
           id="g3081">
          <g
             clip-path="url(#clipPath3085)"
             id="g3083" />
        </g>
        <g
           transform="matrix(1.25,0,0,-1.25,442.39795,359.14547)"
           id="g3089">
          <g
             clip-path="url(#clipPath3093)"
             id="g3091" />
        </g>
        <g
           transform="translate(35.433033,35.467595)"
           id="g4038">
          <path
             d="M 1272.6521,298.79226 L 1272.6521,240.63051 L 1214.1811,261.62764 L 1214.1811,276.08709 L 1233.5438,269.07823 L 1233.5438,312.78053 L 1272.6521,298.79226 z M 1249.3138,225.69987 C 1221.9557,225.69987 1199.7511,247.88968 1199.7511,275.27724 C 1199.7511,302.65008 1221.9557,324.85461 1249.3138,324.85461 C 1276.7161,324.85461 1298.8911,302.65008 1298.8911,275.27724 C 1298.8911,247.88968 1276.7161,225.69987 1249.3138,225.69987 M 1249.3138,217.15967 C 1281.4132,217.15967 1307.4314,243.19257 1307.4314,275.27724 C 1307.4314,307.36192 1281.4132,333.36537 1249.3138,333.36537 C 1217.2438,333.36537 1191.2256,307.36192 1191.2256,275.27724 C 1191.2256,243.19257 1217.2438,217.15967 1249.3138,217.15967"
             id="path3155"
             style="fill:#ee262c;fill-opacity:1;fill-rule:nonzero;stroke:none" />
          <path
             d="M 261.34291,324.19661 L 244.43919,418.84566 L 292.51466,418.84566 L 309.02082,324.19661 L 359.15772,324.19661 L 366.358,288.59278 L 316.23582,288.59278 L 309.02082,324.19661 L 261.34291,324.19661 z"
             id="path3159"
             style="fill:#ee262c;fill-opacity:1;fill-rule:nonzero;stroke:none" />
          <path
             d="M 341.7357,259.31006 C 350.05504,258.39714 365.32434,258.60328 374.71857,259.32478 L 380.52002,227.81437 C 355.562,226.1505 342.56027,226.43026 330.51564,227.60822 C 318.69187,228.78618 301.59673,231.23045 288.12382,244.43832 C 278.08171,254.21539 271.41152,271.25162 267.70094,288.59708 L 316.23288,288.59708 C 318.73604,276.19905 323.62457,261.34204 341.7357,259.31006"
             id="path3163"
             style="fill:#ee262c;fill-opacity:1;fill-rule:nonzero;stroke:none" />
          <path
             d="M 451.92351,338.23201 C 452.18855,336.64176 452.45359,333.99136 452.45359,332.12134 C 452.45359,325.21556 448.46325,314.5992 435.99161,314.5992 C 432.26631,314.5992 416.59945,315.9244 412.60911,338.23201 L 451.92351,338.23201 z M 408.89854,363.46979 C 408.6335,365.32508 408.10342,369.05038 408.10342,371.43574 C 408.10342,384.4522 418.45474,389.22293 427.49557,389.22293 C 442.8974,389.22293 447.93317,378.07649 450.0535,373.02599 L 494.15336,380.19682 C 489.63294,388.95789 482.72715,402.76947 460.94962,414.19567 C 454.30888,417.64121 442.35259,422.95675 424.03532,422.95675 C 385.79581,422.95675 358.4377,399.58898 358.4377,361.0697 C 358.4377,321.50498 387.91613,285.10604 435.18176,285.10604 C 477.67665,285.10604 500.51434,311.93406 500.51434,348.59805 C 500.51434,354.44368 499.71922,358.68433 499.18914,363.46979 L 408.89854,363.46979"
             id="path3167"
             style="fill:#ee262c;fill-opacity:1;fill-rule:nonzero;stroke:none" />
          <path
             d="M 603.11446,327.0781 C 598.87381,316.71206 588.50776,314.32669 578.68652,314.32669 C 570.44081,314.32669 564.87495,317.25686 564.87495,322.0276 C 564.87495,328.4033 570.17577,329.46347 580.80685,331.59852 C 606.29495,336.91406 611.61049,338.48958 619.3114,343.02473 C 632.06282,350.44587 638.9686,361.07696 638.9686,375.15357 C 638.9686,390.29035 629.39768,422.15416 573.37098,422.15416 C 554.77395,422.15416 537.2518,418.70863 523.44022,409.15243 C 510.42377,400.37663 507.50832,390.29035 505.37327,382.83976 L 546.27791,377.00886 C 548.39824,381.79432 552.12354,391.08548 573.90106,391.08548 C 588.24272,391.08548 591.15817,385.50489 591.15817,382.83976 C 591.15817,377.80398 588.24272,377.2739 565.40503,372.2234 C 550.79833,368.77787 517.85964,361.60704 517.85964,331.05371 C 517.85964,309.27619 534.05658,284.84825 578.15644,284.84825 C 594.08835,284.84825 608.43,288.02874 621.69677,296.00942 C 635.77339,304.22569 639.23364,312.4714 641.35397,318.58207 L 603.11446,327.0781"
             id="path3171"
             style="fill:#ee262c;fill-opacity:1;fill-rule:nonzero;stroke:none" />
          <path
             d="M 794.79218,419.23291 L 744.08102,419.23291 L 765.84382,288.30271 L 816.83475,288.30271 L 794.79218,419.23291 z"
             id="path3175"
             style="fill:#ee262c;fill-opacity:1;fill-rule:nonzero;stroke:none" />
          <path
             d="M 899.73822,419.23291 L 860.43855,419.23291 L 827.23481,288.30271 L 878.24046,288.30271 L 893.1122,359.74595 L 927.89145,288.30271 L 964.54072,288.30271 L 899.73822,419.23291 z"
             id="path3179"
             style="fill:#ee262c;fill-opacity:1;fill-rule:nonzero;stroke:none" />
          <path
             d="M 1028.1429,381.78988 C 1032.9136,375.41417 1034.2536,366.12302 1035.3137,357.0969 C 1020.6923,358.68715 999.45959,361.07252 999.45959,379.93459 C 999.45959,388.16559 1006.1003,390.81599 1010.8711,390.81599 C 1014.3166,390.81599 1022.0322,389.49079 1028.1429,381.78988 M 961.75016,320.963 C 967.33074,309.81655 979.80239,284.57877 1032.3983,284.57877 C 1052.0408,284.57877 1092.9454,288.30407 1092.9454,322.56797 C 1092.9454,334.52425 1080.194,395.8665 1080.194,407.54302 C 1080.194,412.06344 1080.7241,415.25865 1081.5192,419.23427 L 1030.2632,419.23427 C 1029.7331,416.31882 1029.7331,413.65369 1029.7331,412.32848 C 1029.7331,409.94311 1029.7331,406.23254 1030.7933,397.45674 C 1025.2127,405.70246 1014.0663,422.14972 987.5033,422.14972 C 965.19569,422.14972 945.80353,408.08783 945.80353,384.44029 C 945.80353,370.3784 952.72404,348.32111 986.17809,340.10484 C 997.85462,337.4397 999.19454,337.17466 1039.8194,333.46409 C 1040.6293,331.064 1041.4097,328.13382 1041.4097,325.74846 C 1041.4097,320.71268 1037.4341,315.1321 1026.2876,315.1321 C 1011.946,315.1321 1006.6304,325.21837 1004.245,329.73879 L 961.75016,320.963"
             id="path3183"
             style="fill:#ee262c;fill-opacity:1;fill-rule:nonzero;stroke:none" />
          <path
             d="M 1145.5265,419.23291 L 1095.8608,419.23291 L 1125.3392,242.09725 L 1175.2847,242.09725 L 1145.5265,419.23291 z"
             id="path3187"
             style="fill:#ee262c;fill-opacity:1;fill-rule:nonzero;stroke:none" />
          <path
             d="M 651.31966,320.96888 L 669.37189,320.96888 L 661.42066,368.24923 C 659.02057,382.32585 659.02057,384.97626 659.02057,387.36162 C 659.02057,399.31791 662.4661,405.42858 666.45644,409.949 C 672.83215,417.37014 680.26802,422.1556 699.92521,422.1556 C 712.13182,422.1556 719.83273,420.56536 727.00356,419.24015 L 732.58414,384.97626 C 729.38893,385.77138 725.41331,386.5665 720.36281,386.5665 C 715.32704,386.5665 708.15621,384.97626 708.15621,377.0103 C 708.15621,375.15502 708.95133,371.16468 709.21637,368.24923 L 717.18232,320.96888 L 741.08018,320.96888 L 746.39572,288.32468 L 656.6352,288.32468 L 651.31966,320.96888"
             id="path3191"
             style="fill:#ee262c;fill-opacity:1;fill-rule:nonzero;stroke:none" />
        </g>
      </g>
      <g
         style="stroke:none"
         transform="matrix(1.014289,0,0,1,-15.17237,41.870268)"
         id="g3511">
        <path
           style="fill:#000000;fill-opacity:1;fill-rule:evenodd;stroke:none;stroke-width:0.74550557;stroke-linecap:butt;stroke-linejoin:miter;stroke-miterlimit:4;stroke-dasharray:none;stroke-opacity:1"
           d="M 495.21056,56.055934 L 488.24243,90.806078 C 488.24243,90.806078 495.32336,90.806078 498.35895,90.806078 C 516.71659,90.806078 521.20049,82.593722 523.06211,73.30974 C 524.74338,64.925279 523.54684,56.055934 505.32707,56.055934 C 502.29149,56.055934 495.21056,56.055934 495.21056,56.055934 z M 503.82757,63.533931 C 503.82757,63.533931 505.80316,63.533931 506.6493,63.533931 C 513.11897,63.533931 513.82626,68.918051 512.89387,73.567812 C 511.90366,78.505965 508.99583,83.682547 503.09352,83.682547 C 502.10234,83.682547 499.78735,83.682547 499.78736,83.682547 L 503.82757,63.533931 z"
           id="path2481" />
        <path
           style="fill:#000000;fill-opacity:1;stroke:none;stroke-width:0.76177096;stroke-linecap:butt;stroke-linejoin:miter;stroke-miterlimit:4;stroke-dasharray:none;stroke-dashoffset:0;stroke-opacity:1"
           d="M 456.14044,56.064066 L 448.86153,90.797946 L 459.28887,90.797946 L 462.33629,76.256087 L 474.60311,76.256087 L 471.55569,90.797946 L 481.98302,90.797946 L 489.26194,56.064066 L 478.8346,56.064066 L 476.21507,68.564036 L 463.94827,68.564036 L 466.56779,56.064066 L 456.14044,56.064066 z"
           id="rect2490" />
      </g>
      <g
         transform="translate(0,-70.08912)"
         id="g3524">
        <path
           sodipodi:nodetypes="ccccccc"
           style="opacity:1;fill:#000000;fill-opacity:1;stroke:none;stroke-width:0.73708731;stroke-linecap:butt;stroke-linejoin:miter;stroke-miterlimit:4;stroke-dasharray:none;stroke-dashoffset:0;stroke-opacity:1"
           d="M 439.38476,206.38111 C 438.80894,206.79728 436.12468,220.3185 433.30688,232.01597 L 508.41601,231.97486 C 512.19765,231.97486 515.22849,228.94401 515.22851,225.16236 L 515.22851,213.19361 C 515.22851,209.41197 512.19765,206.38111 508.41601,206.38111 L 439.38476,206.38111 z"
           id="rect3519" />
        <path
           style="font-size:283.51730347px;font-style:italic;font-variant:normal;font-weight:bold;font-stretch:normal;text-align:start;line-height:100%;writing-mode:lr-tb;text-anchor:start;fill:#ffffff;fill-opacity:1;stroke:none;stroke-width:1px;stroke-linecap:butt;stroke-linejoin:miter;stroke-opacity:1;font-family:Arial;-inkscape-font-specification:Arial Bold Italic"
           d="M 464.0433,227.29423 L 460.3884,227.29423 L 463.4866,214.03889 L 458.28258,214.03889 L 458.8998,211.37914 L 472.87805,211.37914 L 472.26082,214.03889 L 467.12942,214.03889 L 464.0433,227.29423 z M 482.38152,227.29423 L 478.48456,227.29423 L 475.30163,211.37914 L 478.94445,211.37914 L 481.19549,223.4186 L 488.54163,211.37914 L 492.16024,211.37914 L 482.38152,227.29423 z"
           id="text2734"
           sodipodi:nodetypes="ccccccccccccccccc" />
      </g>
    </g>
  </g>
</svg>
