<?xml version="1.0" encoding="UTF-8" standalone="no"?>
<!-- Created with Inkscape (http://www.inkscape.org/) -->
<svg
   xmlns:svg="http://www.w3.org/2000/svg"
   xmlns="http://www.w3.org/2000/svg"
   version="1.0"
   width="602.36218"
   height="340.47638"
   id="svg4819">
  <defs
     id="defs4821" />
  <g
     id="layer1">
    <g
       transform="matrix(3.543307e-5,0,0,3.543307e-5,-1.421014e-3,-3.538425e-3)"
       style="fill-rule:evenodd"
       id="Layer_x0020_1">
  
  <path
   d="M 16295300,3168350 C 16295300,3242190 16288580,3316040 16281870,3359670 C 16218100,3379810 16073770,3406660 15815330,3410020 C 15701220,3410020 15566960,3399950 15412560,3386520 L 15412560,2926700 C 15845540,2859560 16161040,2933400 16281870,2973680 C 16285230,3017310 16295300,3091160 16295300,3168350 z M 16500040,3158280 C 16500040,2883060 16449690,2822640 16449690,2822640 C 16449690,2822640 16221460,2695100 15751560,2695100 C 15650870,2695100 15533390,2701820 15412560,2718590 L 15412560,2285620 L 15207820,2285620 L 15207820,3571120 C 15207820,3571120 15533390,3614760 15811970,3614760 C 16322150,3614760 16453050,3507350 16453050,3507350 C 16453050,3507350 16500040,3440220 16500040,3158280 z M 14878890,3168350 C 14878890,3242190 14872180,3316040 14868830,3359670 C 14805060,3379810 14657370,3406660 14402280,3410020 C 14288170,3410020 14153910,3399950 13996160,3386520 L 13996160,2926700 C 14432490,2859560 14744640,2933400 14865460,2973680 C 14872180,3017310 14878890,3091160 14878890,3168350 z M 15083630,3158280 C 15083630,2883060 15036640,2822640 15036640,2822640 C 15036640,2822640 14805060,2695100 14335160,2695100 C 14234470,2695100 14116990,2701820 13996160,2718590 L 13996160,2285620 L 13791420,2285620 L 13791420,3571120 C 13791420,3571120 14116990,3614760 14395580,3614760 C 14905750,3614760 15036640,3507350 15036640,3507350 C 15036640,3507350 15083630,3440220 15083630,3158280 z M 13660510,2698450 C 12875120,2705170 12562970,2889770 12562970,2889770 L 12562970,3601330 L 12771070,3601330 L 12771070,3024030 C 12868410,2990470 13143630,2909910 13660510,2903200 L 13660510,2698450 z M 12707300,5121780 C 12193770,5151990 11834640,5192270 11421790,5256040 C 11066010,5309740 10565910,5410430 10223550,5511130 C 10629680,4927110 10992170,4403510 11660100,4222270 C 11972240,4138350 11861480,3752360 11552700,3745660 C 10925040,3735590 10297400,3752360 9669750,3789290 C 9770440,3597970 9871130,3410020 9968470,3232120 C 10109440,2970330 9629470,2742090 9481790,2997170 C 9327400,3265690 9173000,3544270 9028670,3839630 C 8612480,3879910 7864000,3987310 7743170,4027590 C 7303480,4165210 6894000,4463920 6534860,4866700 C 6615420,4651890 6706040,4443790 6803370,4249110 C 6937630,3973890 6766460,3691950 6514730,3691950 C 5987770,3698660 5531290,3960470 5165440,4333020 C 5192300,4118210 5219150,3903400 5252710,3688590 C 5323200,3181780 5400400,2678320 5480960,2195000 C 5480960,2191630 5544720,1805660 5544720,1805660 L 5105040,1637830 C 5105040,1637830 4903650,1560640 4903650,1560640 C 4903650,1560640 4249150,1322330 4249150,1322330 C 4245790,1322330 3544310,1073960 3544310,1073960 C 3544310,1073960 2799180,825580 2799180,825580 C 2795820,825580 1775470,500000 1775470,500000 L 1708350,563780 C 1708350,563780 1600940,677900 1597590,677900 C 1597590,677900 832330,1439810 832330,1439810 L 761840,1866060 C 761840,1866060 711500,2164790 711500,2164790 C 711500,2168140 661150,2470220 661150,2470220 C 661150,2473580 557100,3151570 557100,3151570 L 926310,3245550 L 1349210,3352950 C 1349210,3352950 1342500,3342880 1342500,3339530 C 1416340,3369740 1543880,3403300 1768770,3463720 C 1765410,3460360 2171530,3574480 2171530,3574480 C 2174890,3574480 2211810,3584550 2215160,3584550 C 2215160,3587900 2215160,3587900 2215160,3591260 C 2131250,3581190 1725130,3544270 1725130,3544270 L 1674780,3554340 L 728270,3712090 L 647730,4322950 C 647730,4322950 607450,4631750 607450,4631750 C 607450,4631750 570530,4937170 570530,4937170 C 570530,4940540 500040,5595030 500040,5595030 L 839040,5689010 L 1496900,5873610 C 1496900,5873610 1809040,5890400 1913090,5893750 C 1909730,5940740 1903020,5994440 1903020,5994440 C 1903020,5997810 1842610,6652300 1842610,6652300 C 1842610,6655660 1795610,7283300 1795610,7283300 C 1795610,7286660 1758700,8085490 1758700,8085490 L 1913090,8213030 C 1909730,8213030 2883090,9052130 2883090,9052130 L 2946860,9109200 L 4802960,8525170 L 4813030,8233170 C 4826450,7803550 4856660,7326940 4896930,6810050 C 4927140,6427430 4967420,6021300 5014410,5595030 C 5246010,5151990 5608490,4719010 6007910,4514270 C 5826660,4987520 5551430,6091780 5339980,7363860 C 5256070,7870680 5863580,7863970 5967630,7444410 C 6333480,5964240 6528150,5786350 6897350,5366800 C 7008110,5239250 7192720,5141910 7350470,5007660 C 7323620,5098280 7236350,5326520 7212850,5420500 C 7102090,5816560 6920850,6343520 6954410,6759710 C 6977910,7055070 7370610,7078560 7498150,6806700 C 7662610,6464340 7726390,5913890 7770020,5739360 C 7870720,5333230 7978120,4920400 8156010,4567970 C 8172790,4531060 8182860,4494130 8189570,4457220 C 8377530,4433720 8572210,4410220 8770230,4386730 C 8538640,4917040 8323830,5568190 8186220,6189120 C 8078810,6672440 8726600,6712720 8793720,6252890 C 8887710,5591680 9136080,4883470 9404590,4312880 C 9783870,4275970 10166500,4242400 10549120,4222270 C 10012100,4685450 9639540,5333230 9270340,5923960 C 9095800,6202550 9360960,6444200 9646250,6309950 C 10176570,6061580 10710230,5900470 11267400,5799770 C 11680230,5725930 12203840,5645380 12781140,5625240 C 13093290,5615170 13143630,5094930 12707300,5121780 z "
   style="fill:black;fill-opacity:1"
   id="path6502" />

  <path
   d="M 8192890,3322740 C 8353990,3403300 8508390,3326110 8572170,3185140 C 8575520,3178420 8578870,3171700 8582230,3165000 C 8585590,3161640 8599010,3134790 8602370,3128070 C 8622510,3094510 8646010,3064300 8669500,3037450 C 8693000,3007240 8716490,2980400 8743340,2953540 C 8810470,2883060 8823890,2802500 8817180,2695100 C 8807110,2533990 8629220,2416510 8491610,2406450 C 8347290,2396380 8263370,2513850 8182820,2611190 C 8115690,2695100 8065350,2795790 8018350,2896480 C 7951230,3047520 8051920,3252260 8192890,3322740 z "
   id="path6508" />

  <path
   d="M 2443360,5504410 C 2423230,5504410 2396370,5501060 2376230,5501060 C 2352740,5682300 2332600,5860190 2315820,6038080 C 2295680,6259600 2275540,6474410 2255400,6689220 C 2238620,6900680 2221840,7108770 2211770,7310160 C 2198350,7514900 2188280,7709570 2181560,7897530 L 3044160,8642650 C 3050870,8411060 3060940,8172760 3077720,7924380 C 3091150,7679360 3111290,7424270 3131420,7162480 C 3151560,6904030 3178420,6638880 3205270,6370360 C 3228760,6101850 3258970,5829980 3292530,5558110 C 3154920,5548050 3013950,5537970 2872980,5531260 C 2732010,5521190 2587690,5511130 2443360,5504410 z M 3168350,2869630 C 3007240,2822640 2842780,2775660 2678310,2728660 C 2510490,2681670 2342670,2634690 2171490,2587690 C 2000310,2540710 1829130,2493710 1654600,2450080 C 1674740,2322540 1691530,2198350 1711660,2070800 C 1731800,1946620 1751940,1822430 1768730,1701600 C 1788870,1577410 1809000,1453230 1829130,1332400 C 1849270,1211570 1869410,1090730 1892910,969910 L 1221630,1641180 C 1201490,1738520 1184710,1835860 1167930,1933190 C 1151140,2033890 1137720,2131230 1120940,2231910 C 1104150,2332610 1087370,2433300 1070590,2537350 C 1057170,2638040 1040380,2738730 1026960,2842780 C 1167930,2876350 1312250,2913260 1453220,2950190 C 1594190,2987100 1735160,3024030 1876130,3060950 C 2010380,3097870 2148000,3134790 2285610,3175070 C 2416510,3211980 2550760,3248910 2681670,3285830 C 2668240,3363020 2658170,3436860 2644740,3514060 C 2634680,3591260 2621250,3668460 2611180,3745660 C 2597760,3822850 2587690,3900050 2574260,3980600 C 2570900,4000740 2567550,4020880 2564200,4041020 C 2587690,4044370 2607830,4047740 2631320,4047740 C 2775640,4064510 2916610,4077940 3057580,4094720 C 3198560,4111510 3336160,4128280 3473780,4145070 C 3487200,4047740 3500630,3950400 3514060,3856420 C 3527480,3762430 3540900,3665100 3557690,3571120 C 3571110,3477150 3584540,3383160 3597970,3289180 C 3614750,3195210 3628170,3104580 3641600,3013960 C 3487200,2963610 3329460,2916620 3168350,2869630 z M 1057170,4376660 C 1047100,4477360 1033670,4578040 1020240,4682100 C 1006820,4782780 996750,4883470 983330,4984170 C 973260,5088210 963190,5188910 949760,5289600 L 1560620,5460780 C 1574050,5339950 1590830,5215760 1604260,5088210 C 1617690,4964030 1631110,4839840 1647900,4715660 C 1661320,4588110 1678100,4463920 1694880,4339740 C 1708310,4212190 1725090,4088010 1741870,3963820 L 1097440,4071230 C 1084020,4171920 1070590,4275970 1057170,4376660 z "
   style="fill:#660e0f;fill-opacity:1"
   id="path6510" />

  <path
   d="M 1892910,969910 C 2154710,1053820 2413160,1137730 2668240,1221630 C 2919970,1302190 3168350,1386100 3410010,1466650 C 3648310,1550560 3883260,1631120 4108140,1711670 C 4333020,1792220 4551180,1872780 4759290,1949980 C 4786130,1960050 4819700,1973470 4853260,1986890 C 4886820,2000320 4923750,2013750 4957310,2023820 C 4990870,2037240 5021090,2047310 5041220,2057380 C 5064720,2064100 5078140,2070800 5081500,2070800 L 5071430,2124510 C 4990870,2604480 4913680,3111300 4839840,3628180 C 4765990,4151780 4698870,4682100 4638450,5212400 C 4578040,5742720 4524340,6269670 4484060,6776490 C 4443780,7283300 4413570,7769980 4396790,8216390 L 3044160,8642650 C 3050870,8411060 3060940,8172760 3077720,7924380 C 3091150,7679360 3111290,7424270 3131420,7162480 C 3151560,6904030 3178420,6638880 3205270,6370360 C 3228760,6101850 3258970,5829980 3292530,5558110 C 3154920,5548050 3013950,5537970 2872980,5531260 C 2732010,5521190 2587690,5511130 2443360,5504410 C 2299030,5494340 2154710,5487620 2007030,5480920 C 1859350,5474200 1711660,5467490 1560620,5460780 C 1574050,5339950 1590830,5215760 1604260,5088210 C 1617690,4964030 1631110,4839840 1647900,4715660 C 1661320,4588110 1678100,4463920 1694880,4339740 C 1708310,4212190 1725090,4088010 1741870,3963820 C 1892910,3977250 2043950,3990670 2191630,4004100 C 2339320,4017520 2483640,4034300 2631320,4047740 C 2775640,4064510 2916610,4077940 3057580,4094720 C 3198560,4111510 3336160,4128280 3473780,4145070 C 3487200,4047740 3500630,3950400 3514060,3856420 C 3527480,3762430 3540900,3665100 3557690,3571120 C 3571110,3477150 3584540,3383160 3597970,3289180 C 3614750,3195210 3628170,3104580 3641600,3013960 C 3487200,2963610 3329460,2916620 3168350,2869630 C 3007240,2822640 2842780,2775660 2678310,2728660 C 2510490,2681670 2342670,2634690 2171490,2587690 C 2000310,2540710 1829130,2493710 1654600,2450080 C 1674740,2322540 1691530,2198350 1711660,2070800 C 1731800,1946620 1751940,1822430 1768730,1701600 C 1788870,1577410 1809000,1453230 1829130,1332400 C 1849270,1211570 1869410,1090730 1892910,969910 z "
   style="fill:#ec1b24"
   id="path6512" />

 </g>
  </g>
</svg>
