<?xml version="1.0" encoding="UTF-8" standalone="no"?>
<!-- Created with Inkscape (http://www.inkscape.org/) -->
<svg
   xmlns:dc="http://purl.org/dc/elements/1.1/"
   xmlns:cc="http://creativecommons.org/ns#"
   xmlns:rdf="http://www.w3.org/1999/02/22-rdf-syntax-ns#"
   xmlns:svg="http://www.w3.org/2000/svg"
   xmlns="http://www.w3.org/2000/svg"
   xmlns:sodipodi="http://sodipodi.sourceforge.net/DTD/sodipodi-0.dtd"
   xmlns:inkscape="http://www.inkscape.org/namespaces/inkscape"
   version="1.0"
   width="1024"
   height="425"
   id="svg26043"
   sodipodi:version="0.32"
   inkscape:version="0.46"
   sodipodi:docname="KIKA-Logo.svg"
   inkscape:output_extension="org.inkscape.output.svg.inkscape">
  <metadata
     id="metadata16">
    <rdf:RDF>
      <cc:Work
         rdf:about="">
        <dc:format>image/svg+xml</dc:format>
        <dc:type
           rdf:resource="http://purl.org/dc/dcmitype/StillImage" />
      </cc:Work>
    </rdf:RDF>
  </metadata>
  <sodipodi:namedview
     inkscape:window-height="850"
     inkscape:window-width="1440"
     inkscape:pageshadow="2"
     inkscape:pageopacity="0.0"
     guidetolerance="10.0"
     gridtolerance="10.0"
     objecttolerance="10.0"
     borderopacity="1.0"
     bordercolor="#666666"
     pagecolor="#ffffff"
     id="base"
     showgrid="false"
     inkscape:zoom="0.94401146"
     inkscape:cx="416.32312"
     inkscape:cy="142.36287"
     inkscape:window-x="-8"
     inkscape:window-y="-8"
     inkscape:current-layer="svg26043" />
  <defs
     id="defs26045" />
  <g
     id="g3671"
     transform="matrix(1.0094483,0,0,1.0094483,-3.387779e-2,1.9682053)">
    <g
       transform="matrix(27.449294,0,0,-27.449294,6.9863412,157.449)"
       id="g2808">
      <path
         id="path2810"
         style="fill:#ffcc00;fill-opacity:1;fill-rule:nonzero;stroke:none"
         d="M 0,0 L 0.004,-3.633 C 0.004,-3.633 -0.061,-4.004 0.355,-3.962 C 0.686,-3.949 1.018,-3.951 1.297,-3.951 C 1.619,-3.95 1.978,-3.954 2.343,-3.953 C 2.574,-3.956 2.61,-3.801 2.61,-3.801 L 2.68,-1.748 C 2.68,-1.748 2.671,-1.668 2.693,-1.602 C 2.715,-1.535 2.761,-1.472 2.761,-1.472 L 3.736,-0.606 C 3.736,-0.606 3.881,-0.513 4.031,-0.514 C 4.146,-0.509 4.205,-0.585 4.284,-0.626 C 4.927,-1.209 5.412,-2.727 5.885,-3.708 C 6.131,-4.195 6.177,-4.207 6.591,-4.19 C 6.977,-4.179 8.5,-4.152 9.064,-4.172 C 9.178,-4.177 9.418,-4.18 9.487,-4.044 C 9.58,-3.857 9.461,-3.609 9.461,-3.609 L 6.823,1.419 C 6.823,1.419 6.702,1.669 6.687,1.767 C 6.671,1.875 6.816,2.049 6.816,2.049 L 9.429,5.224 C 9.429,5.224 9.548,5.388 9.454,5.486 C 9.368,5.576 9.206,5.571 9.206,5.571 L 6.655,5.528 C 6.655,5.528 6.505,5.528 6.464,5.507 C 6.377,5.464 6.322,5.397 6.322,5.397 L 3.472,2.302 C 3.472,2.302 3.352,2.223 3.248,2.253 C 3.12,2.291 3.099,2.412 3.099,2.412 L 3.066,5.199 C 3.066,5.199 3.073,5.379 3.008,5.457 C 2.96,5.515 2.853,5.517 2.853,5.517 L 0.243,5.477 C 0.243,5.477 0.183,5.489 0.098,5.426 C -0.018,5.341 0.011,5.219 0.011,5.219 L 0,0 z" />
    </g>
    <g
       transform="matrix(27.449294,0,0,-27.449294,492.45455,170.37762)"
       id="g2812">
      <path
         id="path2814"
         style="fill:#d6361b;fill-opacity:1;fill-rule:nonzero;stroke:none"
         d="M 0,0 L 0.026,-3.277 C 0.026,-3.277 -0.028,-3.745 0.416,-3.692 C 0.742,-3.686 1.042,-3.684 1.32,-3.683 C 1.547,-3.683 1.785,-3.686 2.032,-3.692 C 2.701,-3.763 2.612,-3.216 2.612,-3.216 L 2.644,-1.574 C 2.644,-1.574 2.648,-1.426 2.674,-1.352 C 2.697,-1.279 2.781,-1.231 2.781,-1.231 L 3.665,-0.36 C 3.665,-0.36 4.093,-0.036 4.365,-0.451 C 4.83,-1.171 5.32,-2.033 5.887,-3.457 C 5.969,-3.604 6.011,-3.91 6.46,-3.856 C 6.798,-3.858 7.111,-3.847 7.416,-3.847 C 7.964,-3.846 8.503,-3.82 9.042,-3.844 C 9.826,-3.844 9.411,-3.242 9.411,-3.242 L 6.822,1.692 C 6.822,1.692 6.69,1.937 6.681,2.018 C 6.665,2.182 6.843,2.403 6.843,2.403 L 9.244,5.297 C 9.244,5.297 9.525,5.646 9.504,5.724 C 9.455,5.903 9.062,5.846 9.062,5.846 L 6.75,5.843 C 6.75,5.843 6.461,5.87 6.406,5.81 C 6.333,5.728 6.136,5.524 6.136,5.524 L 3.625,2.733 C 3.625,2.733 3.323,2.395 3.241,2.399 C 3.053,2.406 3.102,2.766 3.102,2.766 L 3.064,5.315 C 3.064,5.315 3.081,5.593 2.983,5.699 C 2.881,5.81 2.526,5.828 2.526,5.828 L 0.385,5.819 C 0.385,5.819 0.234,5.844 0.099,5.745 C -0.024,5.654 -0.015,5.499 -0.015,5.499 L 0,0 z" />
    </g>
    <g
       transform="matrix(27.449294,0,0,-27.449294,863.00355,142.99969)"
       id="g2816">
      <path
         id="path2818"
         style="fill:#d6361b;fill-opacity:1;fill-rule:nonzero;stroke:none"
         d="M 0,0 C 0,0 -0.063,-0.349 0.042,-0.466 C 0.1,-0.531 0.251,-0.558 0.251,-0.558 L 0.916,-0.56 C 0.916,-0.56 1.238,-0.564 1.31,-0.451 C 1.382,-0.338 1.305,-0.007 1.305,-0.007 L 0.908,1.48 L 0.722,2.157 C 0.722,2.157 0.658,2.323 0.561,2.301 C 0.468,2.282 0.424,2.165 0.424,2.165 L 0,0 z M -3.391,-4.851 C -3.391,-4.851 -3.576,-4.822 -3.609,-4.672 C -3.659,-4.445 -3.555,-4.105 -3.555,-4.105 L -2.318,-0.208 L -0.934,4.459 C -0.934,4.459 -0.823,4.896 -0.744,4.992 C -0.653,5.103 -0.32,5.081 -0.32,5.081 L 2.013,5.087 C 2.013,5.087 2.46,5.088 2.61,4.795 C 2.676,4.666 2.795,4.262 2.795,4.262 L 5.334,-3.888 C 5.334,-3.888 5.508,-4.489 5.432,-4.647 C 5.328,-4.866 4.852,-4.826 4.852,-4.826 L 2.538,-4.834 C 2.538,-4.834 2.194,-4.869 2.092,-4.776 C 1.99,-4.683 1.9,-4.268 1.9,-4.268 L 1.682,-3.207 C 1.682,-3.207 1.64,-2.921 1.561,-2.85 C 1.482,-2.779 1.234,-2.771 1.234,-2.771 L -0.167,-2.743 C -0.167,-2.743 -0.419,-2.729 -0.571,-2.849 C -0.692,-2.946 -0.744,-3.173 -0.744,-3.173 L -1.152,-4.44 C -1.152,-4.44 -1.254,-4.757 -1.347,-4.813 C -1.44,-4.868 -1.849,-4.859 -1.849,-4.859 L -3.391,-4.851 z" />
    </g>
    <g
       transform="matrix(27.449294,0,0,-27.449294,313.8667,130.23028)"
       id="g2820">
      <path
         id="path2822"
         style="fill:#ffcc00;fill-opacity:1;fill-rule:nonzero;stroke:none"
         d="M 0,0 L -1.441,-4.063 C -1.441,-4.063 -1.522,-4.362 -1.473,-4.463 C -1.383,-4.651 -1.187,-4.733 -1.187,-4.733 L 0.43,-5.202 C 0.43,-5.202 0.925,-5.354 1.053,-5.326 C 1.314,-5.269 1.414,-4.926 1.414,-4.926 L 2.901,-0.503 L 3.928,2.289 C 3.928,2.289 4.034,2.489 4.001,2.562 C 3.943,2.692 3.775,2.719 3.775,2.719 L 1.736,3.499 C 1.736,3.499 1.491,3.568 1.393,3.548 C 1.115,3.49 1.029,3.146 1.029,3.146 L 0,0 z" />
    </g>
    <g
       transform="matrix(27.449294,0,0,-27.449294,359.16353,226.51966)"
       id="g2824">
      <path
         id="path2826"
         style="fill:#0064a2;fill-opacity:1;fill-rule:nonzero;stroke:none"
         d="M 0,0 C -0.003,1.614 1.304,2.924 2.918,2.926 C 4.532,2.928 5.842,1.621 5.844,0.007 C 5.846,-1.607 4.54,-2.917 2.926,-2.919 C 1.312,-2.921 0.002,-1.614 0,0" />
    </g>
    <g
       transform="matrix(27.449294,0,0,-27.449294,404.33409,172.26613)"
       id="g2828">
      <path
         id="path2830"
         style="fill:#ffffff;fill-opacity:1;fill-rule:nonzero;stroke:none"
         d="M 0,0 C -0.01,-0.01 -0.018,-0.017 -0.017,-0.031 C -0.018,-0.056 -0.001,-0.08 0.024,-0.08 C 0.033,-0.079 0.037,-0.078 0.047,-0.078 C 0.054,-0.078 0.056,-0.084 0.063,-0.084 C 0.077,-0.084 0.084,-0.084 0.099,-0.084 C 0.099,-0.095 0.098,-0.107 0.108,-0.111 C 0.121,-0.116 0.135,-0.115 0.141,-0.127 C 0.149,-0.146 0.154,-0.159 0.169,-0.171 C 0.181,-0.18 0.184,-0.192 0.198,-0.197 C 0.207,-0.2 0.219,-0.196 0.222,-0.206 C 0.231,-0.23 0.247,-0.243 0.271,-0.251 C 0.303,-0.262 0.305,-0.293 0.328,-0.317 C 0.346,-0.336 0.369,-0.339 0.376,-0.363 C 0.379,-0.374 0.377,-0.382 0.384,-0.39 C 0.395,-0.404 0.414,-0.398 0.425,-0.413 C 0.43,-0.421 0.439,-0.42 0.445,-0.427 C 0.451,-0.434 0.448,-0.443 0.454,-0.449 C 0.48,-0.474 0.493,-0.49 0.517,-0.516 C 0.526,-0.526 0.537,-0.526 0.543,-0.538 C 0.549,-0.552 0.542,-0.566 0.553,-0.578 C 0.559,-0.584 0.566,-0.586 0.569,-0.593 C 0.575,-0.606 0.589,-0.605 0.603,-0.612 C 0.612,-0.616 0.606,-0.63 0.614,-0.638 C 0.632,-0.658 0.635,-0.676 0.648,-0.701 C 0.652,-0.712 0.654,-0.719 0.661,-0.727 C 0.668,-0.735 0.681,-0.731 0.687,-0.741 C 0.695,-0.751 0.686,-0.758 0.686,-0.771 C 0.703,-0.804 0.728,-0.813 0.745,-0.846 C 0.752,-0.858 0.767,-0.857 0.77,-0.869 C 0.777,-0.892 0.79,-0.908 0.814,-0.913 C 0.835,-0.919 0.83,-0.956 0.852,-0.956 C 0.862,-0.956 0.868,-0.951 0.875,-0.945 C 0.879,-0.949 0.878,-0.954 0.879,-0.96 C 0.879,-0.983 0.898,-0.989 0.911,-1.007 C 0.919,-1.018 0.915,-1.029 0.922,-1.041 C 0.936,-1.059 0.951,-1.07 0.951,-1.095 C 0.951,-1.118 0.971,-1.126 0.985,-1.144 C 0.997,-1.158 0.995,-1.17 1.002,-1.187 C 1.003,-1.19 1.01,-1.188 1.013,-1.192 C 1.02,-1.198 1.015,-1.206 1.017,-1.215 C 1.023,-1.238 1.04,-1.244 1.051,-1.265 C 1.068,-1.297 1.077,-1.314 1.093,-1.346 C 1.098,-1.357 1.114,-1.353 1.12,-1.363 C 1.127,-1.372 1.123,-1.381 1.127,-1.39 C 1.135,-1.405 1.152,-1.402 1.16,-1.417 C 1.186,-1.483 1.211,-1.516 1.258,-1.566 C 1.287,-1.598 1.305,-1.615 1.33,-1.652 C 1.345,-1.673 1.348,-1.703 1.375,-1.703 C 1.398,-1.703 1.378,-1.653 1.402,-1.648 C 1.415,-1.646 1.425,-1.652 1.437,-1.645 C 1.447,-1.638 1.444,-1.626 1.451,-1.616 C 1.481,-1.572 1.494,-1.543 1.533,-1.505 C 1.575,-1.465 1.577,-1.419 1.63,-1.394 C 1.664,-1.378 1.685,-1.36 1.694,-1.323 C 1.697,-1.31 1.71,-1.306 1.711,-1.293 C 1.711,-1.284 1.7,-1.281 1.696,-1.274 C 1.718,-1.218 1.757,-1.202 1.792,-1.152 C 1.808,-1.129 1.814,-1.115 1.832,-1.094 C 1.851,-1.073 1.87,-1.07 1.884,-1.046 C 1.89,-1.035 1.891,-1.026 1.9,-1.018 C 1.944,-0.981 1.963,-0.953 2.01,-0.919 C 2.019,-0.913 2.016,-0.9 2.026,-0.895 C 2.037,-0.888 2.051,-0.897 2.057,-0.886 C 2.078,-0.856 2.088,-0.832 2.122,-0.82 C 2.162,-0.8 2.18,-0.782 2.21,-0.751 C 2.232,-0.729 2.235,-0.697 2.265,-0.696 C 2.284,-0.697 2.294,-0.696 2.313,-0.696 C 2.339,-0.696 2.345,-0.666 2.349,-0.64 C 2.353,-0.611 2.369,-0.6 2.376,-0.571 C 2.382,-0.541 2.403,-0.534 2.421,-0.51 C 2.439,-0.487 2.446,-0.465 2.473,-0.46 C 2.516,-0.428 2.542,-0.408 2.574,-0.365 C 2.592,-0.339 2.579,-0.309 2.603,-0.288 C 2.616,-0.276 2.639,-0.295 2.649,-0.281 C 2.661,-0.267 2.669,-0.252 2.689,-0.252 C 2.698,-0.252 2.7,-0.263 2.709,-0.263 C 2.725,-0.263 2.717,-0.239 2.724,-0.224 C 2.739,-0.194 2.749,-0.172 2.779,-0.159 C 2.827,-0.138 2.83,-0.097 2.87,-0.067 C 2.892,-0.052 2.899,-0.037 2.916,-0.018 C 2.928,-0.005 2.944,-0.011 2.963,-0.011 C 2.969,-0.011 2.973,-0.015 2.977,-0.019 C 2.978,-0.032 2.978,-0.04 2.978,-0.053 C 2.977,-0.068 2.954,-0.07 2.955,-0.085 C 2.955,-0.096 2.973,-0.094 2.975,-0.104 C 2.977,-0.118 2.985,-0.123 2.989,-0.136 L 2.987,-0.146 L 2.989,-0.156 C 3.013,-0.158 3.023,-0.177 3.048,-0.177 C 3.068,-0.177 3.069,-0.146 3.089,-0.146 C 3.106,-0.146 3.115,-0.146 3.132,-0.146 C 3.134,-0.156 3.133,-0.161 3.133,-0.171 C 3.133,-0.208 3.108,-0.224 3.094,-0.257 C 3.084,-0.281 3.085,-0.297 3.073,-0.32 C 3.068,-0.33 3.058,-0.332 3.051,-0.341 C 3.037,-0.362 3.031,-0.375 3.024,-0.399 C 3.035,-0.396 3.04,-0.39 3.052,-0.389 C 3.077,-0.39 3.1,-0.408 3.1,-0.433 C 3.1,-0.443 3.091,-0.447 3.084,-0.455 L 3.085,-0.467 C 3.1,-0.467 3.11,-0.481 3.11,-0.496 C 3.11,-0.504 3.11,-0.509 3.11,-0.517 C 3.109,-0.528 3.119,-0.532 3.126,-0.54 C 3.117,-0.563 3.102,-0.57 3.085,-0.587 C 3.072,-0.6 3.073,-0.614 3.06,-0.627 C 3.048,-0.637 3.037,-0.644 3.037,-0.66 C 3.037,-0.706 2.986,-0.714 2.961,-0.753 C 2.95,-0.786 2.915,-0.796 2.915,-0.83 C 2.915,-0.845 2.915,-0.853 2.915,-0.867 C 2.886,-0.884 2.878,-0.903 2.856,-0.928 C 2.845,-0.942 2.829,-0.939 2.818,-0.954 C 2.812,-0.965 2.816,-0.977 2.806,-0.985 C 2.788,-1.002 2.783,-1.013 2.764,-1.03 C 2.756,-1.038 2.743,-1.037 2.74,-1.048 C 2.737,-1.057 2.742,-1.064 2.736,-1.071 C 2.722,-1.088 2.703,-1.09 2.694,-1.111 C 2.684,-1.135 2.667,-1.142 2.651,-1.161 C 2.643,-1.17 2.647,-1.179 2.641,-1.188 C 2.631,-1.205 2.616,-1.208 2.603,-1.223 C 2.593,-1.236 2.596,-1.249 2.585,-1.26 C 2.573,-1.273 2.56,-1.275 2.542,-1.28 C 2.528,-1.286 2.526,-1.299 2.52,-1.314 C 2.512,-1.331 2.504,-1.34 2.494,-1.355 C 2.491,-1.363 2.493,-1.368 2.493,-1.377 C 2.493,-1.385 2.487,-1.389 2.487,-1.397 C 2.487,-1.4 2.49,-1.401 2.489,-1.404 C 2.489,-1.411 2.481,-1.412 2.473,-1.414 C 2.474,-1.419 2.477,-1.422 2.477,-1.428 C 2.477,-1.442 2.464,-1.445 2.46,-1.458 C 2.449,-1.491 2.433,-1.508 2.405,-1.529 C 2.367,-1.556 2.362,-1.604 2.316,-1.604 C 2.312,-1.604 2.31,-1.604 2.305,-1.604 C 2.307,-1.614 2.314,-1.618 2.314,-1.627 C 2.314,-1.646 2.298,-1.652 2.286,-1.667 C 2.263,-1.695 2.252,-1.715 2.221,-1.737 C 2.209,-1.745 2.2,-1.749 2.194,-1.763 C 2.192,-1.779 2.184,-1.785 2.179,-1.801 C 2.17,-1.831 2.171,-1.871 2.14,-1.871 C 2.13,-1.871 2.124,-1.871 2.114,-1.871 C 2.102,-1.871 2.098,-1.884 2.094,-1.897 C 2.091,-1.909 2.083,-1.914 2.079,-1.926 C 2.07,-1.951 2.047,-1.954 2.022,-1.966 C 1.998,-1.978 1.999,-2.001 1.992,-2.027 C 1.986,-2.051 1.962,-2.057 1.96,-2.082 C 1.957,-2.119 1.925,-2.129 1.904,-2.158 C 1.884,-2.184 1.87,-2.197 1.847,-2.22 C 1.831,-2.233 1.84,-2.255 1.825,-2.269 C 1.817,-2.277 1.806,-2.276 1.799,-2.286 C 1.807,-2.295 1.817,-2.296 1.829,-2.302 C 1.824,-2.308 1.817,-2.311 1.817,-2.319 C 1.817,-2.324 1.817,-2.327 1.817,-2.331 C 1.82,-2.332 1.823,-2.333 1.827,-2.333 C 1.833,-2.333 1.836,-2.328 1.843,-2.327 C 1.849,-2.328 1.852,-2.328 1.858,-2.329 C 1.859,-2.332 1.86,-2.336 1.86,-2.34 C 1.86,-2.343 1.856,-2.343 1.854,-2.345 C 1.881,-2.366 1.898,-2.386 1.898,-2.419 C 1.898,-2.452 1.927,-2.462 1.955,-2.478 C 1.979,-2.492 1.984,-2.51 2.003,-2.532 C 2.014,-2.545 2.031,-2.539 2.044,-2.55 C 2.058,-2.561 2.054,-2.577 2.065,-2.59 C 2.083,-2.61 2.108,-2.611 2.117,-2.637 C 2.122,-2.655 2.143,-2.654 2.153,-2.671 C 2.163,-2.685 2.159,-2.698 2.164,-2.715 C 2.171,-2.739 2.196,-2.739 2.211,-2.758 C 2.23,-2.783 2.248,-2.791 2.276,-2.806 C 2.283,-2.81 2.29,-2.809 2.297,-2.814 C 2.31,-2.823 2.3,-2.85 2.317,-2.85 C 2.323,-2.851 2.326,-2.847 2.332,-2.847 C 2.345,-2.847 2.359,-2.847 2.363,-2.86 C 2.366,-2.872 2.366,-2.888 2.378,-2.888 C 2.389,-2.888 2.391,-2.874 2.401,-2.874 C 2.418,-2.875 2.417,-2.898 2.433,-2.904 C 2.474,-2.921 2.509,-2.921 2.535,-2.958 C 2.552,-2.982 2.579,-2.973 2.606,-2.982 C 2.639,-2.993 2.656,-3.012 2.678,-3.039 C 2.69,-3.051 2.687,-3.063 2.692,-3.079 C 2.698,-3.093 2.716,-3.09 2.726,-3.101 C 2.731,-3.107 2.729,-3.116 2.736,-3.118 C 2.757,-3.124 2.773,-3.116 2.79,-3.128 C 2.818,-3.15 2.825,-3.175 2.857,-3.191 C 2.883,-3.204 2.909,-3.214 2.91,-3.243 C 2.91,-3.261 2.928,-3.264 2.941,-3.277 C 2.973,-3.309 2.991,-3.33 3.007,-3.373 C 3.016,-3.397 3.048,-3.399 3.049,-3.424 C 3.048,-3.429 3.045,-3.431 3.046,-3.436 C 3.046,-3.446 3.055,-3.45 3.055,-3.46 C 3.055,-3.47 3.051,-3.476 3.051,-3.485 C 3.051,-3.504 3.079,-3.505 3.079,-3.523 C 3.079,-3.546 3.07,-3.559 3.07,-3.582 C 3.07,-3.625 3.095,-3.648 3.095,-3.692 C 3.095,-3.7 3.09,-3.703 3.089,-3.71 C 3.089,-3.725 3.107,-3.728 3.107,-3.742 C 3.107,-3.765 3.102,-3.781 3.088,-3.799 C 3.083,-3.807 3.072,-3.809 3.072,-3.819 C 3.071,-3.824 3.08,-3.825 3.08,-3.831 C 3.08,-3.861 3.075,-3.89 3.046,-3.899 L 3.035,-3.897 C 3.022,-3.902 3.033,-3.921 3.023,-3.932 C 3.011,-3.946 2.994,-3.938 2.976,-3.943 C 2.96,-3.947 2.967,-3.967 2.957,-3.979 C 2.952,-3.984 2.947,-3.982 2.94,-3.983 C 2.922,-3.988 2.919,-4.007 2.901,-4.007 C 2.884,-4.007 2.874,-4.013 2.857,-4.015 C 2.843,-4.017 2.828,-4.021 2.828,-4.034 C 2.828,-4.039 2.83,-4.042 2.831,-4.047 C 2.831,-4.06 2.822,-4.071 2.809,-4.071 C 2.803,-4.071 2.8,-4.069 2.794,-4.069 C 2.768,-4.069 2.754,-4.08 2.727,-4.08 C 2.719,-4.08 2.713,-4.077 2.705,-4.073 C 2.691,-4.094 2.678,-4.113 2.653,-4.112 C 2.638,-4.112 2.63,-4.112 2.616,-4.113 C 2.602,-4.113 2.599,-4.1 2.586,-4.098 C 2.578,-4.117 2.559,-4.119 2.54,-4.119 C 2.529,-4.119 2.528,-4.107 2.519,-4.103 C 2.497,-4.092 2.482,-4.094 2.457,-4.09 C 2.445,-4.088 2.446,-4.075 2.443,-4.064 C 2.437,-4.04 2.437,-4.016 2.414,-4.006 C 2.402,-4.001 2.389,-4.01 2.38,-3.999 C 2.358,-3.971 2.362,-3.933 2.329,-3.92 C 2.313,-3.914 2.299,-3.918 2.29,-3.905 C 2.271,-3.881 2.272,-3.857 2.246,-3.843 C 2.225,-3.831 2.21,-3.83 2.188,-3.822 C 2.166,-3.814 2.144,-3.806 2.144,-3.783 C 2.144,-3.74 2.118,-3.719 2.087,-3.688 C 2.074,-3.676 2.074,-3.663 2.064,-3.649 C 2.047,-3.625 2.029,-3.616 2.018,-3.587 C 2.008,-3.561 1.989,-3.553 1.967,-3.537 C 1.959,-3.531 1.96,-3.522 1.955,-3.514 C 1.945,-3.498 1.932,-3.496 1.919,-3.483 C 1.885,-3.453 1.859,-3.444 1.833,-3.408 C 1.823,-3.393 1.806,-3.397 1.792,-3.387 C 1.782,-3.379 1.788,-3.368 1.783,-3.357 C 1.779,-3.349 1.773,-3.345 1.772,-3.336 C 1.758,-3.266 1.693,-3.246 1.689,-3.176 C 1.689,-3.168 1.68,-3.165 1.679,-3.157 C 1.677,-3.135 1.681,-3.118 1.667,-3.1 C 1.642,-3.069 1.607,-3.07 1.587,-3.035 C 1.564,-3.012 1.551,-2.999 1.531,-2.973 C 1.522,-2.962 1.524,-2.949 1.513,-2.94 C 1.487,-2.917 1.469,-2.903 1.456,-2.871 C 1.452,-2.857 1.437,-2.853 1.438,-2.839 C 1.437,-2.83 1.437,-2.827 1.437,-2.818 C 1.416,-2.795 1.398,-2.786 1.379,-2.761 C 1.365,-2.743 1.368,-2.726 1.359,-2.705 C 1.313,-2.745 1.313,-2.801 1.256,-2.819 C 1.257,-2.825 1.261,-2.828 1.261,-2.833 C 1.261,-2.854 1.239,-2.858 1.23,-2.876 C 1.218,-2.901 1.21,-2.916 1.21,-2.943 C 1.21,-2.957 1.19,-2.955 1.182,-2.967 C 1.172,-2.984 1.154,-2.985 1.139,-2.998 C 1.128,-3.01 1.126,-3.022 1.113,-3.032 C 1.114,-3.035 1.115,-3.036 1.115,-3.039 C 1.115,-3.08 1.056,-3.074 1.036,-3.109 C 1.031,-3.118 1.023,-3.119 1.015,-3.125 C 0.992,-3.142 0.981,-3.157 0.955,-3.17 C 0.937,-3.18 0.939,-3.199 0.93,-3.218 C 0.92,-3.236 0.908,-3.245 0.901,-3.265 C 0.889,-3.296 0.886,-3.322 0.858,-3.342 C 0.839,-3.357 0.826,-3.365 0.804,-3.375 C 0.788,-3.381 0.791,-3.398 0.781,-3.411 C 0.771,-3.426 0.755,-3.425 0.742,-3.437 C 0.72,-3.456 0.707,-3.469 0.68,-3.479 C 0.648,-3.49 0.642,-3.526 0.608,-3.526 C 0.601,-3.527 0.6,-3.518 0.592,-3.519 C 0.576,-3.518 0.572,-3.533 0.557,-3.539 C 0.548,-3.542 0.54,-3.542 0.536,-3.549 C 0.533,-3.557 0.537,-3.565 0.533,-3.573 C 0.526,-3.59 0.508,-3.587 0.493,-3.6 C 0.469,-3.621 0.46,-3.65 0.428,-3.649 C 0.417,-3.65 0.414,-3.639 0.406,-3.631 C 0.403,-3.641 0.407,-3.649 0.402,-3.658 C 0.39,-3.682 0.368,-3.685 0.344,-3.696 C 0.326,-3.704 0.327,-3.725 0.309,-3.732 C 0.302,-3.735 0.296,-3.734 0.291,-3.739 C 0.278,-3.752 0.287,-3.767 0.283,-3.786 C 0.281,-3.795 0.269,-3.795 0.26,-3.799 C 0.24,-3.809 0.227,-3.814 0.21,-3.827 C 0.198,-3.835 0.188,-3.833 0.176,-3.84 C 0.15,-3.852 0.141,-3.869 0.115,-3.88 C 0.104,-3.884 0.096,-3.881 0.085,-3.886 C 0.075,-3.89 0.074,-3.902 0.063,-3.904 C 0.039,-3.91 0.026,-3.915 0.002,-3.921 C -0.012,-3.924 -0.017,-3.939 -0.032,-3.938 C -0.038,-3.939 -0.042,-3.934 -0.048,-3.934 C -0.06,-3.934 -0.059,-3.947 -0.069,-3.952 C -0.096,-3.967 -0.115,-3.971 -0.145,-3.971 C -0.173,-3.971 -0.188,-3.963 -0.213,-3.952 C -0.223,-3.948 -0.226,-3.938 -0.237,-3.938 C -0.246,-3.938 -0.252,-3.94 -0.261,-3.94 C -0.285,-3.94 -0.296,-3.923 -0.319,-3.923 C -0.333,-3.923 -0.34,-3.926 -0.354,-3.926 C -0.373,-3.926 -0.38,-3.909 -0.398,-3.905 L -0.415,-3.911 C -0.426,-3.907 -0.427,-3.896 -0.437,-3.892 C -0.449,-3.887 -0.458,-3.886 -0.465,-3.875 C -0.474,-3.862 -0.467,-3.848 -0.476,-3.834 C -0.481,-3.826 -0.494,-3.827 -0.494,-3.816 C -0.494,-3.796 -0.485,-3.784 -0.473,-3.768 C -0.459,-3.75 -0.475,-3.729 -0.466,-3.708 C -0.457,-3.686 -0.437,-3.679 -0.432,-3.655 C -0.431,-3.637 -0.437,-3.623 -0.425,-3.609 C -0.416,-3.598 -0.404,-3.599 -0.389,-3.597 C -0.371,-3.595 -0.369,-3.576 -0.352,-3.571 C -0.328,-3.563 -0.321,-3.543 -0.305,-3.522 C -0.286,-3.499 -0.275,-3.488 -0.253,-3.467 C -0.247,-3.438 -0.221,-3.436 -0.199,-3.418 C -0.183,-3.405 -0.18,-3.391 -0.168,-3.375 C -0.141,-3.338 -0.113,-3.326 -0.084,-3.291 C -0.053,-3.252 -0.038,-3.226 0.003,-3.198 C 0.025,-3.185 0.036,-3.174 0.054,-3.155 C 0.065,-3.143 0.084,-3.141 0.084,-3.124 C 0.083,-3.12 0.081,-3.117 0.081,-3.113 C 0.081,-3.091 0.105,-3.089 0.123,-3.077 C 0.143,-3.063 0.151,-3.049 0.172,-3.037 C 0.187,-3.022 0.2,-3.018 0.213,-3.002 C 0.224,-2.99 0.221,-2.977 0.233,-2.967 C 0.266,-2.941 0.291,-2.928 0.332,-2.927 C 0.333,-2.923 0.336,-2.921 0.336,-2.916 C 0.336,-2.906 0.336,-2.9 0.336,-2.889 C 0.336,-2.858 0.368,-2.853 0.391,-2.833 C 0.405,-2.821 0.404,-2.806 0.419,-2.795 C 0.426,-2.789 0.437,-2.793 0.443,-2.785 C 0.452,-2.773 0.449,-2.758 0.46,-2.748 C 0.48,-2.727 0.508,-2.721 0.508,-2.693 C 0.508,-2.679 0.508,-2.672 0.507,-2.658 C 0.507,-2.633 0.536,-2.631 0.549,-2.609 C 0.567,-2.586 0.594,-2.59 0.61,-2.566 C 0.639,-2.524 0.638,-2.486 0.677,-2.456 C 0.693,-2.445 0.707,-2.442 0.719,-2.426 C 0.725,-2.419 0.723,-2.411 0.73,-2.405 C 0.74,-2.396 0.755,-2.404 0.764,-2.394 C 0.771,-2.386 0.767,-2.376 0.769,-2.365 C 0.773,-2.345 0.781,-2.332 0.798,-2.321 C 0.811,-2.304 0.826,-2.301 0.838,-2.283 C 0.881,-2.217 0.918,-2.191 0.964,-2.127 C 0.944,-2.107 0.943,-2.084 0.918,-2.072 C 0.912,-2.069 0.907,-2.075 0.902,-2.072 C 0.889,-2.066 0.888,-2.053 0.888,-2.039 C 0.888,-2.03 0.888,-2.024 0.888,-2.014 C 0.888,-2.004 0.876,-2.001 0.874,-1.991 C 0.871,-1.971 0.874,-1.945 0.854,-1.945 C 0.835,-1.945 0.826,-1.957 0.807,-1.957 C 0.773,-1.957 0.752,-1.941 0.731,-1.914 C 0.718,-1.897 0.702,-1.889 0.702,-1.868 C 0.702,-1.86 0.702,-1.855 0.701,-1.846 C 0.707,-1.845 0.71,-1.845 0.716,-1.845 C 0.722,-1.845 0.727,-1.846 0.733,-1.846 C 0.737,-1.846 0.739,-1.845 0.741,-1.844 C 0.743,-1.849 0.745,-1.852 0.748,-1.856 C 0.751,-1.852 0.755,-1.851 0.755,-1.846 C 0.755,-1.834 0.744,-1.829 0.744,-1.816 C 0.732,-1.819 0.731,-1.834 0.719,-1.834 C 0.697,-1.834 0.691,-1.81 0.678,-1.793 C 0.634,-1.783 0.627,-1.747 0.604,-1.709 C 0.578,-1.665 0.55,-1.652 0.516,-1.613 C 0.484,-1.577 0.461,-1.558 0.432,-1.519 C 0.407,-1.486 0.369,-1.473 0.369,-1.431 C 0.369,-1.427 0.372,-1.424 0.374,-1.419 L 0.372,-1.414 C 0.367,-1.413 0.365,-1.411 0.361,-1.411 C 0.355,-1.411 0.353,-1.419 0.346,-1.419 C 0.332,-1.419 0.321,-1.418 0.31,-1.408 C 0.298,-1.386 0.291,-1.361 0.266,-1.361 C 0.26,-1.361 0.257,-1.366 0.251,-1.366 C 0.242,-1.366 0.248,-1.351 0.24,-1.345 C 0.234,-1.338 0.223,-1.341 0.218,-1.333 C 0.212,-1.32 0.212,-1.311 0.206,-1.298 C 0.2,-1.288 0.188,-1.291 0.175,-1.289 C 0.157,-1.286 0.144,-1.275 0.142,-1.257 C 0.14,-1.226 0.124,-1.208 0.099,-1.191 C 0.084,-1.18 0.076,-1.17 0.065,-1.154 C 0.059,-1.145 0.059,-1.131 0.048,-1.131 C 0.043,-1.132 0.04,-1.135 0.035,-1.135 C 0.014,-1.135 0.006,-1.117 -0.015,-1.114 C -0.015,-1.088 -0.03,-1.075 -0.032,-1.05 C -0.043,-1.05 -0.048,-1.042 -0.059,-1.04 C -0.083,-1.034 -0.119,-1.042 -0.119,-1.016 C -0.121,-0.996 -0.141,-0.991 -0.153,-0.974 C -0.161,-0.965 -0.179,-0.969 -0.179,-0.957 C -0.179,-0.948 -0.179,-0.943 -0.179,-0.934 C -0.21,-0.921 -0.236,-0.926 -0.262,-0.904 C -0.27,-0.897 -0.266,-0.887 -0.273,-0.879 C -0.286,-0.861 -0.291,-0.849 -0.299,-0.829 C -0.306,-0.812 -0.328,-0.819 -0.342,-0.806 C -0.35,-0.798 -0.358,-0.798 -0.368,-0.793 C -0.379,-0.788 -0.379,-0.771 -0.391,-0.768 C -0.4,-0.754 -0.42,-0.762 -0.428,-0.749 C -0.433,-0.74 -0.425,-0.731 -0.432,-0.725 C -0.436,-0.721 -0.443,-0.724 -0.448,-0.721 C -0.46,-0.713 -0.465,-0.701 -0.478,-0.701 C -0.478,-0.676 -0.517,-0.674 -0.517,-0.649 C -0.517,-0.635 -0.517,-0.627 -0.517,-0.614 C -0.517,-0.607 -0.513,-0.604 -0.512,-0.597 C -0.512,-0.585 -0.528,-0.587 -0.536,-0.576 L -0.602,-0.576 C -0.602,-0.565 -0.602,-0.559 -0.603,-0.547 C -0.602,-0.521 -0.593,-0.507 -0.588,-0.481 C -0.583,-0.456 -0.585,-0.441 -0.576,-0.418 C -0.548,-0.38 -0.528,-0.364 -0.5,-0.327 C -0.488,-0.312 -0.467,-0.31 -0.467,-0.291 C -0.467,-0.281 -0.467,-0.274 -0.467,-0.264 C -0.467,-0.222 -0.421,-0.217 -0.395,-0.186 C -0.381,-0.169 -0.386,-0.151 -0.37,-0.135 C -0.356,-0.12 -0.34,-0.125 -0.325,-0.113 C -0.273,-0.086 -0.252,-0.054 -0.198,-0.032 C -0.179,-0.024 -0.178,0.004 -0.156,0.004 C -0.151,0.004 -0.149,0 -0.145,-0.004 C -0.132,-0.004 -0.125,-0.004 -0.112,-0.004 C -0.097,-0.004 -0.09,0.007 -0.076,0.007 C -0.048,0.006 -0.028,0 0,0" />
    </g>
    <g
       transform="matrix(27.449294,0,0,-27.449294,32.451051,410.11701)"
       id="g2832">
      <path
         id="path2834"
         style="fill:#0064a2;fill-opacity:1;fill-rule:nonzero;stroke:none"
         d="M 0,0 C -0.01,-0.048 -0.049,-0.087 -0.095,-0.086 L -0.48,-0.084 C -0.525,-0.083 -0.554,-0.044 -0.563,0.004 L -1.05,2.411 C -1.059,2.466 -1.029,2.511 -0.981,2.511 L -0.712,2.509 C -0.664,2.508 -0.634,2.486 -0.625,2.44 L -0.302,0.731 C -0.292,0.686 -0.257,0.702 -0.253,0.731 L 0.094,2.434 C 0.104,2.48 0.136,2.502 0.185,2.502 L 0.45,2.5 C 0.499,2.499 0.528,2.473 0.511,2.399 L 0,0 z" />
    </g>
    <g
       transform="matrix(27.449294,0,0,-27.449294,79.046228,362.03957)"
       id="g2836">
      <path
         id="path2838"
         style="fill:#0064a2;fill-opacity:1;fill-rule:nonzero;stroke:none"
         d="M 0,0 C 0.002,0.191 -0.123,0.347 -0.272,0.349 C -0.425,0.35 -0.555,0.195 -0.557,0.004 L -0.566,-1.119 C -0.567,-1.31 -0.439,-1.46 -0.287,-1.461 C -0.138,-1.463 -0.01,-1.315 -0.009,-1.124 L 0,0 z M -0.248,-1.886 L -0.348,-1.885 C -0.731,-1.882 -1.039,-1.565 -1.036,-1.184 L -1.026,0.092 C -1.023,0.474 -0.709,0.78 -0.327,0.776 L -0.227,0.776 C 0.155,0.773 0.463,0.462 0.46,0.081 L 0.45,-1.195 C 0.447,-1.577 0.134,-1.889 -0.248,-1.886" />
    </g>
    <g
       transform="matrix(27.449294,0,0,-27.449294,141.04046,413.36975)"
       id="g2840">
      <path
         id="path2842"
         style="fill:#0064a2;fill-opacity:1;fill-rule:nonzero;stroke:none"
         d="M 0,0 L -0.253,0.002 C -0.301,0.002 -0.323,0.028 -0.346,0.083 L -0.953,1.465 C -0.969,1.504 -1.002,1.491 -1.002,1.455 L -1.013,0.095 C -1.013,0.047 -1.056,0.008 -1.104,0.009 L -1.37,0.011 C -1.415,0.011 -1.45,0.05 -1.45,0.099 L -1.431,2.514 C -1.43,2.563 -1.395,2.601 -1.349,2.601 L -1.084,2.599 C -1.032,2.599 -0.993,2.55 -0.974,2.508 L -0.389,1.172 C -0.373,1.143 -0.338,1.133 -0.337,1.185 L -0.327,2.502 C -0.326,2.551 -0.281,2.593 -0.232,2.592 L 0.02,2.59 C 0.069,2.59 0.107,2.548 0.107,2.499 L 0.088,0.087 C 0.088,0.038 0.049,0 0,0" />
    </g>
    <g
       transform="matrix(27.449294,0,0,-27.449294,196.83115,360.83454)"
       id="g2844">
      <path
         id="path2846"
         style="fill:#0064a2;fill-opacity:1;fill-rule:nonzero;stroke:none"
         d="M 0,0 C -0.016,0.091 -0.051,0.091 -0.068,0 L -0.214,-0.847 C -0.224,-0.898 -0.192,-0.941 -0.143,-0.941 L 0.067,-0.943 C 0.116,-0.943 0.155,-0.901 0.145,-0.85 L 0,0 z M 0.713,-1.936 L 0.422,-1.933 C 0.373,-1.933 0.348,-1.887 0.338,-1.839 L 0.261,-1.456 C 0.251,-1.407 0.229,-1.372 0.177,-1.371 L -0.218,-1.368 C -0.27,-1.368 -0.306,-1.403 -0.313,-1.451 L -0.384,-1.833 C -0.394,-1.882 -0.43,-1.927 -0.478,-1.926 L -0.766,-1.924 C -0.815,-1.924 -0.85,-1.878 -0.84,-1.829 L -0.345,0.573 C -0.335,0.621 -0.302,0.663 -0.254,0.663 L 0.209,0.659 C 0.258,0.659 0.29,0.616 0.299,0.568 L 0.792,-1.842 C 0.801,-1.891 0.765,-1.936 0.713,-1.936" />
    </g>
    <g
       transform="matrix(27.449294,0,0,-27.449294,254.95777,361.11727)"
       id="g2848">
      <path
         id="path2850"
         style="fill:#0064a2;fill-opacity:1;fill-rule:nonzero;stroke:none"
         d="M 0,0 C 0.001,0.143 -0.118,0.257 -0.26,0.258 L -0.51,0.26 C -0.555,0.26 -0.584,0.222 -0.585,0.173 L -0.589,-0.371 C -0.589,-0.42 -0.548,-0.456 -0.509,-0.456 L -0.266,-0.458 C -0.123,-0.459 -0.003,-0.35 -0.002,-0.207 L 0,0 z M 0.386,-1.939 L 0.105,-1.937 C 0.056,-1.937 0.034,-1.895 0.018,-1.849 L -0.305,-0.904 C -0.318,-0.872 -0.334,-0.839 -0.369,-0.839 L -0.512,-0.838 C -0.557,-0.837 -0.593,-0.876 -0.593,-0.925 L -0.601,-1.844 C -0.601,-1.886 -0.64,-1.931 -0.689,-1.931 L -0.954,-1.929 C -1,-1.929 -1.035,-1.889 -1.035,-1.841 L -1.016,0.578 C -1.015,0.627 -0.982,0.662 -0.934,0.662 L -0.27,0.656 C 0.112,0.653 0.424,0.382 0.421,-0.026 L 0.42,-0.152 C 0.418,-0.418 0.283,-0.617 0.088,-0.736 C 0.072,-0.745 0.078,-0.765 0.084,-0.781 L 0.452,-1.853 C 0.467,-1.898 0.435,-1.94 0.386,-1.939" />
    </g>
    <g
       transform="matrix(27.449294,0,0,-27.449294,303.99594,364.61157)"
       id="g2852">
      <path
         id="path2854"
         style="fill:#0064a2;fill-opacity:1;fill-rule:nonzero;stroke:none"
         d="M 0,0 C 0.002,0.201 -0.162,0.364 -0.363,0.366 L -0.46,0.366 C -0.509,0.367 -0.554,0.325 -0.555,0.276 L -0.567,-1.327 C -0.568,-1.375 -0.523,-1.421 -0.474,-1.421 L -0.377,-1.422 C -0.176,-1.424 -0.01,-1.263 -0.008,-1.065 L 0,0 z M -0.286,-1.821 L -0.931,-1.816 C -0.979,-1.815 -1.021,-1.77 -1.021,-1.721 L -1.002,0.685 C -1.001,0.733 -0.965,0.775 -0.91,0.775 L -0.266,0.77 C 0.136,0.767 0.454,0.44 0.45,0.042 L 0.441,-1.104 C 0.438,-1.503 0.115,-1.824 -0.286,-1.821" />
    </g>
    <g
       transform="matrix(27.449294,0,0,-27.449294,369.80836,416.14762)"
       id="g2856">
      <path
         id="path2858"
         style="fill:#0064a2;fill-opacity:1;fill-rule:nonzero;stroke:none"
         d="M 0,0 L -0.081,0 C -0.463,0.004 -0.784,0.32 -0.781,0.702 L -0.767,2.548 C -0.767,2.59 -0.73,2.632 -0.685,2.631 L -0.407,2.629 C -0.358,2.629 -0.323,2.587 -0.323,2.544 L -0.337,0.751 C -0.339,0.556 -0.194,0.4 -0.039,0.398 C 0.113,0.397 0.257,0.552 0.258,0.746 L 0.273,2.54 C 0.273,2.582 0.312,2.624 0.361,2.623 L 0.639,2.621 C 0.684,2.621 0.729,2.578 0.729,2.536 L 0.715,0.69 C 0.712,0.308 0.382,-0.003 0,0" />
    </g>
    <g
       transform="matrix(27.449294,0,0,-27.449294,438.96412,415.71666)"
       id="g2860">
      <path
         id="path2862"
         style="fill:#0064a2;fill-opacity:1;fill-rule:nonzero;stroke:none"
         d="M 0,0 L -0.253,0.002 C -0.301,0.002 -0.324,0.028 -0.346,0.084 L -0.954,1.465 C -0.969,1.504 -1.002,1.491 -1.002,1.455 L -1.013,0.095 C -1.013,0.047 -1.056,0.008 -1.104,0.009 L -1.37,0.011 C -1.415,0.011 -1.45,0.05 -1.45,0.099 L -1.431,2.514 C -1.43,2.563 -1.395,2.602 -1.349,2.601 L -1.084,2.599 C -1.032,2.599 -0.993,2.55 -0.974,2.507 L -0.389,1.172 C -0.373,1.143 -0.338,1.133 -0.337,1.185 L -0.327,2.502 C -0.326,2.551 -0.281,2.593 -0.232,2.592 L 0.02,2.59 C 0.069,2.59 0.108,2.548 0.107,2.499 L 0.088,0.087 C 0.088,0.038 0.048,0 0,0" />
    </g>
    <g
       transform="matrix(27.449294,0,0,-27.449294,479.35026,365.99501)"
       id="g2864">
      <path
         id="path2866"
         style="fill:#0064a2;fill-opacity:1;fill-rule:nonzero;stroke:none"
         d="M 0,0 C 0.002,0.201 -0.162,0.364 -0.363,0.366 L -0.46,0.366 C -0.509,0.367 -0.554,0.325 -0.555,0.276 L -0.567,-1.327 C -0.568,-1.375 -0.523,-1.421 -0.474,-1.421 L -0.377,-1.422 C -0.176,-1.424 -0.01,-1.263 -0.008,-1.065 L 0,0 z M -0.286,-1.821 L -0.931,-1.816 C -0.979,-1.815 -1.021,-1.77 -1.021,-1.721 L -1.002,0.685 C -1.001,0.733 -0.965,0.775 -0.91,0.775 L -0.266,0.77 C 0.136,0.766 0.454,0.44 0.45,0.042 L 0.441,-1.104 C 0.438,-1.503 0.115,-1.824 -0.286,-1.821" />
    </g>
    <g
       transform="matrix(27.449294,0,0,-27.449294,559.12615,416.66915)"
       id="g2868">
      <path
         id="path2870"
         style="fill:#0064a2;fill-opacity:1;fill-rule:nonzero;stroke:none"
         d="M 0,0 L -1.25,0.01 C -1.295,0.01 -1.33,0.049 -1.33,0.098 L -1.329,0.273 C -1.328,0.321 -1.322,0.357 -1.312,0.38 L -0.414,2.15 C -0.394,2.182 -0.43,2.202 -0.452,2.202 L -1.158,2.208 C -1.207,2.208 -1.245,2.241 -1.245,2.29 L -1.243,2.516 C -1.243,2.565 -1.204,2.6 -1.155,2.6 L 0.014,2.591 C 0.059,2.59 0.101,2.554 0.101,2.506 L 0.099,2.328 C 0.099,2.282 0.099,2.263 0.079,2.224 L -0.812,0.473 C -0.829,0.437 -0.806,0.418 -0.784,0.417 L 0.003,0.411 C 0.052,0.411 0.09,0.378 0.09,0.333 L 0.088,0.087 C 0.088,0.038 0.049,0 0,0" />
    </g>
    <g
       transform="matrix(27.449294,0,0,-27.449294,598.54333,366.93103)"
       id="g2872">
      <path
         id="path2874"
         style="fill:#0064a2;fill-opacity:1;fill-rule:nonzero;stroke:none"
         d="M 0,0 C 0.002,0.201 -0.162,0.364 -0.363,0.365 L -0.46,0.366 C -0.509,0.367 -0.555,0.325 -0.555,0.276 L -0.567,-1.327 C -0.568,-1.375 -0.523,-1.421 -0.474,-1.421 L -0.377,-1.422 C -0.176,-1.424 -0.01,-1.263 -0.009,-1.066 L 0,0 z M -0.286,-1.821 L -0.931,-1.816 C -0.979,-1.816 -1.021,-1.77 -1.021,-1.721 L -1.002,0.684 C -1.001,0.733 -0.965,0.775 -0.91,0.775 L -0.266,0.769 C 0.136,0.766 0.454,0.44 0.45,0.042 L 0.441,-1.105 C 0.438,-1.503 0.115,-1.824 -0.286,-1.821" />
    </g>
    <g
       transform="matrix(27.449294,0,0,-27.449294,652.74471,357.58729)"
       id="g2876">
      <path
         id="path2878"
         style="fill:#0064a2;fill-opacity:1;fill-rule:nonzero;stroke:none"
         d="M 0,0 L -0.618,0.005 C -0.664,0.005 -0.713,-0.036 -0.713,-0.085 L -0.716,-0.525 C -0.717,-0.577 -0.672,-0.613 -0.623,-0.613 L -0.15,-0.617 C -0.108,-0.618 -0.057,-0.66 -0.057,-0.709 L -0.059,-0.929 C -0.059,-0.977 -0.102,-1.023 -0.154,-1.022 L -0.633,-1.018 C -0.678,-1.018 -0.721,-1.06 -0.721,-1.108 L -0.729,-2.079 C -0.729,-2.128 -0.768,-2.173 -0.82,-2.173 L -1.082,-2.171 C -1.134,-2.17 -1.176,-2.125 -1.176,-2.076 L -1.157,0.33 C -1.156,0.379 -1.107,0.42 -1.062,0.42 L 0.003,0.411 C 0.052,0.411 0.097,0.369 0.096,0.32 L 0.095,0.093 C 0.094,0.041 0.049,0 0,0" />
    </g>
  </g>
</svg>
