<?xml version="1.0" encoding="UTF-8" standalone="no"?>
<svg
   xmlns:svg="http://www.w3.org/2000/svg"
   xmlns="http://www.w3.org/2000/svg"
   version="1.1"
   width="638.83472"
   height="173.30569"
   id="svg4751">
  <defs
     id="defs4753" />
  <g
     transform="translate(-30.58248,-445.70933)"
     id="layer1">
    <path
       d="m 487.83448,450.70933 82.6191,0 -44.36775,163.27334 -82.60759,0 44.35624,-163.27334 z"
       id="path482"
       style="fill:#000000;fill-opacity:1;fill-rule:nonzero;stroke:none" />
    <path
       d="m 542.32074,526.06048 c 0,18.23688 -14.78252,33.01365 -33.02229,33.01365 -18.23687,0 -33.02228,-14.77677 -33.02228,-33.01365 0,-18.23687 14.78541,-33.02228 33.02228,-33.02228 18.23977,0 33.02229,14.78541 33.02229,33.02228"
       id="path494"
       style="fill:#ffff00;fill-opacity:1;fill-rule:nonzero;stroke:none" />
    <path
       d="m 500.0408,545.27257 0,-38.42996 27.19398,19.21642 -27.19398,19.21354 z"
       id="path498"
       style="fill:#000000;fill-opacity:1;fill-rule:nonzero;stroke:none" />
    <path
       d="m 426.82744,611.35807 0,2.3077 -9.64566,0 0,-2.3077 c 0.90752,-0.21032 1.99079,-0.38318 3.03947,-0.45233 l 0,-19.85312 c -0.83837,-0.13829 -2.02536,-0.27946 -3.03947,-0.3486 l 0,-2.3077 c 1.95621,-0.21033 4.47135,-0.34861 6.74447,-0.24489 l 0,22.75431 c 1.01412,0.0691 2.06282,0.24201 2.90119,0.45233 m -18.66414,2.30712 c 0,-1.11784 0.0346,-2.27312 0.17287,-3.21522 l -0.0317,-0.0346 c -0.84127,2.06281 -3.00779,3.5984 -5.76782,3.5984 -2.97033,0 -4.8574,-1.67675 -4.8574,-4.43677 0,-3.98445 3.98157,-6.18555 10.23915,-6.22302 l 0,-1.22155 c 0,-2.16652 -0.8038,-3.32181 -3.46011,-3.32181 -0.97954,0 -1.99366,0.14116 -2.86661,0.38605 -0.0691,0.80381 -0.24489,1.67676 -0.38318,2.58716 l -2.34227,0 0,-4.92943 c 1.71132,-0.55892 3.77414,-0.94498 6.0127,-0.94498 5.30972,0 6.77904,2.34228 6.77904,5.9061 l 0,8.94846 c 0.83838,0.14117 1.99367,0.27947 2.9012,0.3486 l 0,2.3077 c -1.81793,0.21032 -4.37052,0.3486 -6.39588,0.24489 m -0.24489,-7.83062 c -5.06772,0 -6.64076,1.43475 -6.64076,3.11151 0,1.32815 0.91041,2.16652 2.37685,2.16652 2.55259,0 4.26391,-2.44598 4.26391,-4.92655 l 0,-0.35148 z m -20.23797,-3.35318 c 0,-2.16652 -0.59349,-3.42554 -2.58428,-3.42554 -2.58716,0 -4.54626,2.76003 -4.54626,6.22013 l 0,5.62952 c 0.91041,0.0691 1.88996,0.20744 2.69088,0.41775 l 0,2.34228 -9.43535,0 0,-2.3077 c 0.91041,-0.21033 1.99367,-0.38319 3.04236,-0.45233 l 0,-11.70847 c -0.84125,-0.14118 -2.02824,-0.27946 -3.04236,-0.35149 l 0,-2.30482 c 1.9591,-0.21032 4.47423,-0.35148 6.60618,-0.24489 0,0.90752 -0.10375,2.41142 -0.27945,3.39097 l 0.0691,0.0345 c 1.01412,-2.23855 3.11151,-3.77413 6.00981,-3.77413 3.95276,0 5.20889,2.48056 5.20889,5.5575 l 0,9.40077 c 1.01412,0.0691 2.02825,0.242 2.9012,0.45233 l 0,2.3077 -6.64076,0 0,-11.18414 z m -23.17206,11.18385 c 0,-1.11784 0.0346,-2.27312 0.17286,-3.21522 l -0.0317,-0.0346 c -0.84126,2.06281 -3.00779,3.5984 -5.76781,3.5984 -2.97034,0 -4.8574,-1.67675 -4.8574,-4.43677 0,-3.98445 3.98156,-6.18555 10.23915,-6.22302 l 0,-1.22155 c 0,-2.16652 -0.8038,-3.32181 -3.46012,-3.32181 -0.97953,0 -1.99078,0.14116 -2.86661,0.38605 -0.0691,0.80381 -0.24489,1.67676 -0.38317,2.58716 l -2.34228,0 0,-4.92943 c 1.71133,-0.55892 3.77414,-0.94498 6.0127,-0.94498 5.3126,0 6.77904,2.34228 6.77904,5.9061 l 0,8.94846 c 0.83839,0.14117 1.99367,0.27947 2.9012,0.3486 l 0,2.3077 c -1.81793,0.21032 -4.36764,0.3486 -6.39588,0.24489 m -0.24488,-7.83062 c -5.06773,0 -6.64077,1.43475 -6.64077,3.11151 0,1.32815 0.91042,2.16652 2.37685,2.16652 2.55259,0 4.26392,-2.44598 4.26392,-4.92655 l 0,-0.35148 z m -19.04725,7.83067 -6.60619,-8.94846 0,6.18844 c 0.90752,0.0691 1.7459,0.20743 2.44599,0.41775 l 0,2.34227 -9.19047,0 0,-2.3077 c 0.90753,-0.20744 1.99079,-0.38317 3.03948,-0.45232 l 0,-19.85313 c -0.83838,-0.13829 -2.02535,-0.27946 -3.03948,-0.3486 l 0,-2.3077 c 1.95622,-0.20744 4.47135,-0.34861 6.74448,-0.24489 l 0,16.04442 4.57795,-5.20889 c -0.73179,-0.0691 -1.43188,-0.17574 -1.84963,-0.3486 l 0,-2.34228 8.76984,0 0,2.34228 c -0.6972,0.17286 -1.57015,0.31402 -2.41141,0.38317 l -4.85741,5.24347 5.13687,6.60618 c 0.76923,0.10375 1.7142,0.242 2.6563,0.45232 l 0,2.34227 -5.41632,0 z m -25.23574,0.34975 c -4.82284,0 -7.96891,-2.69087 -7.96891,-8.80729 0,-5.24346 3.39096,-9.26248 8.669,-9.26248 4.64708,0 7.93146,2.58716 7.93146,8.70357 0,5.34718 -3.4918,9.3662 -8.63155,9.3662 m 0.38606,-14.9237 c -2.27314,0 -4.47424,1.74878 -4.47424,5.73035 0,3.91531 1.53559,5.97813 4.43678,5.97813 2.4143,0 4.43966,-1.88707 4.43966,-5.9061 0,-3.70499 -1.43187,-5.80238 -4.4022,-5.80238 m -21.18129,14.57395 0,-2.3077 c 0.90753,-0.20744 1.99367,-0.38317 3.04237,-0.45232 l 0,-11.70848 c -0.83838,-0.14116 -2.02824,-0.27946 -3.04237,-0.35149 l 0,-2.30481 c 1.95622,-0.21031 4.47423,-0.3486 6.74448,-0.24489 l 0,14.60967 c 1.01412,0.0691 2.06281,0.24488 2.90119,0.45232 l 0,2.3077 -9.64567,0 z m 4.89487,-19.95685 c -1.32815,0 -2.37685,-1.04869 -2.37685,-2.33939 0,-1.29357 1.0487,-2.34227 2.37685,-2.34227 1.32815,0 2.40852,1.01124 2.40852,2.34227 0,1.2907 -1.08037,2.33939 -2.40852,2.33939 m -14.22794,19.95685 c 0,-0.90752 0.0691,-2.27312 0.24489,-3.2498 l -0.0691,0 c -0.94497,2.13196 -2.97032,3.5984 -5.66409,3.5984 -4.26103,0 -6.39298,-3.14319 -6.39298,-8.17922 0,-5.97524 3.46011,-9.81853 9.08675,-9.81853 0.83837,0 1.67675,0.0691 2.62172,0.13829 l 0,-5.10229 c -0.84126,-0.13829 -2.02823,-0.27946 -3.04236,-0.3486 l 0,-2.3077 c 1.95621,-0.20744 4.47424,-0.34861 6.74448,-0.24489 l 0,22.61315 c 0.83837,0.14117 1.99367,0.27947 2.90118,0.3486 l 0,2.3077 c -1.81792,0.21032 -4.33305,0.3486 -6.43043,0.24489 m -0.17287,-14.36479 c -0.94497,-0.21031 -1.8525,-0.31402 -2.7629,-0.31402 -2.97033,0 -4.9957,1.81792 -4.9957,6.49959 0,3.49468 1.08039,5.45377 3.45724,5.45377 2.7629,0 4.30136,-3.28725 4.30136,-6.25757 l 0,-5.38177 z m -21.35561,14.36479 c 0,-1.11784 0.0346,-2.27312 0.17286,-3.21522 l -0.0346,-0.0346 c -0.83838,2.06281 -3.0049,3.5984 -5.76493,3.5984 -2.97033,0 -4.8574,-1.67675 -4.8574,-4.43677 0,-3.98445 3.98157,-6.18555 10.23915,-6.22302 l 0,-1.22155 c 0,-2.16652 -0.8038,-3.32181 -3.46011,-3.32181 -0.97954,0 -1.99079,0.14116 -2.86661,0.38605 -0.0691,0.80381 -0.24489,1.67676 -0.38318,2.58716 l -2.34227,0 0,-4.92943 c 1.71132,-0.55892 3.77414,-0.94498 6.0127,-0.94498 5.30972,0 6.77904,2.34228 6.77904,5.9061 l 0,8.94846 c 0.83838,0.14117 1.99078,0.27947 2.9012,0.3486 l 0,2.3077 c -1.81793,0.21032 -4.37052,0.3486 -6.39588,0.24489 m -0.24489,-7.83062 c -5.06772,0 -6.64076,1.43475 -6.64076,3.11151 0,1.32815 0.91041,2.16652 2.37685,2.16652 2.55259,0 4.26391,-2.44598 4.26391,-4.92655 l 0,-0.35148 z m -13.70151,-6.21922 c -3.80871,-0.62806 -5.52293,1.78335 -5.52293,6.98937 l 0,4.30136 c 1.04871,0.0691 2.13197,0.24201 3.04237,0.45232 l 0,2.3077 -9.78684,0 0,-2.3077 c 0.90752,-0.21031 1.99367,-0.38317 3.03949,-0.45232 l 0,-11.71135 c -0.83839,-0.13829 -2.02536,-0.27659 -3.03949,-0.34861 l 0,-2.30482 c 1.95621,-0.21031 4.47424,-0.35148 6.60619,-0.24777 0,0.97955 -0.14117,2.51802 -0.35149,3.84617 l 0.0375,0 c 0.8038,-2.34227 2.5497,-4.5088 6.15097,-4.19477 l -0.17573,3.67042 z m -15.20403,0 c -3.80871,-0.62806 -5.52292,1.78335 -5.52292,6.98937 l 0,4.30136 c 1.0487,0.0691 2.13196,0.24201 3.04236,0.45232 l 0,2.3077 -9.78684,0 0,-2.3077 c 0.90753,-0.21031 1.99368,-0.38317 3.03949,-0.45232 l 0,-11.71135 c -0.8355,-0.13829 -2.02536,-0.27659 -3.03949,-0.34861 l 0,-2.30482 c 1.95622,-0.21031 4.47424,-0.35148 6.60619,-0.24777 0,0.97955 -0.14116,2.51802 -0.35149,3.84617 l 0.0375,0 c 0.8038,-2.34227 2.5497,-4.5088 6.15098,-4.19477 l -0.17574,3.67042 z m -16.07755,5.59235 -11.08041,0 c -0.10375,4.01903 1.67964,5.83695 5.13974,5.83695 1.78047,0 3.63297,-0.42062 5.06772,-1.11783 l 0.3486,2.97033 c -1.74877,0.73178 -3.87785,1.11784 -6.00981,1.11784 -5.4192,0 -8.38954,-2.79747 -8.38954,-8.91389 0,-5.24057 2.86662,-9.15588 7.93434,-9.15588 4.964,0 7.09308,3.39096 7.09308,7.51371 0,0.48976 -0.0345,1.08326 -0.10375,1.74877 m -7.13054,-6.50247 c -2.09738,0 -3.56383,1.53847 -3.87785,3.88075 l 7.37254,0 c 0.072,-2.37685 -1.2907,-3.88075 -3.49469,-3.88075 m -17.47481,14.96001 c 0,-0.90752 0.0691,-2.27312 0.24489,-3.2498 l -0.0691,0 c -0.94497,2.13197 -2.97032,3.5984 -5.6612,3.5984 -4.26392,0 -6.39587,-3.14318 -6.39587,-8.17922 0,-5.97524 3.46011,-9.81853 9.08675,-9.81853 0.83837,0 1.67675,0.0691 2.62172,0.13829 l 0,-5.10229 c -0.84126,-0.13829 -2.02824,-0.27946 -3.04236,-0.3486 l 0,-2.3077 c 1.95621,-0.20744 4.47424,-0.34861 6.74447,-0.24489 l 0,22.61315 c 0.83838,0.14117 1.99368,0.27947 2.90119,0.3486 l 0,2.3077 c -1.81792,0.21032 -4.33305,0.3486 -6.43044,0.24489 m -0.17286,-14.36478 c -0.94497,-0.21032 -1.8525,-0.31403 -2.7629,-0.31403 -2.97034,0 -4.9957,1.81793 -4.9957,6.49959 0,3.49469 1.08039,5.45377 3.45724,5.45377 2.7629,0 4.30136,-3.28725 4.30136,-6.25757 l 0,-5.38176 z m -21.53221,3.18093 c 0,-2.16652 -0.59349,-3.42553 -2.58428,-3.42553 -2.58716,0 -4.54626,2.76002 -4.54626,6.22012 l 0,5.62953 c 0.91041,0.0691 1.88996,0.20743 2.69088,0.41775 l 0,2.34227 -9.43535,0 0,-2.3077 c 0.90752,-0.21032 1.99367,-0.38319 3.04236,-0.45232 l 0,-11.70848 c -0.84125,-0.14117 -2.02824,-0.27946 -3.04236,-0.35149 l 0,-2.30482 c 1.95622,-0.21031 4.47423,-0.35148 6.60618,-0.24489 0,0.90753 -0.10375,2.41143 -0.27945,3.39098 l 0.0691,0.0345 c 1.01412,-2.23855 3.11151,-3.77414 6.00981,-3.77414 3.94989,0 5.20889,2.48056 5.20889,5.5575 l 0,9.40077 c 1.01412,0.0691 2.02825,0.242 2.9012,0.45233 l 0,2.3077 -6.64076,0 0,-11.18414 z m -26.42301,11.18385 0,-2.3077 c 0.90752,-0.20743 1.99366,-0.38317 3.04236,-0.45232 l 0,-11.70848 c -0.83838,-0.14116 -2.02824,-0.27946 -3.04236,-0.35148 l 0,-2.30482 c 1.95621,-0.21031 4.47422,-0.3486 6.74447,-0.24488 l 0,14.60966 c 1.01413,0.0691 2.06281,0.24489 2.90119,0.45232 l 0,2.3077 -9.64566,0 z m 4.89486,-19.95685 c -1.32815,0 -2.37685,-1.04869 -2.37685,-2.33939 0,-1.29357 1.0487,-2.34227 2.37685,-2.34227 1.32815,0 2.40852,1.01124 2.40852,2.34227 0,1.2907 -1.08037,2.33939 -2.40852,2.33939 m -17.1977,19.95685 0,-2.34227 c 0.62806,-0.13829 1.32815,-0.27945 1.99079,-0.3486 l -7.89689,-9.08675 0,9.0176 c 0.76924,0.0691 1.71132,0.20743 2.48056,0.41775 l 0,2.34227 -9.29706,0 0,-2.3077 c 0.9104,-0.20743 1.99367,-0.38317 3.04236,-0.45232 l 0,-18.06978 c -1.04869,-0.0691 -2.13196,-0.24489 -3.04236,-0.4552 l 0,-2.30481 9.29706,0 0,2.33939 c -0.76924,0.21031 -1.71132,0.35148 -2.48056,0.42062 l 0,8.45869 7.79317,-8.52783 c -0.70008,-0.0375 -1.5039,-0.17575 -2.13196,-0.35148 l 0,-2.33939 9.12133,0 0,2.30481 c -0.73467,0.17574 -1.60762,0.31691 -2.34228,0.42063 l -8.1072,8.59697 8.63155,9.54195 c 0.73465,0.0691 1.6076,0.24489 2.34226,0.41775 l 0,2.3077 -9.40077,0 z m -30.96714,-11.18394 c 0,-2.16652 -0.59349,-3.42554 -2.58428,-3.42554 -2.58716,0 -4.546262,2.76003 -4.546262,6.22013 l 0,5.62952 c 0.910412,0.0691 1.889962,0.20744 2.690872,0.41775 l 0,2.34228 -9.435347,0 0,-2.3077 c 0.910412,-0.21032 1.993675,-0.38319 3.042362,-0.45232 l 0,-11.70848 c -0.838375,-0.14117 -2.028237,-0.27946 -3.042362,-0.35149 l 0,-2.30482 c 1.956225,-0.21031 4.474237,-0.35148 6.606187,-0.24489 0,0.90753 -0.10375,2.41143 -0.27945,3.39098 l 0.06913,0.0345 c 1.01413,-2.23855 3.11151,-3.77414 6.0127,-3.77414 3.94988,0 5.206,2.48056 5.206,5.5575 l 0,9.40077 c 1.01413,0.0691 2.02825,0.242 2.9012,0.45233 l 0,2.3077 -6.64076,0 0,-11.18414 z m -26.423017,11.18385 0,-2.3077 c 0.907525,-0.20743 1.993662,-0.38317 3.042362,-0.45232 l 0,-11.70848 c -0.838375,-0.14116 -2.028237,-0.27946 -3.042362,-0.35148 l 0,-2.30482 c 1.956212,-0.21031 4.474225,-0.3486 6.744475,-0.24488 l 0,14.60966 c 1.014125,0.0691 2.062812,0.24489 2.901187,0.45232 l 0,2.3077 -9.645662,0 z m 4.894862,-19.95685 c -1.32815,0 -2.37685,-1.04869 -2.37685,-2.33939 0,-1.29357 1.0487,-2.34227 2.37685,-2.34227 1.32815,0 2.408525,1.01124 2.408525,2.34227 0,1.2907 -1.080375,2.33939 -2.408525,2.33939 m -8.704725,11.49932 -11.080412,0 c -0.10375,4.01902 1.679637,5.83695 5.139737,5.83695 1.780475,0 3.632975,-0.42063 5.067725,-1.11784 l 0.3486,2.97033 c -1.748775,0.73178 -3.87785,1.11784 -6.009812,1.11784 -5.4192,0 -8.389538,-2.79747 -8.389538,-8.91389 0,-5.24057 2.866613,-9.15588 7.934338,-9.15588 4.964,0 7.093075,3.39096 7.093075,7.51371 0,0.48976 -0.0345,1.08326 -0.10375,1.74878 m -7.130538,-6.50248 c -2.097375,0 -3.563825,1.53848 -3.87785,3.88075 l 7.372538,0 c 0.072,-2.37685 -1.2907,-3.88075 -3.494688,-3.88075 m -24.883937,15.09974 c -2.411413,0 -5.03315,-0.13829 -6.220125,-0.13829 l -3.042363,0 0,-2.3077 c 0.9104,-0.21031 1.993663,-0.38606 3.042363,-0.4552 l 0,-18.0669 c -1.0487,-0.072 -2.131963,-0.24489 -3.042363,-0.4552 l 0,-2.3077 2.935763,0 c 1.887062,0 4.649975,-0.10375 7.409987,-0.10375 7.409988,0 11.987938,3.38807 11.987938,11.5673 0,8.1072 -5.347175,12.2674 -13.0712,12.2674 m 0.769237,-20.68863 c -1.1553,0 -2.37685,0.0346 -3.215225,0.10375 l 0,17.15938 c 0.769238,0.10375 1.921638,0.17574 2.829163,0.17574 5.067724,0 8.634425,-2.69088 8.634425,-8.73814 0,-5.59206 -2.483438,-8.70069 -8.248363,-8.70069 m 71.190665,-80.26616 21.6941,0 0,50.32571 -21.6941,0 0,-50.32571 z m 0.006,-7.47626 21.68834,0 0,-16.46216 -21.6797,0 -0.009,16.46216 z m -28.352152,25.07355 c -2.2011,-2.3538 -4.822838,-3.98158 -7.3178,-5.30972 l 25.528742,-36.22599 -24.609705,0 -23.411188,32.10324 0.0087,-32.10324 -20.809624,0 0,74.26124 20.988249,0 0.0087,-26.33831 2.088738,0 c 0.803812,0.006 6.6955,-0.21607 10.31695,5.3443 l 13.4659,20.99401 25.25505,0 -11.953325,-19.09829 c -4.04495,-6.67245 -7.418625,-11.36564 -9.559225,-13.62724 m 266.85765,-0.006 c -2.19823,-2.34515 -4.843,-3.98446 -7.32933,-5.30972 l 25.53163,-36.22023 -24.61259,0 -23.41695,32.10324 0.0289,-32.10324 -20.82117,0 0,74.26125 20.99114,0 0.002,-26.33831 2.08298,0 c 0.81245,0 7.32643,0.006 10.32846,5.3443 l 13.46302,20.99401 25.26082,0 -11.93897,-19.09254 c -4.05936,-6.67533 -7.42438,-11.36563 -9.55635,-13.63876 m 64.52916,1.04581 -2.5036,0 c -10.76927,-0.009 -18.08419,3.13167 -18.08419,10.60504 0,4.64998 3.73092,6.88854 8.5624,6.89141 5.77933,0 9.36045,-2.56411 12.01962,-5.2377 l 0,-12.25875 z m 22.73416,8.54223 c 0,10.60505 1.0775,18.2196 2.16365,23.1375 l -22.26744,0 c -0.61365,-1.78335 -1.25613,-5.35583 -1.39729,-7.6059 -3.74821,4.48575 -10.9162,9.42671 -20.88742,9.42671 -13.11442,-0.006 -22.43453,-7.49355 -22.42588,-20.94792 0,-18.84478 18.98594,-26.17409 39.57949,-26.17122 l 2.50361,0 0,-3.43706 c 0,-5.84271 -2.65918,-8.52782 -11.55579,-8.52782 -8.5768,0 -15.43363,3.72516 -19.16745,6.58313 l -9.9885,-13.62723 c 5.77357,-4.92368 16.53708,-10.74623 32.13493,-10.74047 22.15507,0.002 31.31672,7.91994 31.30809,27.96898 l 0,23.9413 z m -257.89431,-18.5596 c 6.49094,0.003 9.50161,-3.4457 9.5045,-8.66611 0,-5.2377 -3.0078,-8.13026 -10.55895,-8.13602 l -9.85599,-0.002 -0.009,16.805 10.91908,0 z m 16.00696,10.47252 c 2.42007,2.00519 5.90321,5.33854 9.96258,12.01386 l 11.93896,19.21643 -22.96175,0 -13.44574,-21.11214 c -3.50045,-5.2838 -9.52466,-5.34141 -10.33422,-5.3443 l -2.08587,0 0,26.45644 -21.01995,0 0.0173,-74.26125 32.37118,0 c 19.49876,0.002 30.9854,7.64911 30.97964,22.44605 0,12.02539 -8.0006,18.25129 -15.42211,20.58491 m 67.00395,-0.49842 -2.50073,0.009 c -10.76637,-0.0113 -18.09282,3.13167 -18.09282,10.5964 -0.006,4.65861 3.74245,6.89429 8.59121,6.89717 5.75629,0 9.34027,-2.55258 12.00234,-5.2377 l 0,-12.26452 z m 22.73703,8.54512 c 0,10.60504 1.09191,18.25704 2.16942,23.18359 l -22.25879,0 c -0.64246,-1.78911 -1.24172,-5.39904 -1.40305,-7.64335 -3.75686,4.47998 -10.92773,9.42382 -20.89895,9.41806 -13.1173,-0.006 -22.44893,-7.49354 -22.44029,-20.93927 0.002,-18.85342 19.00899,-26.18274 39.5939,-26.1741 l 2.50073,-0.006 0,-3.43706 c 0,-5.83695 -2.65342,-8.52494 -11.53562,-8.52494 -8.58256,0 -15.44228,3.72804 -19.19913,6.59177 l -9.96547,-13.63587 c 5.77934,-4.92079 16.53708,-10.74334 32.12918,-10.73758 22.14642,0 31.31672,7.91993 31.31096,27.9632 l 0,23.94132 z m 270.10337,27.32929 c -1.15818,-0.0864 -2.35668,-0.27082 -2.80612,-0.40334 l 0.003,-3.73669 12.02539,0.009 -0.006,3.73381 c -0.49265,0.17862 -1.82369,0.31115 -2.93288,0.35148 l 3.06253,11.80067 c 0.57909,2.37109 1.07174,5.085 1.11496,5.43649 l 0.0864,0 c 0.0461,-0.35148 0.62518,-3.29877 1.24748,-5.65545 l 4.14579,-15.66124 5.88018,-0.006 4.13714,15.58921 c 0.62231,2.44311 1.15817,5.42497 1.20715,5.6929 l 0.0923,0.006 c 0.0346,-0.27369 0.61365,-3.25555 1.19273,-5.52004 l 3.03373,-11.66814 c -1.15818,-0.049 -2.49498,-0.22184 -2.94441,-0.36301 l 0.009,-3.73093 11.39732,0 0,3.73669 c -0.44656,0.13542 -1.69404,0.35725 -2.85221,0.39758 l -7.22562,25.51722 -5.60935,-0.002 -4.35322,-16.51979 c -0.6223,-2.45175 -1.15818,-5.3904 -1.1985,-5.5258 l -0.0951,0 c 0,0.0893 -0.66552,3.12014 -1.3368,5.5258 l -4.58946,16.51403 -5.61223,0.006 -7.07292,-25.52299 z m 42.6161,25.52586 12.24433,0.006 c 11.80357,0 17.19108,-6.72143 17.19108,-15.31264 0.009,-8.64019 -5.28669,-14.34174 -16.95483,-14.34461 l -12.46907,-0.006 0,3.74245 c 0.6684,0.17862 2.35956,0.40046 3.51774,0.40046 l -0.002,21.37432 c -1.15817,0 -2.80612,0.22471 -3.52637,0.40046 l 0,3.73956 z m 9.80123,-25.0188 2.71969,0 c 7.03834,0 10.28236,3.24979 10.28236,9.93665 0,6.62922 -3.37943,10.46099 -10.06052,10.46099 l -2.94441,-0.006 0.002,-20.39188 z m 23.39967,25.03033 12.82343,0.002 0.003,-3.73669 c -0.61942,-0.14405 -1.86978,-0.36302 -3.02796,-0.40912 l 0,-8.14752 0.7145,0.006 c 1.78046,0 2.62173,0.484 4.67014,3.82888 l 5.03315,8.45868 7.8335,0 0,-3.73381 c -0.52724,-0.13829 -2.03976,-0.36012 -3.19794,-0.40334 l -3.03084,-4.72488 c -1.42035,-2.35955 -2.7168,-3.73669 -4.01038,-4.5376 l 0,-0.0951 c 3.65313,-0.6223 6.87123,-3.11439 6.87123,-7.79317 0,-5.51717 -3.96716,-8.36649 -11.0055,-8.36938 l -13.66757,-0.006 -0.009,3.74245 c 0.67705,0.17863 2.36532,0.40046 3.5235,0.40046 l -0.002,21.37432 c -1.16393,0 -2.809,0.22472 -3.52061,0.40335 l 0,3.73956 z m 9.80125,-25.20608 3.29876,0.006 c 3.51774,0 5.15704,1.42611 5.15704,4.36764 0,2.84932 -1.64795,4.39932 -4.89774,4.39932 l -3.56095,0 0.003,-8.77272 z"
       id="path586"
       style="fill:#000000;fill-opacity:1;fill-rule:nonzero;stroke:none" />
  </g>
</svg>
