<?xml version="1.0" encoding="UTF-8" standalone="no"?>
<!-- Created with Inkscape (http://www.inkscape.org/) -->
<svg
   xmlns:svg="http://www.w3.org/2000/svg"
   xmlns="http://www.w3.org/2000/svg"
   version="1.0"
   width="602.36218"
   height="148.5"
   id="svg2203">
  <defs
     id="defs2205" />
  <g
     id="layer1">
    <g
       transform="translate(195.4668,-43.82646)"
       id="g2216">
      <polygon
         points="10580600,500700 16500000,500700 16500000,3691340 10580600,3691340 10580600,500700 "
         transform="matrix(3.543307e-5,0,0,3.543307e-5,-195.4675,43.80804)"
         style="fill:white;fill-rule:evenodd"
         id="polygon2184" />
      <path
         d="M 179.43562,61.549383 L 389.17955,61.549383 L 389.17955,174.60355 L 179.43562,174.60355 L 179.43562,61.549383 L 179.43562,61.549383 z M 216.27503,163.61434 L 205.3457,145.68273 L 215.36901,130.01777 L 206.25172,130.01777 L 198.44759,144.12296 L 198.44759,130.01777 L 190.43865,130.01777 L 190.43865,163.61434 L 198.44759,163.61434 L 198.44759,148.15312 L 206.65424,163.61434 L 216.27503,163.61434 z M 237.02747,163.61434 L 237.02747,157.31788 L 226.5492,157.31788 L 226.5492,130.01777 L 218.54062,130.01777 L 218.54062,163.61434 L 237.02747,163.61434 z M 267.73838,163.61434 L 257.36464,130.01777 L 248.19527,130.01777 L 237.82117,163.61434 L 245.88113,163.61434 L 247.74385,156.05682 L 257.51629,156.05682 L 259.42755,163.61434 L 267.73838,163.61434 z M 256.15566,150.46725 L 249.00172,150.46725 L 252.52838,136.56544 L 256.15566,150.46725 z M 290.69298,153.6906 C 290.69298,148.04895 288.32676,145.88292 284.1453,143.97166 L 281.277,142.66277 C 279.162,141.70501 278.0005,140.79899 278.0005,138.78462 C 278.0005,136.41379 280.06802,135.2569 282.43424,135.2569 C 284.54818,135.2569 287.21842,136.11544 289.08113,137.06859 L 289.38444,130.67257 C 286.76735,130.06985 284.652,129.51568 281.58031,129.51568 C 275.33133,129.51568 269.74176,132.83859 269.74176,139.13505 C 269.74176,143.3654 271.25369,146.4371 275.58361,148.50355 L 278.65531,149.96481 C 280.77385,150.9704 282.43424,151.97918 282.43424,154.3454 C 282.43424,156.15745 281.37656,158.42729 277.7018,158.42729 C 275.68637,158.42729 272.76597,157.76895 270.24385,156.36084 L 269.94515,162.80788 C 272.36345,163.61434 276.09031,164.16851 278.95861,164.16851 C 285.70968,164.16851 290.69298,159.88749 290.69298,153.6906 z M 315.87916,153.6906 C 315.87916,148.04895 313.50834,145.88292 309.33149,143.97166 L 306.45857,142.66277 C 304.34357,141.70501 303.18668,140.79899 303.18668,138.78462 C 303.18668,136.41379 305.2496,135.2569 307.61582,135.2569 C 309.73401,135.2569 312.40353,136.11544 314.26625,137.06859 L 314.56601,130.67257 C 311.94857,130.06985 309.83357,129.51568 306.76188,129.51568 C 300.51715,129.51568 294.92653,132.83859 294.92653,139.13505 C 294.92653,143.3654 296.43527,146.4371 300.76838,148.50355 L 303.84042,149.96481 C 305.95542,150.9704 307.61582,151.97918 307.61582,154.3454 C 307.61582,156.15745 306.55814,158.42729 302.88338,158.42729 C 300.86794,158.42729 297.94755,157.76895 295.42967,156.36084 L 295.12672,162.80788 C 297.54361,163.61434 301.27046,164.16851 304.14338,164.16851 C 310.89125,164.16851 315.87916,159.88749 315.87916,153.6906 z M 321.46873,163.61434 L 329.4766,163.61434 L 329.4766,130.01777 L 321.46873,130.01777 L 321.46873,163.61434 z M 362.41483,163.61434 L 351.48656,145.68273 L 361.50881,130.01777 L 352.39152,130.01777 L 344.58278,144.12296 L 344.58278,130.01777 L 336.57491,130.01777 L 336.57491,163.61434 L 344.58278,163.61434 L 344.58278,148.15312 L 352.79511,163.61434 L 362.41483,163.61434 z "
         style="fill:#e81d3c;fill-rule:evenodd"
         id="path2186" />
      <rect
         width="299.81339"
         height="113.05417"
         x="-177.75098"
         y="61.549381"
         style="fill:white;fill-rule:evenodd"
         id="rect2188" />
      <path
         d="M -177.75098,61.549383 L -21.294136,61.549383 L -21.294136,68.191666 L -13.701538,68.191666 C -8.8815776,68.191666 -6.9813021,71.606706 -6.9813021,76.303359 L -6.9813021,96.515445 C -13.262877,89.682886 -21.198821,87.119304 -30.542876,87.119304 C -51.053309,87.119304 -60.810159,102.9671 -61.973427,119.23938 C -62.050671,120.34702 -62.262561,124.43564 -61.430238,130.85895 L -47.390947,130.85895 C -47.390947,130.60383 -47.881695,128.23513 -48.050711,126.54355 C -48.345514,123.65115 -48.158427,119.98773 -48.093939,119.09198 C -47.178703,106.23155 -41.009451,94.963122 -27.330514,95.09139 C -16.378507,95.230996 -10.342129,102.91962 -7.4224438,105.91194 L 5.4333827,120.28678 L 5.4333827,61.549383 L 122.0624,61.549383 L 122.0624,174.60355 L -177.75098,174.60355 L -177.75098,96.363437 L -167.93496,96.363437 C -163.17063,96.363437 -162.59449,98.575878 -162.59449,103.13966 L -162.59449,131.71182 C -162.59449,131.71182 -151.89441,114.63592 -149.01441,110.21493 C -145.4176,104.69978 -140.27909,94.547138 -129.68213,94.154894 C -113.65823,93.567414 -112.07083,111.09119 -111.78169,114.3319 L -111.63783,114.47576 C -111.63783,114.47576 -104.19406,94.831666 -89.986812,94.154894 C -75.798702,93.479185 -72.891419,107.52308 -72.358505,112.8795 C -72.145198,114.97926 -72.173545,120.03521 -72.173545,120.03521 L -66.165513,120.03521 C -66.146025,120.03521 -66.163033,117.9273 -66.163033,117.9273 C -66.163033,101.06682 -70.771104,86.711115 -89.842599,87.231627 C -98.737717,87.479658 -104.99909,93.123083 -109.18161,99.163004 C -111.92697,92.535603 -119.5465,86.815288 -129.53791,87.231627 C -139.5272,87.651154 -145.9948,94.447217 -150.3272,101.3719 L -150.3272,89.443713 L -177.75098,89.443713 L -177.75098,61.549383 L -177.75098,61.549383 z M 59.854326,94.191036 C 62.969956,94.075524 67.366137,94.931587 68.073381,98.335288 C 62.974562,98.335288 59.569444,100.70293 59.569444,106.031 C 59.569444,110.32371 63.677554,112.83981 67.505389,112.83981 C 73.173617,112.83981 75.442397,108.5471 75.442397,102.92281 C 75.442397,92.714894 69.057712,86.831233 59.425586,87.231627 C 49.433815,87.651154 43.542358,94.483713 39.209957,101.40698 L 39.209957,89.478792 L 11.786532,89.478792 L 11.786532,96.39887 L 21.602201,96.39887 C 26.36228,96.39887 26.94161,98.607414 26.94161,103.1758 L 26.94161,131.74336 C 26.94161,131.74336 37.641689,114.66745 40.521689,110.25107 C 44.113894,104.73485 49.253815,94.58328 59.854326,94.191036 z "
         style="fill:#006cb8;fill-opacity:1;fill-rule:evenodd"
         id="path2190" />
      <polygon
         points="9134450,3691340 10401400,3691340 10401400,500700 9134450,500700 9134450,3691340 "
         transform="matrix(3.543307e-5,0,0,3.543307e-5,-195.4675,43.80804)"
         style="fill:#6795ce;fill-rule:nonzero"
         id="polygon2192" />
    </g>
  </g>
</svg>
