<?xml version="1.0" encoding="UTF-8" standalone="no"?>
<!-- Created with Inkscape (http://www.inkscape.org/) -->
<svg
   xmlns:svg="http://www.w3.org/2000/svg"
   xmlns="http://www.w3.org/2000/svg"
   version="1.0"
   width="602.36218"
   height="148.5"
   id="svg2082">
  <defs
     id="defs2084" />
  <g
     id="layer1">
    <g
       transform="translate(-30.24748,-98.11218)"
       id="g2112">
      <polygon
         points="10580600,500700 16500000,500700 16500000,3691340 10580600,3691340 10580600,500700 "
         transform="matrix(3.543307e-5,0,0,3.543307e-5,30.24677,98.09376)"
         style="fill:white;fill-rule:evenodd"
         id="polygon2063" />
      <path
         d="M 405.14991,115.8351 L 614.89384,115.8351 L 614.89384,228.88927 L 405.14991,228.88927 L 405.14991,115.8351 L 405.14991,115.8351 z M 587.9399,218.06128 C 575.76723,218.06128 571.53085,208.02947 571.53085,197.53596 C 571.53085,187.27561 576.42522,177.01171 587.9399,177.01171 C 600.22845,177.01171 604.46943,187.15159 604.46943,197.53596 C 604.46943,208.1021 599.51482,218.06128 587.9399,218.06128 z M 550.1679,184.526 L 547.60361,184.526 L 547.60361,194.49474 L 550.22813,194.49474 C 553.62758,194.49474 555.59872,192.58702 555.59872,189.42073 C 555.59872,186.02128 553.45148,184.526 550.1679,184.526 z M 523.13813,217.40824 L 520.86935,208.45431 L 509.29904,208.45431 L 507.09014,217.40824 L 497.5388,217.40824 L 509.83195,177.60805 L 520.69325,177.60805 L 532.9864,217.40824 L 523.13813,217.40824 z M 587.9399,183.80458 C 582.21286,183.80458 581.37522,191.74868 581.37522,197.53596 C 581.37522,204.69486 582.68979,211.25954 587.9399,211.25954 C 593.96388,211.25954 594.62152,203.25982 594.62152,197.53596 C 594.62152,191.68844 594.084,183.80458 587.9399,183.80458 z M 556.78927,217.40824 L 553.62758,205.76848 C 552.73325,202.5508 551.5427,201.47258 549.5751,201.47258 L 547.66278,201.47258 L 547.66278,217.40824 L 538.29215,217.40824 L 538.29215,177.60805 L 552.91396,177.60805 C 559.35817,177.60805 565.20711,180.88702 565.20711,187.80498 C 565.20711,192.99947 562.40081,196.58281 557.26656,197.5962 C 560.13203,198.36651 561.50648,199.97305 562.70199,203.85758 L 566.87388,217.40824 L 556.78927,217.40824 z M 514.9616,185.35549 L 510.7851,201.82939 L 519.26282,201.82939 L 514.9616,185.35549 z M 479.97534,218.06128 C 467.61876,218.06128 461.71065,209.82557 461.71065,197.53596 C 461.71065,185.48057 469.46589,177.01171 481.70341,177.01171 C 486.11943,177.01171 488.98136,177.8412 491.54247,178.67848 L 491.18211,186.32246 C 488.6816,185.05891 486.41601,184.04553 482.42022,184.04553 C 475.14546,184.04553 471.55892,190.13754 471.55892,197.53596 C 471.55892,204.21758 473.8277,211.01506 481.05002,211.01506 C 482.06022,211.01506 483.01798,210.83116 483.9155,210.41872 L 483.9155,201.22738 L 479.31416,201.22738 L 479.31416,194.55037 L 492.62495,194.55037 L 492.62495,215.97321 C 488.98136,217.5762 483.85172,218.06128 479.97534,218.06128 z M 455.20975,217.40824 L 445.71865,217.40824 L 445.71865,177.60805 L 455.20975,177.60805 L 455.20975,217.40824 z M 425.97144,184.82718 L 425.97144,193.78112 L 438.07928,193.78112 L 438.07928,200.87517 L 425.97144,200.87517 L 425.97144,217.40824 L 416.47999,217.40824 L 416.47999,177.60805 L 438.68129,177.60805 L 438.68129,184.82718 L 425.97144,184.82718 z "
         style="fill:#c50468;fill-rule:evenodd"
         id="path2065" />
      <rect
         width="299.81339"
         height="113.05417"
         x="47.963303"
         y="115.8351"
         style="fill:white;fill-rule:evenodd"
         id="rect2067" />
      <path
         d="M 47.963303,115.8351 L 204.42015,115.8351 L 204.42015,122.47738 L 212.01275,122.47738 C 216.83271,122.47738 218.73298,125.89242 218.73298,130.58907 L 218.73298,150.80116 C 212.45141,143.9686 204.51546,141.40502 195.17141,141.40502 C 174.66098,141.40502 164.90413,157.25281 163.74086,173.5251 C 163.66361,174.63273 163.45173,178.72136 164.28405,185.14466 L 178.32334,185.14466 C 178.32334,184.88954 177.83259,182.52084 177.66358,180.82927 C 177.36877,177.93687 177.55586,174.27344 177.62035,173.37769 C 178.53558,160.51726 184.70483,149.24884 198.38377,149.3771 C 209.33578,149.51671 215.37216,157.20533 218.29184,160.19766 L 231.14767,174.5725 L 231.14767,115.8351 L 347.77668,115.8351 L 347.77668,228.88927 L 47.963303,228.88927 L 47.963303,150.64915 L 57.779326,150.64915 C 62.543657,150.64915 63.119798,152.86159 63.119798,157.42537 L 63.119798,185.99754 C 63.119798,185.99754 73.819877,168.92163 76.699877,164.50065 C 80.296688,158.98549 85.435192,148.83285 96.03216,148.44061 C 112.05606,147.85313 113.64346,165.37691 113.93259,168.61762 L 114.07645,168.76147 C 114.07645,168.76147 121.52023,149.11738 135.72747,148.44061 C 149.91558,147.7649 152.82287,161.8088 153.35578,167.16521 C 153.56909,169.26498 153.54074,174.32092 153.54074,174.32092 L 159.54877,174.32092 C 159.56826,174.32092 159.55125,172.21301 159.55125,172.21301 C 159.55125,155.35254 154.94318,140.99683 135.87169,141.51734 C 126.97657,141.76537 120.71519,147.4088 116.53267,153.44872 C 113.78732,146.82132 106.16779,141.101 96.176372,141.51734 C 86.187081,141.93687 79.719483,148.73293 75.387082,155.65762 L 75.387082,143.72943 L 47.963303,143.72943 L 47.963303,115.8351 L 47.963303,115.8351 z M 285.56861,148.47675 C 288.68424,148.36124 293.08042,149.2173 293.78767,152.621 C 288.68885,152.621 285.28373,154.98864 285.28373,160.31671 C 285.28373,164.60943 289.39184,167.12553 293.21967,167.12553 C 298.8879,167.12553 301.15668,162.83281 301.15668,157.20852 C 301.15668,147.00061 294.772,141.11695 285.13987,141.51734 C 275.1481,141.93687 269.25664,148.76943 264.92424,155.69269 L 264.92424,143.76451 L 237.50082,143.76451 L 237.50082,150.68458 L 247.31649,150.68458 C 252.07657,150.68458 252.6559,152.89313 252.6559,157.46151 L 252.6559,186.02907 C 252.6559,186.02907 263.35597,168.95317 266.23597,164.53679 C 269.82818,159.02057 274.9681,148.86899 285.56861,148.47675 z "
         style="fill:#006cb8;fill-opacity:1;fill-rule:evenodd"
         id="path2069" />
      <polygon
         points="9134450,3691340 10401400,3691340 10401400,500700 9134450,500700 9134450,3691340 "
         transform="matrix(3.543307e-5,0,0,3.543307e-5,30.24677,98.09376)"
         style="fill:#6795ce;fill-rule:nonzero"
         id="polygon2071" />
    </g>
  </g>
</svg>
