<?xml version="1.0" encoding="UTF-8" standalone="no"?>
<!-- Created with Inkscape (http://www.inkscape.org/) -->

<svg
   xmlns:dc="http://purl.org/dc/elements/1.1/"
   xmlns:cc="http://creativecommons.org/ns#"
   xmlns:rdf="http://www.w3.org/1999/02/22-rdf-syntax-ns#"
   xmlns:svg="http://www.w3.org/2000/svg"
   xmlns="http://www.w3.org/2000/svg"
   xmlns:xlink="http://www.w3.org/1999/xlink"
   xmlns:sodipodi="http://sodipodi.sourceforge.net/DTD/sodipodi-0.dtd"
   xmlns:inkscape="http://www.inkscape.org/namespaces/inkscape"
   version="1.1"
   width="100%"
   height="100%"
   viewBox="0 0 87.925209 106.86545"
   id="svg2"
   inkscape:version="0.47 r22583"
   sodipodi:docname="MTV_HITS.svg">
  <metadata
     id="metadata314">
    <rdf:RDF>
      <cc:Work
         rdf:about="">
        <dc:format>image/svg+xml</dc:format>
        <dc:type
           rdf:resource="http://purl.org/dc/dcmitype/StillImage" />
        <dc:title></dc:title>
      </cc:Work>
    </rdf:RDF>
  </metadata>
  <sodipodi:namedview
     pagecolor="#ffffff"
     bordercolor="#666666"
     borderopacity="1"
     objecttolerance="10"
     gridtolerance="10"
     guidetolerance="10"
     inkscape:pageopacity="0"
     inkscape:pageshadow="2"
     inkscape:window-width="1280"
     inkscape:window-height="998"
     id="namedview312"
     showgrid="false"
     inkscape:zoom="1.9903201"
     inkscape:cx="38.965402"
     inkscape:cy="28.893677"
     inkscape:window-x="-4"
     inkscape:window-y="-4"
     inkscape:window-maximized="1"
     inkscape:current-layer="svg2"
     showguides="true"
     inkscape:guide-bbox="true"
     inkscape:snap-global="false" />
  <defs
     id="defs4">
    <inkscape:perspective
       sodipodi:type="inkscape:persp3d"
       inkscape:vp_x="0 : 237.14778 : 1"
       inkscape:vp_y="0 : 1000 : 0"
       inkscape:vp_z="559.63879 : 237.14778 : 1"
       inkscape:persp3d-origin="279.8194 : 158.09852 : 1"
       id="perspective316" />
    <linearGradient
       x1="0"
       y1="0"
       x2="1"
       y2="0"
       id="linearGradient4340"
       gradientUnits="userSpaceOnUse"
       gradientTransform="matrix(9.9776001,0.8522034,-0.8522034,9.9776001,471.98721,139.90482)"
       spreadMethod="pad">
      <stop
         id="stop4342"
         style="stop-color:#89c62b;stop-opacity:1"
         offset="0" />
      <stop
         id="stop4344"
         style="stop-color:#78b5dc;stop-opacity:1"
         offset="1" />
    </linearGradient>
    <clipPath
       id="clipPath4336">
      <path
         d="m -0.045677,-0.544545 1.091847,0 0,1.087206 -1.091847,0 0,-1.087206 z"
         id="path4338" />
    </clipPath>
    <clipPath
       id="clipPath4328">
      <path
         d="m 476.6,145.349 c -0.742,-0.065 -1.3,-0.733 -1.269,-1.488 l 0.167,-2.263 -2.255,-0.169 c -0.759,-0.035 -1.321,-0.719 -1.259,-1.45 0.033,-0.744 0.703,-1.33 1.44,-1.266 l 2.286,0.167 0.145,-2.257 c 0.069,-0.779 0.73,-1.332 1.476,-1.269 0.767,0.05 1.33,0.707 1.268,1.455 l -0.172,2.274 2.278,0.151 c 0.758,0.066 1.331,0.729 1.268,1.481 -0.057,0.746 -0.716,1.334 -1.47,1.27 l -2.263,-0.179 -0.191,2.254 c -0.034,0.728 -0.637,1.294 -1.34,1.294 -0.036,0 -0.072,-0.002 -0.109,-0.005"
         id="path4330" />
    </clipPath>
    <clipPath
       id="clipPath4320">
      <path
         d="m 471.996,134.433 10.894,0.931 -0.927,10.847 -10.894,-0.93"
         id="path4322" />
    </clipPath>
    <linearGradient
       x1="0"
       y1="0"
       x2="1"
       y2="0"
       id="linearGradient4276"
       gradientUnits="userSpaceOnUse"
       gradientTransform="matrix(45.402801,3.8777008,-3.8777008,45.402801,480.3392,130.63979)"
       spreadMethod="pad">
      <stop
         id="stop4278"
         style="stop-color:#89c62b;stop-opacity:1"
         offset="0" />
      <stop
         id="stop4280"
         style="stop-color:#78b5dc;stop-opacity:1"
         offset="1" />
    </linearGradient>
    <clipPath
       id="clipPath4272">
      <path
         d="m -0.028584,-0.249213 1.055894,0 0,0.496561 -1.055894,0 0,-0.496561 z"
         id="path4274" />
    </clipPath>
    <clipPath
       id="clipPath4264">
      <path
         d="m 479.669,138.016 1.27,-14.843 29.807,2.545 1.984,-1.67 1.67,1.983 11.96,1.021 -1.267,14.843"
         id="path4266" />
    </clipPath>
    <clipPath
       id="clipPath4256">
      <path
         d="m 480.007,119.214 47.941,4.094 -1.926,22.546 -47.94,-4.095"
         id="path4258" />
    </clipPath>
    <linearGradient
       x1="0"
       y1="0"
       x2="1"
       y2="0"
       id="linearGradient4244"
       gradientUnits="userSpaceOnUse"
       gradientTransform="matrix(130.85201,0,0,130.85201,259.5892,102.3268)"
       spreadMethod="pad">
      <stop
         id="stop4246"
         style="stop-color:#89c62b;stop-opacity:1"
         offset="0" />
      <stop
         id="stop4248"
         style="stop-color:#78b5dc;stop-opacity:1"
         offset="1" />
    </linearGradient>
    <clipPath
       id="clipPath4240">
      <path
         d="m 2.33e-4,-0.002632 1.000007,0 0,0.006472 -1.000007,0 0,-0.006472 z"
         id="path4242" />
    </clipPath>
    <clipPath
       id="clipPath4232">
      <path
         d="m 259.619,101.983 130.854,0 0,0.847 -130.854,0 0,-0.847 z"
         id="path4234" />
    </clipPath>
    <linearGradient
       x1="0"
       y1="0"
       x2="1"
       y2="0"
       id="linearGradient4148"
       gradientUnits="userSpaceOnUse"
       gradientTransform="matrix(35.055801,0,0,35.055801,323.55823,149.88977)"
       spreadMethod="pad">
      <stop
         id="stop4150"
         style="stop-color:#91cf53;stop-opacity:1"
         offset="0" />
      <stop
         id="stop4152"
         style="stop-color:#8fbbdf;stop-opacity:1"
         offset="1" />
    </linearGradient>
    <clipPath
       id="clipPath4144">
      <path
         d="m -5.21e-4,-0.125941 1.002891,0 0,0.252226 -1.002891,0 0,-0.252226 z"
         id="path4146" />
    </clipPath>
    <linearGradient
       x1="0"
       y1="0"
       x2="1"
       y2="0"
       id="linearGradient4132"
       gradientUnits="userSpaceOnUse"
       gradientTransform="matrix(35.061996,0,0,35.061996,323.52621,149.88977)"
       spreadMethod="pad">
      <stop
         id="stop4134"
         style="stop-color:#89c62b;stop-opacity:1"
         offset="0" />
      <stop
         id="stop4136"
         style="stop-color:#78b5dc;stop-opacity:1"
         offset="1" />
    </linearGradient>
    <clipPath
       id="clipPath4128">
      <path
         d="m 3.7e-4,-0.125919 1.00271,0 0,0.252182 -1.00271,0 0,-0.252182 z"
         id="path4130" />
    </clipPath>
    <clipPath
       id="clipPath4120">
      <path
         d="m 349.809,146.748 c 0.004,-0.701 0.588,-1.258 1.268,-1.258 l -0.026,7.548 c -0.007,0.696 -0.58,1.269 -1.277,1.279 l 0.035,-7.569 z m -9.586,5.355 c -0.004,-0.876 0.721,-1.577 1.621,-1.577 l 1.448,0 c 1.414,0 2.173,-0.994 2.183,-1.914 0.01,-1.09 -0.883,-1.852 -2.164,-1.852 -1.254,0 -2,0.898 -2.012,1.756 0,0.592 0.278,1.162 0.772,1.544 -0.075,0.055 -0.176,0.111 -0.272,0.15 -0.658,0.238 -1.386,-0.095 -1.615,-0.753 -0.094,-0.293 -0.141,-0.614 -0.137,-0.941 0.014,-1.692 1.44,-3.026 3.266,-3.026 0.979,0 1.836,0.317 2.477,0.912 0.603,0.567 0.947,1.361 0.939,2.21 -0.006,1.781 -1.519,3.182 -3.437,3.182 l -1.448,0 c -0.198,0 -0.382,0.146 -0.37,0.309 l -0.009,0.918 c -0.007,0.701 -0.562,1.256 -1.259,1.286 l 0.017,-2.204 z m 7.166,1.103 c 0,-0.383 0.303,-0.685 0.672,-0.685 0.375,0 0.674,0.302 0.674,0.685 -0.002,0.373 -0.307,0.688 -0.682,0.688 -0.369,0 -0.666,-0.315 -0.664,-0.688 m 4.401,-4.545 c 0,-0.871 0.377,-1.679 1.037,-2.286 0.65,-0.58 1.492,-0.9 2.404,-0.9 1.305,0 2.443,0.663 3.018,1.692 -0.395,0.374 -0.977,0.355 -1.457,0.095 -0.387,-0.369 -0.953,-0.585 -1.569,-0.585 -0.951,0 -1.931,0.585 -2.131,1.431 l 4.229,0.011 c 0.666,-0.011 1.375,0.423 1.271,1.087 -0.271,1.505 -1.665,2.6 -3.39,2.6 -1.92,0 -3.412,-1.372 -3.412,-3.145 m 3.414,1.955 c 0.955,0 1.92,-0.578 2.154,-1.388 l -4.266,0 c 0.198,0.784 1.159,1.388 2.112,1.388 m -22.516,-1.981 c 0,-1.77 1.527,-3.145 3.459,-3.145 1.917,0 3.436,1.375 3.418,3.145 0,1.77 -1.51,3.159 -3.445,3.159 -1.934,0 -3.448,-1.389 -3.432,-3.159 m 1.252,0 c -0.004,1.056 0.957,1.891 2.184,1.891 1.226,0 2.187,-0.835 2.187,-1.891 0.006,-1.055 -0.941,-1.875 -2.183,-1.875 -1.225,0 -2.186,0.82 -2.188,1.875 m -6.143,2.367 c -0.453,0.488 -1.095,0.792 -1.824,0.792 -1.345,0 -2.434,-1.072 -2.434,-2.39 l 0.016,-3.914 c 0.694,0 1.243,0.584 1.248,1.279 l -0.01,2.635 c -0.008,0.62 0.53,1.122 1.183,1.122 0.669,0 1.202,-0.502 1.206,-1.122 l 0.01,-2.644 c -0.004,-0.702 0.566,-1.27 1.26,-1.27 l -0.016,3.914 c -0.006,0.62 0.529,1.122 1.182,1.122 0.668,0 1.201,-0.502 1.207,-1.122 l 0.01,-2.621 c -0.002,-0.709 0.566,-1.293 1.263,-1.293 l -0.02,3.914 c -0.013,1.318 -1.116,2.39 -2.462,2.39 -0.721,0 -1.371,-0.304 -1.819,-0.792 m 19.653,-4.242 c 0.01,-0.702 0.567,-1.27 1.26,-1.27 l -0.018,5.011 c 0.008,0.714 -0.567,1.279 -1.258,1.279"
         id="path4122" />
    </clipPath>
    <clipPath
       id="clipPath4112">
      <path
         d="m 323.539,145.475 35.157,0 0,8.842 -35.157,0 0,-8.842 z"
         id="path4114" />
    </clipPath>
    <linearGradient
       x1="0"
       y1="0"
       x2="1"
       y2="0"
       id="linearGradient3810"
       gradientUnits="userSpaceOnUse"
       gradientTransform="matrix(113.263,0,0,-113.263,482.68823,671.8158)"
       spreadMethod="pad">
      <stop
         id="stop3812"
         style="stop-color:#89c62b;stop-opacity:1"
         offset="0" />
      <stop
         id="stop3814"
         style="stop-color:#78b5dc;stop-opacity:1"
         offset="1" />
    </linearGradient>
    <clipPath
       id="clipPath3806">
      <path
         d="m 7.86e-4,-0.12139 1.000134,0 0,0.243936 -1.000134,0 0,-0.243936 z"
         id="path3808" />
    </clipPath>
    <linearGradient
       x1="0"
       y1="0"
       x2="1"
       y2="0"
       id="linearGradient3794"
       gradientUnits="userSpaceOnUse"
       gradientTransform="matrix(113.276,0,0,113.276,482.75122,671.75281)"
       spreadMethod="pad">
      <stop
         id="stop3796"
         style="stop-color:#89c62b;stop-opacity:1"
         offset="0" />
      <stop
         id="stop3798"
         style="stop-color:#78b5dc;stop-opacity:1"
         offset="1" />
    </linearGradient>
    <clipPath
       id="clipPath3790">
      <path
         d="m 2.34e-4,-0.12198 1.000016,0 0,0.243908 -1.000016,0 0,-0.243908 z"
         id="path3792" />
    </clipPath>
    <clipPath
       id="clipPath3782">
      <path
         d="m 482.777,657.936 113.278,0 0,27.629 -113.278,0 0,-27.629 z m 0.903,26.726 111.469,0 0,-25.823 -111.469,0 0,25.823 z"
         id="path3784" />
    </clipPath>
    <clipPath
       id="clipPath3774">
      <path
         d="m 482.777,657.936 113.278,0 0,27.629 -113.278,0 0,-27.629 z"
         id="path3776" />
    </clipPath>
    <linearGradient
       x1="0"
       y1="0"
       x2="1"
       y2="0"
       id="linearGradient3762"
       gradientUnits="userSpaceOnUse"
       gradientTransform="matrix(113.263,0,0,-113.263,482.68823,702.62781)"
       spreadMethod="pad">
      <stop
         id="stop3764"
         style="stop-color:#89c62b;stop-opacity:1"
         offset="0" />
      <stop
         id="stop3766"
         style="stop-color:#78b5dc;stop-opacity:1"
         offset="1" />
    </linearGradient>
    <clipPath
       id="clipPath3758">
      <path
         d="m 7.86e-4,-0.124202 1.000134,0 0,0.248298 -1.000134,0 0,-0.248298 z"
         id="path3760" />
    </clipPath>
    <linearGradient
       x1="0"
       y1="0"
       x2="1"
       y2="0"
       id="linearGradient3746"
       gradientUnits="userSpaceOnUse"
       gradientTransform="matrix(113.276,0,0,113.276,482.75122,702.62781)"
       spreadMethod="pad">
      <stop
         id="stop3748"
         style="stop-color:#89c62b;stop-opacity:1"
         offset="0" />
      <stop
         id="stop3750"
         style="stop-color:#78b5dc;stop-opacity:1"
         offset="1" />
    </linearGradient>
    <clipPath
       id="clipPath3742">
      <path
         d="m 2.34e-4,-0.124081 1.000016,0 0,0.248268 -1.000016,0 0,-0.248268 z"
         id="path3744" />
    </clipPath>
    <clipPath
       id="clipPath3734">
      <path
         d="m 482.777,688.573 113.278,0 0,28.123 -113.278,0 0,-28.123 z m 0.903,27.22 111.469,0 0,-26.316 -111.469,0 0,26.316 z"
         id="path3736" />
    </clipPath>
    <clipPath
       id="clipPath3726">
      <path
         d="m 482.777,688.573 113.278,0 0,28.123 -113.278,0 0,-28.123 z"
         id="path3728" />
    </clipPath>
    <linearGradient
       x1="0"
       y1="0"
       x2="1"
       y2="0"
       id="linearGradient3204"
       gradientUnits="userSpaceOnUse"
       gradientTransform="matrix(113.16499,0,0,113.16499,482.93823,735.87811)"
       spreadMethod="pad">
      <stop
         id="stop3206"
         style="stop-color:#89c62b;stop-opacity:1"
         offset="0" />
      <stop
         id="stop3208"
         style="stop-color:#78b5dc;stop-opacity:1"
         offset="1" />
    </linearGradient>
    <clipPath
       id="clipPath3200">
      <path
         d="m -4.42e-4,-0.143485 1,0 0,0.287279 -1,0 0,-0.287279 z"
         id="path3202" />
    </clipPath>
    <clipPath
       id="clipPath3192">
      <path
         d="m 482.888,752.151 0,-26.129 49.685,0 6.381,-6.381 6.381,6.381 50.718,0 0,26.129"
         id="path3194" />
    </clipPath>
    <clipPath
       id="clipPath3184">
      <path
         d="m 482.888,719.641 113.165,0 0,32.51 -113.165,0 0,-32.51 z"
         id="path3186" />
    </clipPath>
    <linearGradient
       x1="0"
       y1="0"
       x2="1"
       y2="0"
       id="linearGradient3042"
       gradientUnits="userSpaceOnUse"
       gradientTransform="matrix(115.905,0,0,-115.905,95.100815,714.78381)"
       spreadMethod="pad">
      <stop
         id="stop3044"
         style="stop-color:#89c62b;stop-opacity:1"
         offset="0" />
      <stop
         id="stop3046"
         style="stop-color:#78b5dc;stop-opacity:1"
         offset="1" />
    </linearGradient>
    <clipPath
       id="clipPath3038">
      <path
         d="m 0.78339,-0.1895 0.26577,0 0,0.378732 -0.26577,0 0,-0.378732 z"
         id="path3040" />
    </clipPath>
    <linearGradient
       x1="0"
       y1="0"
       x2="1"
       y2="0"
       id="linearGradient3026"
       gradientUnits="userSpaceOnUse"
       gradientTransform="matrix(30.804199,0,0,30.804199,185.89722,714.8158)"
       spreadMethod="pad">
      <stop
         id="stop3028"
         style="stop-color:#89c62b;stop-opacity:1"
         offset="0" />
      <stop
         id="stop3030"
         style="stop-color:#78b5dc;stop-opacity:1"
         offset="1" />
    </linearGradient>
    <clipPath
       id="clipPath3022">
      <path
         d="m 6.9e-5,-0.713026 0.999991,0 0,1.425032 -0.999991,0 0,-1.425032 z"
         id="path3024" />
    </clipPath>
    <clipPath
       id="clipPath3014">
      <path
         d="m 189.142,730.623 c -0.661,-0.9 -1.082,-1.621 -1.263,-1.98 -1.499,-2.583 -1.74,-4.444 -1.979,-7.507 l 0,-11.83 c 0.059,-2.041 0.118,-3.604 0.777,-5.524 0.3,-1.022 1.024,-2.823 2.646,-4.924 4.201,-5.344 9.605,-6.007 12.187,-6.007 7.085,0 11.173,4.745 12.553,6.727 1.918,2.642 2.28,4.804 2.401,6.065 0.12,0.842 0.178,1.742 0.24,2.582 l 0,13.09 c -0.12,2.223 -0.24,4.024 -1.082,6.066 -1.559,3.783 -4.984,6.965 -8.887,8.405 -2.34,0.843 -4.142,0.962 -5.163,0.962 -2.341,0 -8.289,-0.722 -12.43,-6.125 m 9.307,-27.863 c -2.104,1.44 -2.283,3.362 -2.462,5.764 l 0,12.91 c 0.118,1.684 0.179,3.123 1.258,4.385 1.445,1.681 3.426,1.921 4.146,1.921 1.023,0 3.785,-0.42 4.865,-3.302 0.239,-0.659 0.298,-1.021 0.361,-2.222 l 0,-14.289 c -0.182,-2.342 -0.422,-4.206 -2.587,-5.407 -0.357,-0.18 -1.379,-0.601 -2.578,-0.66 -1.441,0 -2.583,0.66 -3.003,0.9"
         id="path3016" />
    </clipPath>
    <clipPath
       id="clipPath3006">
      <path
         d="m 185.9,692.851 30.804,0 0,43.897 -30.804,0 0,-43.897 z"
         id="path3008" />
    </clipPath>
    <linearGradient
       x1="0"
       y1="0"
       x2="1"
       y2="0"
       id="linearGradient2994"
       gradientUnits="userSpaceOnUse"
       gradientTransform="matrix(115.912,0,0,-115.912,94.913315,714.8468)"
       spreadMethod="pad">
      <stop
         id="stop2996"
         style="stop-color:#89c62b;stop-opacity:1"
         offset="0" />
      <stop
         id="stop2998"
         style="stop-color:#78b5dc;stop-opacity:1"
         offset="1" />
    </linearGradient>
    <clipPath
       id="clipPath2990">
      <path
         d="m 0.498479,-0.18895 0.265771,0 0,0.378711 -0.265771,0 0,-0.378711 z"
         id="path2992" />
    </clipPath>
    <linearGradient
       x1="0"
       y1="0"
       x2="1"
       y2="0"
       id="linearGradient2978"
       gradientUnits="userSpaceOnUse"
       gradientTransform="matrix(30.806198,0,0,30.806198,152.69421,714.78381)"
       spreadMethod="pad">
      <stop
         id="stop2980"
         style="stop-color:#89c62b;stop-opacity:1"
         offset="0" />
      <stop
         id="stop2982"
         style="stop-color:#78b5dc;stop-opacity:1"
         offset="1" />
    </linearGradient>
    <clipPath
       id="clipPath2974">
      <path
         d="m -5.7e-5,-0.711967 0.999995,0 0,1.424942 -0.999995,0 0,-1.424942 z"
         id="path2976" />
    </clipPath>
    <clipPath
       id="clipPath2966">
      <path
         d="m 155.935,730.623 c -0.66,-0.9 -1.081,-1.621 -1.261,-1.98 -1.501,-2.583 -1.739,-4.444 -1.981,-7.507 l 0,-11.83 c 0.059,-2.041 0.119,-3.604 0.78,-5.524 0.3,-1.022 1.021,-2.823 2.643,-4.924 4.203,-5.344 9.609,-6.007 12.191,-6.007 7.083,0 11.168,4.745 12.551,6.727 1.92,2.642 2.281,4.804 2.4,6.065 0.12,0.842 0.18,1.742 0.241,2.582 l 0,13.09 c -0.121,2.223 -0.241,4.024 -1.081,6.066 -1.56,3.783 -4.984,6.965 -8.89,8.405 -2.34,0.843 -4.14,0.962 -5.161,0.962 -2.344,0 -8.285,-0.722 -12.432,-6.125 m 9.309,-27.863 c -2.101,1.44 -2.283,3.362 -2.461,5.764 l 0,12.91 c 0.12,1.684 0.178,3.123 1.259,4.385 1.441,1.681 3.424,1.921 4.143,1.921 1.021,0 3.784,-0.42 4.866,-3.302 0.238,-0.659 0.299,-1.021 0.359,-2.222 l 0,-14.289 c -0.181,-2.342 -0.42,-4.206 -2.584,-5.407 -0.358,-0.18 -1.38,-0.601 -2.58,-0.66 -1.442,0 -2.583,0.66 -3.002,0.9"
         id="path2968" />
    </clipPath>
    <clipPath
       id="clipPath2958">
      <path
         d="m 152.693,692.851 30.806,0 0,43.897 -30.806,0 0,-43.897 z"
         id="path2960" />
    </clipPath>
    <linearGradient
       x1="0"
       y1="0"
       x2="1"
       y2="0"
       id="linearGradient2946"
       gradientUnits="userSpaceOnUse"
       gradientTransform="matrix(116.123,0,0,-116.123,94.8508,714.78381)"
       spreadMethod="pad">
      <stop
         id="stop2948"
         style="stop-color:#89c62b;stop-opacity:1"
         offset="0" />
      <stop
         id="stop2950"
         style="stop-color:#78b5dc;stop-opacity:1"
         offset="1" />
    </linearGradient>
    <clipPath
       id="clipPath2942">
      <path
         d="m 0.212172,-0.189144 0.265271,0 0,0.378021 -0.265271,0 0,-0.378021 z"
         id="path2944" />
    </clipPath>
    <linearGradient
       x1="0"
       y1="0"
       x2="1"
       y2="0"
       id="linearGradient2930"
       gradientUnits="userSpaceOnUse"
       gradientTransform="matrix(30.804199,0,0,30.804199,119.49139,714.8158)"
       spreadMethod="pad">
      <stop
         id="stop2932"
         style="stop-color:#89c62b;stop-opacity:1"
         offset="0" />
      <stop
         id="stop2934"
         style="stop-color:#78b5dc;stop-opacity:1"
         offset="1" />
    </linearGradient>
    <clipPath
       id="clipPath2926">
      <path
         d="m -8.5e-5,-0.713026 0.999993,0 0,1.425032 -0.999993,0 0,-1.425032 z"
         id="path2928" />
    </clipPath>
    <clipPath
       id="clipPath2918">
      <path
         d="m 122.731,730.623 c -0.662,-0.9 -1.082,-1.621 -1.262,-1.98 -1.502,-2.583 -1.742,-4.444 -1.98,-7.507 l 0,-11.83 c 0.057,-2.041 0.12,-3.604 0.779,-5.524 0.3,-1.022 1.023,-2.823 2.643,-4.924 4.204,-5.344 9.607,-6.007 12.188,-6.007 7.089,0 11.17,4.745 12.553,6.727 1.919,2.642 2.281,4.804 2.4,6.065 0.121,0.842 0.18,1.742 0.241,2.582 l 0,13.09 c -0.12,2.223 -0.241,4.024 -1.08,6.066 -1.561,3.783 -4.986,6.965 -8.887,8.405 -2.343,0.843 -4.144,0.962 -5.164,0.962 -2.341,0 -8.287,-0.722 -12.431,-6.125 m 9.308,-27.863 c -2.101,1.44 -2.284,3.362 -2.464,5.764 l 0,12.91 c 0.121,1.684 0.18,3.123 1.263,4.385 1.441,1.681 3.424,1.921 4.144,1.921 1.019,0 3.78,-0.42 4.863,-3.302 0.238,-0.659 0.301,-1.021 0.361,-2.222 l 0,-14.289 c -0.183,-2.342 -0.423,-4.206 -2.583,-5.407 -0.361,-0.18 -1.381,-0.601 -2.582,-0.66 -1.442,0 -2.583,0.66 -3.002,0.9"
         id="path2920" />
    </clipPath>
    <clipPath
       id="clipPath2910">
      <path
         d="m 119.489,692.851 30.804,0 0,43.897 -30.804,0 0,-43.897 z"
         id="path2912" />
    </clipPath>
    <linearGradient
       x1="0"
       y1="0"
       x2="1"
       y2="0"
       id="linearGradient2898"
       gradientUnits="userSpaceOnUse"
       gradientTransform="matrix(116.233,0,0,-116.233,94.788315,714.53381)"
       spreadMethod="pad">
      <stop
         id="stop2900"
         style="stop-color:#89c62b;stop-opacity:1"
         offset="0" />
      <stop
         id="stop2902"
         style="stop-color:#78b5dc;stop-opacity:1"
         offset="1" />
    </linearGradient>
    <clipPath
       id="clipPath2894">
      <path
         d="m -0.082468,-0.184905 0.275361,0 0,0.369887 -0.275361,0 0,-0.369887 z"
         id="path2896" />
    </clipPath>
    <linearGradient
       x1="0"
       y1="0"
       x2="1"
       y2="0"
       id="linearGradient2882"
       gradientUnits="userSpaceOnUse"
       gradientTransform="matrix(32.007294,0,0,32.007294,85.210205,714.53381)"
       spreadMethod="pad">
      <stop
         id="stop2884"
         style="stop-color:#89c62b;stop-opacity:1"
         offset="0" />
      <stop
         id="stop2886"
         style="stop-color:#78b5dc;stop-opacity:1"
         offset="1" />
    </linearGradient>
    <clipPath
       id="clipPath2878">
      <path
         d="m -2.31e-4,-0.671752 0.999959,0 0,1.343223 -0.999959,0 0,-1.343223 z"
         id="path2880" />
    </clipPath>
    <clipPath
       id="clipPath2870">
      <path
         d="M 90.366,736.026 86.882,712.37 c 1.201,-0.24 2.462,-0.481 3.666,-0.784 1.498,-0.417 3,-0.898 4.501,-1.379 1.142,2.04 1.683,2.582 2.765,3.181 1.199,0.66 2.4,0.722 2.94,0.722 1.203,0 4.142,-0.3 5.465,-3.422 0.12,-0.361 0.482,-1.323 0.482,-2.463 0,-3.363 -2.463,-6.005 -5.706,-6.005 -1.382,0 -3.122,0.54 -4.204,1.441 -0.48,0.42 -0.901,0.962 -1.021,1.081 l -10.567,0 c 0.421,-1.321 0.72,-2.402 1.379,-3.602 0.843,-1.562 1.923,-2.883 3.184,-4.083 4.083,-3.845 8.345,-4.024 10.508,-4.024 1.44,0 6.185,0.12 10.087,2.521 1.322,0.842 2.342,1.742 3.364,2.942 2.522,2.885 3.484,6.305 3.484,10.028 0,5.827 -2.702,8.949 -4.384,10.631 -1.322,1.262 -4.024,3.72 -9.01,3.72 -2.581,0 -4.14,-0.598 -6.484,-1.619 l 0.961,5.764 15.252,0 0,9.006"
         id="path2872" />
    </clipPath>
    <clipPath
       id="clipPath2862">
      <path
         d="m 85.203,693.033 32.006,0 0,42.993 -32.006,0 0,-42.993 z"
         id="path2864" />
    </clipPath>
    <linearGradient
       x1="0"
       y1="0"
       x2="1"
       y2="0"
       id="linearGradient16424"
       xlink:href="#linearGradient2882"
       gradientUnits="userSpaceOnUse"
       gradientTransform="matrix(32.007294,0,0,32.007294,85.210205,714.53381)"
       spreadMethod="pad" />
    <linearGradient
       x1="0"
       y1="0"
       x2="1"
       y2="0"
       id="linearGradient16426"
       xlink:href="#linearGradient2898"
       gradientUnits="userSpaceOnUse"
       gradientTransform="matrix(116.233,0,0,-116.233,94.788315,714.53381)"
       spreadMethod="pad" />
    <linearGradient
       x1="0"
       y1="0"
       x2="1"
       y2="0"
       id="linearGradient16428"
       xlink:href="#linearGradient2930"
       gradientUnits="userSpaceOnUse"
       gradientTransform="matrix(30.804199,0,0,30.804199,119.49139,714.8158)"
       spreadMethod="pad" />
    <linearGradient
       x1="0"
       y1="0"
       x2="1"
       y2="0"
       id="linearGradient16430"
       xlink:href="#linearGradient2946"
       gradientUnits="userSpaceOnUse"
       gradientTransform="matrix(116.123,0,0,-116.123,94.8508,714.78381)"
       spreadMethod="pad" />
    <linearGradient
       x1="0"
       y1="0"
       x2="1"
       y2="0"
       id="linearGradient16432"
       xlink:href="#linearGradient2978"
       gradientUnits="userSpaceOnUse"
       gradientTransform="matrix(30.806198,0,0,30.806198,152.69421,714.78381)"
       spreadMethod="pad" />
    <linearGradient
       x1="0"
       y1="0"
       x2="1"
       y2="0"
       id="linearGradient16434"
       xlink:href="#linearGradient2994"
       gradientUnits="userSpaceOnUse"
       gradientTransform="matrix(115.912,0,0,-115.912,94.913315,714.8468)"
       spreadMethod="pad" />
    <linearGradient
       x1="0"
       y1="0"
       x2="1"
       y2="0"
       id="linearGradient16436"
       xlink:href="#linearGradient3026"
       gradientUnits="userSpaceOnUse"
       gradientTransform="matrix(30.804199,0,0,30.804199,185.89722,714.8158)"
       spreadMethod="pad" />
    <linearGradient
       x1="0"
       y1="0"
       x2="1"
       y2="0"
       id="linearGradient16438"
       xlink:href="#linearGradient3042"
       gradientUnits="userSpaceOnUse"
       gradientTransform="matrix(115.905,0,0,-115.905,95.100815,714.78381)"
       spreadMethod="pad" />
    <linearGradient
       x1="0"
       y1="0"
       x2="1"
       y2="0"
       id="linearGradient16440"
       xlink:href="#linearGradient3204"
       gradientUnits="userSpaceOnUse"
       gradientTransform="matrix(113.16499,0,0,113.16499,482.93823,735.87811)"
       spreadMethod="pad" />
    <linearGradient
       x1="0"
       y1="0"
       x2="1"
       y2="0"
       id="linearGradient16442"
       xlink:href="#linearGradient3746"
       gradientUnits="userSpaceOnUse"
       gradientTransform="matrix(113.276,0,0,113.276,482.75122,702.62781)"
       spreadMethod="pad" />
    <linearGradient
       x1="0"
       y1="0"
       x2="1"
       y2="0"
       id="linearGradient16444"
       xlink:href="#linearGradient3762"
       gradientUnits="userSpaceOnUse"
       gradientTransform="matrix(113.263,0,0,-113.263,482.68823,702.62781)"
       spreadMethod="pad" />
    <linearGradient
       x1="0"
       y1="0"
       x2="1"
       y2="0"
       id="linearGradient16446"
       xlink:href="#linearGradient3794"
       gradientUnits="userSpaceOnUse"
       gradientTransform="matrix(113.276,0,0,113.276,482.75122,671.75281)"
       spreadMethod="pad" />
    <linearGradient
       x1="0"
       y1="0"
       x2="1"
       y2="0"
       id="linearGradient16448"
       xlink:href="#linearGradient3810"
       gradientUnits="userSpaceOnUse"
       gradientTransform="matrix(113.263,0,0,-113.263,482.68823,671.8158)"
       spreadMethod="pad" />
    <linearGradient
       x1="0"
       y1="0"
       x2="1"
       y2="0"
       id="linearGradient16450"
       xlink:href="#linearGradient4132"
       gradientUnits="userSpaceOnUse"
       gradientTransform="matrix(35.061996,0,0,35.061996,323.52621,149.88977)"
       spreadMethod="pad" />
    <linearGradient
       x1="0"
       y1="0"
       x2="1"
       y2="0"
       id="linearGradient16452"
       xlink:href="#linearGradient4148"
       gradientUnits="userSpaceOnUse"
       gradientTransform="matrix(35.055801,0,0,35.055801,323.55823,149.88977)"
       spreadMethod="pad" />
    <linearGradient
       x1="0"
       y1="0"
       x2="1"
       y2="0"
       id="linearGradient16454"
       xlink:href="#linearGradient4244"
       gradientUnits="userSpaceOnUse"
       gradientTransform="matrix(130.85201,0,0,130.85201,259.5892,102.3268)"
       spreadMethod="pad" />
    <linearGradient
       x1="0"
       y1="0"
       x2="1"
       y2="0"
       id="linearGradient16456"
       xlink:href="#linearGradient4276"
       gradientUnits="userSpaceOnUse"
       gradientTransform="matrix(45.402801,3.8777008,-3.8777008,45.402801,480.3392,130.63979)"
       spreadMethod="pad" />
    <linearGradient
       x1="0"
       y1="0"
       x2="1"
       y2="0"
       id="linearGradient16458"
       xlink:href="#linearGradient4340"
       gradientUnits="userSpaceOnUse"
       gradientTransform="matrix(9.9776001,0.8522034,-0.8522034,9.9776001,471.98721,139.90482)"
       spreadMethod="pad" />
    <linearGradient
       x1="0"
       y1="0"
       x2="1"
       y2="0"
       id="linearGradient16602"
       xlink:href="#linearGradient2882"
       gradientUnits="userSpaceOnUse"
       gradientTransform="matrix(32.007294,0,0,32.007294,85.210205,714.53381)"
       spreadMethod="pad" />
    <linearGradient
       x1="0"
       y1="0"
       x2="1"
       y2="0"
       id="linearGradient16604"
       xlink:href="#linearGradient2898"
       gradientUnits="userSpaceOnUse"
       gradientTransform="matrix(116.233,0,0,-116.233,94.788315,714.53381)"
       spreadMethod="pad" />
    <linearGradient
       x1="0"
       y1="0"
       x2="1"
       y2="0"
       id="linearGradient16606"
       xlink:href="#linearGradient2930"
       gradientUnits="userSpaceOnUse"
       gradientTransform="matrix(30.804199,0,0,30.804199,119.49139,714.8158)"
       spreadMethod="pad" />
    <linearGradient
       x1="0"
       y1="0"
       x2="1"
       y2="0"
       id="linearGradient16608"
       xlink:href="#linearGradient2946"
       gradientUnits="userSpaceOnUse"
       gradientTransform="matrix(116.123,0,0,-116.123,94.8508,714.78381)"
       spreadMethod="pad" />
    <linearGradient
       x1="0"
       y1="0"
       x2="1"
       y2="0"
       id="linearGradient16610"
       xlink:href="#linearGradient2978"
       gradientUnits="userSpaceOnUse"
       gradientTransform="matrix(30.806198,0,0,30.806198,152.69421,714.78381)"
       spreadMethod="pad" />
    <linearGradient
       x1="0"
       y1="0"
       x2="1"
       y2="0"
       id="linearGradient16612"
       xlink:href="#linearGradient2994"
       gradientUnits="userSpaceOnUse"
       gradientTransform="matrix(115.912,0,0,-115.912,94.913315,714.8468)"
       spreadMethod="pad" />
    <linearGradient
       x1="0"
       y1="0"
       x2="1"
       y2="0"
       id="linearGradient16614"
       xlink:href="#linearGradient3026"
       gradientUnits="userSpaceOnUse"
       gradientTransform="matrix(30.804199,0,0,30.804199,185.89722,714.8158)"
       spreadMethod="pad" />
    <linearGradient
       x1="0"
       y1="0"
       x2="1"
       y2="0"
       id="linearGradient16616"
       xlink:href="#linearGradient3042"
       gradientUnits="userSpaceOnUse"
       gradientTransform="matrix(115.905,0,0,-115.905,95.100815,714.78381)"
       spreadMethod="pad" />
    <linearGradient
       x1="0"
       y1="0"
       x2="1"
       y2="0"
       id="linearGradient16618"
       xlink:href="#linearGradient3204"
       gradientUnits="userSpaceOnUse"
       gradientTransform="matrix(113.16499,0,0,113.16499,482.93823,735.87811)"
       spreadMethod="pad" />
    <linearGradient
       x1="0"
       y1="0"
       x2="1"
       y2="0"
       id="linearGradient16620"
       xlink:href="#linearGradient3746"
       gradientUnits="userSpaceOnUse"
       gradientTransform="matrix(113.276,0,0,113.276,482.75122,702.62781)"
       spreadMethod="pad" />
    <linearGradient
       x1="0"
       y1="0"
       x2="1"
       y2="0"
       id="linearGradient16622"
       xlink:href="#linearGradient3762"
       gradientUnits="userSpaceOnUse"
       gradientTransform="matrix(113.263,0,0,-113.263,482.68823,702.62781)"
       spreadMethod="pad" />
    <linearGradient
       x1="0"
       y1="0"
       x2="1"
       y2="0"
       id="linearGradient16624"
       xlink:href="#linearGradient3794"
       gradientUnits="userSpaceOnUse"
       gradientTransform="matrix(113.276,0,0,113.276,482.75122,671.75281)"
       spreadMethod="pad" />
    <linearGradient
       x1="0"
       y1="0"
       x2="1"
       y2="0"
       id="linearGradient16626"
       xlink:href="#linearGradient3810"
       gradientUnits="userSpaceOnUse"
       gradientTransform="matrix(113.263,0,0,-113.263,482.68823,671.8158)"
       spreadMethod="pad" />
    <linearGradient
       x1="0"
       y1="0"
       x2="1"
       y2="0"
       id="linearGradient16628"
       xlink:href="#linearGradient4132"
       gradientUnits="userSpaceOnUse"
       gradientTransform="matrix(35.061996,0,0,35.061996,323.52621,149.88977)"
       spreadMethod="pad" />
    <linearGradient
       x1="0"
       y1="0"
       x2="1"
       y2="0"
       id="linearGradient16630"
       xlink:href="#linearGradient4148"
       gradientUnits="userSpaceOnUse"
       gradientTransform="matrix(35.055801,0,0,35.055801,323.55823,149.88977)"
       spreadMethod="pad" />
    <linearGradient
       x1="0"
       y1="0"
       x2="1"
       y2="0"
       id="linearGradient16632"
       xlink:href="#linearGradient4244"
       gradientUnits="userSpaceOnUse"
       gradientTransform="matrix(130.85201,0,0,130.85201,259.5892,102.3268)"
       spreadMethod="pad" />
    <linearGradient
       x1="0"
       y1="0"
       x2="1"
       y2="0"
       id="linearGradient16634"
       xlink:href="#linearGradient4276"
       gradientUnits="userSpaceOnUse"
       gradientTransform="matrix(45.402801,3.8777008,-3.8777008,45.402801,480.3392,130.63979)"
       spreadMethod="pad" />
    <linearGradient
       x1="0"
       y1="0"
       x2="1"
       y2="0"
       id="linearGradient16636"
       xlink:href="#linearGradient4340"
       gradientUnits="userSpaceOnUse"
       gradientTransform="matrix(9.9776001,0.8522034,-0.8522034,9.9776001,471.98721,139.90482)"
       spreadMethod="pad" />
    <inkscape:perspective
       id="perspective3130"
       inkscape:persp3d-origin="0.5 : 0.33333333 : 1"
       inkscape:vp_z="1 : 0.5 : 1"
       inkscape:vp_y="0 : 1000 : 0"
       inkscape:vp_x="0 : 0.5 : 1"
       sodipodi:type="inkscape:persp3d" />
    <linearGradient
       inkscape:collect="always"
       xlink:href="#linearGradient2898"
       id="linearGradient4079"
       gradientUnits="userSpaceOnUse"
       gradientTransform="matrix(116.233,0,0,-116.233,94.788315,714.53381)"
       spreadMethod="pad"
       x1="0"
       y1="0"
       x2="1"
       y2="0" />
    <inkscape:perspective
       id="perspective4671"
       inkscape:persp3d-origin="0.5 : 0.33333333 : 1"
       inkscape:vp_z="1 : 0.5 : 1"
       inkscape:vp_y="0 : 1000 : 0"
       inkscape:vp_x="0 : 0.5 : 1"
       sodipodi:type="inkscape:persp3d" />
    <inkscape:perspective
       id="perspective4872"
       inkscape:persp3d-origin="0.5 : 0.33333333 : 1"
       inkscape:vp_z="1 : 0.5 : 1"
       inkscape:vp_y="0 : 1000 : 0"
       inkscape:vp_x="0 : 0.5 : 1"
       sodipodi:type="inkscape:persp3d" />
    <inkscape:perspective
       id="perspective5018"
       inkscape:persp3d-origin="0.5 : 0.33333333 : 1"
       inkscape:vp_z="1 : 0.5 : 1"
       inkscape:vp_y="0 : 1000 : 0"
       inkscape:vp_x="0 : 0.5 : 1"
       sodipodi:type="inkscape:persp3d" />
    <inkscape:perspective
       id="perspective5513"
       inkscape:persp3d-origin="0.5 : 0.33333333 : 1"
       inkscape:vp_z="1 : 0.5 : 1"
       inkscape:vp_y="0 : 1000 : 0"
       inkscape:vp_x="0 : 0.5 : 1"
       sodipodi:type="inkscape:persp3d" />
    <inkscape:perspective
       id="perspective11638"
       inkscape:persp3d-origin="0.5 : 0.33333333 : 1"
       inkscape:vp_z="1 : 0.5 : 1"
       inkscape:vp_y="0 : 1000 : 0"
       inkscape:vp_x="0 : 0.5 : 1"
       sodipodi:type="inkscape:persp3d" />
    <clipPath
       id="clipPath2862-1">
      <path
         d="m 85.203,693.033 32.006,0 0,42.993 -32.006,0 0,-42.993 z"
         id="path2864-7" />
    </clipPath>
    <clipPath
       id="clipPath2870-4">
      <path
         d="M 90.366,736.026 86.882,712.37 c 1.201,-0.24 2.462,-0.481 3.666,-0.784 1.498,-0.417 3,-0.898 4.501,-1.379 1.142,2.04 1.683,2.582 2.765,3.181 1.199,0.66 2.4,0.722 2.94,0.722 1.203,0 4.142,-0.3 5.465,-3.422 0.12,-0.361 0.482,-1.323 0.482,-2.463 0,-3.363 -2.463,-6.005 -5.706,-6.005 -1.382,0 -3.122,0.54 -4.204,1.441 -0.48,0.42 -0.901,0.962 -1.021,1.081 l -10.567,0 c 0.421,-1.321 0.72,-2.402 1.379,-3.602 0.843,-1.562 1.923,-2.883 3.184,-4.083 4.083,-3.845 8.345,-4.024 10.508,-4.024 1.44,0 6.185,0.12 10.087,2.521 1.322,0.842 2.342,1.742 3.364,2.942 2.522,2.885 3.484,6.305 3.484,10.028 0,5.827 -2.702,8.949 -4.384,10.631 -1.322,1.262 -4.024,3.72 -9.01,3.72 -2.581,0 -4.14,-0.598 -6.484,-1.619 l 0.961,5.764 15.252,0 0,9.006"
         id="path2872-0" />
    </clipPath>
    <clipPath
       id="clipPath2878-9">
      <path
         d="m -2.31e-4,-0.671752 0.999959,0 0,1.343223 -0.999959,0 0,-1.343223 z"
         id="path2880-4" />
    </clipPath>
    <linearGradient
       x1="0"
       y1="0"
       x2="1"
       y2="0"
       id="linearGradient2882-8"
       gradientUnits="userSpaceOnUse"
       gradientTransform="matrix(32.007294,0,0,32.007294,85.210205,714.53381)"
       spreadMethod="pad">
      <stop
         id="stop2884-8"
         style="stop-color:#89c62b;stop-opacity:1"
         offset="0" />
      <stop
         id="stop2886-2"
         style="stop-color:#78b5dc;stop-opacity:1"
         offset="1" />
    </linearGradient>
    <clipPath
       id="clipPath2894-4">
      <path
         d="m -0.082468,-0.184905 0.275361,0 0,0.369887 -0.275361,0 0,-0.369887 z"
         id="path2896-5" />
    </clipPath>
    <linearGradient
       x1="0"
       y1="0"
       x2="1"
       y2="0"
       id="linearGradient2898-5"
       gradientUnits="userSpaceOnUse"
       gradientTransform="matrix(116.233,0,0,-116.233,94.788315,714.53381)"
       spreadMethod="pad">
      <stop
         id="stop2900-1"
         style="stop-color:#89c62b;stop-opacity:1"
         offset="0" />
      <stop
         id="stop2902-7"
         style="stop-color:#78b5dc;stop-opacity:1"
         offset="1" />
    </linearGradient>
    <clipPath
       id="clipPath2910-1">
      <path
         d="m 119.489,692.851 30.804,0 0,43.897 -30.804,0 0,-43.897 z"
         id="path2912-1" />
    </clipPath>
    <clipPath
       id="clipPath2918-5">
      <path
         d="m 122.731,730.623 c -0.662,-0.9 -1.082,-1.621 -1.262,-1.98 -1.502,-2.583 -1.742,-4.444 -1.98,-7.507 l 0,-11.83 c 0.057,-2.041 0.12,-3.604 0.779,-5.524 0.3,-1.022 1.023,-2.823 2.643,-4.924 4.204,-5.344 9.607,-6.007 12.188,-6.007 7.089,0 11.17,4.745 12.553,6.727 1.919,2.642 2.281,4.804 2.4,6.065 0.121,0.842 0.18,1.742 0.241,2.582 l 0,13.09 c -0.12,2.223 -0.241,4.024 -1.08,6.066 -1.561,3.783 -4.986,6.965 -8.887,8.405 -2.343,0.843 -4.144,0.962 -5.164,0.962 -2.341,0 -8.287,-0.722 -12.431,-6.125 m 9.308,-27.863 c -2.101,1.44 -2.284,3.362 -2.464,5.764 l 0,12.91 c 0.121,1.684 0.18,3.123 1.263,4.385 1.441,1.681 3.424,1.921 4.144,1.921 1.019,0 3.78,-0.42 4.863,-3.302 0.238,-0.659 0.301,-1.021 0.361,-2.222 l 0,-14.289 c -0.183,-2.342 -0.423,-4.206 -2.583,-5.407 -0.361,-0.18 -1.381,-0.601 -2.582,-0.66 -1.442,0 -2.583,0.66 -3.002,0.9"
         id="path2920-2" />
    </clipPath>
    <clipPath
       id="clipPath2926-7">
      <path
         d="m -8.5e-5,-0.713026 0.999993,0 0,1.425032 -0.999993,0 0,-1.425032 z"
         id="path2928-6" />
    </clipPath>
    <linearGradient
       x1="0"
       y1="0"
       x2="1"
       y2="0"
       id="linearGradient2930-1"
       gradientUnits="userSpaceOnUse"
       gradientTransform="matrix(30.804199,0,0,30.804199,119.49139,714.8158)"
       spreadMethod="pad">
      <stop
         id="stop2932-4"
         style="stop-color:#89c62b;stop-opacity:1"
         offset="0" />
      <stop
         id="stop2934-2"
         style="stop-color:#78b5dc;stop-opacity:1"
         offset="1" />
    </linearGradient>
    <clipPath
       id="clipPath2942-3">
      <path
         d="m 0.212172,-0.189144 0.265271,0 0,0.378021 -0.265271,0 0,-0.378021 z"
         id="path2944-2" />
    </clipPath>
    <linearGradient
       x1="0"
       y1="0"
       x2="1"
       y2="0"
       id="linearGradient2946-2"
       gradientUnits="userSpaceOnUse"
       gradientTransform="matrix(116.123,0,0,-116.123,94.8508,714.78381)"
       spreadMethod="pad">
      <stop
         id="stop2948-1"
         style="stop-color:#89c62b;stop-opacity:1"
         offset="0" />
      <stop
         id="stop2950-6"
         style="stop-color:#78b5dc;stop-opacity:1"
         offset="1" />
    </linearGradient>
    <clipPath
       id="clipPath2958-8">
      <path
         d="m 152.693,692.851 30.806,0 0,43.897 -30.806,0 0,-43.897 z"
         id="path2960-5" />
    </clipPath>
    <clipPath
       id="clipPath2966-7">
      <path
         d="m 155.935,730.623 c -0.66,-0.9 -1.081,-1.621 -1.261,-1.98 -1.501,-2.583 -1.739,-4.444 -1.981,-7.507 l 0,-11.83 c 0.059,-2.041 0.119,-3.604 0.78,-5.524 0.3,-1.022 1.021,-2.823 2.643,-4.924 4.203,-5.344 9.609,-6.007 12.191,-6.007 7.083,0 11.168,4.745 12.551,6.727 1.92,2.642 2.281,4.804 2.4,6.065 0.12,0.842 0.18,1.742 0.241,2.582 l 0,13.09 c -0.121,2.223 -0.241,4.024 -1.081,6.066 -1.56,3.783 -4.984,6.965 -8.89,8.405 -2.34,0.843 -4.14,0.962 -5.161,0.962 -2.344,0 -8.285,-0.722 -12.432,-6.125 m 9.309,-27.863 c -2.101,1.44 -2.283,3.362 -2.461,5.764 l 0,12.91 c 0.12,1.684 0.178,3.123 1.259,4.385 1.441,1.681 3.424,1.921 4.143,1.921 1.021,0 3.784,-0.42 4.866,-3.302 0.238,-0.659 0.299,-1.021 0.359,-2.222 l 0,-14.289 c -0.181,-2.342 -0.42,-4.206 -2.584,-5.407 -0.358,-0.18 -1.38,-0.601 -2.58,-0.66 -1.442,0 -2.583,0.66 -3.002,0.9"
         id="path2968-6" />
    </clipPath>
    <clipPath
       id="clipPath2974-1">
      <path
         d="m -5.7e-5,-0.711967 0.999995,0 0,1.424942 -0.999995,0 0,-1.424942 z"
         id="path2976-8" />
    </clipPath>
    <linearGradient
       x1="0"
       y1="0"
       x2="1"
       y2="0"
       id="linearGradient2978-9"
       gradientUnits="userSpaceOnUse"
       gradientTransform="matrix(30.806198,0,0,30.806198,152.69421,714.78381)"
       spreadMethod="pad">
      <stop
         id="stop2980-2"
         style="stop-color:#89c62b;stop-opacity:1"
         offset="0" />
      <stop
         id="stop2982-7"
         style="stop-color:#78b5dc;stop-opacity:1"
         offset="1" />
    </linearGradient>
    <clipPath
       id="clipPath2990-9">
      <path
         d="m 0.498479,-0.18895 0.265771,0 0,0.378711 -0.265771,0 0,-0.378711 z"
         id="path2992-5" />
    </clipPath>
    <linearGradient
       x1="0"
       y1="0"
       x2="1"
       y2="0"
       id="linearGradient2994-4"
       gradientUnits="userSpaceOnUse"
       gradientTransform="matrix(115.912,0,0,-115.912,94.913315,714.8468)"
       spreadMethod="pad">
      <stop
         id="stop2996-3"
         style="stop-color:#89c62b;stop-opacity:1"
         offset="0" />
      <stop
         id="stop2998-1"
         style="stop-color:#78b5dc;stop-opacity:1"
         offset="1" />
    </linearGradient>
    <clipPath
       id="clipPath3006-2">
      <path
         d="m 185.9,692.851 30.804,0 0,43.897 -30.804,0 0,-43.897 z"
         id="path3008-3" />
    </clipPath>
    <clipPath
       id="clipPath3014-3">
      <path
         d="m 189.142,730.623 c -0.661,-0.9 -1.082,-1.621 -1.263,-1.98 -1.499,-2.583 -1.74,-4.444 -1.979,-7.507 l 0,-11.83 c 0.059,-2.041 0.118,-3.604 0.777,-5.524 0.3,-1.022 1.024,-2.823 2.646,-4.924 4.201,-5.344 9.605,-6.007 12.187,-6.007 7.085,0 11.173,4.745 12.553,6.727 1.918,2.642 2.28,4.804 2.401,6.065 0.12,0.842 0.178,1.742 0.24,2.582 l 0,13.09 c -0.12,2.223 -0.24,4.024 -1.082,6.066 -1.559,3.783 -4.984,6.965 -8.887,8.405 -2.34,0.843 -4.142,0.962 -5.163,0.962 -2.341,0 -8.289,-0.722 -12.43,-6.125 m 9.307,-27.863 c -2.104,1.44 -2.283,3.362 -2.462,5.764 l 0,12.91 c 0.118,1.684 0.179,3.123 1.258,4.385 1.445,1.681 3.426,1.921 4.146,1.921 1.023,0 3.785,-0.42 4.865,-3.302 0.239,-0.659 0.298,-1.021 0.361,-2.222 l 0,-14.289 c -0.182,-2.342 -0.422,-4.206 -2.587,-5.407 -0.357,-0.18 -1.379,-0.601 -2.578,-0.66 -1.441,0 -2.583,0.66 -3.003,0.9"
         id="path3016-4" />
    </clipPath>
    <clipPath
       id="clipPath3022-1">
      <path
         d="m 6.9e-5,-0.713026 0.999991,0 0,1.425032 -0.999991,0 0,-1.425032 z"
         id="path3024-1" />
    </clipPath>
    <linearGradient
       x1="0"
       y1="0"
       x2="1"
       y2="0"
       id="linearGradient3026-3"
       gradientUnits="userSpaceOnUse"
       gradientTransform="matrix(30.804199,0,0,30.804199,185.89722,714.8158)"
       spreadMethod="pad">
      <stop
         id="stop3028-8"
         style="stop-color:#89c62b;stop-opacity:1"
         offset="0" />
      <stop
         id="stop3030-7"
         style="stop-color:#78b5dc;stop-opacity:1"
         offset="1" />
    </linearGradient>
    <clipPath
       id="clipPath3038-4">
      <path
         d="m 0.78339,-0.1895 0.26577,0 0,0.378732 -0.26577,0 0,-0.378732 z"
         id="path3040-2" />
    </clipPath>
    <linearGradient
       x1="0"
       y1="0"
       x2="1"
       y2="0"
       id="linearGradient3042-7"
       gradientUnits="userSpaceOnUse"
       gradientTransform="matrix(115.905,0,0,-115.905,95.100815,714.78381)"
       spreadMethod="pad">
      <stop
         id="stop3044-7"
         style="stop-color:#89c62b;stop-opacity:1"
         offset="0" />
      <stop
         id="stop3046-9"
         style="stop-color:#78b5dc;stop-opacity:1"
         offset="1" />
    </linearGradient>
    <clipPath
       id="clipPath3184-3">
      <path
         d="m 482.888,719.641 113.165,0 0,32.51 -113.165,0 0,-32.51 z"
         id="path3186-1" />
    </clipPath>
    <clipPath
       id="clipPath3192-9">
      <path
         d="m 482.888,752.151 0,-26.129 49.685,0 6.381,-6.381 6.381,6.381 50.718,0 0,26.129"
         id="path3194-8" />
    </clipPath>
    <clipPath
       id="clipPath3200-6">
      <path
         d="m -4.42e-4,-0.143485 1,0 0,0.287279 -1,0 0,-0.287279 z"
         id="path3202-5" />
    </clipPath>
    <linearGradient
       x1="0"
       y1="0"
       x2="1"
       y2="0"
       id="linearGradient3204-0"
       gradientUnits="userSpaceOnUse"
       gradientTransform="matrix(113.16499,0,0,113.16499,482.93823,735.87811)"
       spreadMethod="pad">
      <stop
         id="stop3206-2"
         style="stop-color:#89c62b;stop-opacity:1"
         offset="0" />
      <stop
         id="stop3208-8"
         style="stop-color:#78b5dc;stop-opacity:1"
         offset="1" />
    </linearGradient>
    <clipPath
       id="clipPath3726-6">
      <path
         d="m 482.777,688.573 113.278,0 0,28.123 -113.278,0 0,-28.123 z"
         id="path3728-0" />
    </clipPath>
    <clipPath
       id="clipPath3734-2">
      <path
         d="m 482.777,688.573 113.278,0 0,28.123 -113.278,0 0,-28.123 z m 0.903,27.22 111.469,0 0,-26.316 -111.469,0 0,26.316 z"
         id="path3736-4" />
    </clipPath>
    <clipPath
       id="clipPath3742-8">
      <path
         d="m 2.34e-4,-0.124081 1.000016,0 0,0.248268 -1.000016,0 0,-0.248268 z"
         id="path3744-6" />
    </clipPath>
    <linearGradient
       x1="0"
       y1="0"
       x2="1"
       y2="0"
       id="linearGradient3746-5"
       gradientUnits="userSpaceOnUse"
       gradientTransform="matrix(113.276,0,0,113.276,482.75122,702.62781)"
       spreadMethod="pad">
      <stop
         id="stop3748-0"
         style="stop-color:#89c62b;stop-opacity:1"
         offset="0" />
      <stop
         id="stop3750-9"
         style="stop-color:#78b5dc;stop-opacity:1"
         offset="1" />
    </linearGradient>
    <clipPath
       id="clipPath3758-0">
      <path
         d="m 7.86e-4,-0.124202 1.000134,0 0,0.248298 -1.000134,0 0,-0.248298 z"
         id="path3760-0" />
    </clipPath>
    <linearGradient
       x1="0"
       y1="0"
       x2="1"
       y2="0"
       id="linearGradient3762-6"
       gradientUnits="userSpaceOnUse"
       gradientTransform="matrix(113.263,0,0,-113.263,482.68823,702.62781)"
       spreadMethod="pad">
      <stop
         id="stop3764-1"
         style="stop-color:#89c62b;stop-opacity:1"
         offset="0" />
      <stop
         id="stop3766-3"
         style="stop-color:#78b5dc;stop-opacity:1"
         offset="1" />
    </linearGradient>
    <clipPath
       id="clipPath3774-8">
      <path
         d="m 482.777,657.936 113.278,0 0,27.629 -113.278,0 0,-27.629 z"
         id="path3776-9" />
    </clipPath>
    <clipPath
       id="clipPath3782-3">
      <path
         d="m 482.777,657.936 113.278,0 0,27.629 -113.278,0 0,-27.629 z m 0.903,26.726 111.469,0 0,-25.823 -111.469,0 0,25.823 z"
         id="path3784-4" />
    </clipPath>
    <clipPath
       id="clipPath3790-4">
      <path
         d="m 2.34e-4,-0.12198 1.000016,0 0,0.243908 -1.000016,0 0,-0.243908 z"
         id="path3792-6" />
    </clipPath>
    <linearGradient
       x1="0"
       y1="0"
       x2="1"
       y2="0"
       id="linearGradient3794-0"
       gradientUnits="userSpaceOnUse"
       gradientTransform="matrix(113.276,0,0,113.276,482.75122,671.75281)"
       spreadMethod="pad">
      <stop
         id="stop3796-6"
         style="stop-color:#89c62b;stop-opacity:1"
         offset="0" />
      <stop
         id="stop3798-6"
         style="stop-color:#78b5dc;stop-opacity:1"
         offset="1" />
    </linearGradient>
    <clipPath
       id="clipPath3806-1">
      <path
         d="m 7.86e-4,-0.12139 1.000134,0 0,0.243936 -1.000134,0 0,-0.243936 z"
         id="path3808-8" />
    </clipPath>
    <linearGradient
       x1="0"
       y1="0"
       x2="1"
       y2="0"
       id="linearGradient3810-4"
       gradientUnits="userSpaceOnUse"
       gradientTransform="matrix(113.263,0,0,-113.263,482.68823,671.8158)"
       spreadMethod="pad">
      <stop
         id="stop3812-9"
         style="stop-color:#89c62b;stop-opacity:1"
         offset="0" />
      <stop
         id="stop3814-6"
         style="stop-color:#78b5dc;stop-opacity:1"
         offset="1" />
    </linearGradient>
    <clipPath
       id="clipPath4112-3">
      <path
         d="m 323.539,145.475 35.157,0 0,8.842 -35.157,0 0,-8.842 z"
         id="path4114-7" />
    </clipPath>
    <clipPath
       id="clipPath4120-8">
      <path
         d="m 349.809,146.748 c 0.004,-0.701 0.588,-1.258 1.268,-1.258 l -0.026,7.548 c -0.007,0.696 -0.58,1.269 -1.277,1.279 l 0.035,-7.569 z m -9.586,5.355 c -0.004,-0.876 0.721,-1.577 1.621,-1.577 l 1.448,0 c 1.414,0 2.173,-0.994 2.183,-1.914 0.01,-1.09 -0.883,-1.852 -2.164,-1.852 -1.254,0 -2,0.898 -2.012,1.756 0,0.592 0.278,1.162 0.772,1.544 -0.075,0.055 -0.176,0.111 -0.272,0.15 -0.658,0.238 -1.386,-0.095 -1.615,-0.753 -0.094,-0.293 -0.141,-0.614 -0.137,-0.941 0.014,-1.692 1.44,-3.026 3.266,-3.026 0.979,0 1.836,0.317 2.477,0.912 0.603,0.567 0.947,1.361 0.939,2.21 -0.006,1.781 -1.519,3.182 -3.437,3.182 l -1.448,0 c -0.198,0 -0.382,0.146 -0.37,0.309 l -0.009,0.918 c -0.007,0.701 -0.562,1.256 -1.259,1.286 l 0.017,-2.204 z m 7.166,1.103 c 0,-0.383 0.303,-0.685 0.672,-0.685 0.375,0 0.674,0.302 0.674,0.685 -0.002,0.373 -0.307,0.688 -0.682,0.688 -0.369,0 -0.666,-0.315 -0.664,-0.688 m 4.401,-4.545 c 0,-0.871 0.377,-1.679 1.037,-2.286 0.65,-0.58 1.492,-0.9 2.404,-0.9 1.305,0 2.443,0.663 3.018,1.692 -0.395,0.374 -0.977,0.355 -1.457,0.095 -0.387,-0.369 -0.953,-0.585 -1.569,-0.585 -0.951,0 -1.931,0.585 -2.131,1.431 l 4.229,0.011 c 0.666,-0.011 1.375,0.423 1.271,1.087 -0.271,1.505 -1.665,2.6 -3.39,2.6 -1.92,0 -3.412,-1.372 -3.412,-3.145 m 3.414,1.955 c 0.955,0 1.92,-0.578 2.154,-1.388 l -4.266,0 c 0.198,0.784 1.159,1.388 2.112,1.388 m -22.516,-1.981 c 0,-1.77 1.527,-3.145 3.459,-3.145 1.917,0 3.436,1.375 3.418,3.145 0,1.77 -1.51,3.159 -3.445,3.159 -1.934,0 -3.448,-1.389 -3.432,-3.159 m 1.252,0 c -0.004,1.056 0.957,1.891 2.184,1.891 1.226,0 2.187,-0.835 2.187,-1.891 0.006,-1.055 -0.941,-1.875 -2.183,-1.875 -1.225,0 -2.186,0.82 -2.188,1.875 m -6.143,2.367 c -0.453,0.488 -1.095,0.792 -1.824,0.792 -1.345,0 -2.434,-1.072 -2.434,-2.39 l 0.016,-3.914 c 0.694,0 1.243,0.584 1.248,1.279 l -0.01,2.635 c -0.008,0.62 0.53,1.122 1.183,1.122 0.669,0 1.202,-0.502 1.206,-1.122 l 0.01,-2.644 c -0.004,-0.702 0.566,-1.27 1.26,-1.27 l -0.016,3.914 c -0.006,0.62 0.529,1.122 1.182,1.122 0.668,0 1.201,-0.502 1.207,-1.122 l 0.01,-2.621 c -0.002,-0.709 0.566,-1.293 1.263,-1.293 l -0.02,3.914 c -0.013,1.318 -1.116,2.39 -2.462,2.39 -0.721,0 -1.371,-0.304 -1.819,-0.792 m 19.653,-4.242 c 0.01,-0.702 0.567,-1.27 1.26,-1.27 l -0.018,5.011 c 0.008,0.714 -0.567,1.279 -1.258,1.279"
         id="path4122-8" />
    </clipPath>
    <clipPath
       id="clipPath4128-2">
      <path
         d="m 3.7e-4,-0.125919 1.00271,0 0,0.252182 -1.00271,0 0,-0.252182 z"
         id="path4130-9" />
    </clipPath>
    <linearGradient
       x1="0"
       y1="0"
       x2="1"
       y2="0"
       id="linearGradient4132-1"
       gradientUnits="userSpaceOnUse"
       gradientTransform="matrix(35.061996,0,0,35.061996,323.52621,149.88977)"
       spreadMethod="pad">
      <stop
         id="stop4134-3"
         style="stop-color:#89c62b;stop-opacity:1"
         offset="0" />
      <stop
         id="stop4136-5"
         style="stop-color:#78b5dc;stop-opacity:1"
         offset="1" />
    </linearGradient>
    <clipPath
       id="clipPath4144-9">
      <path
         d="m -5.21e-4,-0.125941 1.002891,0 0,0.252226 -1.002891,0 0,-0.252226 z"
         id="path4146-8" />
    </clipPath>
    <linearGradient
       x1="0"
       y1="0"
       x2="1"
       y2="0"
       id="linearGradient4148-4"
       gradientUnits="userSpaceOnUse"
       gradientTransform="matrix(35.055801,0,0,35.055801,323.55823,149.88977)"
       spreadMethod="pad">
      <stop
         id="stop4150-0"
         style="stop-color:#91cf53;stop-opacity:1"
         offset="0" />
      <stop
         id="stop4152-7"
         style="stop-color:#8fbbdf;stop-opacity:1"
         offset="1" />
    </linearGradient>
    <clipPath
       id="clipPath4232-6">
      <path
         d="m 259.619,101.983 130.854,0 0,0.847 -130.854,0 0,-0.847 z"
         id="path4234-3" />
    </clipPath>
    <clipPath
       id="clipPath4240-6">
      <path
         d="m 2.33e-4,-0.002632 1.000007,0 0,0.006472 -1.000007,0 0,-0.006472 z"
         id="path4242-1" />
    </clipPath>
    <linearGradient
       x1="0"
       y1="0"
       x2="1"
       y2="0"
       id="linearGradient4244-5"
       gradientUnits="userSpaceOnUse"
       gradientTransform="matrix(130.85201,0,0,130.85201,259.5892,102.3268)"
       spreadMethod="pad">
      <stop
         id="stop4246-4"
         style="stop-color:#89c62b;stop-opacity:1"
         offset="0" />
      <stop
         id="stop4248-2"
         style="stop-color:#78b5dc;stop-opacity:1"
         offset="1" />
    </linearGradient>
    <clipPath
       id="clipPath4256-0">
      <path
         d="m 480.007,119.214 47.941,4.094 -1.926,22.546 -47.94,-4.095"
         id="path4258-9" />
    </clipPath>
    <clipPath
       id="clipPath4264-7">
      <path
         d="m 479.669,138.016 1.27,-14.843 29.807,2.545 1.984,-1.67 1.67,1.983 11.96,1.021 -1.267,14.843"
         id="path4266-3" />
    </clipPath>
    <clipPath
       id="clipPath4272-7">
      <path
         d="m -0.028584,-0.249213 1.055894,0 0,0.496561 -1.055894,0 0,-0.496561 z"
         id="path4274-2" />
    </clipPath>
    <linearGradient
       x1="0"
       y1="0"
       x2="1"
       y2="0"
       id="linearGradient4276-6"
       gradientUnits="userSpaceOnUse"
       gradientTransform="matrix(45.402801,3.8777008,-3.8777008,45.402801,480.3392,130.63979)"
       spreadMethod="pad">
      <stop
         id="stop4278-0"
         style="stop-color:#89c62b;stop-opacity:1"
         offset="0" />
      <stop
         id="stop4280-1"
         style="stop-color:#78b5dc;stop-opacity:1"
         offset="1" />
    </linearGradient>
    <clipPath
       id="clipPath4320-6">
      <path
         d="m 471.996,134.433 10.894,0.931 -0.927,10.847 -10.894,-0.93"
         id="path4322-5" />
    </clipPath>
    <clipPath
       id="clipPath4328-7">
      <path
         d="m 476.6,145.349 c -0.742,-0.065 -1.3,-0.733 -1.269,-1.488 l 0.167,-2.263 -2.255,-0.169 c -0.759,-0.035 -1.321,-0.719 -1.259,-1.45 0.033,-0.744 0.703,-1.33 1.44,-1.266 l 2.286,0.167 0.145,-2.257 c 0.069,-0.779 0.73,-1.332 1.476,-1.269 0.767,0.05 1.33,0.707 1.268,1.455 l -0.172,2.274 2.278,0.151 c 0.758,0.066 1.331,0.729 1.268,1.481 -0.057,0.746 -0.716,1.334 -1.47,1.27 l -2.263,-0.179 -0.191,2.254 c -0.034,0.728 -0.637,1.294 -1.34,1.294 -0.036,0 -0.072,-0.002 -0.109,-0.005"
         id="path4330-5" />
    </clipPath>
    <clipPath
       id="clipPath4336-4">
      <path
         d="m -0.045677,-0.544545 1.091847,0 0,1.087206 -1.091847,0 0,-1.087206 z"
         id="path4338-1" />
    </clipPath>
    <linearGradient
       x1="0"
       y1="0"
       x2="1"
       y2="0"
       id="linearGradient4340-2"
       gradientUnits="userSpaceOnUse"
       gradientTransform="matrix(9.9776001,0.8522034,-0.8522034,9.9776001,471.98721,139.90482)"
       spreadMethod="pad">
      <stop
         id="stop4342-0"
         style="stop-color:#89c62b;stop-opacity:1"
         offset="0" />
      <stop
         id="stop4344-0"
         style="stop-color:#78b5dc;stop-opacity:1"
         offset="1" />
    </linearGradient>
    <linearGradient
       id="linearGradient5769">
      <stop
         style="stop-color:#ffcef8;stop-opacity:1;"
         offset="0"
         id="stop5771" />
      <stop
         style="stop-color:#e57dce;stop-opacity:1;"
         offset="1"
         id="stop5773" />
    </linearGradient>
    <inkscape:perspective
       id="perspective12560"
       inkscape:persp3d-origin="0.5 : 0.33333333 : 1"
       inkscape:vp_z="1 : 0.5 : 1"
       inkscape:vp_y="0 : 1000 : 0"
       inkscape:vp_x="0 : 0.5 : 1"
       sodipodi:type="inkscape:persp3d" />
    <linearGradient
       inkscape:collect="always"
       xlink:href="#linearGradient5769"
       id="linearGradient12572"
       gradientUnits="userSpaceOnUse"
       gradientTransform="matrix(0.53624588,0,0,0.53624588,-43.737543,20.448732)"
       x1="185.9801"
       y1="148.29597"
       x2="350.10806"
       y2="148.29597" />
    <linearGradient
       inkscape:collect="always"
       xlink:href="#linearGradient2882-8"
       id="linearGradient13200"
       gradientUnits="userSpaceOnUse"
       gradientTransform="matrix(32.007294,0,0,32.007294,85.210205,714.53381)"
       spreadMethod="pad"
       x1="0"
       y1="0"
       x2="1"
       y2="0" />
    <linearGradient
       inkscape:collect="always"
       xlink:href="#linearGradient2898-5"
       id="linearGradient13202"
       gradientUnits="userSpaceOnUse"
       gradientTransform="matrix(116.233,0,0,-116.233,94.788315,714.53381)"
       spreadMethod="pad"
       x1="0"
       y1="0"
       x2="1"
       y2="0" />
    <linearGradient
       inkscape:collect="always"
       xlink:href="#linearGradient2930-1"
       id="linearGradient13212"
       gradientUnits="userSpaceOnUse"
       gradientTransform="matrix(30.804199,0,0,30.804199,119.49139,714.8158)"
       spreadMethod="pad"
       x1="0"
       y1="0"
       x2="1"
       y2="0" />
    <linearGradient
       inkscape:collect="always"
       xlink:href="#linearGradient2946-2"
       id="linearGradient13214"
       gradientUnits="userSpaceOnUse"
       gradientTransform="matrix(116.123,0,0,-116.123,94.8508,714.78381)"
       spreadMethod="pad"
       x1="0"
       y1="0"
       x2="1"
       y2="0" />
    <linearGradient
       inkscape:collect="always"
       xlink:href="#linearGradient2978-9"
       id="linearGradient13224"
       gradientUnits="userSpaceOnUse"
       gradientTransform="matrix(30.806198,0,0,30.806198,152.69421,714.78381)"
       spreadMethod="pad"
       x1="0"
       y1="0"
       x2="1"
       y2="0" />
    <linearGradient
       inkscape:collect="always"
       xlink:href="#linearGradient2994-4"
       id="linearGradient13226"
       gradientUnits="userSpaceOnUse"
       gradientTransform="matrix(115.912,0,0,-115.912,94.913315,714.8468)"
       spreadMethod="pad"
       x1="0"
       y1="0"
       x2="1"
       y2="0" />
    <linearGradient
       inkscape:collect="always"
       xlink:href="#linearGradient3026-3"
       id="linearGradient13236"
       gradientUnits="userSpaceOnUse"
       gradientTransform="matrix(30.804199,0,0,30.804199,185.89722,714.8158)"
       spreadMethod="pad"
       x1="0"
       y1="0"
       x2="1"
       y2="0" />
    <linearGradient
       inkscape:collect="always"
       xlink:href="#linearGradient3042-7"
       id="linearGradient13238"
       gradientUnits="userSpaceOnUse"
       gradientTransform="matrix(115.905,0,0,-115.905,95.100815,714.78381)"
       spreadMethod="pad"
       x1="0"
       y1="0"
       x2="1"
       y2="0" />
    <linearGradient
       inkscape:collect="always"
       xlink:href="#linearGradient3204-0"
       id="linearGradient13248"
       gradientUnits="userSpaceOnUse"
       gradientTransform="matrix(113.16499,0,0,113.16499,482.93823,735.87811)"
       spreadMethod="pad"
       x1="0"
       y1="0"
       x2="1"
       y2="0" />
    <linearGradient
       inkscape:collect="always"
       xlink:href="#linearGradient3746-5"
       id="linearGradient13255"
       gradientUnits="userSpaceOnUse"
       gradientTransform="matrix(113.276,0,0,113.276,482.75122,702.62781)"
       spreadMethod="pad"
       x1="0"
       y1="0"
       x2="1"
       y2="0" />
    <linearGradient
       inkscape:collect="always"
       xlink:href="#linearGradient3762-6"
       id="linearGradient13257"
       gradientUnits="userSpaceOnUse"
       gradientTransform="matrix(113.263,0,0,-113.263,482.68823,702.62781)"
       spreadMethod="pad"
       x1="0"
       y1="0"
       x2="1"
       y2="0" />
    <linearGradient
       inkscape:collect="always"
       xlink:href="#linearGradient3794-0"
       id="linearGradient13267"
       gradientUnits="userSpaceOnUse"
       gradientTransform="matrix(113.276,0,0,113.276,482.75122,671.75281)"
       spreadMethod="pad"
       x1="0"
       y1="0"
       x2="1"
       y2="0" />
    <linearGradient
       inkscape:collect="always"
       xlink:href="#linearGradient3810-4"
       id="linearGradient13269"
       gradientUnits="userSpaceOnUse"
       gradientTransform="matrix(113.263,0,0,-113.263,482.68823,671.8158)"
       spreadMethod="pad"
       x1="0"
       y1="0"
       x2="1"
       y2="0" />
    <linearGradient
       inkscape:collect="always"
       xlink:href="#linearGradient4132-1"
       id="linearGradient13279"
       gradientUnits="userSpaceOnUse"
       gradientTransform="matrix(35.061996,0,0,35.061996,323.52621,149.88977)"
       spreadMethod="pad"
       x1="0"
       y1="0"
       x2="1"
       y2="0" />
    <linearGradient
       inkscape:collect="always"
       xlink:href="#linearGradient4148-4"
       id="linearGradient13281"
       gradientUnits="userSpaceOnUse"
       gradientTransform="matrix(35.055801,0,0,35.055801,323.55823,149.88977)"
       spreadMethod="pad"
       x1="0"
       y1="0"
       x2="1"
       y2="0" />
    <linearGradient
       inkscape:collect="always"
       xlink:href="#linearGradient4244-5"
       id="linearGradient13291"
       gradientUnits="userSpaceOnUse"
       gradientTransform="matrix(130.85201,0,0,130.85201,259.5892,102.3268)"
       spreadMethod="pad"
       x1="0"
       y1="0"
       x2="1"
       y2="0" />
    <linearGradient
       inkscape:collect="always"
       xlink:href="#linearGradient4276-6"
       id="linearGradient13296"
       gradientUnits="userSpaceOnUse"
       gradientTransform="matrix(45.402801,3.8777008,-3.8777008,45.402801,480.3392,130.63979)"
       spreadMethod="pad"
       x1="0"
       y1="0"
       x2="1"
       y2="0" />
    <linearGradient
       inkscape:collect="always"
       xlink:href="#linearGradient4340-2"
       id="linearGradient13303"
       gradientUnits="userSpaceOnUse"
       gradientTransform="matrix(9.9776001,0.8522034,-0.8522034,9.9776001,471.98721,139.90482)"
       spreadMethod="pad"
       x1="0"
       y1="0"
       x2="1"
       y2="0" />
    <inkscape:perspective
       id="perspective15233"
       inkscape:persp3d-origin="0.5 : 0.33333333 : 1"
       inkscape:vp_z="1 : 0.5 : 1"
       inkscape:vp_y="0 : 1000 : 0"
       inkscape:vp_x="0 : 0.5 : 1"
       sodipodi:type="inkscape:persp3d" />
  </defs>
  <g
     id="g7349"
     transform="translate(-56.037395,-6.5672731)">
    <rect
       style="fill:#ffffff;fill-opacity:1;stroke:none"
       id="rect4336"
       width="87.925209"
       height="74.697006"
       x="56.037395"
       y="6.5672731" />
    <g
       transform="matrix(1.8369177,0,0,-1.8369177,-525.58321,378.06135)"
       id="g2866">
      <g
         id="g2868"
         clip-path="url(#clipPath2870-4)">
        <g
           id="g2874">
          <g
             id="g2876"
             clip-path="url(#clipPath2878-9)">
            <path
               style="fill:url(#linearGradient13200);stroke:none"
               id="path2888"
               d="M 90.366,736.026 86.882,712.37 c 1.201,-0.24 2.462,-0.481 3.666,-0.784 1.498,-0.417 3,-0.898 4.501,-1.379 1.142,2.04 1.683,2.582 2.765,3.181 1.199,0.66 2.4,0.722 2.94,0.722 1.203,0 4.142,-0.3 5.465,-3.422 0.12,-0.361 0.482,-1.323 0.482,-2.463 0,-3.363 -2.463,-6.005 -5.706,-6.005 -1.382,0 -3.122,0.54 -4.204,1.441 -0.48,0.42 -0.901,0.962 -1.021,1.081 l -10.567,0 c 0.421,-1.321 0.72,-2.402 1.379,-3.602 0.843,-1.562 1.923,-2.883 3.184,-4.083 4.083,-3.845 8.345,-4.024 10.508,-4.024 1.44,0 6.185,0.12 10.087,2.521 1.322,0.842 2.342,1.742 3.364,2.942 2.522,2.885 3.484,6.305 3.484,10.028 0,5.827 -2.702,8.949 -4.384,10.631 -1.322,1.262 -4.024,3.72 -9.01,3.72 -2.581,0 -4.14,-0.598 -6.484,-1.619 l 0.961,5.764 15.252,0 0,9.006" />
          </g>
        </g>
        <g
           id="g2890">
          <g
             id="g2892"
             clip-path="url(#clipPath2894-4)">
            <path
               style="fill:url(#linearGradient13202);stroke:none"
               id="path2904"
               d="M 90.366,736.026 86.882,712.37 c 1.201,-0.24 2.462,-0.481 3.666,-0.784 1.498,-0.417 3,-0.898 4.501,-1.379 1.142,2.04 1.683,2.582 2.765,3.181 1.199,0.66 2.4,0.722 2.94,0.722 1.203,0 4.142,-0.3 5.465,-3.422 0.12,-0.361 0.482,-1.323 0.482,-2.463 0,-3.363 -2.463,-6.005 -5.706,-6.005 -1.382,0 -3.122,0.54 -4.204,1.441 -0.48,0.42 -0.901,0.962 -1.021,1.081 l -10.567,0 c 0.421,-1.321 0.72,-2.402 1.379,-3.602 0.843,-1.562 1.923,-2.883 3.184,-4.083 4.083,-3.845 8.345,-4.024 10.508,-4.024 1.44,0 6.185,0.12 10.087,2.521 1.322,0.842 2.342,1.742 3.364,2.942 2.522,2.885 3.484,6.305 3.484,10.028 0,5.827 -2.702,8.949 -4.384,10.631 -1.322,1.262 -4.024,3.72 -9.01,3.72 -2.581,0 -4.14,-0.598 -6.484,-1.619 l 0.961,5.764 15.252,0 0,9.006" />
          </g>
        </g>
      </g>
    </g>
    <g
       transform="matrix(1.8369177,0,0,-1.8369177,-525.58321,378.06135)"
       id="g2914">
      <g
         id="g2916"
         clip-path="url(#clipPath2918-5)">
        <g
           id="g2922">
          <g
             id="g2924"
             clip-path="url(#clipPath2926-7)">
            <path
               style="fill:url(#linearGradient13212);stroke:none"
               id="path2936"
               d="m 122.731,730.623 c -0.662,-0.9 -1.082,-1.621 -1.262,-1.98 -1.502,-2.583 -1.742,-4.444 -1.98,-7.507 l 0,-11.83 c 0.057,-2.041 0.12,-3.604 0.779,-5.524 0.3,-1.022 1.023,-2.823 2.643,-4.924 4.204,-5.344 9.607,-6.007 12.188,-6.007 7.089,0 11.17,4.745 12.553,6.727 1.919,2.642 2.281,4.804 2.4,6.065 0.121,0.842 0.18,1.742 0.241,2.582 l 0,13.09 c -0.12,2.223 -0.241,4.024 -1.08,6.066 -1.561,3.783 -4.986,6.965 -8.887,8.405 -2.343,0.843 -4.144,0.962 -5.164,0.962 -2.341,0 -8.287,-0.722 -12.431,-6.125 m 9.308,-27.863 c -2.101,1.44 -2.284,3.362 -2.464,5.764 l 0,12.91 c 0.121,1.684 0.18,3.123 1.263,4.385 1.441,1.681 3.424,1.921 4.144,1.921 1.019,0 3.78,-0.42 4.863,-3.302 0.238,-0.659 0.301,-1.021 0.361,-2.222 l 0,-14.289 c -0.183,-2.342 -0.423,-4.206 -2.583,-5.407 -0.361,-0.18 -1.381,-0.601 -2.582,-0.66 -1.442,0 -2.583,0.66 -3.002,0.9" />
          </g>
        </g>
        <g
           id="g2938">
          <g
             id="g2940"
             clip-path="url(#clipPath2942-3)">
            <path
               style="fill:url(#linearGradient13214);stroke:none"
               id="path2952"
               d="m 122.731,730.623 c -0.662,-0.9 -1.082,-1.621 -1.262,-1.98 -1.502,-2.583 -1.742,-4.444 -1.98,-7.507 l 0,-11.83 c 0.057,-2.041 0.12,-3.604 0.779,-5.524 0.3,-1.022 1.023,-2.823 2.643,-4.924 4.204,-5.344 9.607,-6.007 12.188,-6.007 7.089,0 11.17,4.745 12.553,6.727 1.919,2.642 2.281,4.804 2.4,6.065 0.121,0.842 0.18,1.742 0.241,2.582 l 0,13.09 c -0.12,2.223 -0.241,4.024 -1.08,6.066 -1.561,3.783 -4.986,6.965 -8.887,8.405 -2.343,0.843 -4.144,0.962 -5.164,0.962 -2.341,0 -8.287,-0.722 -12.431,-6.125 m 9.308,-27.863 c -2.101,1.44 -2.284,3.362 -2.464,5.764 l 0,12.91 c 0.121,1.684 0.18,3.123 1.263,4.385 1.441,1.681 3.424,1.921 4.144,1.921 1.019,0 3.78,-0.42 4.863,-3.302 0.238,-0.659 0.301,-1.021 0.361,-2.222 l 0,-14.289 c -0.183,-2.342 -0.423,-4.206 -2.583,-5.407 -0.361,-0.18 -1.381,-0.601 -2.582,-0.66 -1.442,0 -2.583,0.66 -3.002,0.9" />
          </g>
        </g>
      </g>
    </g>
    <g
       transform="matrix(1.8369177,0,0,-1.8369177,-525.58321,378.06135)"
       id="g2962">
      <g
         id="g2964"
         clip-path="url(#clipPath2966-7)">
        <g
           id="g2970">
          <g
             id="g2972"
             clip-path="url(#clipPath2974-1)">
            <path
               style="fill:url(#linearGradient13224);stroke:none"
               id="path2984"
               d="m 155.935,730.623 c -0.66,-0.9 -1.081,-1.621 -1.261,-1.98 -1.501,-2.583 -1.739,-4.444 -1.981,-7.507 l 0,-11.83 c 0.059,-2.041 0.119,-3.604 0.78,-5.524 0.3,-1.022 1.021,-2.823 2.643,-4.924 4.203,-5.344 9.609,-6.007 12.191,-6.007 7.083,0 11.168,4.745 12.551,6.727 1.92,2.642 2.281,4.804 2.4,6.065 0.12,0.842 0.18,1.742 0.241,2.582 l 0,13.09 c -0.121,2.223 -0.241,4.024 -1.081,6.066 -1.56,3.783 -4.984,6.965 -8.89,8.405 -2.34,0.843 -4.14,0.962 -5.161,0.962 -2.344,0 -8.285,-0.722 -12.432,-6.125 m 9.309,-27.863 c -2.101,1.44 -2.283,3.362 -2.461,5.764 l 0,12.91 c 0.12,1.684 0.178,3.123 1.259,4.385 1.441,1.681 3.424,1.921 4.143,1.921 1.021,0 3.784,-0.42 4.866,-3.302 0.238,-0.659 0.299,-1.021 0.359,-2.222 l 0,-14.289 c -0.181,-2.342 -0.42,-4.206 -2.584,-5.407 -0.358,-0.18 -1.38,-0.601 -2.58,-0.66 -1.442,0 -2.583,0.66 -3.002,0.9" />
          </g>
        </g>
        <g
           id="g2986">
          <g
             id="g2988"
             clip-path="url(#clipPath2990-9)">
            <path
               style="fill:url(#linearGradient13226);stroke:none"
               id="path3000"
               d="m 155.935,730.623 c -0.66,-0.9 -1.081,-1.621 -1.261,-1.98 -1.501,-2.583 -1.739,-4.444 -1.981,-7.507 l 0,-11.83 c 0.059,-2.041 0.119,-3.604 0.78,-5.524 0.3,-1.022 1.021,-2.823 2.643,-4.924 4.203,-5.344 9.609,-6.007 12.191,-6.007 7.083,0 11.168,4.745 12.551,6.727 1.92,2.642 2.281,4.804 2.4,6.065 0.12,0.842 0.18,1.742 0.241,2.582 l 0,13.09 c -0.121,2.223 -0.241,4.024 -1.081,6.066 -1.56,3.783 -4.984,6.965 -8.89,8.405 -2.34,0.843 -4.14,0.962 -5.161,0.962 -2.344,0 -8.285,-0.722 -12.432,-6.125 m 9.309,-27.863 c -2.101,1.44 -2.283,3.362 -2.461,5.764 l 0,12.91 c 0.12,1.684 0.178,3.123 1.259,4.385 1.441,1.681 3.424,1.921 4.143,1.921 1.021,0 3.784,-0.42 4.866,-3.302 0.238,-0.659 0.299,-1.021 0.359,-2.222 l 0,-14.289 c -0.181,-2.342 -0.42,-4.206 -2.584,-5.407 -0.358,-0.18 -1.38,-0.601 -2.58,-0.66 -1.442,0 -2.583,0.66 -3.002,0.9" />
          </g>
        </g>
      </g>
    </g>
    <g
       transform="matrix(1.8369177,0,0,-1.8369177,-525.58321,378.06135)"
       id="g3010">
      <g
         id="g3012"
         clip-path="url(#clipPath3014-3)">
        <g
           id="g3018">
          <g
             id="g3020"
             clip-path="url(#clipPath3022-1)">
            <path
               style="fill:url(#linearGradient13236);stroke:none"
               id="path3032"
               d="m 189.142,730.623 c -0.661,-0.9 -1.082,-1.621 -1.263,-1.98 -1.499,-2.583 -1.74,-4.444 -1.979,-7.507 l 0,-11.83 c 0.059,-2.041 0.118,-3.604 0.777,-5.524 0.3,-1.022 1.024,-2.823 2.646,-4.924 4.201,-5.344 9.605,-6.007 12.187,-6.007 7.085,0 11.173,4.745 12.553,6.727 1.918,2.642 2.28,4.804 2.401,6.065 0.12,0.842 0.178,1.742 0.24,2.582 l 0,13.09 c -0.12,2.223 -0.24,4.024 -1.082,6.066 -1.559,3.783 -4.984,6.965 -8.887,8.405 -2.34,0.843 -4.142,0.962 -5.163,0.962 -2.341,0 -8.289,-0.722 -12.43,-6.125 m 9.307,-27.863 c -2.104,1.44 -2.283,3.362 -2.462,5.764 l 0,12.91 c 0.118,1.684 0.179,3.123 1.258,4.385 1.445,1.681 3.426,1.921 4.146,1.921 1.023,0 3.785,-0.42 4.865,-3.302 0.239,-0.659 0.298,-1.021 0.361,-2.222 l 0,-14.289 c -0.182,-2.342 -0.422,-4.206 -2.587,-5.407 -0.357,-0.18 -1.379,-0.601 -2.578,-0.66 -1.441,0 -2.583,0.66 -3.003,0.9" />
          </g>
        </g>
        <g
           id="g3034">
          <g
             id="g3036"
             clip-path="url(#clipPath3038-4)">
            <path
               style="fill:url(#linearGradient13238);stroke:none"
               id="path3048"
               d="m 189.142,730.623 c -0.661,-0.9 -1.082,-1.621 -1.263,-1.98 -1.499,-2.583 -1.74,-4.444 -1.979,-7.507 l 0,-11.83 c 0.059,-2.041 0.118,-3.604 0.777,-5.524 0.3,-1.022 1.024,-2.823 2.646,-4.924 4.201,-5.344 9.605,-6.007 12.187,-6.007 7.085,0 11.173,4.745 12.553,6.727 1.918,2.642 2.28,4.804 2.401,6.065 0.12,0.842 0.178,1.742 0.24,2.582 l 0,13.09 c -0.12,2.223 -0.24,4.024 -1.082,6.066 -1.559,3.783 -4.984,6.965 -8.887,8.405 -2.34,0.843 -4.142,0.962 -5.163,0.962 -2.341,0 -8.289,-0.722 -12.43,-6.125 m 9.307,-27.863 c -2.104,1.44 -2.283,3.362 -2.462,5.764 l 0,12.91 c 0.118,1.684 0.179,3.123 1.258,4.385 1.445,1.681 3.426,1.921 4.146,1.921 1.023,0 3.785,-0.42 4.865,-3.302 0.239,-0.659 0.298,-1.021 0.361,-2.222 l 0,-14.289 c -0.182,-2.342 -0.422,-4.206 -2.587,-5.407 -0.357,-0.18 -1.379,-0.601 -2.578,-0.66 -1.441,0 -2.583,0.66 -3.003,0.9" />
          </g>
        </g>
      </g>
    </g>
    <g
       transform="matrix(1.8369177,0,0,-1.8369177,-525.58321,378.06135)"
       id="g3188">
      <g
         id="g3190"
         clip-path="url(#clipPath3192-9)">
        <g
           id="g3196">
          <g
             id="g3198"
             clip-path="url(#clipPath3200-6)">
            <path
               style="fill:url(#linearGradient13248);stroke:none"
               id="path3210"
               d="m 482.888,752.151 0,-26.129 49.685,0 6.381,-6.381 6.381,6.381 50.718,0 0,26.129" />
          </g>
        </g>
      </g>
    </g>
    <g
       transform="matrix(1.8369177,0,0,-1.8369177,-525.58321,378.06135)"
       id="g3730">
      <g
         id="g3732"
         clip-path="url(#clipPath3734-2)">
        <g
           id="g3738">
          <g
             id="g3740"
             clip-path="url(#clipPath3742-8)">
            <path
               style="fill:url(#linearGradient13255);stroke:none"
               id="path3752"
               d="m 482.777,688.573 113.278,0 0,28.123 -113.278,0 0,-28.123 z m 0.903,27.22 111.469,0 0,-26.316 -111.469,0 0,26.316 z" />
          </g>
        </g>
        <g
           id="g3754">
          <g
             id="g3756"
             clip-path="url(#clipPath3758-0)">
            <path
               style="fill:url(#linearGradient13257);stroke:none"
               id="path3768"
               d="m 482.777,688.573 113.278,0 0,28.123 -113.278,0 0,-28.123 z m 0.903,27.22 111.469,0 0,-26.316 -111.469,0 0,26.316 z" />
          </g>
        </g>
      </g>
    </g>
    <g
       transform="matrix(1.8369177,0,0,-1.8369177,-525.58321,378.06135)"
       id="g3778">
      <g
         id="g3780"
         clip-path="url(#clipPath3782-3)">
        <g
           id="g3786">
          <g
             id="g3788"
             clip-path="url(#clipPath3790-4)">
            <path
               style="fill:url(#linearGradient13267);stroke:none"
               id="path3800"
               d="m 482.777,657.936 113.278,0 0,27.629 -113.278,0 0,-27.629 z m 0.903,26.726 111.469,0 0,-25.823 -111.469,0 0,25.823 z" />
          </g>
        </g>
        <g
           id="g3802">
          <g
             id="g3804"
             clip-path="url(#clipPath3806-1)">
            <path
               style="fill:url(#linearGradient13269);stroke:none"
               id="path3816"
               d="m 482.777,657.936 113.278,0 0,27.629 -113.278,0 0,-27.629 z m 0.903,26.726 111.469,0 0,-25.823 -111.469,0 0,25.823 z" />
          </g>
        </g>
      </g>
    </g>
    <path
       d="m 91.22802,45.625174 0,19.702779 3.330332,-2.455959 0,-13.892608"
       id="path4028"
       style="fill:#000000;fill-opacity:1;fill-rule:nonzero;stroke:none" />
    <path
       d="m 98.390161,50.230327 4.340639,-0.984588 1.75425,-1.44198 0,-2.597402"
       id="path4032"
       style="fill:#000000;fill-opacity:1;fill-rule:nonzero;stroke:none" />
    <path
       d="m 97.844597,18.819033 -6.124284,-2.823343 5.53647,6.214293 2.101434,-2.072043"
       id="path4036"
       style="fill:#000000;fill-opacity:1;fill-rule:nonzero;stroke:none" />
    <path
       style="fill:#000000;fill-opacity:1;fill-rule:nonzero;stroke:none"
       d="m 120.75831,26.67002 c -1.95192,-3.811159 -4.64389,1.089923 -7.03172,1.509946 -2.05383,2.11218 -5.99897,-1.03876 -6.80578,2.487187 0.8363,3.205763 -3.74865,3.251014 -5.41182,5.101407 -1.761679,2.025327 -5.672177,1.662702 -6.211665,4.608769 -0.130513,3.297026 4.244604,3.214272 4.899215,0.278523 2.17468,-1.725091 4.5637,-3.962966 7.25146,-4.685518 1.07242,2.514084 0.53135,5.40977 0.8505,8.085653 -0.10328,2.781183 -0.1745,5.525107 -0.60986,8.242709 1.1465,2.33125 0.0318,5.669349 1.95325,7.407027 2.90746,1.638185 5.56197,-1.672422 4.33274,-4.360758 -1.71667,-3.702398 -0.40622,-7.839579 -0.84871,-11.740372 -0.0426,-2.963858 -0.24419,-5.943891 -0.33848,-8.921708 -0.53243,-3.313728 3.69043,-3.091488 5.4745,-4.912148 1.42273,-0.359731 2.74734,-1.485324 2.49637,-3.100717 z m 7.2797,5.870789 c -1.46976,2.17374 -2.03244,4.786444 -3.67383,6.860888 -0.87085,1.405013 -2.33679,6.138962 -3.77487,2.551478 -0.85572,-2.49735 0.62824,-6.822589 -2.31084,-7.85466 -3.54318,-0.531576 -3.70856,3.758851 -2.32003,6.004884 1.68655,4.329068 2.06836,9.101711 4.20838,13.251524 2.06652,3.158878 5.89068,-0.495688 4.91812,-3.361789 0.0824,-2.590188 1.64842,-4.749086 2.95307,-6.873516 0.004,7.402778 0.007,14.805557 0.011,22.208335 -7.56566,0 -15.13131,0 -22.69696,0 0,-7.36604 0,-14.73208 0,-22.09812 -2.75293,2.343907 -5.505853,4.687814 -8.258781,7.031721 -2.239814,-2.309617 -4.47963,-4.619236 -6.719445,-6.928854 0,7.331751 0,14.663503 0,21.995253 -7.610961,0 -15.221925,0 -22.832887,0 0,-16.646148 0,-33.292296 0,-49.938445 7.484215,0 14.968431,0 22.452645,0 2.396566,2.686186 4.79313,5.372372 7.189696,8.058558 2.699044,-2.686186 5.398092,-5.372372 8.097132,-8.058558 7.58586,0 15.17172,0 22.75757,0"
       id="path4040" />
    <path
       style="fill:#000000;fill-opacity:1;fill-rule:nonzero;stroke:none"
       d="m 128.97117,31.444169 c 1.38783,-1.801006 2.68048,-3.692002 4.27985,-5.318049 1.23751,-1.424178 2.20078,-3.36899 4.14903,-3.91877 1.84917,-0.515568 4.01147,0.995016 3.62153,3.010586 -0.14814,1.659749 -0.91885,3.486505 -2.67208,3.968259 -1.50667,0.675437 -2.86221,1.771648 -3.74756,3.157913 -1.10948,1.543035 -2.28072,3.071157 -3.1693,4.754094 -0.73688,1.558039 -1.87149,2.864551 -2.45045,4.476568 0,7.917728 0,15.835456 0,23.753183 1.22461,-0.849268 2.44923,-1.698537 3.67384,-2.547805 0,-8.76516 0,-17.530318 0,-26.295477 1.06607,-1.384812 1.98649,-2.854175 3.00336,-4.27267 1.24635,-1.529641 3.06057,-2.199718 4.68158,-3.222686 1.3267,-1.492755 1.96877,-3.807473 1.22993,-5.701323 -0.96442,-2.154068 -4.07881,-2.643611 -5.81773,-1.16763 -1.35241,0.446162 -2.48572,3.222312 -3.09714,3.15089 0,-2.554249 0,-5.108498 0,-7.662747 -1.22829,-0.739053 -2.45657,-1.478107 -3.68486,-2.21716"
       id="path4044" />
    <path
       d="m 67.533619,66.825042 1.930601,0 0.624552,3.142966 0.01469,0 0.628226,-3.142966 1.926926,0 0,5.341757 -1.278494,0 0,-3.427689 -0.01837,0 -0.75681,3.427689 -1.012141,0 -0.762321,-3.427689 -0.0092,0 0,3.427689 -1.287679,0"
       id="path4048"
       style="fill:#000000;fill-opacity:1;fill-rule:nonzero;stroke:none" />
    <path
       d="m 77.142536,70.105775 c 0,1.478719 -0.65578,2.189606 -1.998566,2.189606 -1.342787,0 -2.009588,-0.710887 -2.009588,-2.189606 l 0,-3.280735 1.353808,0 0,2.917025 c 0,0.543728 0,1.225224 0.663127,1.225224 0.639248,0 0.639248,-0.681496 0.639248,-1.225224 l 0,-2.917025 1.351971,0"
       id="path4052"
       style="fill:#000000;fill-opacity:1;fill-rule:nonzero;stroke:none" />
    <path
       d="m 78.889443,70.37213 c 0,0.126747 0.0147,0.255332 0.04592,0.347177 0.09736,0.321461 0.394937,0.394938 0.646595,0.394938 0.225941,0 0.56026,-0.09185 0.56026,-0.486783 0,-0.271864 -0.187366,-0.347178 -0.951523,-0.611694 -0.692518,-0.242473 -1.482393,-0.479436 -1.482393,-1.550359 0,-1.228898 0.868862,-1.763441 1.772625,-1.763441 0.94785,0 1.790995,0.437187 1.822223,1.741398 l -1.26931,0 c 0.02204,-0.203897 -0.0496,-0.337992 -0.157975,-0.428001 -0.121237,-0.09552 -0.26819,-0.130422 -0.409633,-0.130422 -0.181855,0 -0.486783,0.05511 -0.486783,0.354526 0.03123,0.383915 0.663127,0.462903 1.276658,0.674148 0.620878,0.216757 1.24543,0.56026 1.24543,1.541174 0,1.379525 -1.061738,1.840592 -2.035305,1.840592 -0.497805,0 -1.917742,-0.213083 -1.939785,-1.923253"
       id="path4056"
       style="fill:#000000;fill-opacity:1;fill-rule:nonzero;stroke:none" />
    <path
       style="fill:#000000;fill-opacity:1;fill-rule:nonzero;stroke:none"
       id="path4058"
       d="m 81.927705,72.166798 1.353807,0 0,-5.341756 -1.353807,0 0,5.341756 z" />
    <path
       d="m 86.703692,68.814423 c -0.02572,-0.194713 -0.150627,-0.782527 -0.703539,-0.782527 -0.637411,0 -0.839472,0.743952 -0.839472,1.462187 0,0.718234 0.202061,1.467697 0.839472,1.467697 0.444534,0 0.624552,-0.38759 0.703539,-0.887231 l 1.339113,0 c 0,1.076433 -0.725582,2.220833 -2.013262,2.220833 -1.4181,0 -2.228181,-1.219713 -2.228181,-2.801299 0,-1.678943 0.878047,-2.795789 2.228181,-2.795789 1.205018,0.01102 1.868146,0.775179 1.991219,2.116129"
       id="path4062"
       style="fill:#000000;fill-opacity:1;fill-rule:nonzero;stroke:none" />
    <path
       d="m 91.551317,68.193544 -1.238083,0 0,-1.368504 3.820789,0 0,1.368504 -1.238082,0 0,3.965905 -1.344624,0"
       id="path4066"
       style="fill:#000000;fill-opacity:1;fill-rule:nonzero;stroke:none" />
    <path
       d="m 94.521614,66.825042 3.640771,0 0,1.368504 -2.2888,0 0,0.664964 2.081228,0 0,1.274821 -2.081228,0 0,0.668638 2.358603,0 0,1.36483 -3.710574,0"
       id="path4070"
       style="fill:#000000;fill-opacity:1;fill-rule:nonzero;stroke:none" />
    <path
       d="m 98.643656,66.825042 1.351971,0 0,3.976927 1.945293,0 0,1.36483 -3.297264,0"
       id="path4074"
       style="fill:#000000;fill-opacity:1;fill-rule:nonzero;stroke:none" />
    <path
       d="m 102.27524,66.825042 3.6371,0 0,1.368504 -2.28513,0 0,0.664964 2.08123,0 0,1.274821 -2.08123,0 0,0.668638 2.36044,0 0,1.36483 -3.71241,0"
       id="path4078"
       style="fill:#000000;fill-opacity:1;fill-rule:nonzero;stroke:none" />
    <path
       d="m 109.16736,72.168635 -1.51729,0 -1.30238,-5.341757 1.35932,0 0.71824,3.240323 0.0165,0 0.70354,-3.240323 1.38871,0"
       id="path4082"
       style="fill:#000000;fill-opacity:1;fill-rule:nonzero;stroke:none" />
    <path
       style="fill:#000000;fill-opacity:1;fill-rule:nonzero;stroke:none"
       id="path4084"
       d="m 111.04652,72.166798 1.35565,0 0,-5.341756 -1.35565,0 0,5.341756 z" />
    <path
       d="m 114.2795,70.37213 c 0,0.126747 0.0184,0.255332 0.0422,0.347177 0.11205,0.321461 0.39494,0.394938 0.65394,0.394938 0.2186,0 0.56026,-0.09185 0.56026,-0.486783 0,-0.271864 -0.19104,-0.347178 -0.94785,-0.611694 -0.69619,-0.242473 -1.48974,-0.479436 -1.48974,-1.550359 0,-1.228898 0.86886,-1.763441 1.76895,-1.763441 0.9552,0 1.80202,0.437187 1.83692,1.741398 l -1.28033,0 c 0.0294,-0.203897 -0.0496,-0.337992 -0.16165,-0.428001 -0.10654,-0.09552 -0.26084,-0.130422 -0.39861,-0.130422 -0.1892,0 -0.48311,0.05511 -0.48311,0.354526 0.0239,0.383915 0.64843,0.462903 1.27298,0.674148 0.62456,0.216757 1.23441,0.56026 1.23441,1.541174 0,1.379525 -1.05439,1.840592 -2.02428,1.840592 -0.50515,0 -1.92509,-0.213083 -1.93244,-1.923253"
       id="path4088"
       style="fill:#000000;fill-opacity:1;fill-rule:nonzero;stroke:none" />
    <path
       style="fill:#000000;fill-opacity:1;fill-rule:nonzero;stroke:none"
       id="path4090"
       d="m 117.32511,72.166798 1.35564,0 0,-5.341756 -1.35564,0 0,5.341756 z" />
    <path
       d="m 121.36449,70.965454 c 0.34167,0 0.86886,-0.279211 0.86886,-1.471371 0,-1.190323 -0.52719,-1.462187 -0.86886,-1.462187 -0.34534,0 -0.87254,0.271864 -0.87254,1.462187 0,1.19216 0.5272,1.471371 0.87254,1.471371 m 0,-4.26716 c 1.33544,0 2.22451,1.162769 2.22451,2.795789 0,1.63302 -0.88907,2.801299 -2.22451,2.801299 -1.33911,0 -2.2392,-1.168279 -2.2392,-2.801299 0,-1.63302 0.90009,-2.795789 2.2392,-2.795789"
       id="path4094"
       style="fill:#000000;fill-opacity:1;fill-rule:nonzero;stroke:none" />
    <path
       d="m 124.09231,66.825042 1.38871,0 1.27666,2.858244 0.0147,0 0,-2.858244 1.27666,0 0,5.341757 -1.31523,0 -1.34646,-2.917026 -0.0147,0 0,2.917026 -1.28033,0"
       id="path4098"
       style="fill:#000000;fill-opacity:1;fill-rule:nonzero;stroke:none" />
    <path
       d="m 130.22762,67.390811 0,0.525358 0.3233,0 c 0.14695,0 0.21124,-0.06797 0.21124,-0.213082 l 0,-0.132258 c 0,-0.135932 -0.0643,-0.180018 -0.19655,-0.180018 l -0.33799,0 z m 0.42065,-0.211246 c 0.18553,0 0.32146,0.146954 0.32146,0.326972 l 0,0.240636 c 0,0.128584 -0.0312,0.218593 -0.13225,0.26819 0.12858,0.05878 0.14695,0.168996 0.14695,0.299418 l 0,0.486783 c 0,0.03306 -0.0312,0.06245 -0.068,0.06245 l -0.0937,0 c -0.0349,0 -0.0606,-0.02939 -0.0606,-0.06245 l 0,-0.516174 c 0,-0.121237 -0.0643,-0.163486 -0.19655,-0.163486 l -0.33799,0 0,0.67966 c 0,0.03306 -0.0294,0.06245 -0.0606,0.06245 l -0.0937,0 c -0.0386,0 -0.0716,-0.02939 -0.0716,-0.06245 l 0,-1.550359 c 0,-0.0349 0.0331,-0.07164 0.0716,-0.07164 l 0.57495,0 z m -0.17267,-0.247983 c -0.61353,0 -1.10949,0.486783 -1.10949,1.10215 0,0.613531 0.49596,1.09664 1.10949,1.09664 0.60619,0 1.10032,-0.483109 1.10032,-1.09664 0,-0.615367 -0.49413,-1.10215 -1.10032,-1.10215 m 0,2.334722 c -0.68149,0 -1.2344,-0.552912 -1.2344,-1.232572 0,-0.677822 0.55291,-1.236245 1.2344,-1.236245 0.67783,0 1.23074,0.558423 1.23074,1.236245 0,0.67966 -0.55291,1.232572 -1.23074,1.232572"
       id="path4102"
       style="fill:#000000;fill-opacity:1;fill-rule:nonzero;stroke:none" />
    <g
       transform="matrix(1.8369177,0,0,-1.8369177,-525.58321,378.06135)"
       id="g4116">
      <g
         id="g4118"
         clip-path="url(#clipPath4120-8)">
        <g
           id="g4124">
          <g
             id="g4126"
             clip-path="url(#clipPath4128-2)">
            <path
               style="fill:url(#linearGradient13279);stroke:none"
               id="path4138"
               d="m 349.809,146.748 c 0.004,-0.701 0.588,-1.258 1.268,-1.258 l -0.026,7.548 c -0.007,0.696 -0.58,1.269 -1.277,1.279 l 0.035,-7.569 z m -9.586,5.355 c -0.004,-0.876 0.721,-1.577 1.621,-1.577 l 1.448,0 c 1.414,0 2.173,-0.994 2.183,-1.914 0.01,-1.09 -0.883,-1.852 -2.164,-1.852 -1.254,0 -2,0.898 -2.012,1.756 0,0.592 0.278,1.162 0.772,1.544 -0.075,0.055 -0.176,0.111 -0.272,0.15 -0.658,0.238 -1.386,-0.095 -1.615,-0.753 -0.094,-0.293 -0.141,-0.614 -0.137,-0.941 0.014,-1.692 1.44,-3.026 3.266,-3.026 0.979,0 1.836,0.317 2.477,0.912 0.603,0.567 0.947,1.361 0.939,2.21 -0.006,1.781 -1.519,3.182 -3.437,3.182 l -1.448,0 c -0.198,0 -0.382,0.146 -0.37,0.309 l -0.009,0.918 c -0.007,0.701 -0.562,1.256 -1.259,1.286 l 0.017,-2.204 z m 7.166,1.103 c 0,-0.383 0.303,-0.685 0.672,-0.685 0.375,0 0.674,0.302 0.674,0.685 -0.002,0.373 -0.307,0.688 -0.682,0.688 -0.369,0 -0.666,-0.315 -0.664,-0.688 m 4.401,-4.545 c 0,-0.871 0.377,-1.679 1.037,-2.286 0.65,-0.58 1.492,-0.9 2.404,-0.9 1.305,0 2.443,0.663 3.018,1.692 -0.395,0.374 -0.977,0.355 -1.457,0.095 -0.387,-0.369 -0.953,-0.585 -1.569,-0.585 -0.951,0 -1.931,0.585 -2.131,1.431 l 4.229,0.011 c 0.666,-0.011 1.375,0.423 1.271,1.087 -0.271,1.505 -1.665,2.6 -3.39,2.6 -1.92,0 -3.412,-1.372 -3.412,-3.145 m 3.414,1.955 c 0.955,0 1.92,-0.578 2.154,-1.388 l -4.266,0 c 0.198,0.784 1.159,1.388 2.112,1.388 m -22.516,-1.981 c 0,-1.77 1.527,-3.145 3.459,-3.145 1.917,0 3.436,1.375 3.418,3.145 0,1.77 -1.51,3.159 -3.445,3.159 -1.934,0 -3.448,-1.389 -3.432,-3.159 m 1.252,0 c -0.004,1.056 0.957,1.891 2.184,1.891 1.226,0 2.187,-0.835 2.187,-1.891 0.006,-1.055 -0.941,-1.875 -2.183,-1.875 -1.225,0 -2.186,0.82 -2.188,1.875 m -6.143,2.367 c -0.453,0.488 -1.095,0.792 -1.824,0.792 -1.345,0 -2.434,-1.072 -2.434,-2.39 l 0.016,-3.914 c 0.694,0 1.243,0.584 1.248,1.279 l -0.01,2.635 c -0.008,0.62 0.53,1.122 1.183,1.122 0.669,0 1.202,-0.502 1.206,-1.122 l 0.01,-2.644 c -0.004,-0.702 0.566,-1.27 1.26,-1.27 l -0.016,3.914 c -0.006,0.62 0.529,1.122 1.182,1.122 0.668,0 1.201,-0.502 1.207,-1.122 l 0.01,-2.621 c -0.002,-0.709 0.566,-1.293 1.263,-1.293 l -0.02,3.914 c -0.013,1.318 -1.116,2.39 -2.462,2.39 -0.721,0 -1.371,-0.304 -1.819,-0.792 m 19.653,-4.242 c 0.01,-0.702 0.567,-1.27 1.26,-1.27 l -0.018,5.011 c 0.008,0.714 -0.567,1.279 -1.258,1.279" />
          </g>
        </g>
        <g
           id="g4140">
          <g
             id="g4142"
             clip-path="url(#clipPath4144-9)">
            <path
               style="fill:url(#linearGradient13281);stroke:none"
               id="path4154"
               d="m 349.809,146.748 c 0.004,-0.701 0.588,-1.258 1.268,-1.258 l -0.026,7.548 c -0.007,0.696 -0.58,1.269 -1.277,1.279 l 0.035,-7.569 z m -9.586,5.355 c -0.004,-0.876 0.721,-1.577 1.621,-1.577 l 1.448,0 c 1.414,0 2.173,-0.994 2.183,-1.914 0.01,-1.09 -0.883,-1.852 -2.164,-1.852 -1.254,0 -2,0.898 -2.012,1.756 0,0.592 0.278,1.162 0.772,1.544 -0.075,0.055 -0.176,0.111 -0.272,0.15 -0.658,0.238 -1.386,-0.095 -1.615,-0.753 -0.094,-0.293 -0.141,-0.614 -0.137,-0.941 0.014,-1.692 1.44,-3.026 3.266,-3.026 0.979,0 1.836,0.317 2.477,0.912 0.603,0.567 0.947,1.361 0.939,2.21 -0.006,1.781 -1.519,3.182 -3.437,3.182 l -1.448,0 c -0.198,0 -0.382,0.146 -0.37,0.309 l -0.009,0.918 c -0.007,0.701 -0.562,1.256 -1.259,1.286 l 0.017,-2.204 z m 7.166,1.103 c 0,-0.383 0.303,-0.685 0.672,-0.685 0.375,0 0.674,0.302 0.674,0.685 -0.002,0.373 -0.307,0.688 -0.682,0.688 -0.369,0 -0.666,-0.315 -0.664,-0.688 m 4.401,-4.545 c 0,-0.871 0.377,-1.679 1.037,-2.286 0.65,-0.58 1.492,-0.9 2.404,-0.9 1.305,0 2.443,0.663 3.018,1.692 -0.395,0.374 -0.977,0.355 -1.457,0.095 -0.387,-0.369 -0.953,-0.585 -1.569,-0.585 -0.951,0 -1.931,0.585 -2.131,1.431 l 4.229,0.011 c 0.666,-0.011 1.375,0.423 1.271,1.087 -0.271,1.505 -1.665,2.6 -3.39,2.6 -1.92,0 -3.412,-1.372 -3.412,-3.145 m 3.414,1.955 c 0.955,0 1.92,-0.578 2.154,-1.388 l -4.266,0 c 0.198,0.784 1.159,1.388 2.112,1.388 m -22.516,-1.981 c 0,-1.77 1.527,-3.145 3.459,-3.145 1.917,0 3.436,1.375 3.418,3.145 0,1.77 -1.51,3.159 -3.445,3.159 -1.934,0 -3.448,-1.389 -3.432,-3.159 m 1.252,0 c -0.004,1.056 0.957,1.891 2.184,1.891 1.226,0 2.187,-0.835 2.187,-1.891 0.006,-1.055 -0.941,-1.875 -2.183,-1.875 -1.225,0 -2.186,0.82 -2.188,1.875 m -6.143,2.367 c -0.453,0.488 -1.095,0.792 -1.824,0.792 -1.345,0 -2.434,-1.072 -2.434,-2.39 l 0.016,-3.914 c 0.694,0 1.243,0.584 1.248,1.279 l -0.01,2.635 c -0.008,0.62 0.53,1.122 1.183,1.122 0.669,0 1.202,-0.502 1.206,-1.122 l 0.01,-2.644 c -0.004,-0.702 0.566,-1.27 1.26,-1.27 l -0.016,3.914 c -0.006,0.62 0.529,1.122 1.182,1.122 0.668,0 1.201,-0.502 1.207,-1.122 l 0.01,-2.621 c -0.002,-0.709 0.566,-1.293 1.263,-1.293 l -0.02,3.914 c -0.013,1.318 -1.116,2.39 -2.462,2.39 -0.721,0 -1.371,-0.304 -1.819,-0.792 m 19.653,-4.242 c 0.01,-0.702 0.567,-1.27 1.26,-1.27 l -0.018,5.011 c 0.008,0.714 -0.567,1.279 -1.258,1.279" />
          </g>
        </g>
      </g>
    </g>
    <g
       transform="matrix(1.8369177,0,0,-1.8369177,-525.58321,378.06135)"
       id="g4236">
      <g
         id="g4238"
         clip-path="url(#clipPath4240-6)">
        <path
           style="fill:url(#linearGradient13291);stroke:none"
           id="path4250"
           d="m 259.619,101.983 130.854,0 0,0.847 -130.854,0 0,-0.847 z" />
      </g>
    </g>
    <g
       transform="matrix(1.8369177,0,0,-1.8369177,-525.58321,378.06135)"
       id="g4260">
      <g
         id="g4262"
         clip-path="url(#clipPath4264-7)">
        <g
           id="g4268">
          <g
             id="g4270"
             clip-path="url(#clipPath4272-7)">
            <path
               style="fill:url(#linearGradient13296);stroke:none"
               id="path4282"
               d="m 479.669,138.016 1.27,-14.843 29.807,2.545 1.984,-1.67 1.67,1.983 11.96,1.021 -1.267,14.843" />
          </g>
        </g>
      </g>
    </g>
    <g
       transform="matrix(1.8369177,0,0,-1.8369177,-525.58321,378.06135)"
       id="g4324">
      <g
         id="g4326"
         clip-path="url(#clipPath4328-7)">
        <g
           id="g4332">
          <g
             id="g4334"
             clip-path="url(#clipPath4336-4)">
            <path
               style="fill:url(#linearGradient13303);stroke:none"
               id="path4346"
               d="m 476.6,145.349 c -0.742,-0.065 -1.3,-0.733 -1.269,-1.488 l 0.167,-2.263 -2.255,-0.169 c -0.759,-0.035 -1.321,-0.719 -1.259,-1.45 0.033,-0.744 0.703,-1.33 1.44,-1.266 l 2.286,0.167 0.145,-2.257 c 0.069,-0.779 0.73,-1.332 1.476,-1.269 0.767,0.05 1.33,0.707 1.268,1.455 l -0.172,2.274 2.278,0.151 c 0.758,0.066 1.331,0.729 1.268,1.481 -0.057,0.746 -0.716,1.334 -1.47,1.27 l -2.263,-0.179 -0.191,2.254 c -0.034,0.728 -0.637,1.294 -1.34,1.294 -0.036,0 -0.072,-0.002 -0.109,-0.005" />
          </g>
        </g>
      </g>
    </g>
    <rect
       y="86.510948"
       x="56.037582"
       height="26.921778"
       width="87.924828"
       id="rect3136"
       style="fill:url(#linearGradient12572);fill-opacity:1;stroke:none" />
    <path
       d="m 79.146313,108.0874 0,-15.727313 c -1e-6,-0.884387 0.257885,-1.326589 0.773658,-1.326608 0.515395,1.9e-5 0.773093,0.45872 0.773096,1.376105 l 0,6.192086 c -3e-6,0.130997 -3e-6,0.253984 0,0.368959 0.01236,0.098 0.09832,0.146995 0.257885,0.146986 0.07341,9e-6 0.134653,9e-6 0.183723,0 l 5.541452,0 c 0.110487,9e-6 0.220982,9e-6 0.331487,0 0.06142,-0.01599 0.09213,-0.18797 0.09214,-0.515945 l 0,-6.192086 0.01854,-0.56544 c 0.02433,-0.245455 0.104025,-0.441935 0.239065,-0.589437 0.135019,-0.147466 0.306848,-0.221209 0.515489,-0.221228 0.122846,1.9e-5 0.245703,0.04102 0.368569,0.122989 0.270049,0.212994 0.405077,0.6142 0.405088,1.203619 l 0,15.727313 c -1.1e-5,0.88441 -0.251715,1.3266 -0.755116,1.3266 -0.257708,0 -0.447892,-0.11871 -0.570551,-0.35619 -0.122679,-0.23748 -0.184012,-0.62645 -0.184003,-1.16689 l 0,-6.31582 c -9e-6,-0.31095 -0.01237,-0.48295 -0.03708,-0.51594 -0.02435,-0.0325 -0.153206,-0.0488 -0.386548,-0.0488 l -5.615053,0 c -0.245716,10e-6 -0.380745,0.0163 -0.405089,0.0488 -0.02473,0.0331 -0.03708,0.20499 -0.03708,0.51594 l 0,6.31582 c -3e-6,0.55694 -0.05525,0.95003 -0.165743,1.17927 -0.110499,0.22921 -0.306769,0.34381 -0.588812,0.34381 -0.503412,0 -0.755118,-0.44219 -0.755117,-1.3266 z"
       style="font-size:25.80816269px;font-style:normal;font-variant:normal;font-weight:normal;font-stretch:normal;text-align:start;line-height:125%;writing-mode:lr-tb;text-anchor:start;fill:#000000;fill-opacity:1;stroke:#000000;stroke-width:1.17937458;stroke-miterlimit:4;stroke-opacity:1;stroke-dasharray:none;font-family:Mercedes;-inkscape-font-specification:Mercedes"
       id="path13829" />
    <path
       d="m 94.134527,108.49098 0,-16.226303 c -2e-6,-0.97699 0.358749,-1.465495 1.076254,-1.465513 0.279738,1.8e-5 0.515835,0.07574 0.708294,0.227154 0.192451,0.151455 0.306296,0.353669 0.341535,0.606646 l 0.02562,0.808346 0,15.772 c -4e-6,0.70755 -0.174842,1.15389 -0.524514,1.33901 -0.192725,0.10128 -0.38518,0.15195 -0.577366,0.15195 -0.5424,0 -0.874725,-0.24425 -0.996976,-0.73275 z"
       style="font-size:25.80816269px;font-style:normal;font-variant:normal;font-weight:normal;font-stretch:normal;text-align:start;line-height:125%;writing-mode:lr-tb;text-anchor:start;fill:#000000;fill-opacity:1;stroke:#000000;stroke-width:0.75;stroke-miterlimit:4;stroke-opacity:1;stroke-dasharray:none;font-family:Mercedes;-inkscape-font-specification:Mercedes"
       id="path13831" />
    <path
       sodipodi:nodetypes="cccccccccccccc"
       id="path13833"
       d="m 103.08747,90.943811 c 3.44343,0.0085 3.74288,-0.01718 7.18539,0.01292 0.58025,-0.04162 1.23007,0.28393 1.12197,0.985831 0.0513,0.829641 -0.85487,1.075499 -1.50968,0.998744 -1.14396,0.0058 -0.90467,-0.01176 -2.04813,0.009 -0.60113,0.09773 -0.40038,0.820343 -0.43551,1.260265 -0.006,4.934144 0.0113,9.740919 -0.008,14.674719 0.0962,1.05529 -1.62528,1.1885 -1.66606,0.13804 -0.07,-5.3449 -0.0504,-10.266811 -0.0651,-15.719691 -0.16276,-0.547321 -1.25416,-0.310118 -1.67705,-0.362376 -1.14599,-0.02719 -0.53872,0.06051 -1.67905,-0.05697 -0.95761,-0.330869 -0.74534,-1.947932 0.30738,-1.908159 0.15692,-0.02377 0.31577,-0.03225 0.47429,-0.03236 l 7e-5,-2.9e-5 z"
       style="font-size:25.80816269px;font-style:normal;font-variant:normal;font-weight:normal;font-stretch:normal;text-align:start;line-height:125%;writing-mode:lr-tb;text-anchor:start;fill:#000000;fill-opacity:1;stroke:#000000;stroke-width:1.01799548;stroke-miterlimit:4;stroke-opacity:1;stroke-dasharray:none;font-family:Mercedes;-inkscape-font-specification:Mercedes" />
    <path
       id="path4318"
       d="m 122.23933,90.511191 c -1.36463,-0.07513 -2.71605,0.321485 -3.75,1.085115 -1.03395,0.763629 -1.79644,1.889941 -2,3.225201 -0.20355,1.33526 0.20857,2.822199 1.28125,4.159605 0.88351,1.094648 2.13245,1.669878 3.25,2.260658 1.10094,0.58199 2.0512,1.18429 2.375,1.56738 0.005,0.006 0.0267,0.0245 0.0312,0.0301 0.67661,1.00322 0.82137,1.81022 0.71875,2.41136 -0.10624,0.62241 -0.47961,1.11449 -1.03125,1.47697 -1.10328,0.72495 -2.87456,0.80475 -4.21875,-0.5727 a 1.3472688,1.299503 0 1 0 -1.9375,1.77838 c 2.21407,2.26885 5.51091,2.39475 7.6875,0.96454 1.0883,-0.7151 1.92339,-1.8611 2.15625,-3.2252 0.23287,-1.3641 -0.14684,-2.89098 -1.1875,-4.3706 l -0.0312,-0.0301 -0.0312,-0.0301 c -0.8835,-1.09466 -2.13244,-1.669883 -3.25,-2.26066 -1.11755,-0.590776 -2.09769,-1.215232 -2.40625,-1.597529 -0.69024,-0.870963 -0.84064,-1.575644 -0.75,-2.170229 0.0915,-0.600346 0.42855,-1.138271 0.96875,-1.537246 1.08042,-0.797948 2.67365,-1.012598 3.96875,0.361705 a 1.3495514,1.3017047 0 1 0 2,-1.74824 c -1.09481,-1.161811 -2.47911,-1.703301 -3.84375,-1.77843 z"
       style="font-size:medium;font-style:normal;font-variant:normal;font-weight:normal;font-stretch:normal;text-indent:0;text-align:start;text-decoration:none;line-height:normal;letter-spacing:normal;word-spacing:normal;text-transform:none;direction:ltr;block-progression:tb;writing-mode:lr-tb;text-anchor:start;color:#000000;fill:#000000;fill-opacity:1;stroke:none;stroke-width:2.69400001;marker:none;visibility:visible;display:inline;overflow:visible;enable-background:accumulate;font-family:Bitstream Vera Sans;-inkscape-font-specification:Bitstream Vera Sans" />
  </g>
</svg>
