<?xml version="1.0" encoding="UTF-8" standalone="no"?>
<svg
   xmlns:svg="http://www.w3.org/2000/svg"
   xmlns="http://www.w3.org/2000/svg"
   version="1.1"
   width="531.86163"
   height="115.1477"
   id="svg12614">
  <defs
     id="defs12616" />
  <g
     transform="translate(-24.06918,-517.78833)"
     id="layer1">
    <path
       d="m 24.06918,517.78833 0,115.1477 127.75686,0 0,-115.1477 -127.75686,0 z m 419.19475,5.7098 0,18.08105 8.56471,0 0,-10.46798 90.64313,0 0,10.46798 8.08889,0 0,-18.08105 -107.29673,0 z m 0,90.40522 0,18.08105 107.29673,0 0,-18.08105 -8.3268,0 0,10.23007 -90.64313,0 0,-10.23007 -8.3268,0 z"
       id="path9482"
       style="fill:#f58a18;fill-opacity:1;fill-rule:nonzero;stroke:none" />
    <path
       d="m 138.97898,517.78833 0,115.1477 29.50065,0 0,-63.28365 c 3.4354,5.41479 7.76533,11.31492 12.60915,17.60522 11.96204,15.55922 24.6378,30.71875 37.35163,45.67843 l 24.98039,0 0,-115.1477 -29.97647,0 0,61.38039 C 205.24125,565.72213 194.65908,552.542 184.65741,540.38963 178.43372,532.83366 171.896,525.2872 165.62473,517.78833 l -26.64575,0 z m 155.83006,17.12941 c -14.34113,0.23753 -27.74013,4.01589 -38.30327,14.0366 l 10.23006,15.22614 c 6.0524,-4.24429 14.23645,-9.10714 21.88759,-9.27843 2.99764,0.1142 5.08172,0.92309 6.66143,2.61699 1.63681,1.77004 2.34102,3.50202 2.37909,5.4719 -0.18119,9.75425 -9.21182,20.82175 -15.46405,27.59738 -4.66301,5.08173 -9.82087,10.18249 -15.46406,15.22615 l -13.56078,12.13333 0.47582,14.98823 77.79607,0 0,-22.12549 -35.21045,0 11.1817,-11.4196 c 9.86844,-10.18249 23.36261,-23.89553 23.07712,-39.2549 -0.39969,-18.97558 -19.5656,-25.29443 -35.68627,-25.2183 z m 78.98561,1.42745 -42.82352,53.76732 0,13.79869 43.29934,0 0,29.02483 30.21438,0 0,-29.02483 11.4196,0 0,-17.84314 -11.4196,0 0,-49.72287 -30.6902,0 z m 69.46928,14.51242 c -4.08251,17.67184 -8.27922,35.39126 -12.37124,53.05359 l 19.50849,0 c 1.63682,-6.84225 3.35927,-13.85579 4.99608,-20.69804 l 15.46405,0 -4.52026,20.69804 19.27059,0 12.13333,-53.05359 -19.27058,0 -4.28236,18.08104 -15.70196,0 4.28236,-18.08104 -19.5085,0 z m 64.71111,0 -11.1817,52.81568 21.88758,0 c 12.66625,0.008 20.50771,-1.49407 25.69412,-5.4719 4.70107,-3.60669 10.30619,-10.70588 11.4196,-21.17385 1.01825,-9.56392 -3.81605,-17.92878 -9.75424,-22.12549 -5.529,-3.91122 -18.08105,-4.04444 -18.08105,-4.04444 l -19.98431,0 z m -133.70457,9.27843 0,25.93202 -19.27059,0 19.27059,-25.93202 z m 148.93071,3.80653 7.37516,0 c 0,0 3.9017,-0.17129 6.18562,3.09281 2.29344,3.26411 1.29423,7.41323 0.47582,10.70588 -0.91357,3.65428 -2.49328,7.32759 -4.28235,9.27844 -1.90327,2.07456 -3.57814,3.40685 -6.66144,3.56862 -3.09281,0.1614 -8.80261,0 -8.80261,0 l 5.7098,-26.64575 z"
       id="path9494"
       style="fill:#003b58;fill-opacity:1;fill-rule:nonzero;stroke:none" />
  </g>
</svg>
