<?xml version="1.0" encoding="UTF-8" standalone="no"?>
<!-- Created with Inkscape (http://www.inkscape.org/) -->
<svg
   xmlns:svg="http://www.w3.org/2000/svg"
   xmlns="http://www.w3.org/2000/svg"
   version="1.0"
   width="708.66144"
   height="207.575"
   id="svg5827">
  <defs
     id="defs5829" />
  <g
     transform="translate(-302.94539,-260.53287)"
     id="layer1">
    <g
       transform="matrix(16.066066,0,0,16.066066,-4564.1954,-7052.5452)"
       id="g5845">
      <path
         d="M 302.9454,468.10794 L 315.86072,468.10794 L 315.86072,455.19262 L 302.9454,455.19262 L 302.9454,468.10794 z"
         id="path651"
         style="fill:#f36617;fill-rule:nonzero;stroke:none" />
      <g
         transform="matrix(1.1947567,0,0,-1.1947567,-313.65659,885.71126)"
         id="q100"
         style="fill:#f36617;fill-rule:nonzero;stroke:none">
<g
   transform="translate(533.946,354.565)"
   id="xfrm101">
<path
   d="M 0,0 L 0,5.779 L 2.803,5.779 L 2.803,-5.032 L 0.45,-5.032 C -0.748,-3.623 -1.951,-2.216 -3.077,-0.751 C -3.532,-0.159 -3.921,0.393 -4.244,0.901 L -4.244,-5.032 L -7.047,-5.032 L -7.047,5.779 L -4.508,5.779 C -3.917,5.072 -3.329,4.362 -2.743,3.651 C -1.8,2.505 -0.772,1.266 0,0"
   id="path655"
   style="fill:#002642;fill-rule:nonzero;stroke:none" />

</g>

</g>
      <g
         transform="matrix(1.1947567,0,0,-1.1947567,-313.65659,885.71126)"
         id="q102"
         style="fill:#f36617;fill-rule:nonzero;stroke:none">
<g
   transform="translate(537.703,350.92)"
   id="xfrm103">
<path
   d="M 0,0 L 1.253,1.145 C 1.784,1.621 2.27,2.099 2.711,2.576 C 3.299,3.216 4.142,4.251 4.158,5.171 C 4.155,5.356 4.081,5.531 3.925,5.698 C 3.777,5.857 3.569,5.947 3.287,5.959 C 2.566,5.943 1.821,5.465 1.252,5.065 L 0.268,6.51 C 1.264,7.455 2.547,7.813 3.897,7.836 C 5.416,7.842 7.204,7.211 7.24,5.424 C 7.268,3.977 6.002,2.718 5.072,1.757 L 4.037,0.672 L 7.329,0.672 L 7.329,-1.387 L 0.015,-1.387 L 0,0"
   id="path659"
   style="fill:#002642;fill-rule:nonzero;stroke:none" />

</g>

</g>
      <g
         transform="matrix(1.1947567,0,0,-1.1947567,-313.65659,885.71126)"
         id="q104"
         style="fill:#f36617;fill-rule:nonzero;stroke:none">
<g
   transform="translate(549.08099,356.375)"
   id="xfrm105">
<path
   d="M 0,0 L -1.806,-2.442 L 0,-2.442 L 0,0 M 2.855,-2.442 L 3.928,-2.442 L 3.928,-4.13 L 2.855,-4.13 L 2.862,-6.841 L 0.007,-6.841 L 0,-4.13 L -4.082,-4.13 L -4.082,-2.835 L -0.04,2.248 L 2.862,2.248 L 2.855,-2.442"
   id="path663"
   style="fill:#002642;fill-rule:evenodd;stroke:none" />

</g>

</g>
    </g>
  </g>
</svg>
