<?xml version="1.0" encoding="UTF-8" standalone="no"?>
<!-- Created with Inkscape (http://www.inkscape.org/) -->
<svg
   xmlns:dc="http://purl.org/dc/elements/1.1/"
   xmlns:cc="http://creativecommons.org/ns#"
   xmlns:rdf="http://www.w3.org/1999/02/22-rdf-syntax-ns#"
   xmlns:svg="http://www.w3.org/2000/svg"
   xmlns="http://www.w3.org/2000/svg"
   xmlns:sodipodi="http://sodipodi.sourceforge.net/DTD/sodipodi-0.dtd"
   xmlns:inkscape="http://www.inkscape.org/namespaces/inkscape"
   width="743.05591"
   height="267.54062"
   id="svg3354"
   sodipodi:version="0.32"
   inkscape:version="0.46"
   version="1.0"
   sodipodi:docname="Nat Geo Wild Logo.svg"
   inkscape:output_extension="org.inkscape.output.svg.inkscape">
  <defs
     id="defs3356">
    <inkscape:perspective
       sodipodi:type="inkscape:persp3d"
       inkscape:vp_x="0 : 526.18109 : 1"
       inkscape:vp_y="0 : 1000 : 0"
       inkscape:vp_z="744.09448 : 526.18109 : 1"
       inkscape:persp3d-origin="372.04724 : 350.78739 : 1"
       id="perspective3362" />
  </defs>
  <sodipodi:namedview
     id="base"
     pagecolor="#ffffff"
     bordercolor="#666666"
     borderopacity="1.0"
     inkscape:pageopacity="0.0"
     inkscape:pageshadow="2"
     inkscape:zoom="1.1267179"
     inkscape:cx="371.52795"
     inkscape:cy="133.77031"
     inkscape:document-units="px"
     inkscape:current-layer="layer1"
     showgrid="false"
     inkscape:window-width="1280"
     inkscape:window-height="1005"
     inkscape:window-x="-4"
     inkscape:window-y="-4" />
  <metadata
     id="metadata3359">
    <rdf:RDF>
      <cc:Work
         rdf:about="">
        <dc:format>image/svg+xml</dc:format>
        <dc:type
           rdf:resource="http://purl.org/dc/dcmitype/StillImage" />
      </cc:Work>
    </rdf:RDF>
  </metadata>
  <g
     inkscape:label="Ebene 1"
     inkscape:groupmode="layer"
     id="layer1"
     transform="translate(-17.237626,-380.02044)">
    <g
       id="g3350"
       transform="matrix(0.6134676,0,0,0.6134676,-67.162069,666.52892)">
      <path
         id="path2457"
         d="M 560.65283,-33.269395 C 557.52345,-46.097895 504.98475,-298.3674 505.36352,-298.74617 C 505.85513,-299.23778 573.28991,-307.13689 573.53584,-306.73167 C 574.22112,-305.60256 593.48124,-184.90141 598.93469,-147.55974 C 601.73906,-128.35725 604.20582,-112.47385 604.41638,-112.26328 C 604.94284,-111.73683 605.12957,-112.44734 611.45114,-139.03116 C 620.78473,-178.28124 644.3543,-266.91856 654.59508,-301.28116 C 655.07564,-302.89366 657.31327,-303.03116 683.07398,-303.03116 L 711.03134,-303.03116 L 711.96159,-300.58443 C 713.52103,-296.48278 740.44261,-201.9183 746.42426,-179.53116 C 749.51033,-167.98116 754.61076,-148.07866 757.75856,-135.30339 C 760.90637,-122.52812 763.71675,-112.06562 764.00386,-112.05339 C 764.29097,-112.04116 765.55869,-120.01866 766.82102,-129.78116 C 772.41215,-173.02161 792.14237,-305.53925 793.1335,-306.50843 C 793.5996,-306.96421 850.94189,-299.40444 851.53766,-298.80867 C 851.79417,-298.55216 839.96154,-238.19264 825.24294,-164.6764 L 798.48184,-31.010495 L 760.52861,-31.270795 L 722.57538,-31.531195 L 718.73569,-44.531195 C 703.10631,-97.447445 688.17987,-152.06789 681.43356,-181.03116 C 679.96031,-187.35616 678.45075,-192.86388 678.079,-193.27054 C 677.70725,-193.67719 675.23788,-184.22719 672.59152,-172.27054 C 667.99497,-151.50261 647.79823,-70.371795 640.66756,-44.031195 L 637.28368,-31.531195 L 599.24413,-31.269395 L 561.20457,-31.007595 L 560.65283,-33.269395 z M 866.98184,-167.03116 L 866.98184,-303.03116 L 900.48184,-303.03116 L 933.98184,-303.03116 L 933.98184,-167.03116 L 933.98184,-31.031195 L 900.48184,-31.031195 L 866.98184,-31.031195 L 866.98184,-167.03116 z M 964.98184,-167.03116 L 964.98184,-303.03116 L 998.98184,-303.03116 L 1032.9818,-303.03116 L 1032.9818,-192.03116 L 1032.9818,-81.031195 L 1074.4818,-81.031195 L 1115.9818,-81.031195 L 1115.9818,-56.031195 L 1115.9818,-31.031195 L 1040.4818,-31.031195 L 964.98184,-31.031195 L 964.98184,-167.03116 z M 1136.9818,-166.97511 L 1136.9818,-303.03116 L 1184.9426,-303.03116 C 1235.6686,-303.03116 1247.4128,-302.35068 1262.4818,-298.53838 C 1283.3123,-293.26853 1298.3342,-285.25131 1312.4966,-271.84545 C 1331.5966,-253.76571 1342.9749,-230.03048 1347.5841,-198.65276 C 1349.593,-184.97755 1349.06,-152.19679 1346.6179,-139.2201 C 1340.5615,-107.03824 1330.1649,-85.519865 1311.4819,-66.497795 C 1294.2673,-48.970795 1276.9234,-39.491895 1250.9818,-33.432895 C 1244.4591,-31.909495 1236.5434,-31.631595 1190.2318,-31.300095 L 1136.9818,-30.919095 L 1136.9818,-166.97511 z M 1239.1269,-84.233625 C 1251.4833,-88.832365 1260.7344,-97.575845 1267.4312,-110.98477 C 1274.1549,-124.44745 1277.39,-137.87128 1279.161,-159.65615 C 1282.0003,-194.58347 1273.9335,-222.67226 1256.3451,-239.10107 C 1245.3949,-249.32929 1237.3406,-252.03116 1217.8003,-252.03116 L 1203.9818,-252.03116 L 1203.9818,-167.19783 C 1203.9818,-120.53949 1204.3193,-82.015895 1204.7318,-81.589895 C 1205.1443,-81.163895 1211.5568,-81.027995 1218.9818,-81.287895 C 1230.1111,-81.677495 1233.6488,-82.194795 1239.1269,-84.233625 z M 911.38395,-332.96972 C 896.69442,-335.29202 885.74463,-341.76883 876.01756,-353.889 C 867.56027,-364.42698 863.16692,-377.27629 862.27674,-394.077 C 861.1263,-415.78947 867.83869,-434.37965 881.60479,-447.60667 C 898.14536,-463.4995 924.95449,-467.67978 945.04563,-457.49883 C 947.81223,-456.09689 950.29281,-454.38436 950.55803,-453.69322 C 950.82324,-453.00207 949.68272,-449.44264 948.02353,-445.78338 L 945.00682,-439.13017 L 939.52715,-441.55354 C 920.04133,-450.17109 899.36248,-443.55626 890.38119,-425.83252 C 886.35781,-417.89277 884.93956,-412.32147 884.29987,-401.94339 C 882.96802,-380.33594 891.3172,-362.00621 906.15583,-353.961 C 911.98656,-350.79969 913.14733,-350.53523 920.98184,-350.58319 C 925.65684,-350.6118 930.71934,-351.16316 932.23184,-351.80844 L 934.98184,-352.98166 L 934.98184,-372.50641 L 934.98184,-392.03116 L 945.48184,-392.03116 L 955.98184,-392.03116 L 955.98184,-366.04458 L 955.98184,-340.058 L 952.23184,-338.47988 C 941.67608,-334.03768 921.68573,-331.34109 911.38395,-332.96972 z M 1092.233,-333.54762 C 1073.9532,-337.5186 1059.2399,-353.78018 1053.3419,-376.53116 C 1050.7877,-386.38396 1050.7484,-410.86842 1053.2722,-420.03116 C 1059.1554,-441.39037 1074.4379,-457.90031 1092.0936,-461.97062 C 1097.72,-463.26771 1108.2437,-463.26771 1113.8701,-461.97062 C 1126.2374,-459.11949 1140.1174,-447.92115 1146.641,-435.53116 C 1152.9806,-423.49052 1154.4864,-416.34863 1154.4419,-398.53116 C 1154.3962,-380.18049 1153.2463,-374.51937 1146.8677,-361.2404 C 1139.8439,-346.61823 1127.6467,-336.55073 1113.2622,-333.50265 C 1105.0328,-331.75884 1100.422,-331.7687 1092.233,-333.54762 z M 1115.4082,-353.43511 C 1126.5025,-359.93681 1132.9818,-376.85779 1132.9818,-399.32904 C 1132.9818,-426.83078 1121.2272,-445.19536 1103.518,-445.36107 C 1089.0347,-445.4966 1078.5524,-434.655 1074.4503,-415.29722 C 1069.6725,-392.75028 1076.4202,-363.26376 1088.2922,-354.81014 C 1096.0878,-349.25919 1107.3113,-348.69006 1115.4082,-353.43511 z M 525.98184,-400.53116 L 525.98184,-467.03116 L 534.23184,-466.99303 L 542.48184,-466.9549 L 546.41295,-461.24303 C 559.54256,-442.16582 593.50534,-390.99758 598.4918,-382.78116 C 601.74625,-377.41866 604.76287,-373.03116 605.19541,-373.03116 C 605.62795,-373.03116 605.98184,-394.18116 605.98184,-420.03116 L 605.98184,-467.03116 L 614.48184,-467.03116 L 622.98184,-467.03116 L 622.98184,-400.53116 L 622.98184,-334.03116 L 615.15781,-334.03116 L 607.33378,-334.03116 L 588.45842,-361.71137 C 578.07697,-376.93549 563.93529,-398.33853 557.03245,-409.2737 L 544.48184,-429.15583 L 544.22214,-381.59349 L 543.96245,-334.03116 L 534.97214,-334.03116 L 525.98184,-334.03116 L 525.98184,-400.53116 z M 632.98115,-334.78116 C 632.98078,-335.19366 642.9431,-365.11866 655.11965,-401.28116 L 677.25884,-467.03116 L 686.37034,-467.01832 L 695.48184,-467.00549 L 713.8948,-407.76832 C 724.02192,-375.18788 733.32458,-345.26866 734.56738,-341.28116 L 736.827,-334.03116 L 724.55185,-334.03116 L 712.2767,-334.03116 L 707.48115,-351.28116 C 704.84359,-360.76866 702.23927,-369.10316 701.69376,-369.80226 C 700.93964,-370.76872 696.1409,-371.00839 681.67162,-370.80226 L 662.64131,-370.53116 L 657.06158,-352.29375 L 651.48184,-334.05635 L 642.23184,-334.04375 C 637.14434,-334.03683 632.98153,-334.36866 632.98115,-334.78116 z M 698.15432,-386.53697 C 698.59379,-386.97644 685.91989,-435.0026 684.30133,-439.03116 C 683.92047,-439.9791 683.33799,-439.059 682.71866,-436.53116 C 682.17965,-434.33116 678.86836,-422.44804 675.36024,-410.12422 C 671.85212,-397.80041 668.98184,-387.3379 668.98184,-386.87422 C 668.98184,-385.98872 697.27894,-385.66159 698.15432,-386.53697 z M 759.98184,-391.53116 L 759.98184,-449.03116 L 742.98184,-449.03116 L 725.98184,-449.03116 L 725.98184,-458.03116 L 725.98184,-467.03116 L 770.98184,-467.03116 L 815.98184,-467.03116 L 815.98184,-458.03116 L 815.98184,-449.03116 L 798.98184,-449.03116 L 781.98184,-449.03116 L 781.98184,-391.53116 L 781.98184,-334.03116 L 770.98184,-334.03116 L 759.98184,-334.03116 L 759.98184,-391.53116 z M 978.98184,-397.53116 L 978.98184,-461.03116 L 1006.9818,-461.03116 L 1034.9818,-461.03116 L 1034.9818,-452.53116 L 1034.9818,-444.03116 L 1017.4818,-444.03116 L 999.98184,-444.03116 L 999.98184,-426.53116 L 999.98184,-409.03116 L 1016.9818,-409.03116 L 1033.9818,-409.03116 L 1033.9818,-401.03116 L 1033.9818,-393.03116 L 1016.9818,-393.03116 L 999.98184,-393.03116 L 999.98184,-372.03116 L 999.98184,-351.03116 L 1020.4818,-351.03116 L 1040.9818,-351.03116 L 1040.9818,-342.53116 L 1040.9818,-334.03116 L 1009.9818,-334.03116 L 978.98184,-334.03116 L 978.98184,-397.53116 z"
         style="fill:#707173;fill-opacity:1" />
      <path
         id="rect2529"
         d="M 137.57808,-466.55383 L 137.57808,-31.61633 L 440.92183,-31.61633 L 440.92183,-466.55383 L 137.57808,-466.55383 z M 181.57808,-422.55383 C 253.35933,-422.55383 325.14058,-422.55383 396.92183,-422.55383 C 396.92183,-306.908 396.92183,-191.26216 396.92183,-75.61633 C 325.14058,-75.61633 253.35933,-75.61633 181.57808,-75.61633 C 181.57808,-191.26216 181.57808,-306.908 181.57808,-422.55383 z"
         style="opacity:1;fill:#ffcc00;fill-opacity:1;stroke:none;stroke-width:0.99212599;stroke-linecap:butt;stroke-linejoin:miter;stroke-miterlimit:4;stroke-dasharray:none;stroke-dashoffset:0;stroke-opacity:1" />
    </g>
  </g>
</svg>
