<?xml version="1.0" encoding="UTF-8" standalone="no"?>
<!-- Created with Inkscape (http://www.inkscape.org/) -->
<svg
   xmlns:svg="http://www.w3.org/2000/svg"
   xmlns="http://www.w3.org/2000/svg"
   version="1.0"
   width="602.36218"
   height="190.20473"
   id="svg3873">
  <defs
     id="defs3875" />
  <g
     id="layer1">
    <g
       transform="matrix(3.543307e-5,0,0,3.543307e-5,-3.691406e-6,-7.791569e-3)"
       style="fill-rule:evenodd"
       id="Layer_x0020_1">
  
  <g
   id="_78837072">
   <path
   d="M 7229570,1839760 C 7208780,1858820 7185350,1852930 7177200,1826420 L 7021750,1288560 C 7013760,1261510 7030500,1245690 7060030,1252760 L 7641360,1397510 C 7669760,1404370 7676190,1426070 7655460,1445510 L 7229570,1839760 z M 6810910,1751380 C 6810910,1368140 7146310,1057900 7560050,1057900 C 7973150,1057900 8308000,1368140 8308000,1751380 C 8308000,2133860 7973150,2444150 7560050,2444150 C 7146310,2444150 6810910,2133860 6810910,1751380 z M 5723890,1229870 C 5886350,1093110 5998550,1046460 6163660,1046460 C 6420980,1046460 6535500,1175010 6535500,1467590 L 6535500,2159020 L 6682900,2159020 C 6712810,2159020 6721770,2167010 6721770,2194810 L 6721770,2369260 C 6721770,2396530 6712810,2405270 6682900,2405270 L 6219700,2405270 C 6175480,2405270 6169600,2399770 6169600,2358620 L 6169600,1541290 C 6169600,1385690 6122510,1319760 6013400,1319760 C 5927660,1319760 5859680,1347570 5765790,1429690 L 5765790,2159020 L 5913030,2159020 C 5942560,2159020 5951310,2164740 5951310,2194810 L 5951310,2369260 C 5951310,2399770 5942560,2405270 5913030,2405270 L 5251680,2405270 C 5219340,2405270 5212860,2399770 5212860,2369260 L 5212860,2194810 C 5212860,2167010 5222580,2159020 5251680,2159020 L 5399130,2159020 L 5399130,1563380 C 5399130,1462250 5393240,1418460 5372240,1338820 L 5234180,1338820 C 5201250,1338820 5192450,1334070 5192450,1303780 L 5192450,1128360 C 5192450,1098290 5201250,1093110 5234180,1093110 L 5632270,1093110 C 5679510,1093110 5691330,1109300 5721030,1215780 L 5723890,1229870 z M 9000020,1475800 L 9000020,2159020 L 9157140,2159020 C 9189690,2159020 9195040,2167010 9195040,2194810 L 9195040,2369260 C 9195040,2399770 9189690,2405270 9157140,2405270 L 8486880,2405270 C 8454480,2405270 8448220,2399770 8448220,2369260 L 8448220,2194810 C 8448220,2167010 8456970,2159020 8486880,2159020 L 8634490,2159020 L 8634490,1563380 C 8634490,1462250 8628180,1418460 8607820,1338820 L 8468580,1341680 C 8436560,1341680 8428030,1334070 8428030,1303780 L 8428030,1128360 C 8428030,1098290 8436560,1093110 8468580,1093110 L 8840960,1093110 C 8894090,1093110 8906070,1112380 8947220,1254270 L 8973890,1224140 C 9094830,1093110 9180350,1046460 9304540,1046460 C 9393140,1046460 9470070,1076370 9470070,1109300 C 9470070,1115240 9466670,1126090 9463430,1134090 L 9375210,1349890 C 9369490,1369110 9363220,1374620 9351400,1374620 C 9345890,1374620 9339410,1374620 9334070,1371600 C 9295410,1355610 9251030,1347570 9219010,1347570 C 9157140,1347570 9091810,1385690 9000020,1475800 z M 10369690,2096170 C 10296370,2164740 10233680,2189090 10125110,2189090 C 9950440,2189090 9888730,2074250 9888730,1754620 C 9888730,1418460 9953520,1316900 10160360,1316900 C 10239950,1316900 10292910,1327810 10369690,1363770 L 10369690,2096170 z M 10425840,2322830 C 10446250,2396530 10458080,2405270 10502460,2405270 L 10889310,2405270 C 10921270,2405270 10931210,2399770 10931210,2369260 L 10931210,2194810 C 10931210,2167010 10921270,2159020 10889310,2159020 L 10762430,2159020 C 10739210,2093470 10732890,2038990 10732890,1934620 L 10732890,535420 C 10732890,508370 10727390,500000 10694610,500000 L 10210090,500000 C 10181100,500000 10172130,508370 10172130,535420 L 10172130,710090 C 10172130,740540 10177860,746100 10210090,746100 L 10369690,746100 L 10369690,1123230 C 10266080,1065680 10198270,1046460 10077320,1046460 C 9906280,1046460 9797100,1093110 9693870,1208000 C 9573150,1341680 9525520,1511220 9525520,1800940 C 9525520,2028140 9575410,2189090 9682260,2314780 C 9764760,2413260 9856550,2451540 10015990,2451540 C 10165870,2451540 10284170,2407760 10420170,2306630 L 10425840,2322830 z M 11934810,1412740 C 11910790,1571580 11902200,1628920 11881470,1715960 L 11712690,2385670 C 11703940,2421690 11698430,2424330 11659720,2424330 L 11426580,2424330 C 11385060,2424330 11382630,2424330 11373290,2385670 L 11078610,1338820 L 10986820,1338820 C 10954420,1338820 10945300,1334070 10945300,1303780 L 10945300,1128360 C 10945300,1101530 10954420,1093110 10986820,1093110 L 11326590,1093110 C 11364490,1093110 11370590,1098290 11379560,1131220 L 11509080,1718820 C 11532520,1828750 11547740,1937490 11568150,2137090 L 11577060,2058050 C 11591750,1934620 11606810,1819950 11624140,1754620 L 11763170,1131220 C 11771760,1095970 11775000,1093110 11815920,1093110 L 12073460,1093110 C 12111370,1093110 12117470,1095970 12126210,1134090 L 12253260,1729890 C 12267730,1792730 12288680,1932360 12303150,2055190 L 12311950,2137090 C 12335540,1913300 12353630,1792730 12377280,1694040 L 12515550,1131220 C 12525050,1098290 12530560,1093110 12569270,1093110 L 12890580,1093110 C 12922970,1093110 12932310,1098290 12932310,1128360 L 12932310,1303780 C 12932310,1334070 12922970,1338820 12890580,1338820 L 12793610,1338820 L 12454000,2388700 C 12442010,2421690 12435910,2424330 12397630,2424330 L 12161850,2424330 C 12123190,2424330 12117470,2421690 12108290,2385670 L 11972500,1710830 C 11970010,1691980 11963540,1661860 11958030,1626280 C 11954950,1593290 11951930,1568340 11949440,1549280 L 11940100,1478450 L 11934810,1412740 z M 13597010,1289910 C 13741440,1289910 13797210,1371600 13803690,1593290 L 13354750,1593290 C 13381200,1374620 13445990,1289910 13597010,1289910 z M 14119490,1839760 C 14172620,1839760 14184280,1825670 14184280,1773670 C 14184280,1292710 13992290,1046460 13614770,1046460 C 13236830,1046460 12988840,1330830 12988840,1759960 C 12988840,2208150 13213020,2451540 13629410,2451540 C 13756290,2451540 13868480,2432540 13986940,2391560 C 14104430,2350630 14146160,2325690 14146160,2292700 C 14146160,2284710 14143140,2279580 14136820,2262630 L 14063290,2107180 C 14057240,2091200 14045410,2082460 14031110,2082460 C 14021980,2082460 14010370,2085320 13995310,2093470 C 13883330,2147950 13773780,2175380 13664820,2175380 C 13455500,2175380 13354750,2066260 13348860,1839760 L 14119490,1839760 z M 15037570,1311770 C 14975270,1303780 14954690,1300920 14925380,1300920 C 14804060,1300920 14739100,1347570 14739100,1434660 C 14739100,1508520 14771660,1533300 14931100,1590260 C 15175850,1678050 15235290,1707970 15299870,1778800 C 15358880,1844890 15391270,1929660 15391270,2022250 C 15391270,2276500 15193930,2451540 14901940,2451540 C 14756810,2451540 14582900,2413260 14435290,2350630 C 14400090,2336920 14394360,2325690 14394360,2295780 L 14394360,2006060 C 14394360,1978410 14400090,1970640 14432270,1970640 L 14629990,1970640 C 14662710,1970640 14668050,1976140 14668050,2017290 L 14668050,2153890 C 14775120,2183960 14807300,2189090 14872250,2189090 C 14983850,2189090 15049560,2140170 15049560,2052330 C 15049560,1976140 15014140,1948550 14824630,1882630 C 14615300,1809090 14553210,1778800 14494520,1715960 C 14438530,1656130 14405970,1571580 14405970,1478450 C 14405970,1227010 14615300,1046460 14916250,1046460 C 15131680,1046460 15311690,1104170 15311690,1167020 L 15311690,1442810 C 15311690,1473320 15303100,1481310 15273570,1481310 L 15075850,1481310 C 15043080,1481310 15037570,1473320 15037570,1442810 L 15037570,1311770 z M 15732400,1093110 L 15732400,757110 C 15732400,721150 15738120,716190 15779100,710090 L 16044960,675210 C 16048190,675210 16050680,675210 16053760,675210 C 16062500,675210 16065740,671970 16068770,671970 C 16089340,671970 16098140,685900 16098140,719050 L 16098140,1093110 L 16425550,1093110 C 16461180,1093110 16472950,1098290 16472950,1120160 C 16472950,1123230 16472950,1128360 16472950,1131220 C 16472950,1134090 16470090,1136950 16470090,1142240 L 16431810,1297900 C 16425550,1330830 16414100,1336560 16378300,1336560 L 16098140,1336560 L 16098140,2022250 C 16098140,2118250 16124970,2153890 16204610,2153890 C 16242510,2153890 16301740,2142820 16343420,2126240 L 16393370,2110260 C 16399630,2104320 16411450,2104320 16417180,2104320 C 16431810,2104320 16440770,2112530 16446120,2132130 L 16493520,2317480 L 16496760,2331360 C 16500000,2336920 16500000,2339560 16500000,2344690 C 16500000,2366830 16488010,2377850 16457940,2388700 C 16360970,2426820 16230900,2451540 16121730,2451540 C 15936430,2451540 15802910,2374820 15758690,2243570 C 15738120,2186230 15732400,2137090 15732400,2033270 L 15732400,1336560 L 15537540,1336560 C 15493370,1336560 15486730,1330830 15486730,1292710 L 15486730,1136950 C 15486730,1095970 15493370,1093110 15537540,1093110 L 15732400,1093110 z M 5594500,4565820 L 5777580,4565820 C 5801180,4565820 5810140,4577050 5810140,4595730 L 5810140,4699720 C 5810140,4718560 5801180,4729790 5777580,4729790 L 5213200,4729790 C 5192630,4729790 5181030,4718560 5181030,4699720 L 5181030,4595730 C 5181030,4577050 5192630,4565820 5213200,4565820 L 5379070,4565820 L 5379070,3901230 C 5379070,3734770 5372640,3690990 5346510,3617070 L 5192630,3617070 C 5168990,3617070 5156840,3608860 5156840,3586780 L 5156840,3486030 C 5156840,3464110 5168990,3453470 5192630,3453470 L 5452440,3453470 C 5502710,3453470 5543850,3521450 5564420,3638990 L 5597360,3603520 C 5733200,3461250 5806900,3417460 5907270,3417460 C 5945930,3417460 5989930,3425830 6031080,3442410 C 6046140,3447540 6051860,3453470 6051860,3461250 C 6051860,3464110 6049160,3472480 6046140,3480310 L 5975250,3625060 C 5971850,3633650 5969740,3635910 5960020,3635910 C 5960020,3635910 5954680,3635910 5951440,3633650 C 5898310,3619930 5883460,3617070 5865910,3617070 C 5801180,3617070 5733200,3666580 5594500,3819320 L 5594500,4565820 z M 6872970,4437420 C 6740210,4546380 6645340,4589790 6545190,4589790 C 6424410,4589790 6341750,4502970 6341750,4377220 C 6341750,4188470 6515440,4098030 6872970,4095710 L 6872970,4437420 z M 7091430,4297800 L 7091430,3797620 C 7091430,3543150 6946300,3423350 6648800,3423350 C 6525000,3423350 6415070,3442410 6302870,3486030 C 6229330,3510220 6199480,3530030 6199480,3549040 C 6199480,3551360 6199480,3559950 6202880,3568100 L 6243860,3674790 C 6246880,3682990 6255630,3687910 6265350,3687910 C 6270910,3687910 6276790,3685640 6285540,3682990 C 6412800,3627920 6509930,3603520 6616190,3603520 C 6801700,3603520 6872970,3668690 6872970,3841240 L 6872970,3928500 C 6368040,3937240 6119620,4090200 6119620,4393420 C 6119620,4614730 6265350,4756460 6492220,4756460 C 6648800,4756460 6775250,4704850 6905370,4589790 C 6937710,4691510 6967240,4729790 7014490,4729790 L 7259610,4729790 C 7283420,4729790 7295030,4718560 7295030,4699720 L 7295030,4595730 C 7295030,4577050 7283420,4565820 7259610,4565820 L 7123820,4565820 C 7094130,4483320 7091430,4442180 7091430,4297800 z M 8250630,4431320 C 8120570,4543900 8026460,4584880 7911240,4584880 C 7716010,4584880 7636580,4434190 7636580,4068120 C 7636580,3731750 7728370,3594990 7949140,3594990 C 8049680,3594990 8126670,3617070 8250630,3679920 L 8250630,4431320 z M 8250630,3502230 C 8126670,3442410 8032340,3417460 7925490,3417460 C 7600730,3417460 7403610,3668690 7403610,4078970 C 7403610,4511120 7574490,4765430 7867240,4765430 C 8008370,4765430 8111820,4726770 8309490,4595730 C 8330440,4696640 8354250,4729790 8398460,4729790 L 8651960,4729790 C 8675610,4729790 8684350,4721580 8684350,4699720 L 8684350,4595730 C 8684350,4577050 8675610,4565820 8651960,4565820 L 8504340,4565820 C 8475030,4492120 8468550,4445250 8468550,4311730 L 8468550,2854430 C 8468550,2829650 8463420,2827380 8436370,2824680 L 8055780,2824680 C 8035210,2824680 8023440,2835370 8023440,2854430 L 8023440,2958210 C 8023440,2977480 8035210,2988490 8055780,2988490 L 8250630,2988490 L 8250630,3502230 z M 9298240,4565820 L 9505090,4565820 C 9528520,4565820 9540130,4577050 9540130,4595730 L 9540130,4699720 C 9540130,4718560 9528520,4729790 9505090,4729790 L 8873110,4729790 C 8852160,4729790 8840170,4718560 8840170,4699720 L 8840170,4595730 C 8840170,4577050 8852160,4565820 8873110,4565820 L 9082440,4565820 L 9082440,3617070 L 8840170,3617070 C 8825700,3617070 8819600,3608860 8819600,3586780 L 8819600,3483170 C 8819600,3464110 8825700,3453470 8840170,3453470 L 9274430,3453470 C 9291980,3453470 9298240,3464110 9298240,3483170 L 9298240,4565820 z M 9348350,2988490 C 9348350,3075910 9268710,3149820 9174060,3149820 C 9079410,3149820 8999770,3075910 8999770,2988490 C 8999770,2898220 9079410,2827380 9174060,2827380 C 9268710,2827380 9348350,2901300 9348350,2988490 z M 10248120,4598370 C 10017850,4598370 9905490,4426360 9905490,4070760 C 9905490,3750590 10024110,3584130 10248120,3584130 C 10466200,3584130 10584490,3759550 10584490,4078970 L 10584490,4103920 C 10575910,4442180 10469440,4598370 10248120,4598370 z M 10257090,3417460 C 9890590,3417460 9672730,3668690 9672730,4098030 C 9672730,4518950 9876500,4765430 10227930,4765430 C 10596480,4765430 10817470,4513990 10817470,4084860 C 10817470,3660700 10611380,3417460 10257090,3417460 z "
   style="fill:black;fill-opacity:1"
   id="_82834504" />

   <path
   d="M 2628530,1452530 C 1767190,1452530 1069130,2099410 1069130,2897460 C 1069130,3605250 1618660,4194030 2344310,4317990 L 2344310,2897090 L 2913660,2897090 L 2913660,4317990 C 3638990,4194030 4189060,3605250 4189060,2897460 C 4189060,2099410 3490400,1452530 2628530,1452530 L 2628530,1452530 z M 2628530,926270 C 3804850,926270 4757430,1808180 4757430,2897460 C 4757430,3986210 3804850,4868440 2628530,4868440 C 1452740,4868440 500000,3986210 500000,2897460 C 500000,1808180 1452740,926270 2628530,926270 z "
   style="fill:#00afdd;fill-opacity:1"
   id="_82864576" />

  </g>

 </g>
  </g>
</svg>
