<?xml version="1.0" encoding="UTF-8" standalone="no"?>
<!-- Created with Inkscape (http://www.inkscape.org/) -->

<svg
   xmlns:dc="http://purl.org/dc/elements/1.1/"
   xmlns:cc="http://creativecommons.org/ns#"
   xmlns:rdf="http://www.w3.org/1999/02/22-rdf-syntax-ns#"
   xmlns:svg="http://www.w3.org/2000/svg"
   xmlns="http://www.w3.org/2000/svg"
   xmlns:xlink="http://www.w3.org/1999/xlink"
   xmlns:sodipodi="http://sodipodi.sourceforge.net/DTD/sodipodi-0.dtd"
   xmlns:inkscape="http://www.inkscape.org/namespaces/inkscape"
   version="1.1"
   width="254.58083"
   height="34.106564"
   viewBox="0 -23.5 254.58083 34.106564"
   id="svg2"
   inkscape:version="0.91pre2 r13516"
   sodipodi:docname="sky cinema+1.svg">
  <sodipodi:namedview
     pagecolor="#ffffff"
     bordercolor="#666666"
     borderopacity="1"
     objecttolerance="10"
     gridtolerance="10"
     guidetolerance="10"
     inkscape:pageopacity="0"
     inkscape:pageshadow="2"
     inkscape:window-width="1920"
     inkscape:window-height="1017"
     id="namedview45"
     showgrid="false"
     inkscape:zoom="6.9950434"
     inkscape:cx="58.195192"
     inkscape:cy="17.084323"
     inkscape:window-x="-8"
     inkscape:window-y="-8"
     inkscape:window-maximized="1"
     inkscape:current-layer="svg2"
     fit-margin-top="0"
     fit-margin-left="0"
     fit-margin-right="0"
     fit-margin-bottom="0"
     borderlayer="true" />
  <metadata
     id="metadata8">
    <rdf:RDF>
      <cc:Work
         rdf:about="">
        <dc:format>image/svg+xml</dc:format>
        <dc:type
           rdf:resource="http://purl.org/dc/dcmitype/StillImage" />
        <dc:title></dc:title>
      </cc:Work>
    </rdf:RDF>
  </metadata>
  <defs
     id="defs6">
    <linearGradient
       id="linearGradient3962">
      <stop
         id="stop3964"
         style="stop-color:#505050;stop-opacity:1"
         offset="0" />
      <stop
         id="stop3966"
         style="stop-color:#808080;stop-opacity:1"
         offset="0.11204819" />
      <stop
         id="stop3968"
         style="stop-color:#808080;stop-opacity:1"
         offset="0.94417667" />
      <stop
         id="stop3970"
         style="stop-color:#b4b4b4;stop-opacity:1"
         offset="1" />
    </linearGradient>
    <linearGradient
       id="linearGradient3946">
      <stop
         id="stop3948"
         style="stop-color:#a0a0a0;stop-opacity:1"
         offset="0" />
      <stop
         id="stop3958"
         style="stop-color:#c8c8c8;stop-opacity:1"
         offset="0.11235955" />
      <stop
         id="stop3956"
         style="stop-color:#c8c8c8;stop-opacity:1"
         offset="0.94382024" />
      <stop
         id="stop3950"
         style="stop-color:#f0f0f0;stop-opacity:1"
         offset="1" />
    </linearGradient>
    <linearGradient
       id="linearGradient3898">
      <stop
         id="stop3900"
         style="stop-color:#0d1329;stop-opacity:1"
         offset="0" />
      <stop
         id="stop3908"
         style="stop-color:#202f66;stop-opacity:1"
         offset="0.11200321" />
      <stop
         id="stop3910"
         style="stop-color:#202f66;stop-opacity:1"
         offset="0.94379765" />
      <stop
         id="stop3902"
         style="stop-color:#334ba3;stop-opacity:1"
         offset="1" />
    </linearGradient>
    <linearGradient
       id="linearGradient3890">
      <stop
         id="stop3892"
         style="stop-color:#ffffff;stop-opacity:1"
         offset="0" />
      <stop
         id="stop3894"
         style="stop-color:#ffffff;stop-opacity:0"
         offset="1" />
    </linearGradient>
    <linearGradient
       x1="695.35712"
       y1="-46.142857"
       x2="695.35712"
       y2="-401.85715"
       id="linearGradient4145"
       xlink:href="#linearGradient3962"
       gradientUnits="userSpaceOnUse"
       gradientTransform="matrix(0.12300903,0,0,0.1063841,-12.879932,18.205893)" />
    <linearGradient
       x1="1189.4546"
       y1="-46"
       x2="1189.4546"
       y2="-402"
       id="linearGradient4149"
       xlink:href="#linearGradient3946"
       gradientUnits="userSpaceOnUse"
       gradientTransform="matrix(0.10472248,0,0,0.1063841,-0.44034557,18.205893)" />
    <linearGradient
       x1="13.928571"
       y1="-46.142857"
       x2="13.928571"
       y2="-402"
       id="linearGradient4153"
       xlink:href="#linearGradient3898"
       gradientUnits="userSpaceOnUse"
       gradientTransform="matrix(0.1063841,0,0,0.1063841,-0.532644,25.331876)" />
    <radialGradient
       cx="49.82143"
       cy="43.910713"
       r="19.285715"
       fx="49.82143"
       fy="43.910713"
       id="radialGradient4168"
       xlink:href="#linearGradient3890"
       gradientUnits="userSpaceOnUse"
       gradientTransform="matrix(0.06663115,-0.05459939,0.01744147,0.02128495,-0.34726616,-13.461438)" />
  </defs>
  <rect
     width="180.19746"
     height="37.872742"
     x="72.379189"
     y="-24.560518"
     id="rect3871"
     style="fill:url(#linearGradient4149)" />
  <path
     d="m 70.981471,-24.560511 c 0,0 -0.369026,0.934312 -0.369026,2.500028 l 0,32.78292 c 0,1.31912 0.369026,2.589795 0.369026,2.589795 l 3.820968,0 c 0,0 -0.369026,-1.291866 -0.369026,-2.589795 l 0,-32.753001 c 0,-1.597973 0.369026,-2.529947 0.369026,-2.529947 z m 179.983119,0 c 0,0 0.36902,0.931974 0.36902,2.529947 l 0,32.753001 c 0,1.297929 -0.36902,2.589795 -0.36902,2.589795 l 2.54267,-0.571833 c 0,0 1.1553,-0.698842 1.1553,-2.017962 l 0,-32.78292 c 0,-1.565716 -1.08382,-1.928195 -1.08382,-1.928195 z"
     id="rect3883"
     style="fill:url(#linearGradient4145)"
     inkscape:connector-curvature="0"
     sodipodi:nodetypes="cssccsscccssccsscc" />
  <g
     id="g3056"
     transform="translate(-1.0631191,-7.1259826)">
    <path
       style="fill:url(#linearGradient4153)"
       id="rect2987"
       d="m 6.4355145,-17.434528 c -2.9757816,0 -5.372397,2.396609 -5.372397,5.372388 l 0,27.127954 c 0,2.975779 2.3966154,5.372401 5.372397,5.372401 l 67.0053605,0 0,-37.872743 z"
       inkscape:connector-curvature="0" />
    <path
       style="fill:url(#radialGradient4168)"
       id="path3888"
       d="m 5.0232896,-16.300016 a 0.5307094,1.6613512 50.667864 1 1 -2.5700586,2.105979 0.5307094,1.6613512 50.667864 1 1 2.5700586,-2.105979 z"
       inkscape:connector-curvature="0" />
    <path
       style="fill:#ffffff;fill-opacity:1;fill-rule:nonzero;stroke:none"
       id="path5649"
       d="m 30.130804,-14.57467 c -1.056156,0 -2.021613,0.525723 -2.021613,1.818326 l 0,22.776616 c 0,0.506919 0.548513,0.935362 0.973301,0.935362 l 2.651608,0 c 1.060297,0 1.937705,-0.740826 1.937705,-2.034267 l 0,-22.773452 c 0,-0.509408 -0.465515,-0.722585 -0.887814,-0.722585 z m -13.82092,7.622594 c -4.039613,0 -6.1602,2.482788 -6.1602,5.466243 0,2.651594 1.632848,4.477171 4.892108,5.2060694 l 5.203597,1.1637417 c 1.058148,0.2366439 1.272694,0.3231349 1.272694,0.8624229 0,0.41399 -0.214977,0.687728 -1.169917,0.687728 l -8.068661,0 c -1.29344,0 -1.813589,0.8066 -1.813589,1.861097 l 0,1.685514 c 0,0.422291 0.209341,0.974894 0.716263,0.974894 l 8.851336,0 c 4.780496,0 6.923211,-2.556839 6.923211,-5.326242 0,-2.864784 -1.86847,-4.690474 -5.106458,-5.416371 l -5.205179,-1.166893 c -1.057659,-0.237106 -1.271112,-0.321484 -1.271112,-0.862422 0,-0.412302 0.21415,-0.62758 1.169918,-0.62758 l 7.74294,0 c 1.290122,0 2.024776,-0.865836 2.024776,-1.922833 l 0,-1.680775 c 0,-0.423129 -0.42294,-0.904594 -0.929032,-0.904594 z m 26.006919,-0.07026 c -0.797305,0 -1.366458,0.424054 -1.840646,0.935362 l -6.754716,7.252775 6.059007,8.829194 c 0.349753,0.50967 0.784794,0.960667 1.31412,0.960667 l 3.609786,0 c 0.540109,0 0.939313,-0.42853 0.939313,-0.88319 0,-0.278764 -0.140185,-0.456647 -0.314647,-0.716258 l -5.235119,-7.790276 3.925883,-4.265869 7.804399,11.706805 -3.624776,7.368112 c -0.09707,0.219028 -0.210294,0.43038 -0.210294,0.641944 0,0.430593 0.528483,0.766081 0.959076,0.766081 l 3.198688,0 c 0.652111,0 0.933365,-0.352416 1.1748,-0.876751 L 63.865029,-5.524085 c 0.103582,-0.220366 0.211872,-0.42948 0.211872,-0.643532 0,-0.429768 -0.454947,-0.854722 -0.8872,-0.854722 l -3.223989,0 c -0.645483,0 -0.99643,0.268838 -1.230212,0.794423 L 54.243495,3.8709519 47.898297,-6.123559 c -0.391602,-0.619753 -0.804767,-0.898805 -1.7456,-0.898805 z"
       inkscape:connector-curvature="0" />
  </g>
  <g
     id="g3038"
     transform="translate(-1.0631191,-7.1259826)">
    <path
       d="m 145.30235,-8.3936916 c -2.27328,0 -4.09967,1.833037 -4.09967,4.1063132 l 0,11.5813978 c 0,2.2732763 1.82639,4.0996686 4.09967,4.0996686 l 12.95017,0 0,-3.5880406 -12.89037,0 c -0.25258,0 -0.45847,-0.2058865 -0.45847,-0.4584718 l 0,-4.053157 13.34884,0 0,-3.58804066 -13.34884,0 0,-4.05315704 c 0,-0.2525853 0.20589,-0.4518273 0.45847,-0.4518273 l 12.89037,0 0,-3.5946852 -12.95017,0 z"
       id="rect3798"
       style="fill:#202f66"
       inkscape:connector-curvature="0" />
    <path
       d="m 198.16498,-8.3918842 c -1.12485,0 -2.61363,0.7818399 -3.28128,2.4800792 l -6.80526,17.307364 3.95948,0 1.72542,-4.3883447 10.45556,0 1.72542,4.3883447 3.95949,0 -6.80194,-17.3040386 c -0.65748,-1.6723522 -2.04824,-2.4834046 -3.28461,-2.4834046 l -1.65228,0 z m 0.379,3.6503056 c 0.0225,-0.00106 0.048,0 0.0765,0 l 0.74801,0 c 0.22259,0 0.23519,0.014182 0.35905,0.3291259 l 3.09179,7.8591251 -7.65633,0 3.10176,-7.8923711 c 0.0969,-0.2466361 0.12186,-0.289346 0.27926,-0.2958799 z"
       id="rect3010"
       style="fill:#202f66"
       inkscape:connector-curvature="0" />
    <rect
       width="3.5904634"
       height="19.787443"
       ry="0"
       x="112.17328"
       y="-8.391881"
       id="rect3807"
       style="fill:#202f66" />
    <path
       d="m 98.156496,-8.3918842 c -3.7888,0 -6.838518,3.049709 -6.838518,6.8385035 l 0,6.1104364 c 0,3.7887944 3.049718,6.8385033 6.838518,6.8385033 l 10.714854,0 0,-3.6237082 -10.804624,0 c -1.730169,0 -3.125029,-1.3915432 -3.125029,-3.1217081 l 0,-6.2966084 c 0,-1.730167 1.39486,-3.1217101 3.125029,-3.1217101 l 10.804624,0 0,-3.6237084 -10.714854,0 z"
       id="rect3809"
       style="fill:#202f66"
       inkscape:connector-curvature="0" />
    <path
       d="m 120.9141,-8.3918842 c -1.09469,0 -1.89163,0.7650127 -1.89163,1.7021473 l 0,18.0852959 3.61705,0 0,-13.6238146 12.86915,13.1716816 c 0.32445,0.332164 0.56203,0.452133 1.1137,0.452133 1.0947,0 1.89165,-0.765019 1.89165,-1.702145 l 0,-18.0852982 -3.61706,0 0,13.6238147 -12.86915,-13.1716812 c -0.32446,-0.3321558 -0.56202,-0.4521335 -1.11371,-0.4521335 z"
       id="path3826"
       style="fill:#202f66"
       inkscape:connector-curvature="0" />
    <path
       d="m 164.81066,-8.3936916 c -1.41779,0.00495 -2.31894,0.8545512 -2.31894,2.35216 l 0,17.4352196 3.59469,0 0,-12.9103017 5.34884,8.2790716 c 1.19157,1.8443485 3.41972,1.8443485 4.61129,0 l 5.34884,-8.2790716 0,12.9103017 3.59469,0 0,-17.4352196 c 0,-1.4976088 -0.90115,-2.3472058 -2.31894,-2.35216 -1.06068,-0.0037 -1.65268,0.3271273 -2.1196,1.0498342 L 173.7409,3.1943508 166.93026,-7.3438574 c -0.46692,-0.7227069 -1.05891,-1.0535402 -2.1196,-1.0498342 z"
       id="rect4522"
       style="fill:#202f66"
       inkscape:connector-curvature="0" />
  </g>
  <path
     d="m 3.1585758,-23.500001 c -1.031525,0 -2.8924871,1.533686 -3.1527058,4.032626 -4.85e-5,0.0011 4.8e-5,0.0025 0,0.0038 C 0.00189,-19.372805 0,-19.279516 0,-19.187636 L 0,7.9403184 c 0,0.971293 0.2244127,1.8817 0.6193863,2.6662456 -0.03651,-0.246407 -0.051704,-0.507118 -0.0411,-0.7813066 0.0618224,-1.59866 1.1137861,-2.454582 4.7333012,-4.418688 5.0880905,-2.761014 20.0795105,-5.650264 24.5446135,-6.517026 28.772893,-5.585377 36.861542,-7.779698 65.610479,-9.8604734 20.00288,-1.447757 35.0779,-2.276536 55.08958,-2.232016 18.07427,0.04026 50.6368,0.410677 80.48946,4.7119654 10.37197,1.668511 15.47217,3.58663 19.79978,6.72504 3.26968,2.371191 3.16231,7.847624 3.33022,10.710209 0.0254,0.433131 0.002,0.869124 -0.0499,1.2965536 0.29051,-0.6966416 0.45501,-1.4763246 0.45501,-2.3005526 l 0,-27.1279544 c 0,-0.06089 -0.002,-0.122398 -0.003,-0.182847 -0.37122,-1.366204 -1.58113,-3.856418 -3.69872,-3.856418 -2.58383,0 -1.48529,1.007325 -21.16187,1.007325 l -206.116066,0 c -16.9907543,-0.008 -17.516739,-1.280376 -20.44229,-1.280376 z"
     id="rect3007"
     style="opacity:0.4;fill:#ffffff"
     inkscape:connector-curvature="0" />
  <path
     d="m 4.627513,-25.625984 c -3.153289,0 -5.6906377,2.877461 -5.6906377,6.445175 l 0,27.1162894 c 0,3.5677146 2.5373487,6.4385366 5.6906377,6.4385366 l 245.325807,0 c 3.15329,0 5.69063,-2.870822 5.69063,-6.4385366 l 0,-27.1162894 c 0,-3.567714 -2.53734,-6.445175 -5.69063,-6.445175 z m 0.017618,1.1396 245.290549,0 c 2.62977,0 4.70101,2.339785 4.70101,5.312226 0,9.034333 0,18.0686654 0,27.1030004 0,2.9724276 -2.07124,5.3055746 -4.70101,5.3055746 l -245.290549,0 c -2.6297596,0 -4.7010268,-2.333147 -4.7010268,-5.3055746 0,-9.034335 0,-18.0686674 0,-27.1030004 0,-2.972441 2.0712672,-5.312226 4.7010268,-5.312226 z"
     id="rect4116"
     style="fill:#333333"
     inkscape:connector-curvature="0" />
  <path
     id="path3024"
     style="fill:#202f66"
     d="m 215.18842,-3.7198277 c 0,-0.5659081 0.11608,-0.9576946 0.34826,-1.1753605 0.23942,-0.2249076 0.52963,-0.3373648 0.87063,-0.337372 l 2.94929,0 0,-3.1016456 c -10e-6,-0.3409891 0.10157,-0.6275736 0.30472,-0.8597544 0.2104,-0.2321587 0.59856,-0.3482435 1.16448,-0.3482549 0.25393,1.14e-5 0.49335,0.014522 0.71827,0.043532 0.23217,0.021777 0.43169,0.047171 0.59857,0.076181 l 0,4.1899423 4.07023,0 c 0.029,0.1451132 0.058,0.3192405 0.0871,0.5223825 0.0363,0.1958998 0.0544,0.4280695 0.0544,0.6965099 -2e-5,0.5659196 -0.11973,0.9613337 -0.35914,1.1862434 -0.23944,0.2249191 -0.52965,0.3373763 -0.87064,0.337372 l -2.98193,0 0,3.2540072 c -1e-5,0.3410004 -0.10521,0.6275849 -0.31561,0.8597544 -0.21041,0.2249146 -0.59857,0.3373719 -1.16448,0.3373719 -0.25394,0 -0.49699,-0.010883 -0.72916,-0.032649 -0.22492,-0.021766 -0.41718,-0.047159 -0.57679,-0.076181 l 0,-4.3423039 -4.03758,0 c -0.029,-0.1451017 -0.058,-0.319229 -0.0871,-0.5223825 -0.029,-0.2031436 -0.0435,-0.438941 -0.0435,-0.7073928"
     inkscape:connector-curvature="0" />
  <path
     style="fill:#202f66"
     id="path22260"
     d="m 236.19069,4.2700044 0,-15.2993824 -6.38844,2.6189291 0,-4.0085731 7.50642,-2.979705 c 0.17302,-0.09353 0.39927,-0.120257 0.62553,-0.120257 0.37266,0 0.77194,0.120257 1.09136,0.320687 l -0.0266,-0.04007 c 0.51906,0.387495 0.79855,0.868522 0.79855,1.496537 l 0,18.0118484 -3.6068,0"
     inkscape:connector-curvature="0" />
</svg>
