<?xml version="1.0" encoding="UTF-8" standalone="no"?>
<!-- Created with Inkscape (http://www.inkscape.org/) -->
<svg
   xmlns:svg="http://www.w3.org/2000/svg"
   xmlns="http://www.w3.org/2000/svg"
   version="1.0"
   width="554.81195"
   height="147.91196"
   id="svg2">
  <defs
     id="defs4" />
  <g
     id="g3192">
    <path
       d="M 219.85845,138.2982 L 286.09705,138.2982 L 286.09705,147.91196 L 219.85845,147.91196 L 219.85845,138.2982 z"
       id="path2492"
       style="fill:#fa7d19;fill-opacity:1;fill-rule:nonzero;stroke:none" />
    <g
       transform="matrix(3.0481156,0,0,-3.0481156,0.192032,42.6657)"
       id="g2494"
       style="fill:#fa7d19;fill-opacity:1">
      <path
         d="M 0,0 L 23.52,0 L 23.52,-7.032 L 10.612,-24.097 L 23.904,-24.097 L 23.904,-31.129 L -0.063,-31.129 L -0.063,-24.097 L 12.782,-7.032 L 0,-7.032 L 0,0 z"
         id="path2496"
         style="fill:#fa7d19;fill-opacity:1;fill-rule:nonzero;stroke:none" />
    </g>
    <g
       transform="matrix(3.0481156,0,0,-3.0481156,77.718716,75.7914)"
       id="g2506"
       style="fill:#fa7d19;fill-opacity:1">
      <path
         d="M 0,0 C 0,7.352 3.195,11.507 10.482,11.507 C 13.043,11.507 16.3,11.122 18.408,10.612 L 18.408,23.587 L 27.615,24.865 L 27.615,-20.261 L 20.391,-20.261 L 19.433,-17.768 C 17.258,-19.173 13.23,-20.902 9.847,-20.902 C 3.518,-20.902 0,-17 0,-9.394 L 0,0 z M 18.408,2.748 C 16.811,3.133 14.448,3.516 12.527,3.516 C 10.102,3.516 9.207,2.046 9.207,0 L 9.207,-9.394 C 9.207,-11.57 10.102,-12.91 12.527,-12.91 C 14.641,-12.91 17.066,-11.632 18.408,-10.482 L 18.408,2.748 z"
         id="path2508"
         style="fill:#fa7d19;fill-opacity:1;fill-rule:nonzero;stroke:none" />
    </g>
    <g
       transform="matrix(3.0481156,0,0,-3.0481156,233.57346,24.74217)"
       id="g2510"
       style="fill:#fa7d19;fill-opacity:1">
      <path
         d="M 0,0 C -1.28,0.256 -3.003,0.448 -4.09,0.448 C -7.031,0.448 -7.223,-0.832 -7.223,-2.878 L -7.223,-6.521 L 0.125,-6.521 L -0.514,-14.062 L -7.223,-14.062 L -7.223,-37.009 L -16.43,-37.009 L -16.43,-14.062 L -21.156,-14.062 L -21.156,-6.521 L -16.43,-6.521 L -16.43,-1.855 C -16.43,4.539 -13.422,8.117 -5.881,8.117 C -3.263,8.117 -1.343,7.735 1.151,7.222 L 0,0 z"
         id="path2512"
         style="fill:#fa7d19;fill-opacity:1;fill-rule:nonzero;stroke:none" />
    </g>
    <g
       transform="matrix(3.0481156,0,0,-3.0481156,348.34413,137.5468)"
       id="g2514"
       style="fill:#000000;fill-opacity:1">
      <path
         d="M 0,0 L 0,20.581 C 0,21.989 -0.64,22.819 -2.238,22.819 C -3.897,22.819 -6.969,21.668 -8.947,20.581 L -8.947,0 L -18.154,0 L -18.154,31.128 L -11.315,31.128 L -10.352,28.762 C -6.521,30.615 -1.535,31.768 2.045,31.768 C 7.354,31.768 9.207,27.805 9.207,21.796 L 9.207,0 L 0,0 z"
         id="path2516"
         style="fill:#000000;fill-opacity:1;fill-rule:nonzero;stroke:none" />
    </g>
    <g
       transform="matrix(3.0481156,0,0,-3.0481156,411.8407,99.94223)"
       id="g2518"
       style="fill:#000000;fill-opacity:1">
      <path
         d="M 0,0 L 0,-0.895 C 0,-4.476 1.405,-5.434 5.621,-5.434 C 8.499,-5.434 12.335,-4.924 15.083,-4.091 L 16.426,-10.995 C 13.616,-12.017 9.077,-12.978 4.732,-12.978 C -5.37,-12.978 -9.206,-7.991 -9.206,-0.32 L -9.206,6.966 C -9.206,13.677 -6.204,19.431 4.154,19.431 C 14.51,19.431 16.744,13.295 16.744,6.519 L 16.744,0 L 0,0 z M 8.052,8.244 C 8.052,10.417 7.411,12.207 4.216,12.207 C 1.021,12.207 0,10.417 0,8.244 L 0,6.9 L 8.052,6.9 L 8.052,8.244 z"
         id="path2520"
         style="fill:#000000;fill-opacity:1;fill-rule:nonzero;stroke:none" />
    </g>
    <g
       transform="matrix(3.0481156,0,0,-3.0481156,469.0837,101.11729)"
       id="g2522"
       style="fill:#000000;fill-opacity:1">
      <path
         d="M 0,0 L 0,7.224 C 0,13.615 3.003,19.817 14.063,19.817 C 25.122,19.817 28.125,13.615 28.125,7.224 L 28.125,0 C 28.125,-6.391 25.122,-12.593 14.063,-12.593 C 3.003,-12.593 0,-6.391 0,0 M 18.918,-0.254 L 18.918,7.479 C 18.918,10.42 17.388,12.082 14.063,12.082 C 10.737,12.082 9.207,10.42 9.207,7.479 L 9.207,-0.254 C 9.207,-3.196 10.737,-4.858 14.063,-4.858 C 17.388,-4.858 18.918,-3.196 18.918,-0.254"
         id="path2524"
         style="fill:#000000;fill-opacity:1;fill-rule:nonzero;stroke:none" />
    </g>
  </g>
</svg>
