<?xml version="1.0" encoding="UTF-8" standalone="no"?>
<!-- Created with Inkscape (http://www.inkscape.org/) -->
<svg
   xmlns:svg="http://www.w3.org/2000/svg"
   xmlns="http://www.w3.org/2000/svg"
   version="1.0"
   width="641.02179"
   height="172.8765"
   id="svg2">
  <defs
     id="defs4" />
  <g
     transform="translate(183.36805,-175.0683)"
     id="layer1">
    <g
       id="g3261">
      <path
         d="M -183.36805,300.29789 C -104.41914,227.9395 42.569823,179.24761 211.00731,179.24761 C 230.79061,179.24761 250.20422,179.92691 269.43322,181.23311 C 239.11076,177.21016 207.3095,175.0683 174.58344,175.0683 C 14.282267,175.0683 -123.46228,226.58108 -183.36627,300.29789 L -183.36805,300.29789 z"
         id="path2410"
         style="fill:#f5b02f;fill-opacity:1;stroke:none;stroke-opacity:1" />
      <path
         d="M 63.277911,343.76526 C 43.494341,343.76526 23.89588,343.08595 4.8519771,341.83218 C 35.174186,345.8027 66.975729,347.9448 99.701532,347.9448 C 260.00295,347.9448 397.74722,296.43178 457.65376,222.76719 C 378.70485,295.12558 231.5308,343.76526 63.278419,343.76526 L 63.277911,343.76526 z"
         id="path2408"
         style="fill:#f5b02f;fill-opacity:1;stroke:none;stroke-opacity:1" />
      <path
         d="M 247.43016,241.15723 L 240.95904,290.73723 L 264.07046,290.73723 C 272.02092,290.73723 278.49204,288.43826 283.66892,283.84088 C 288.84607,279.08664 291.43452,272.81746 291.43452,264.87617 C 291.43452,256.72611 288.84607,250.56127 283.66892,246.53832 C 279.23171,242.9859 272.57546,241.15723 264.25531,241.15723 L 247.43016,241.15723 L 247.43016,241.15723 z M 263.3308,255.7858 L 264.99498,255.7858 C 267.58343,255.7858 269.61731,256.72611 271.28125,258.50232 C 272.76035,260.33099 273.68486,262.52526 273.68486,265.08519 C 273.68486,268.69007 272.39061,271.56345 269.8022,273.6009 C 267.39859,275.37739 264.44016,276.3177 260.74234,276.3177 L 263.3308,255.7858 z"
         id="path2406"
         style="fill:#f5b02f;fill-opacity:1;stroke:none;stroke-opacity:1" />
      <path
         d="M 224.13389,241.15723 L 222.09998,258.13667 L 211.19141,258.13667 L 213.22528,241.15723 L 194.9208,241.15723 L 188.81937,290.73723 L 207.12386,290.73723 L 209.15749,272.81746 L 220.25095,272.81746 L 218.03246,290.73723 L 236.33671,290.73723 L 242.43813,241.15723 L 224.13389,241.15723 L 224.13389,241.15723 z"
         id="path2402"
         style="fill:#f5b02f;fill-opacity:1;stroke:none;stroke-opacity:1" />
      <path
         d="M 135.75543,241.15723 L 129.65404,290.73723 L 162.37983,290.73723 L 164.22889,277.25796 L 149.06765,277.25796 L 149.62247,271.77251 L 163.11949,271.77251 L 164.59859,259.49505 L 151.10152,259.49505 L 152.02604,254.00931 L 166.63246,254.00931 L 168.29641,241.15723 L 135.75543,241.15723 L 135.75543,241.15723 z"
         id="path2400"
         style="fill:#f5b02f;fill-opacity:1;stroke:none;stroke-opacity:1" />
      <path
         d="M 111.7195,241.15723 L 105.43324,250.77032 L 100.44119,241.15723 L 81.027335,241.15723 L 93.969822,264.09246 L 74.18651,290.73723 L 94.524638,290.73723 L 102.84479,278.45979 L 109.68561,290.73723 L 128.35979,290.73723 L 113.93824,264.98054 L 132.05761,241.15723 L 111.7195,241.15723 L 111.7195,241.15723 z"
         id="path2398"
         style="fill:#f5b02f;fill-opacity:1;stroke:none;stroke-opacity:1" />
      <path
         d="M 61.059168,241.15723 L 54.772647,290.73723 L 73.077141,290.73723 L 79.178553,241.15723 L 61.059168,241.15723 z"
         id="path2396"
         style="fill:#f5b02f;fill-opacity:1;stroke:none;stroke-opacity:1" />
      <path
         d="M 37.577784,241.15723 L 34.804484,266.75703 C 31.476368,257.77106 27.593698,249.25507 22.971362,241.15723 L 5.0368323,241.15723 L -1.2494349,290.73723 L 16.315138,290.73723 L 19.088693,264.92836 L 31.476368,290.73723 L 49.22605,290.73723 L 55.327462,241.15723 L 37.577784,241.15723 z"
         id="path2394"
         style="fill:#f5b02f;fill-opacity:1;stroke:none;stroke-opacity:1" />
      <path
         d="M -33.42068,241.15723 L -56.347253,290.73723 L -37.118498,290.73723 L -34.530049,284.20652 L -22.327225,284.20652 L -21.772414,290.73723 L -4.0229891,290.73723 L -11.048665,241.15723 L -33.42068,241.15723 z M -26.579601,262.05501 C -25.655337,259.54727 -24.91567,257.40518 -24.361113,255.57675 L -23.251743,272.97402 L -30.277673,272.97402 C -29.907713,271.45905 -28.613489,267.80198 -26.579601,262.05501 L -26.579601,262.05501 z"
         id="path2392"
         style="fill:#f5b02f;fill-opacity:1;stroke:none;stroke-opacity:1" />
    </g>
  </g>
</svg>
