<?xml version="1.0" encoding="UTF-8" standalone="no"?>
<!-- Created with Inkscape (http://www.inkscape.org/) -->

<svg
   xmlns:dc="http://purl.org/dc/elements/1.1/"
   xmlns:cc="http://creativecommons.org/ns#"
   xmlns:rdf="http://www.w3.org/1999/02/22-rdf-syntax-ns#"
   xmlns:svg="http://www.w3.org/2000/svg"
   xmlns="http://www.w3.org/2000/svg"
   xmlns:xlink="http://www.w3.org/1999/xlink"
   xmlns:sodipodi="http://sodipodi.sourceforge.net/DTD/sodipodi-0.dtd"
   xmlns:inkscape="http://www.inkscape.org/namespaces/inkscape"
   width="1504.5554"
   height="377.8804"
   id="svg2"
   sodipodi:version="0.32"
   inkscape:version="0.91pre2 r13516"
   version="1.0"
   sodipodi:docname="atv hd.svg"
   inkscape:output_extension="org.inkscape.output.svg.inkscape">
  <defs
     id="defs4">
    <linearGradient
       inkscape:collect="always"
       id="linearGradient3775">
      <stop
         style="stop-color:#c9c9c9;stop-opacity:1"
         offset="0"
         id="stop3777" />
      <stop
         style="stop-color:#ffffff;stop-opacity:1"
         offset="1"
         id="stop3779" />
    </linearGradient>
    <linearGradient
       id="linearGradient3765">
      <stop
         style="stop-color:#000000;stop-opacity:1;"
         offset="0"
         id="stop3767" />
      <stop
         style="stop-color:#dbdbdb;stop-opacity:1"
         offset="1"
         id="stop3769" />
    </linearGradient>
    <inkscape:perspective
       sodipodi:type="inkscape:persp3d"
       inkscape:vp_x="0 : 192.5 : 1"
       inkscape:vp_y="0 : 1000 : 0"
       inkscape:vp_z="1024 : 192.5 : 1"
       inkscape:persp3d-origin="512 : 128.33333 : 1"
       id="perspective2876" />
    <inkscape:perspective
       id="perspective2964"
       inkscape:persp3d-origin="0.5 : 0.33333333 : 1"
       inkscape:vp_z="1 : 0.5 : 1"
       inkscape:vp_y="0 : 1000 : 0"
       inkscape:vp_x="0 : 0.5 : 1"
       sodipodi:type="inkscape:persp3d" />
    <linearGradient
       inkscape:collect="always"
       xlink:href="#linearGradient3765"
       id="linearGradient3771"
       x1="1445"
       y1="562"
       x2="1445"
       y2="366"
       gradientUnits="userSpaceOnUse"
       gradientTransform="translate(0,-300)" />
    <linearGradient
       inkscape:collect="always"
       xlink:href="#linearGradient3775"
       id="linearGradient3781"
       x1="1385"
       y1="318"
       x2="1385"
       y2="225"
       gradientUnits="userSpaceOnUse"
       gradientTransform="translate(-40,0)" />
    <filter
       inkscape:collect="always"
       id="filter3789"
       color-interpolation-filters="sRGB">
      <feGaussianBlur
         inkscape:collect="always"
         stdDeviation="1.4425"
         id="feGaussianBlur3791" />
    </filter>
  </defs>
  <sodipodi:namedview
     id="base"
     pagecolor="#ffffff"
     bordercolor="#666666"
     borderopacity="1.0"
     inkscape:pageopacity="0.0"
     inkscape:pageshadow="2"
     inkscape:zoom="0.7071068"
     inkscape:cx="665.97348"
     inkscape:cy="184.31111"
     inkscape:document-units="px"
     inkscape:current-layer="layer1"
     showgrid="false"
     inkscape:window-width="1920"
     inkscape:window-height="1017"
     inkscape:window-x="-8"
     inkscape:window-y="-8"
     showguides="true"
     inkscape:guide-bbox="true"
     inkscape:window-maximized="1">
    <sodipodi:guide
       orientation="1,0"
       position="1377.5554,-101.24615"
       id="guide3773" />
  </sodipodi:namedview>
  <metadata
     id="metadata7">
    <rdf:RDF>
      <cc:Work
         rdf:about="">
        <dc:format>image/svg+xml</dc:format>
        <dc:type
           rdf:resource="http://purl.org/dc/dcmitype/StillImage" />
        <dc:title />
      </cc:Work>
    </rdf:RDF>
  </metadata>
  <g
     inkscape:label="Ebene 1"
     inkscape:groupmode="layer"
     id="layer1"
     transform="translate(-7.4445889,-4.8734614)">
    <path
       style="fill:url(#linearGradient3771);fill-opacity:1;stroke:none"
       d="m 1086,65 426,0 0,284 -568,0 142,-284 z"
       id="rect2970"
       sodipodi:nodetypes="ccccc" />
    <path
       style="fill:url(#linearGradient3781);fill-opacity:1;stroke:#000000;stroke-width:4;stroke-miterlimit:4;stroke-opacity:1;stroke-dasharray:none"
       d="m 1108,100 0,218 43,0 0,-92 80,0 0,92 44,0 0,-218 -44,0 0,82 -80,0 0,-82 -43,0 z m 193,0 0,218 82,0 c 46.536,0 84,-37.464 84,-84 l 0,-50 c 0,-46.536 -37.464,-84 -84,-84 l -82,0 z m 44,41 26,0 c 29.916,0 54,24.084 54,54 l 0,28 c 0,29.916 -24.084,54 -54,54 l -26,0 0,-136 z"
       id="rect2975" />
    <g
       id="g4155">
      <path
         id="path2982"
         style="fill:#dc181d;fill-opacity:1;fill-rule:nonzero;stroke:none"
         d="M 140.7431,38.660333 13.763927,295.08159 c -14.882917,30.04375 -2.577917,66.47 27.465834,81.35292 30.053335,14.88292 66.479589,2.57792 81.362499,-27.46583 0,0 36.93417,-81.82251 72.44042,-153.50584 35.31459,71.645 72.03792,153.38125 72.03792,153.38125 14.82542,30.08209 51.2325,42.44459 81.305,27.61917 30.08209,-14.82542 42.44459,-51.2325 27.61917,-81.305 L 249.61935,38.76575 C 239.40352,18.046583 218.32018,4.9078322 195.21477,4.8886655 172.10935,4.8733322 150.99726,17.960333 140.7431,38.660333"
         inkscape:connector-curvature="0" />
      <path
         id="path2984"
         style="fill:#e4e4e4;fill-opacity:1;fill-rule:nonzero;stroke:none"
         d="m 983.35771,11.194499 c -30.04375,-14.8829171 -66.47001,-2.5875 -81.35292,27.465834 0,0 -36.94375,81.822507 -72.45,153.515417 C 794.24978,120.53075 757.51687,38.784917 757.51687,38.784917 746.76437,16.963666 724.65562,4.5340822 701.8377,4.9749155 c -0.12497,0 -0.24917,-0.015333 -0.36417,-0.015333 l -330.07876,0 c -33.27333,0 -60.25042,26.9770838 -60.25042,60.2504188 0,33.273334 26.97709,60.250419 60.25042,60.250419 l 92.41209,0 0,196.09417 c 0,33.53209 27.18791,60.72 60.72,60.72 33.53208,0 60.72,-27.18791 60.72,-60.72 l 0,-196.09417 79.60875,0 110.11251,223.40667 c 10.20625,20.72875 31.29916,33.85792 54.40458,33.87709 23.10542,0.0153 44.2175,-13.07167 54.47167,-33.77167 L 1010.8235,92.560835 c 14.883,-30.053334 2.5875,-66.470002 -27.46579,-81.362503"
         inkscape:connector-curvature="0" />
    </g>
    <path
       id="path3783"
       d="m 1110,102 0,218 43,0 0,-92 80,0 0,92 44,0 0,-218 -44,0 0,82 -80,0 0,-82 -43,0 z m 193,0 0,218 82,0 c 46.536,0 84,-37.464 84,-84 l 0,-50 c 0,-46.536 -37.464,-84 -84,-84 l -82,0 z m 44,41 26,0 c 29.916,0 54,24.084 54,54 l 0,28 c 0,29.916 -24.084,54 -54,54 l -26,0 0,-136 z"
       style="fill:none;stroke:#000000;stroke-width:5;stroke-miterlimit:4;stroke-opacity:1;stroke-dasharray:none;filter:url(#filter3789)" />
  </g>
</svg>
