<?xml version="1.0" encoding="UTF-8" standalone="no"?>
<!-- Created with Inkscape (http://www.inkscape.org/) -->
<svg
   xmlns:svg="http://www.w3.org/2000/svg"
   xmlns="http://www.w3.org/2000/svg"
   version="1.0"
   width="921.25983"
   height="425.19684"
   id="svg11106">
  <defs
     id="defs11108" />
  <g
     id="layer1">
    <g
       transform="matrix(3.543307e-5,0,0,3.543307e-5,-1.945489e-3,-8.105469e-7)"
       style="fill-rule:evenodd"
       id="Ebene_x0020_1">
  
  <g
   id="_93210536">
   <path
   d="M 25500000,1421930 C 25500000,1512760 25484420,1584680 25466160,1651600 C 25257650,2440830 24718120,4343120 24166240,6275480 C 23624670,8170790 23084340,10062120 22854190,10811230 C 22733390,11204450 22352100,11476230 21880510,11476230 C 21671580,11476230 21501960,11423480 21362200,11349310 C 20889170,11098580 19564920,10349960 18172510,9560510 C 16835000,8802320 15541310,8062290 15076330,7790570 L 1036930,7790570 C 740390,7790570 500040,7578410 500040,7316730 L 500040,5090400 C 500040,4828670 740390,4616460 1036930,4616460 L 17674030,4616460 C 18181230,4293490 18717270,3953020 19243690,3619680 C 21152260,2411290 23457540,949760 23900230,685390 C 24055670,592690 24254290,523770 24482510,523770 C 25044540,523770 25500070,925860 25500070,1421930 L 25500000,1421930 z "
   style="fill:white;fill-opacity:1"
   id="_98601240" />

   <path
   d="M 2315060,5786660 L 1824890,5786660 L 1824890,5843650 L 1944720,5843650 C 2067720,5843650 2152260,5938660 2152260,6028090 C 2149140,6142070 2040320,6208510 1944720,6208510 L 1824890,6208510 L 1824890,6266840 L 1944720,6266840 C 2049510,6266840 2158380,6337410 2155320,6448650 C 2152260,6565260 2049510,6631750 1944720,6631750 L 1824890,6631750 L 1824890,6690080 L 2315060,6690080 L 2315060,5786660 z M 2848300,5786660 L 2379620,5786660 L 2379620,5844990 L 2488760,5843650 C 2593120,5842360 2696190,5919650 2696190,6028090 C 2696190,6128530 2602470,6208510 2488760,6208510 L 2379620,6208510 L 2379620,6257380 L 2805220,6690080 L 2848300,6690080 L 2848300,5786660 z M 1748080,6756570 L 1748080,5718880 L 2923600,5718880 L 2923600,6756570 L 1748080,6756570 L 1748080,6756570 z M 11379130,5949940 C 11420860,5949940 11453790,5950910 11482900,5976580 C 11509430,5999890 11512010,6025410 11512010,6057360 L 11512010,6138310 C 11512010,6169080 11499340,6190460 11474040,6210600 C 11441170,6237190 11404430,6239440 11357590,6239440 L 10716980,6239440 L 10716980,5949940 L 11379130,5949940 z M 6013230,6361740 L 6279150,5957410 L 6534870,6361740 L 6013230,6361740 z M 4042890,6528790 L 4042890,6346810 L 4774600,6346810 C 4802420,6346810 4829010,6348960 4851830,6357450 C 4884700,6369210 4903660,6400040 4905010,6434090 C 4906240,6468250 4896090,6487370 4867030,6507570 C 4840390,6527870 4809990,6528790 4774600,6528790 L 4042890,6528790 z M 4042890,6132940 L 4044180,5949940 L 4721420,5949940 C 4750480,5949940 4772020,5954180 4794790,5962670 C 4831530,5976580 4850490,5998820 4851830,6031850 C 4854360,6066920 4842920,6089320 4815090,6110540 C 4787270,6130840 4758160,6132940 4721420,6132940 L 4042890,6132940 z M 1036890,4887320 L 17248690,4887320 C 16108570,5614140 15184900,6206520 14967210,6348370 C 14728300,6504030 14569580,6756090 14569580,7042260 C 14569580,7200340 14613570,7370600 14729800,7519760 L 1036800,7519760 C 909720,7519760 806760,7428770 806760,7316730 L 806760,5090400 C 806760,4978200 909720,4887320 1036800,4887320 L 1036890,4887320 z M 1683520,5660550 L 1683520,6814850 L 2989670,6814850 L 2989670,5660550 L 1683520,5660550 L 1683520,5660550 z M 12528920,5995650 L 13282060,6786380 L 13887330,6786380 L 13887330,5692340 L 13502430,5692340 L 13502430,6493660 L 12740380,5692340 L 12122540,5692340 L 12122540,6786380 L 12528920,6786380 L 12528920,5995650 z M 11888040,5972230 C 11888040,5874320 11846310,5801970 11752630,5744550 C 11671580,5695510 11599400,5692340 11499390,5692340 L 10330950,5692340 L 10330950,6786380 L 10717030,6787460 L 10717030,6496940 L 11370320,6496940 C 11403240,6496940 11424670,6502200 11450080,6518150 C 11479140,6537380 11495630,6559670 11495630,6591630 L 11495630,6786380 L 11888040,6786380 L 11888040,6576700 C 11888040,6522500 11879180,6485280 11842440,6441560 C 11794370,6384140 11672820,6353260 11652620,6353260 C 11663960,6353260 11756390,6329840 11809570,6299010 C 11872840,6261730 11888040,6201040 11888040,6131910 L 11888040,5972230 z M 8697650,6786380 L 10123090,6786380 L 10123090,6528790 L 9095170,6528790 L 9095170,6346810 L 10048430,6346810 L 10048430,6131910 L 9091410,6131910 L 9091410,5947740 L 10097790,5947740 L 10097790,5692340 L 8697650,5692340 L 8697650,6786380 z M 6762490,5692340 L 7508110,6403260 L 7508110,6786380 L 7898110,6786380 L 7898110,6395850 L 8618320,5692340 L 8125950,5692340 L 7694220,6156410 L 7260070,5692340 L 6762490,5692340 z M 5872770,6591630 L 6688050,6591630 L 6818460,6786380 L 7265340,6786380 L 6548780,5692340 L 6036110,5692340 L 5317070,6786380 L 5752560,6786380 L 5872770,6591630 z M 3646660,6786380 L 4886040,6786380 C 4944320,6786380 5125330,6789550 5221470,6701250 C 5289840,6639590 5303810,6577770 5302520,6507570 L 5302520,6469270 C 5303810,6384140 5264550,6318130 5210140,6286170 C 5139240,6243630 5050560,6234070 5045510,6234070 C 5058190,6231980 5151860,6204210 5196170,6162690 C 5250630,6113810 5253100,6063810 5251870,6024380 L 5251870,5975400 C 5253100,5887100 5215130,5799870 5107600,5742350 C 5025260,5699810 4808810,5692340 4767070,5692340 L 3646660,5692130 L 3646660,6786380 z "
   style="fill:#003e80"
   id="_97980528" />

   <path
   d="M 24482400,930050 C 24790220,930050 25039650,1150210 25039650,1421930 C 25039650,1468340 25032510,1505670 25018700,1556050 C 24811330,2341900 24271910,4243910 23719920,6176120 C 23179260,8068470 22639840,9956900 22409960,10704930 C 22341370,10928050 22136140,11070010 21880470,11070010 C 21765580,11070010 21676960,11042350 21599030,11001100 C 21127660,10751120 19808400,10005180 18421150,9218640 C 16970630,8396320 15571990,7595540 15230660,7393320 C 15082900,7305610 15029890,7179550 15029890,7042260 C 15029890,6891710 15113090,6758290 15240650,6675260 C 15577420,6455630 17607480,5155550 19511870,3949850 C 21416140,2744090 23716210,1285770 24158090,1022000 C 24251170,966350 24361440,930050 24482400,930050 L 24482400,930050 z "
   style="fill:#b9e700;fill-opacity:1"
   id="_108676352" />

   <path
   d="M 21471900,5616340 C 21525500,5616020 21635230,5618700 21697430,5691480 C 21734650,5737890 21755330,5787680 21730730,5857720 L 21682820,5994520 C 21652420,6081260 21623740,6141310 21534950,6198460 C 21457450,6245510 21388860,6255990 21304700,6256470 L 20011980,6264370 L 19771030,6951650 L 21082810,6943490 C 21201460,6942790 21309690,6938870 21359210,7015090 C 21394120,7068050 21399550,7118000 21374900,7188090 L 21325800,7328110 C 21300240,7401480 21268710,7458310 21199150,7515350 C 21079970,7615950 20953050,7596720 20811570,7597690 L 19136380,7607950 C 19055970,7608380 19006880,7585440 18974550,7535710 C 18935980,7482700 18941670,7422700 18968580,7346000 L 19048670,7118700 L 17885820,7125890 L 17832810,7276500 C 17750790,7509980 17656370,7866730 17872290,8121700 C 18055070,8340250 18445010,8363880 18682200,8362540 L 20544900,8358190 C 20625140,8357700 21454870,8385850 21889180,8083670 C 22222240,7851910 22320210,7681530 22419630,7397990 L 22469850,7254530 C 22525980,7094420 22576470,6874470 22395030,6739070 C 22282610,6656510 21966520,6578580 21904160,6582340 C 21958950,6578680 22277560,6496830 22481610,6372380 C 22714290,6231120 22785080,6050970 22856090,5837470 L 22892340,5734080 C 23018190,5397150 22959210,5107910 22651930,4983300 C 22423010,4884800 22231700,4886030 21933380,4887860 L 19986680,4887800 C 19638580,4889950 19115000,4958490 18742940,5290310 C 18519830,5491460 18438240,5658340 18354070,5898540 L 18301600,6046300 L 19452790,6039210 L 19485550,5948120 C 19515850,5861370 19535450,5794720 19612470,5727680 C 19720540,5637180 19838810,5626440 19965030,5625630 L 21471900,5616340 z "
   id="_97357328" />

  </g>

 </g>
  </g>
</svg>
