<?xml version="1.0" encoding="UTF-8" standalone="no"?>
<!-- Created with Inkscape (http://www.inkscape.org/) -->

<svg
   xmlns:dc="http://purl.org/dc/elements/1.1/"
   xmlns:cc="http://creativecommons.org/ns#"
   xmlns:rdf="http://www.w3.org/1999/02/22-rdf-syntax-ns#"
   xmlns:svg="http://www.w3.org/2000/svg"
   xmlns="http://www.w3.org/2000/svg"
   xmlns:sodipodi="http://sodipodi.sourceforge.net/DTD/sodipodi-0.dtd"
   xmlns:inkscape="http://www.inkscape.org/namespaces/inkscape"
   width="693"
   height="164"
   id="svg2"
   version="1.1"
   inkscape:version="0.91 r13725"
   sodipodi:docname="bloomberg.svg">
  <metadata
     id="metadata27">
    <rdf:RDF>
      <cc:Work
         rdf:about="">
        <dc:format>image/svg+xml</dc:format>
        <dc:type
           rdf:resource="http://purl.org/dc/dcmitype/StillImage" />
        <dc:title></dc:title>
      </cc:Work>
    </rdf:RDF>
  </metadata>
  <defs
     id="defs25" />
  <sodipodi:namedview
     pagecolor="#ffffff"
     bordercolor="#666666"
     borderopacity="1"
     objecttolerance="10"
     gridtolerance="10"
     guidetolerance="10"
     inkscape:pageopacity="0"
     inkscape:pageshadow="2"
     inkscape:window-width="1920"
     inkscape:window-height="1017"
     id="namedview23"
     showgrid="false"
     inkscape:zoom="1.8816739"
     inkscape:cx="346.5"
     inkscape:cy="2.8"
     inkscape:window-x="-8"
     inkscape:window-y="-8"
     inkscape:window-maximized="1"
     inkscape:current-layer="layer1" />
  <g
     inkscape:label="Layer 1"
     inkscape:groupmode="layer"
     id="layer1"
     transform="translate(-237.08064,-540.17134)">
    <path
       style="fill:#b3b3b3;fill-rule:nonzero;stroke:none"
       d="m 255.52337,599.92106 17.50614,0 c 14.76224,0 21.71347,3.75001 21.71347,14.46955 0,13.46345 -13.02442,15.05492 -22.42688,15.05492 l -16.79273,0 z m -18.23785,45.16476 36.91473,0 c 19.39029,0 38.78059,-6.93295 38.78059,-29.25008 0,-13.17077 -9.25613,-23.30494 -22.13421,-24.75007 l 0,-0.29268 c 10.55491,-3.18294 17.79883,-10.84759 17.79883,-22.42689 0,-18.65858 -15.93297,-25.77446 -31.40862,-25.77446 l -39.95132,0 z m 18.23785,-86.85389 15.05492,0 c 13.75613,0 19.82932,4.33538 19.82932,13.17077 0,7.66465 -6.07319,12.87808 -18.23786,12.87808 l -16.64638,0 z"
       id="path17683" />
    <path
       id="path17685"
       d="m 342.26384,540.17152 0,104.90881 -17.37809,0 0,-104.90881 z"
       style="fill:#b3b3b3;fill-rule:nonzero;stroke:none" />
    <path
       style="fill:#b3b3b3;fill-rule:nonzero;stroke:none"
       d="m 353.88338,610.34792 c 0,21.85981 16.79273,36.4757 37.77449,36.4757 21.00006,0 37.77449,-14.61589 37.77449,-36.4757 0,-21.85981 -16.77443,-36.47571 -37.77449,-36.47571 -20.98176,0 -37.77449,14.6159 -37.77449,36.47571 m 17.3598,0 c 0,-10.86588 7.68295,-20.83542 20.41469,-20.83542 12.75004,0 20.41469,9.96954 20.41469,20.83542 0,10.86588 -7.66465,20.85371 -20.41469,20.85371 -12.73174,0 -20.41469,-9.98783 -20.41469,-20.85371"
       id="path17689" />
    <path
       style="fill:#b3b3b3;fill-rule:nonzero;stroke:none"
       d="m 437.29824,610.34792 c 0,21.85981 16.79272,36.4757 37.77449,36.4757 21.00005,0 37.79278,-14.61589 37.79278,-36.4757 0,-21.85981 -16.79273,-36.47571 -37.79278,-36.47571 -20.98177,0 -37.77449,14.6159 -37.77449,36.47571 m 17.3598,0 c 0,-10.86588 7.68294,-20.83542 20.41469,-20.83542 12.75003,0 20.41468,9.96954 20.41468,20.83542 0,10.86588 -7.66465,20.85371 -20.41468,20.85371 -12.73175,0 -20.41469,-9.98783 -20.41469,-20.85371"
       id="path17693" />
    <path
       style="fill:#b3b3b3;fill-rule:nonzero;stroke:none"
       d="m 523.457,575.61002 16.50004,0 0,10.84759 0.29269,0 c 3.03659,-6.51221 9.69514,-12.5854 21.27444,-12.5854 10.71954,0 18.09151,4.18904 21.71347,12.87809 5.06709,-8.8171 12.43906,-12.87809 22.86592,-12.87809 18.53053,0 25.04275,13.17077 25.04275,29.81716 l 0,41.37815 -17.35981,0 0,-39.34766 c 0,-8.70734 -2.61586,-16.22565 -12.89637,-16.22565 -10.84759,0 -14.90858,8.98173 -14.90858,17.96346 l 0,37.60985 -17.3598,0 0,-41.37815 c 0,-8.561 -3.47562,-14.19516 -11.87198,-14.19516 -11.43296,0 -15.91468,8.39636 -15.91468,17.67077 l 0,37.90254 -17.37809,0 z"
       id="path17697" />
    <path
       style="fill:#b3b3b3;fill-rule:nonzero;stroke:none"
       d="m 645.22622,645.08582 16.50005,0 0,-10.42686 0.29268,0 c 5.06709,8.39636 14.17687,12.16466 23.89031,12.16466 21.42078,0 34.29887,-15.91467 34.29887,-36.4757 0,-20.56103 -13.75614,-36.47571 -33.58546,-36.47571 -13.02442,0 -19.97566,6.07319 -23.59762,10.55491 l -0.42073,0 0,-44.25012 -17.3781,0 z m 57.60381,-34.7379 c 0,10.86588 -7.66465,20.83542 -20.39639,20.83542 -12.75004,0 -20.41469,-9.96954 -20.41469,-20.83542 0,-10.86588 7.66465,-20.85371 20.41469,-20.85371 12.73174,0 20.39639,9.98783 20.39639,20.85371"
       id="path17701" />
    <path
       style="fill:#b3b3b3;fill-rule:nonzero;stroke:none"
       d="m 798.40955,616.42111 0,-4.77441 c 0,-24.16469 -13.17077,-37.77449 -32.57935,-37.77449 -20.98177,0 -37.77449,14.6159 -37.77449,36.47571 0,21.85981 16.79272,36.4757 37.77449,36.4757 11.01222,0 21.29274,-3.91464 29.39642,-13.90247 l -12.45735,-9.40246 c -4.33538,5.35977 -9.98784,9.40246 -18.65859,9.40246 -9.71344,0 -17.52444,-6.21953 -18.67688,-16.50004 z M 745.4338,603.39668 c 1.29879,-9.98783 7.66466,-16.50004 17.94517,-16.50004 10.84759,0 17.50614,6.36587 17.65249,16.50004 z"
       id="path17705" />
    <path
       style="fill:#b3b3b3;fill-rule:nonzero;stroke:none"
       d="m 809.73275,575.61002 17.3598,0 0,11.01223 0.29269,0 c 3.7683,-7.97563 11.43295,-12.75004 20.56103,-12.75004 2.17683,0 4.20732,0.43903 6.21953,1.0061 l 0,16.79273 c -2.89026,-0.73171 -5.63417,-1.29878 -8.39637,-1.29878 -16.3537,0 -18.67688,13.75613 -18.67688,17.52443 l 0,37.17083 -17.3598,0 z"
       id="path17709" />
    <path
       style="fill:#b3b3b3;fill-rule:nonzero;stroke:none"
       d="m 913.58059,575.61002 0,10.40857 -0.29269,0 c -5.06708,-8.39637 -14.17686,-12.14638 -23.8903,-12.14638 -21.42079,0 -34.29888,15.91468 -34.29888,36.45742 0,19.70127 13.75614,35.63424 34.59156,35.63424 8.68905,0 17.67078,-3.32928 22.73786,-10.13418 l 0.27439,0 0,5.0488 c 0,13.75613 -5.21342,23.30494 -21.98786,23.30494 -9.71344,0 -16.93907,-3.60367 -23.8903,-9.98783 l -10.42686,14.21345 c 9.84149,8.65246 21.56713,11.41466 34.4635,11.41466 27.05495,0 39.21962,-15.91467 39.21962,-40.95742 l 0,-63.25627 z m -20.56103,13.88419 c 12.60369,0 20.56103,8.39636 20.56103,20.41468 0,11.5793 -7.811,20.41469 -20.70738,20.41469 -11.72564,0 -20.39639,-9.10978 -20.39639,-20.10371 0,-12.3293 8.39636,-20.72566 20.54274,-20.72566"
       id="path17713" />
    <path
       style="fill:#b3b3b3;fill-rule:nonzero;stroke:none"
       d="m 246.92213,675.52492 -9.84149,0 0,-6.73173 27.27446,0 0,6.73173 -9.8232,0 0,27.78666 -7.60977,0 z"
       id="path17717" />
    <path
       style="fill:#b3b3b3;fill-rule:nonzero;stroke:none"
       d="m 270.74475,668.81149 23.43299,0 0,7.00611 -15.84151,0 0,6.43904 14.96346,0 0,7.02441 -14.96346,0 0,7.00612 16.71956,0 0,7.00612 -24.31104,0 z"
       id="path17721" />
    <path
       style="fill:#b3b3b3;fill-rule:nonzero;stroke:none"
       d="m 304.1674,668.81149 7.59148,0 0,27.47568 14.0854,0 0,7.00612 -21.67688,0 z"
       id="path17725" />
    <path
       style="fill:#b3b3b3;fill-rule:nonzero;stroke:none"
       d="m 333.05345,668.81149 23.43299,0 0,7.00611 -15.84151,0 0,6.43904 14.96346,0 0,7.02441 -14.96346,0 0,7.00612 16.71956,0 0,7.00612 -24.31104,0 z"
       id="path17729" />
    <path
       style="fill:#b3b3b3;fill-rule:nonzero;stroke:none"
       d="m 361.79682,668.81149 8.67075,0 8.52442,22.60981 0.0915,0 8.67075,-22.60981 8.14027,0 -14.21345,34.4818 -6.09148,0 z"
       id="path17733" />
    <path
       id="path17735"
       d="m 409.25182,668.806 0,34.4818 -7.60978,0 0,-34.4818 z"
       style="fill:#b3b3b3;fill-rule:nonzero;stroke:none" />
    <path
       style="fill:#b3b3b3;fill-rule:nonzero;stroke:none"
       d="m 437.40616,677.22614 c -1.22561,-1.55488 -3.65854,-2.28659 -5.50611,-2.28659 -2.14025,0 -5.12196,0.96952 -5.12196,3.56709 0,6.2744 15.89638,2.25 15.89638,14.30491 0,7.71953 -6.20124,11.35979 -13.29882,11.35979 -4.44513,0 -8.34148,-1.29879 -11.59759,-4.31709 l 5.39636,-5.96343 c 1.57317,2.06708 4.09757,3.2744 6.64026,3.2744 2.46952,0 5.25001,-1.17073 5.25001,-3.62196 0,-6.31099 -16.17077,-2.90854 -16.17077,-14.39638 0,-7.37197 6.38416,-11.23174 13.15247,-11.23174 3.89635,0 7.64636,1.04269 10.5732,3.62196 z"
       id="path17739" />
    <path
       id="path17741"
       d="m 459.52025,668.806 0,34.4818 -7.60978,0 0,-34.4818 z"
       style="fill:#b3b3b3;fill-rule:nonzero;stroke:none" />
    <path
       style="fill:#b3b3b3;fill-rule:nonzero;stroke:none"
       d="m 485.44287,697.16339 c 6.47563,0 10.71955,-4.68294 10.71955,-11.10369 0,-6.43904 -4.24392,-11.10368 -10.71955,-11.10368 -6.47562,0 -10.71954,4.66464 -10.71954,11.10368 0,6.42075 4.24392,11.10369 10.71954,11.10369 m 0,-29.23178 c 10.77442,0 18.60371,7.06099 18.60371,18.12809 0,11.04881 -7.82929,18.10981 -18.60371,18.10981 -10.77441,0 -18.6037,-7.061 -18.6037,-18.10981 0,-11.0671 7.82929,-18.12809 18.6037,-18.12809"
       id="path17745" />
    <path
       style="fill:#b3b3b3;fill-rule:nonzero;stroke:none"
       d="m 510.47831,668.81149 10.33539,0 14.65248,23.96348 0.10975,0 0,-23.96348 7.59149,0 0,34.4818 -9.93296,0 -15.05491,-24.54885 -0.10976,0 0,24.54885 -7.59148,0 z"
       id="path17749" />
  </g>
</svg>
