<?xml version="1.0" encoding="UTF-8" standalone="no"?>
<!-- Created with Inkscape (http://www.inkscape.org/) -->

<svg
   xmlns:dc="http://purl.org/dc/elements/1.1/"
   xmlns:cc="http://creativecommons.org/ns#"
   xmlns:rdf="http://www.w3.org/1999/02/22-rdf-syntax-ns#"
   xmlns:svg="http://www.w3.org/2000/svg"
   xmlns="http://www.w3.org/2000/svg"
   xmlns:sodipodi="http://sodipodi.sourceforge.net/DTD/sodipodi-0.dtd"
   xmlns:inkscape="http://www.inkscape.org/namespaces/inkscape"
   id="svg2"
   version="1.1"
   inkscape:version="0.48.2 r9819"
   width="302"
   height="124.31931"
   sodipodi:docname="BRHD.png">
  <metadata
     id="metadata8">
    <rdf:RDF>
      <cc:Work
         rdf:about="">
        <dc:format>image/svg+xml</dc:format>
        <dc:type
           rdf:resource="http://purl.org/dc/dcmitype/StillImage" />
        <dc:title></dc:title>
      </cc:Work>
    </rdf:RDF>
  </metadata>
  <defs
     id="defs6" />
  <sodipodi:namedview
     pagecolor="#ffffff"
     bordercolor="#666666"
     borderopacity="1"
     objecttolerance="10"
     gridtolerance="10"
     guidetolerance="10"
     inkscape:pageopacity="0"
     inkscape:pageshadow="2"
     inkscape:window-width="1920"
     inkscape:window-height="1056"
     id="namedview4"
     showgrid="false"
     fit-margin-top="1"
     fit-margin-left="1"
     fit-margin-right="1"
     fit-margin-bottom="1"
     inkscape:zoom="5.7086093"
     inkscape:cx="151"
     inkscape:cy="62.159657"
     inkscape:window-x="0"
     inkscape:window-y="24"
     inkscape:window-maximized="1"
     inkscape:current-layer="svg2" />
  <path
     sodipodi:nodetypes="cscccccccccccccccccccsccccccccccsscsscc"
     inkscape:connector-curvature="0"
     id="path10"
     style="fill:#0086cb;fill-rule:evenodd;stroke:none"
     d="m 112.08997,63.51658 c 13.79641,-4.77039 23.66821,-15.77016 23.66821,-32.1073 0,-4.09143 -2.07226,-14.02648 -9.59385,-20.4346 C 121.20743,6.75076 114.03906,1.7521 90.898678,1.1936 86.113669,1.07645 71.565635,1.59472 71.565635,1.59472 l 0,0.83633 c 4.108415,3.13782 8.525571,8.33835 10.649974,14.33344 2.210763,-0.0727 5.557167,-0.25058 8.863458,-0.0727 9.292773,0.49514 13.338773,2.23294 17.525993,5.52472 4.21188,3.30629 6.47739,8.98484 6.45002,14.1376 -0.0265,7.02986 -3.36363,14.29486 -13.51244,18.43077 -8.21258,3.34897 -18.1442,4.08527 -18.1442,4.08527 l -0.0069,2.5614 c 0,0 5.947077,2.84783 11.890024,10.70729 5.120186,6.76397 34.838106,50.51081 34.838106,50.51081 l 24.55231,0 c 0,0 -39.67689,-55.27174 -42.58206,-59.1331 z m -78.532703,42.2528 -13.748512,0 0,-89.17938 c 0.192422,0 6.169582,-0.0761 9.892331,-0.0761 15.350274,0 23.861336,7.93816 24.100003,18.8327 0.147942,6.61341 -1.813061,12.95831 -8.559078,17.62522 -5.506671,3.81678 -13.178799,4.95419 -13.178799,4.95419 l 0,2.87191 c 0,0 10.635461,1.58384 16.035247,4.10924 10.05655,4.69428 13.042891,11.98934 13.11226,21.42062 0.11196,14.91329 -14.285536,19.44159 -27.653452,19.44159 z M 1,1.55708 l 0,121.09227 26.87009,0 c 35.27509,0 53.923048,-12.9976 53.923048,-37.59535 0,-14.64384 -9.196153,-24.33169 -23.671515,-27.69274 C 67.5529,51.78015 73.610404,43.57605 73.610404,31.35157 73.610404,18.27872 65.851089,1 33.354583,1 19.673671,1 4.6800417,1.44206 1,1.55673 z" />
  <path
     style="font-size:303.80941772px;font-style:normal;font-variant:normal;font-weight:bold;font-stretch:normal;text-align:start;line-height:125%;letter-spacing:-11.5556469px;word-spacing:0px;writing-mode:lr-tb;text-anchor:start;fill:#00437d;fill-opacity:1;stroke:none;font-family:TheSansCorrespondence;-inkscape-font-specification:TheSansCorrespondence Bold Italic"
     d="m 266.34811,58.87306 c -3.82605,6e-5 -7.75023,0.0587 -11.78493,0.18441 -3.96515,0.063 -7.79748,0.15572 -11.48436,0.28147 l 0,63.50475 c 1.73909,0.0629 3.02912,0.0971 3.8639,0.0971 6.8868,0.25162 12.31689,0.37852 16.28204,0.37852 11.75626,0 20.69473,-3.31512 27.65118,-9.10244 7.02587,-5.7873 10.124,-13.61079 10.12406,-24.30477 -6e-5,-5.53565 -0.41554,-10.28495 -2.08501,-14.24804 -1.60002,-3.963 -3.54844,-7.16503 -6.67875,-9.61841 -3.06087,-2.45325 -6.79067,-4.25433 -11.17311,-5.38669 -4.313,-1.19514 -9.21953,-1.7858 -14.71502,-1.78586 z m -93.90591,0.37853 0,63.27336 13.77611,0 0,-27.17611 29.93406,0 0,27.17611 13.36031,0 0,-63.27336 -13.36031,0 0,25.09908 -29.93406,0 0,-25.09908 z m 92.86479,9.92239 c 7.44329,5e-5 13.18661,2.20721 16.38657,5.79278 3.19991,3.52276 4.79765,8.71136 4.79769,15.56803 -4e-5,6.98254 -2.36978,12.65524 -6.26531,16.17794 -3.89564,3.52272 -9.10985,5.27994 -15.64879,5.27993 -2.36521,1e-5 -5.90127,-0.12689 -8.12727,-0.37853 l 0,-42.25574 c 1.39124,-0.12576 5.1702,-0.18436 8.85711,-0.18441 z"
     id="path3763"
     inkscape:connector-curvature="0"
     sodipodi:nodetypes="cccccsccccccccccccccccccccccssccc" />
</svg>
