<?xml version="1.0" encoding="UTF-8" standalone="no"?>
<!-- Created with Inkscape (http://www.inkscape.org/) -->

<svg
   xmlns:dc="http://purl.org/dc/elements/1.1/"
   xmlns:cc="http://creativecommons.org/ns#"
   xmlns:rdf="http://www.w3.org/1999/02/22-rdf-syntax-ns#"
   xmlns:svg="http://www.w3.org/2000/svg"
   xmlns="http://www.w3.org/2000/svg"
   xmlns:sodipodi="http://sodipodi.sourceforge.net/DTD/sodipodi-0.dtd"
   xmlns:inkscape="http://www.inkscape.org/namespaces/inkscape"
   version="1.0"
   width="400.06586"
   height="400.06586"
   id="svg3195"
   inkscape:version="0.91pre3 r13670"
   sodipodi:docname="br-klassik.svg">
  <metadata
     id="metadata17">
    <rdf:RDF>
      <cc:Work
         rdf:about="">
        <dc:format>image/svg+xml</dc:format>
        <dc:type
           rdf:resource="http://purl.org/dc/dcmitype/StillImage" />
      </cc:Work>
    </rdf:RDF>
  </metadata>
  <sodipodi:namedview
     pagecolor="#ffffff"
     bordercolor="#666666"
     borderopacity="1"
     objecttolerance="10"
     gridtolerance="10"
     guidetolerance="10"
     inkscape:pageopacity="0"
     inkscape:pageshadow="2"
     inkscape:window-width="1920"
     inkscape:window-height="1017"
     id="namedview15"
     showgrid="false"
     inkscape:zoom="0.58990288"
     inkscape:cx="200.03293"
     inkscape:cy="200.03293"
     inkscape:window-x="-8"
     inkscape:window-y="-8"
     inkscape:window-maximized="1"
     inkscape:current-layer="svg3195" />
  <defs
     id="defs3197" />
  <g
     id="g4155">
    <polygon
       points="179.338,249.806 179.338,251.672 180.115,251.672 180.115,252.195 178.745,252.195 178.745,252.195 178.745,249.806 "
       transform="matrix(20.747076,0,0,20.747076,-3605.4787,-4880.6148)"
       id="polygon14"
       style="fill:#c90119;fill-opacity:1;fill-rule:nonzero" />
    <path
       d="m 172.66738,351.694 -3.0602,-8.6578 -19.1454,0 -3.15563,8.6578 -12.39014,0 18.40057,-49.55856 14.57068,0 18.30513,49.55856 -13.52501,0 z m -10.29885,-29.25341 c -0.86308,-2.28426 -1.82989,-5.14526 -2.3859,-7.34238 l -0.10168,0 c -0.56431,2.19712 -1.33196,4.77184 -2.18882,7.07062 l -4.37555,11.99592 13.32792,0 -4.27597,-11.72416 z"
       id="path16"
       style="fill:#c90119;fill-opacity:1;fill-rule:nonzero"
       inkscape:connector-curvature="0" />
    <path
       d="m 202.97886,352.75206 c -3.14111,0 -6.96894,-0.47717 -9.71378,-1.15768 l 0.46058,-10.8611 c 2.8631,1.15561 6.5872,1.8216 10.48971,1.8216 4.09756,0 7.5312,-1.90873 7.5312,-5.62657 0,-7.53329 -19.93794,-3.33201 -19.93794,-19.53548 0,-9.7283 7.35692,-16.20555 20.98359,-16.20555 2.67845,0 6.29466,0.37345 9.06233,0.76141 l -0.38175,10.29058 c -2.67845,-0.76142 -6.29466,-1.23652 -9.14945,-1.23652 -5.23864,0 -7.42746,1.99795 -7.42746,5.04985 0,7.05607 20.30309,4.09959 20.30309,19.3383 0,10.40052 -8.39427,17.36116 -22.22012,17.36116 l 0,0 z"
       id="path18"
       style="fill:#c90119;fill-opacity:1;fill-rule:nonzero"
       inkscape:connector-curvature="0" />
    <path
       d="m 245.13691,352.75206 c -3.15355,0 -6.95235,-0.47717 -9.72,-1.15768 l 0.47511,-10.8611 c 2.85479,1.15561 6.58097,1.8216 10.48141,1.8216 4.10586,0 7.5312,-1.90873 7.5312,-5.62657 0,-7.53329 -19.92134,-3.33201 -19.92134,-19.53548 0,-9.7283 7.34031,-16.20555 20.96906,-16.20555 2.67015,0 6.29466,0.37345 9.05403,0.76141 l -0.36722,10.29058 c -2.67845,-0.76142 -6.30089,-1.23652 -9.16399,-1.23652 -5.23864,0 -7.44197,1.99795 -7.44197,5.04985 0,7.05607 20.30931,4.09959 20.30931,19.3383 0,10.40052 -8.37974,17.36116 -22.2056,17.36116 z"
       id="path20"
       style="fill:#c90119;fill-opacity:1;fill-rule:nonzero"
       inkscape:connector-curvature="0" />
    <polygon
       points="187.837,252.195 187.244,252.195 187.244,249.806 187.244,249.806 187.837,249.806 "
       transform="matrix(20.747076,0,0,20.747076,-3605.4787,-4880.6148)"
       id="polygon22"
       style="fill:#c90119;fill-opacity:1;fill-rule:nonzero" />
    <polygon
       points="189.173,252.195 188.581,252.195 188.581,249.806 189.173,249.806 189.173,250.831 189.959,249.806 190.685,249.806 189.766,250.955 190.74,252.195 189.959,252.195 189.959,252.195 189.173,251.111 "
       transform="matrix(20.747076,0,0,20.747076,-3605.4787,-4880.6148)"
       id="polygon24"
       style="fill:#c90119;fill-opacity:1;fill-rule:nonzero" />
    <polygon
       points="176.712,252.195 176.12,252.195 176.12,249.806 176.712,249.806 176.712,250.831 177.498,249.806 178.224,249.806 177.305,250.955 178.279,252.195 177.498,252.195 177.498,252.195 176.712,251.111 "
       transform="matrix(20.747076,0,0,20.747076,-3605.4787,-4880.6148)"
       id="polygon26"
       style="fill:#c90119;fill-opacity:1;fill-rule:nonzero" />
    <polygon
       points="192.923,235.386 192.923,254.384 173.925,254.384 173.925,254.384 173.925,235.386 "
       transform="matrix(20.747076,0,0,20.747076,-3605.4787,-4880.6148)"
       id="polygon28"
       style="fill:none;fill-rule:nonzero;stroke:#e4e4e4;stroke-width:0.285;stroke-opacity:1" />
    <path
       d="m 153.43484,266.67245 -15.22421,0 0,-98.88885 c 0.1971,0 6.83617,-0.20542 10.96484,-0.0809 18.32589,0.57056 25.98156,7.8984 26.24504,19.98149 0.16184,7.33411 -1.25104,14.46279 -8.41708,20.18692 -6.00835,4.77181 -15.2159,5.75938 -15.2159,5.75938 l 0,3.1847 c 0,0 11.90881,1.52906 17.77817,4.54359 11.04573,5.67224 14.54368,13.29266 14.54368,23.74506 0,15.89637 -15.85283,21.56862 -30.67454,21.56862 l 0,0 z m 27.24922,-53.67889 c 10.45859,-6.19093 16.89225,-15.72004 16.89225,-29.28243 0,-17.09143 -10.86108,-32.73263 -46.89254,-32.73263 -17.44206,0 -34.28454,0.19085 -34.28454,0.19085 l 0,134.21076 30.75547,0 c 39.09787,0 59.75365,-14.41924 59.75365,-41.68919 0,-16.22628 -10.18058,-26.97117 -26.22429,-30.69736 z"
       id="path30"
       style="fill:#e4e4e4;fill-opacity:1;fill-rule:nonzero"
       inkscape:connector-curvature="0" />
    <path
       d="m 240.88377,219.70111 c 17.03127,-5.92747 26.71393,-18.59768 26.9048,-35.59166 0.0664,-4.56017 -1.7635,-15.25323 -10.08515,-22.35289 -5.5042,-4.69297 -14.65366,-10.40051 -40.29912,-11.03121 -5.31333,-0.13073 -21.02924,0.46266 -21.02924,0.46266 0,0 -0.006,0.88384 0.0519,0.94402 4.56644,3.53529 9.39843,9.20754 11.74078,15.86734 2.45853,-0.0871 6.16189,-0.29254 9.82166,-0.0871 10.30508,0.54149 15.39849,2.26762 20.0479,5.92741 4.65357,3.66808 7.09136,9.95444 7.13493,15.66406 0.0664,8.44612 -3.98137,16.51054 -15.23044,21.09979 -9.11211,3.70333 -20.46491,4.07057 -20.46491,4.07057 l 0,2.83197 c 0,0 6.59549,3.14732 13.18269,11.85695 5.67847,7.50837 38.60824,55.99015 38.60824,55.99015 l 27.22636,0 c 0,0 -44.39042,-61.37818 -47.61036,-65.65204 l 0,0 z"
       id="path32"
       style="fill:#e4e4e4;fill-opacity:1;fill-rule:nonzero"
       inkscape:connector-curvature="0" />
  </g>
</svg>
