<?xml version="1.0" encoding="UTF-8" standalone="no"?>
<!-- Created with Inkscape (http://www.inkscape.org/) -->
<svg
   xmlns:svg="http://www.w3.org/2000/svg"
   xmlns="http://www.w3.org/2000/svg"
   version="1.0"
   width="602.36218"
   height="192.25984"
   id="svg3814">
  <defs
     id="defs3816" />
  <g
     id="layer1">
    <g
       transform="matrix(3.543307e-5,0,0,3.543307e-5,-3.691406e-6,-3.895588e-3)"
       style="fill-rule:evenodd"
       id="Layer_x0020_1">
  
  <path
   d="M 5612200,1266160 C 5612200,1222680 5631560,1200200 5655510,1180610 L 5748550,1099840 C 5765010,1084860 5788910,1074240 5808490,1074240 L 5853450,1074240 C 5868440,1074240 5879060,1078840 5888020,1086330 L 5953750,1137310 C 5965840,1146270 5973340,1168750 5973340,1197070 L 5973340,1451830 C 5973340,1480330 5971860,1514900 5955460,1528410 L 5892390,1580860 C 5881950,1589830 5868440,1594190 5847430,1594190 L 5793510,1594190 C 5778520,1594190 5756040,1573370 5737930,1558380 L 5655510,1487820 C 5618050,1456370 5612200,1438500 5612200,1391890 L 5612200,1266160 z M 5612200,732690 C 5612200,683190 5601580,633810 5540230,633810 C 5478810,633810 5468190,683190 5468190,732690 L 5468190,1637680 C 5468190,1687240 5478810,1737980 5540230,1737980 C 5597220,1737980 5612200,1688650 5612200,1642280 L 5612200,1633080 L 5645130,1664760 C 5685480,1702220 5726070,1737980 5784360,1737980 L 5877410,1737980 C 5913390,1737980 5955460,1715500 5989800,1687240 L 6039300,1645170 C 6096110,1595610 6117180,1555260 6117180,1478850 L 6117180,1189580 C 6117180,1113180 6096110,1072820 6039300,1023260 L 5989800,981430 C 5953750,951460 5920890,930460 5883420,930460 L 5780000,930460 C 5713980,930460 5685480,961840 5637630,1009930 L 5612200,1035360 L 5612200,732690 z M 5205110,3423690 C 5205110,2677950 5809730,2073330 6555480,2073330 C 7301460,2073330 7906090,2677950 7906090,3423690 C 7906090,4169620 7301460,4774300 6555480,4774300 C 5809730,4774300 5205110,4169620 5205110,3423690 z M 8069690,3423690 C 8069690,2677950 8674310,2073330 9420060,2073330 C 10166040,2073330 10770660,2677950 10770660,3423690 C 10770660,4169620 10166040,4774300 9420060,4774300 C 8674310,4774300 8069690,4169620 8069690,3423690 z M 10934270,3423690 C 10934270,2677950 11538890,2073330 12284820,2073330 C 13030560,2073330 13635240,2677950 13635240,3423690 C 13635240,4169620 13030560,4774300 12284820,4774300 C 11538890,4774300 10934270,4169620 10934270,3423690 z M 13798790,3423690 C 13798790,2677950 14403470,2073330 15149390,2073330 C 15895380,2073330 16500000,2677950 16500000,3423690 C 16500000,4169620 15895380,4774300 15149390,4774300 C 14403470,4774300 13798790,4169620 13798790,3423690 z M 7260050,1179960 C 7260050,1137310 7272320,1126690 7290610,1112940 L 7340760,1076360 C 7365120,1059660 7388020,1059660 7415510,1059660 L 7461290,1059660 C 7484180,1059660 7513090,1061140 7531210,1078010 L 7587610,1126690 C 7607430,1145040 7605960,1167690 7605960,1195180 L 7605960,1293000 L 7260050,1293000 L 7260050,1179960 z M 7651510,1743820 C 7694220,1743820 7752040,1734670 7752040,1670540 C 7752040,1608120 7700240,1597500 7651510,1597500 L 7415510,1597500 C 7366780,1597500 7337870,1591480 7317870,1570240 L 7281460,1530480 C 7270840,1519860 7260050,1501570 7260050,1487820 L 7260050,1439090 L 7651510,1439090 C 7738350,1439090 7752040,1414780 7752040,1331120 L 7752040,1204330 C 7752040,1123560 7742890,1067160 7675870,1013880 L 7616580,966860 C 7560170,921080 7526660,913350 7455270,913350 L 7398640,913350 C 7339340,913350 7305830,915000 7237330,974350 L 7185530,1018480 C 7124530,1070280 7113910,1116070 7113910,1193710 L 7113910,1484930 C 7113910,1563990 7130780,1597500 7188660,1649300 L 7251080,1704050 C 7296690,1743820 7320990,1743820 7382000,1743820 L 7651510,1743820 z M 9329730,1179960 C 9329730,1137310 9341830,1126690 9360120,1112940 L 9410270,1076360 C 9434630,1059660 9457520,1059660 9485020,1059660 L 9530800,1059660 C 9553690,1059660 9582600,1061140 9600950,1078010 L 9657120,1126690 C 9676880,1145040 9675470,1167690 9675470,1195180 L 9675470,1293000 L 9329730,1293000 L 9329730,1179960 z M 9721250,1743820 C 9763670,1743820 9821550,1734670 9821550,1670540 C 9821550,1608120 9769920,1597500 9721250,1597500 L 9485020,1597500 C 9436280,1597500 9407370,1591480 9387610,1570240 L 9350970,1530480 C 9340350,1519860 9329730,1501570 9329730,1487820 L 9329730,1439090 L 9721250,1439090 C 9808040,1439090 9821550,1414780 9821550,1331120 L 9821550,1204330 C 9821550,1123560 9812580,1067160 9745560,1013880 L 9686030,966860 C 9629860,921080 9596350,913350 9524720,913350 L 9468140,913350 C 9408790,913350 9375280,915000 9306840,974350 L 9254980,1018480 C 9194210,1070280 9183410,1116070 9183410,1193710 L 9183410,1484930 C 9183410,1563990 9200290,1597500 9258110,1649300 L 9320590,1704050 C 9366130,1743820 9390500,1743820 9451510,1743820 L 9721250,1743820 z M 6597720,1201440 L 6597720,1266570 L 6597720,1597090 C 6600670,1597090 6671830,1597320 6674780,1597320 C 6719320,1599390 6762390,1613550 6762390,1670540 C 6762390,1729480 6713660,1742340 6672480,1744050 C 6668700,1744230 6596900,1744050 6593180,1744050 L 6375240,1744050 C 6332350,1744050 6274290,1734850 6274290,1670540 C 6274290,1607710 6326330,1597090 6375240,1597090 L 6450820,1597090 L 6450820,1061380 L 6378130,1061380 C 6335300,1061380 6277240,1052170 6277240,987860 C 6277240,925210 6329220,914410 6378130,914410 L 6532830,914410 C 6542800,914410 6549880,916470 6554650,920010 C 6586510,933520 6596900,969750 6597720,1007040 L 6633770,977240 C 6675190,943550 6718020,914410 6764040,914410 L 6882690,914170 C 6933250,914170 6983810,924790 6983810,987690 C 6983810,1050520 6933250,1061140 6882690,1061140 L 6815670,1061140 L 6797730,1061380 C 6770060,1061380 6750300,1075300 6724280,1096720 L 6597720,1201440 z M 8135240,987860 C 8168930,962260 8205800,937950 8231820,937950 L 8337130,937950 C 8391880,937950 8425990,953520 8469110,992050 C 8475960,998070 8481980,1004320 8487400,1010580 C 8526930,984560 8601860,937950 8645170,937950 L 8750720,937950 C 8805410,937950 8839570,953520 8882640,992050 C 8946360,1049040 8943410,1112530 8946360,1192710 L 8944470,1634550 C 8945940,1687000 8938630,1744050 8874970,1744050 C 8817090,1744050 8806880,1694730 8805410,1645170 L 8805410,1212880 C 8802520,1121730 8795020,1086100 8709060,1086100 L 8661630,1086100 C 8646820,1086100 8631830,1090870 8617080,1100080 L 8532770,1156480 L 8532770,1192710 L 8532770,1634790 C 8534250,1687240 8528170,1744050 8464510,1744050 C 8406630,1744050 8393120,1694730 8391650,1645170 L 8391880,1212880 C 8388930,1121730 8381440,1086100 8295480,1086100 L 8248040,1086100 C 8233290,1086100 8218310,1090870 8203500,1100080 L 8135000,1160610 L 8135000,1642040 C 8135000,1692840 8124620,1744050 8063850,1744050 C 8003080,1744050 7992870,1693020 7992870,1642280 L 7992870,998480 C 7992870,944560 8005970,913170 8064030,913350 C 8117540,913760 8134180,938360 8135240,987860 z M 10207460,995360 C 10248640,972050 10319850,937950 10361450,937950 L 10468000,937950 C 10523400,937950 10557910,953520 10601220,992050 C 10665760,1049040 10662810,1112530 10665760,1192710 L 10665350,1632900 C 10666770,1685530 10659270,1744050 10594790,1744050 C 10536260,1744050 10524400,1693250 10522990,1643690 L 10523400,1212880 C 10520450,1121730 10512960,1086100 10425990,1086100 L 10378090,1086100 C 10363100,1086100 10348110,1090870 10333130,1100080 L 10207640,1163970 L 10207640,1640570 C 10207640,1691600 10197020,1742340 10135600,1742340 C 10074240,1742340 10063800,1691600 10063800,1640570 L 10063800,998480 C 10063800,944560 10079610,913170 10135600,913170 C 10186630,913170 10206580,945620 10207460,995360 z "
   style="fill:black;fill-opacity:1"
   id="path3805" />

  <path
   d="M 2713110,1091110 C 1817270,1091110 1091110,1817270 1091110,2713110 C 1091110,3508000 1662870,4169200 2417530,4308030 L 2417530,2712870 L 3008640,2712870 L 3008640,4308030 C 3763350,4169030 4334880,3507770 4334880,2713110 C 4334880,1817270 3608890,1091110 2713110,1091110 z M 2713110,500000 C 3935280,500000 4926220,1490710 4926220,2713110 C 4926220,3935270 3935280,4926220 2713110,4926220 C 1490710,4926220 500000,3935270 500000,2713110 C 500000,1490710 1490710,500000 2713110,500000 L 2713110,500000 z "
   style="fill:#ffcb04"
   id="path3807" />

  <path
   d="M 15141100,3209700 L 15141100,3341860 L 15141100,4012270 C 15147110,4012270 15291370,4012500 15297380,4012920 C 15387950,4017050 15474970,4045600 15474970,4161300 C 15474970,4280590 15376270,4307030 15292840,4310570 C 15284940,4310740 15139440,4310570 15131950,4310570 L 14689870,4310570 C 14602850,4310570 14484850,4291800 14484850,4161300 C 14484850,4033920 14590340,4012270 14689870,4012270 L 14842860,4012270 L 14842860,2925620 L 14695710,2925620 C 14608690,2925620 14490690,2906860 14490690,2776360 C 14490690,2648980 14596420,2627380 14695710,2627380 L 15009530,2627380 C 15029760,2627380 15044100,2631510 15053660,2638830 C 15118200,2666500 15139210,2739780 15141100,2815300 L 15214370,2754760 C 15298210,2686440 15385230,2627380 15478510,2627380 L 15719290,2626910 C 15821890,2626910 15924310,2648570 15924310,2775940 C 15924310,2903320 15821890,2925210 15719290,2925210 L 15583410,2925210 L 15546770,2925620 C 15490780,2925620 15450370,2953530 15397740,2997010 L 15141100,3209700 z M 11931430,3152300 C 11931430,3065040 11956390,3043450 11993680,3015300 L 12096510,2940610 C 12146250,2906450 12192860,2906450 12248850,2906450 L 12342480,2906450 C 12389150,2906450 12448260,2909580 12485730,2943740 L 12600780,3043450 C 12641190,3080670 12638060,3127280 12638060,3183510 L 12638060,3363930 L 11931430,3363930 L 11931430,3152300 z M 12731520,4284960 C 12818540,4284960 12936720,4266200 12936720,4135520 C 12936720,4007900 12830990,3986250 12731520,3986250 L 12248850,3986250 C 12149370,3986250 12090260,3973800 12049670,3930260 L 11975150,3849310 C 11953320,3827480 11931430,3790200 11931430,3762110 L 11931430,3662640 L 12731520,3662640 C 12908870,3662640 12936720,3612900 12936720,3441570 L 12936720,3202030 C 12936720,3037190 12918190,2922080 12781250,2813000 L 12659890,2716650 C 12544790,2623370 12476350,2607800 12330030,2607800 L 12214690,2607800 C 12093380,2607800 12024890,2610920 11884820,2732280 L 11779100,2822380 C 11654610,2928340 11632780,3021560 11632780,3180380 L 11632780,3755860 C 11632780,3917810 11666880,3986250 11785350,4091970 L 11912910,4203950 C 12006180,4284960 12055920,4284960 12180350,4284960 L 12731520,4284960 z M 9598670,2821730 C 9598670,2646090 9549350,2615050 9379720,2615050 L 9176770,2615050 C 9077890,2615050 8973220,2636710 8973220,2763260 C 8973220,2892700 9090390,2911230 9176770,2911230 L 9302490,2911230 L 9302490,3981470 L 9068090,3981470 C 8969450,3981470 8864540,4002950 8864540,4129440 C 8864540,4258940 8981720,4277470 9068090,4277470 L 9820740,4277470 C 9907120,4277470 10024290,4258940 10024290,4129440 C 10024290,4002950 9919390,3981470 9820740,3981470 L 9598670,3981470 L 9598670,2821730 z M 6555500,3969020 L 6126750,2985330 L 6126750,2834060 C 6126750,2729330 6108410,2615050 5975660,2615050 C 5870940,2615050 5830760,2698300 5830760,2794060 L 5830760,3003680 C 5830760,3053180 5843090,3077780 5864680,3123980 L 6305760,4092450 C 6333430,4154040 6385880,4277470 6459980,4277470 L 6651020,4277470 C 6725120,4277470 6777570,4154040 6805240,4092450 L 7246320,3123980 C 7267970,3077780 7280240,3053180 7280240,3003680 L 7280240,2794060 C 7280240,2698300 7240300,2615050 7135400,2615050 C 7002770,2615050 6984250,2729330 6984250,2834060 L 6984250,2985330 L 6555500,3969020 z "
   style="fill:white;fill-opacity:1"
   id="path3809" />

 </g>
  </g>
</svg>
