<?xml version="1.0" encoding="UTF-8" standalone="no"?>
<!-- Created with Inkscape (http://www.inkscape.org/) -->
<svg
   xmlns:svg="http://www.w3.org/2000/svg"
   xmlns="http://www.w3.org/2000/svg"
   version="1.0"
   width="533.862"
   height="513.92688"
   id="Logo_CNBC_Europe_edited"
   xml:space="preserve"><defs
     id="defs5" /><g
     transform="matrix(0.9325668,0,0,0.9325668,-81.77321,-232.67885)"
     id="slices"><path
       d="M 265.65323,374.88438 L 340.03973,544.98888 L 186.57623,439.91088 C 148.08173,414.41388 155.89823,370.72488 177.22073,351.47838 C 207.38873,325.98138 250.04873,334.82538 265.65323,374.88438"
       id="slice_dark-orange"
       style="fill:#f46f20;fill-opacity:1;fill-rule:nonzero;stroke:none" /><path
       d="M 367.61423,334.82538 L 340.55723,525.22488 L 263.57723,344.19288 C 246.92423,298.93908 284.36873,269.28183 309.34823,268.75803 C 337.96373,265.63263 373.85723,287.48748 367.61423,334.82538"
       id="slice_dark-pink"
       style="fill:#c9234a;fill-opacity:1;fill-rule:nonzero;stroke:none" /><path
       d="M 484.66073,343.66938 L 408.19823,525.22488 L 383.73623,361.35738 C 381.66623,336.39138 397.26473,335.86638 402.98273,331.18188 C 401.96123,327.55338 394.13873,327.55338 394.13873,327.55338 L 379.57523,327.55338 C 378.01673,284.88648 411.31673,266.15703 438.35873,268.24053 C 467.49173,269.28183 500.27273,303.08508 484.66073,343.66938"
       id="slice_purple"
       style="fill:#635fab;fill-opacity:1;fill-rule:nonzero;stroke:none" /><path
       d="M 562.70423,438.87588 L 409.23923,544.47138 L 481.54373,376.45038 C 503.39123,323.38788 554.37023,333.79038 572.58323,354.07938 C 592.35473,373.84938 598.07273,413.89638 562.70423,438.87588"
       id="slice_blue"
       style="fill:#0089d0;fill-opacity:1;fill-rule:nonzero;stroke:none" /><path
       d="M 578.81273,563.19438 L 401.42423,563.19438 L 545.52773,462.80688 C 580.90973,439.39938 618.36923,460.71588 628.22723,491.41488 C 638.65673,525.74238 615.24323,563.19438 578.81273,563.19438"
       id="slice_green"
       style="fill:#04b14b;fill-opacity:1;fill-rule:nonzero;stroke:none" /><path
       d="M 119.46623,489.33138 C 132.99473,453.96288 170.45423,441.46938 203.73923,462.80688 L 347.83673,563.19438 L 173.05523,563.19438 C 136.63073,563.19438 108.01523,529.90188 119.46623,489.33138"
       id="slice_light-orange"
       style="fill:#feb813;fill-opacity:1;fill-rule:nonzero;stroke:none" /></g><path
     d="M 341.82544,382.23883 L 341.82544,382.36472 L 315.13958,382.36472 L 315.13958,366.59968 L 341.82544,366.59968 L 341.82544,366.65703 C 347.50757,366.65703 352.11678,370.14996 352.11678,374.46122 C 352.11678,378.75289 347.50757,382.23883 341.82544,382.23883 z M 315.38018,333.6036 L 341.08965,333.6036 L 341.08965,333.64137 C 345.44427,333.64137 348.98056,336.50482 348.98056,340.02852 C 348.98056,343.56621 345.44427,346.41567 341.08965,346.41567 L 341.08965,346.46043 L 315.38018,346.46043 L 315.38018,333.6036 z M 368.01472,357.12807 C 373.84373,357.12807 386.03471,350.34085 386.03471,337.23502 C 386.03471,318.56876 351.27887,316.90553 345.94506,316.90553 L 281.9015,316.90553 L 281.9015,402.76556 L 345.94506,402.76556 C 376.74494,402.76556 389.11358,393.02536 389.11358,376.77772 C 389.11358,360.52448 368.01472,357.12807 368.01472,357.12807 M 239.22257,316.90553 L 239.22257,371.10818 L 197.7061,316.90553 L 150.99569,316.90553 L 150.99569,402.76556 L 183.00138,402.76556 L 183.00138,347.93342 L 223.79465,402.76556 L 271.23526,402.76556 L 271.23526,316.90553 L 239.22257,316.90553 M 392.14908,359.79987 C 392.14908,375.80691 405.24652,404.94916 455.22044,404.94916 C 501.29717,404.94916 515.862,383.81253 515.862,374.1185 L 480.2109,374.1185 C 480.2109,374.1185 478.5043,386.92358 458.37065,386.92358 C 438.237,386.92358 432.78288,370.1052 432.78288,360.40417 C 432.78288,350.70874 438.237,334.81081 458.37065,334.81081 C 478.5043,334.81081 480.2109,345.96524 480.2109,345.96524 L 515.862,345.96524 C 515.862,336.26422 505.18877,315.40736 455.22044,315.40736 C 405.24652,315.40736 392.14908,346.46043 392.14908,359.79987 M 18,359.79987 C 18,375.80691 31.097435,404.94916 81.078355,404.94916 C 127.14809,404.94916 141.71292,383.81253 141.71292,374.1185 L 106.03664,374.1185 C 106.03664,374.1185 104.34823,386.92358 84.220173,386.92358 C 64.082324,386.92358 58.628207,370.1052 58.628207,360.40417 C 58.628207,350.70874 64.082324,334.81081 84.220173,334.81081 C 104.34823,334.81081 106.03664,345.96524 106.03664,345.96524 L 141.71292,345.96524 C 141.71292,336.26422 131.0341,315.40736 81.078355,315.40736 C 31.097435,315.40736 18,346.46043 18,359.79987 M 445.22706,494.60008 L 445.22706,424.69533 L 510.58554,424.69533 L 510.58554,438.05995 L 464.26261,438.05995 L 464.26261,452.52406 L 508.23687,452.52406 L 508.23687,465.20324 L 464.26261,465.20324 L 464.26261,481.24106 L 510.96602,481.24106 L 510.96602,494.60008 L 445.22706,494.60008 M 382.67607,437.3871 L 382.67607,456.9738 L 403.01255,456.9738 C 405.48152,456.9738 407.59658,456.80874 409.3983,456.47301 C 411.19583,456.13589 412.70099,455.26021 413.91379,453.83059 C 415.1196,452.40236 415.72251,450.24393 415.72251,447.32313 C 415.72251,444.48627 415.22731,442.32644 414.21175,440.86604 C 413.21577,439.40005 411.92043,438.4796 410.32574,438.04036 C 408.72686,437.60952 406.87897,437.3871 404.73174,437.3871 L 382.67607,437.3871 z M 363.64051,494.60008 L 363.64051,424.69533 L 410.64328,424.69533 C 416.81501,424.69533 421.75435,425.74867 425.43752,427.86373 C 429.1137,429.9718 431.69738,432.61842 433.1326,435.8064 C 434.59859,438.99998 435.3162,442.36561 435.3162,445.93967 C 435.3162,450.90979 434.44612,455.17768 432.71294,458.73356 C 430.96718,462.28803 428.36951,465.006 424.91715,466.85948 C 421.4438,468.73953 417.20249,469.66557 412.12326,469.66557 L 382.67607,469.66557 L 382.67607,494.60008 L 363.64051,494.60008 M 287.44514,459.67218 C 287.44514,463.60295 288.2257,467.34907 289.8064,470.91614 C 291.36891,474.52378 293.90783,477.46836 297.37558,479.78066 C 300.82934,482.09156 305.28608,483.24141 310.7332,483.24141 C 316.11038,483.24141 320.53634,482.09156 324.01528,479.78066 C 327.50122,477.46836 330.03453,474.52378 331.60964,470.91614 C 333.19034,467.34907 333.97789,463.60295 333.97789,459.67218 C 333.97789,456.76537 333.54565,453.92711 332.70074,451.16438 C 331.85024,448.37787 330.51714,445.86973 328.66926,443.61618 C 326.82277,441.34305 324.39017,439.52035 321.36866,438.13549 C 318.34574,436.74643 314.80385,436.047 310.7332,436.047 C 306.68912,436.047 303.17101,436.74643 300.12991,438.10471 C 297.1084,439.46999 294.6702,441.32347 292.79154,443.64696 C 290.90589,445.99003 289.55181,448.50516 288.72089,451.23432 C 287.87039,453.95788 287.44514,456.76537 287.44514,459.67218 z M 267.19119,459.65959 C 267.19119,455.38051 267.75632,451.15878 268.90478,446.98741 C 270.05463,442.82863 272.19347,438.89226 275.26675,435.18391 C 278.3722,431.49514 282.82194,428.47922 288.62577,426.16133 C 294.4226,423.85742 301.79455,422.70757 310.72061,422.70757 C 319.66066,422.70757 327.0382,423.85742 332.84762,426.16133 C 338.68922,428.47922 343.12637,431.49514 346.20524,435.20909 C 349.27852,438.94262 351.39917,442.8664 352.52385,447.01259 C 353.65412,451.16438 354.21226,455.38051 354.21226,459.65959 C 354.21226,463.88832 353.67231,468.08487 352.54903,472.20588 C 351.42575,476.33249 349.33027,480.26886 346.23182,483.97721 C 343.12637,487.71074 338.68922,490.73226 332.84762,493.08792 C 327.0382,495.424 319.66066,496.59903 310.72061,496.59903 C 301.79455,496.59903 294.4226,495.44358 288.62577,493.1075 C 282.82194,490.76443 278.3722,487.74851 275.26675,484.03456 C 272.19347,480.31362 270.05463,476.38984 268.90478,472.22547 C 267.75632,468.08487 267.19119,463.88832 267.19119,459.65959 M 206.78464,438.05995 L 206.78464,455.6337 L 231.8898,455.6337 C 234.37836,455.6337 236.50601,454.91749 238.29654,453.47528 C 240.07307,452.02747 240.96274,449.7991 240.96274,446.77758 C 240.96274,443.58401 239.98495,441.29829 238.02935,440.00995 C 236.07376,438.71461 233.69292,438.05995 230.88683,438.05995 L 206.78464,438.05995 z M 187.73789,494.60008 L 187.73789,424.69533 L 238.5819,424.69533 C 244.53121,424.69533 249.20337,425.7109 252.58159,427.74203 C 255.93464,429.76197 258.20637,432.18757 259.40099,434.99367 C 260.6068,437.78717 261.19711,440.70098 261.19711,443.70431 C 261.19711,447.9708 260.29625,451.49451 258.46096,454.26982 C 256.64525,457.04374 253.76222,459.13363 249.82586,460.53528 L 249.82586,460.73951 C 253.53981,461.26687 256.07312,463.36095 257.40623,466.98677 C 258.73933,470.62518 259.41358,474.77137 259.41358,479.46312 C 259.41358,486.93578 260.63198,491.98283 263.07017,494.60008 L 242.25108,494.60008 C 241.623,493.39287 241.17817,492.23742 240.92358,491.17709 C 240.70256,490.12376 240.53749,488.91655 240.46755,487.59603 C 240.4102,486.25034 240.39061,484.12269 240.39061,481.19629 C 240.39061,476.66262 239.51493,473.48863 237.75658,471.68551 C 236.01641,469.88799 233.51526,468.98713 230.3147,468.98713 L 206.78464,468.98713 L 206.78464,494.60008 L 187.73789,494.60008 M 101.74497,469.57045 L 101.74497,424.69533 L 120.77353,424.69533 L 120.77353,464.82835 C 120.77353,467.09448 120.90642,469.18297 121.1722,471.0952 C 121.44638,473.00603 122.1444,474.91685 123.28027,476.81509 C 124.40494,478.71333 126.19547,480.25627 128.63367,481.44389 C 131.09704,482.6441 134.36616,483.24141 138.46199,483.24141 C 143.71887,483.24141 147.64264,482.2818 150.27808,480.35139 C 152.89952,478.42797 154.53758,476.16183 155.18525,473.58375 C 155.83851,470.99868 156.16304,468.08487 156.16304,464.82835 L 156.16304,424.69533 L 175.1986,424.69533 L 175.1986,469.57045 C 175.1986,472.53601 174.89365,475.38687 174.28934,478.09085 C 173.68644,480.79622 172.20086,483.59672 169.82002,486.52871 C 167.42658,489.44391 163.71264,491.86253 158.62082,493.75517 C 153.5346,495.64082 146.81732,496.59903 138.46199,496.59903 C 130.13743,496.59903 123.43274,495.64082 118.32834,493.723 C 113.23093,491.81776 109.50999,489.42433 107.13474,486.52871 C 104.78607,483.64148 103.30049,480.83399 102.685,478.11742 C 102.04992,475.39246 101.74497,472.53601 101.74497,469.57045 M 26.330153,494.60008 L 26.330153,424.69533 L 91.69423,424.69533 L 91.69423,438.05995 L 45.376899,438.05995 L 45.376899,452.52406 L 89.338566,452.52406 L 89.338566,465.20324 L 45.376899,465.20324 L 45.376899,481.24106 L 92.069122,481.24106 L 92.069122,494.60008 L 26.330153,494.60008"
     id="text"
     style="fill:#231f20;fill-opacity:1;fill-rule:nonzero;stroke:none" /></svg>