<?xml version="1.0" encoding="UTF-8" standalone="no"?>
<!-- Created with Inkscape (http://www.inkscape.org/) -->

<svg
   xmlns:dc="http://purl.org/dc/elements/1.1/"
   xmlns:cc="http://creativecommons.org/ns#"
   xmlns:rdf="http://www.w3.org/1999/02/22-rdf-syntax-ns#"
   xmlns:svg="http://www.w3.org/2000/svg"
   xmlns="http://www.w3.org/2000/svg"
   xmlns:sodipodi="http://sodipodi.sourceforge.net/DTD/sodipodi-0.dtd"
   xmlns:inkscape="http://www.inkscape.org/namespaces/inkscape"
   version="1.0"
   width="209.97321"
   height="210.00223"
   id="svg2"
   inkscape:version="0.48.2 r9819"
   sodipodi:docname="AJAX.svg">
  <metadata
     id="metadata11">
    <rdf:RDF>
      <cc:Work
         rdf:about="">
        <dc:format>image/svg+xml</dc:format>
        <dc:type
           rdf:resource="http://purl.org/dc/dcmitype/StillImage" />
      </cc:Work>
    </rdf:RDF>
  </metadata>
  <sodipodi:namedview
     pagecolor="#ffffff"
     bordercolor="#666666"
     borderopacity="1"
     objecttolerance="10"
     gridtolerance="10"
     guidetolerance="10"
     inkscape:pageopacity="0"
     inkscape:pageshadow="2"
     inkscape:window-width="1280"
     inkscape:window-height="1004"
     id="namedview9"
     showgrid="false"
     fit-margin-top="0"
     fit-margin-left="0"
     fit-margin-right="0"
     fit-margin-bottom="0"
     inkscape:zoom="0.944"
     inkscape:cx="104.9866"
     inkscape:cy="104.99554"
     inkscape:window-x="-8"
     inkscape:window-y="-8"
     inkscape:window-maximized="1"
     inkscape:current-layer="g3221" />
  <defs
     id="defs5" />
  <g
     id="g3225"
     transform="translate(-20.013396,-19.993318)">
    <g
       id="g3221">
      <path
         d="M 125,30 C 67.122033,30 30,67.130971 30,125.00894 30,182.88691 67.122033,220 125,220 c 57.87797,0 95,-37.11309 95,-94.99106 C 220,67.130971 182.87797,30 125,30 z"
         id="path3210"
         style="fill:#ffffff;fill-opacity:1;fill-rule:evenodd;stroke:none"
         inkscape:connector-curvature="0" />
      <path
         d="m 125,19.993318 c -57.877967,0 -104.986604,47.137653 -104.986604,105.015622 0,57.87797 47.108637,104.9866 104.986604,104.9866 57.87797,0 104.9866,-47.10863 104.9866,-104.9866 C 229.9866,67.130971 182.87797,19.993318 125,19.993318 z m 0,15.002232 c 49.76203,0 90.01339,40.251362 90.01339,90.01339 0,49.76203 -40.25136,89.98437 -90.01339,89.98437 -49.76203,0 -90.01339,-40.22234 -90.01339,-89.98437 0,-49.762028 40.25136,-90.01339 90.01339,-90.01339 z"
         id="path3174"
         style="fill:#001a4b;fill-opacity:1;fill-rule:evenodd;stroke:none"
         inkscape:connector-curvature="0" />
    </g>
    <path
       d="M 96.999765,192.47792 166.99976,167 l 0,-105.000003 -104.999995,38.216873 0,25.52209 35,-12.73896 0,79.47792 z"
       id="path2398"
       style="fill:#001a4b;fill-opacity:1;fill-rule:evenodd;stroke:none"
       inkscape:connector-curvature="0" />
  </g>
</svg>
