<?xml version="1.0" encoding="UTF-8" standalone="no"?>
<!-- Created with Inkscape (http://www.inkscape.org/) -->

<svg
   xmlns:svg="http://www.w3.org/2000/svg"
   xmlns="http://www.w3.org/2000/svg"
   version="1.1"
   width="1024"
   height="580.50323"
   id="svg4532">
  <defs
     id="defs4534">
    <clipPath
       id="clipPath3142">
      <path
         d="m 363.642,256.668 79.788,0 0,45.231 -79.788,0 0,-45.231"
         id="path3144" />
    </clipPath>
  </defs>
  <g
     transform="translate(-863.74499,-206.95227)"
     id="layer1">
    <g
       transform="matrix(10.267352,0,0,10.267352,-2853.5898,-7313.861)"
       id="g4463">
      <g
         transform="matrix(1.25,0,0,-1.25,-92.5,1109.8716)"
         id="g3138">
        <g
           clip-path="url(#clipPath3142)"
           id="g3140">
          <g
             transform="translate(443.256,283.583)"
             id="g3146">
            <path
               d="m 0,0 c -0.116,0.279 -0.281,0.525 -0.477,0.726 l -6.068,6.067 c -0.21,0.212 -0.467,0.389 -0.757,0.509 -0.274,0.113 -0.562,0.169 -0.84,0.174 l -31.561,0 c -2.785,2.786 -4.775,4.777 -4.775,4.777 l -10e-4,0 c -0.088,0.089 -0.67,0.67 -1.318,0.669 -0.416,0 -0.835,-0.192 -0.838,-0.193 -0.095,0.122 -0.221,0.256 -0.413,0.375 -0.191,0.119 -0.914,0.47 -1.675,-0.122 -0.09,-0.07 -0.164,-0.143 -0.241,-0.221 -0.12,0.087 -0.251,0.168 -0.4,0.242 -0.295,0.145 -0.661,0.258 -1.085,0.258 -0.082,0 -2.38,-0.145 -2.976,-0.378 -0.124,0.167 -0.398,0.513 -0.898,0.798 -0.188,0.108 -0.919,0.396 -1.595,-0.063 -0.207,-0.143 -0.358,-0.324 -0.449,-0.481 -0.052,-0.094 -0.091,-0.179 -0.119,-0.256 -0.064,0.013 -0.454,0.086 -0.796,-0.04 -0.499,0.281 -0.882,0.464 -2.489,0.448 0.275,0.422 0.63,1.205 0.328,2.176 -0.063,0.203 -0.368,0.95 -1.419,1.253 -0.131,0.1 -0.283,0.2 -0.459,0.29 -0.345,0.178 -1.291,0.591 -2.91,-0.013 -0.733,-0.273 -1.321,-0.808 -1.708,-1.251 -0.168,-0.191 -0.3,-0.402 -0.413,-0.62 -0.967,0.768 -2.097,1.45 -3.323,1.992 -1.645,0.725 -3.46,1.199 -5.285,1.201 -0.092,0 -0.187,-0.001 -0.281,-0.004 -0.699,-0.019 -1.377,-0.069 -1.884,-0.162 -0.48,-0.089 -1.418,-0.196 -2.171,-1.311 -0.077,-0.117 -0.158,-0.261 -0.213,-0.432 -0.186,-0.587 -0.077,-0.95 -0.019,-1.125 0.051,-0.154 0.128,-0.3 0.22,-0.426 0.162,-0.223 0.359,-0.371 0.53,-0.464 0.26,-0.14 0.466,-0.188 0.635,-0.21 1.086,-0.137 1.574,0.256 1.792,0.496 0.046,0.052 0.09,0.111 0.131,0.174 0.702,0.029 1.629,-0.074 2.33,-0.218 -0.039,-0.061 -0.26,-0.478 -0.337,-0.884 -0.052,-0.275 -0.101,-0.546 -0.131,-0.812 -0.111,-0.029 -1.314,-0.326 -2.108,-0.869 -0.258,-0.177 -0.497,-0.381 -0.733,-0.657 -0.686,-0.807 -0.358,-1.76 -0.281,-1.94 0.333,-0.771 0.908,-1.322 1.122,-1.525 l 17.666,-17.668 -4.904,-4.905 c -0.212,-0.208 -0.388,-0.467 -0.508,-0.756 -0.114,-0.276 -0.171,-0.564 -0.176,-0.843 l 0,-8.815 c 0,-0.475 0.188,-0.964 0.551,-1.326 0.362,-0.364 0.849,-0.551 1.324,-0.551 l 8.812,0 c 0.28,0.004 0.57,0.061 0.848,0.175 0.29,0.12 0.548,0.297 0.755,0.508 l 4.905,4.905 4.91,-4.909 -0.004,0.004 c 0.209,-0.211 0.466,-0.388 0.756,-0.508 0.277,-0.114 0.568,-0.171 0.849,-0.175 l 32.432,0 c 0.278,0.005 0.565,0.061 0.84,0.175 0.29,0.12 0.547,0.297 0.757,0.508 l 6.061,6.062 0.007,0.006 c 0.196,0.201 0.361,0.447 0.476,0.725 0.093,0.224 0.149,0.459 0.168,0.69 l 0.009,0.035 0,17.831 C 0.176,-0.588 0.117,-0.286 0,0"
               id="path3148"
               style="fill:#243f65;fill-opacity:1;fill-rule:nonzero;stroke:none" />
          </g>
        </g>
      </g>
      <g
         transform="matrix(1.25,0,0,-1.25,366.61375,742.7166)"
         id="g3150">
        <path
           d="M 0,0 C -0.001,0.485 1.475,0.67 2.841,0.741 2.831,-0.022 2.822,-1.116 2.823,-1.849 1.144,-1.256 0.001,-0.314 0,0 M 0.762,6.94 C -0.546,6.905 -1.599,6.742 -1.835,6.489 -2.04,6.264 -2.303,6.077 -2.31,5.772 c -0.008,-0.297 0.34,-0.323 0.549,-0.32 0.209,0 0.402,0.017 0.399,0.141 0,0.173 -0.278,0.137 -0.278,0.312 0,0.201 1.079,0.247 1.619,0.248 C 4.611,6.167 9.944,2.961 9.952,0.24 9.958,-1.876 7.206,-2.35 5.688,-2.352 5.15,-2.354 4.626,-2.298 4.131,-2.201 4.107,-1.528 4.068,-0.117 4.049,0.777 4.225,0.779 4.388,0.78 4.528,0.78 5.653,0.785 7.128,0.388 7.129,0.125 7.129,-0.098 6.738,-0.255 6.738,-0.469 6.74,-0.63 7.102,-0.599 7.413,-0.622 7.47,-0.628 8.106,-0.271 8.104,0.286 8.102,1.028 7.176,1.906 4.16,1.895 4.118,1.895 4.073,1.895 4.028,1.894 4,2.725 3.878,4.038 3.403,4.038 3.011,4.035 2.897,2.59 2.865,1.795 1.172,1.538 -0.332,0.851 -0.329,0.174 c 0,-0.556 1.209,-1.952 3.167,-2.803 0.033,-0.627 0.154,-1.057 0.71,-1.055 0.405,0 0.542,0.298 0.585,0.611 0.633,-0.163 1.318,-0.257 2.048,-0.255 2.839,0.009 5.12,1.526 5.112,3.605 C 11.286,3.068 5.66,7.076 0.762,6.94"
           id="path3152"
           style="fill:#b5dc17;fill-opacity:1;fill-rule:nonzero;stroke:none" />
      </g>
      <g
         transform="matrix(1.25,0,0,-1.25,382.00125,740.4341)"
         id="g3154">
        <path
           d="m 0,0 c -0.48,-0.004 -0.493,-1.937 -0.506,-2.644 -0.036,-1.612 0.204,-1.803 0.632,-1.801 0.385,0.001 0.516,0.047 0.483,1.394 C 0.548,-0.493 0.374,0 0,0"
           id="path3156"
           style="fill:#b5dc17;fill-opacity:1;fill-rule:nonzero;stroke:none" />
      </g>
      <g
         transform="matrix(1.25,0,0,-1.25,382.54875,736.3891)"
         id="g3158">
        <path
           d="m 0,0 c -0.508,-0.299 -1.027,-0.718 -1.379,-1.134 -0.017,0.055 -0.026,0.107 -0.026,0.158 0,0.321 0.471,0.822 1.405,0.976 m -0.078,-1.784 c -0.246,0 -0.451,0.033 -0.625,0.086 0.471,0.53 1.605,1.531 2.163,1.533 0.365,0 0.428,-0.29 0.428,-0.402 0.001,-0.667 -1.373,-1.215 -1.966,-1.217 m -0.11,-0.809 c 1.063,0.005 2.755,1.21 2.749,2.212 0,0.452 -0.231,0.683 -0.812,0.764 -0.244,0.234 -0.604,0.496 -1.137,0.494 -1.657,-0.004 -2.73,-1.322 -2.729,-2.04 10e-4,-0.266 0.086,-0.588 0.322,-0.86 0.01,-0.572 0.148,-0.723 0.335,-0.723 0.209,0 0.335,0.12 0.412,0.265 0.236,-0.072 0.519,-0.114 0.86,-0.112"
           id="path3160"
           style="fill:#b5dc17;fill-opacity:1;fill-rule:nonzero;stroke:none" />
      </g>
      <g
         transform="matrix(1.25,0,0,-1.25,389.19375,740.87035)"
         id="g3162">
        <path
           d="m 0,0 c -0.002,0.447 -1.149,0.44 -1.797,0.439 -0.486,-0.002 -2.947,-0.058 -2.944,-1.431 0.004,-0.929 1.381,-0.701 2.294,-0.795 0.745,-0.074 1.649,-0.318 1.652,-0.562 0,-0.545 -1.972,-0.765 -2.378,-0.765 -0.837,-0.003 -0.855,0.241 -0.855,0.364 -0.001,0.121 0.14,0.331 0.451,0.331 0.314,0.002 0.961,-0.398 1.406,-0.396 0.444,0.003 0.814,0.199 0.812,0.4 0,0.364 -1.475,0.54 -1.93,0.539 -0.48,-0.002 -1.169,-0.2 -1.165,-0.918 0,-0.374 0.611,-1.255 2.325,-1.248 1.692,0.006 2.117,0.965 2.116,1.46 -0.003,1.202 -1.143,1.34 -2.138,1.424 -0.744,0.062 -1.546,0.1 -1.544,0.264 C -3.689,-0.343 0.001,-0.749 0,0"
           id="path3164"
           style="fill:#b5dc17;fill-opacity:1;fill-rule:nonzero;stroke:none" />
      </g>
      <g
         transform="matrix(1.25,0,0,-1.25,392.7075,739.59785)"
         id="g3166">
        <path
           d="m 0,0 c -0.139,0 -0.165,-0.147 -0.165,-0.303 0.001,-0.474 0.653,-2.109 0.655,-2.737 0,-0.13 -0.013,-0.364 -0.114,-0.391 -0.156,-0.047 -1.516,2.435 -2.081,2.478 -0.582,0.042 -0.89,-2.435 -0.889,-3.046 0.002,-0.61 0.109,-1.019 0.561,-1.018 0.672,0.002 0.324,2.478 0.594,2.478 0.201,0 1.297,-2.263 1.906,-2.26 C 1.13,-4.798 1.518,-3.83 1.517,-3.2 1.514,-1.759 0.557,0.003 0,0"
           id="path3168"
           style="fill:#b5dc17;fill-opacity:1;fill-rule:nonzero;stroke:none" />
      </g>
      <g
         transform="matrix(1.25,0,0,-1.25,398.41,744.38535)"
         id="g3170">
        <path
           d="m 0,0 c -0.236,0 -1.552,-0.292 -1.639,-0.215 -0.088,0.081 0.078,0.839 0.242,0.892 0.165,0.052 1.194,0.038 1.359,0.048 0.48,0.026 0.39,0.672 0.095,0.698 -0.15,0.012 -1.082,0.014 -1.135,0.099 -0.05,0.086 0.017,0.516 0.12,0.56 0.214,0.088 1.629,0.126 1.735,0.151 0.174,0.046 0.305,0.139 0.346,0.291 0.043,0.149 -0.49,0.764 -1.151,0.693 -1.135,-0.123 -2.604,-0.116 -2.604,-0.485 0,-0.35 0.69,-0.488 0.706,-0.585 C -1.907,2.052 -2.015,1.693 -2.053,1.58 -2.096,1.458 -2.586,1.423 -2.619,1.083 -2.627,1.005 -2.496,0.884 -2.521,0.787 -2.599,0.5 -2.834,-0.086 -2.832,-0.329 c 0,-0.381 0.279,-1.217 1.049,-1.191 1.216,0.039 2.307,0.887 2.324,1.035 C 0.567,-0.262 0.235,0 0,0"
           id="path3172"
           style="fill:#b5dc17;fill-opacity:1;fill-rule:nonzero;stroke:none" />
      </g>
      <g
         transform="matrix(1.25,0,0,-1.25,402.3075,744.71785)"
         id="g3174">
        <path
           d="M 0,0 C 0.556,0.967 1.368,2.248 1.668,2.242 1.878,2.241 1.957,2.03 1.957,1.717 1.96,0.772 0.818,-0.014 0,0 M 1.597,3.149 C 0.934,3.112 -0.342,1.705 -1.085,0.754 -1.132,0.85 -1.16,0.945 -1.16,1.03 c -0.001,0.403 0.755,1.605 0.895,1.905 0.148,0.312 -0.02,0.728 -0.202,0.579 -0.357,-0.291 -1.491,-1.613 -1.487,-2.845 0,-0.28 0.075,-0.624 0.232,-0.94 -0.253,-0.825 -0.873,-2.661 -0.852,-3.775 0.01,-0.574 0.593,-1.14 0.941,-1.065 0.134,0.029 0.162,0.784 0.338,1.294 0.244,0.738 0.638,2.081 0.773,2.656 0.064,-0.006 0.127,-0.011 0.196,-0.009 1.385,0.003 2.924,1.481 2.918,2.753 C 2.589,2.856 1.835,3.164 1.597,3.149"
           id="path3176"
           style="fill:#b5dc17;fill-opacity:1;fill-rule:nonzero;stroke:none" />
      </g>
      <g
         transform="matrix(1.25,0,0,-1.25,422.47125,786.68785)"
         id="g3178">
        <path
           d="M 0,0 0,8.787 C -0.002,8.901 -0.024,9.013 -0.069,9.123 -0.118,9.24 -0.188,9.342 -0.272,9.426 l -5.543,5.542 c -0.192,0.194 -0.192,0.505 0,0.696 l 5.543,5.543 c 0.084,0.084 0.154,0.185 0.203,0.302 0.045,0.111 0.068,0.225 0.069,0.339 l 0,8.784 c 0,0.127 -0.047,0.252 -0.143,0.347 -0.096,0.095 -0.221,0.144 -0.347,0.144 l -8.444,0 c -0.113,-0.002 -0.226,-0.024 -0.335,-0.07 -0.117,-0.048 -0.22,-0.117 -0.303,-0.202 l -5.887,-5.888 c -0.192,-0.191 -0.503,-0.191 -0.694,0.002 l -5.887,5.886 c -0.084,0.085 -0.185,0.154 -0.302,0.202 -0.11,0.046 -0.224,0.068 -0.336,0.07 l -8.443,0 c -0.126,0 -0.251,-0.049 -0.347,-0.144 -0.096,-0.095 -0.144,-0.22 -0.144,-0.346 l 0,-8.785 c 0.002,-0.114 0.025,-0.228 0.07,-0.339 0.048,-0.117 0.119,-0.218 0.202,-0.302 l 5.544,-5.543 0,-10e-4 c 0.192,-0.19 0.192,-0.501 0,-0.695 L -31.34,9.426 c -0.083,-0.085 -0.154,-0.186 -0.202,-0.303 -0.045,-0.11 -0.068,-0.224 -0.07,-0.336 l 0,-8.787 c 10e-4,-0.126 0.049,-0.251 0.144,-0.348 0.096,-0.095 0.221,-0.143 0.347,-0.143 l 8.785,0 c 0.112,0.002 0.227,0.025 0.337,0.07 0.117,0.048 0.219,0.118 0.303,0.202 l 5.543,5.544 c 0.191,0.192 0.502,0.192 0.695,10e-4 l 5.543,-5.545 c 0.084,-0.084 0.186,-0.154 0.302,-0.202 0.111,-0.045 0.226,-0.068 0.338,-0.07 l 8.785,0 c 0.126,0 0.251,0.048 0.347,0.143 C -0.047,-0.251 0,-0.126 0,0"
           id="path3180"
           style="fill:#b5dc17;fill-opacity:1;fill-rule:nonzero;stroke:none" />
      </g>
      <g
         transform="matrix(1.25,0,0,-1.25,451.36,787.30035)"
         id="g3182">
        <path
           d="m 0,0 c 0.112,0.002 0.225,0.024 0.334,0.069 0.117,0.048 0.219,0.119 0.303,0.203 l 6.056,6.057 c 0.078,0.081 0.143,0.178 0.19,0.288 0.048,0.117 0.071,0.237 0.071,0.355 l 0,17.669 c 0,0.118 -0.023,0.239 -0.071,0.355 -0.047,0.111 -0.112,0.207 -0.19,0.288 L 0.637,31.341 C 0.553,31.426 0.451,31.496 0.334,31.544 0.225,31.59 0.112,31.611 0,31.613 l -21.23,0 c -0.126,0 -0.251,-0.048 -0.346,-0.143 -0.096,-0.095 -0.144,-0.221 -0.145,-0.346 l 0,-30.633 C -21.72,0.365 -21.672,0.24 -21.576,0.143 -21.481,0.048 -21.356,0 -21.23,0"
           id="path3184"
           style="fill:#b5dc17;fill-opacity:1;fill-rule:nonzero;stroke:none" />
      </g>
      <g
         transform="matrix(1.25,0,0,-1.25,457.76,786.34035)"
         id="g3186">
        <path
           d="m 0,0 c 0,0.284 0.2,0.43 0.346,0.43 l 0.012,0 L 0.67,0.338 0.685,0.311 0.65,0.195 0.623,0.181 0.336,0.269 C 0.265,0.257 0.181,0.176 0.166,0.05 l 0.407,-0.179 c 0.114,-0.051 0.173,-0.158 0.173,-0.267 0,-0.222 -0.17,-0.345 -0.375,-0.345 -0.188,0 -0.324,0.091 -0.405,0.23 l 0.005,0.031 0.098,0.069 0.03,-0.006 c 0.069,-0.115 0.15,-0.162 0.27,-0.162 0.131,0 0.215,0.077 0.215,0.181 0,0.047 -0.026,0.097 -0.08,0.121 L 0,-0.052"
           id="path3188"
           style="fill:#243f65;fill-opacity:1;fill-rule:nonzero;stroke:none" />
      </g>
      <g
         transform="matrix(1.25,0,0,-1.25,459.85,785.84035)"
         id="g3190">
        <path
           d="m 0,0 0.018,0.014 0.12,0 0.02,-0.022 0,-1.094 -0.02,-0.022 -0.121,0 -0.02,0.022 0,0.764 -0.286,-0.559 -0.022,-0.013 -0.02,0.013 -0.284,0.559 0,-0.764 -0.022,-0.022 -0.117,0 -0.022,0.022 0,1.053 0.013,0.019 0.116,0.057 0.029,-0.01 0.309,-0.627"
           id="path3192"
           style="fill:#243f65;fill-opacity:1;fill-rule:nonzero;stroke:none" />
      </g>
    </g>
  </g>
</svg>
