<?xml version="1.0" encoding="UTF-8" standalone="no"?>
<svg
   xmlns:dc="http://purl.org/dc/elements/1.1/"
   xmlns:cc="http://creativecommons.org/ns#"
   xmlns:rdf="http://www.w3.org/1999/02/22-rdf-syntax-ns#"
   xmlns:svg="http://www.w3.org/2000/svg"
   xmlns="http://www.w3.org/2000/svg"
   xmlns:sodipodi="http://sodipodi.sourceforge.net/DTD/sodipodi-0.dtd"
   xmlns:inkscape="http://www.inkscape.org/namespaces/inkscape"
   width="2088pt"
   height="739pt"
   viewBox="0 0 2088 739"
   version="1.1"
   id="svg2"
   inkscape:version="0.91pre3 r13670"
   sodipodi:docname="disney junior.svg">
  <metadata
     id="metadata48">
    <rdf:RDF>
      <cc:Work
         rdf:about="">
        <dc:format>image/svg+xml</dc:format>
        <dc:type
           rdf:resource="http://purl.org/dc/dcmitype/StillImage" />
      </cc:Work>
    </rdf:RDF>
  </metadata>
  <defs
     id="defs46" />
  <sodipodi:namedview
     pagecolor="#ffffff"
     bordercolor="#666666"
     borderopacity="1"
     objecttolerance="10"
     gridtolerance="10"
     guidetolerance="10"
     inkscape:pageopacity="0"
     inkscape:pageshadow="2"
     inkscape:window-width="1920"
     inkscape:window-height="1017"
     id="namedview44"
     showgrid="false"
     inkscape:zoom="0.13409962"
     inkscape:cx="1305"
     inkscape:cy="461.875"
     inkscape:window-x="-8"
     inkscape:window-y="-8"
     inkscape:window-maximized="1"
     inkscape:current-layer="svg2" />
  <g
     id="#fefefeff">
    <path
       fill="#fefefe"
       opacity="1.00"
       d=" M 165.62 227.84 C 172.41 226.55 179.35 226.71 186.22 226.41 C 186.58 231.95 186.06 237.49 185.95 243.03 C 184.95 266.08 184.23 289.14 183.04 312.18 C 178.17 311.01 173.61 308.93 169.05 306.94 C 145.76 296.54 124.42 281.67 107.06 262.96 C 103.92 259.56 99.46 256.14 99.79 251.00 C 99.76 247.71 102.77 245.81 105.20 244.24 C 113.29 238.91 122.54 235.42 132.12 234.04 C 143.30 232.05 154.46 229.91 165.62 227.84 Z"
       id="path5" />
  </g>
  <g
     id="g4185">
    <path
       d="M 21.55,14.53 C 48.71,4.21 78,0.18 106.97,0.67 c 10.53,-0.15 21.07,0.31 31.58,1.03 13.71,1.75 27.43,3.47 41.08,5.64 13.65,3.02 27.42,5.6 40.92,9.3 18.86,6.42 37.81,12.55 56.58,19.23 12.24,5.49 24.69,10.52 36.8,16.31 7.54,3.58 14.62,8.04 21.97,11.97 11.46,6.39 23.22,12.36 33.93,20 8.72,5.94 17.6,11.66 26.05,17.99 12.09,9.84 24.54,19.34 35.27,30.71 23.65,21.4 42.1,48.29 54.18,77.76 3.99,13.42 7.95,27.33 6.49,41.48 -1.26,15.44 -7.78,29.69 -13.98,43.65 -4.52,9.31 -11.76,16.86 -18.87,24.22 -2.54,2.47 -4.84,5.3 -7.99,7.01 -2.31,1.28 -4.78,2.28 -6.96,3.76 -10.81,7.95 -22.45,14.63 -34.28,20.92 -18.42,7.72 -37.98,12.4 -57.7,15.35 -4.66,0.72 -9.33,1.48 -14.05,1.44 -17.33,-0.02 -34.66,-0.07 -52,0.02 -3.09,0.01 -6.3,-0.16 -9.08,-1.66 -1.59,-0.76 -3.16,-1.7 -4.97,-1.75 -9.52,-0.95 -19.12,-1.27 -28.55,-2.97 -0.94,7.4 -2.65,15.66 -8.74,20.6 -7.48,4.2 -16.47,2.59 -24.58,1.57 -6.51,-0.39 -14.1,-1.45 -18.11,-7.25 -5.94,-10.03 -7.79,-21.76 -9.59,-33.09 -0.03,-1.51 -1.74,-1.86 -2.76,-2.49 -27.34,-13.1 -52.67,-30.47 -74.41,-51.61 -10.7,-9.67 -20.11,-20.65 -29.1,-31.9 -6.85,-8.6 -6.83,-22.66 1.55,-30.27 17.43,-17.33 41,-26.68 64.48,-32.48 15.09,-3.36 30.25,-6.52 45.64,-8.2 0.41,-12.69 2.37,-25.25 3.38,-37.89 1.14,-14.42 4.06,-28.62 6.36,-42.88 0.43,-2.84 2.39,-5.9 5.5,-6.15 3.19,0.1 5.97,1.93 8.85,3.13 3.76,1.82 7.96,3 11.11,5.86 4.32,4.56 7.34,10.37 8.57,16.54 1.94,8.95 4.19,17.86 5.1,26.99 0.96,9.97 2.08,19.93 2.98,29.91 17.82,0.15 35.76,0.91 53.26,4.56 13.38,2.78 27.08,4.4 40,9.05 12.89,4.98 26.35,9.79 36.7,19.32 7.17,6.72 13.31,15.46 14.23,25.5 0.89,8.14 -3.34,15.65 -7.92,22.01 -5.96,7.62 -14.75,14.39 -24.9,13.94 -5.93,0.12 -11.52,-2.01 -17.08,-3.76 -6.04,-1.25 -12.28,-2.91 -16.91,-7.22 7.6,-4.31 15.96,-8.6 20.43,-16.48 1.47,-2.86 2.88,-5.99 2.69,-9.27 -0.12,-1.95 -2.16,-2.39 -3.68,-2.76 -10.64,-2.45 -21.38,-4.43 -32.04,-6.77 -11.61,-2.63 -23.53,-3.37 -35.23,-5.48 -9.22,-0.94 -18.49,-1.48 -27.76,-1.3 2.01,35.1 0.51,70.26 0.65,105.4 18.08,3.42 36.59,3.72 54.94,3.65 12.71,0.15 25.31,-1.87 37.76,-4.24 27.42,-5.6 54.28,-16.08 76.51,-33.34 12.87,-10.05 22.57,-24.44 25.49,-40.64 1.86,-9.67 2.31,-19.89 -0.87,-29.34 -3.71,-11.06 -8.03,-21.9 -12.52,-32.66 -0.86,-2.03 -2.08,-3.88 -3.4,-5.63 -6.48,-8.47 -12.37,-17.44 -19.82,-25.12 -15.34,-18.03 -33.2,-33.75 -52.19,-47.82 C 328.2,100.84 308.02,87.84 285.69,79.35 273.64,74.74 262.03,68.95 249.58,65.45 237.3,61.74 225.09,57.77 212.75,54.24 196.36,50.44 179.92,46.91 163.46,43.45 146.39,41.15 129.18,40.18 112.07,38.24 101.11,37.01 90.06,37.02 79.05,37.49 c -9.11,0.46 -18.46,0.37 -27.2,3.31 -2.81,1.17 -6.09,2.3 -7.55,5.18 3.41,3.82 8.34,5.56 12.61,8.16 1.52,0.83 2.67,3.47 0.94,4.66 C 51.97,63.4 44.04,62.83 37,63.15 26.68,63.75 17.44,58.51 8.11,54.94 5.45,53.78 2.21,52.64 0.97,49.77 -0.58,43.31 2.94,37.18 5.49,31.48 9.11,24.6 13.69,17 21.55,14.53 m 144.07,213.31 c -11.16,2.07 -22.32,4.21 -33.5,6.2 -9.58,1.38 -18.83,4.87 -26.92,10.2 -2.43,1.57 -5.44,3.47 -5.41,6.76 -0.33,5.14 4.13,8.56 7.27,11.96 17.36,18.71 38.7,33.58 61.99,43.98 4.56,1.99 9.12,4.07 13.99,5.24 1.19,-23.04 1.91,-46.1 2.91,-69.15 0.11,-5.54 0.63,-11.08 0.27,-16.62 -6.87,0.3 -13.81,0.14 -20.6,1.43 z"
       id="path8"
       inkscape:connector-curvature="0"
       style="opacity:1;fill:#323232;fill-opacity:1" />
    <path
       d="m 525.94,41.07 c 15.15,-4.57 31.76,-8.57 47.29,-3.4 5.6,1.53 9.35,6.23 14.09,9.23 7.62,1.72 15.62,2.49 22.68,6.11 5.31,2.78 9.2,7.45 13.44,11.55 4.74,4.5 7.87,10.84 7.81,17.44 -1.43,13.47 -6.16,26.86 -14.9,37.36 -12.66,15.67 -30.38,26.22 -48.54,34.35 -18.23,7.69 -38.68,7.98 -57.91,4.54 -3.06,2.48 -4.81,6.28 -8.06,8.58 -2.76,2.1 -6.69,4.13 -10.06,2.22 -4.95,-2.74 -10.67,-5.06 -13.76,-10.09 -3.79,-6.32 -2.92,-14.01 -2.59,-21.03 -7.18,-8.32 -13.78,-18.53 -13.06,-29.98 0.99,-17.26 9.91,-33.45 22.78,-44.77 11.6,-10.48 25.97,-17.45 40.79,-22.11 m -33.7,63.13 c 2.59,-1.39 3.99,-4.06 5.65,-6.35 3.9,-5.65 8.41,-10.85 13.21,-15.75 2.99,-3.08 6.33,-5.85 8.91,-9.3 -13.14,5.71 -24.23,17.31 -27.77,31.4 m 79.57,-23.48 c -12.25,5.16 -22.37,14.15 -31.33,23.77 -6.87,7.41 -14.28,14.88 -17.71,24.62 3.39,0.14 6.82,0.19 10.19,-0.39 16.69,-2.69 33.54,-6.73 48.16,-15.53 9.16,-5.58 17.44,-13.55 21.08,-23.85 0.97,-3.88 2.19,-9.29 -1.47,-12.12 -9.69,-1.39 -19.89,-0.47 -28.92,3.5 z"
       id="path10"
       inkscape:connector-curvature="0"
       style="opacity:1;fill:#323232;fill-opacity:1" />
    <path
       d="m 814.85,158.04 c 0.24,-2.93 3.64,-3.27 5.91,-2.7 4.51,1.17 7.88,4.68 10.69,8.21 7.41,9.59 13.24,20.25 19.23,30.74 5.11,8.38 8.89,17.48 12.44,26.59 5.08,13.44 8.43,27.66 8.44,42.08 -0.14,12.42 1.55,25.09 -1.55,37.28 -2.64,11.27 -8.13,22.17 -16.93,29.87 -5.35,4.67 -13.7,6.51 -20.07,2.88 -6.75,-3.97 -12.95,-9.06 -17.61,-15.39 -15.78,-21.38 -27.14,-45.52 -40.52,-68.38 -1,-1.49 -1.58,-3.58 -3.48,-4.12 -0.7,2.56 -1.26,5.16 -1.4,7.82 -1,22.39 -2.43,44.76 -3.53,67.14 -0.52,6.42 -1.26,13.15 -4.64,18.78 -2.5,3.84 -7.73,3.21 -11.65,2.74 -6.47,-1.72 -13.09,-5.17 -16.29,-11.33 -4.14,-7.73 -3.78,-16.74 -3.74,-25.23 -0.23,-10.1 1.73,-20.06 2.4,-30.1 1.19,-13.73 4.71,-27.1 7.01,-40.66 1.83,-10.59 4.93,-20.93 8.8,-30.95 1.56,-4.26 3.67,-8.74 7.83,-11.02 3.51,-2.18 8.09,-1.16 11.08,1.45 8.45,7 14.78,16.08 20.94,25.06 13.7,19.62 27.37,39.26 41.12,58.85 2.57,3.4 4.54,7.28 7.7,10.21 3.86,-4.32 1.68,-10.64 1.45,-15.83 -3.12,-24.53 -9.12,-48.6 -16.54,-72.16 -2.46,-8 -3.64,-16.31 -5.31,-24.49 -1.03,-5.71 -2.56,-11.5 -1.78,-17.34 z"
       id="path12"
       inkscape:connector-curvature="0"
       style="opacity:1;fill:#323232;fill-opacity:1" />
    <path
       d="m 1247.07,168.92 c 14.59,-3.54 30.68,1.18 41.38,11.63 9,8.6 14.47,20.97 14.16,33.47 0.28,9.12 -3.53,17.62 -7.36,25.67 18.86,-4.81 39.43,-1.94 56.16,8.03 0.02,-8.98 0.63,-18.28 4.9,-26.39 3.22,-7.31 9.15,-12.83 15.19,-17.83 8.41,-7.2 19.34,-11.66 30.51,-11.37 16.63,-0.24 32.64,9.9 40.18,24.62 7.8,14.5 6.65,33.24 -2.74,46.75 -6.52,10.11 -17.58,16.08 -28.5,20.33 -9.72,3.68 -20.32,2.51 -30.16,0.01 2.42,9.85 4.42,20.06 3.06,30.23 -1.7,19.83 -12.7,38.35 -28.6,50.15 -16.77,12.28 -39.07,16.79 -59.22,11.58 -13.42,-3.68 -26.13,-10.97 -35.17,-21.66 -14.75,-16.42 -20.69,-40.31 -15.56,-61.77 2.35,-10.86 7.97,-20.58 14.13,-29.68 -10.31,0.14 -21.01,-1.59 -29.71,-7.46 -11.46,-7.22 -19.16,-19.87 -20.64,-33.29 -1.62,-12.59 3.32,-25.13 10.77,-35.09 6.4,-9.12 16.3,-15.67 27.22,-17.93 z"
       id="path14"
       inkscape:connector-curvature="0"
       style="opacity:1;fill:#323232;fill-opacity:1" />
    <path
       d="m 1058.57,194.57 c 5.85,-7.36 11.93,-15.05 20.51,-19.36 0.99,0.84 2.6,1.41 2.66,2.94 0.57,6.92 -0.18,14.1 -3.35,20.37 -10.16,20.04 -19.35,40.55 -28.98,60.84 -3.61,9.67 -8.24,20.75 -3.27,30.8 1.96,-0.65 2.75,-2.69 3.87,-4.24 5.96,-8.95 12.31,-17.64 18.43,-26.47 9.68,-13.46 20.96,-25.64 32.49,-37.51 7.35,-7.32 14.56,-14.82 22.48,-21.54 7.4,-6.17 17.22,-10.99 27.05,-8.59 7.79,1.69 12.67,8.64 16.77,14.91 6.47,10.97 11.54,23.32 11.38,36.27 0.43,17.29 -5.4,34.35 -14.98,48.63 -10.11,15.54 -23.88,28.28 -38.49,39.52 -15.16,11.43 -34.29,16.89 -53.18,16.42 -6.82,10.46 -11.86,22.06 -15.47,34 -3.43,10.07 -6.87,20.17 -9.02,30.6 -1.5,7.18 -3.35,14.27 -5,21.41 -2.25,9.16 -3.02,18.61 -5.27,27.78 -1.35,5.42 -2.01,11 -3.52,16.38 -0.75,2.83 -4.01,3.93 -6.65,3.84 -5.79,-0.22 -11.05,-3.51 -14.97,-7.6 -6.85,-7.25 -10.19,-16.89 -12.65,-26.35 -1.75,-5.71 -2.21,-11.71 -2.02,-17.65 -0.18,-9.53 3.08,-18.62 5.86,-27.59 1.88,-5.53 2.85,-11.3 4.5,-16.89 6.09,-19.57 12.7,-39.01 21.1,-57.72 1.39,-2.88 2.42,-6.38 0.81,-9.39 -7.44,-15.9 -9.68,-34.16 -6.34,-51.38 4.83,-26.76 17.55,-51.89 35.25,-72.43 m 87.53,29.41 c -11.76,15.28 -23.58,30.53 -35.38,45.78 -9.47,12.55 -19.67,24.73 -27.41,38.43 15.46,1.69 29.94,-5.94 41.97,-14.87 8.96,-6.57 17.49,-14.1 23.61,-23.46 6.82,-13.17 8.95,-29.86 1.62,-43.3 -0.75,-1.79 -2.83,-1.99 -4.41,-2.58 z"
       id="path16"
       inkscape:connector-curvature="0"
       style="opacity:1;fill:#323232;fill-opacity:1" />
    <path
       d="m 628.93,181.62 c 20.71,-2.9 41.85,-3.43 62.62,-0.81 12.21,2.02 25.35,4.23 35.01,12.58 3.87,3.27 0.9,8.57 -1.16,12.01 -3.48,5.91 -10.92,6.81 -17.07,7.72 -27.75,2.81 -55.5,5.6 -83.25,8.39 -11.48,0.87 -23.17,2.76 -33.47,8.16 -0.79,0.35 -1.35,0.92 -1.7,1.7 30.06,3.81 60.03,8.27 90.13,11.77 5.6,0.6 11.4,1.48 16.25,4.57 6.73,4.35 14.23,8.42 18.25,15.7 5.35,6.77 8.29,15.12 9.68,23.55 0.73,11.74 -1.92,24.41 -9.82,33.46 -9.78,9.76 -22.84,15.71 -36.18,18.79 -24.37,5.53 -49.96,2.08 -73.38,-5.9 -11.53,-4.05 -22.83,-9.88 -31.07,-19.11 -5.48,-6.09 -9.3,-13.97 -9.56,-22.25 -0.11,-4.4 2.44,-8.31 5.42,-11.32 5.36,-5.17 11.41,-9.89 18.57,-12.27 9.53,-3.55 19.87,-3.58 29.89,-2.98 16.96,2.03 33.59,6.12 50.13,10.29 4,0.97 7.71,2.84 11.29,4.84 2.04,1.08 3.67,3.9 2.02,5.99 -3.07,5.02 -9.26,6.36 -14.21,8.83 -9.62,4.24 -20.57,2.77 -30.22,-0.57 -9.71,-2.8 -18.91,-7.05 -28.46,-10.26 -5.29,-0.46 -10.9,-0.03 -15.76,2.26 -4.39,2.12 -8.26,7.33 -5.98,12.31 1.13,4.15 5.73,5.49 9.19,7.14 14.97,3.32 30.61,3.07 45.54,-0.34 12.23,-2.51 24.24,-6.03 35.98,-10.28 6.8,-2.46 13.34,-6.71 16.92,-13.16 1.66,-2.82 1.48,-6.69 -0.78,-9.14 -3.99,-4.82 -10.47,-5.88 -15.97,-8.11 -3.71,-1.59 -7.8,-1.56 -11.73,-2.01 -17.62,-1.8 -35.36,-1.34 -53.03,-1.81 -13.97,0.28 -28.07,-2.62 -40.61,-8.85 -5.51,-2.81 -11.81,-5.15 -15.29,-10.61 -2.97,-4.31 -1.4,-9.73 -0.67,-14.47 1.79,-10.22 6.09,-20.97 15.22,-26.72 17.44,-10.39 37.29,-16.12 57.26,-19.09 z"
       id="path18"
       inkscape:connector-curvature="0"
       style="opacity:1;fill:#323232;fill-opacity:1" />
    <path
       d="m 961,183.05 c 7.61,-1.05 15.28,-1.73 22.97,-1.7 5.72,-0.08 12.28,-1.31 17.17,2.48 4.9,4.13 8.53,9.49 12.84,14.19 3.94,4.28 6.66,9.82 6.97,15.68 -2.51,3.38 -6,6.02 -10.11,7.08 -7.47,1.87 -15.25,0.84 -22.85,1.1 -12.99,0.64 -26.01,0.43 -38.99,1.2 -1.83,0.01 -3.48,1.01 -4.31,2.62 -3.29,6.07 -4.54,12.93 -6.29,19.54 15.68,1.69 31.84,-1.36 47.44,2.04 1.34,0.32 3.07,0.74 3.54,2.25 1.89,5.59 2.76,11.56 2.38,17.46 -0.21,3.58 -4.33,4.61 -7.22,5.15 -17.35,2.7 -34.95,0.76 -52.4,1.82 -1.72,1.49 -2.58,3.67 -3.68,5.6 -2.97,5.75 -6.13,11.45 -8.39,17.54 -1.25,3.12 -0.71,6.54 -0.76,9.81 9.52,0.1 18.59,-3.09 27.87,-4.74 13.98,-2.86 28.01,-7.38 42.46,-5.8 5.58,4.93 7.76,12.61 8.86,19.74 0.55,4.19 -3.39,6.96 -6.49,8.91 -11.94,7.42 -24.26,14.3 -37.18,19.85 -11.03,4.67 -22.71,8.57 -34.82,8.47 -6.81,0.01 -13.79,-1.88 -19.16,-6.19 -6.73,-5.26 -12.94,-11.61 -16.37,-19.55 -4.87,-11.04 -5.68,-24.05 -1.24,-35.36 3.43,-9.04 7.95,-17.61 11.43,-26.63 2.42,-4.91 -1.39,-10.11 -0.24,-15.18 3.24,-3.91 9.61,-3.14 12.5,-7.49 4.23,-6.83 5.76,-14.86 8.76,-22.23 -8.33,-2.96 -18.53,-2.5 -24.97,-9.43 -3.64,-3.91 -7.25,-9.26 -6.28,-14.81 3.31,-4.01 8.98,-4.3 13.72,-5.28 20.79,-3.92 41.93,-5.12 62.84,-8.14 z"
       id="path20"
       inkscape:connector-curvature="0"
       style="opacity:1;fill:#323232;fill-opacity:1" />
    <path
       d="m 507.49,182.33 c 1.41,-1.55 3.32,-0.41 4.83,0.31 4.36,2.19 8.78,4.39 12.65,7.4 5.08,3.98 8.35,9.91 9.83,16.12 1.3,4.96 0.8,10.12 1.4,15.17 1.4,19.21 1.71,38.48 3.03,57.69 0.34,17.98 -0.18,35.98 0.32,53.95 -0.24,2.92 0.25,6.37 -1.99,8.66 -3.32,3.79 -8.72,5.08 -13.59,4.59 -5.96,-0.67 -11.72,-2.47 -17.51,-3.92 -2.27,-0.71 -5,-1.23 -6.25,-3.5 -2.83,-4.48 -4.24,-9.71 -5,-14.91 -1.97,-13.54 -1.48,-27.25 -1.49,-40.89 -0.42,-14.96 1.97,-29.79 3.04,-44.68 1.53,-15.08 4.74,-29.92 6.96,-44.9 0.97,-3.73 1.17,-8.1 3.77,-11.09 z"
       id="path22"
       inkscape:connector-curvature="0"
       style="opacity:1;fill:#323232;fill-opacity:1" />
    <path
       d="m 1236.77,402.03 c 54.62,-0.01 109.24,-0.13 163.87,0.06 -0.05,27.97 -0.02,55.94 -0.02,83.91 -0.04,1.78 -0.22,3.55 -0.35,5.33 -54.48,0.24 -108.96,-0.01 -163.43,0.15 -1.15,-9.82 0.8,-19.69 -0.08,-29.52 0.19,-13.64 1.09,-27.31 0.24,-40.95 0.27,-6.34 -0.56,-12.65 -0.23,-18.98 z"
       id="path24"
       inkscape:connector-curvature="0"
       style="opacity:1;fill:#323232;fill-opacity:1" />
  </g>
  <g
     id="#e73435ff">
    <path
       fill="#e73435"
       opacity="1.00"
       d=" M 409.74 351.65 C 421.57 345.36 433.21 338.68 444.02 330.73 C 444.31 332.82 444.60 334.92 444.64 337.04 C 444.64 424.36 444.64 511.68 444.65 599.00 C 444.49 606.38 444.80 613.89 443.10 621.13 C 440.76 629.83 438.22 638.50 434.81 646.85 C 431.64 654.98 427.27 662.56 423.29 670.31 C 414.62 684.76 403.66 697.97 390.24 708.25 C 381.56 714.80 372.74 721.49 362.58 725.59 C 358.68 727.06 355.44 730.61 351.04 730.35 C 296.68 730.31 242.32 730.33 187.96 730.35 C 183.78 730.42 180.10 728.17 176.32 726.71 C 151.68 715.94 127.74 702.27 108.92 682.80 C 114.22 672.03 120.53 661.78 126.20 651.20 C 135.31 635.05 144.12 618.70 153.54 602.75 C 156.30 596.63 159.90 590.95 163.13 585.08 C 170.78 571.35 178.27 557.53 186.28 544.01 C 190.68 549.63 193.06 556.70 198.12 561.88 C 202.89 566.66 208.57 570.91 215.21 572.60 C 221.98 574.47 229.07 575.23 236.08 574.88 C 241.96 574.67 247.48 572.50 253.12 571.08 C 258.55 569.38 264.73 568.19 268.38 563.38 C 273.63 556.89 276.87 548.41 276.29 540.00 C 275.83 518.67 276.06 497.34 275.99 476.00 C 276.72 439.61 275.64 403.18 276.91 366.80 C 279.69 368.30 282.90 368.47 285.99 368.46 C 303.33 368.37 320.66 368.42 337.99 368.44 C 342.71 368.48 347.38 367.72 352.04 367.00 C 371.76 364.05 391.32 359.37 409.74 351.65 Z"
       id="path27" />
    <path
       fill="#e73435"
       opacity="1.00"
       d=" M 1598.37 391.41 C 1638.69 389.39 1679.62 399.05 1714.42 419.60 C 1742.79 436.21 1767.01 460.12 1783.20 488.81 C 1801.55 521.01 1808.98 559.30 1803.68 596.01 C 1798.86 630.66 1782.77 663.40 1759.14 689.10 C 1744.70 704.73 1727.79 718.35 1708.87 728.13 C 1685.94 728.61 1662.95 728.19 1640.00 728.33 C 1596.99 728.34 1553.97 728.31 1510.96 728.35 C 1509.44 728.34 1507.91 728.19 1506.63 727.37 C 1475.16 709.77 1448.39 683.39 1431.60 651.37 C 1414.26 618.69 1408.03 580.23 1414.45 543.78 C 1420.12 510.39 1436.29 479.09 1459.39 454.42 C 1494.96 416.07 1546.31 393.70 1598.37 391.41 M 1600.47 521.74 C 1589.67 523.45 1579.67 529.29 1572.74 537.72 C 1560.67 551.92 1558.23 573.15 1566.01 589.97 C 1571.86 603.01 1583.95 613.13 1597.99 616.09 C 1614.48 619.86 1632.69 613.39 1643.08 600.03 C 1656.91 583.26 1657.42 557.09 1644.22 539.81 C 1634.51 526.21 1616.97 518.97 1600.47 521.74 Z"
       id="path29" />
    <path
       fill="#e73435"
       opacity="1.00"
       d=" M 1062.05 405.09 C 1076.44 398.51 1092.25 395.31 1108.04 394.90 C 1129.83 394.13 1152.25 397.76 1171.44 408.55 C 1187.19 417.12 1199.97 430.59 1208.82 446.09 C 1220.14 466.22 1225.41 489.18 1227.56 512.01 C 1227.21 584.74 1227.67 657.50 1227.32 730.24 C 1195.88 730.46 1164.43 730.27 1133.00 730.33 C 1110.41 730.20 1087.80 730.60 1065.23 730.14 C 1065.25 681.75 1065.24 633.37 1065.29 584.99 C 1065.09 577.08 1066.72 568.17 1061.70 561.35 C 1051.99 547.85 1030.15 547.29 1018.46 558.46 C 1015.18 561.78 1012.69 566.18 1012.78 570.96 C 1012.79 624.02 1012.80 677.08 1012.78 730.14 C 987.86 730.59 962.92 730.20 938.00 730.33 C 908.65 730.26 879.30 730.47 849.95 730.23 C 849.76 622.47 849.93 514.70 849.87 406.94 C 849.42 404.45 851.15 401.55 853.96 402.01 C 897.64 401.92 941.32 402.11 985.00 401.99 C 991.08 401.90 997.16 402.32 1003.25 402.38 C 1000.47 411.35 997.21 420.44 997.39 429.97 C 997.20 435.91 997.66 441.91 999.41 447.62 C 1001.87 457.08 1005.21 466.72 1012.06 473.97 C 1015.98 478.06 1021.24 481.35 1027.03 481.57 C 1029.67 481.66 1032.93 480.56 1033.68 477.73 C 1035.19 472.35 1035.85 466.77 1037.20 461.35 C 1039.45 452.18 1040.22 442.73 1042.47 433.57 C 1044.12 426.43 1045.97 419.34 1047.47 412.16 C 1052.70 410.62 1057.11 407.29 1062.05 405.09 Z"
       id="path31" />
    <path
       fill="#e73435"
       opacity="1.00"
       d=" M 2025.67 402.63 C 2033.73 399.01 2042.70 398.79 2051.33 397.69 C 2063.51 396.30 2075.77 396.53 2088.00 396.85 L 2088.00 548.44 C 2079.95 545.94 2071.97 543.17 2063.75 541.30 C 2056.30 539.52 2048.62 539.11 2041.00 539.04 C 2032.91 539.18 2024.63 539.91 2017.13 543.16 C 2008.05 547.05 1999.31 552.25 1992.72 559.73 C 1981.99 571.75 1976.66 588.02 1976.69 604.01 C 1976.68 635.34 1976.69 666.67 1976.69 698.00 C 1976.57 708.74 1977.29 719.47 1976.95 730.21 C 1953.30 730.50 1929.65 730.25 1906.00 730.33 C 1876.69 730.25 1847.37 730.50 1818.06 730.21 C 1817.95 621.50 1817.98 512.78 1818.05 404.07 C 1840.69 403.27 1863.35 403.83 1886.00 403.67 C 1914.28 403.79 1942.57 403.43 1970.84 403.83 C 1973.82 407.41 1974.65 412.38 1974.73 416.94 C 1974.71 426.35 1975.67 435.76 1975.11 445.18 C 1980.63 435.32 1989.85 428.55 1997.53 420.53 C 2005.39 412.53 2015.43 407.00 2025.67 402.63 Z"
       id="path33" />
    <path
       fill="#e73435"
       opacity="1.00"
       d=" M 469.31 403.97 C 471.52 403.68 473.75 403.58 476.00 403.63 C 524.65 403.78 573.31 403.51 621.96 403.77 C 622.03 457.51 622.02 511.27 621.97 565.01 C 621.27 572.18 621.94 579.82 626.01 585.97 C 631.64 595.02 642.41 600.57 653.06 599.69 C 668.28 599.37 681.67 585.34 680.88 570.06 C 680.40 565.72 680.20 561.36 680.32 557.00 C 680.33 505.99 680.36 454.98 680.30 403.98 C 684.18 403.42 688.10 403.70 692.00 403.67 C 740.69 403.67 789.38 403.67 838.07 403.67 C 839.22 403.72 840.37 403.86 841.53 404.10 C 841.89 464.06 841.57 524.03 841.67 584.00 C 841.97 601.30 840.78 619.08 834.17 635.26 C 831.37 642.74 829.65 650.69 825.68 657.69 C 822.88 662.53 820.59 667.70 817.11 672.12 C 810.52 681.13 801.76 688.14 793.55 695.57 C 783.06 704.79 771.44 712.68 758.97 718.96 C 750.56 723.16 742.54 729.01 733.03 730.31 C 678.01 730.37 622.99 730.30 567.97 730.35 C 563.76 730.37 560.00 728.23 556.14 726.86 C 544.33 721.86 533.01 715.66 522.24 708.70 C 499.07 693.23 480.00 670.97 470.24 644.72 C 468.76 640.98 469.45 636.89 469.33 633.00 C 469.32 556.65 469.36 480.31 469.31 403.97 Z"
       id="path35" />
    <path
       fill="#e73435"
       opacity="1.00"
       d=" M 1236.84 491.48 C 1291.31 491.32 1345.79 491.57 1400.27 491.33 C 1400.36 570.97 1400.43 650.60 1400.23 730.23 C 1348.16 730.49 1296.07 730.23 1244.00 730.36 C 1241.69 730.37 1239.39 730.29 1237.11 730.22 C 1237.13 699.48 1237.13 668.74 1237.14 638.00 C 1237.26 620.34 1236.87 602.66 1237.47 585.00 C 1236.55 553.84 1237.74 522.63 1236.84 491.48 M 1284.43 512.53 C 1276.28 513.79 1270.08 521.82 1270.71 530.02 C 1270.86 538.87 1279.06 546.72 1287.99 545.96 C 1296.95 545.59 1304.14 536.82 1303.26 527.99 C 1302.99 518.68 1293.69 510.76 1284.43 512.53 M 1351.43 512.53 C 1342.91 513.82 1336.63 522.52 1337.79 531.01 C 1338.45 539.49 1346.42 546.69 1355.00 545.96 C 1363.95 545.58 1371.15 536.82 1370.26 527.99 C 1370.00 518.67 1360.69 510.76 1351.43 512.53 Z"
       id="path37" />
  </g>
  <g
     id="#f6e551ff">
    <path
       fill="#f6e551"
       opacity="1.00"
       d=" M 1284.43 512.53 C 1293.69 510.76 1302.99 518.68 1303.26 527.99 C 1304.14 536.82 1296.95 545.59 1287.99 545.96 C 1279.06 546.72 1270.86 538.87 1270.71 530.02 C 1270.08 521.82 1276.28 513.79 1284.43 512.53 Z"
       id="path40" />
    <path
       fill="#f6e551"
       opacity="1.00"
       d=" M 1351.43 512.53 C 1360.69 510.76 1370.00 518.67 1370.26 527.99 C 1371.15 536.82 1363.95 545.58 1355.00 545.96 C 1346.42 546.69 1338.45 539.49 1337.79 531.01 C 1336.63 522.52 1342.91 513.82 1351.43 512.53 Z"
       id="path42" />
  </g>
</svg>
