<?xml version="1.0" encoding="UTF-8" standalone="no"?>
<!-- Created with Inkscape (http://www.inkscape.org/) -->

<svg
   xmlns:dc="http://purl.org/dc/elements/1.1/"
   xmlns:cc="http://creativecommons.org/ns#"
   xmlns:rdf="http://www.w3.org/1999/02/22-rdf-syntax-ns#"
   xmlns:svg="http://www.w3.org/2000/svg"
   xmlns="http://www.w3.org/2000/svg"
   xmlns:xlink="http://www.w3.org/1999/xlink"
   xmlns:sodipodi="http://sodipodi.sourceforge.net/DTD/sodipodi-0.dtd"
   xmlns:inkscape="http://www.inkscape.org/namespaces/inkscape"
   width="125.10042mm"
   height="40.93964mm"
   viewBox="0 0 443.2692 145.06171"
   id="svg2"
   version="1.1"
   inkscape:version="0.91 r13725"
   sodipodi:docname="erf plus.svg">
  <defs
     id="defs4">
    <linearGradient
       inkscape:collect="always"
       id="linearGradient3418">
      <stop
         style="stop-color:#ffcc00;stop-opacity:1;"
         offset="0"
         id="stop3420" />
      <stop
         style="stop-color:#ffcc00;stop-opacity:0;"
         offset="1"
         id="stop3422" />
    </linearGradient>
    <linearGradient
       inkscape:collect="always"
       id="linearGradient3397">
      <stop
         style="stop-color:#ffcc00;stop-opacity:1;"
         offset="0"
         id="stop3399" />
      <stop
         style="stop-color:#ffcc00;stop-opacity:0;"
         offset="1"
         id="stop3401" />
    </linearGradient>
    <linearGradient
       inkscape:collect="always"
       id="linearGradient3372">
      <stop
         style="stop-color:#ffcc00;stop-opacity:1;"
         offset="0"
         id="stop3374" />
      <stop
         style="stop-color:#ffcc00;stop-opacity:0;"
         offset="1"
         id="stop3376" />
    </linearGradient>
    <linearGradient
       inkscape:collect="always"
       xlink:href="#linearGradient3372"
       id="linearGradient3378"
       x1="262.28937"
       y1="482.49496"
       x2="265.77356"
       y2="353.03909"
       gradientUnits="userSpaceOnUse" />
    <linearGradient
       inkscape:collect="always"
       xlink:href="#linearGradient3397"
       id="linearGradient3403"
       x1="382.49329"
       y1="453.68649"
       x2="377.26703"
       y2="371.63696"
       gradientUnits="userSpaceOnUse" />
    <linearGradient
       inkscape:collect="always"
       xlink:href="#linearGradient3418"
       id="linearGradient3424"
       x1="138.38345"
       y1="550.80426"
       x2="139.57901"
       y2="516.92993"
       gradientUnits="userSpaceOnUse" />
    <linearGradient
       inkscape:collect="always"
       xlink:href="#linearGradient3397"
       id="linearGradient3451"
       gradientUnits="userSpaceOnUse"
       x1="382.49329"
       y1="453.68649"
       x2="377.26703"
       y2="371.63696" />
    <linearGradient
       inkscape:collect="always"
       xlink:href="#linearGradient3397"
       id="linearGradient3453"
       gradientUnits="userSpaceOnUse"
       x1="382.49329"
       y1="453.68649"
       x2="377.26703"
       y2="371.63696" />
    <linearGradient
       inkscape:collect="always"
       xlink:href="#linearGradient3397"
       id="linearGradient3455"
       gradientUnits="userSpaceOnUse"
       x1="382.49329"
       y1="453.68649"
       x2="377.26703"
       y2="371.63696" />
    <linearGradient
       inkscape:collect="always"
       xlink:href="#linearGradient3397"
       id="linearGradient3457"
       gradientUnits="userSpaceOnUse"
       x1="382.49329"
       y1="453.68649"
       x2="377.26703"
       y2="371.63696" />
  </defs>
  <sodipodi:namedview
     id="base"
     pagecolor="#ffffff"
     bordercolor="#666666"
     borderopacity="1.0"
     inkscape:pageopacity="0.0"
     inkscape:pageshadow="2"
     inkscape:zoom="2.5092766"
     inkscape:cx="221.6654"
     inkscape:cy="85.682063"
     inkscape:document-units="px"
     inkscape:current-layer="layer1"
     showgrid="false"
     inkscape:snap-text-baseline="true"
     inkscape:window-width="1868"
     inkscape:window-height="946"
     inkscape:window-x="572"
     inkscape:window-y="45"
     inkscape:window-maximized="0"
     fit-margin-top="0"
     fit-margin-left="0"
     fit-margin-right="0"
     fit-margin-bottom="0" />
  <metadata
     id="metadata7">
    <rdf:RDF>
      <cc:Work
         rdf:about="">
        <dc:format>image/svg+xml</dc:format>
        <dc:type
           rdf:resource="http://purl.org/dc/dcmitype/StillImage" />
        <dc:title></dc:title>
      </cc:Work>
    </rdf:RDF>
  </metadata>
  <g
     inkscape:label="Ebene 1"
     inkscape:groupmode="layer"
     id="layer1"
     transform="translate(-92.093396,-435.63163)">
    <text
       xml:space="preserve"
       style="font-style:normal;font-weight:normal;font-size:180px;line-height:125%;font-family:sans-serif;letter-spacing:0px;word-spacing:0px;fill:#000000;fill-opacity:1;stroke:none;stroke-width:1px;stroke-linecap:butt;stroke-linejoin:miter;stroke-opacity:1"
       x="216.64421"
       y="556.74225"
       id="text3347"
       sodipodi:linespacing="125%"><tspan
         sodipodi:role="line"
         id="tspan3349"
         x="216.64421"
         y="556.74225" /></text>
    <text
       xml:space="preserve"
       style="font-style:normal;font-weight:normal;font-size:180px;line-height:125%;font-family:sans-serif;letter-spacing:0px;word-spacing:0px;fill:#000000;fill-opacity:1;stroke:none;stroke-width:1px;stroke-linecap:butt;stroke-linejoin:miter;stroke-opacity:1"
       x="216.30728"
       y="559.10071"
       id="text3351"
       sodipodi:linespacing="125%"><tspan
         sodipodi:role="line"
         id="tspan3353"
         x="216.30728"
         y="559.10071" /></text>
    <text
       xml:space="preserve"
       style="font-style:normal;font-variant:normal;font-weight:bold;font-stretch:normal;font-size:180px;line-height:125%;font-family:sans-serif;-inkscape-font-specification:'sans-serif Bold';letter-spacing:0px;word-spacing:0px;fill:#000000;fill-opacity:1;stroke:none;stroke-width:1px;stroke-linecap:butt;stroke-linejoin:miter;stroke-opacity:1"
       x="215.97037"
       y="534.84198"
       id="text3355"
       sodipodi:linespacing="125%"><tspan
         sodipodi:role="line"
         id="tspan3357"
         x="215.97037"
         y="534.84198" /></text>
    <g
       id="g3435">
      <g
         id="text3359"
         style="font-style:normal;font-variant:normal;font-weight:bold;font-stretch:normal;font-size:164.70794678px;line-height:125%;font-family:Tahoma;-inkscape-font-specification:'Tahoma, Bold';text-align:start;letter-spacing:0px;word-spacing:0px;writing-mode:lr-tb;text-anchor:start;fill:url(#linearGradient3378);fill-opacity:1;stroke:none;stroke-width:1px;stroke-linecap:butt;stroke-linejoin:miter;stroke-opacity:1"
         transform="scale(0.91504412,1.0928435)">
        <g
           style="fill:url(#linearGradient3403);fill-opacity:1"
           id="g3391">
          <path
             d="m 343.71569,446.91503 c 0,5.57605 -0.88466,10.88402 -2.65398,15.92391 -1.76933,5.03989 -4.31608,9.24874 -7.64026,12.62654 -2.03741,2.09102 -4.28927,4.02119 -6.7556,5.79051 -2.41272,1.76933 -5.09351,3.27057 -8.04238,4.50373 -2.94887,1.23317 -6.16583,2.19825 -9.65086,2.89526 -3.43141,0.69701 -7.29176,1.04551 -11.58103,1.04551 l -15.76306,0 0,39.16639 -30.07851,0 1.30656,-59.13516 -1.30656,-60.61588 46.48496,0 c 6.91645,0 12.86781,0.64339 17.85409,1.93017 5.03989,1.23317 9.59723,3.21695 13.67204,5.95136 4.50373,3.00249 7.98877,7.02368 10.4551,12.06357 2.46633,4.98628 3.69949,10.93764 3.69949,17.85409 z m -30.88274,0.72381 c 0,-3.3778 -0.80424,-6.27306 -2.41271,-8.68577 -1.60848,-2.46633 -3.53865,-4.15523 -5.79052,-5.0667 -2.84164,-1.23317 -5.57605,-1.93017 -8.20322,-2.09102 -2.57357,-0.21446 -6.08541,-0.32169 -10.53552,-0.32169 l -4.26246,0 0,35.86901 2.09102,0 c 2.84164,0 5.52243,-0.0268 8.04238,-0.0804 2.51994,-0.0536 4.71819,-0.24126 6.59475,-0.56297 1.60847,-0.26808 3.29737,-0.77743 5.0667,-1.52805 1.82294,-0.80424 3.21695,-1.6889 4.18203,-2.65398 2.03741,-1.98379 3.40461,-4.04801 4.10162,-6.19264 0.75062,-2.14463 1.12593,-5.03989 1.12593,-8.68577 z"
             style="fill:url(#linearGradient3451);fill-opacity:1"
             id="path3381"
             inkscape:connector-curvature="0"
             sodipodi:nodetypes="ssccscscccccscccsscccsccssccccss" />
          <path
             d="m 388.67876,528.86688 -30.32594,0 c 0.99602,-36.51125 3.54993,-60.50197 0.43552,-127.69208 l 30.76146,-2.55265 c -2.17539,46.26866 -3.18813,83.23681 -0.87104,130.24473 z"
             style="fill:url(#linearGradient3453);fill-opacity:1"
             id="path3383"
             inkscape:connector-curvature="0"
             sodipodi:nodetypes="ccccc" />
          <path
             d="m 492.09761,528.86688 -28.14833,0 0,-9.97255 c -4.87904,4.07481 -9.35596,7.18453 -13.43077,9.32916 -4.07481,2.09102 -8.92704,3.13653 -14.55671,3.13653 -8.95385,0 -15.95072,-2.81483 -20.99061,-8.4445 -4.98628,-5.68328 -8.52097,-14.93843 -8.35046,-26.3041 l 0.48527,-32.34631 -0.92079,-25.3495 29.61574,-0.36466 0,44.79606 c 0,4.66458 0.10723,8.47131 0.3217,11.42018 0.26807,2.94887 0.85785,5.44201 1.76932,7.47941 0.85785,1.87656 2.17144,3.29738 3.94077,4.26247 1.82294,0.96508 4.34288,1.44762 7.55983,1.44762 1.98379,0 4.31608,-0.48254 6.99687,-1.44762 2.73441,-0.96509 5.25436,-2.27868 7.55984,-3.94077 l 0,-64.01735 28.14833,0 z"
             style="fill:url(#linearGradient3455);fill-opacity:1"
             id="path3385"
             inkscape:connector-curvature="0"
             sodipodi:nodetypes="ccccscscccscccsccccc" />
          <path
             d="m 541.23655,531.36002 q -9.97255,0 -18.89959,-2.17144 -8.84662,-2.17145 -14.63714,-5.0667 l 0,-23.80545 2.33229,0 q 2.0106,1.52805 4.58416,3.3778 2.57356,1.84975 7.15772,3.86034 3.94076,1.84975 8.84662,3.21696 4.98627,1.28678 10.77679,1.28678 5.95136,0 10.45509,-1.84975 4.58416,-1.84975 4.58416,-5.87094 0,-3.13653 -2.09102,-4.745 -2.09102,-1.60848 -8.12281,-3.05611 -3.21695,-0.80423 -8.1228,-1.6889 -4.90585,-0.96508 -8.68577,-2.17144 -10.61594,-3.29737 -16.00434,-9.73128 -5.30797,-6.51433 -5.30797,-17.04984 0,-6.03179 2.73441,-11.33976 2.81483,-5.3884 8.20323,-9.57043 5.38839,-4.10162 13.26993,-6.51433 7.96195,-2.41272 17.9345,-2.41272 9.49001,0 17.45197,1.93018 7.96196,1.84974 13.43077,4.50373 l 0,22.84036 -2.25186,0 q -1.44763,-1.12593 -4.58416,-2.97568 -3.13653,-1.93017 -6.11221,-3.29738 -3.53865,-1.60847 -7.96195,-2.65398 -4.34289,-1.04551 -8.92705,-1.04551 -6.11221,0 -10.37467,2.09102 -4.18203,2.09101 -4.18203,5.54924 0,3.0561 2.09101,4.82543 2.09102,1.76932 9.08789,3.45822 3.61908,0.88466 8.28366,1.76932 4.745,0.80424 9.08789,2.25187 9.73128,3.13653 14.71755,9.24874 5.0667,6.03178 5.0667,16.08476 0,6.35348 -2.97568,12.14399 -2.97568,5.71009 -8.4445,9.65086 -5.79051,4.26246 -13.67205,6.59475 -7.8011,2.33229 -18.73874,2.33229 z"
             style="fill:url(#linearGradient3457);fill-opacity:1"
             id="path3387"
             inkscape:connector-curvature="0" />
        </g>
      </g>
      <g
         id="g3426">
        <rect
           style="fill:url(#linearGradient3424);fill-opacity:1;stroke:#ffffff;stroke-opacity:0.57647059"
           id="rect3363"
           width="90.296501"
           height="97.035065"
           x="92.654984"
           y="480.93365" />
        <g
           id="g3411"
           transform="translate(4.3548724e-8,-1.5940877)">
          <rect
             y="481.98026"
             x="92.62925"
             height="49.119667"
             width="90.409569"
             id="rect3365"
             style="fill:#000000;fill-opacity:1;stroke:#ffffff;stroke-width:1.07170796;stroke-opacity:0.57647059" />
          <text
             transform="scale(0.88304992,1.1324388)"
             sodipodi:linespacing="125%"
             id="text3369"
             y="469.01944"
             x="149.91467"
             style="font-style:normal;font-variant:normal;font-weight:normal;font-stretch:normal;font-size:35.33375168px;line-height:125%;font-family:sans-serif;-inkscape-font-specification:'sans-serif, Normal';text-align:start;letter-spacing:0px;word-spacing:0px;writing-mode:lr-tb;text-anchor:start;fill:#ffffff;fill-opacity:1;stroke:none;stroke-width:1px;stroke-linecap:butt;stroke-linejoin:miter;stroke-opacity:1"
             xml:space="preserve"><tspan
               y="469.01944"
               x="149.91467"
               id="tspan3373"
               sodipodi:role="line">RF</tspan></text>
          <text
             transform="scale(0.94526393,1.0579056)"
             sodipodi:linespacing="125%"
             id="text3375"
             y="501.74509"
             x="106.93118"
             style="font-style:normal;font-variant:normal;font-weight:bold;font-stretch:normal;font-size:37.02669525px;line-height:125%;font-family:sans-serif;-inkscape-font-specification:'sans-serif, Bold';text-align:start;letter-spacing:0px;word-spacing:0px;writing-mode:lr-tb;text-anchor:start;fill:#ffffff;fill-opacity:1;stroke:none;stroke-width:1px;stroke-linecap:butt;stroke-linejoin:miter;stroke-opacity:1"
             xml:space="preserve"><tspan
               y="501.74509"
               x="106.93118"
               id="tspan3377"
               sodipodi:role="line">E</tspan></text>
        </g>
      </g>
    </g>
  </g>
</svg>
