<?xml version="1.0" encoding="UTF-8" standalone="no"?>
<!-- Created with Inkscape (http://www.inkscape.org/) -->

<svg
   xmlns:dc="http://purl.org/dc/elements/1.1/"
   xmlns:cc="http://creativecommons.org/ns#"
   xmlns:rdf="http://www.w3.org/1999/02/22-rdf-syntax-ns#"
   xmlns:svg="http://www.w3.org/2000/svg"
   xmlns="http://www.w3.org/2000/svg"
   xmlns:sodipodi="http://sodipodi.sourceforge.net/DTD/sodipodi-0.dtd"
   xmlns:inkscape="http://www.inkscape.org/namespaces/inkscape"
   version="1.0"
   width="544.00006"
   height="544"
   id="svg2"
   inkscape:version="0.91pre2 r13516"
   sodipodi:docname="euronews.svg">
  <metadata
     id="metadata27">
    <rdf:RDF>
      <cc:Work
         rdf:about="">
        <dc:format>image/svg+xml</dc:format>
        <dc:type
           rdf:resource="http://purl.org/dc/dcmitype/StillImage" />
      </cc:Work>
    </rdf:RDF>
  </metadata>
  <sodipodi:namedview
     pagecolor="#ffffff"
     bordercolor="#666666"
     borderopacity="1"
     objecttolerance="10"
     gridtolerance="10"
     guidetolerance="10"
     inkscape:pageopacity="0"
     inkscape:pageshadow="2"
     inkscape:window-width="1920"
     inkscape:window-height="1017"
     id="namedview25"
     showgrid="false"
     inkscape:zoom="0.43382353"
     inkscape:cx="272.00003"
     inkscape:cy="272"
     inkscape:window-x="-8"
     inkscape:window-y="-8"
     inkscape:window-maximized="1"
     inkscape:current-layer="svg2" />
  <defs
     id="defs4" />
  <g
     id="g4204">
    <path
       inkscape:connector-curvature="0"
       style="fill:#e4e4e4;fill-opacity:1;fill-rule:nonzero;stroke:none"
       id="path17042"
       d="m 0,2.551806e-8 544.00005,0 L 544.00005,544.00002 0,544.00002 0,2.551806e-8 Z" />
    <path
       d="m 271.99383,124.84397 c -58.22085,0 -105.41945,47.1986 -105.41945,105.45023 0,58.22084 47.1986,105.41943 105.41945,105.41943 58.22085,0 105.41945,-47.19859 105.41945,-105.41943 0,-58.25163 -47.1986,-105.45023 -105.41945,-105.45023"
       id="path17054"
       style="fill:#000000;fill-opacity:1;fill-rule:nonzero;stroke:none"
       inkscape:connector-curvature="0" />
    <path
       d="m 178.7789,378.34632 -0.15394,0 0,23.30681 c 0,2.86332 -1.01602,5.48033 -2.86332,7.35842 -1.75494,1.84731 -4.12565,2.86332 -6.65029,2.86332 -2.52465,0 -4.89536,-1.01601 -6.6503,-2.86332 -1.8473,-1.87809 -2.83253,-4.4951 -2.83253,-7.35842 l 0,-23.30681 -7.60473,0 0,23.30681 c 0,5.08008 1.66257,9.48282 4.86456,12.68481 3.10963,3.10963 7.4508,4.80299 12.223,4.80299 4.7722,0 9.11336,-1.69336 12.22299,-4.80299 3.20199,-3.20199 4.89535,-7.60473 4.89535,-12.68481 l 0,-23.30681 -0.15394,0"
       id="path17058"
       style="fill:#000000;fill-opacity:1;fill-rule:nonzero;stroke:none"
       inkscape:connector-curvature="0" />
    <path
       d="m 243.25902,408.12176 c -2.30913,2.43228 -5.5727,3.75618 -9.17494,3.75618 -3.63303,0 -6.8966,-1.3239 -9.20573,-3.75618 -2.33992,-2.43228 -3.60224,-5.91137 -3.60224,-9.75992 0,-3.84855 1.26232,-7.35842 3.60224,-9.79071 2.30913,-2.43228 5.5727,-3.75618 9.20573,-3.75618 3.60224,0 6.86581,1.3239 9.17494,3.75618 2.33992,2.43229 3.60224,5.94216 3.60224,9.79071 0,3.84855 -1.26232,7.32764 -3.60224,9.75992 m 5.32639,-24.81544 c -3.84855,-3.72539 -9.05179,-5.78822 -14.50133,-5.78822 -5.51112,0 -10.68357,2.06283 -14.53212,5.78822 -4.03328,3.87934 -6.21926,9.20573 -6.21926,15.05552 0,5.81901 2.18598,11.1454 6.21926,15.02473 3.84855,3.7254 9.021,5.75743 14.53212,5.75743 5.44954,0 10.65278,-2.03203 14.50133,-5.75743 4.03328,-3.87933 6.21926,-9.20572 6.21926,-15.02473 0,-5.84979 -2.18598,-11.17618 -6.21926,-15.05552"
       id="path17062"
       style="fill:#000000;fill-opacity:1;fill-rule:nonzero;stroke:none"
       inkscape:connector-curvature="0" />
    <path
       d="m 277.69275,377.51811 c -4.7722,0 -9.11336,1.69336 -12.22299,4.83378 -3.17121,3.20199 -4.89535,7.60473 -4.89535,12.68481 l 0,23.30681 7.60473,0 0,-23.30681 c 0,-2.86332 1.01601,-5.48033 2.83253,-7.38921 1.78573,-1.8473 4.15643,-2.83253 6.68108,-2.83253 2.52465,0 4.89535,0.98523 6.65029,2.83253 1.84731,1.90888 2.86332,4.52589 2.86332,7.38921 l 0,23.30681 7.60473,0 0,-23.30681 c 0,-5.08008 -1.69336,-9.48282 -4.89535,-12.68481 -3.10963,-3.14042 -7.45079,-4.83378 -12.22299,-4.83378"
       id="path17066"
       style="fill:#000000;fill-opacity:1;fill-rule:nonzero;stroke:none"
       inkscape:connector-curvature="0" />
    <path
       d="m 391.67445,378.34632 -0.15394,0 0,25.462 c 0,4.89535 -2.74017,8.06655 -6.95818,8.06655 -5.04929,0 -7.60473,-3.10962 -7.60473,-9.23651 l 0,-24.29204 -7.60473,0 0,24.29204 c 0,6.12689 -2.55544,9.23651 -7.60474,9.23651 -4.218,0 -6.92738,-3.1712 -6.92738,-8.06655 l 0,-25.462 -7.60474,0 0,27.09378 c 0,7.6971 6.31162,13.70083 14.37818,13.70083 4.86457,0 9.05179,-2.00124 11.57644,-5.48033 2.52465,3.47909 6.71187,5.48033 11.57643,5.48033 8.03577,0 14.37818,-6.00373 14.37818,-13.70083 l 0,-27.09378 -0.15394,0"
       id="path17070"
       style="fill:#000000;fill-opacity:1;fill-rule:nonzero;stroke:none"
       inkscape:connector-curvature="0" />
    <path
       d="m 422.33353,394.12844 c -4.86457,-1.35469 -9.05179,-2.52465 -9.05179,-5.20324 0.15395,-2.24755 0.89287,-3.32514 4.55669,-3.32514 l 18.50382,0 0,-7.26606 -17.27229,0 c -8.83627,0 -13.73162,3.87933 -13.73162,10.92987 0,3.57146 1.69336,6.3732 5.17245,8.52839 2.98647,1.8473 6.92739,2.98647 10.40647,4.00249 5.08009,1.44705 9.48283,2.70938 9.48283,5.63427 0,2.52465 -1.41627,3.63303 -4.55668,3.63303 l -20.50507,0 0,7.29685 20.50507,0 c 3.63303,0 6.71187,-0.95444 8.89784,-2.77095 2.33992,-1.93967 3.60224,-4.89536 3.60224,-8.46681 0,-8.52838 -8.86705,-10.99145 -16.00996,-12.9927"
       id="path17074"
       style="fill:#000000;fill-opacity:1;fill-rule:nonzero;stroke:none"
       inkscape:connector-curvature="0" />
    <path
       d="m 192.84611,393.50344 0,24.50756 7.08133,0 0,-24.50756 c 0,-4.52589 1.38548,-9.69834 12.22299,-9.69834 l 0.18473,0 0,-7.08133 -0.18473,0 c -16.77967,0 -19.30432,10.52963 -19.30432,16.77967"
       id="path17078"
       style="fill:#000000;fill-opacity:1;fill-rule:nonzero;stroke:none"
       inkscape:connector-curvature="0" />
    <path
       d="m 138.7232,404.35942 -0.15394,-0.0616 -0.0616,0.15395 c -1.10838,2.06282 -2.74017,3.87933 -4.80299,5.17244 -6.40398,4.06407 -14.93237,2.1244 -18.96565,-4.27958 -1.97045,-3.07884 -2.61701,-6.77345 -1.78572,-10.3449 0.8005,-3.60224 2.95568,-6.65029 6.03452,-8.62075 4.58747,-2.86332 10.40648,-2.80174 14.90158,0.15394 l -12.13062,9.97544 -0.15394,0.0924 0.12315,0.12315 4.15643,5.17245 0.0924,0.15394 0.12315,-0.12315 17.82648,-14.62449 0.0924,-0.0924 -0.0616,-0.12316 -0.12316,-0.15394 c -2.95568,-4.64904 -7.54315,-7.88182 -12.96191,-9.08257 -5.38797,-1.23154 -10.92988,-0.2771 -15.57892,2.67859 -4.64905,2.9249 -7.91262,7.51236 -9.11337,12.90033 -1.23153,5.41876 -0.27709,10.96067 2.67859,15.6405 6.0961,9.63677 18.90407,12.53088 28.54084,6.43478 3.04805,-1.93967 5.54191,-4.61826 7.23527,-7.82025 l 0.0924,-0.15395 -0.15395,-0.0924"
       id="path17082"
       style="fill:#000000;fill-opacity:1;fill-rule:nonzero;stroke:none"
       inkscape:connector-curvature="0" />
    <path
       d="m 333.42282,404.35942 -0.15394,-0.0616 -0.0924,0.15395 c -1.07759,2.06282 -2.74016,3.87933 -4.7722,5.17244 -6.40398,4.06407 -14.93237,2.1244 -18.99643,-4.27958 -1.93967,-3.07884 -2.58623,-6.77345 -1.78573,-10.37569 0.83129,-3.57145 2.98647,-6.6195 6.06531,-8.58996 4.55668,-2.86332 10.37569,-2.80174 14.90158,0.15394 l -12.16141,9.97544 -0.12315,0.0924 0.12315,0.12315 4.15643,5.17245 0.0924,0.15394 0.15394,-0.12315 17.7649,-14.62449 0.15394,-0.0924 -0.12315,-0.12316 -0.0924,-0.15394 0,0 c -6.0961,-9.63676 -18.90407,-12.50008 -28.54083,-6.40398 -4.67984,2.9249 -7.91262,7.51236 -9.11337,12.90033 -1.23153,5.41876 -0.27709,10.96067 2.6478,15.6405 6.12689,9.63677 18.93486,12.53088 28.57163,6.43478 3.04805,-1.93967 5.54191,-4.61826 7.23527,-7.82025 l 0.0924,-0.15395 -0.15395,-0.0924"
       id="path17086"
       style="fill:#000000;fill-opacity:1;fill-rule:nonzero;stroke:none"
       inkscape:connector-curvature="0" />
  </g>
</svg>
