<?xml version="1.0" encoding="UTF-8" standalone="no"?>
<!-- Created with Inkscape (http://www.inkscape.org/) -->
<svg
   xmlns:dc="http://purl.org/dc/elements/1.1/"
   xmlns:cc="http://creativecommons.org/ns#"
   xmlns:rdf="http://www.w3.org/1999/02/22-rdf-syntax-ns#"
   xmlns:svg="http://www.w3.org/2000/svg"
   xmlns="http://www.w3.org/2000/svg"
   xmlns:sodipodi="http://sodipodi.sourceforge.net/DTD/sodipodi-0.dtd"
   xmlns:inkscape="http://www.inkscape.org/namespaces/inkscape"
   version="1.0"
   width="1024"
   height="645"
   id="svg2179"
   sodipodi:version="0.32"
   inkscape:version="0.46"
   sodipodi:docname="Eurosport-Logo.svg"
   inkscape:output_extension="org.inkscape.output.svg.inkscape">
  <metadata
     id="metadata27">
    <rdf:RDF>
      <cc:Work
         rdf:about="">
        <dc:format>image/svg+xml</dc:format>
        <dc:type
           rdf:resource="http://purl.org/dc/dcmitype/StillImage" />
      </cc:Work>
    </rdf:RDF>
  </metadata>
  <sodipodi:namedview
     inkscape:window-height="718"
     inkscape:window-width="1024"
     inkscape:pageshadow="2"
     inkscape:pageopacity="0.0"
     guidetolerance="10.0"
     gridtolerance="10.0"
     objecttolerance="10.0"
     borderopacity="1.0"
     bordercolor="#666666"
     pagecolor="#ffffff"
     id="base"
     showgrid="false"
     inkscape:zoom="0.52307692"
     inkscape:cx="834.4821"
     inkscape:cy="316.94118"
     inkscape:window-x="-8"
     inkscape:window-y="-8"
     inkscape:current-layer="svg2179" />
  <defs
     id="defs2181">
    <inkscape:perspective
       sodipodi:type="inkscape:persp3d"
       inkscape:vp_x="0 : 164 : 1"
       inkscape:vp_y="0 : 1000 : 0"
       inkscape:vp_z="520 : 164 : 1"
       inkscape:persp3d-origin="260 : 109.33333 : 1"
       id="perspective29" />
  </defs>
  <g
     id="g3195">
    <path
       d="M 51.202956,234.6561 L 496.68845,234.6561 L 447.61174,409.03809 L 2.1121925,409.03809 L 51.202956,234.6561"
       style="fill:#0060af;fill-opacity:1;fill-rule:nonzero;stroke:none"
       id="path3255" />
    <path
       d="M 494.59204,234.6561 L 1021.1488,234.6561 L 972.05791,409.03809 L 445.50116,409.03809 L 494.59204,234.6561"
       style="fill:#ffffff;fill-opacity:1;fill-rule:nonzero;stroke:none"
       id="path3257" />
    <path
       d="M 349.60574,115.7291 C 349.62108,115.71434 349.62108,115.71434 349.63549,115.7291 C 349.65085,115.7291 349.65085,115.74446 349.65085,115.74446 L 349.65085,149.2152 L 390.66555,149.2152 C 390.66555,149.2152 390.69579,149.2152 390.69579,149.22973 C 390.69579,149.24402 390.68044,149.25938 390.68044,149.25938 L 349.65085,168.08336 L 349.65085,201.62817 C 349.65085,201.65827 349.62108,201.65827 349.62108,201.65827 L 321.03673,181.19416 L 276.43349,201.62817 C 276.41872,201.64294 276.41872,201.62817 276.40479,201.62817 C 276.40479,201.61329 276.40479,201.58447 276.41872,201.56911 L 304.17581,169.01387 L 276.41872,149.25938 C 276.40479,149.25938 276.38979,149.24402 276.38979,149.22973 C 276.38979,149.2152 276.40479,149.2152 276.41872,149.2152 L 321.03673,149.2152 L 349.60574,115.7291"
       style="fill:#0060af;fill-opacity:1;fill-rule:nonzero;stroke:none"
       id="path3259" />
    <path
       d="M 226.61868,437.79915 C 226.61868,437.78426 226.63404,437.78426 226.64809,437.78426 C 226.66286,437.79915 226.66286,437.8145 226.66286,437.8145 L 226.66286,471.28536 L 267.67898,471.28536 C 267.67898,471.28536 267.7078,471.28536 267.7078,471.30013 C 267.7078,471.31454 267.69339,471.31454 267.67898,471.31454 L 226.66286,490.13899 L 226.66286,523.69809 C 226.66286,523.71297 226.63404,523.72833 226.61868,523.71297 L 198.05003,503.26467 L 153.44702,523.69809 C 153.43214,523.69809 153.41678,523.69809 153.41678,523.6838 C 153.41678,523.66927 153.41678,523.65391 153.43214,523.63914 L 181.18934,491.09878 L 153.41678,471.32907 C 153.41678,471.31454 153.38749,471.31454 153.40202,471.30013 C 153.40202,471.28536 153.41678,471.28536 153.43214,471.28536 L 198.05003,471.28536 L 226.61868,437.79915"
       style="fill:#0060af;fill-opacity:1;fill-rule:nonzero;stroke:none"
       id="path3261" />
    <path
       d="M 301.48857,522.42864 C 301.50334,522.41431 301.51868,522.41431 301.51868,522.41431 C 301.5336,522.42864 301.5336,522.44354 301.5336,522.44354 L 301.5336,555.89948 L 342.54828,555.89948 C 342.54828,555.89948 342.57856,555.89948 342.57856,555.91438 C 342.57856,555.94405 342.56364,555.94405 342.56364,555.94405 L 301.5336,574.76908 L 301.5336,608.32821 C 301.5336,608.34252 301.51868,608.34252 301.50334,608.34252 L 272.9195,587.87985 L 228.31632,608.32821 C 228.30201,608.32821 228.30201,608.32821 228.28754,608.31374 C 228.28754,608.29838 228.30201,608.28405 228.30201,608.26915 L 256.05858,575.71341 L 228.30201,555.94405 C 228.28754,555.94405 228.27218,555.92974 228.27218,555.91438 C 228.27218,555.91438 228.28754,555.89948 228.30201,555.89948 L 272.9195,555.89948 L 301.48857,522.42864"
       style="fill:#0060af;fill-opacity:1;fill-rule:nonzero;stroke:none"
       id="path3271" />
    <path
       d="M 435.13569,553.30109 C 435.15046,553.28617 435.1658,553.28617 435.1658,553.28617 C 435.18072,553.30109 435.18072,553.33121 435.18072,553.33121 L 435.18072,586.7867 L 476.1954,586.7867 L 476.1954,586.7867 C 476.1954,586.7867 476.22568,586.7867 476.22568,586.81652 C 476.22568,586.81652 476.21076,586.83083 476.21076,586.83083 L 435.18072,605.65586 L 435.18072,639.20007 C 435.18072,639.23033 435.1658,639.24466 435.15046,639.23033 L 406.56662,618.76661 L 361.97836,639.21499 C 361.94867,639.21499 361.94867,639.21499 361.93466,639.20007 C 361.93466,639.1856 361.94867,639.15593 361.94867,639.15593 L 389.7057,606.60063 L 361.94867,586.83083 C 361.93466,586.83083 361.9193,586.81652 361.9193,586.81652 C 361.9193,586.7867 361.93466,586.7867 361.96344,586.7867 L 406.56662,586.7867 L 435.13569,553.30109"
       style="fill:#0060af;fill-opacity:1;fill-rule:nonzero;stroke:none"
       id="path3273" />
    <path
       d="M 588.28676,520.56853 C 588.30211,520.56853 588.31617,520.554 588.33093,520.56853 C 588.34582,520.56853 588.33093,520.5977 588.33093,520.5977 L 588.33093,554.05368 L 629.34718,554.05368 L 629.34718,554.05368 C 629.34718,554.05368 629.37588,554.05368 629.37588,554.06856 C 629.37588,554.08392 629.37588,554.09821 629.36111,554.09821 L 588.33093,572.92325 L 588.33093,606.46794 C 588.33093,606.49676 588.31617,606.49676 588.30211,606.49676 L 559.73312,586.03407 L 515.12917,606.46794 C 515.10023,606.48235 515.10023,606.46794 515.08511,606.46794 C 515.08511,606.45258 515.10023,606.42331 515.10023,606.42331 L 542.85741,573.86759 L 515.10023,554.09821 C 515.08511,554.09821 515.07011,554.08392 515.07011,554.06856 C 515.08511,554.05368 515.08511,554.05368 515.11476,554.05368 L 559.73312,554.05368 L 588.28676,520.56853"
       style="fill:#0060af;fill-opacity:1;fill-rule:nonzero;stroke:none"
       id="path3275" />
    <path
       d="M 736.81637,437.79915 C 736.83173,437.78426 736.84566,437.78426 736.84566,437.78426 C 736.86055,437.79915 736.86055,437.8145 736.86055,437.8145 L 736.86055,471.28536 L 777.86143,471.28536 C 777.86143,471.28536 777.90549,471.28536 777.90549,471.30013 C 777.90549,471.31454 777.89155,471.31454 777.87679,471.31454 L 736.86055,490.13899 L 736.86055,523.69809 C 736.86055,523.71297 736.84566,523.72833 736.81637,523.71297 L 708.24785,503.26467 L 663.64437,523.69809 C 663.62984,523.69809 663.61449,523.69809 663.61449,523.6838 C 663.59972,523.66927 663.61449,523.65391 663.62984,523.63914 L 691.38705,491.09878 L 663.61449,471.32907 C 663.61449,471.31454 663.58567,471.31454 663.58567,471.30013 C 663.58567,471.28536 663.61449,471.28536 663.62984,471.28536 L 708.24785,471.28536 L 736.81637,437.79915"
       style="fill:#0060af;fill-opacity:1;fill-rule:nonzero;stroke:none"
       id="path3277" />
    <path
       d="M 493.14506,36.902618 C 493.14506,36.888149 493.16041,36.888149 493.17445,36.888149 C 493.18921,36.902618 493.17445,36.931852 493.17445,36.931852 L 493.17445,70.387777 L 534.19002,70.387777 L 534.19002,70.387777 C 534.19002,70.387777 534.21941,70.387777 534.21941,70.402688 C 534.21941,70.417896 534.21941,70.432809 534.20538,70.432809 L 493.17445,89.242031 L 493.17445,122.80204 C 493.17445,122.83128 493.16041,122.83128 493.14506,122.81651 L 464.57658,102.36815 L 419.97341,122.80204 C 419.95849,122.81651 419.94329,122.80204 419.92839,122.78669 C 419.92839,122.78669 419.94329,122.75746 419.94329,122.75746 L 447.70032,90.186802 L 419.94329,70.432809 C 419.92839,70.432809 419.91435,70.417896 419.91435,70.402688 C 419.91435,70.387777 419.92839,70.387777 419.95849,70.387777 L 464.57658,70.387777 L 493.14506,36.902618"
       style="fill:#0060af;fill-opacity:1;fill-rule:nonzero;stroke:none"
       id="path3287" />
    <path
       d="M 642.84165,3.0334383 C 642.85566,3.0180833 642.85566,3.0180833 642.88535,3.0180833 C 642.88535,3.0334383 642.88535,3.0479073 642.88535,3.0479073 L 642.88535,36.518598 L 683.90063,36.518598 L 683.90063,36.518598 C 683.90063,36.518598 683.91539,36.518598 683.91539,36.533067 C 683.91539,36.547978 683.91539,36.562743 683.90063,36.562743 L 642.88535,55.372407 L 642.88535,88.931978 C 642.88535,88.961803 642.85566,88.961803 642.84165,88.947334 L 614.27258,68.498528 L 569.66866,88.931978 C 569.65465,88.947334 569.63972,88.931978 569.63972,88.917067 C 569.62452,88.917067 569.63972,88.888277 569.63972,88.873364 L 597.41079,56.317771 L 569.63972,36.562743 C 569.62452,36.562743 569.62452,36.547978 569.62452,36.533067 C 569.62452,36.518598 569.62452,36.518598 569.65465,36.518598 L 614.27258,36.518598 L 642.84165,3.0334383"
       style="fill:#0060af;fill-opacity:1;fill-rule:nonzero;stroke:none"
       id="path3289" />
    <path
       d="M 773.37356,36.902367 C 773.37356,36.887839 773.38761,36.887839 773.4025,36.887839 C 773.41785,36.902367 773.4025,36.931542 773.4025,36.931542 L 773.4025,70.387522 L 814.43256,70.387522 L 814.43256,70.387522 C 814.43256,70.387522 814.46268,70.387522 814.46268,70.402404 C 814.46268,70.417641 814.44756,70.432523 814.43256,70.432523 L 773.4025,89.241744 L 773.4025,122.80178 C 773.4025,122.83096 773.4025,122.83096 773.37356,122.81619 L 744.80386,102.3679 L 700.20061,122.80178 C 700.18656,122.81619 700.17179,122.80178 700.17179,122.78643 C 700.15691,122.78643 700.17179,122.75714 700.18656,122.75714 L 727.94293,90.186542 L 700.17179,70.432523 C 700.15691,70.432523 700.15691,70.417641 700.15691,70.402404 C 700.15691,70.387522 700.15691,70.387522 700.18656,70.387522 L 744.80386,70.387522 L 773.37356,36.902367"
       style="fill:#0060af;fill-opacity:1;fill-rule:nonzero;stroke:none"
       id="path3291" />
    <path
       d="M 858.32782,115.7291 C 858.34188,115.71434 858.34188,115.71434 858.372,115.7291 C 858.372,115.7291 858.372,115.74446 858.372,115.74446 L 858.372,149.2152 L 899.37277,149.2152 C 899.37277,149.2152 899.41695,149.2152 899.41695,149.22973 C 899.41695,149.24402 899.40159,149.25938 899.40159,149.25938 L 858.372,168.08336 L 858.372,201.62817 C 858.372,201.65827 858.34188,201.65827 858.34188,201.65827 L 829.77277,181.19416 L 785.15488,201.62817 C 785.14082,201.64294 785.14082,201.62817 785.14082,201.62817 C 785.12547,201.61329 785.14082,201.58447 785.14082,201.56911 L 812.89708,169.01387 L 785.14082,149.25938 C 785.12547,149.25938 785.11118,149.24402 785.11118,149.22973 C 785.11118,149.2152 785.12547,149.2152 785.14082,149.2152 L 829.77277,149.2152 L 858.32782,115.7291"
       style="fill:#0060af;fill-opacity:1;fill-rule:nonzero;stroke:none"
       id="path3293" />
    <path
       d="M 829.52178,279.33352 L 846.64905,279.33352 C 860.43841,279.33352 859.99548,287.36493 857.32314,296.8436 C 854.63676,306.32239 850.50263,314.36905 836.72733,314.36905 L 819.60077,314.36905 L 829.52178,279.33352 z M 860.70416,386.80331 L 853.1151,332.48529 C 868.27825,326.44682 875.64574,313.42436 880.35554,296.8436 C 886.88148,273.76702 884.32774,257.57037 853.66172,257.57037 L 812.91185,257.57037 L 776.25189,386.99478 L 801.04207,386.99478 L 815.45129,336.11742 L 827.80972,336.11742 L 834.21682,386.80331 L 860.70416,386.80331"
       style="fill:#ed174c;fill-opacity:1;fill-rule:nonzero;stroke:none"
       id="path3295" />
    <path
       d="M 628.3875,314.36905 L 611.2458,314.36905 L 621.16693,279.33352 L 638.30851,279.33352 C 652.08358,279.33352 651.65553,287.36493 648.96819,296.8436 C 646.29586,306.32239 642.16186,314.36905 628.3875,314.36905 z M 645.32213,257.57037 L 604.557,257.57037 L 567.91195,386.99478 L 592.68722,386.99478 L 607.09646,336.11742 L 623.07154,336.11742 C 653.73718,336.11742 665.47501,319.93553 672.00071,296.8436 C 678.542,273.76702 675.98777,257.57037 645.32213,257.57037"
       style="fill:#ed174c;fill-opacity:1;fill-rule:nonzero;stroke:none"
       id="path3297" />
    <path
       d="M 394.25399,293.86181 C 398.31405,279.54033 405.12003,277.62039 414.95362,277.62039 C 424.80151,277.62039 430.53005,279.54033 426.46988,293.86181 L 410.43529,350.51272 C 406.37476,364.8337 399.56842,366.75319 389.72123,366.75319 C 379.8731,366.75319 374.15968,364.8337 378.20498,350.51272 L 394.25399,293.86181 z M 353.84391,349.31657 C 344.82247,381.163 359.54221,388.58979 383.53428,388.58979 C 407.51171,388.58979 426.43977,381.163 435.47551,349.31657 L 450.83106,295.07247 C 459.85193,263.2107 445.13134,255.78391 421.13915,255.78391 C 397.16243,255.78391 378.23415,263.2107 369.21283,295.07247 L 353.84391,349.31657"
       style="fill:#ffffff;fill-opacity:1;fill-rule:nonzero;stroke:none"
       id="path3299" />
    <path
       d="M 37.132596,386.80331 L 73.733485,257.57037 L 141.39878,257.57037 L 135.21231,279.40687 L 92.248012,279.40687 L 83.832963,309.1276 L 116.59514,309.1276 L 110.40879,330.94934 L 77.646255,330.94934 L 68.019827,364.96671 L 112.77107,364.96671 L 106.58437,386.80331 L 37.132596,386.80331"
       style="fill:#ffffff;fill-opacity:1;fill-rule:nonzero;stroke:none"
       id="path3301" />
    <path
       d="M 188.92512,257.57037 L 162.76257,349.9806 C 159.26344,362.32367 163.36874,366.75319 175.37139,366.75319 C 187.36081,366.75319 194.15226,362.32367 197.65105,349.9806 L 223.82882,257.57037 L 248.52958,257.57037 L 221.74658,352.18084 C 213.68493,380.63126 194.59519,388.58979 169.18516,388.58979 C 143.76106,388.58979 129.38053,380.63126 137.42695,352.18084 L 164.22424,257.57037 L 188.92512,257.57037"
       style="fill:#ffffff;fill-opacity:1;fill-rule:nonzero;stroke:none"
       id="path3303" />
    <path
       d="M 553.22183,291.54311 C 552.54291,279.36317 548.08398,276.18861 539.49116,276.18861 C 530.72035,276.18861 524.93277,279.54033 522.45236,288.30986 C 516.91563,307.82859 569.93453,315.29908 558.47743,355.75332 C 552.20262,377.94452 533.9685,388.58979 508.01278,388.58979 C 487.96277,388.58979 474.91101,379.68659 475.48683,354.27738 L 501.29573,349.09475 C 499.74466,364.65666 507.70283,368.18509 515.04141,368.18509 C 523.63421,368.18509 531.31153,364.47924 534.04233,354.80853 C 540.93795,330.47723 487.6239,324.05465 497.85541,287.9111 C 504.14513,265.70537 520.20889,255.78391 545.79552,255.78391 C 567.80918,255.78391 578.0994,266.82782 577.24296,285.09183 L 553.22183,291.54311"
       style="fill:#ed174c;fill-opacity:1;fill-rule:nonzero;stroke:none"
       id="path3305" />
    <path
       d="M 715.73275,293.86181 C 719.79293,279.54033 726.59915,277.62039 736.44785,277.62039 C 746.29516,277.62039 752.00883,279.54033 747.94877,293.86181 L 731.91464,350.51272 C 727.85505,364.8337 721.04872,366.75319 711.20011,366.75319 C 701.36757,366.75319 695.63903,364.8337 699.69862,350.51272 L 715.73275,293.86181 z M 675.33755,349.31657 C 666.30182,381.163 681.03644,388.58979 705.01458,388.58979 C 729.00666,388.58979 747.93389,381.163 756.95521,349.31657 L 772.30984,295.07247 C 781.34569,263.2107 766.61152,255.78391 742.63374,255.78391 C 718.64202,255.78391 699.71397,263.2107 690.69312,295.07247 L 675.33755,349.31657"
       style="fill:#ed174c;fill-opacity:1;fill-rule:nonzero;stroke:none"
       id="path3307" />
    <path
       d="M 990.14345,257.57037 L 983.97186,279.40687 L 955.15198,279.40687 L 924.72245,386.80331 L 900.03645,386.80331 L 930.45098,279.40687 L 901.63158,279.40687 L 907.80305,257.57037 L 990.14345,257.57037"
       style="fill:#ed174c;fill-opacity:1;fill-rule:nonzero;stroke:none"
       id="path3309" />
    <path
       d="M 291.96587,279.33352 L 309.10778,279.33352 C 322.88228,279.33352 322.4547,287.36493 319.76701,296.8436 C 317.07991,306.32239 312.96056,314.36905 299.18618,314.36905 L 282.04414,314.36905 L 291.96587,279.33352 z M 323.16339,386.80331 L 315.57454,332.48529 C 330.7371,326.44682 338.10494,313.42436 342.79941,296.8436 C 349.3408,273.76702 346.78659,257.57037 316.12093,257.57037 L 275.3707,257.57037 L 238.7111,386.99478 L 263.48592,386.99478 L 277.89526,336.11742 L 290.26845,336.11742 L 296.66079,386.80331 L 323.16339,386.80331"
       style="fill:#ffffff;fill-opacity:1;fill-rule:nonzero;stroke:none"
       id="path3311" />
  </g>
</svg>
