<?xml version="1.0" encoding="UTF-8" standalone="no"?>
<!-- Created with Inkscape (http://www.inkscape.org/) -->

<svg
   xmlns:dc="http://purl.org/dc/elements/1.1/"
   xmlns:cc="http://creativecommons.org/ns#"
   xmlns:rdf="http://www.w3.org/1999/02/22-rdf-syntax-ns#"
   xmlns:svg="http://www.w3.org/2000/svg"
   xmlns="http://www.w3.org/2000/svg"
   version="1.1"
   width="676.00146"
   height="136.99217"
   id="svg2">
  <metadata
     id="metadata8">
    <rdf:RDF>
      <cc:Work
         rdf:about="">
        <dc:format>image/svg+xml</dc:format>
        <dc:type
           rdf:resource="http://purl.org/dc/dcmitype/StillImage" />
        <dc:title></dc:title>
      </cc:Work>
    </rdf:RDF>
  </metadata>
  <defs
     id="defs6" />
  <path
     d="m 594,28.99217 0,77 26.5,0 c 21.329,0 38.5,-17.171 38.5,-38.5 0,-21.329 -17.171,-38.5 -38.5,-38.5 l -26.5,0 z m -85.125,0.0312 0,77.1875 9.03125,0 0,-37.59375 41.375,0 0,37.59375 9.03125,0 0,-77.1875 -9.03125,0 0,31.375 -41.375,0 0,-31.375 -9.03125,0 z m 94.125,7.9688 16.1875,0 c 16.897,0 30.5,13.603 30.5,30.5 0,16.897 -13.603,30.5 -30.5,30.5 l -16.1875,0 0,-61 z"
     id="rect3022"
     style="font-size:113.1208725px;font-style:normal;font-variant:normal;font-weight:normal;font-stretch:normal;text-align:start;line-height:125%;letter-spacing:0px;word-spacing:0px;writing-mode:lr-tb;text-anchor:start;fill:#808080;fill-opacity:1;fill-rule:nonzero;stroke:none;font-family:Gill Sans MT;-inkscape-font-specification:Gill Sans MT" />
  <g
     transform="matrix(0.82817117,0,0,0.82817117,-39.479589,-268.03268)"
     id="layer1">
    <g
       id="g3191">
      <path
         d="m 53.708208,347.18623 c 0,-10.41539 6.666463,-16.24564 15.624401,-16.24564 8.959251,-4.4e-4 15.623964,5.83025 15.623964,16.24564 l 0,44.1667 44.150927,0 0,-44.1667 c 0,-10.41539 6.66778,-16.24564 15.62309,-16.24564 8.95925,-4.4e-4 15.62659,5.83025 15.62659,16.24564 l 4.4e-4,118.33663 c 0,10.41627 -6.66778,16.25003 -15.62703,16.25003 -8.95531,0 -15.62352,-5.83376 -15.62352,-16.25003 l 4.3e-4,-45.42056 -44.150927,0 0,45.42056 c 0,10.41627 -6.664713,16.25003 -15.623964,16.25003 -8.957938,0 -15.624401,-5.83376 -15.624401,-16.25003 l 0,-118.33663 0,0 z"
         id="path2391"
         style="fill:#ff640a;fill-opacity:1" />
      <path
         d="m 274.56443,352.60627 c 0,8.12567 -5.41522,15.41688 -13.95899,15.41688 -8.54115,0 -21.45772,-8.33319 -33.95882,-8.33319 -8.95618,-4.4e-4 -17.0801,4.78871 -17.0801,13.54132 0,21.45816 69.58173,7.70582 69.58173,61.45782 0,29.79135 -24.58365,48.33285 -53.33258,48.33285 -16.04251,0 -50.62608,-3.75112 -50.62608,-23.33328 4.4e-4,-8.12567 5.41785,-14.79082 13.95943,-14.79082 9.79021,0 21.45816,8.12435 34.99861,8.12435 13.74928,0 21.25064,-7.70887 21.25064,-17.9185 0,-24.58321 -69.58261,-9.78845 -69.58261,-58.12612 0,-29.16397 23.95759,-47.29043 51.66498,-47.29043 11.66708,0 47.08379,6.46157 47.08379,22.91912 l 0,0 z"
         id="path2393"
         style="fill:#ff640a;fill-opacity:1" />
      <path
         d="m 294.55463,350.31217 c 0,-10.41627 5.20769,-18.12209 16.2509,-18.12209 l 53.50727,0.0981 c 10.00035,0 14.79126,7.08282 14.79126,14.37403 0,7.08457 -4.99974,14.37534 -14.7917,14.37534 l -38.50674,-0.0981 0,30.41434 34.16546,0 c 10.20919,0 15.2098,7.08369 15.2098,14.37491 4.4e-4,7.08369 -5.20769,14.37446 -15.2098,14.37446 l -34.16546,0 0,31.66822 38.53958,0 c 10.00166,0 14.79432,7.08282 14.79432,14.3736 0,7.08456 -5.00105,14.37578 -14.79476,14.37578 l -53.74763,0 c -9.16633,0 -16.0425,-6.2488 -16.0425,-15.62441 l 0,-114.58419 0,0 z"
         id="path2395"
         style="fill:#ff640a;fill-opacity:1" />
      <path
         d="m 490.92439,451.71229 c 9.16809,0 15.21024,5.46907 15.21024,15.05263 0,9.58356 -7.08457,13.74928 -14.99878,13.74928 l -69.58305,0 c -9.16808,0 -16.25134,-4.16572 -16.25134,-13.74928 0,-4.37718 2.70914,-8.12348 4.79266,-10.62598 17.292,-20.62414 36.04015,-39.3736 51.87294,-62.29052 3.75156,-5.41785 7.29121,-11.8746 7.29121,-19.37508 0,-8.54334 -6.45719,-16.04163 -14.99658,-16.04163 -23.9611,0 -12.5011,33.74998 -32.50224,33.74998 -10.00211,0 -15.20849,-7.08282 -15.20849,-15.20849 0,-26.2495 23.33415,-47.29174 48.95847,-47.29174 25.62607,0 46.25108,16.87565 46.25108,43.33311 0,28.95908 -31.24967,56.40685 -48.96153,78.69772 l 38.12541,0 0,0 z"
         id="path2397"
         style="fill:#ff640a;fill-opacity:1" />
      <path
         d="m 561.02931,362.85091 -0.4203,0 -28.12331,58.12393 28.54361,0 0,-58.12393 z m -50.20972,85.62512 c -10.20919,0 -14.58637,-6.87486 -14.58637,-12.29226 4.4e-4,-4.58076 1.66848,-7.08369 2.91622,-9.16677 l 46.66963,-84.58139 c 4.58251,-8.33494 10.41583,-12.08431 21.24714,-12.08431 12.0843,0 23.95978,7.708 23.95978,26.66717 l 0,63.95637 3.54009,0 c 8.12523,0 14.58286,5.41697 14.58286,13.75235 0,8.33275 -6.45763,13.74884 -14.5833,13.74884 l -3.53965,0 0,17.7088 c 0,11.04057 -4.37412,16.24871 -15.0001,16.24871 -10.62291,0 -14.99702,-5.20814 -14.99702,-16.24871 l 4.4e-4,-17.7088 -50.20972,0 0,0 z"
         id="path2399"
         style="fill:#ff640a;fill-opacity:1" />
    </g>
  </g>
  <rect
     width="174.16597"
     height="6.3719258"
     x="496.83551"
     y="5.3123636"
     id="rect3035"
     style="fill:#808080;fill-opacity:1;fill-rule:nonzero;stroke:none" />
  <rect
     width="174.16597"
     height="6.3719258"
     x="496.83551"
     y="5.3123636"
     id="rect3037"
     style="fill:#89a02c;fill-opacity:1;fill-rule:nonzero;stroke:none" />
  <rect
     width="174.16597"
     height="6.3719258"
     x="496.83551"
     y="124.60439"
     id="rect3039"
     style="fill:#bc5fd3;fill-opacity:1;fill-rule:nonzero;stroke:none" />
</svg>
