<?xml version="1.0" encoding="UTF-8" standalone="no"?>
<!-- Created with Inkscape (http://www.inkscape.org/) -->
<svg
   xmlns:svg="http://www.w3.org/2000/svg"
   xmlns="http://www.w3.org/2000/svg"
   version="1.0"
   width="712.55902"
   height="436.53543"
   id="svg63728">
  <defs
     id="defs63730">
    <clipPath
       id="clp10">
<path
   d="M 0.5,842.5 L 595.5,842.5 L 595.5,0.5 L 0.5,0.5 L 0.5,842.5 z "
   id="path66372" />

</clipPath>
    <clipPath
       id="clp9">
<path
   d="M -1,843 L 596,843 L 596,-1 L -1,-1 L -1,843 z "
   id="path66366" />

</clipPath>
    <clipPath
       id="clp11">
<path
   d="M 473.94,501.28 L 533.19,501.28 L 533.19,451.22 L 473.94,451.22 L 473.94,501.28 z "
   id="path66380" />

</clipPath>
    <clipPath
       id="clp3">
<path
   d="M 0.5,842.5 L 595.5,842.5 L 595.5,0.5 L 0.5,0.5 L 0.5,842.5 z "
   id="path66260" />

</clipPath>
    <clipPath
       id="clp2">
<path
   d="M -1,843 L 596,843 L 596,-1 L -1,-1 L -1,843 z "
   id="path66254" />

</clipPath>
    <clipPath
       id="clp4">
<path
   d="M 210.04,244.79 L 273,244.79 L 273,181.83 L 210.04,181.83 L 210.04,244.79 z "
   id="path66268" />

</clipPath>
    <clipPath
       id="clp5">
<path
   d="M 210.04,244.79 L 273,244.79 L 273,193.25 L 210.04,193.25 L 210.04,244.79 z "
   id="path66276" />

</clipPath>
    <clipPath
       id="clp6">
<path
   d="M 232.71,228.15 C 232.71,231.12 235.12,233.53 238.1,233.53 C 241.07,233.53 243.48,231.12 243.48,228.15 C 243.48,225.17 241.07,222.76 238.1,222.76 C 235.12,222.76 232.71,225.17 232.71,228.15"
   id="path66288" />

</clipPath>
    <clipPath
       id="clp7">
<path
   d="M 210.04,244.79 L 273,244.79 L 273,193.25 L 210.04,193.25 L 210.04,244.79 z "
   id="path66306" />

</clipPath>
    <clipPath
       id="clp8">
<path
   d="M 210.04,244.79 L 273,244.79 L 273,193.25 L 210.04,193.25 L 210.04,244.79 z "
   id="path66356" />

</clipPath>
    <clipPath
       id="clp13">
<path
   d="M 0.5,842.5 L 595.5,842.5 L 595.5,0.5 L 0.5,0.5 L 0.5,842.5 z "
   id="path66514" />

</clipPath>
    <clipPath
       id="clp12">
<path
   d="M -1,843 L 596,843 L 596,-1 L -1,-1 L -1,843 z "
   id="path66508" />

</clipPath>
  </defs>
  <g
     transform="translate(-5291.357,1262.301)"
     id="layer1">
    <g
       transform="translate(17.75324,17.66548)"
       id="g74300">
      <path
         d="M 5291.3566,-958.79372 L 5291.3566,-1165.4416 C 5291.3566,-1165.4416 5292.9128,-1262.3006 5392.7647,-1262.3006 C 5492.4971,-1262.3006 5865.9242,-1262.3006 5865.9242,-1262.3006 C 5865.9242,-1262.3006 5968.4099,-1261.8217 5968.4099,-1165.4416 C 5968.4099,-1069.0618 5968.4099,-958.79372 5968.4099,-958.79372 C 5968.4099,-958.79372 5968.8888,-861.09692 5865.9242,-861.09692 C 5763.0789,-861.09692 5392.6451,-861.21662 5392.6451,-861.21662 C 5392.6451,-861.21662 5291.3566,-860.49828 5291.3566,-958.79372"
         style="fill:#fed800;fill-rule:nonzero;stroke:none"
         id="path73193" />
      <path
         d="M 5660.3536,-1010.9944 C 5659.6352,-1008.2407 5660.114,-1007.8815 5662.1496,-1007.6422 L 5676.3971,-1006.2054 C 5678.4324,-1005.8462 5679.6296,-1006.6842 5681.1861,-1010.0367 C 5688.0104,-1024.6434 5701.0606,-1069.3013 5649.3387,-1074.6891 C 5640.2395,-1075.6468 5588.9965,-1081.2739 5592.8279,-1006.325 C 5592.9475,-1003.8109 5593.9055,-1003.0925 5596.1801,-1003.332 C 5600.6102,-1003.6912 5621.8016,-1005.487 5621.8016,-1005.487 C 5623.9568,-1005.7265 5624.6752,-1007.283 5624.6752,-1009.0787 C 5624.6752,-1012.3116 5621.9215,-1046.6731 5649.9375,-1045.4758 C 5668.1359,-1044.6378 5664.4242,-1028.1155 5660.3536,-1010.9944"
         style="fill:#304698;fill-rule:nonzero;stroke:none"
         id="path73195" />
      <path
         d="M 5705.0116,-1003.8109 C 5703.0959,-1003.6912 5702.2579,-1005.0081 5702.1382,-1006.325 C 5701.8987,-1013.0297 5703.0959,-1038.5316 5693.6375,-1065.47 C 5692.7995,-1067.5053 5693.2783,-1068.9421 5695.3139,-1069.421 L 5734.4644,-1078.6401 C 5736.3801,-1078.9993 5737.5774,-1078.161 5738.0562,-1077.5625 C 5741.7676,-1073.4919 5741.1691,-1037.454 5725.9637,-1007.8815 C 5724.8861,-1005.7265 5723.8088,-1005.6069 5721.7735,-1005.3673 C 5721.2943,-1005.3673 5705.1312,-1003.8109 5705.0116,-1003.8109"
         style="fill:#f1661f;fill-rule:nonzero;stroke:none"
         id="path73197" />
      <path
         d="M 5447.8391,-1120.5443 C 5452.3885,-1122.6993 5481.123,-1125.5726 5492.1378,-1121.502 C 5493.2155,-1121.0232 5493.3351,-1119.8259 5493.3351,-1119.3471 C 5490.701,-1082.3515 5466.0375,-1001.4164 5391.5675,-998.54302 C 5349.304,-996.98652 5331.824,-1016.023 5331.5845,-1016.3822 C 5331.1056,-1016.861 5329.9084,-1018.1779 5331.4648,-1019.4951 C 5331.4648,-1019.4951 5364.7487,-1046.7927 5364.7487,-1046.7927 C 5365.5868,-1047.5112 5366.6644,-1048.5888 5368.1012,-1047.3912 C 5368.9392,-1046.7927 5390.2506,-1027.1575 5409.0478,-1030.1508 C 5419.9427,-1031.7073 5427.0066,-1037.5739 5433.8309,-1051.7014 C 5442.6909,-1069.7802 5446.5219,-1114.3185 5447.001,-1118.9879 C 5447.001,-1119.7063 5447.1207,-1120.3048 5447.8391,-1120.5443"
         style="fill:#ea1b22;fill-rule:nonzero;stroke:none"
         id="path73199" />
      <path
         d="M 5847.127,-1058.1668 C 5859.5784,-1078.6401 5896.3347,-1080.5555 5907.3493,-1078.161 C 5909.3849,-1077.5625 5909.3849,-1076.2456 5909.0257,-1074.6891 C 5908.9058,-1074.6891 5903.8775,-1053.0186 5902.4406,-1048.3492 C 5901.9618,-1047.0323 5901.2434,-1046.4335 5900.4053,-1046.5532 C 5892.9822,-1047.0323 5862.0928,-1051.2226 5868.558,-1011.5932 C 5868.7975,-1009.6775 5868.4383,-1009.1987 5867.1214,-1008.5999 C 5867.1214,-1008.5999 5851.078,-1002.8532 5851.078,-1002.8532 C 5850.3596,-1002.6136 5849.1623,-1002.7333 5848.923,-1003.5716 C 5848.8031,-1003.5716 5834.5557,-1037.6935 5847.127,-1058.1668"
         style="fill:#015dab;fill-rule:nonzero;stroke:none"
         id="path73201" />
      <path
         d="M 5835.6333,-1056.73 C 5830.6047,-1076.4849 5806.42,-1084.9856 5781.6365,-1075.6468 C 5756.7334,-1066.308 5740.69,-1042.6022 5745.7186,-1022.8473 C 5750.7472,-1003.0925 5775.0515,-994.59202 5799.835,-1003.9305 C 5824.738,-1013.2693 5840.7815,-1036.8555 5835.6333,-1056.73 z M 5804.624,-1029.9112 C 5794.4474,-1023.9249 5783.193,-1025.8406 5779.3617,-1034.1018 C 5775.4107,-1042.3629 5780.5589,-1053.9763 5790.7357,-1059.9626 C 5800.7929,-1065.9488 5812.1667,-1064.0335 5815.9981,-1055.7723 C 5819.8294,-1047.3912 5814.6812,-1035.7779 5804.624,-1029.9112"
         style="fill:#ea368c;fill-rule:evenodd;stroke:none"
         id="path73203" />
      <path
         d="M 5714.47,-1142.8134 C 5705.9693,-1152.9902 5685.9751,-1151.0745 5669.812,-1138.2639 C 5653.6489,-1125.6926 5647.4231,-1107.135 5655.9238,-1096.9581 C 5664.4242,-1086.6617 5684.299,-1088.697 5700.5818,-1101.388 C 5716.7449,-1114.0789 5722.9707,-1132.6365 5714.47,-1142.8134 z M 5698.5465,-1115.1565 C 5690.8838,-1108.9307 5681.3057,-1107.7334 5677.1152,-1112.5225 C 5673.0446,-1117.3118 5675.7983,-1126.2911 5683.341,-1132.5169 C 5691.0037,-1138.7428 5700.5818,-1139.94 5704.772,-1135.151 C 5708.9626,-1130.362 5706.2088,-1121.3824 5698.5465,-1115.1565"
         style="fill:#018fd2;fill-rule:evenodd;stroke:none"
         id="path73205" />
      <path
         d="M 5785.8271,-1183.6403 C 5762.8397,-1196.2113 5736.9786,-1194.8944 5728.1189,-1180.7666 C 5719.259,-1166.5192 5730.7527,-1144.729 5753.8601,-1132.1577 C 5776.9672,-1119.5864 5802.8282,-1121.0232 5811.6879,-1135.151 C 5820.4279,-1149.3984 5808.9342,-1171.069 5785.8271,-1183.6403 z M 5779.7209,-1151.0745 C 5775.4107,-1144.2502 5762.9593,-1143.6514 5751.9444,-1149.6377 C 5740.9296,-1155.7439 5735.4221,-1166.16 5739.6127,-1172.9846 C 5743.9228,-1179.809 5756.3742,-1180.4074 5767.3891,-1174.3015 C 5778.5236,-1168.1953 5783.9114,-1157.7792 5779.7209,-1151.0745"
         style="fill:#018fd2;fill-rule:evenodd;stroke:none"
         id="path73207" />
      <path
         d="M 5588.6373,-1067.266 C 5591.1518,-1067.3857 5591.7502,-1066.9068 5590.7926,-1060.0825 C 5578.9396,-970.88622 5429.5207,-986.92942 5496.448,-1070.259 C 5498.7229,-1073.1327 5498.1241,-1073.1327 5502.5539,-1073.3719 C 5510.0967,-1073.7311 5529.2531,-1075.168 5531.408,-1075.4072 C 5533.204,-1075.5272 5533.4436,-1074.21 5533.0844,-1073.4919 C 5496.3284,-1015.4245 5563.1357,-1020.2135 5566.8471,-1063.7939 C 5567.0867,-1065.5899 5567.2063,-1066.1884 5569.4812,-1066.1884 C 5569.4812,-1066.1884 5588.6373,-1067.266 5588.6373,-1067.266"
         style="fill:#32ad42;fill-rule:nonzero;stroke:none"
         id="path73209" />
    </g>
  </g>
</svg>
