<?xml version="1.0" encoding="UTF-8" standalone="no"?>
<!-- Created with Inkscape (http://www.inkscape.org/) -->

<svg
   xmlns:dc="http://purl.org/dc/elements/1.1/"
   xmlns:cc="http://creativecommons.org/ns#"
   xmlns:rdf="http://www.w3.org/1999/02/22-rdf-syntax-ns#"
   xmlns:svg="http://www.w3.org/2000/svg"
   xmlns="http://www.w3.org/2000/svg"
   xmlns:sodipodi="http://sodipodi.sourceforge.net/DTD/sodipodi-0.dtd"
   xmlns:inkscape="http://www.inkscape.org/namespaces/inkscape"
   version="1.0"
   width="578.01965"
   height="588.6496"
   id="svg1883"
   inkscape:version="0.91pre3 r13670"
   sodipodi:docname="kabel eins schweiz.svg">
  <metadata
     id="metadata19">
    <rdf:RDF>
      <cc:Work
         rdf:about="">
        <dc:format>image/svg+xml</dc:format>
        <dc:type
           rdf:resource="http://purl.org/dc/dcmitype/StillImage" />
        <dc:title></dc:title>
      </cc:Work>
    </rdf:RDF>
  </metadata>
  <sodipodi:namedview
     pagecolor="#ffffff"
     bordercolor="#666666"
     borderopacity="1"
     objecttolerance="10"
     gridtolerance="10"
     guidetolerance="10"
     inkscape:pageopacity="0"
     inkscape:pageshadow="2"
     inkscape:window-width="1920"
     inkscape:window-height="1017"
     id="namedview17"
     showgrid="false"
     inkscape:zoom="0.40091763"
     inkscape:cx="289.00983"
     inkscape:cy="294.3248"
     inkscape:window-x="-8"
     inkscape:window-y="-8"
     inkscape:window-maximized="1"
     inkscape:current-layer="svg1883" />
  <defs
     id="defs1885" />
  <g
     id="g4179">
    <polygon
       points="12.3982,195.198 12.3982,210.923 18.9505,202.733 25.1752,202.733 17.9676,210.596 25.5028,222.717 19.6057,222.717 19.6057,222.717 14.3638,214.199 12.3982,216.82 12.3982,222.717 7.48395,222.717 7.48395,195.198 "
       transform="matrix(3.105238,0,0,3.105238,1.7755,-111.9068)"
       style="fill:#e4e4e4;fill-opacity:1"
       id="_138402184" />
    <path
       d="m 121.66067,553.23207 -12.20775,0 c -6.10415,0 -9.15595,3.05208 -9.15595,7.12125 0,4.06941 3.0518,7.12149 9.15595,7.12149 4.06917,0 7.12124,0 10.17304,-3.05208 1.01736,-2.03471 2.03471,-4.06941 2.03471,-8.13858 l 0,-3.05208 0,0 z m 0,26.45048 0,-6.10387 c -4.06942,4.06917 -8.13858,6.10387 -15.25983,6.10387 -7.121239,0 -12.208023,-1.01737 -15.25982,-5.0865 -4.069414,-4.06941 -5.086783,-8.13858 -5.086783,-14.24273 0,-10.17304 6.104152,-17.29425 20.346603,-17.29425 l 15.25983,0 0,-4.06942 c 0,-6.10387 -3.05208,-9.15595 -11.19066,-9.15595 -6.10387,0 -9.15567,1.01737 -12.207748,5.08679 L 88.088975,524.7472 c 6.103873,-6.10387 12.208025,-8.13858 22.381035,-8.13858 17.29453,0 26.45048,7.12124 26.45048,22.38103 l 0,40.6929 -15.25982,0 z"
       style="fill:#e4e4e4;fill-opacity:1"
       id="_23114416"
       inkscape:connector-curvature="0" />
    <path
       d="m 177.61333,530.85262 c -9.15595,0 -10.17329,7.12125 -10.17329,17.29453 0,10.17329 1.01736,18.3119 10.17329,18.3119 9.15595,0 10.17329,-8.13858 10.17329,-18.3119 0,-10.17328 -1.01736,-17.29453 -10.17329,-17.29453 m 19.32923,43.74504 c -3.05207,3.0518 -9.15594,5.08651 -14.24273,5.08651 -7.12124,0 -12.20774,-1.01737 -16.27716,-6.10387 l 0,6.10387 -15.25982,0 0,-85.45491 16.27716,0 0,28.48491 c 4.06941,-4.06917 8.13858,-6.10388 15.25982,-6.10388 5.08679,0 11.19066,2.03471 14.24273,6.10388 7.12125,6.10387 7.12125,16.27716 7.12125,25.43311 0,9.15595 0,20.34632 -7.12125,26.45048 l 0,-10e-5 z"
       style="fill:#e4e4e4;fill-opacity:1"
       id="_140267704"
       inkscape:connector-curvature="0" />
    <path
       d="m 251.87789,535.939 c -2.03471,-4.06916 -5.08678,-6.10387 -11.19066,-6.10387 -5.0865,0 -8.13858,2.03471 -10.17329,6.10387 -1.01708,2.03471 -1.01708,4.06942 -1.01708,7.12149 l 23.3984,0 c 0,-3.05207 0,-5.08678 -1.01735,-7.12149 m -22.38104,17.29453 c 0,8.13858 5.08651,14.24274 13.22509,14.24274 7.12124,0 10.17329,-2.03471 14.24245,-6.10416 l 9.15595,9.15595 c -6.10387,6.10388 -12.20775,9.15595 -23.3984,9.15595 -14.24246,0 -28.48519,-6.10387 -28.48519,-31.5371 0,-20.34633 11.19066,-31.53711 26.45048,-31.53711 17.29453,0 27.46782,12.20774 27.46782,29.50227 l 0,7.12125 -38.65835,0 1.5e-4,2.1e-4 z"
       style="fill:#e4e4e4;fill-opacity:1"
       id="_140805544"
       inkscape:connector-curvature="0" />
    <path
       d="m 298.67476,579.68249 c -13.22509,0 -18.3119,-9.15595 -18.3119,-18.3119 l 0,-67.14301 15.25982,0 0,66.12574 c 0,4.06941 1.01736,6.10415 5.08678,6.10415 l 6.10388,0 0,13.22508 -8.13858,0 0,-6e-5 z"
       style="fill:#e4e4e4;fill-opacity:1"
       id="_139325656"
       inkscape:connector-curvature="0" />
    <path
       d="m 380.0618,535.939 c -1.01737,-4.06916 -5.08678,-6.10387 -10.17328,-6.10387 -5.08651,0 -9.15595,2.03471 -10.17329,6.10387 -1.01709,2.03471 -1.01709,4.06942 -2.03443,7.12149 l 24.41574,0 c 0,-3.05207 -1.01737,-5.08678 -2.03474,-7.12149 m -22.38103,17.29453 c 0,8.13858 5.0865,14.24274 14.24245,14.24274 7.12125,0 10.17329,-2.03471 14.24246,-6.10416 l 9.15595,9.15595 c -6.10388,6.10388 -12.20803,9.15595 -23.39841,9.15595 -15.25982,0 -29.50227,-6.10387 -29.50227,-31.5371 0,-20.34633 11.19037,-31.53711 27.46754,-31.53711 17.29452,0 27.46781,12.20774 27.46781,29.50227 l 0,7.12125 -39.67562,0 9e-5,2.1e-4 z"
       style="fill:#e4e4e4;fill-opacity:1"
       id="_139072448"
       inkscape:connector-curvature="0" />
    <path
       d="m 409.56156,517.62742 15.25983,0 0,62.05662 -15.25983,0 0,-62.05662 z m -1.01736,-23.39841 16.27716,0 0,12.20775 -16.27716,0 0,-12.20775 z"
       style="fill:#e4e4e4;fill-opacity:1"
       id="_138866992"
       inkscape:connector-curvature="0" />
    <path
       d="m 475.68761,579.68249 0,-37.64076 c 0,-8.13858 -5.08651,-11.19066 -10.17329,-11.19066 -5.0865,0 -10.17304,3.05208 -10.17304,11.19066 l 0,37.64076 -16.27716,0 0,-62.05663 15.25982,0 0,5.08651 c 4.06917,-4.06917 10.17304,-6.10388 15.25983,-6.10388 7.12124,0 11.19037,2.03471 15.25982,5.08651 5.0865,5.08678 6.10387,11.19065 6.10387,18.3119 l 0,39.67562 -15.25982,0 -3e-5,-3e-5 z"
       style="fill:#e4e4e4;fill-opacity:1"
       id="_138892520"
       inkscape:connector-curvature="0" />
    <path
       d="m 526.55451,579.68249 c -10.17329,0 -18.3119,-1.01737 -26.45048,-8.13858 l 10.17329,-10.17329 c 5.0865,5.08679 11.19038,5.08679 16.27716,5.08679 5.0865,0 11.19038,-1.01737 11.19038,-6.10416 0,-3.05179 -2.03443,-5.0865 -6.10388,-6.10387 l -10.17328,0 c -11.19038,-2.03471 -18.31162,-6.10387 -18.31162,-18.3119 0,-12.20774 11.19037,-19.32896 24.41574,-19.32896 9.15567,0 17.29425,2.03471 23.3984,7.12125 l -9.15595,10.17328 c -4.06941,-4.06941 -9.15595,-4.06941 -15.25982,-4.06941 -6.10415,0 -8.13858,2.03471 -8.13858,5.08678 0,3.0518 1.01737,5.08651 6.10387,6.10388 l 10.17329,1.01737 c 12.20775,1.01733 18.31162,7.12124 18.31162,18.31162 0,13.22536 -12.20775,19.32923 -26.4502,19.32923 l 6e-5,-3e-5 z"
       style="fill:#e4e4e4;fill-opacity:1"
       id="_138632984"
       inkscape:connector-curvature="0" />
    <path
       inkscape:connector-curvature="0"
       id="_138289920"
       style="fill:#eb5a00"
       d="m 288.50138,8.96583 c -118.00929,0 -215.672445,93.59374 -219.741549,210.58575 0,177.0141 250.261069,191.25658 258.399589,51.88325 -18.31162,6.10415 -33.57135,8.13858 -51.88325,10.17329 1.01736,-6.10387 2.03471,-45.77928 2.03471,-51.88325 44.762,-9.15595 76.29911,-34.58893 81.3858,-70.19546 23.3984,-3.05179 69.17787,-12.20774 91.55887,-19.32895 11.19066,25.43311 17.29453,52.90052 17.29453,82.40308 0,113.94018 -93.59373,207.53392 -208.55119,207.53392 -38.65835,0 -74.26456,-10.17329 -105.80167,-28.48519 37.64076,28.48519 84.43794,45.77928 135.30391,45.77928 122.0787,0 220.75913,-97.66284 220.75913,-219.74154 0,-121.06143 -98.68043,-218.72458 -220.75913,-218.72458 l 2.5e-4,4e-4 z" />
  </g>
</svg>
