<?xml version="1.0" encoding="UTF-8" standalone="no"?>
<!-- Created with Inkscape (http://www.inkscape.org/) -->
<svg
   xmlns:svg="http://www.w3.org/2000/svg"
   xmlns="http://www.w3.org/2000/svg"
   version="1.0"
   width="578.01965"
   height="588.6496"
   id="svg1883">
  <defs
     id="defs1885">
  
  
 
   
   
   
   
   
   
   
   
   
   
  </defs>
  <g
     transform="translate(165.1167,-358.6742)"
     id="layer1">
    <g
       id="g2100">
      <g
         id="g2089">
        <polygon
           points="19.6057,222.717 14.3638,214.199 12.3982,216.82 12.3982,222.717 7.48395,222.717 7.48395,195.198 12.3982,195.198 12.3982,210.923 18.9505,202.733 25.1752,202.733 17.9676,210.596 25.5028,222.717 19.6057,222.717 "
           transform="matrix(3.105238,0,0,3.105238,-163.3412,246.7674)"
           style="fill:#0d1208"
           id="_138402184" />
        <path
           d="M -43.456034,911.90627 L -55.663781,911.90627 C -61.767933,911.90627 -64.81973,914.95835 -64.81973,919.02752 C -64.81973,923.09693 -61.767933,926.14901 -55.663781,926.14901 C -51.594615,926.14901 -48.542538,926.14901 -45.490742,923.09693 C -44.473385,921.06222 -43.456028,919.02752 -43.456028,914.95835 L -43.456028,911.90627 L -43.456034,911.90627 z M -43.456034,938.35675 L -43.456034,932.25288 C -47.525449,936.32205 -51.594615,938.35675 -58.715857,938.35675 C -65.837099,938.35675 -70.923883,937.33938 -73.97568,933.27025 C -78.045094,929.20084 -79.062463,925.13167 -79.062463,919.02752 C -79.062463,908.85448 -72.958311,901.73327 -58.715857,901.73327 L -43.456034,901.73327 L -43.456034,897.66385 C -43.456034,891.55998 -46.508108,888.5079 -54.646691,888.5079 C -60.750564,888.5079 -63.802361,889.52527 -66.854438,893.59469 L -77.027725,883.4214 C -70.923852,877.31753 -64.819699,875.28282 -54.646691,875.28282 C -37.352161,875.28282 -28.196212,882.40406 -28.196212,897.66385 L -28.196212,938.35675 L -43.456034,938.35675 z "
           style="fill:#0d1208"
           id="_23114416" />
        <path
           d="M 12.496628,889.52682 C 3.3406785,889.52682 2.3233405,896.64807 2.3233405,906.82135 C 2.3233405,916.99464 3.3406972,925.13325 12.496628,925.13325 C 21.652578,925.13325 22.669916,916.99467 22.669916,906.82135 C 22.669916,896.64807 21.652559,889.52682 12.496628,889.52682 M 31.825865,933.27186 C 28.773792,936.32366 22.669916,938.35837 17.583132,938.35837 C 10.46189,938.35837 5.3753857,937.341 1.3059713,932.2545 L 1.3059713,938.35837 L -13.953851,938.35837 L -13.953851,852.90346 L 2.3233094,852.90346 L 2.3233094,881.38837 C 6.3927238,877.3192 10.46189,875.28449 17.583132,875.28449 C 22.669916,875.28449 28.773789,877.3192 31.825865,881.38837 C 38.947107,887.49224 38.947107,897.66553 38.947107,906.82148 C 38.947107,915.97743 38.947107,927.1678 31.825865,933.27196 L 31.825865,933.27186 z "
           style="fill:#0d1208"
           id="_140267704" />
        <path
           d="M 86.76119,894.6132 C 84.726476,890.54404 81.674406,888.50933 75.570533,888.50933 C 70.484029,888.50933 67.431952,890.54404 65.397245,894.6132 C 64.380162,896.64791 64.380162,898.68262 64.380162,901.73469 L 87.778565,901.73469 C 87.778565,898.68262 87.778565,896.64791 86.761208,894.6132 M 64.380174,911.90773 C 64.380174,920.04631 69.466678,926.15047 77.605259,926.15047 C 84.726501,926.15047 87.778546,924.11576 91.847712,920.04631 L 101.00366,929.20226 C 94.899789,935.30614 88.795915,938.35821 77.605259,938.35821 C 63.362805,938.35821 49.120072,932.25434 49.120072,906.82111 C 49.120072,886.47478 60.310729,875.284 75.570551,875.284 C 92.865081,875.284 103.03837,887.49174 103.03837,904.78627 L 103.03837,911.90752 L 64.380019,911.90752 L 64.380174,911.90773 z "
           style="fill:#0d1208"
           id="_140805544" />
        <path
           d="M 133.55806,938.35669 C 120.33297,938.35669 115.24616,929.20074 115.24616,920.04479 L 115.24616,852.90178 L 130.50598,852.90178 L 130.50598,919.02752 C 130.50598,923.09693 131.52334,925.13167 135.59276,925.13167 L 141.69664,925.13167 L 141.69664,938.35675 L 133.55806,938.35675 L 133.55806,938.35669 z "
           style="fill:#0d1208"
           id="_139325656" />
        <path
           d="M 214.9451,894.6132 C 213.92773,890.54404 209.85832,888.50933 204.77182,888.50933 C 199.68531,888.50933 195.61587,890.54404 194.59853,894.6132 C 193.58144,896.64791 193.58144,898.68262 192.5641,901.73469 L 216.97984,901.73469 C 216.97984,898.68262 215.96247,896.64791 214.9451,894.6132 M 192.56407,911.90773 C 192.56407,920.04631 197.65057,926.15047 206.80652,926.15047 C 213.92777,926.15047 216.97981,924.11576 221.04898,920.04631 L 230.20493,929.20226 C 224.10105,935.30614 217.9969,938.35821 206.80652,938.35821 C 191.5467,938.35821 177.30425,932.25434 177.30425,906.82111 C 177.30425,886.47478 188.49462,875.284 204.77179,875.284 C 222.06631,875.284 232.2396,887.49174 232.2396,904.78627 L 232.2396,911.90752 L 192.56398,911.90752 L 192.56407,911.90773 z "
           style="fill:#0d1208"
           id="_139072448" />
        <path
           d="M 244.44486,876.30162 L 259.70469,876.30162 L 259.70469,938.35824 L 244.44486,938.35824 L 244.44486,876.30162 z M 243.4275,852.90321 L 259.70466,852.90321 L 259.70466,865.11096 L 243.4275,865.11096 L 243.4275,852.90321 z "
           style="fill:#0d1208"
           id="_138866992" />
        <path
           d="M 310.57091,938.35669 L 310.57091,900.71593 C 310.57091,892.57735 305.4844,889.52527 300.39762,889.52527 C 295.31112,889.52527 290.22458,892.57735 290.22458,900.71593 L 290.22458,938.35669 L 273.94742,938.35669 L 273.94742,876.30006 L 289.20724,876.30006 L 289.20724,881.38657 C 293.27641,877.3174 299.38028,875.28269 304.46707,875.28269 C 311.58831,875.28269 315.65744,877.3174 319.72689,880.3692 C 324.81339,885.45598 325.83076,891.55985 325.83076,898.6811 L 325.83076,938.35672 L 310.57094,938.35672 L 310.57091,938.35669 z "
           style="fill:#0d1208"
           id="_138892520" />
        <path
           d="M 361.43781,938.35669 C 351.26452,938.35669 343.12591,937.33932 334.98733,930.21811 L 345.16062,920.04482 C 350.24712,925.13161 356.351,925.13161 361.43778,925.13161 C 366.52428,925.13161 372.62816,924.11424 372.62816,919.02745 C 372.62816,915.97566 370.59373,913.94095 366.52428,912.92358 L 356.351,912.92358 C 345.16062,910.88887 338.03938,906.81971 338.03938,894.61168 C 338.03938,882.40394 349.22975,875.28272 362.45512,875.28272 C 371.61079,875.28272 379.74937,877.31743 385.85352,882.40397 L 376.69757,892.57725 C 372.62816,888.50784 367.54162,888.50784 361.43775,888.50784 C 355.3336,888.50784 353.29917,890.54255 353.29917,893.59462 C 353.29917,896.64642 354.31654,898.68113 359.40304,899.6985 L 369.57633,900.71587 C 381.78408,901.7332 387.88795,907.83711 387.88795,919.02749 C 387.88795,932.25285 375.6802,938.35672 361.43775,938.35672 L 361.43781,938.35669 z "
           style="fill:#0d1208"
           id="_138632984" />
      </g>
      <path
         d="M 123.38468,367.64003 C 5.3753857,367.64003 -92.287765,461.23377 -96.356869,578.22578 C -96.356869,755.23988 153.9042,769.48236 162.04272,630.10903 C 143.7311,636.21318 128.47137,638.24761 110.15947,640.28232 C 111.17683,634.17845 112.19418,594.50304 112.19418,588.39907 C 156.95618,579.24312 188.49329,553.81014 193.57998,518.20361 C 216.97838,515.15182 262.75785,505.99587 285.13885,498.87466 C 296.32951,524.30777 302.43338,551.77518 302.43338,581.27774 C 302.43338,695.21792 208.83965,788.81166 93.88219,788.81166 C 55.22384,788.81166 19.617628,778.63837 -11.91948,760.32647 C 25.721284,788.81166 72.518463,806.10575 123.38443,806.10575 C 245.46313,806.10575 344.14356,708.44291 344.14356,586.36421 C 344.14356,465.30278 245.46313,367.63963 123.38443,367.63963 L 123.38468,367.64003 z "
         style="fill:#eb5a00"
         id="_138289920" />
    </g>
  </g>
</svg>
