<?xml version="1.0" encoding="UTF-8" standalone="no"?>
<!-- Created with Inkscape (http://www.inkscape.org/) -->
<svg
   xmlns:svg="http://www.w3.org/2000/svg"
   xmlns="http://www.w3.org/2000/svg"
   version="1.0"
   width="885.82672"
   height="205.51181"
   id="svg2016">
  <defs
     id="defs2018" />
  <g
     transform="translate(-3333.949,3077.364)"
     id="layer1">
    <g
       transform="translate(17.71641,17.76431)"
       id="g4581">
      <path
         d="M 3869.6987,-3077.3635 L 4184.3428,-3077.3635 L 4184.3428,-2907.3813 L 3869.6987,-2907.3813 L 3869.6987,-3077.3635 z "
         style="fill:#e64414;fill-rule:evenodd;stroke:none"
         id="path3053" />
      <path
         d="M 3793.255,-3077.3635 L 3861.3125,-3077.3635 L 3861.3125,-2907.3813 L 3793.255,-2907.3813 L 3793.255,-3077.3635 z "
         style="fill:#6f9acc;fill-rule:evenodd;stroke:none"
         id="path3055" />
      <path
         d="M 3333.9491,-3077.3635 L 3784.7076,-3077.3635 L 3784.7076,-2907.3813 L 3333.9491,-2907.3813 L 3333.9491,-3077.3635 z "
         style="fill:#0063ac;fill-rule:evenodd;stroke:none"
         id="path3057" />
      <path
         d="M 3436.519,-3021.079 C 3432.4872,-3031.0782 3421.0367,-3039.6256 3406.1995,-3038.9805 C 3391.2011,-3038.3354 3381.5246,-3028.175 3375.0737,-3017.8535 L 3375.0737,-3035.5938 L 3333.9491,-3035.5938 L 3333.9491,-3025.2723 L 3348.6251,-3025.2723 C 3355.8824,-3025.2723 3356.6886,-3022.0468 3356.6886,-3015.1119 L 3356.6886,-2972.3744 C 3356.6886,-2972.3744 3372.6549,-2998.0171 3377.009,-3004.6292 C 3382.3309,-3012.8543 3390.072,-3028.0139 3405.8771,-3028.4978 C 3429.9068,-3029.4652 3432.1645,-3003.1779 3432.6484,-2998.3394 L 3432.9707,-2998.1783 C 3432.9707,-2998.1783 3443.9374,-3027.5299 3465.2255,-3028.4978 C 3486.5137,-3029.6264 3490.8678,-3008.661 3491.6745,-3000.5975 C 3491.9968,-2997.372 3491.8356,-2989.9532 3491.8356,-2989.9532 L 3500.867,-2989.9532 C 3500.867,-2989.9532 3500.867,-2993.0175 3500.867,-2993.0175 C 3500.867,-3018.1762 3494.0933,-3039.7868 3465.5479,-3038.9805 C 3452.1624,-3038.4966 3442.8083,-3030.1103 3436.519,-3021.079"
         style="fill:white;fill-rule:evenodd;stroke:none"
         id="path3059" />
      <path
         d="M 3528.9285,-2973.6646 C 3528.9285,-2973.9874 3528.2834,-2977.5352 3527.9606,-2980.1156 C 3527.4771,-2984.4701 3527.7994,-2989.9532 3527.9606,-2991.2434 C 3529.2508,-3010.4351 3538.4433,-3027.3688 3558.9252,-3027.2076 C 3575.375,-3027.046 3584.4063,-3015.4347 3588.7608,-3011.0802 L 3607.9521,-2989.4697 L 3607.9521,-3077.3635 L 3567.9566,-3077.3635 L 3567.9566,-3067.3643 L 3579.4067,-3067.3643 C 3586.5028,-3067.3643 3589.4059,-3062.3651 3589.4059,-3055.2691 L 3589.4059,-3025.1107 C 3580.0518,-3035.2711 3568.1177,-3039.1417 3554.0872,-3039.1417 C 3523.4449,-3039.1417 3508.9305,-3015.4347 3507.1564,-2991.0822 C 3506.9952,-2989.4697 3506.6729,-2983.3411 3507.963,-2973.6646 L 3528.9285,-2973.6646"
         style="fill:white;fill-rule:evenodd;stroke:none"
         id="path3061" />
      <path
         d="M 3689.3954,-3028.4978 C 3694.0722,-3028.659 3700.5232,-3027.3688 3701.6518,-3022.3692 C 3694.0722,-3022.3692 3688.9115,-3018.8213 3688.9115,-3010.7574 C 3688.9115,-3004.4681 3695.0397,-3000.5975 3700.8455,-3000.5975 C 3709.2318,-3000.5975 3712.6184,-3007.0484 3712.6184,-3015.4347 C 3712.6184,-3030.7554 3703.1036,-3039.4644 3688.7503,-3038.9805 C 3673.7519,-3038.3354 3664.8817,-3028.0139 3658.4308,-3017.6923 L 3658.4308,-3035.5938 L 3617.4674,-3035.5938 L 3617.4674,-3025.2723 L 3632.1434,-3025.2723 C 3639.2391,-3025.2723 3640.2069,-3021.8852 3640.2069,-3015.1119 L 3640.2069,-2972.3744 C 3640.2069,-2972.3744 3656.1732,-2997.8559 3660.3661,-3004.4681 C 3665.8492,-3012.6927 3673.5903,-3027.8527 3689.3954,-3028.4978"
         style="fill:white;fill-rule:evenodd;stroke:none"
         id="path3063" />
      <path
         d="M 3894.3735,-2950.6027 L 3894.3735,-2943.3455 L 3904.2112,-2943.3455 L 3904.2112,-2937.7008 L 3894.3735,-2937.7008 L 3894.3735,-2924.315 L 3886.7936,-2924.315 L 3886.7936,-2956.4086 L 3904.6951,-2956.4086 L 3904.6951,-2950.6027 L 3894.3735,-2950.6027 z "
         style="fill:white;fill-rule:evenodd;stroke:none"
         id="path3065" />
      <path
         d="M 3910.3394,-2924.315 L 3910.3394,-2956.4086 L 3928.7248,-2956.4086 L 3928.7248,-2950.6027 L 3917.7582,-2950.6027 L 3917.7582,-2943.6679 L 3927.9181,-2943.6679 L 3927.9181,-2938.0236 L 3917.7582,-2938.0236 L 3917.7582,-2930.1208 L 3929.0472,-2930.1208 L 3929.0472,-2924.315 L 3910.3394,-2924.315 z "
         style="fill:white;fill-rule:evenodd;stroke:none"
         id="path3067" />
      <path
         d="M 3950.0126,-2924.315 L 3947.4322,-2933.6691 C 3946.6259,-2936.2495 3945.6585,-2937.2169 3944.0455,-2937.2169 L 3942.5942,-2937.2169 L 3942.5942,-2924.315 L 3935.0142,-2924.315 L 3935.0142,-2956.4086 L 3946.7871,-2956.4086 C 3951.9479,-2956.4086 3956.7863,-2953.8282 3956.7863,-2948.1835 C 3956.7863,-2943.9906 3954.3671,-2941.0875 3950.3353,-2940.2812 C 3952.593,-2939.6361 3953.722,-2938.3459 3954.6898,-2935.2816 L 3958.0765,-2924.315 L 3950.0126,-2924.315 z M 3944.6906,-2950.7639 L 3942.5942,-2950.7639 L 3942.5942,-2942.8616 L 3944.6906,-2942.8616 C 3947.4322,-2942.8616 3948.884,-2944.3129 3948.884,-2946.8933 C 3948.884,-2949.6349 3947.271,-2950.7639 3944.6906,-2950.7639"
         style="fill:white;fill-rule:evenodd;stroke:none"
         id="path3069" />
      <path
         d="M 3977.4294,-2924.315 L 3969.5266,-2947.6996 L 3969.5266,-2924.315 L 3963.0757,-2924.315 L 3963.0757,-2956.4086 L 3972.9137,-2956.4086 L 3980.816,-2933.024 L 3980.816,-2956.4086 L 3987.267,-2956.4086 L 3987.267,-2924.315 L 3977.4294,-2924.315 z "
         style="fill:white;fill-rule:evenodd;stroke:none"
         id="path3071" />
      <path
         d="M 4001.9426,-2923.8315 C 3999.201,-2923.8315 3995.6532,-2924.315 3993.3952,-2925.1216 L 3993.7179,-2931.2499 C 3996.1367,-2929.9597 3998.8787,-2929.3146 4000.8136,-2929.3146 C 4004.2006,-2929.3146 4005.3293,-2931.411 4005.3293,-2933.1851 C 4005.3293,-2935.4432 4003.7167,-2936.4106 4001.6203,-2937.3785 L 3998.7171,-2938.8298 C 3994.6854,-2940.7651 3993.234,-2943.6679 3993.234,-2947.6996 C 3993.234,-2953.667 3998.556,-2956.8925 4004.523,-2956.8925 C 4007.4261,-2956.8925 4009.3614,-2956.2474 4011.9418,-2955.7635 L 4011.619,-2949.6349 C 4009.8449,-2950.6027 4007.2645,-2951.409 4005.3293,-2951.409 C 4003.0716,-2951.409 4000.9752,-2950.28 4000.9752,-2948.0224 C 4000.9752,-2946.0871 4002.1038,-2945.2808 4004.2006,-2944.3129 L 4006.9422,-2943.0228 C 4010.8128,-2941.2486 4013.0704,-2939.1522 4013.0704,-2933.8302 C 4013.0704,-2927.8632 4008.3936,-2923.8315 4001.9426,-2923.8315"
         style="fill:white;fill-rule:evenodd;stroke:none"
         id="path3073" />
      <path
         d="M 4018.8763,-2924.315 L 4018.8763,-2956.4086 L 4037.2617,-2956.4086 L 4037.2617,-2950.6027 L 4026.4563,-2950.6027 L 4026.4563,-2943.6679 L 4036.6166,-2943.6679 L 4036.6166,-2938.0236 L 4026.4563,-2938.0236 L 4026.4563,-2930.1208 L 4037.7452,-2930.1208 L 4037.7452,-2924.315 L 4018.8763,-2924.315 z "
         style="fill:white;fill-rule:evenodd;stroke:none"
         id="path3075" />
      <path
         d="M 4058.5495,-2924.315 L 4058.5495,-2937.862 L 4051.2922,-2937.862 L 4051.2922,-2924.315 L 4043.7123,-2924.315 L 4043.7123,-2956.4086 L 4051.2922,-2956.4086 L 4051.2922,-2943.829 L 4058.5495,-2943.829 L 4058.5495,-2956.4086 L 4066.2906,-2956.4086 L 4066.2906,-2924.315 L 4058.5495,-2924.315 z "
         style="fill:white;fill-rule:evenodd;stroke:none"
         id="path3077" />
      <path
         d="M 4073.5479,-2924.315 L 4073.5479,-2956.4086 L 4091.7717,-2956.4086 L 4091.7717,-2950.6027 L 4080.9667,-2950.6027 L 4080.9667,-2943.6679 L 4091.1266,-2943.6679 L 4091.1266,-2938.0236 L 4080.9667,-2938.0236 L 4080.9667,-2930.1208 L 4092.2556,-2930.1208 L 4092.2556,-2924.315 L 4073.5479,-2924.315 z "
         style="fill:white;fill-rule:evenodd;stroke:none"
         id="path3079" />
      <path
         d="M 4112.576,-2924.315 L 4104.6736,-2947.6996 L 4104.6736,-2924.315 L 4098.2227,-2924.315 L 4098.2227,-2956.4086 L 4108.0603,-2956.4086 L 4115.963,-2933.024 L 4115.963,-2956.4086 L 4122.4136,-2956.4086 L 4122.4136,-2924.315 L 4112.576,-2924.315 z "
         style="fill:white;fill-rule:evenodd;stroke:none"
         id="path3081" />
    </g>
  </g>
</svg>
