<?xml version="1.0" encoding="utf-8"?>
<!-- Generator: Adobe Illustrator 17.0.0, SVG Export Plug-In . SVG Version: 6.00 Build 0)  -->
<svg version="1.2" baseProfile="tiny" id="svg2016" xmlns:svg="http://www.w3.org/2000/svg"
	 xmlns="http://www.w3.org/2000/svg" xmlns:xlink="http://www.w3.org/1999/xlink" x="0px" y="0px" width="885.827px"
	 height="205.512px" viewBox="0 0 885.827 205.512" xml:space="preserve">
<g id="layer1" transform="translate(-3333.949,3077.364)">
	<g id="g4581" transform="translate(17.71641,17.76431)">
		<path id="path3053" fill="#E64414" d="M3869.699-3077.364h314.644v169.982h-314.644V-3077.364z"/>
		<path id="path3055" fill="#6F9ACC" d="M3793.255-3077.364h68.058v169.982h-68.058V-3077.364z"/>
		<path id="path3057" fill="#0063AC" d="M3333.949-3077.364h450.758v169.982h-450.758V-3077.364z"/>
		<path id="path3059" fill="#FFFFFF" d="M3436.519-3021.079c-4.032-9.999-15.482-18.546-30.32-17.901
			c-14.998,0.645-24.675,10.805-31.126,21.127v-17.74h-41.125v10.322h14.676c7.257,0,8.064,3.225,8.064,10.16v42.737
			c0,0,15.966-25.643,20.32-32.255c5.322-8.225,13.063-23.385,28.868-23.869c24.03-0.967,26.287,25.32,26.771,30.158l0.322,0.161
			c0,0,10.967-29.352,32.255-30.32c21.288-1.129,25.642,19.837,26.449,27.9c0.322,3.225,0.161,10.644,0.161,10.644h9.031v-3.064
			c0-25.159-6.774-46.769-35.319-45.963C3452.162-3038.497,3442.808-3030.11,3436.519-3021.079"/>
		<path id="path3061" fill="#FFFFFF" d="M3528.928-2973.665c0-0.323-0.645-3.871-0.968-6.451c-0.484-4.355-0.161-9.838,0-11.128
			c1.29-19.192,10.483-36.125,30.965-35.964c16.45,0.162,25.481,11.773,29.835,16.127l19.191,21.61v-87.894h-39.996v9.999h11.45
			c7.096,0,9.999,4.999,9.999,12.095v30.158c-9.354-10.16-21.288-14.031-35.319-14.031c-30.642,0-45.157,23.707-46.931,48.059
			c-0.161,1.613-0.484,7.741,0.806,17.418H3528.928"/>
		<path id="path3063" fill="#FFFFFF" d="M3689.396-3028.498c4.677-0.161,11.128,1.129,12.256,6.129
			c-7.58,0-12.74,3.548-12.74,11.612c0,6.289,6.128,10.16,11.934,10.16c8.386,0,11.773-6.451,11.773-14.837
			c0-15.321-9.515-24.03-23.868-23.546c-14.998,0.645-23.869,10.967-30.319,21.288v-17.901h-40.964v10.322h14.676
			c7.096,0,8.063,3.387,8.063,10.16v42.737c0,0,15.966-25.481,20.159-32.094C3665.849-3012.693,3673.59-3027.853,3689.396-3028.498"
			/>
		<path id="path3065" fill="#FFFFFF" d="M3894.374-2950.603v7.257h9.838v5.645h-9.838v13.386h-7.58v-32.094h17.901v5.806H3894.374z"
			/>
		<path id="path3067" fill="#FFFFFF" d="M3910.339-2924.315v-32.094h18.385v5.806h-10.967v6.935h10.16v5.644h-10.16v7.903h11.289
			v5.806H3910.339z"/>
		<path id="path3069" fill="#FFFFFF" d="M3950.013-2924.315l-2.581-9.354c-0.806-2.58-1.774-3.548-3.387-3.548h-1.451v12.902h-7.58
			v-32.094h11.773c5.161,0,9.999,2.581,9.999,8.225c0,4.193-2.419,7.096-6.451,7.902c2.258,0.645,3.387,1.935,4.354,5l3.387,10.967
			H3950.013z M3944.691-2950.764h-2.096v7.902h2.096c2.741,0,4.193-1.451,4.193-4.032
			C3948.884-2949.635,3947.271-2950.764,3944.691-2950.764"/>
		<path id="path3071" fill="#FFFFFF" d="M3977.429-2924.315l-7.903-23.385v23.385h-6.451v-32.094h9.838l7.902,23.385v-23.385h6.451
			v32.094H3977.429z"/>
		<path id="path3073" fill="#FFFFFF" d="M4001.943-2923.832c-2.742,0-6.289-0.483-8.547-1.29l0.323-6.128
			c2.419,1.29,5.161,1.935,7.096,1.935c3.387,0,4.516-2.096,4.516-3.87c0-2.258-1.613-3.226-3.709-4.193l-2.903-1.451
			c-4.032-1.935-5.483-4.838-5.483-8.87c0-5.967,5.322-9.193,11.289-9.193c2.903,0,4.838,0.645,7.419,1.129l-0.323,6.128
			c-1.774-0.968-4.354-1.774-6.29-1.774c-2.258,0-4.354,1.129-4.354,3.386c0,1.935,1.129,2.742,3.226,3.709l2.741,1.29
			c3.871,1.774,6.128,3.871,6.128,9.193C4013.07-2927.863,4008.394-2923.832,4001.943-2923.832"/>
		<path id="path3075" fill="#FFFFFF" d="M4018.876-2924.315v-32.094h18.385v5.806h-10.805v6.935h10.16v5.644h-10.16v7.903h11.289
			v5.806H4018.876z"/>
		<path id="path3077" fill="#FFFFFF" d="M4058.55-2924.315v-13.547h-7.257v13.547h-7.58v-32.094h7.58v12.58h7.257v-12.58h7.741
			v32.094H4058.55z"/>
		<path id="path3079" fill="#FFFFFF" d="M4073.548-2924.315v-32.094h18.224v5.806h-10.805v6.935h10.16v5.644h-10.16v7.903h11.289
			v5.806H4073.548z"/>
		<path id="path3081" fill="#FFFFFF" d="M4112.576-2924.315l-7.902-23.385v23.385h-6.451v-32.094h9.837l7.903,23.385v-23.385h6.451
			v32.094H4112.576z"/>
	</g>
</g>
<g>
	<g id="_x23_000000ff_1_">
		<path fill="#FFFFFF" d="M585.046,51.256h20.059c-1.904,8.66-3.751,17.346-5.355,26.07c7.412,0.051,14.831,0.14,22.25-0.057
			c2.025-8.629,3.496-17.378,5.508-26.013h20.097c-5.056,22.67-9.558,45.473-14.646,68.137h-20.053
			c1.98-8.871,3.974-17.754,5.648-26.688c-7.438-0.057-14.882-0.21-22.313,0.083c-1.974,8.851-3.687,17.767-5.712,26.605h-20.053
			v-0.516C575.583,96.392,579.983,73.747,585.046,51.256z"/>
		<path fill="#FFFFFF" d="M659.703,51.256h31.305c7.476,0.847,15.321,2.846,20.842,8.272c3.649,3.432,5.546,8.266,6.362,13.118
			v7.489c-0.79,6.629-2.127,13.347-5.406,19.238c-3.763,7.024-9.991,12.621-17.276,15.799c-5.438,2.471-11.38,3.502-17.263,4.222
			h-33.05C650.094,96.691,654.864,73.964,659.703,51.256 M676.967,64.495c-2.846,13.927-5.967,27.802-8.686,41.755
			c6.699,0.497,13.939-0.369,19.371-4.661c6.584-5.056,9.227-13.627,9.52-21.638c0.236-4.413-0.509-9.463-4.139-12.424
			C688.556,63.934,682.392,64.075,676.967,64.495z"/>
	</g>
</g>
</svg>
