<?xml version="1.0" encoding="UTF-8" standalone="no"?>
<!-- Generator: Adobe Illustrator 13.0.0, SVG Export Plug-In . SVG Version: 6.00 Build 14948)  -->

<svg
   xmlns:dc="http://purl.org/dc/elements/1.1/"
   xmlns:cc="http://creativecommons.org/ns#"
   xmlns:rdf="http://www.w3.org/1999/02/22-rdf-syntax-ns#"
   xmlns:svg="http://www.w3.org/2000/svg"
   xmlns="http://www.w3.org/2000/svg"
   xmlns:sodipodi="http://sodipodi.sourceforge.net/DTD/sodipodi-0.dtd"
   xmlns:inkscape="http://www.inkscape.org/namespaces/inkscape"
   version="1.1"
   x="0px"
   y="0px"
   width="767.82172"
   height="719.67511"
   viewBox="0 0 767.82169 719.67512"
   enable-background="new 0 0 767.822 719.675"
   xml:space="preserve"
   id="svg2"
   inkscape:version="0.48.2 r9819"
   sodipodi:docname="MTV Germany HD.svg"><metadata
   id="metadata20"><rdf:RDF><cc:Work
       rdf:about=""><dc:format>image/svg+xml</dc:format><dc:type
         rdf:resource="http://purl.org/dc/dcmitype/StillImage" /><dc:title /></cc:Work></rdf:RDF></metadata><defs
   id="defs18" /><sodipodi:namedview
   pagecolor="#ffffff"
   bordercolor="#666666"
   borderopacity="1"
   objecttolerance="10"
   gridtolerance="10"
   guidetolerance="10"
   inkscape:pageopacity="0"
   inkscape:pageshadow="2"
   inkscape:window-width="1280"
   inkscape:window-height="1004"
   id="namedview16"
   showgrid="false"
   fit-margin-top="0"
   fit-margin-left="0"
   fit-margin-right="0"
   fit-margin-bottom="0"
   inkscape:zoom="0.65585161"
   inkscape:cx="242.9642"
   inkscape:cy="209.53174"
   inkscape:window-x="-8"
   inkscape:window-y="-8"
   inkscape:window-maximized="1"
   inkscape:current-layer="g6" />
<g
   id="Layer_2"
   transform="translate(3.4192751e-5,1.4e-5)">
</g>
<g
   id="Layer_1"
   style="stroke:none"
   transform="translate(3.4192751e-5,1.4e-5)">
	<g
   id="g6"
   style="stroke:none">
		
		
		
	<path
   d="m 0.39,516.294 c 2.5000001,-9.141 11.52,-16.16 21.050001,-15.949 241.659999,0.01 483.319999,-0.02 724.970009,0.02 11.569,0 21.5,10.58 21.41,22.02 -0.011,32.311 0.04,64.631 -0.08,96.941 0.02,2.409 -0.15,4.819 -0.66,7.199 -2.55,-6.46 -7.13,-12.3 -13.75,-14.85 -2.58,-0.73 -5.24,-1.23 -7.91,-1.33 -90.59,0 -632.44001,-0.032 -723.010009,0 -6.980001,-0.18 -14.0700008,3.15 -18.1900009,8.84 -1.46,1.95 -2.45,4.21 -3.70000009,6.311 -0.26,-36.391 0,-72.842 -0.13000001,-109.202"
   id="path10"
   style="fill:#61596e;stroke:none"
   inkscape:connector-curvature="0"
   sodipodi:nodetypes="cccccccccccc" /><path
   d="M 4.2200001,619.185 C 8.3400002,613.496 15.43,610.165 22.410001,610.345 112.98,610.314 654.83001,610.344 745.42001,610.344 c 2.67,0.1 5.33,0.6 7.91,1.33 6.62,2.55 11.2,8.39 13.75,14.85 1.04,5.87 0.6,11.86 0.609,17.801 0.051,18.34001 0.061,36.68001 0.011,55.02001 -0.32,9.66 -7.91,18.54 -17.41,20.32 -244.26001,-0.04 -488.52001,0.069 -732.77001,-0.04 -7.02,-0.84 -13.0999999,-6.011 -16.0099999,-12.33 -2.14000011,-4.33 -1.2900001,-9.3 -1.4500001,-13.95 -0.1,-21.01 0.11,-42.01 -0.04,-63.02001 0.13,-1.61 -0.35000001,-3.381 0.50000001,-4.83 1.25000009,-2.1 2.24000009,-4.36 3.70000009,-6.31"
   id="path8"
   style="fill:#000000;stroke:none"
   inkscape:connector-curvature="0"
   sodipodi:nodetypes="cccccccccccccc" /><path
   d="m 296.57,551.464 c 3.08,-2.719 7.59,-2.32 11.35,-1.619 2.84,1.359 4.97,4.24 4.76,7.51 -0.06,12.68 0.01,25.369 -0.02,38.061 -0.37,3.09 2.62,5.889 5.65,5.66 6.66,-0.15 13.32,0.18 19.97,-0.102 2.8,-0.119 4.98,-2.84 4.73,-5.58 -0.13,-12.01 0.01,-24.02 -0.08,-36.029 0.02,-1.66 -0.04,-3.359 0.49,-4.949 3.1,-8.17 18.44,-6.441 18.2,2.979 0.09,17.631 0.04,35.271 0.03,52.91 -0.05,17.671 0.05,35.361 -0.05,53.031 0.15,4.8 -4.62,8.46 -9.23,7.8 -4.61,0.72 -9.55,-2.83 -9.51,-7.66 0,-13.689 0,-27.39 0.01,-41.09 0.36,-2.65 -1.81,-5.17 -4.46,-5.25 -6.69,-0.12 -13.38,-0.01 -20.08,-0.05 -2.92,-0.311 -5.85,2.16 -5.68,5.17 -0.05,13.71 0.03,27.42 -0.03,41.13 0.3,4.41 -3.86,8.13 -8.18,7.74 -4.48,0.76 -10,-1.83 -10.27,-6.8 -0.12,-18 0.01,-36 -0.06,-54 -0.05,-17.32 0.03,-34.641 -0.06,-51.961 -0.09,-2.5 0.4,-5.289 2.52,-6.901 m 104.51,5.891 c -0.101,-4 3.18,-7.721 7.22,-7.859 8.69,-0.291 17.4,-0.111 26.1,-0.17 5.961,0.25 12.2,0.479 17.65,3.209 11.11,4.82 19.28,15.77 20.98,27.73 0.83,10.01 0.659,20.061 0.619,30.09 -0.109,10.05 0.32,20.13 -0.659,30.16 -2.181,16.1 -16.54,29.66 -32.86,30.46 -10.28,0.271 -20.56,0.03 -30.84,0.12 -4.25,0.33 -8.351,-3.42 -8.16,-7.73 -0.04,-17.689 0.01,-35.39 -0.02,-53.08 -0.03,-17.641 -0.01,-35.289 -0.03,-52.93 m 18.88,13.039 c 0.03,13.32 0,26.641 0.02,39.961 -0.199,12.98 -0.029,25.971 -0.08,38.95 -0.39,3.04 2.681,5.18 5.48,4.79 6.82,-0.5 14.27,1.42 20.52,-2.16 5.521,-3.14 8.83,-9.399 8.801,-15.689 0.31,-8.641 0.18,-17.301 0.08,-25.932 0.06,-7.969 0,-15.93 -0.011,-23.879 -0.13,-3.541 -0.229,-7.281 -2.02,-10.43 -2.66,-5.84 -8.94,-9.76 -15.34,-9.641 -4.38,0.01 -8.761,-0.17 -13.13,0.07 -2.04,0.11 -4.36,1.751 -4.32,3.96 l 0,0 z"
   id="path12"
   style="fill:#00adef;stroke:none"
   inkscape:connector-curvature="0" /></g>
	<g
   id="layer1"
   transform="translate(810.24449,61.618986)"
   style="stroke:none">
		<path
   id="path2848"
   d="M -803.761,171.181 V -61.542 l 127.917,-0.002 127.915,-0.001 44.618,46.75 44.618,46.75 36.795,-37.671 c 20.238,-20.72 40.02,-41.773 43.955,-46.787 l 7.16,-9.116 129.299,0.863 129.293,0.863 0.875,98.078 0.873,98.078 -10.006,16.262 c -12.092,19.65 -41.609,81.665 -44.664,93.825 -1.203,4.805 -4.348,10.528 -6.986,12.715 -8.594,7.133 -13.127,-3.643 -17.535,-41.668 -6.553,-56.558 -15.465,-71.104 -40.676,-66.374 -22,4.127 -30.064,22.219 -23.697,53.169 5.805,28.225 52.637,149.962 60.848,158.175 9.846,9.846 34.758,9.633 42.855,-0.363 3.223,-3.982 12.795,-28.865 21.271,-55.293 8.473,-26.428 16.102,-48.05 16.951,-48.05 0.848,0 1.541,32.679 1.541,72.623 v 72.623 h -80.639 -80.639 l -1.756,-17.33 c -0.967,-9.531 -2.633,-66.613 -3.701,-126.847 l -1.941,-109.516 34.178,-19.978 c 40.863,-23.885 50.344,-32.817 47.377,-44.639 -2.668,-10.629 -19.48,-19.699 -31.105,-16.782 -4.721,1.185 -14.031,7.077 -20.689,13.093 -6.66,6.017 -19.305,15.158 -28.104,20.313 -13.383,7.843 -19.078,9.221 -34.879,8.438 -22.84,-1.131 -32.477,5.952 -32.477,23.874 0,10.819 -1.373,12.025 -38.838,34.139 -21.363,12.608 -46.5,25.468 -55.865,28.578 -9.363,3.109 -18.81,7.806 -20.991,10.435 -6.271,7.556 -4.644,20.893 3.622,29.692 11.279,12.005 28.521,10.982 46.625,-2.77 57.598,-43.749 73.092,-50.47 77.342,-33.542 1.162,4.634 1.021,52.169 -0.314,105.633 l -2.432,97.208 h -21.008 -21.01 l -0.896,-64.197 -0.895,-64.197 -39.045,32.873 c -21.474,18.081 -40.374,32.053 -42,31.047 -1.625,-1.002 -19.705,-15.963 -40.18,-33.242 l -37.227,-31.416 -0.895,64.567 -0.895,64.564 H -671.791 -803.765 V 171.181 l 0.004,0 z m 280.591,188.162 c 0,-24.512 0.907,-44.566 2.018,-44.566 1.109,0 9.279,6.08 18.155,13.513 l 16.139,13.51 v 31.055 31.051 h -18.155 -18.156 v -44.563 l -10e-4,0 z m 429.138,-50.664 v -95.227 l 18.395,-29.387 c 10.119,-16.164 19.777,-30.8 21.457,-32.525 1.883,-1.927 3.061,46.11 3.061,124.615 v 127.75 h -21.455 -21.457 v -95.226 z m -321.853,21.012 c 9.078,-8.061 21.35,-17.936 21.311,-16.573 -0.219,7.559 2.109,31.364 -2.107,31.37 -6.342,0.01 -12.428,-0.031 -20.689,-0.068 l -15.02,-0.064 16.505,-14.665 0,0 0,0 z M -94.032,26.595 c 0,-46.661 0.92,-84.837 2.045,-84.837 1.123,0 10.779,5.307 21.455,11.793 l 19.412,11.792 v 46.434 46.434 l -18.803,23.474 c -10.34,12.912 -19.996,24.887 -21.457,26.612 -1.456,1.725 -2.652,-35.041 -2.652,-81.702 z M -490.16,-26.882 c -17.176,-17.248 -30.309,-31.36 -29.185,-31.36 3.544,0 80.331,35.739 83.314,38.698 2.553,2.531 -16.936,24.022 -21.184,24.022 -0.943,0 -15.769,-14.112 -32.945,-31.36 l 0,0 z"
   style="fill:#000000;stroke:none"
   inkscape:connector-curvature="0" />
	</g>
</g>
</svg>