<?xml version="1.0" encoding="UTF-8" standalone="no"?>
<!-- Generator: Adobe Illustrator 12.0.1, SVG Export Plug-In . SVG Version: 6.00 Build 51448)  -->

<svg
   xmlns:dc="http://purl.org/dc/elements/1.1/"
   xmlns:cc="http://creativecommons.org/ns#"
   xmlns:rdf="http://www.w3.org/1999/02/22-rdf-syntax-ns#"
   xmlns:svg="http://www.w3.org/2000/svg"
   xmlns="http://www.w3.org/2000/svg"
   xmlns:sodipodi="http://sodipodi.sourceforge.net/DTD/sodipodi-0.dtd"
   xmlns:inkscape="http://www.inkscape.org/namespaces/inkscape"
   version="1.1"
   id="Layer_1"
   width="299.981"
   height="105.747"
   viewBox="0 0 299.981 105.747"
   overflow="visible"
   enable-background="new 0 0 299.981 105.747"
   xml:space="preserve"
   inkscape:version="0.91pre3 r13670"
   sodipodi:docname="national geographic.svg"><metadata
     id="metadata59"><rdf:RDF><cc:Work
         rdf:about=""><dc:format>image/svg+xml</dc:format><dc:type
           rdf:resource="http://purl.org/dc/dcmitype/StillImage" /></cc:Work></rdf:RDF></metadata><defs
     id="defs57" /><sodipodi:namedview
     pagecolor="#ffffff"
     bordercolor="#666666"
     borderopacity="1"
     objecttolerance="10"
     gridtolerance="10"
     guidetolerance="10"
     inkscape:pageopacity="0"
     inkscape:pageshadow="2"
     inkscape:window-width="1920"
     inkscape:window-height="1017"
     id="namedview55"
     showgrid="false"
     inkscape:zoom="4.6669624"
     inkscape:cx="159.67032"
     inkscape:cy="52.873501"
     inkscape:window-x="-8"
     inkscape:window-y="-8"
     inkscape:window-maximized="1"
     inkscape:current-layer="Layer_1" /><path
     fill="#FDD700"
     d="M0,0.315h73.216v104.912H0V0.315z M62.625,10.884H10.543v83.782h52.083V10.884z"
     id="path3" /><g
     id="g4276"><path
       style="fill:#e4e4e4;fill-opacity:1"
       id="path5"
       d="M112.067,29.663h-3.622c-4.757-6.709-9.466-13.374-14.176-20.911h-0.036v20.911h-3.999V0.498h3.622  c4.757,6.665,9.459,13.301,14.132,20.786h0.08V0.498h3.999V29.663z"
       fill="#010101" /><path
       style="fill:#e4e4e4;fill-opacity:1"
       id="path7"
       d="M121.567,18.127c1.168-3.838,2.333-7.375,3.373-11.887h0.091c1.168,4.512,2.205,8.049,3.292,11.887H121.567z   M123.486,0.498l-10.078,29.165h4.325l2.542-7.954h8.8l2.285,7.954h5.589l-9.291-29.165H123.486z"
       fill="#010101" /><polygon
       style="fill:#e4e4e4;fill-opacity:1"
       id="polygon9"
       points="141.657,29.663 141.657,4.417 133.993,4.417 133.993,0.498 154.325,0.498 154.325,4.417   146.66,4.417 146.66,29.663 "
       fill="#010101" /><path
       style="fill:#e4e4e4;fill-opacity:1"
       id="path13"
       d="M176.327,26.001c-5.208,0-7.039-5.757-7.039-11.338c0-5.376,2.08-10.503,7.039-10.503  c4.965,0,7.038,5.127,7.038,10.503C183.365,20.244,181.534,26.001,176.327,26.001 M176.327,30.168c7.624,0,12.37-6.797,12.37-15.505  c0-8.174-5.244-14.663-12.37-14.663c-7.127,0-12.371,6.489-12.371,14.663C163.956,23.372,168.702,30.168,176.327,30.168"
       fill="#010101" /><path
       style="fill:#e4e4e4;fill-opacity:1"
       id="path15"
       d="M213.585,29.663h-3.633c-4.746-6.709-9.463-13.374-14.165-20.911h-0.029v20.911h-4.014V0.498h3.633  c4.746,6.665,9.463,13.301,14.121,20.786h0.095V0.498h3.992V29.663z"
       fill="#010101" /><path
       style="fill:#e4e4e4;fill-opacity:1"
       id="path17"
       d="M223.092,18.127c1.165-3.838,2.329-7.375,3.369-11.887h0.088c1.165,4.512,2.212,8.049,3.296,11.887H223.092z   M225.011,0.498l-10.1,29.165h4.336l2.549-7.954h8.796l2.285,7.954h5.581l-9.287-29.165H225.011z"
       fill="#010101" /><polygon
       style="fill:#e4e4e4;fill-opacity:1"
       id="polygon19"
       points="239.923,0.498 244.889,0.498 244.889,25.752 254.755,25.752 254.755,29.663 239.923,29.663 "
       fill="#010101" /><path
       style="fill:#e4e4e4;fill-opacity:1"
       id="path21"
       d="M108.995,54.067v12.048c-2.67,1.048-5.46,1.795-8.295,1.795c-8.58,0-14.004-6.665-14.004-15.249  c0-7.969,5.424-14.927,14.169-14.927c2.706,0,5.416,1.003,7.079,2.249l-1.619,3.464c-1.336-0.835-3.42-1.545-5.332-1.545  c-5.339,0-8.961,4.211-8.961,10.833c0,6.922,4.167,11.008,8.467,11.008c1.326,0,2.45-0.168,3.494-0.71v-8.965H108.995z"
       fill="#010101" /><polygon
       style="fill:#e4e4e4;fill-opacity:1"
       id="polygon23"
       points="126.87,42.158 118.531,42.158 118.531,50.156 126.698,50.156 126.698,54.067 118.531,54.067   118.531,63.486 128.371,63.486 128.371,67.412 113.536,67.412 113.536,38.232 126.87,38.232 "
       fill="#010101" /><path
       style="fill:#e4e4e4;fill-opacity:1"
       id="path25"
       d="M142.287,63.742c-5.204,0-7.042-5.749-7.042-11.337c0-5.369,2.084-10.503,7.042-10.503  c4.966,0,7.042,5.134,7.042,10.503C149.33,57.993,147.491,63.742,142.287,63.742 M142.287,67.91c7.628,0,12.374-6.797,12.374-15.505  c0-8.167-5.247-14.67-12.374-14.67c-7.126,0-12.374,6.504-12.374,14.67C129.913,61.113,134.659,67.91,142.287,67.91"
       fill="#010101" /><path
       style="fill:#e4e4e4;fill-opacity:1"
       id="path27"
       d="M178.671,54.067v12.048c-2.659,1.048-5.457,1.795-8.284,1.795c-8.591,0-14.019-6.665-14.019-15.249  c0-7.969,5.428-14.927,14.18-14.927c2.71,0,5.42,1.003,7.075,2.249l-1.611,3.464c-1.348-0.835-3.428-1.545-5.347-1.545  c-5.332,0-8.965,4.211-8.965,10.833c0,6.922,4.175,11.008,8.467,11.008c1.333,0,2.461-0.168,3.501-0.71v-8.965H178.671z"
       fill="#010101" /><path
       style="fill:#e4e4e4;fill-opacity:1"
       id="path29"
       d="M188.258,42.158h2.212c2.951,0,4.614,1.699,4.614,4.709c0,3.904-2.366,5.662-4.746,5.786  c-0.498,0.051-1.663,0.081-2.08,0.132V42.158z M200.921,67.412l-5.866-12.085c3.208-1.714,5.039-5.171,5.039-8.672  c0-5.669-3.457-8.423-9.053-8.423h-7.778v29.18h4.995V56.404h2.168h0.073l4.717,11.008H200.921z"
       fill="#010101" /><path
       style="fill:#e4e4e4;fill-opacity:1"
       id="path31"
       d="M209.176,55.869c1.157-3.838,2.337-7.383,3.376-11.88h0.081c1.165,4.497,2.212,8.042,3.296,11.88H209.176z   M211.095,38.232l-10.093,29.18h4.336l2.542-7.961h8.796l2.285,7.961h5.596l-9.294-29.18H211.095z"
       fill="#010101" /><path
       style="fill:#e4e4e4;fill-opacity:1"
       id="path33"
       d="M231.134,67.412h-5.002v-29.18h7.8c5.581,0,9.046,2.754,9.046,8.423c0,4.907-3.626,9.749-9.596,9.749h-2.336  v-3.619c0.249-0.051,1.633-0.081,2.168-0.132c2.388-0.125,4.754-1.882,4.754-5.786c0-3.01-1.663-4.709-4.586-4.709h-2.248V67.412z"
       fill="#010101" /><polygon
       style="fill:#e4e4e4;fill-opacity:1"
       id="polygon35"
       points="266.144,67.412 261.142,67.412 261.142,53.364 250.763,53.364 250.763,67.412 245.812,67.412   245.812,38.232 250.763,38.232 250.763,49.453 261.142,49.453 261.142,38.32 266.144,38.32 "
       fill="#010101" /><path
       style="stroke:none;stroke-opacity:1;fill:#e4e4e4;fill-opacity:1"
       id="path39"
       d="M298.399,43.535c-1.216-0.754-3.208-1.633-5.127-1.633c-5.083,0-8.797,4.211-8.797,10.833  c0,6.922,4.088,11.008,8.914,11.008c1.919,0,3.721-0.622,5.01-1.457l1.377,3.625c-1.509,1.041-4.16,2-6.584,2  c-8.592,0-14.004-6.665-14.004-15.256c0-7.961,5.368-14.919,14.084-14.919c2.593,0,4.995,1.084,6.709,2.249L298.399,43.535z"
       fill="#010101" /><path
       id="path41"
       d="M105.754,81.431c-1.201-0.747-3.193-1.626-5.108-1.626c-5.068,0-8.767,4.204-8.767,10.811  c0,6.899,4.065,10.972,8.888,10.972c1.911,0,3.706-0.63,4.987-1.458l1.374,3.619c-1.494,1.032-4.157,1.999-6.563,1.999  c-8.566,0-13.975-6.665-13.975-15.22c0-7.932,5.373-14.883,14.055-14.883c2.582,0,4.988,1.084,6.684,2.256L105.754,81.431z"
       fill="#818285" /><polygon
       id="polygon43"
       points="129.159,105.242 124.171,105.242 124.171,91.245 113.822,91.245 113.822,105.242 108.878,105.242   108.878,76.143 113.822,76.143 113.822,87.326 124.171,87.326 124.171,76.23 129.159,76.23 "
       fill="#818285" /><path
       id="path45"
       d="M139.098,93.735c1.161-3.823,2.325-7.354,3.351-11.851h0.092c1.161,4.497,2.212,8.027,3.292,11.851H139.098z   M141.002,76.143l-10.049,29.1h4.317l2.538-7.933h8.767l2.285,7.933h5.574l-9.276-29.1H141.002z"
       fill="#818285" /><path
       id="path47"
       d="M177.989,105.242h-3.611c-4.738-6.695-9.434-13.338-14.128-20.867h-0.044v20.867h-3.984v-29.1h3.618  c4.731,6.65,9.419,13.271,14.092,20.75h0.073v-20.75h3.984V105.242z"
       fill="#818285" /><path
       id="path49"
       d="M204.466,105.242h-3.61c-4.739-6.695-9.44-13.338-14.136-20.867h-0.037v20.867h-3.991v-29.1h3.618  c4.731,6.65,9.426,13.271,14.084,20.75h0.081v-20.75h3.991V105.242z"
       fill="#818285" /><polygon
       id="polygon51"
       points="221.679,80.061 213.365,80.061 213.365,88.037 221.51,88.037 221.51,91.948 213.365,91.948   213.365,101.338 223.18,101.338 223.18,105.242 208.385,105.242 208.385,76.143 221.679,76.143 "
       fill="#818285" /><polygon
       id="polygon53"
       points="225.963,76.143 230.899,76.143 230.899,101.338 240.758,101.338 240.758,105.242 225.963,105.242   "
       fill="#818285" /><path
       inkscape:connector-curvature="0"
       id="path4189"
       d="m 141.71959,17.004346 0,-12.6420564 -3.8569,0 -3.8569,0 0,-1.9284492 0,-1.92844917 10.07079,0 10.07079,0 0,1.92844917 0,1.9284492 -3.74976,0 -3.74976,0 0,12.6420564 0,12.642055 -2.46413,0 -2.46413,0 0,-12.642055 z"
       style="fill:#e4e4e4;fill-opacity:1;stroke:none" /><path
       inkscape:connector-curvature="0"
       id="path4191"
       d="m 113.64639,29.485697 c -0.002,-0.08839 2.23389,-6.645114 4.96854,-14.570505 l 4.97208,-14.40980077 1.98443,0 1.98442,0 1.17733,3.69619427 c 2.71493,8.5234265 7.80092,24.5165115 7.93843,24.9627035 l 0.14859,0.482112 -2.68458,0 -2.68459,0 -0.21931,-0.80352 c -0.12063,-0.441936 -0.63411,-2.249857 -1.14107,-4.017603 l -0.92176,-3.214082 -4.48614,0 -4.48614,0 -1.28018,4.017603 -1.28018,4.017602 -1.99316,0 c -1.09624,0 -1.99476,-0.07232 -1.99671,-0.160704 z m 14.71004,-11.570695 c -0.69367,-2.427163 -2.74047,-9.8264464 -2.93498,-10.6101127 -0.13944,-0.5617892 -0.32153,-1.0634637 -0.40464,-1.114832 -0.0831,-0.051369 -0.32434,0.6413673 -0.53606,1.5394124 -0.21171,0.8980454 -0.95144,3.5208563 -1.64384,5.8284693 -0.69239,2.307612 -1.2589,4.316344 -1.2589,4.463849 0,0.203611 0.82901,0.26819 3.44279,0.26819 3.17683,0 3.43452,-0.02897 3.33563,-0.374976 z"
       style="fill:#e4e4e4;fill-opacity:1;stroke:none" /><path
       inkscape:connector-curvature="0"
       id="path4193"
       d="m 90.294277,15.067231 0,-14.57917111 1.762997,0.0622337 1.762996,0.0622337 2.96155,4.1783066 c 1.628852,2.2980687 4.68978,6.7817131 6.80206,9.9636541 2.11228,3.181941 3.98347,5.978193 4.1582,6.213892 0.28231,0.380807 0.31876,-0.735058 0.32724,-10.017222 l 0.01,-10.44576677 1.92845,0 1.92845,0 0,14.57050477 0,14.570505 -1.69079,0 -1.69079,0 -3.85679,-5.517507 c -2.12123,-3.034629 -5.337799,-7.768516 -7.147931,-10.519748 l -3.291147,-5.0022411 -0.05559,10.5197481 -0.05559,10.519748 -1.92643,0 -1.92643,0 0,-14.57917 z"
       style="fill:#e4e4e4;fill-opacity:1;stroke:none" /><path
       inkscape:connector-curvature="0"
       id="path4195"
       d="m 173.59473,29.741144 c -5.05546,-1.225319 -8.5061,-5.862145 -9.39136,-12.619729 -0.46891,-3.579369 0.26011,-7.6859566 1.88466,-10.616404 1.01235,-1.8261351 3.63945,-4.4339654 5.23862,-5.2001917 4.55604,-2.18298101 9.22962,-1.38383593 12.83704,2.1950297 1.91049,1.8953669 2.95608,3.6596496 3.70552,6.2525312 1.58593,5.4868788 0.47581,11.8896388 -2.78121,16.0409858 -2.71838,3.464798 -7.17301,4.994902 -11.49327,3.947778 z m 5.30263,-4.241189 c 1.86405,-0.868042 3.17084,-2.791968 4.00157,-5.891321 0.58408,-2.179117 0.64276,-6.947119 0.11182,-9.086024 -1.03135,-4.1548857 -3.34881,-6.3619802 -6.68621,-6.3677934 -3.31152,-0.00577 -5.6591,2.2294917 -6.68577,6.3658834 -0.53138,2.140899 -0.47296,6.907833 0.11138,9.087934 1.17567,4.386265 3.23789,6.390954 6.57439,6.390954 1.12144,0 1.77063,-0.126069 2.57282,-0.499633 z"
       style="fill:#e4e4e4;fill-opacity:1;stroke:none" /><path
       inkscape:connector-curvature="0"
       id="path4197"
       d="m 191.85927,15.075896 0,-14.57050477 1.69772,0 1.69772,0 2.85556,4.01640727 c 3.36326,4.7304937 11.10504,16.2810875 11.10504,16.5685105 0,0.109714 0.0964,0.199479 0.21427,0.199479 0.13991,0 0.21428,-3.606914 0.21428,-10.392198 l 0,-10.39219877 1.92845,0 1.92844,0 0,14.57917077 0,14.57917 -1.75463,-0.06223 -1.75464,-0.06223 -2.86636,-4.07117 C 204.88134,22.28121 197.4003,11.174243 195.99661,8.9458029 c -0.1996,-0.3168717 -0.25799,1.8953221 -0.26784,10.1476961 l -0.0126,10.552902 -1.92845,0 -1.92845,0 0,-14.570505 z"
       style="fill:#e4e4e4;fill-opacity:1;stroke:none" /><path
       inkscape:connector-curvature="0"
       id="path4199"
       d="m 215.63138,27.886282 c 0.33478,-0.976453 2.36534,-6.83755 4.51234,-13.024658 2.147,-6.1871077 4.14277,-11.9483497 4.43504,-12.8027598 l 0.53141,-1.55347297 1.97676,0 1.97675,0 4.35746,13.65984877 c 2.3966,7.512916 4.48369,14.072496 4.63798,14.576845 l 0.28052,0.916995 -2.70265,-0.05991 -2.70265,-0.05991 -0.79345,-2.785537 c -0.43639,-1.532046 -0.95531,-3.341913 -1.15315,-4.021929 l -0.3597,-1.236389 -4.4389,0.05789 -4.43891,0.05789 -1.29479,3.964035 -1.2948,3.964034 -2.06898,0.06119 -2.06898,0.06119 0.6087,-1.775371 z m 14.28468,-9.933768 c -0.0712,-0.185605 -0.81074,-2.813117 -1.64337,-5.838916 -1.71628,-6.2370208 -1.68382,-6.1279799 -1.79021,-6.0142316 -0.0433,0.04633 -0.38467,1.2413059 -0.75852,2.655502 -0.61622,2.3310686 -2.40792,8.4063186 -2.71576,9.2085256 -0.1092,0.28457 0.33541,0.326584 3.45602,0.326584 3.17111,0 3.5665,-0.03866 3.45184,-0.337464 z"
       style="fill:#e4e4e4;fill-opacity:1;stroke:none" /><path
       inkscape:connector-curvature="0"
       id="path4201"
       d="m 240.0705,15.075896 0,-14.57050477 2.35699,0 2.357,0 0,12.64205577 0,12.642056 4.92826,0 4.92825,0 0,1.928449 0,1.928449 -7.28525,0 -7.28525,0 0,-14.570505 z"
       style="fill:#e4e4e4;fill-opacity:1;stroke:none" /><path
       inkscape:connector-curvature="0"
       id="path4203"
       d="m 97.898775,67.569042 c -2.73566,-0.543936 -5.414775,-2.05947 -7.275501,-4.11564 -1.279532,-1.413926 -2.720316,-4.104947 -3.243888,-6.058759 -0.474373,-1.770215 -0.634412,-5.804771 -0.305203,-7.694117 1.202969,-6.903897 6.932867,-11.874158 13.719427,-11.900587 1.55719,-0.0061 3.85043,0.57016 5.5006,1.382141 l 1.53656,0.756077 -0.76421,1.699282 -0.76422,1.699282 -0.77235,-0.393359 c -3.85484,-1.963284 -8.749627,-1.144972 -11.114898,1.858191 -1.642719,2.085747 -2.400303,4.572552 -2.400303,7.879103 0,5.010394 2.00181,8.80649 5.509566,10.447969 1.108609,0.518781 1.650077,0.638126 2.932645,0.646391 0.86515,0.0056 2.01798,-0.11445 2.56185,-0.266724 l 0.98884,-0.276859 0,-4.579004 0,-4.579004 2.46413,0 2.46413,0 0,5.989559 0,5.98956 -2.01136,0.644295 c -1.10625,0.354363 -2.6249,0.743852 -3.37478,0.865531 -1.564,0.25378 -4.391447,0.257118 -5.651035,0.0067 l 0,8e-6 z"
       style="fill:#e4e4e4;fill-opacity:1;stroke:none" /><path
       inkscape:connector-curvature="0"
       id="path4205"
       d="m 113.64994,52.894928 0,-14.463369 6.5353,0 6.5353,0 0,1.821313 0,1.821313 -4.17831,0 -4.1783,0 0,4.071171 0,4.07117 4.07117,0 4.07117,0 0,1.92845 0,1.928449 -4.07117,0 -4.07117,0 0,4.713987 0,4.713987 4.92826,0 4.92825,0 0,1.928449 0,1.928449 -7.28525,0 -7.28525,0 0,-14.463369 z"
       style="fill:#e4e4e4;fill-opacity:1;stroke:none" /><path
       inkscape:connector-curvature="0"
       id="path4207"
       d="m 139.25546,67.382589 c -4.32039,-1.255898 -7.25581,-4.619812 -8.6076,-9.864106 -0.73489,-2.851021 -0.77187,-6.817201 -0.088,-9.4383 1.06418,-4.07874 3.6638,-7.513649 6.87429,-9.083084 6.84216,-3.344764 14.49195,0.879734 16.63024,9.183842 0.53604,2.08173 0.53736,6.453234 0.003,8.785158 -1.28958,5.624026 -4.46668,9.302721 -9.06977,10.501672 -1.60761,0.418728 -4.13742,0.381199 -5.74181,-0.08518 z m 5.60718,-4.124256 c 1.86054,-0.877102 3.32241,-3.062999 4.06479,-6.077962 0.52635,-2.13766 0.52542,-7.200595 -0.002,-9.106566 -1.08742,-3.932102 -3.09929,-5.945903 -6.15972,-6.165602 -4.73004,-0.339557 -7.51719,3.569547 -7.52786,10.558181 -0.006,4.258051 0.87107,7.398174 2.62622,9.397178 1.68446,1.918495 4.63844,2.507233 6.99824,1.394771 z"
       style="fill:#e4e4e4;fill-opacity:1;stroke:none" /><path
       inkscape:connector-curvature="0"
       id="path4209"
       d="m 166.83656,67.354543 c -3.97562,-1.041628 -6.88171,-3.436409 -8.70308,-7.17181 -1.22923,-2.520996 -1.51035,-3.891798 -1.51651,-7.394941 -0.005,-2.667667 0.0655,-3.334159 0.49633,-4.713987 0.82106,-2.629517 1.88497,-4.431095 3.67214,-6.218265 4.1208,-4.120805 9.95842,-5.15512 15.15821,-2.685748 l 1.56264,0.742094 -0.50962,1.134718 c -1.09974,2.448664 -1.00088,2.317385 -1.50387,1.997033 -0.88941,-0.566455 -3.39317,-1.183724 -4.80142,-1.183724 -4.03731,0 -7.1668,2.40321 -8.45165,6.490231 -0.65807,2.093284 -0.7017,6.697696 -0.0806,8.508819 0.97521,2.843817 2.58472,4.97272 4.58089,6.059174 1.75985,0.957829 4.64035,1.132045 6.53116,0.395013 l 0.58925,-0.229689 0,-4.505018 0,-4.505018 2.35699,0 2.357,0 0,5.973624 0,5.973624 -0.58925,0.228455 c -3.91058,1.516147 -8.02418,1.924022 -11.14859,1.105415 z"
       style="fill:#e4e4e4;fill-opacity:1;stroke:none" /><path
       inkscape:connector-curvature="0"
       id="path4211"
       d="m 183.28838,52.878686 0,-14.47961 5.41037,0.07706 c 5.09148,0.07252 5.48576,0.106988 6.68937,0.584875 4.30384,1.708822 5.89118,7.379822 3.42686,12.242921 -0.64278,1.268478 -1.97878,2.786311 -3.01766,3.428372 -0.39818,0.24609 -0.72397,0.538371 -0.72397,0.649513 0,0.111141 1.25349,2.789787 2.78554,5.952544 1.53204,3.16276 2.78554,5.814883 2.78554,5.893607 0,0.07873 -1.21217,0.11615 -2.69372,0.08317 l -2.69371,-0.05997 -2.36581,-5.517507 -2.36581,-5.517508 -1.15437,0 -1.15437,0 0,5.571076 0,5.571075 -2.46413,0 -2.46413,0 0,-14.479611 z m 9.36054,-0.864169 c 1.31995,-0.81606 2.15222,-2.160798 2.37263,-3.833576 0.3602,-2.733619 -0.2929,-4.546882 -1.9801,-5.497582 -0.67364,-0.379579 -1.29166,-0.504075 -2.84279,-0.572657 l -1.98202,-0.08763 0,5.409892 0,5.409893 1.70598,-0.09876 c 1.41121,-0.08169 1.88227,-0.207752 2.7263,-0.729579 z"
       style="fill:#e4e4e4;fill-opacity:1;stroke:none" /><path
       inkscape:connector-curvature="0"
       id="path4213"
       d="m 201.83819,65.269144 c 0.40821,-1.149035 2.65849,-7.633445 5.00063,-14.409801 l 4.25844,-12.320648 2.04824,-0.0612 2.04824,-0.0612 1.60371,4.989459 c 0.88204,2.744202 2.91703,9.11758 4.5222,14.163063 1.60518,5.045483 2.97281,9.315143 3.03919,9.488133 0.10295,0.268271 -0.28168,0.305681 -2.61522,0.254369 l -2.73592,-0.06016 -1.0999,-3.856898 -1.0999,-3.856899 -4.5095,-0.05772 -4.50951,-0.05772 -0.98483,3.057532 c -0.54166,1.681644 -1.10378,3.467328 -1.24916,3.96819 l -0.26432,0.910656 -2.09729,0 -2.09729,0 0.74219,-2.089153 z m 14.15018,-9.604734 c -0.25027,-0.65219 -3.13043,-11.140388 -3.13043,-11.399558 0,-0.622246 -0.43128,-0.185352 -0.64011,0.648439 -0.27149,1.084009 -2.4249,8.617948 -2.87851,10.07079 l -0.31778,1.017793 3.54816,0 c 3.14093,0 3.53331,-0.03873 3.41867,-0.337464 z"
       style="fill:#e4e4e4;fill-opacity:1;stroke:none" /><path
       inkscape:connector-curvature="0"
       id="path4215"
       d="m 226.14281,52.881557 0,-14.47674 5.41037,0.07062 c 6.21489,0.08112 6.96142,0.248216 8.90138,1.99241 1.96835,1.76971 2.8916,5.258433 2.18941,8.273128 -0.68383,2.935863 -2.67357,5.439138 -5.31116,6.681935 -1.29687,0.611069 -1.68115,0.686819 -3.85118,0.759146 l -2.41056,0.08034 0,5.547951 0,5.547949 -2.46413,0 -2.46413,0 0,-14.47674 z m 9.10657,-0.680231 c 1.82139,-0.941822 2.74375,-2.677085 2.7634,-5.198882 0.0269,-3.449744 -1.55101,-4.928259 -5.25951,-4.928259 l -1.6822,0 0,5.384334 0,5.384335 1.66061,-0.09917 c 1.09905,-0.06563 1.95044,-0.249039 2.5177,-0.542359 z"
       style="fill:#e4e4e4;fill-opacity:1;stroke:none" /><path
       inkscape:connector-curvature="0"
       id="path4217"
       d="m 245.85585,52.894928 0,-14.463369 2.35699,0 2.35699,0 0,5.571075 0,5.571076 5.35681,0 5.3568,0 0,-5.571076 0,-5.571075 2.35699,0 2.357,0 0,14.463369 0,14.463369 -2.357,0 -2.35699,0 0,-7.074724 0,-7.074723 -5.30324,0.05731 -5.30323,0.05731 -0.0565,7.017413 -0.0565,7.017412 -2.35407,0 -2.35406,0 0,-14.463369 z"
       style="fill:#e4e4e4;fill-opacity:1;stroke:none" /><path
       inkscape:connector-curvature="0"
       id="path4239"
       d="m 90.11759,15.082603 0,-14.56379759 1.767745,0.12629997 c 1.21456,0.0867766 1.877042,0.23554646 2.11701,0.47540522 0.533205,0.5329619 4.075626,5.6326974 9.024025,12.9911614 2.45679,3.65334 4.58301,6.642436 4.72492,6.642436 0.19676,0 0.27124,-2.403949 0.31369,-10.124358 l 0.0557,-10.12435877 1.81921,0 1.81922,0 0,14.57050477 0,14.570505 -1.55348,-0.0038 -1.55347,-0.0038 -1.15922,-1.656797 C 104.78953,24.118217 98.352368,14.686489 96.403369,11.733593 L 94.295897,8.5405963 94.16556,17.647162 c -0.07169,5.008611 -0.144002,9.757417 -0.160704,10.552903 l -0.03037,1.446336 -1.928449,0 -1.928449,0 0,-14.563798 z"
       style="fill:#e4e4e4;fill-opacity:1;stroke:none;stroke-opacity:1" /><path
       inkscape:connector-curvature="0"
       id="path4241"
       d="m 114.41749,29.493902 -0.66281,-0.08392 1.68057,-4.937702 c 0.92431,-2.715736 1.62668,-5.024892 1.56081,-5.131459 -0.0659,-0.106567 -0.007,-0.193758 0.1301,-0.193758 0.13741,0 0.19434,-0.144634 0.1265,-0.321408 -0.0678,-0.176775 -0.0384,-0.321409 0.0654,-0.321409 0.23822,0 1.96915,-5.137225 1.81498,-5.386671 -0.0627,-0.101422 -0.002,-0.184404 0.13588,-0.184404 0.13741,0 0.19434,-0.144634 0.12651,-0.321408 -0.0678,-0.176775 -0.0385,-0.321408 0.0652,-0.321408 0.23834,0 1.75517,-4.4941375 1.60101,-4.743565 -0.0628,-0.101582 -0.002,-0.1846945 0.1357,-0.1846945 0.13741,0 0.19434,-0.1446337 0.12651,-0.3214082 -0.0678,-0.1767745 -0.0384,-0.3214082 0.0653,-0.3214082 0.23822,0 1.96915,-5.1372252 1.81498,-5.3866717 -0.0627,-0.1014221 -0.002,-0.1844038 0.13588,-0.1844038 0.13741,0 0.19301,-0.1481049 0.12355,-0.32912197 -0.10916,-0.28444861 0.1544,-0.32080392 1.94172,-0.26784017 l 2.06802,0.0612818 0.42449,1.2856328 c 0.23346,0.707098 0.50102,1.315968 0.59458,1.3530445 0.0935,0.037076 0.11698,0.2058157 0.0521,0.3749763 -0.0649,0.1691603 -0.006,0.3075645 0.13182,0.3075645 0.13741,0 0.19505,0.088646 0.12809,0.1969904 -0.14817,0.2397416 0.92837,3.7396903 1.17942,3.8344558 0.0982,0.037076 0.12548,0.2058157 0.0606,0.3749762 -0.0649,0.1691604 -0.006,0.3075645 0.13182,0.3075645 0.13741,0 0.18878,0.098799 0.11415,0.219554 -0.15756,0.254941 1.15573,4.3520907 1.42933,4.4591657 0.10101,0.03953 0.12767,0.162433 0.0593,0.273122 -0.14977,0.242324 1.17905,4.338493 1.44064,4.440865 0.101,0.03953 0.12767,0.162433 0.0593,0.273122 -0.14976,0.242324 1.17906,4.338492 1.44064,4.440865 0.10101,0.03953 0.12767,0.162433 0.0593,0.273122 -0.12298,0.198975 1.13711,4.269195 1.38575,4.476132 0.0708,0.05893 0.13923,0.299981 0.15207,0.53568 0.0128,0.2357 0.0956,0.693707 0.18393,1.017793 l 0.16059,0.589248 -2.55581,0 -2.55581,0 -1.14873,-4.07117 -1.14873,-4.071171 -4.55049,0 -4.5505,0 -0.6764,2.030304 c -0.37202,1.116666 -0.61533,2.129102 -0.5407,2.249857 0.0746,0.120755 0.0233,0.219554 -0.11415,0.219554 -0.13742,0 -0.19434,0.144634 -0.12651,0.321408 0.0678,0.176775 0.0489,0.321409 -0.042,0.321409 -0.0909,0 -0.38275,0.674957 -0.64844,1.499905 l -0.48308,1.499904 -1.21971,-0.03429 c -0.67084,-0.01886 -1.51797,-0.07205 -1.88251,-0.118207 z M 128.4723,17.96857 c 0,-0.176774 -0.0723,-0.321628 -0.1607,-0.321897 -0.0884,-2.78e-4 -0.17198,-0.309363 -0.18575,-0.686877 -0.0138,-0.377513 -0.13491,-0.723007 -0.26918,-0.767764 -0.13427,-0.04476 -0.19189,-0.165891 -0.12805,-0.269187 0.14613,-0.236457 -2.03669,-8.2152559 -2.27255,-8.306749 -0.0956,-0.037076 -0.12356,-0.1982812 -0.0622,-0.3582328 0.11116,-0.2896779 -0.30704,-1.2957192 -0.47062,-1.1321407 -0.20002,0.2000192 -3.06341,10.5395405 -2.96353,10.7011395 0.0603,0.09762 0.0188,0.177484 -0.0922,0.177484 -0.223,0 -0.47113,0.994976 -0.29264,1.17346 0.0617,0.0617 1.63886,0.112172 3.50481,0.112172 2.87283,0 3.39264,-0.04925 3.39264,-0.321408 z"
       style="fill:#e4e4e4;fill-opacity:1;stroke:none;stroke-opacity:1" /><path
       inkscape:connector-curvature="0"
       id="path4243"
       d="m 141.59311,17.004308 0.0569,-12.6420938 -3.80333,3.77e-5 -3.80333,3.77e-5 0,-1.9284492 0,-1.92844917 9.96365,0 9.96366,0 0,1.92844917 0,1.9284492 -3.74977,0 -3.74976,0 0,12.6420564 0,12.642055 -2.46749,0 -2.46748,0 0.0569,-12.642093 z"
       style="fill:#e4e4e4;fill-opacity:1;stroke:none;stroke-opacity:1" /><path
       inkscape:connector-curvature="0"
       id="path4247"
       d="m 174.83805,29.860828 c -4.56294,-0.668315 -7.89125,-3.708237 -9.61778,-8.784432 -0.28003,-0.823325 -0.57434,-1.931717 -0.65403,-2.463094 -0.0797,-0.531377 -0.20625,-0.965974 -0.28125,-0.96577 -0.28084,7.6e-4 0.11515,-6.122759 0.485,-7.499895 0.85001,-3.1650276 2.84531,-6.0972187 5.45028,-8.0094375 2.36763,-1.73799978 6.316,-2.34189662 9.29526,-1.42169534 2.85402,0.88151684 5.93154,3.70391384 7.39301,6.78012914 0.90354,1.9018681 1.52778,4.8764647 1.56156,7.4411117 0.0142,1.077706 0.0129,2.007676 -0.003,2.066601 -0.0158,0.05892 -0.20946,0.964654 -0.43028,2.012732 -0.45553,2.162054 -1.69266,4.913706 -2.96782,6.601063 -2.28428,3.022666 -6.53255,4.784382 -10.23099,4.242687 l 1e-5,0 z m 3.23825,-4.081259 c 0.11785,-0.09234 0.3107,-0.177248 0.42855,-0.188679 0.50319,-0.04881 0.96422,-0.274148 0.96422,-0.471287 0,-0.116864 0.0808,-0.162571 0.17945,-0.101572 0.56205,0.347363 2.91775,-3.32095 3.08219,-4.799603 0.0328,-0.294625 0.13733,-0.592945 0.23237,-0.662934 0.56429,-0.415573 0.56114,-8.972714 -0.003,-9.38988 -0.0931,-0.06881 -0.19583,-0.361954 -0.22821,-0.6514264 -0.0324,-0.2894725 -0.17701,-0.6013691 -0.3214,-0.6931033 -0.1444,-0.091734 -0.19524,-0.1682662 -0.11298,-0.1700708 0.35653,-0.00782 -0.3777,-1.3771472 -1.27141,-2.3711712 -0.85871,-0.955099 -2.62791,-2.1591989 -2.62791,-1.7885349 0,0.07575 -0.12053,0.039277 -0.26784,-0.081051 -0.35038,-0.2862022 -3.10411,-0.2786318 -3.79843,0.010442 -0.29732,0.1237857 -0.6129,0.2094945 -0.70129,0.1904642 -0.0884,-0.019031 -0.1607,0.067512 -0.1607,0.1923167 0,0.1248047 -0.0799,0.1775236 -0.1776,0.1171529 -0.19555,-0.1208536 -1.83094,1.1471699 -1.67746,1.3006438 0.0525,0.052489 -0.14059,0.3314554 -0.42906,0.6199251 -0.28847,0.2884696 -0.4654,0.6201044 -0.39317,0.7369663 0.0722,0.1168619 0.0235,0.2124761 -0.10825,0.2124761 -0.13176,0 -0.17997,0.096423 -0.10713,0.2142721 0.0728,0.1178497 0.0397,0.2142722 -0.0735,0.2142722 -0.24488,0 -0.71773,1.2597178 -0.56539,1.5062171 0.0582,0.094247 0.004,0.2053975 -0.12102,0.2470014 -0.33585,0.1119484 -0.4824,1.8082324 -0.47717,5.5230434 0.003,2.271619 0.0809,3.33763 0.24724,3.393087 0.13342,0.04447 0.18859,0.168229 0.12259,0.275013 -0.15908,0.257401 0.57103,2.554783 0.81192,2.554783 0.10328,0 0.133,0.08865 0.066,0.196997 -0.067,0.108349 -3.4e-4,0.327594 0.14806,0.487214 0.1484,0.15962 0.29629,0.41556 0.32865,0.568756 0.18621,0.881588 1.94129,2.434251 3.18388,2.816684 0.74843,0.230345 3.53136,0.224227 3.82826,-0.0084 l 0,6e-6 z"
       style="fill:#e4e4e4;fill-opacity:1;stroke:none;stroke-opacity:1" /><path
       inkscape:connector-curvature="0"
       id="path4249"
       d="m 191.89685,15.066883 0,-14.57951817 1.65553,0.0625812 1.65553,0.0625813 1.99015,2.7855377 c 2.43928,3.4141612 11.72962,17.233235 11.88427,17.677451 0.37701,1.082936 0.50008,-1.156214 0.56627,-10.302824 l 0.0743,-10.26730077 1.80059,0 1.80058,0 0,14.55398177 0,14.553981 -1.66061,-0.119861 c -0.91334,-0.06593 -1.6748,-0.130807 -1.69215,-0.144182 -0.17921,-0.138165 -6.11076,-8.808672 -9.54029,-13.945606 -2.39572,-3.588448 -4.4127,-6.5283319 -4.48218,-6.5330757 -0.15961,-0.010898 -0.40834,9.7262517 -0.40892,16.0082167 l -4.4e-4,4.767555 -1.82131,0 -1.82132,0 0,-14.579518 z"
       style="fill:#e4e4e4;fill-opacity:1;stroke:none;stroke-opacity:1" /><path
       inkscape:connector-curvature="0"
       id="path4251"
       d="m 215.25252,29.497694 c 0,-0.112625 0.23937,-0.908556 0.53193,-1.768732 0.29257,-0.860174 0.47972,-1.648443 0.4159,-1.751707 -0.0638,-0.103264 -0.004,-0.187752 0.13381,-0.187752 0.13741,0 0.19673,-0.138405 0.13181,-0.307564 -0.0649,-0.169161 -0.0358,-0.337901 0.0647,-0.374976 0.25796,-0.09519 1.74713,-4.459762 1.60185,-4.694824 -0.0658,-0.106541 -0.007,-0.193711 0.13013,-0.193711 0.13741,0 0.19434,-0.144634 0.1265,-0.321409 -0.0678,-0.176774 -0.0385,-0.321408 0.0652,-0.321408 0.23834,0 1.75517,-4.494137 1.60102,-4.743564 -0.0628,-0.101582 -0.002,-0.184695 0.13569,-0.184695 0.13742,0 0.19435,-0.144634 0.12651,-0.321408 -0.0678,-0.176775 -0.0385,-0.321408 0.0652,-0.321408 0.23834,0 1.75517,-4.4941374 1.60102,-4.743565 -0.0628,-0.1015819 -0.002,-0.1846944 0.13569,-0.1846944 0.13742,0 0.19435,-0.1446337 0.12651,-0.3214082 -0.0678,-0.1767745 -0.0385,-0.3214082 0.0652,-0.3214082 0.23834,0 1.75517,-4.4941371 1.60102,-4.7435647 -0.0628,-0.1015819 -0.002,-0.1846944 0.13569,-0.1846944 0.13742,0 0.19434,-0.1446337 0.12651,-0.3214082 -0.0678,-0.1767745 -0.0349,-0.3214082 0.0733,-0.3214082 0.10813,0 0.36377,-0.5303235 0.56809,-1.1784967 l 0.37149,-1.17849677 1.87164,0 1.87165,0 0.69245,2.08915327 c 0.38085,1.1490344 0.76908,2.1194885 0.86273,2.1565651 0.0936,0.037076 0.11716,0.2058156 0.0522,0.3749762 -0.0649,0.1691604 -0.006,0.3075645 0.13182,0.3075645 0.13741,0 0.1888,0.098765 0.1142,0.2194777 -0.15295,0.2474712 0.9377,3.7075449 1.20157,3.8119685 0.0937,0.037076 0.11723,0.2058157 0.0523,0.3749763 -0.0649,0.1691602 -0.006,0.3075642 0.13182,0.3075642 0.13741,0 0.1888,0.09877 0.11419,0.219478 -0.15294,0.247471 0.93771,3.707545 1.20157,3.811968 0.0937,0.03708 0.11723,0.205816 0.0523,0.374977 -0.0649,0.16916 -0.006,0.307564 0.13182,0.307564 0.13741,0 0.19506,0.08865 0.1281,0.196991 -0.14817,0.239741 0.92836,3.73969 1.17942,3.834455 0.0982,0.03708 0.12548,0.205816 0.0606,0.374977 -0.0649,0.16916 -0.006,0.307564 0.13182,0.307564 0.13741,0 0.19505,0.08865 0.12809,0.196991 -0.14817,0.239741 0.92837,3.73969 1.17942,3.834456 0.0982,0.03708 0.12548,0.205815 0.0606,0.374976 -0.0649,0.169159 -0.006,0.307564 0.13182,0.307564 0.13741,0 0.19506,0.08865 0.1281,0.196991 -0.14817,0.239741 0.92836,3.73969 1.17942,3.834456 0.0982,0.03707 0.12548,0.205815 0.0606,0.374976 -0.0649,0.169159 -0.0143,0.307564 0.11245,0.307564 0.12675,0 0.17907,0.133931 0.11626,0.297622 -0.0909,0.236837 -0.58183,0.278048 -2.40384,0.201778 -3.12132,-0.130659 -3.14207,-0.136821 -3.17068,-0.94175 -0.0132,-0.370843 -0.1096,-0.736395 -0.21427,-0.812338 -0.10467,-0.07594 -0.21067,-0.419341 -0.23555,-0.763104 -0.0249,-0.343761 -0.1213,-0.68124 -0.21427,-0.749953 -0.093,-0.06871 -0.18939,-0.406189 -0.21427,-0.749952 -0.0249,-0.343761 -0.1213,-0.68124 -0.21427,-0.749952 -0.093,-0.06871 -0.19036,-0.413271 -0.21643,-0.765687 -0.0261,-0.352418 -0.14118,-0.672019 -0.2558,-0.710228 -0.11463,-0.03821 -0.16168,-0.191247 -0.10457,-0.340085 0.0571,-0.148837 0.006,-0.528296 -0.11387,-0.843244 l -0.21771,-0.572632 -4.48488,0 -4.48488,0 -0.33766,0.990979 c -0.18571,0.54504 -0.28551,1.075363 -0.22176,1.178497 0.0637,0.103135 0.003,0.187518 -0.13396,0.187518 -0.13741,0 -0.19673,0.138405 -0.13181,0.307564 0.0649,0.169161 0.0414,0.337901 -0.0522,0.374976 -0.0936,0.03708 -0.53008,1.152165 -0.9699,2.477974 l -0.79968,2.410561 -1.10721,0.0024 c -0.60897,0.0013 -1.4688,0.06213 -1.91073,0.135174 -0.46065,0.07614 -0.80352,0.04543 -0.80352,-0.07197 z M 229.93754,17.70073 c -0.0804,-0.324087 -0.2361,-0.62159 -0.34597,-0.661117 -0.10987,-0.03953 -0.14652,-0.158024 -0.0814,-0.263323 0.14822,-0.239825 -2.24621,-8.8539104 -2.48667,-8.9459219 -0.0969,-0.037076 -0.12944,-0.1891877 -0.0723,-0.3380252 0.0571,-0.1488375 -0.007,-0.5524034 -0.14245,-0.8968129 -0.22931,-0.5830012 -0.25955,-0.5966364 -0.43839,-0.1976551 -0.19559,0.4363727 -3.1588,10.5306901 -3.34942,11.4099911 l -0.10452,0.482112 3.5837,0 3.5837,0 -0.14621,-0.589248 z"
       style="fill:#e4e4e4;fill-opacity:1;stroke:none;stroke-opacity:1" /><path
       inkscape:connector-curvature="0"
       id="path4253"
       d="m 240.10808,15.075896 0,-14.57050477 2.24986,0 2.24986,0 0,12.64205577 0,12.642056 4.92826,0 4.92826,0 0,1.928449 0,1.928449 -7.17812,0 -7.17812,0 0,-14.570505 z"
       style="fill:#e4e4e4;fill-opacity:1;stroke:none;stroke-opacity:1" /><path
       inkscape:connector-curvature="0"
       id="path4245"
       d="m 156.95434,14.895617 0,-14.57050477 2.24985,0 2.24986,0 0,14.57050477 0,14.570505 -2.24986,0 -2.24985,0 0,-14.570505 z"
       style="fill:#e4e4e4;fill-opacity:1;stroke:none;stroke-opacity:1" /><path
       inkscape:connector-curvature="0"
       id="path4245-2"
       d="m 270.94712,52.821784 0,-14.570505 2.24985,0 2.24986,0 0,14.570505 0,14.570505 -2.24986,0 -2.24985,0 0,-14.570505 z"
       style="fill:#e4e4e4;fill-opacity:1;stroke:none;stroke-opacity:1" /></g></svg>