<?xml version="1.0" encoding="UTF-8" standalone="no"?>
<!-- Created with Inkscape (http://www.inkscape.org/) -->

<svg
   xmlns:dc="http://purl.org/dc/elements/1.1/"
   xmlns:cc="http://creativecommons.org/ns#"
   xmlns:rdf="http://www.w3.org/1999/02/22-rdf-syntax-ns#"
   xmlns:svg="http://www.w3.org/2000/svg"
   xmlns="http://www.w3.org/2000/svg"
   xmlns:sodipodi="http://sodipodi.sourceforge.net/DTD/sodipodi-0.dtd"
   xmlns:inkscape="http://www.inkscape.org/namespaces/inkscape"
   version="1.0"
   width="1024"
   height="360.9313"
   id="svg14620"
   inkscape:version="0.91pre2 r13516"
   sodipodi:docname="nationalgeo hd.svg">
  <metadata
     id="metadata12">
    <rdf:RDF>
      <cc:Work
         rdf:about="">
        <dc:format>image/svg+xml</dc:format>
        <dc:type
           rdf:resource="http://purl.org/dc/dcmitype/StillImage" />
        <dc:title></dc:title>
      </cc:Work>
    </rdf:RDF>
  </metadata>
  <sodipodi:namedview
     pagecolor="#ffffff"
     bordercolor="#666666"
     borderopacity="1"
     objecttolerance="10"
     gridtolerance="10"
     guidetolerance="10"
     inkscape:pageopacity="0"
     inkscape:pageshadow="2"
     inkscape:window-width="1920"
     inkscape:window-height="1017"
     id="namedview10"
     showgrid="false"
     inkscape:zoom="0.34179688"
     inkscape:cx="512"
     inkscape:cy="180.46565"
     inkscape:window-x="-8"
     inkscape:window-y="-8"
     inkscape:window-maximized="1"
     inkscape:current-layer="svg14620" />
  <defs
     id="defs14622" />
  <g
     id="g4150">
    <path
       inkscape:connector-curvature="0"
       style="fill:#fdd005;fill-opacity:1;fill-rule:nonzero;stroke:none"
       id="path2462"
       d="m 36.035906,323.13195 177.742034,0 0,-285.973154 -177.742034,0 0,285.973154 z m 213.886324,36.05401 -249.922273564249,0 0,-358.0722623 249.922273564249,0 0,358.0722623 z" />
    <path
       inkscape:connector-curvature="0"
       style="fill:#e4e4e4;fill-opacity:1;fill-rule:evenodd;stroke:none"
       id="path2464"
       d="m 953.84811,287.70994 4.21333,0 c 12.18854,0 18.027,6.35008 18.027,20.10357 0,16.64263 -6.1996,23.26356 -16.55234,23.26356 l -5.68799,0 0,-43.36713 z m -114.63247,-28.50012 178.78936,0 0,100.37339 -178.78936,0 0,-100.37339 z m 46.19607,41.59152 0,-26.90508 -15.95043,0 0,70.99449 15.95043,0 0,-30.27573 20.61519,0 0,30.27573 15.95044,0 0,-70.99449 -15.95044,0 0,26.90508 -20.61519,0 z m 70.39259,-26.90508 -17.87653,0 0,70.99449 22.66166,0 c 21.24719,0 31.81059,-15.49901 31.81059,-35.48219 0,-20.22395 -9.57026,-35.5123 -36.59572,-35.5123" />
    <path
       inkscape:connector-curvature="0"
       style="fill:#464646;fill-opacity:1;fill-rule:nonzero;stroke:none"
       id="path2466"
       d="m 885.41171,300.80134 20.61519,0 0,-26.90508 15.95044,0 0,70.99449 -15.95044,0 0,-30.27573 -20.61519,0 0,30.27573 -15.95043,0 0,-70.99449 15.95043,0 0,26.90508 z m 70.39259,-26.90508 c 27.02546,0 36.59572,15.28835 36.59572,35.5123 0,19.98318 -10.5634,35.48219 -31.81059,35.48219 l -22.66166,0 0,-70.99449 17.87653,0 z m -1.95739,13.81368 0,43.36713 5.68799,0 c 10.35273,0 16.55234,-6.62093 16.55234,-23.26356 0,-13.75349 -5.83847,-20.10357 -18.02701,-20.10357 l -4.21332,0" />
    <path
       inkscape:connector-curvature="0"
       style="fill:#969696;fill-opacity:1;fill-rule:nonzero;stroke:none"
       id="path2468"
       d="m 756.6947,273.26426 -28.34965,0 0,27.23613 27.77784,0 0,13.33215 -27.77784,0 0,32.08145 33.46582,0 0,13.30206 -50.49968,0 0,-99.28394 45.38351,0 0,13.33215 z m -58.71567,85.95179 -12.33901,0 c -16.1912,-22.81213 -32.20183,-45.50389 -48.27265,-71.17506 l -0.12038,71.17506 -13.63311,0 0,-99.28394 12.36911,0 c 16.16111,22.69175 32.17173,45.26312 48.09208,70.78382 l 0.26965,-70.78382 13.63311,0 0,99.28394 z m -90.40587,0 -12.30892,0 c -16.1912,-22.81213 -32.23192,-45.50389 -48.27264,-71.17506 l -0.12038,71.17506 -13.63311,0 0,-99.28394 12.33901,0 c 16.16111,22.69175 32.23192,45.26312 48.12217,70.78382 l 0.27206,-70.78382 13.60301,0 0,99.28394 z m -126.24921,-99.28394 14.20492,0 31.63001,99.28394 -18.99005,0 -7.82474,-27.05555 -29.94469,0 -8.6674,27.05555 -14.74663,0 34.33858,-99.28394 z m -6.50056,60.00975 22.99271,0 c -3.7318,-13.0613 -7.28303,-25.12946 -11.25559,-40.4178 -3.82209,15.28834 -7.79465,27.3565 -11.73712,40.4178 z m -33.94734,39.27419 -17.00377,0 0,-47.79112 -35.33172,0 0,47.79112 -16.88339,0 0,-99.28394 16.88339,0 0,38.16066 35.33172,0 0,-37.85971 17.00377,0 0,98.98299 z m -79.87257,-81.25694 c -4.09294,-2.55809 -10.92454,-5.56761 -17.45519,-5.56761 -17.27463,0 -29.91459,14.3554 -29.91459,36.92677 0,23.53442 13.90396,37.43838 30.36602,37.43838 6.50055,0 12.63996,-2.13796 17.00376,-4.9657 l 4.72494,12.33902 c -5.14627,3.52113 -14.20491,6.80151 -22.45099,6.80151 -29.2224,0 -47.67074,-22.69176 -47.67074,-51.91416 0,-27.11574 18.29786,-50.80064 47.9416,-50.80064 8.81788,0 17.03386,3.70171 22.84223,7.64417 l -5.38704,12.09826 z M 1018.5527,148.6101 c -4.0929,-2.58819 -10.9245,-5.56761 -17.4552,-5.56761 -17.36489,0 -30.06505,14.35539 -30.06505,36.95686 0,23.6247 13.96416,37.58886 30.48645,37.58886 6.5306,0 12.67,-2.13555 17.0338,-4.9958 l 4.725,12.36912 c -5.1463,3.58132 -14.2351,6.8316 -22.4811,6.8316 -29.31272,0 -47.79115,-22.75195 -47.79115,-52.06464 0,-27.14583 18.35805,-50.92101 48.09205,-50.92101 8.8179,0 17.0339,3.7318 22.9024,7.67426 l -5.4472,12.12836 z m -76.77275,81.4676 -16.92142,0 0,-99.5548 16.92142,0 0,99.5548 z m -33.31534,0 -17.06396,0 0,-47.9115 -35.42201,0 0,47.9115 -16.91348,0 0,-99.5548 16.91348,0 0,38.28105 35.42201,0 0,-37.9801 17.06396,0 0,99.25385 z m -119.4778,0 -17.06396,0 0,-99.5548 26.60412,0 c 19.05024,0 30.84755,9.38969 30.84755,28.74088 0,16.76301 -12.36912,33.28525 -32.71345,33.28525 l -7.67426,0 0,37.52867 z m 0,-49.95797 c 1.32418,-0.12038 5.41713,-0.24076 7.10246,-0.39244 8.12569,-0.42133 16.22129,-6.41027 16.22129,-19.77252 0,-10.23236 -5.65789,-16.07082 -15.64949,-16.07082 l -7.67426,0 0,36.23458 z m -68.40631,-49.59683 14.20492,0 31.7504,99.5548 -19.08034,0 -7.82474,-27.14583 -30.00488,0 -8.6975,27.14583 -14.77673,0 34.42887,-99.5548 z m -6.56075,60.16023 23.0529,0 c -3.70171,-13.0613 -7.25293,-25.15955 -11.2255,-40.50809 -3.85218,15.34854 -7.82474,27.44679 -11.8274,40.50809 z m -28.13897,39.39457 -19.53176,0 -16.07082,-37.52867 -7.64417,0 0,37.52867 -17.09406,0 0,-99.5548 26.60413,0 c 19.08033,0 30.87764,9.38969 30.87764,28.74088 0,11.94778 -6.2598,23.74509 -17.18434,29.58355 l 20.04338,41.23037 z m -43.24675,-86.19255 0,36.26468 c 1.41567,-0.14446 5.38703,-0.27206 7.10245,-0.42134 8.0956,-0.42133 16.2213,-6.41027 16.2213,-19.77252 0,-10.23235 -5.68799,-16.07082 -15.79996,-16.07082 l -7.52379,0 z m -32.71345,40.68867 0,41.10999 c -9.11883,3.55123 -18.659,6.10932 -28.31955,6.10932 -29.31269,0 -47.82121,-22.75195 -47.82121,-52.06464 0,-27.14583 18.50852,-50.92101 48.36293,-50.92101 9.26931,0 18.50852,3.43085 24.19651,7.67426 l -5.53751,11.8274 c -4.57447,-2.85904 -11.70702,-5.26665 -18.23767,-5.26665 -18.17748,0 -30.57669,14.35539 -30.57669,36.95686 0,23.6247 14.20492,37.58886 28.89136,37.58886 4.54437,0 8.36646,-0.6019 11.94778,-2.40761 l 0,-30.60678 17.09405,0 z m -124.20274,47.21931 c -26.03231,0 -42.25361,-23.17328 -42.25361,-52.9073 0,-27.86812 17.90662,-50.07835 42.25361,-50.07835 24.31689,0 42.25361,22.21023 42.25361,50.07835 0,29.73402 -16.22129,52.9073 -42.25361,52.9073 z m 0,-14.20492 c 17.75615,0 24.01594,-19.62205 24.01594,-38.70238 0,-18.32795 -7.10246,-35.84334 -24.01594,-35.84334 -16.94357,0 -24.04603,17.51539 -24.04603,35.84334 0,19.08033 6.25979,38.70238 24.04603,38.70238 z m -52.63644,-73.70306 -28.47002,0 0,27.32641 27.89821,0 0,13.36226 -27.89821,0 0,32.14163 33.5862,0 0,13.36225 -50.65016,0 0,-99.5548 45.53398,0 0,13.36225 z m -61.03299,40.68867 0,41.10999 c -9.11884,3.55123 -18.62891,6.10932 -28.31955,6.10932 -29.28259,0 -47.76103,-22.75195 -47.76103,-52.06464 0,-27.14583 18.47844,-50.92101 48.36293,-50.92101 9.20912,0 18.47843,3.43085 24.16642,7.67426 l -5.56761,11.8274 c -4.51427,-2.85904 -11.64682,-5.26665 -18.17747,-5.26665 -18.23767,0 -30.60679,14.35539 -30.60679,36.95686 0,23.6247 14.23502,37.58886 28.92146,37.58886 4.51427,0 8.36645,-0.6019 11.91768,-2.40761 l 0,-30.60678 17.06396,0 z M 818.96159,1.715601 l 16.94358,0 0,86.192549 33.70658,0 0,13.36225 -50.65016,0 0,-99.554799 z m -50.89092,0 14.23501,0 31.69021,99.554799 -19.05024,0 -7.82474,-27.17593 -30.00488,0 -8.6975,27.17593 -14.77673,0 34.42887,-99.554799 z m -6.53065,60.190327 23.0228,0 c -3.70171,-13.121491 -7.25294,-25.189652 -11.25559,-40.56828 -3.82209,15.378628 -7.82475,27.446789 -11.76721,40.56828 z m -32.47268,39.364472 -12.36912,0 C 700.47693,78.398078 684.40611,55.616039 668.3052,29.884674 l -0.0963,71.385726 -13.66321,0 0,-99.554799 12.33902,0 c 16.25139,22.751944 32.3222,45.383507 48.24255,70.964396 l 0.30095,-70.964396 13.63311,0 0,99.554799 z m -127.18217,1.71422 c -26.03231,0 -42.25361,-23.173273 -42.25361,-52.907295 0,-27.898217 17.93672,-50.07835219 42.25361,-50.07835219 24.34699,0 42.28371,22.18013519 42.28371,50.07835219 0,29.734022 -16.22129,52.907295 -42.28371,52.907295 z m 0,-14.204914 c 17.81634,0 24.04604,-19.652142 24.04604,-38.702381 0,-18.35805 -7.10246,-35.84334 -24.04604,-35.84334 -16.91348,0 -24.01594,17.48529 -24.01594,35.84334 0,19.050239 6.2598,38.702381 24.01594,38.702381 z m -52.60634,12.489494 -16.93202,0 0,-99.5757491 16.93202,0 0,99.5757491 z m -65.72784,0 0,-86.19255 -26.1527,0 0,-13.3622529 69.39945,0 0,13.3622529 -26.18279,0 0,86.19255 -17.06396,0 z m -62.02613,-99.5548029 14.23501,0 31.69021,99.5548029 -19.02015,0 -7.82474,-27.175934 -30.00488,0 -8.6975,27.175934 -14.77672,0 34.39877,-99.5548029 z m -6.53065,60.1903279 23.0228,0 c -3.67161,-13.121492 -7.22284,-25.189652 -11.2255,-40.568281 -3.85218,15.378629 -7.82474,27.446789 -11.7973,40.568281 z m -32.44259,39.364475 -12.36911,0 C 353.96122,78.396874 337.8904,55.614835 321.81958,29.88347 l -0.12038,71.38573 -13.6632,0 0,-99.5548029 12.33901,0 C 336.6264,24.466341 352.66712,47.097904 368.61756,72.678793 l 0.30095,-70.9643959 13.63311,0 0,99.5548029 z m 388.76933,158.6617 16.88338,0 0,85.98188 33.6163,0 0,13.30207 -50.49968,0 0,-99.28395" />
  </g>
</svg>
