<?xml version="1.0" encoding="UTF-8" standalone="no"?>
<!-- Created with Inkscape (http://www.inkscape.org/) -->

<svg
   xmlns:dc="http://purl.org/dc/elements/1.1/"
   xmlns:cc="http://creativecommons.org/ns#"
   xmlns:rdf="http://www.w3.org/1999/02/22-rdf-syntax-ns#"
   xmlns:svg="http://www.w3.org/2000/svg"
   xmlns="http://www.w3.org/2000/svg"
   xmlns:sodipodi="http://sodipodi.sourceforge.net/DTD/sodipodi-0.dtd"
   xmlns:inkscape="http://www.inkscape.org/namespaces/inkscape"
   version="1.0"
   width="636.93024"
   height="192.35945"
   id="svg11358"
   inkscape:version="0.91pre3 r13670"
   sodipodi:docname="orf2.svg">
  <metadata
     id="metadata17">
    <rdf:RDF>
      <cc:Work
         rdf:about="">
        <dc:format>image/svg+xml</dc:format>
        <dc:type
           rdf:resource="http://purl.org/dc/dcmitype/StillImage" />
      </cc:Work>
    </rdf:RDF>
  </metadata>
  <sodipodi:namedview
     pagecolor="#ffffff"
     bordercolor="#666666"
     borderopacity="1"
     objecttolerance="10"
     gridtolerance="10"
     guidetolerance="10"
     inkscape:pageopacity="0"
     inkscape:pageshadow="2"
     inkscape:window-width="1920"
     inkscape:window-height="1017"
     id="namedview15"
     showgrid="false"
     inkscape:zoom="0.54951073"
     inkscape:cx="318.46512"
     inkscape:cy="96.179726"
     inkscape:window-x="-8"
     inkscape:window-y="-8"
     inkscape:window-maximized="1"
     inkscape:current-layer="svg11358" />
  <defs
     id="defs11360" />
  <g
     id="g4155">
    <path
       d="m 121.42718,95.533108 c 0,-33.324014 -27.005925,-59.041667 -60.70886,-59.041667 C 27.00592,36.491441 0,62.209094 0,95.533108 0,128.8477 27.00592,154.55587 60.71832,154.55587 c 33.702935,0 60.70886,-25.70817 60.70886,-59.022762 m -28.815185,0 c 0,17.921862 -15.40217,32.225272 -31.893675,32.225272 -16.68095,0 -31.90317,-14.30341 -31.90317,-32.225272 0,-17.931277 15.22222,-32.234691 31.90317,-32.234691 16.491505,0 31.893675,14.303414 31.893675,32.234691"
       id="path3593"
       style="font-size:10px;letter-spacing:0;word-spacing:0;fill:#e4e4e4;fill-rule:nonzero;stroke:none;fill-opacity:1"
       inkscape:connector-curvature="0" />
    <path
       d="m 161.61869,152.38671 27.91528,0 0,-33.13457 20.83935,0 21.92875,33.13457 34.7922,0 -28.08573,-39.83163 c 13.22351,-5.79709 22.46859,-18.291242 22.46859,-33.683981 0,-22.639123 -16.67149,-40.201013 -42.04816,-40.201013 l -57.81028,0 0,113.716624 z m 56.18104,-59.932138 -28.26576,0 0,-26.986921 28.26576,0 c 12.14368,0 15.7716,5.977037 15.7716,13.403448 0,7.606355 -3.62792,13.583473 -15.7716,13.583473"
       id="path3595"
       style="font-size:10px;letter-spacing:0;word-spacing:0;fill:#e4e4e4;fill-rule:nonzero;stroke:none;fill-opacity:1"
       inkscape:connector-curvature="0" />
    <path
       d="m 308.41309,152.32043 27.88682,0 0,-38.28766 52.70465,0 0,-26.778584 -52.70465,0 0,-21.805519 64.65888,0 0,-26.778581 -92.5457,0 0,113.650344 z"
       id="path3597"
       style="font-size:10px;letter-spacing:0;word-spacing:0;fill:#e4e4e4;fill-rule:nonzero;stroke:none;fill-opacity:1"
       inkscape:connector-curvature="0" />
    <path
       d="m 444.57073,0 192.35948,0 0,192.35946 -192.35948,0 0,-192.35946 z"
       id="path3589"
       style="font-size:10px;letter-spacing:0;word-spacing:0;fill:#ec1b24;fill-rule:nonzero;stroke:none"
       inkscape:connector-curvature="0" />
    <path
       d="m 580.32499,74.211775 c 0,-19.392197 -15.89232,-35.989851 -41.06996,-35.989851 -19.0172,0 -33.74888,7.330123 -45.4449,26.383029 l 23.39206,11.178175 c 5.08912,-9.08003 12.23175,-13.624556 20.98143,-13.624556 8.74969,0 15.26733,5.767642 15.26733,11.704966 0,4.017736 -1.78569,7.865786 -7.23194,12.053128 l -49.90895,39.498694 0,24.63305 83.65782,0 0,-24.99016 -44.37348,0 26.07058,-19.74043 c 11.16027,-8.383642 18.66001,-18.695808 18.66001,-31.106045"
       id="path3599"
       style="font-size:10px;letter-spacing:0;word-spacing:0;fill:#ffffff;fill-rule:nonzero;stroke:none"
       inkscape:connector-curvature="0" />
    <path
       d="m 121.42718,95.533108 c 0,-33.324014 -27.005925,-59.041667 -60.70886,-59.041667 C 27.00592,36.491441 0,62.209094 0,95.533108 0,128.8477 27.00592,154.55587 60.71832,154.55587 c 33.702935,0 60.70886,-25.70817 60.70886,-59.022762 m -28.815185,0 c 0,17.921862 -15.40217,32.225272 -31.893675,32.225272 -16.68095,0 -31.90317,-14.30341 -31.90317,-32.225272 0,-17.931277 15.22222,-32.234691 31.90317,-32.234691 16.491505,0 31.893675,14.303414 31.893675,32.234691"
       id="path3605"
       style="font-size:10px;letter-spacing:0;word-spacing:0;fill:#e4e4e4;fill-rule:nonzero;stroke:none;fill-opacity:1"
       inkscape:connector-curvature="0" />
    <path
       d="m 161.61869,152.38671 27.91528,0 0,-33.13457 20.83935,0 21.92875,33.13457 34.7922,0 -28.08573,-39.83163 c 13.22351,-5.79709 22.46859,-18.291242 22.46859,-33.683981 0,-22.639123 -16.67149,-40.201013 -42.04816,-40.201013 l -57.81028,0 0,113.716624 z m 56.18104,-59.932138 -28.26576,0 0,-26.986921 28.26576,0 c 12.14368,0 15.7716,5.977037 15.7716,13.403448 0,7.606355 -3.62792,13.583473 -15.7716,13.583473"
       id="path3607"
       style="font-size:10px;letter-spacing:0;word-spacing:0;fill:#e4e4e4;fill-rule:nonzero;stroke:none;fill-opacity:1"
       inkscape:connector-curvature="0" />
    <path
       d="m 308.41309,152.32043 27.88682,0 0,-38.28766 52.70465,0 0,-26.778584 -52.70465,0 0,-21.805519 64.65888,0 0,-26.778581 -92.5457,0 0,113.650344 z"
       id="path3609"
       style="font-size:10px;letter-spacing:0;word-spacing:0;fill:#e4e4e4;fill-rule:nonzero;stroke:none;fill-opacity:1"
       inkscape:connector-curvature="0" />
    <path
       d="m 444.57073,0 192.35948,0 0,192.35946 -192.35948,0 0,-192.35946 z"
       id="path3601"
       style="font-size:10px;letter-spacing:0;word-spacing:0;fill:#e2001a;fill-opacity:1;fill-rule:nonzero;stroke:none"
       inkscape:connector-curvature="0" />
    <path
       d="m 580.32499,74.211775 c 0,-19.392197 -15.89232,-35.989851 -41.06996,-35.989851 -19.0172,0 -33.74888,7.330123 -45.4449,26.383029 l 23.39206,11.178175 c 5.08912,-9.08003 12.23175,-13.624556 20.98143,-13.624556 8.74969,0 15.26733,5.767642 15.26733,11.704966 0,4.017736 -1.78569,7.865786 -7.23194,12.053128 l -49.90895,39.498694 0,24.63305 83.65782,0 0,-24.99016 -44.37348,0 26.07058,-19.74043 c 11.16027,-8.383642 18.66001,-18.695808 18.66001,-31.106045"
       id="path3611"
       style="font-size:10px;letter-spacing:0;word-spacing:0;fill:#f8e606;fill-opacity:1;fill-rule:nonzero;stroke:none"
       inkscape:connector-curvature="0" />
  </g>
</svg>
