<?xml version="1.0" encoding="UTF-8" standalone="no"?>
<!-- Generator: Adobe Illustrator 15.0.0, SVG Export Plug-In . SVG Version: 6.00 Build 0)  -->

<svg
   xmlns:dc="http://purl.org/dc/elements/1.1/"
   xmlns:cc="http://creativecommons.org/ns#"
   xmlns:rdf="http://www.w3.org/1999/02/22-rdf-syntax-ns#"
   xmlns:svg="http://www.w3.org/2000/svg"
   xmlns="http://www.w3.org/2000/svg"
   xmlns:sodipodi="http://sodipodi.sourceforge.net/DTD/sodipodi-0.dtd"
   xmlns:inkscape="http://www.inkscape.org/namespaces/inkscape"
   version="1.1"
   id="svg11358"
   x="0px"
   y="0px"
   width="931"
   height="204.08"
   viewBox="0 0 930.99999 204.08"
   enable-background="new 0 0 681.143 204.084"
   xml:space="preserve"
   inkscape:version="0.48.1 "
   sodipodi:docname="ORF2_logo_n.svg"><metadata
   id="metadata26"><rdf:RDF><cc:Work
       rdf:about=""><dc:format>image/svg+xml</dc:format><dc:type
         rdf:resource="http://purl.org/dc/dcmitype/StillImage" /></cc:Work></rdf:RDF></metadata><defs
   id="defs24" /><sodipodi:namedview
   pagecolor="#ffffff"
   bordercolor="#666666"
   borderopacity="1"
   objecttolerance="10"
   gridtolerance="10"
   guidetolerance="10"
   inkscape:pageopacity="0"
   inkscape:pageshadow="2"
   inkscape:window-width="1366"
   inkscape:window-height="706"
   id="namedview22"
   showgrid="false"
   inkscape:zoom="1.0422704"
   inkscape:cx="727.34729"
   inkscape:cy="88.911353"
   inkscape:window-x="-8"
   inkscape:window-y="-8"
   inkscape:window-maximized="1"
   inkscape:current-layer="svg11358" />
<g
   id="layer1"
   transform="translate(-84.896595,81.996916)">
	<g
   id="g13505">
		<path
   id="path3589"
   d="M 561.975,-82.001 H 766.057 V 122.083 H 561.975 V -82.001 z"
   inkscape:connector-curvature="0"
   style="fill:#ffffff" />
		<path
   id="path3591"
   d="M 84.897,-82.001 H 561.579 V 122.083 H 84.897 V -82.001 z"
   inkscape:connector-curvature="0"
   style="fill:#ec1b24" />
		<path
   id="path3593"
   d="m 244.185,20.046 c 0,-33.324 -27.006,-59.042 -60.709,-59.042 -33.712,0 -60.718,25.718 -60.718,59.042 0,33.314 27.006,59.022 60.718,59.022 33.703,0 60.709,-25.708 60.709,-59.022 m -28.815,0 c 0,17.922 -15.402,32.226 -31.894,32.226 -16.681,0 -31.903,-14.304 -31.903,-32.226 0,-17.932 15.223,-32.234 31.903,-32.234 16.492,-10e-4 31.894,14.302 31.894,32.234"
   inkscape:connector-curvature="0"
   style="fill:#ffffff" />
		<path
   id="path3595"
   d="m 284.377,76.899 h 27.916 V 43.764 h 20.839 l 21.929,33.135 h 34.792 L 361.767,37.067 c 13.223,-5.797 22.469,-18.291 22.469,-33.684 0,-22.639 -16.672,-40.201 -42.049,-40.201 h -57.81 V 76.899 z M 340.558,16.967 H 312.292 V -10.02 h 28.266 c 12.144,0 15.771,5.977 15.771,13.403 0,7.607 -3.628,13.584 -15.771,13.584"
   inkscape:connector-curvature="0"
   style="fill:#ffffff" />
		<path
   id="path3597"
   d="m 431.171,76.833 h 27.886 V 38.546 h 52.705 V 11.766 H 459.057 V -10.04 h 64.66 V -36.818 H 431.171 V 76.833 z"
   inkscape:connector-curvature="0"
   style="fill:#ffffff" />
		<path
   id="path3599"
   d="m 706.003,-3.266 c 0,-20.574 -16.861,-38.184 -43.572,-38.184 -20.178,0 -35.807,7.777 -48.215,27.991 L 639.032,-1.6 c 5.4,-9.634 12.979,-14.455 22.262,-14.455 9.283,0 16.197,6.119 16.197,12.418 0,4.263 -1.895,8.346 -7.672,12.788 l -52.951,41.906 v 26.135 h 88.756 V 50.68 h -47.078 l 27.66,-20.943 C 698.046,20.842 706.003,9.9 706.003,-3.266"
   inkscape:connector-curvature="0"
   style="fill:#ffffff" />
		<linearGradient
   id="path3601_1_"
   gradientUnits="userSpaceOnUse"
   x1="626.51923"
   y1="20.0408"
   x2="451.70929"
   y2="20.0408">
			<stop
   offset="0"
   style="stop-color:#FFFFFF"
   id="stop12" />
			<stop
   offset="1"
   style="stop-color:#000000"
   id="stop14" />
		</linearGradient>
		<path
   id="path3601"
   d="m 561.6,-82.001 h 71.749 V 122.083 H 561.6 V -82.001 z"
   inkscape:connector-curvature="0"
   style="fill:url(#path3601_1_)" />
		<path
   id="path3603"
   d="M 84.897,-82.001 H 561.579 V 122.083 H 84.897 V -82.001 z"
   inkscape:connector-curvature="0"
   style="fill:#e2001a" />
		<path
   id="path3605"
   d="m 244.185,20.046 c 0,-33.324 -27.006,-59.042 -60.709,-59.042 -33.712,0 -60.718,25.718 -60.718,59.042 0,33.314 27.006,59.022 60.718,59.022 33.703,0 60.709,-25.708 60.709,-59.022 m -28.815,0 c 0,17.922 -15.402,32.226 -31.894,32.226 -16.681,0 -31.903,-14.304 -31.903,-32.226 0,-17.932 15.223,-32.234 31.903,-32.234 16.492,-10e-4 31.894,14.302 31.894,32.234"
   inkscape:connector-curvature="0"
   style="fill:#ffffff" />
		<path
   id="path3607"
   d="m 284.377,76.899 h 27.916 V 43.764 h 20.839 l 21.929,33.135 h 34.792 L 361.767,37.067 c 13.223,-5.797 22.469,-18.291 22.469,-33.684 0,-22.639 -16.672,-40.201 -42.049,-40.201 h -57.81 V 76.899 z M 340.558,16.967 H 312.292 V -10.02 h 28.266 c 12.144,0 15.771,5.977 15.771,13.403 0,7.607 -3.628,13.584 -15.771,13.584"
   inkscape:connector-curvature="0"
   style="fill:#ffffff" />
		<path
   id="path3609"
   d="m 431.171,76.833 h 27.886 V 38.546 h 52.705 V 11.766 H 459.057 V -10.04 h 64.66 V -36.818 H 431.171 V 76.833 z"
   inkscape:connector-curvature="0"
   style="fill:#ffffff" />
		<path
   id="path3611"
   d="m 706.003,-3.266 c 0,-20.574 -16.861,-38.184 -43.572,-38.184 -20.178,0 -35.807,7.777 -48.215,27.991 L 639.032,-1.6 c 5.4,-9.634 12.979,-14.455 22.262,-14.455 9.283,0 16.197,6.119 16.197,12.418 0,4.263 -1.895,8.346 -7.672,12.788 l -52.951,41.906 v 26.135 h 88.756 V 50.68 h -47.078 l 27.66,-20.943 C 698.046,20.842 706.003,9.9 706.003,-3.266"
   inkscape:connector-curvature="0"
   style="fill:#e2001a" />
	</g>
</g>
<path
   style="fill:#e2001a"
   inkscape:connector-curvature="0"
   id="path4247"
   d="M 790.17523,159.59023 V 44.47785 H 761.94509 V 87.188485 H 715.02178 V 44.47785 h -28.22865 v 115.11238 h 28.22865 v -45.27424 h 46.92257 v 45.27424 h 28.23088 z m 140.5587,-57.55619 c 0,-30.429428 -23.46577,-57.55619 -61.40606,-57.55619 h -52.61041 v 115.11238 h 52.61041 c 37.20943,0 61.40606,-27.12752 61.40606,-57.55619 m -28.22865,0 c 0,16.67828 -12.4656,30.42867 -33.17667,30.42867 H 844.76545 V 71.604612 h 24.56316 c 20.71032,0 33.17667,13.750389 33.17667,30.429428" /><path
   style="fill:#e2001a"
   inkscape:connector-curvature="0"
   d="m 896.92346,11.41839 v 27.432094 c 4.18133,1.552789 8.0409,3.482576 11.68696,5.665439 V -0.26932756 H 703.1198 V 33.289562 h 11.68772 V 11.41839"
   id="path16" /><g
   id="g8207"
   transform="matrix(1.3567529,0,0,1.356726,-432.05792,-249.54582)"><path
     style="fill:#e2001a"
     inkscape:connector-curvature="0"
     id="path4249"
     d="m 836.687,333.958 h 151.459 v -32.941 c -2.694,1.63 -5.542,3.082 -8.615,4.247 v 20.08 H 845.303 v -15.81 h -8.615" /></g></svg>