<?xml version="1.0" encoding="UTF-8" standalone="no"?>
<!-- Created with Inkscape (http://www.inkscape.org/) -->

<svg
   xmlns:svg="http://www.w3.org/2000/svg"
   xmlns="http://www.w3.org/2000/svg"
   version="1.1"
   width="587.95502"
   height="545.75824"
   id="svg2">
  <defs
     id="defs4">
    <linearGradient
       x1="0"
       y1="0"
       x2="1"
       y2="0"
       id="linearGradient29821"
       gradientUnits="userSpaceOnUse"
       gradientTransform="matrix(15.898361,0,0,-15.898361,180.15353,281.3582)"
       spreadMethod="pad">
      <stop
         id="stop29823"
         style="stop-color:#f57814;stop-opacity:1"
         offset="0" />
      <stop
         id="stop29825"
         style="stop-color:#f14d1c;stop-opacity:1"
         offset="1" />
    </linearGradient>
    <linearGradient
       x1="0"
       y1="0"
       x2="1"
       y2="0"
       id="linearGradient29001"
       gradientUnits="userSpaceOnUse"
       gradientTransform="matrix(-0.1299286,-1.4942322,-1.4942322,0.1299286,196.82912,731.80103)"
       spreadMethod="pad">
      <stop
         id="stop29003"
         style="stop-color:#b6c1d0;stop-opacity:1"
         offset="0" />
      <stop
         id="stop29005"
         style="stop-color:#ffffff;stop-opacity:1"
         offset="1" />
    </linearGradient>
    <clipPath
       id="clipPath28997">
      <path
         d="m 0.377975,-1.35066 0.464386,0 0,2.72136 -0.464386,0 0,-2.72136 z"
         id="path28999" />
    </clipPath>
    <clipPath
       id="clipPath28987">
      <path
         d="m 194.899,731.064 -0.197,-0.346 0.001,0 4.065,0 0.001,0 -0.257,0.346 -3.613,0 z"
         id="path28989" />
    </clipPath>
    <linearGradient
       x1="0"
       y1="0"
       x2="1"
       y2="0"
       id="linearGradient28975"
       gradientUnits="userSpaceOnUse"
       gradientTransform="matrix(0.8366089,-0.0334625,-0.0334625,-0.8366089,198.27896,734.30383)"
       spreadMethod="pad">
      <stop
         id="stop28977"
         style="stop-color:#b6c1d0;stop-opacity:1"
         offset="0" />
      <stop
         id="stop28979"
         style="stop-color:#ffffff;stop-opacity:1"
         offset="1" />
    </linearGradient>
    <clipPath
       id="clipPath28971">
      <path
         d="m 0.108612,-4.25612 0.646652,0 0,8.52452 -0.646652,0 0,-8.52452 z"
         id="path28973" />
    </clipPath>
    <clipPath
       id="clipPath28961">
      <path
         d="m 198.513,737.401 -0.001,-6.337 0.256,-0.345 0.001,0.011 0,7.12 -0.001,0 -0.255,-0.449 z"
         id="path28963" />
    </clipPath>
    <linearGradient
       x1="0"
       y1="0"
       x2="1"
       y2="0"
       id="linearGradient28945"
       gradientUnits="userSpaceOnUse"
       gradientTransform="matrix(0.8947754,12.947815,12.947815,-0.8947754,190.19252,721.89557)"
       spreadMethod="pad">
      <stop
         id="stop28947"
         style="stop-color:#9b9bbd;stop-opacity:1"
         offset="0" />
      <stop
         id="stop28949"
         style="stop-color:#c7c7d5;stop-opacity:1"
         offset="0.30337501" />
      <stop
         id="stop28951"
         style="stop-color:#e9ecf0;stop-opacity:1"
         offset="0.61798102" />
      <stop
         id="stop28953"
         style="stop-color:#bdc1d1;stop-opacity:1"
         offset="1" />
    </linearGradient>
    <clipPath
       id="clipPath28941">
      <path
         d="m 0.0140533,-0.718643 1.9421067,0 0,1.460708 -1.9421067,0 0,-1.460708 z"
         id="path28943" />
    </clipPath>
    <clipPath
       id="clipPath28931">
      <path
         d="m 199.878,746.669 0.017,0.005 -0.017,-0.005 z m -3.723,-1.168 c -0.424,-0.198 -1.382,-0.733 -1.861,-1.409 l 0,0 -10.93,-14.771 c -0.507,-0.752 -0.808,-1.647 -0.808,-2.409 l 0,0 c 0,-2.677 2.086,-4.199 4.346,-4.199 l 0,0 3.633,-0.1 c -2.17,0.119 -4.145,1.938 -4.145,4.525 l 0,0 c 0,0.76 0.292,1.827 0.799,2.579 l 0,0 9.814,14.818 c 0.358,0.53 0.81,0.991 1.331,1.364 l 0,0 c 0.466,0.333 0.984,0.593 1.544,0.77 l 0,0 -3.723,-1.168 z m -5.392,-22.895 -0.228,0.007 0.228,-0.007 z"
         id="path28933" />
    </clipPath>
    <linearGradient
       x1="0"
       y1="0"
       x2="1"
       y2="0"
       id="linearGradient28907"
       gradientUnits="userSpaceOnUse"
       gradientTransform="matrix(15.636658,-8.1941833,-8.1941833,-15.636658,183.72163,741.25714)"
       spreadMethod="pad">
      <stop
         id="stop28909"
         style="stop-color:#bcc7d1;stop-opacity:1"
         offset="0" />
      <stop
         id="stop28911"
         style="stop-color:#ffffff;stop-opacity:1"
         offset="1" />
    </linearGradient>
    <clipPath
       id="clipPath28903">
      <path
         d="m -0.00395203,-1.02208 2.02388203,0 0,2.11537 -2.02388203,0 0,-2.11537 z"
         id="path28905" />
    </clipPath>
    <clipPath
       id="clipPath28893">
      <path
         d="m 198.466,745.715 c -0.48,-0.389 -0.933,-0.798 -1.272,-1.303 l 0,0 -9.817,-14.822 c -0.484,-0.715 -0.761,-1.739 -0.761,-2.452 l 0,0 c 0,-2.651 2.15,-4.307 4.147,-4.42 l 0,0 7.802,0 0.005,-4.768 7.753,0.335 0,4.321 1.983,0 c 2.074,0 3.46,1.93 3.46,4.039 l 0,0 c 0,2.066 -1.343,3.839 -3.473,3.934 l 0,0 -1.971,0.134 0.002,10.239 c 0,3.355 -2.416,5.974 -4.501,5.974 l 0,0 -0.236,0.006 c -1.116,0 -2.05,-0.347 -3.121,-1.217 m 0.303,-7.864 0,-7.133 -4.068,0 4.068,7.133 z"
         id="path28895" />
    </clipPath>
    <linearGradient
       x1="0"
       y1="0"
       x2="1"
       y2="0"
       id="linearGradient28881"
       gradientUnits="userSpaceOnUse"
       gradientTransform="matrix(3.2396393,-1.9616089,-1.9616089,-3.2396393,196.57915,734.37848)"
       spreadMethod="pad">
      <stop
         id="stop28883"
         style="stop-color:#505a75;stop-opacity:1"
         offset="0" />
      <stop
         id="stop28885"
         style="stop-color:#c7ccdb;stop-opacity:1"
         offset="1" />
    </linearGradient>
    <clipPath
       id="clipPath28877">
      <path
         d="m -0.899002,-1.08366 1.894119,0 0,2.16729 -1.894119,0 0,-2.16729 z"
         id="path28879" />
    </clipPath>
    <clipPath
       id="clipPath28867">
      <path
         d="m 194.701,730.718 4.067,0 0.001,0.001 0,7.131 0,0 -4.068,-7.132 z"
         id="path28869" />
    </clipPath>
    <radialGradient
       cx="0"
       cy="0"
       r="1"
       fx="0"
       fy="0"
       id="radialGradient28855"
       gradientUnits="userSpaceOnUse"
       gradientTransform="matrix(7.5148926,0,0,-7.5148926,196.61261,724.16852)"
       spreadMethod="pad">
      <stop
         id="stop28857"
         style="stop-color:#515b76;stop-opacity:1"
         offset="0" />
      <stop
         id="stop28859"
         style="stop-color:#c7ccdb;stop-opacity:1"
         offset="1" />
    </radialGradient>
    <clipPath
       id="clipPath28851">
      <path
         d="m -0.332474,0.20874 0.59288,0 0,0.618729 -0.59288,0 0,-0.618729 z"
         id="path28853" />
    </clipPath>
    <clipPath
       id="clipPath28841">
      <path
         d="m 194.114,722.6 0,-4.23 4.456,-0.42 -0.005,4.65 -4.451,0 z"
         id="path28843" />
    </clipPath>
  </defs>
  <g
     transform="translate(78.330828,-14.172072)"
     id="layer1">
    <g
       id="g33896">
      <g
         transform="matrix(1.25,0,0,-1.25,161.31367,1002.3112)"
         id="g28837">
        <g
           clip-path="url(#clipPath28841)"
           id="g28839">
          <g
             id="g28845">
            <g
               id="g28847">
              <g
                 clip-path="url(#clipPath28851)"
                 id="g28849">
                <path
                   d="m 194.114,722.6 0,-4.23 4.456,-0.42 -0.005,4.65 -4.451,0 z"
                   id="path28861"
                   style="fill:url(#radialGradient28855);stroke:none" />
              </g>
            </g>
          </g>
        </g>
      </g>
      <g
         transform="matrix(1.25,0,0,-1.25,161.31367,1002.3112)"
         id="g28863">
        <g
           clip-path="url(#clipPath28867)"
           id="g28865">
          <g
             id="g28871">
            <g
               id="g28873">
              <g
                 clip-path="url(#clipPath28877)"
                 id="g28875">
                <path
                   d="m 194.701,730.718 4.067,0 0.001,0.001 0,7.131 0,0 -4.068,-7.132 z"
                   id="path28887"
                   style="fill:url(#linearGradient28881);stroke:none" />
              </g>
            </g>
          </g>
        </g>
      </g>
      <g
         transform="matrix(1.25,0,0,-1.25,161.31367,1002.3112)"
         id="g28889">
        <g
           clip-path="url(#clipPath28893)"
           id="g28891">
          <g
             id="g28897">
            <g
               id="g28899">
              <g
                 clip-path="url(#clipPath28903)"
                 id="g28901">
                <path
                   d="m 198.466,745.715 c -0.48,-0.389 -0.933,-0.798 -1.272,-1.303 l 0,0 -9.817,-14.822 c -0.484,-0.715 -0.761,-1.739 -0.761,-2.452 l 0,0 c 0,-2.651 2.15,-4.307 4.147,-4.42 l 0,0 7.802,0 0.005,-4.768 7.753,0.335 0,4.321 1.983,0 c 2.074,0 3.46,1.93 3.46,4.039 l 0,0 c 0,2.066 -1.343,3.839 -3.473,3.934 l 0,0 -1.971,0.134 0.002,10.239 c 0,3.355 -2.416,5.974 -4.501,5.974 l 0,0 -0.236,0.006 c -1.116,0 -2.05,-0.347 -3.121,-1.217 m 0.303,-7.864 0,-7.133 -4.068,0 4.068,7.133 z"
                   id="path28913"
                   style="fill:url(#linearGradient28907);stroke:none" />
              </g>
            </g>
          </g>
        </g>
      </g>
      <g
         transform="matrix(1.25,0,0,-1.25,161.31367,1002.3112)"
         id="g28927">
        <g
           clip-path="url(#clipPath28931)"
           id="g28929">
          <g
             id="g28935">
            <g
               id="g28937">
              <g
                 clip-path="url(#clipPath28941)"
                 id="g28939">
                <path
                   d="m 199.878,746.669 0.017,0.005 -0.017,-0.005 z m -3.723,-1.168 c -0.424,-0.198 -1.382,-0.733 -1.861,-1.409 l 0,0 -10.93,-14.771 c -0.507,-0.752 -0.808,-1.647 -0.808,-2.409 l 0,0 c 0,-2.677 2.086,-4.199 4.346,-4.199 l 0,0 3.633,-0.1 c -2.17,0.119 -4.145,1.938 -4.145,4.525 l 0,0 c 0,0.76 0.292,1.827 0.799,2.579 l 0,0 9.814,14.818 c 0.358,0.53 0.81,0.991 1.331,1.364 l 0,0 c 0.466,0.333 0.984,0.593 1.544,0.77 l 0,0 -3.723,-1.168 z m -5.392,-22.895 -0.228,0.007 0.228,-0.007 z"
                   id="path28955"
                   style="fill:url(#linearGradient28945);stroke:none" />
              </g>
            </g>
          </g>
        </g>
      </g>
      <g
         transform="matrix(1.25,0,0,-1.25,161.31367,1002.3112)"
         id="g28957">
        <g
           clip-path="url(#clipPath28961)"
           id="g28959">
          <g
             id="g28965">
            <g
               id="g28967">
              <g
                 clip-path="url(#clipPath28971)"
                 id="g28969">
                <path
                   d="m 198.513,737.401 -0.001,-6.337 0.256,-0.345 0.001,0.011 0,7.12 -0.001,0 -0.255,-0.449 z"
                   id="path28981"
                   style="fill:url(#linearGradient28975);stroke:none" />
              </g>
            </g>
          </g>
        </g>
      </g>
      <g
         transform="matrix(1.25,0,0,-1.25,161.31367,1002.3112)"
         id="g28983">
        <g
           clip-path="url(#clipPath28987)"
           id="g28985">
          <g
             id="g28991">
            <g
               id="g28993">
              <g
                 clip-path="url(#clipPath28997)"
                 id="g28995">
                <path
                   d="m 194.899,731.064 -0.197,-0.346 0.001,0 4.065,0 0.001,0 -0.257,0.346 -3.613,0 z"
                   id="path29007"
                   style="fill:url(#linearGradient29001);stroke:none" />
              </g>
            </g>
          </g>
        </g>
      </g>
      <path
         d="m -51.124751,505.38203 c -3.884211,0 -7.021459,1.02915 -9.428342,3.10405 -2.67247,2.29069 -4.614575,5.14575 -5.842916,8.54858 l -0.19919,0 c 0.298786,-1.87571 0.547773,-3.75141 0.697166,-5.62712 0.165992,-1.87571 0.232389,-3.48583 0.232389,-4.84697 l -12.665184,0 0,52.05507 13.412148,0 0,-21.26356 c 0,-12.73159 3.718219,-19.08908 11.187856,-19.08908 1.01255,0 2.091498,0.1162 3.253442,0.34859 l 0.630769,-13.19636 c -0.431579,-0.0166 -0.863158,-0.0332 -1.278138,-0.0332"
         id="path29541"
         style="fill:#003072;fill-opacity:1;fill-rule:nonzero;stroke:none" />
      <path
         d="m -24.637419,482.44527 -13.395549,0 0,76.43928 13.395549,0 0,-25.13117 c 0.083,-4.69758 1.261539,-8.63158 3.519029,-11.85183 2.274089,-3.20364 5.14575,-4.88016 8.63158,-5.01295 2.406883,0.0166 4.1000009,0.79676 5.0295558,2.30728 0.946154,1.51053 1.3943322,3.63523 1.3611338,6.39069 l 0,33.29798 13.2959536,0 0,-36.55142 c 0.082996,-4.68097 -1.02915,-8.59838 -3.353037,-11.73563 -2.323887,-3.15385 -6.3740901,-4.79717 -12.1506093,-4.91336 -4.0502029,0.0498 -7.5194349,0.92956 -10.4242929,2.67247 -2.88826,1.74292 -5.112552,4.1 -6.639677,7.07126 l -0.21579,-0.1162 c 0.365182,-1.56032 0.61417,-3.31984 0.746964,-5.24534 0.149392,-1.92551 0.19919,-3.70162 0.19919,-5.32834 l 0,-22.29272"
         id="path29553"
         style="fill:#003072;fill-opacity:1;fill-rule:nonzero;stroke:none" />
      <path
         d="m 42.546155,505.68414 c -5.212147,0.0498 -9.627532,1.26154 -13.262755,3.63522 -3.618624,2.37369 -6.39069,5.62713 -8.282998,9.77693 -1.892308,4.1332 -2.838462,8.88057 -2.855061,14.22551 0.0332,9.12955 2.27409,15.85223 6.672876,20.18462 4.365588,4.26599 10.623483,6.40728 18.790286,6.42388 l 0.298786,0 c 3.270041,0 6.490284,-0.29878 9.677329,-0.86316 3.170446,-0.56437 6.158301,-1.39433 8.963565,-2.50647 l -1.261539,-10.3579 c -2.27409,1.06235 -4.73077,1.85911 -7.353443,2.40688 -2.622672,0.56438 -5.228745,0.84656 -7.834819,0.84656 l -0.149392,0 c -9.544536,0 -14.275306,-4.81376 -14.19231,-14.4579 l 32.252232,0 c 0.298785,-2.22429 0.431579,-4.24939 0.414979,-6.0753 0.0166,-4.33239 -0.746963,-8.2498 -2.290688,-11.73563 -1.543725,-3.50243 -3.934009,-6.27449 -7.170852,-8.34939 -3.220243,-2.0417 -7.370041,-3.10405 -12.416196,-3.15385 m -10.573686,20.21782 c 0.398381,-3.18705 1.477328,-5.69353 3.270041,-7.55264 1.776114,-1.84251 4.083402,-2.78866 6.888665,-2.82186 2.855061,0.0332 5.095952,0.94616 6.689475,2.75547 1.610122,1.79271 2.373685,4.33239 2.307288,7.61903 l -19.155469,0"
         id="path29557"
         style="fill:#003072;fill-opacity:1;fill-rule:nonzero;stroke:none" />
      <path
         d="m 83.341992,483.90599 c -2.357085,0.0664 -4.31579,0.84656 -5.859515,2.39028 -1.560324,1.52713 -2.357086,3.41944 -2.406883,5.67693 0.0498,2.30729 0.846559,4.23279 2.406883,5.75992 1.543725,1.54372 3.50243,2.34048 5.859515,2.40688 2.357085,-0.0664 4.332389,-0.86316 5.909313,-2.40688 1.593522,-1.52713 2.406883,-3.45263 2.473279,-5.75992 -0.0664,-2.30729 -0.879757,-4.2162 -2.473279,-5.72672 -1.576924,-1.51053 -3.552228,-2.29069 -5.909313,-2.34049 m 6.706074,22.94008 -13.412148,0 0,52.03847 13.412148,0 0,-52.03847 z"
         id="path29569"
         style="fill:#003072;fill-opacity:1;fill-rule:nonzero;stroke:none" />
      <path
         d="m 134.0824,505.68414 c -4.24939,0.0498 -7.86802,1.02915 -10.85587,2.92146 -2.97126,1.89231 -5.26195,4.41538 -6.83887,7.55263 l -0.0996,-0.0996 c 0.24898,-1.42753 0.43157,-3.00446 0.56437,-4.73077 0.0996,-1.72632 0.16599,-3.22025 0.16599,-4.48179 l -12.66518,0 0,52.03847 13.39554,0 0,-25.14777 c 0.083,-4.68098 1.24494,-8.61498 3.51903,-11.83523 2.27409,-3.20364 5.14575,-4.88016 8.63158,-5.01295 2.40689,0.0166 4.1,0.79676 5.02956,2.30728 0.94615,1.51053 1.39433,3.63523 1.34453,6.39069 l 0,33.29798 13.31256,0 0,-36.55142 c 0.083,-4.68097 -1.02915,-8.59838 -3.35304,-11.73563 -2.32389,-3.15385 -6.37409,-4.79717 -12.15061,-4.91336"
         id="path29573"
         style="fill:#003072;fill-opacity:1;fill-rule:nonzero;stroke:none" />
      <path
         d="m 224.77542,505.66422 -0.0498,0 c -4.41538,0.11619 -8.03401,1.22834 -10.88907,3.30324 -2.83846,2.0915 -4.86356,4.48178 -6.0753,7.17085 -0.58097,-2.63927 -1.97531,-5.01296 -4.1996,-7.12105 -2.20769,-2.1081 -5.59393,-3.22025 -10.14211,-3.35304 -3.91741,0.0332 -7.35344,0.97935 -10.32469,2.83846 -2.97126,1.85911 -5.24535,4.39879 -6.85547,7.63563 l -0.21579,0 c 0.26559,-1.56032 0.44818,-3.20364 0.56437,-4.89676 0.1162,-1.69312 0.18259,-3.17045 0.16599,-4.41539 l -12.66518,0 0,52.02187 13.41215,0 0,-24.91538 c 0.0996,-4.96316 1.32793,-9.02997 3.65182,-12.18381 2.32389,-3.15385 5.07935,-4.78057 8.283,-4.88016 2.48988,0.0498 4.1664,0.91295 5.01295,2.58947 0.82996,1.65992 1.22834,3.80121 1.16195,6.40729 l 0,32.98259 13.19636,0 0,-24.91538 c 0.11619,-5.14575 1.37773,-9.26235 3.76801,-12.3332 2.37369,-3.07086 5.09596,-4.64778 8.16681,-4.73077 2.40688,0.0166 4.0502,0.82995 4.92996,2.42348 0.87975,1.57692 1.29473,3.78461 1.24494,6.57328 l 0,32.98259 13.39554,0 0,-35.80445 c -0.0166,-5.90932 -1.36113,-10.27491 -4.017,-13.12997 -2.67247,-2.83846 -6.50688,-4.24939 -11.51984,-4.24939"
         id="path29577"
         style="fill:#007abb;fill-opacity:1;fill-rule:nonzero;stroke:none" />
      <path
         d="m 273.6036,505.68414 c -3.38624,0.0166 -6.67288,0.31538 -9.87652,0.91296 -3.18704,0.59757 -6.1251,1.37773 -8.76437,2.34048 l 1.14534,11.20446 c 2.27409,-1.27814 4.79717,-2.27409 7.58583,-2.98786 2.77207,-0.73036 5.37814,-1.09554 7.81822,-1.09554 3.71822,0 6.35749,0.69716 7.90122,2.09149 1.54372,1.39434 2.29069,3.43604 2.24089,6.1749 l 0,2.82187 c -5.92591,0 -11.15466,0.73036 -15.65304,2.17449 -4.48178,1.44413 -8.00081,3.56883 -10.54049,6.40729 -2.52308,2.82186 -3.80121,6.32429 -3.85101,10.47409 0.0332,4.24939 1.32793,7.56923 3.90081,10.00931 2.57287,2.42349 6.2247,3.66843 10.97207,3.71822 3.91741,-0.0498 7.35344,-0.97935 10.2915,-2.78866 2.92145,-1.79271 5.04615,-4.183 6.35749,-7.17085 l 0.0996,0.11619 c -0.38178,2.77207 -0.56437,5.69352 -0.51457,8.79757 l 12.66518,0 c -0.11619,-2.19109 -0.18259,-4.43198 -0.23239,-6.75587 -0.0664,-2.30729 -0.083,-4.53158 -0.083,-6.65627 l 0,-21.67855 c 0.0498,-3.78462 -0.56438,-7.02146 -1.84251,-9.71053 -1.27814,-2.70567 -3.48583,-4.76397 -6.60648,-6.2081 -3.13725,-1.44413 -7.46964,-2.17449 -13.01377,-2.19109 m -3.03765,43.98786 c -1.95871,-0.0332 -3.46923,-0.53117 -4.54818,-1.52712 -1.07895,-0.99596 -1.61012,-2.34049 -1.62672,-4.03361 l 1.32793,-4.0004 c 0.94616,-1.26154 2.67247,-2.27409 5.17895,-3.05426 2.50648,-0.78016 6.1085,-1.19514 10.75628,-1.21174 l 0,1.26154 c -0.0332,3.27004 -1.06235,6.1417 -3.07085,8.63158 -1.99191,2.48988 -4.66438,3.80122 -8.01741,3.93401"
         id="path29581"
         style="fill:#007abb;fill-opacity:1;fill-rule:nonzero;stroke:none" />
      <path
         d="m 316.39632,483.90599 c -2.35709,0.0664 -4.31579,0.84656 -5.85952,2.39028 -1.56032,1.52713 -2.35708,3.41944 -2.40688,5.67693 0.0498,2.30729 0.84656,4.23279 2.40688,5.75992 1.54373,1.54372 3.50243,2.34048 5.85952,2.40688 2.35709,-0.0664 4.33239,-0.86316 5.90931,-2.40688 1.57693,-1.52713 2.40689,-3.45263 2.47328,-5.75992 -0.0664,-2.30729 -0.89635,-4.2162 -2.47328,-5.72672 -1.57692,-1.51053 -3.55222,-2.29069 -5.90931,-2.34049 m 6.70607,22.94008 -13.39554,0 0,52.03847 13.39554,0 0,-52.03847 z"
         id="path29585"
         style="fill:#007abb;fill-opacity:1;fill-rule:nonzero;stroke:none" />
      <path
         d="m 367.13673,505.68414 c -4.24939,0.0498 -7.86802,1.02915 -10.85587,2.92146 -2.97126,1.89231 -5.26195,4.41538 -6.83887,7.55263 l -0.0996,-0.0996 c 0.24898,-1.42753 0.44817,-3.00446 0.56437,-4.73077 0.11619,-1.72632 0.16599,-3.22025 0.16599,-4.48179 l -12.68178,0 0,52.03847 13.41214,0 0,-25.14777 c 0.083,-4.68098 1.26154,-8.61498 3.51903,-11.83523 2.27409,-3.20364 5.14575,-4.88016 8.63158,-5.01295 2.42349,0.0166 4.1,0.79676 5.02956,2.30728 0.94615,1.51053 1.39433,3.63523 1.36113,6.39069 l 0,33.29798 13.29596,0 0,-36.55142 c 0.083,-4.68097 -1.02915,-8.59838 -3.35304,-11.73563 -2.32389,-3.15385 -6.37409,-4.79717 -12.15061,-4.91336"
         id="path29589"
         style="fill:#007abb;fill-opacity:1;fill-rule:nonzero;stroke:none" />
      <path
         d="m 428.13545,493.6215 -19.90243,2.55628 -2.65587,10.62348 -10.09231,0 -1.92551,7.76842 10.07571,0 -7.37004,29.57976 c -1.22834,5.06276 -1.02915,8.79758 0.61417,11.18786 1.61012,2.35708 4.36559,3.55223 8.2332,3.55223 l 0.11619,0 28.35143,0 4.1166,-9.42834 c -0.68057,0.34858 -2.02511,0.63076 -4.01701,0.86315 -1.9919,0.23239 -4.38219,0.34859 -7.13765,0.34859 l -7.86802,0 c -0.11619,0.0166 -0.23239,0.0166 -0.34858,0.0166 -1.51053,0 -2.53968,-0.34859 -3.05425,-1.04575 -0.56438,-0.74697 -0.58098,-2.1745 -0.0332,-4.2826 l 7.68542,-30.7915 18.10972,0 c -0.36518,-1.29474 -0.69716,-2.45668 -1.02915,-3.51903 -0.74696,-2.40688 -1.34453,-3.81781 -1.82591,-4.24939 l -13.32915,0 3.28664,-13.17976"
         id="path29593"
         style="fill:#003072;fill-opacity:1;fill-rule:nonzero;stroke:none" />
      <path
         d="m 509.63749,506.8079 -11.85182,0 -0.23239,1.77611 c -0.31539,1.32794 -3.00446,5.41134 -8.05061,12.25021 -5.02956,6.83887 -11.68583,16.05142 -19.93563,27.63765 -1.82591,-8.1336 -3.31984,-14.69028 -4.48178,-19.67004 -1.16195,-4.97976 -2.0583,-8.83077 -2.65587,-11.51984 -0.59758,-2.70567 -0.97936,-4.68097 -1.12875,-5.95911 l 0.083,-2.97126 0.49797,-1.54372 -23.70365,0 c 0.48138,0.43158 1.07895,1.84251 1.82592,4.24939 0.33198,1.04575 0.66396,2.2243 1.02915,3.50243 0.44817,1.62672 0.91295,3.45264 1.41093,5.44454 0.89635,3.56882 1.77611,7.30364 2.67247,11.22105 0.89635,3.90081 1.72631,7.58583 2.50647,11.03847 l 3.83442,16.61579 19.27166,0 30.21053,-41.64738 c 2.32389,-3.25344 4.1,-5.61052 5.36154,-7.08785 l 3.33644,-3.33644"
         id="path29605"
         style="fill:#003072;fill-opacity:1;fill-rule:nonzero;stroke:none" />
      <path
         d="M 268.40625,0 C 262.13176,0 255.71099,0.180718 249.1875,0.5625 223.50855,2.073026 199.10615,6.787145 176.53125,13.875 136.64339,26.390792 102.44851,46.321605 76.96875,69.0625 74.943648,70.871812 67.564979,73.411462 71.25,75.71875 84.877937,71.153972 98.554653,69.3125 112,69.3125 c 30.55911,0 59.92836,9.568696 84.84375,18.78125 110.94901,40.96681 190.72259,116.51443 265.46875,190.28125 24.7494,-39.30689 51.30921,-76.82201 76.125,-116.0625 C 511.53021,118.20844 474.77263,76.883457 428.0625,47.1875 407.09772,33.858348 383.95529,22.257592 358.09375,13.875 331.28605,5.193622 301.58804,0 268.40625,0 z"
         transform="translate(-78.330828,14.172072)"
         id="path29609"
         style="fill:#007abb;fill-opacity:1;fill-rule:nonzero;stroke:none" />
      <path
         d="m 24.864695,96.872571 c -17.7113389,0 -33.8125561,4.083399 -44.303246,15.868829 -11.503241,12.91417 -13.196359,37.26519 -9.511338,58.99353 7.41984,-4.61457 11.719031,-12.41619 18.076521,-18.07652 C 13.527446,131.88027 44.617735,118.28553 77.61693,105.12237 60.918142,100.74018 42.111257,96.872571 24.864695,96.872571"
         id="path29625"
         style="fill:#007abb;fill-opacity:1;fill-rule:nonzero;stroke:none" />
      <path
         d="m 430.59545,291.61264 c -25.16438,32.55102 -64.10608,51.3247 -105.60407,67.55872 16.78179,3.63522 33.049,8.56518 51.27491,8.56518 0.34858,0 0.69717,0 1.04575,-0.0166 41.2158,-0.43158 65.26803,-27.13968 54.22956,-75.16115 l -0.94615,-0.94615"
         id="path29629"
         style="fill:#003072;fill-opacity:1;fill-rule:nonzero;stroke:none" />
      <path
         d="m 18.625058,170.77716 c -21.9109348,32.9826 -42.942112,66.96114 -65.649808,100.8567 -3.70162,5.52753 -9.627532,11.12146 -9.511338,15.22146 0.0664,2.52307 5.029556,7.98421 8.565184,13.31255 43.888266,66.39677 104.790705,118.78382 190.276554,139.8648 23.91943,5.90931 47.78907,8.56518 71.06114,8.56518 82.332,0 156.99517,-33.39757 198.19436,-75.16114 l 0,-0.94616 c -11.68583,5.09596 -24.73279,7.05466 -38.06194,7.05466 -24.7992,0 -50.57775,-6.78907 -70.39718,-12.76478 C 216.27165,340.55371 149.82508,289.1626 89.984989,237.37312 64.023851,214.91441 40.336802,192.14032 18.625058,170.77716"
         id="path29633"
         style="fill:#003072;fill-opacity:1;fill-rule:nonzero;stroke:none" />
    </g>
  </g>
</svg>
