<?xml version="1.0" encoding="utf-8"?>
<!-- Generator: Adobe Illustrator 16.0.3, SVG Export Plug-In . SVG Version: 6.00 Build 0)  -->
<!DOCTYPE svg PUBLIC "-//W3C//DTD SVG 1.1//EN" "http://www.w3.org/Graphics/SVG/1.1/DTD/svg11.dtd">
<svg version="1.1" id="Ebene_2" xmlns="http://www.w3.org/2000/svg" xmlns:xlink="http://www.w3.org/1999/xlink" x="0px" y="0px"
	 width="425.197px" height="141.732px" viewBox="0 0 425.197 141.732" enable-background="new 0 0 425.197 141.732"
	 xml:space="preserve">
<g>
	<path fill-rule="evenodd" clip-rule="evenodd" fill="#C59723" d="M109.663,99.059c0,10.961,0,21.923,0,32.885
		c0,0.726,0.199,1.442-1.008,1.438c-13.151-0.047-26.308,0.183-39.453-0.104c-14.887-0.324-27.868-6.049-38.766-16.508
		C19.111,105.901,12.537,92.425,11.24,76.38C9.769,58.184,15.02,42.221,26.895,28.822C38.688,15.517,53.436,8.701,70.941,8.629
		c10.895-0.044,21.791,0.008,32.687-0.034c1.108-0.005,1.487,0.263,1.456,1.471c-0.083,3.186-0.079,6.378-0.002,9.564
		c0.028,1.188-0.313,1.507-1.452,1.502c-10.512-0.044-21.023-0.03-31.534-0.024c-22.315,0.011-41.114,15.03-46.848,37.42
		c-6.866,26.812,9.934,55.258,36.063,61.076c3.576,0.796,7.181,1.219,10.843,1.205c8.016-0.033,16.032-0.03,24.048,0.013
		c1.077,0.006,1.465-0.209,1.461-1.445c-0.046-13.552-0.042-27.105-0.006-40.657c0.002-1.122-0.286-1.484-1.371-1.422
		c-1.626,0.09-3.263-0.01-4.894,0.038c-0.837,0.025-1.191-0.201-1.177-1.162c0.052-3.438,0.05-6.876,0-10.313
		c-0.013-0.948,0.32-1.176,1.168-1.172c5.711,0.029,11.424,0.048,17.135-0.01c1.196-0.012,1.153,0.634,1.152,1.497
		C109.659,77.136,109.663,88.097,109.663,99.059z"/>
	<path fill-rule="evenodd" clip-rule="evenodd" fill="#C59723" d="M315.275,102.142c0-9.865,0.023-19.732-0.028-29.597
		c-0.007-1.289,0.27-1.72,1.578-1.672c2.973,0.111,5.955,0.123,8.926-0.004c1.359-0.059,1.549,0.445,1.532,1.681
		c-0.064,4.833-0.03,9.666-0.024,14.5c0.013,10.762,0.049,21.524,0.022,32.286c-0.003,1.165,0.271,1.497,1.418,1.491
		c8.638-0.052,17.295,0.31,25.917-0.099c17.918-0.849,31.396-9.667,40.484-25.641c4.21-7.4,6.146-15.562,6.104-24.112
		c-0.129-26.396-18.873-45.673-40.021-49.206c-2.563-0.428-5.133-0.666-7.729-0.665c-10.656,0.005-21.312-0.019-31.968,0.032
		c-1.206,0.005-1.537-0.34-1.507-1.573c0.081-3.287,0.053-6.578,0.013-9.865c-0.011-0.85,0.245-1.096,1.059-1.093
		c11.711,0.032,23.427-0.161,35.134,0.09c14.005,0.299,26.31,5.565,36.85,15.04c11.842,10.64,18.876,24.117,20.547,40.31
		c1.929,18.705-3.338,35.185-15.556,49.061c-9.753,11.081-21.923,17.675-36.319,19.701c-2.713,0.381-5.436,0.556-8.174,0.554
		c-12.241-0.011-24.481-0.029-36.722,0.03c-1.299,0.007-1.573-0.359-1.565-1.651C315.299,121.875,315.275,112.008,315.275,102.142z"
		/>
	<path fill-rule="evenodd" clip-rule="evenodd" fill="#C59723" d="M233.066,70.947c0-20.227,0.015-40.453-0.034-60.678
		c-0.003-1.41,0.393-1.72,1.665-1.68c3.021,0.094,6.048,0.086,9.068,0.003c1.129-0.03,1.43,0.291,1.425,1.471
		c-0.046,10.461-0.027,20.923-0.027,31.385c0,25.906,0.01,51.811-0.03,77.716c-0.003,1.348,0.305,1.715,1.63,1.712
		c19.582-0.048,39.161-0.02,58.742-0.063c1.295-0.002,1.716,0.301,1.668,1.702c-0.106,3.185-0.057,6.376-0.018,9.563
		c0.01,0.888-0.105,1.305-1.139,1.304c-23.947-0.033-47.896-0.036-71.843,0.004c-1.221,0.001-1.117-0.625-1.116-1.462
		C233.068,111.598,233.066,91.273,233.066,70.947z"/>
	<path fill-rule="evenodd" clip-rule="evenodd" fill="#C59723" d="M225.559,40.243c-4.632,0-9.085-0.017-13.539,0.013
		c-0.912,0.005-1.206-0.71-1.635-1.271c-7.313-9.523-16.612-16.043-28.085-18.513c-20.328-4.375-37.243,2.008-50.56,18.542
		c-0.724,0.899-1.4,1.277-2.516,1.255c-3.598-0.07-7.198-0.016-10.798-0.037c-0.554-0.004-1.336,0.312-1.616-0.197
		c-0.322-0.591,0.357-1.157,0.66-1.682c5.855-10.194,13.761-18.21,23.795-23.913c23.203-13.185,52.004-9.596,71.575,8.878
		C218.016,28.205,223.334,35.244,225.559,40.243z"/>
	<path fill-rule="evenodd" clip-rule="evenodd" fill="#C59723" d="M225.465,101.912c-8.654,17.321-28.879,34-55.55,33.544
		c-25.041-0.428-44.657-16.306-53.259-33.544c1.315,0,2.533,0,3.75,0c3.12-0.001,6.24,0.023,9.358-0.018
		c0.793-0.01,1.286,0.249,1.791,0.91c8.461,11.064,19.395,17.925,32.91,19.646c17.621,2.241,32.521-3.726,44.298-17.527
		c1.911-2.239,3.631-3.302,6.484-3.074C218.583,102.117,221.956,101.912,225.465,101.912z"/>
	<path fill-rule="evenodd" clip-rule="evenodd" fill="#C59723" d="M172.863,73.307c0,3.883-0.034,7.766,0.022,11.648
		c0.013,1-0.292,1.239-1.213,1.23c-2.553-0.021-2.554,0.022-2.554-2.652c0-2.489-0.033-4.979,0.018-7.466
		c0.018-0.922-0.158-1.315-1.165-1.292c-2.972,0.072-5.947,0.058-8.919,0.007c-0.886-0.017-1.153,0.27-1.138,1.184
		c0.049,2.936-0.031,5.875,0.044,8.81c0.028,1.109-0.257,1.446-1.347,1.417c-2.469-0.067-2.471-0.003-2.471-2.596
		c0-7.118-0.003-14.237,0.002-21.355c0.002-3.325,1.311-5.313,4.367-6.401c3.37-1.201,6.785-1.19,10.147,0.046
		c2.878,1.059,4.205,3.092,4.207,6.22C172.865,65.841,172.863,69.574,172.863,73.307z"/>
	<path fill-rule="evenodd" clip-rule="evenodd" fill="#C59723" d="M139.38,54.985c2.095-0.024,3.962,0.344,5.647,1.418
		c1.709,1.09,2.664,2.646,2.748,4.774c0.034,0.878-0.282,1.169-1.078,1.066c-0.379-0.049-0.768-0.068-1.148-0.046
		c-0.9,0.055-1.613,0.132-1.66-1.272c-0.043-1.265-1.221-1.711-2.269-1.957c-1.322-0.308-2.674-0.281-3.995,0.061
		c-2.145,0.555-3.244,1.839-3.392,3.886c-0.17,2.37,0.611,3.757,2.826,4.601c1.658,0.632,3.412,0.993,5.078,1.605
		c3.17,1.167,5.746,3.044,6.512,6.717c1.217,5.83-2.356,10.474-8.298,10.816c-1.933,0.112-3.836-0.131-5.654-0.847
		c-2.684-1.058-4.263-3.334-4.236-5.958c0.007-0.684,0.031-1.178,0.917-0.985c0.46,0.1,0.961,0.069,1.436,0.011
		c0.933-0.114,1.37,0.189,1.46,1.248c0.095,1.142,0.922,1.864,1.904,2.232c1.845,0.694,3.752,0.841,5.637,0.182
		c1.639-0.573,2.865-1.637,3.157-3.52c0.307-1.971-0.242-3.647-1.771-4.914c-1.302-1.077-2.834-1.637-4.423-2.061
		c-1.391-0.37-2.773-0.769-4.08-1.412c-3.179-1.563-4.39-4.292-4.206-7.783c0.177-3.381,1.689-5.857,4.811-7.113
		C136.653,55.194,138.068,54.948,139.38,54.985z"/>
	<path fill-rule="evenodd" clip-rule="evenodd" fill="#C59723" d="M188.417,72.557c0,4.13-0.029,8.262,0.022,12.392
		c0.012,0.986-0.271,1.246-1.205,1.238c-2.61-0.021-2.613,0.026-2.609-2.606c0.014-7.715,0.012-15.429,0.069-23.143
		c0.009-1.117-0.193-1.598-1.392-1.514c-1.67,0.116-3.356-0.013-5.033,0.046c-0.849,0.031-1.162-0.186-1.161-1.145
		c0.003-2.509-0.048-2.51,2.406-2.51c5.13,0,10.261,0.03,15.391-0.024c1.021-0.011,1.306,0.294,1.266,1.335
		c-0.105,2.771,0.316,2.276-2.171,2.323c-1.342,0.024-2.691,0.082-4.026-0.019c-1.164-0.088-1.567,0.243-1.54,1.533
		c0.084,4.029,0.031,8.063,0.031,12.094C188.449,72.557,188.434,72.557,188.417,72.557z"/>
	<path fill-rule="evenodd" clip-rule="evenodd" fill="#C59723" d="M211.222,70.864c0,4.634-0.034,9.269,0.024,13.902
		c0.014,1.092-0.226,1.458-1.336,1.428c-2.479-0.071-2.48-0.003-2.48-2.592c0-7.524-0.026-15.05,0.026-22.574
		c0.007-1.229-0.166-1.742-1.528-1.688c-3.022,0.118-3.006,0.03-2.792-3.167c0.042-0.635,0.208-0.875,0.834-0.867
		c2.064,0.027,4.129,0.065,6.191-0.014c0.964-0.037,1.08,0.378,1.076,1.221C211.205,61.295,211.221,66.08,211.222,70.864z"/>
	<path fill-rule="evenodd" clip-rule="evenodd" fill="#C69928" d="M199.904,83.605c-0.043,2.491,0.313,2.113-1.885,2.303
		c-1.586,0.137-1.81-0.538-1.736-1.932c0.126-2.396-0.264-1.897,1.984-2.09C199.909,81.748,200.144,82.512,199.904,83.605z"/>
	<path fill-rule="evenodd" clip-rule="evenodd" fill="#FFFFFF" d="M163.463,70.908c-1.486,0-2.975-0.037-4.461,0.015
		c-0.788,0.028-1.104-0.193-1.087-1.077c0.05-2.638,0.039-5.277,0.007-7.916c-0.015-1.252,0.655-1.981,1.658-2.351
		c2.615-0.965,5.265-0.976,7.881,0.014c1.148,0.434,1.71,1.289,1.674,2.642c-0.067,2.487-0.065,4.979,0.004,7.468
		c0.028,1.006-0.295,1.271-1.218,1.225C166.44,70.854,164.95,70.908,163.463,70.908z"/>
</g>
</svg>
