<?xml version="1.0" encoding="UTF-8" standalone="no"?>
<!-- Created with Inkscape (http://www.inkscape.org/) -->

<svg
   xmlns:dc="http://purl.org/dc/elements/1.1/"
   xmlns:cc="http://creativecommons.org/ns#"
   xmlns:rdf="http://www.w3.org/1999/02/22-rdf-syntax-ns#"
   xmlns:svg="http://www.w3.org/2000/svg"
   xmlns="http://www.w3.org/2000/svg"
   xmlns:sodipodi="http://sodipodi.sourceforge.net/DTD/sodipodi-0.dtd"
   xmlns:inkscape="http://www.inkscape.org/namespaces/inkscape"
   width="505.24359"
   height="87.999092"
   id="svg8510"
   version="1.1"
   inkscape:version="0.91pre2 r13516"
   sodipodi:docname="sky select hd.svg">
  <defs
     id="defs3">
    <clipPath
       clipPathUnits="userSpaceOnUse"
       id="clipPath6113">
      <path
         inkscape:connector-curvature="0"
         d="m 66.346,816.221 0,-12.156 9,0 0,12.156 -9,0"
         clip-rule="evenodd"
         id="path6115" />
    </clipPath>
    <clipPath
       clipPathUnits="userSpaceOnUse"
       id="clipPath6121">
      <path
         inkscape:connector-curvature="0"
         d="m 153.23,804.092 -102.883,0 0,16.587 102.883,0 0,-16.587"
         id="path6123" />
    </clipPath>
    <clipPath
       clipPathUnits="userSpaceOnUse"
       id="clipPath6133">
      <path
         inkscape:connector-curvature="0"
         d="m 153.23,804.092 -102.883,0 0,16.587 102.883,0 0,-16.587"
         id="path6135" />
    </clipPath>
    <clipPath
       clipPathUnits="userSpaceOnUse"
       id="clipPath6145">
      <path
         inkscape:connector-curvature="0"
         d="m 90.346,817.221 0,-13.156 8,0 0,13.156 -8,0"
         clip-rule="evenodd"
         id="path6147" />
    </clipPath>
    <clipPath
       clipPathUnits="userSpaceOnUse"
       id="clipPath6153">
      <path
         inkscape:connector-curvature="0"
         d="m 153.23,804.092 -102.883,0 0,16.587 102.883,0 0,-16.587"
         id="path6155" />
    </clipPath>
    <clipPath
       clipPathUnits="userSpaceOnUse"
       id="clipPath6169">
      <path
         inkscape:connector-curvature="0"
         d="m 121.346,817.221 0,-13.156 9,0 0,13.156 -9,0"
         clip-rule="evenodd"
         id="path6171" />
    </clipPath>
    <clipPath
       clipPathUnits="userSpaceOnUse"
       id="clipPath6177">
      <path
         inkscape:connector-curvature="0"
         d="m 153.23,804.092 -102.883,0 0,16.587 102.883,0 0,-16.587"
         id="path6179" />
    </clipPath>
    <clipPath
       clipPathUnits="userSpaceOnUse"
       id="clipPath6193">
      <path
         inkscape:connector-curvature="0"
         d="m 884.718,305.376 -3.534,-67.435 139.144,-7.292 3.534,67.435"
         id="path6195" />
    </clipPath>
    <clipPath
       clipPathUnits="userSpaceOnUse"
       id="clipPath6201">
      <path
         inkscape:connector-curvature="0"
         d="m 1147.126,-5.0434 -132.754,0 -348.231,18.2504 0,104.948 7.773,148.302 222.542,0 0,38.113 250.02,-13.102 0,-214.486 0.67,0 0,-81.4714 -0.02,-0.554 m -53.56,251.1184 c -1.17,0 -1.86,-0.878 -1.86,-2.006 0,-1.096 0.69,-1.974 1.86,-1.974 0.37,0 0.75,0.144 1.05,0.522 l 0.08,-0.431 0.53,0 0,2.053 -1.59,0 0,-0.622 0.84,0 c -0.05,-0.527 -0.36,-0.819 -0.91,-0.819 -0.75,0 -1.03,0.638 -1.03,1.271 0,0.665 0.28,1.304 1.03,1.304 0.4,0 0.71,-0.218 0.81,-0.639 l 0.8,0 c -0.09,0.862 -0.83,1.341 -1.61,1.341 m 10.02,-0.09 0,-0.703 1.87,0 -2.03,-2.436 0,-0.66 3.2,0 0,0.702 -2.09,0 2.04,2.437 0,0.66 -2.99,0 m -3.47,0 0,-0.703 1.14,0 0,-3.096 0.84,0 0,3.096 1.14,0 0,0.703 -3.12,0 m -1.27,0 0,-3.799 0.84,0 0,3.799 -0.84,0 m -3.05,0 0,-3.799 2.69,0 0,0.702 -1.85,0 0,3.097 -0.84,0 m -10.94,15.305 c 0.2,-7.758 6.55,-13.984 14.36,-13.985 7.93,0.001 14.36,6.429 14.36,14.36 0,7.931 -6.43,14.359 -14.36,14.359 -7.81,0 -14.16,-6.226 -14.36,-13.984 l 0,-0.75 m 44.3,5.772 0,-12.202 4.64,0 c 4.39,0 6.95,2.614 6.95,6.136 l 0,0.034 c 0,3.522 -2.52,6.032 -6.88,6.032 l -4.71,0 m -9.1,-7.565 4.34,0 0,-4.637 3.39,0 0,12.202 -3.39,0 0,-4.567 -4.34,0 0,4.567 -3.38,0 0,-12.202 3.38,0 0,4.637 m -20.84,-10.037 c -3.38,0.001 -6.42,1.365 -8.63,3.575 -2.21,2.212 -3.58,5.256 -3.58,8.63 0,3.374 1.37,6.418 3.58,8.63 2.21,2.21 5.25,3.574 8.63,3.574 3.37,0 6.42,-1.364 8.63,-3.574 2.21,-2.212 3.57,-5.256 3.57,-8.63 0,-3.374 -1.36,-6.418 -3.57,-8.63 -2.21,-2.21 -5.26,-3.574 -8.63,-3.575 m 3.97,15.197 0.01,-1.669 2.15,0 -0.01,-5.629 1.84,0 0.01,5.629 2.23,0 0,1.669 -6.23,0 m -5.34,-3.038 2.55,-4.26 1.89,0 0,7.298 -1.75,0 0.07,-4.53 -2.63,4.53 -1.9,0 0,-7.298 1.74,0 0.03,4.26 m -8.83,3.038 0.01,-1.669 2.15,0 0,-5.629 1.84,0 0.01,5.629 2.23,0 -0.01,1.669 -6.23,0 m 44.9,-6.799 -1.38,0 0,6.205 1.38,0 c 2.02,0 3.36,-1.133 3.36,-3.085 l 0,-0.035 c 0,-1.969 -1.34,-3.085 -3.36,-3.085"
         id="path6203" />
    </clipPath>
    <clipPath
       clipPathUnits="userSpaceOnUse"
       id="clipPath6209">
      <path
         inkscape:connector-curvature="0"
         d="m 666.141,342.461 0,-347.5044 481.005,0 0,347.5044 -481.005,0"
         id="path6211" />
    </clipPath>
    <clipPath
       clipPathUnits="userSpaceOnUse"
       id="clipPath6217">
      <path
         inkscape:connector-curvature="0"
         d="m 1318.11,850.394 -1303.937,0 0,-836.221 1303.937,0 0,836.221 z"
         id="path6219" />
    </clipPath>
    <clipPath
       clipPathUnits="userSpaceOnUse"
       id="clipPath6225">
      <path
         inkscape:connector-curvature="0"
         d="m 0.014954,864.57 1332.270046,0 0,-864.57 -1332.270046,0 0,864.57 z"
         id="path6227" />
    </clipPath>
    <clipPath
       clipPathUnits="userSpaceOnUse"
       id="clipPath6237">
      <path
         inkscape:connector-curvature="0"
         d="m 1023.672,298.094 -3.534,-67.435 139.148,-7.292 3.53,67.435"
         id="path6239" />
    </clipPath>
    <clipPath
       clipPathUnits="userSpaceOnUse"
       id="clipPath6245">
      <path
         inkscape:connector-curvature="0"
         d="m 1147.126,-5.0434 -132.754,0 -348.231,18.2504 0,104.948 7.773,148.302 222.542,0 0,38.113 250.02,-13.102 0,-214.486 0.67,0 0,-81.4714 -0.02,-0.554 m -53.56,251.1184 c -1.17,0 -1.86,-0.878 -1.86,-2.006 0,-1.096 0.69,-1.974 1.86,-1.974 0.37,0 0.75,0.144 1.05,0.522 l 0.08,-0.431 0.53,0 0,2.053 -1.59,0 0,-0.622 0.84,0 c -0.05,-0.527 -0.36,-0.819 -0.91,-0.819 -0.75,0 -1.03,0.638 -1.03,1.271 0,0.665 0.28,1.304 1.03,1.304 0.4,0 0.71,-0.218 0.81,-0.639 l 0.8,0 c -0.09,0.862 -0.83,1.341 -1.61,1.341 m 10.02,-0.09 0,-0.703 1.87,0 -2.03,-2.436 0,-0.66 3.2,0 0,0.702 -2.09,0 2.04,2.437 0,0.66 -2.99,0 m -3.47,0 0,-0.703 1.14,0 0,-3.096 0.84,0 0,3.096 1.14,0 0,0.703 -3.12,0 m -1.27,0 0,-3.799 0.84,0 0,3.799 -0.84,0 m -3.05,0 0,-3.799 2.69,0 0,0.702 -1.85,0 0,3.097 -0.84,0 m -10.94,15.305 c 0.2,-7.758 6.55,-13.984 14.36,-13.985 7.93,0.001 14.36,6.429 14.36,14.36 0,7.931 -6.43,14.359 -14.36,14.359 -7.81,0 -14.16,-6.226 -14.36,-13.984 l 0,-0.75 m 44.3,5.772 0,-12.202 4.64,0 c 4.39,0 6.95,2.614 6.95,6.136 l 0,0.034 c 0,3.522 -2.52,6.032 -6.88,6.032 l -4.71,0 m -9.1,-7.565 4.34,0 0,-4.637 3.39,0 0,12.202 -3.39,0 0,-4.567 -4.34,0 0,4.567 -3.38,0 0,-12.202 3.38,0 0,4.637 m -20.84,-10.037 c -3.38,0.001 -6.42,1.365 -8.63,3.575 -2.21,2.212 -3.58,5.256 -3.58,8.63 0,3.374 1.37,6.418 3.58,8.63 2.21,2.21 5.25,3.574 8.63,3.574 3.37,0 6.42,-1.364 8.63,-3.574 2.21,-2.212 3.57,-5.256 3.57,-8.63 0,-3.374 -1.36,-6.418 -3.57,-8.63 -2.21,-2.21 -5.26,-3.574 -8.63,-3.575 m 3.97,15.197 0.01,-1.669 2.15,0 -0.01,-5.629 1.84,0 0.01,5.629 2.23,0 0,1.669 -6.23,0 m -5.34,-3.038 2.55,-4.26 1.89,0 0,7.298 -1.75,0 0.07,-4.53 -2.63,4.53 -1.9,0 0,-7.298 1.74,0 0.03,4.26 m -8.83,3.038 0.01,-1.669 2.15,0 0,-5.629 1.84,0 0.01,5.629 2.23,0 -0.01,1.669 -6.23,0 m 44.9,-6.799 -1.38,0 0,6.205 1.38,0 c 2.02,0 3.36,-1.133 3.36,-3.085 l 0,-0.035 c 0,-1.969 -1.34,-3.085 -3.36,-3.085"
         id="path6247" />
    </clipPath>
    <clipPath
       clipPathUnits="userSpaceOnUse"
       id="clipPath6253">
      <path
         inkscape:connector-curvature="0"
         d="m 666.141,342.461 0,-347.5044 481.005,0 0,347.5044 -481.005,0"
         id="path6255" />
    </clipPath>
    <clipPath
       clipPathUnits="userSpaceOnUse"
       id="clipPath6261">
      <path
         inkscape:connector-curvature="0"
         d="m 1318.11,850.394 -1303.937,0 0,-836.221 1303.937,0 0,836.221 z"
         id="path6263" />
    </clipPath>
    <clipPath
       clipPathUnits="userSpaceOnUse"
       id="clipPath6269">
      <path
         inkscape:connector-curvature="0"
         d="m 0.014954,864.57 1332.270046,0 0,-864.57 -1332.270046,0 0,864.57 z"
         id="path6271" />
    </clipPath>
    <clipPath
       clipPathUnits="userSpaceOnUse"
       id="clipPath6281">
      <path
         inkscape:connector-curvature="0"
         d="m 674.573,282.674 -3.539,-67.529 139.144,-7.293 3.539,67.53"
         id="path6283" />
    </clipPath>
    <clipPath
       clipPathUnits="userSpaceOnUse"
       id="clipPath6289">
      <path
         inkscape:connector-curvature="0"
         d="m 1147.126,-5.0434 -132.754,0 -348.231,18.2504 0,104.948 7.773,148.302 222.542,0 0,38.113 250.02,-13.102 0,-214.486 0.67,0 0,-81.4714 -0.02,-0.554 m -53.56,251.1184 c -1.17,0 -1.86,-0.878 -1.86,-2.006 0,-1.096 0.69,-1.974 1.86,-1.974 0.37,0 0.75,0.144 1.05,0.522 l 0.08,-0.431 0.53,0 0,2.053 -1.59,0 0,-0.622 0.84,0 c -0.05,-0.527 -0.36,-0.819 -0.91,-0.819 -0.75,0 -1.03,0.638 -1.03,1.271 0,0.665 0.28,1.304 1.03,1.304 0.4,0 0.71,-0.218 0.81,-0.639 l 0.8,0 c -0.09,0.862 -0.83,1.341 -1.61,1.341 m 10.02,-0.09 0,-0.703 1.87,0 -2.03,-2.436 0,-0.66 3.2,0 0,0.702 -2.09,0 2.04,2.437 0,0.66 -2.99,0 m -3.47,0 0,-0.703 1.14,0 0,-3.096 0.84,0 0,3.096 1.14,0 0,0.703 -3.12,0 m -1.27,0 0,-3.799 0.84,0 0,3.799 -0.84,0 m -3.05,0 0,-3.799 2.69,0 0,0.702 -1.85,0 0,3.097 -0.84,0 m -10.94,15.305 c 0.2,-7.758 6.55,-13.984 14.36,-13.985 7.93,0.001 14.36,6.429 14.36,14.36 0,7.931 -6.43,14.359 -14.36,14.359 -7.81,0 -14.16,-6.226 -14.36,-13.984 l 0,-0.75 m 44.3,5.772 0,-12.202 4.64,0 c 4.39,0 6.95,2.614 6.95,6.136 l 0,0.034 c 0,3.522 -2.52,6.032 -6.88,6.032 l -4.71,0 m -9.1,-7.565 4.34,0 0,-4.637 3.39,0 0,12.202 -3.39,0 0,-4.567 -4.34,0 0,4.567 -3.38,0 0,-12.202 3.38,0 0,4.637 m -20.84,-10.037 c -3.38,0.001 -6.42,1.365 -8.63,3.575 -2.21,2.212 -3.58,5.256 -3.58,8.63 0,3.374 1.37,6.418 3.58,8.63 2.21,2.21 5.25,3.574 8.63,3.574 3.37,0 6.42,-1.364 8.63,-3.574 2.21,-2.212 3.57,-5.256 3.57,-8.63 0,-3.374 -1.36,-6.418 -3.57,-8.63 -2.21,-2.21 -5.26,-3.574 -8.63,-3.575 m 3.97,15.197 0.01,-1.669 2.15,0 -0.01,-5.629 1.84,0 0.01,5.629 2.23,0 0,1.669 -6.23,0 m -5.34,-3.038 2.55,-4.26 1.89,0 0,7.298 -1.75,0 0.07,-4.53 -2.63,4.53 -1.9,0 0,-7.298 1.74,0 0.03,4.26 m -8.83,3.038 0.01,-1.669 2.15,0 0,-5.629 1.84,0 0.01,5.629 2.23,0 -0.01,1.669 -6.23,0 m 44.9,-6.799 -1.38,0 0,6.205 1.38,0 c 2.02,0 3.36,-1.133 3.36,-3.085 l 0,-0.035 c 0,-1.969 -1.34,-3.085 -3.36,-3.085"
         id="path6291" />
    </clipPath>
    <clipPath
       clipPathUnits="userSpaceOnUse"
       id="clipPath6297">
      <path
         inkscape:connector-curvature="0"
         d="m 666.141,342.461 0,-347.5044 481.005,0 0,347.5044 -481.005,0"
         id="path6299" />
    </clipPath>
    <clipPath
       clipPathUnits="userSpaceOnUse"
       id="clipPath6305">
      <path
         inkscape:connector-curvature="0"
         d="m 1318.11,850.394 -1303.937,0 0,-836.221 1303.937,0 0,836.221 z"
         id="path6307" />
    </clipPath>
    <clipPath
       clipPathUnits="userSpaceOnUse"
       id="clipPath6313">
      <path
         inkscape:connector-curvature="0"
         d="m 0.014954,864.57 1332.270046,0 0,-864.57 -1332.270046,0 0,864.57 z"
         id="path6315" />
    </clipPath>
    <clipPath
       clipPathUnits="userSpaceOnUse"
       id="clipPath6325">
      <path
         inkscape:connector-curvature="0"
         d="m 813.527,275.392 -7.063,-134.775 69.619,-3.648 7.063,134.775"
         id="path6327" />
    </clipPath>
    <clipPath
       clipPathUnits="userSpaceOnUse"
       id="clipPath6333">
      <path
         inkscape:connector-curvature="0"
         d="m 1147.126,-5.0434 -132.754,0 -348.231,18.2504 0,104.948 7.773,148.302 222.542,0 0,38.113 250.02,-13.102 0,-214.486 0.67,0 0,-81.4714 -0.02,-0.554 m -53.56,251.1184 c -1.17,0 -1.86,-0.878 -1.86,-2.006 0,-1.096 0.69,-1.974 1.86,-1.974 0.37,0 0.75,0.144 1.05,0.522 l 0.08,-0.431 0.53,0 0,2.053 -1.59,0 0,-0.622 0.84,0 c -0.05,-0.527 -0.36,-0.819 -0.91,-0.819 -0.75,0 -1.03,0.638 -1.03,1.271 0,0.665 0.28,1.304 1.03,1.304 0.4,0 0.71,-0.218 0.81,-0.639 l 0.8,0 c -0.09,0.862 -0.83,1.341 -1.61,1.341 m 10.02,-0.09 0,-0.703 1.87,0 -2.03,-2.436 0,-0.66 3.2,0 0,0.702 -2.09,0 2.04,2.437 0,0.66 -2.99,0 m -3.47,0 0,-0.703 1.14,0 0,-3.096 0.84,0 0,3.096 1.14,0 0,0.703 -3.12,0 m -1.27,0 0,-3.799 0.84,0 0,3.799 -0.84,0 m -3.05,0 0,-3.799 2.69,0 0,0.702 -1.85,0 0,3.097 -0.84,0 m -10.94,15.305 c 0.2,-7.758 6.55,-13.984 14.36,-13.985 7.93,0.001 14.36,6.429 14.36,14.36 0,7.931 -6.43,14.359 -14.36,14.359 -7.81,0 -14.16,-6.226 -14.36,-13.984 l 0,-0.75 m 44.3,5.772 0,-12.202 4.64,0 c 4.39,0 6.95,2.614 6.95,6.136 l 0,0.034 c 0,3.522 -2.52,6.032 -6.88,6.032 l -4.71,0 m -9.1,-7.565 4.34,0 0,-4.637 3.39,0 0,12.202 -3.39,0 0,-4.567 -4.34,0 0,4.567 -3.38,0 0,-12.202 3.38,0 0,4.637 m -20.84,-10.037 c -3.38,0.001 -6.42,1.365 -8.63,3.575 -2.21,2.212 -3.58,5.256 -3.58,8.63 0,3.374 1.37,6.418 3.58,8.63 2.21,2.21 5.25,3.574 8.63,3.574 3.37,0 6.42,-1.364 8.63,-3.574 2.21,-2.212 3.57,-5.256 3.57,-8.63 0,-3.374 -1.36,-6.418 -3.57,-8.63 -2.21,-2.21 -5.26,-3.574 -8.63,-3.575 m 3.97,15.197 0.01,-1.669 2.15,0 -0.01,-5.629 1.84,0 0.01,5.629 2.23,0 0,1.669 -6.23,0 m -5.34,-3.038 2.55,-4.26 1.89,0 0,7.298 -1.75,0 0.07,-4.53 -2.63,4.53 -1.9,0 0,-7.298 1.74,0 0.03,4.26 m -8.83,3.038 0.01,-1.669 2.15,0 0,-5.629 1.84,0 0.01,5.629 2.23,0 -0.01,1.669 -6.23,0 m 44.9,-6.799 -1.38,0 0,6.205 1.38,0 c 2.02,0 3.36,-1.133 3.36,-3.085 l 0,-0.035 c 0,-1.969 -1.34,-3.085 -3.36,-3.085"
         id="path6335" />
    </clipPath>
    <clipPath
       clipPathUnits="userSpaceOnUse"
       id="clipPath6341">
      <path
         inkscape:connector-curvature="0"
         d="m 666.141,342.461 0,-347.5044 481.005,0 0,347.5044 -481.005,0"
         id="path6343" />
    </clipPath>
    <clipPath
       clipPathUnits="userSpaceOnUse"
       id="clipPath6349">
      <path
         inkscape:connector-curvature="0"
         d="m 1318.11,850.394 -1303.937,0 0,-836.221 1303.937,0 0,836.221 z"
         id="path6351" />
    </clipPath>
    <clipPath
       clipPathUnits="userSpaceOnUse"
       id="clipPath6357">
      <path
         inkscape:connector-curvature="0"
         d="m 0.014954,864.57 1332.270046,0 0,-864.57 -1332.270046,0 0,864.57 z"
         id="path6359" />
    </clipPath>
    <clipPath
       clipPathUnits="userSpaceOnUse"
       id="clipPath6369">
      <path
         inkscape:connector-curvature="0"
         d="m 881.194,238.131 -3.539,-67.53 139.144,-7.292 3.539,67.53"
         id="path6371" />
    </clipPath>
    <clipPath
       clipPathUnits="userSpaceOnUse"
       id="clipPath6377">
      <path
         inkscape:connector-curvature="0"
         d="m 1147.126,-5.0434 -132.754,0 -348.231,18.2504 0,104.948 7.773,148.302 222.542,0 0,38.113 250.02,-13.102 0,-214.486 0.67,0 0,-81.4714 -0.02,-0.554 m -53.56,251.1184 c -1.17,0 -1.86,-0.878 -1.86,-2.006 0,-1.096 0.69,-1.974 1.86,-1.974 0.37,0 0.75,0.144 1.05,0.522 l 0.08,-0.431 0.53,0 0,2.053 -1.59,0 0,-0.622 0.84,0 c -0.05,-0.527 -0.36,-0.819 -0.91,-0.819 -0.75,0 -1.03,0.638 -1.03,1.271 0,0.665 0.28,1.304 1.03,1.304 0.4,0 0.71,-0.218 0.81,-0.639 l 0.8,0 c -0.09,0.862 -0.83,1.341 -1.61,1.341 m 10.02,-0.09 0,-0.703 1.87,0 -2.03,-2.436 0,-0.66 3.2,0 0,0.702 -2.09,0 2.04,2.437 0,0.66 -2.99,0 m -3.47,0 0,-0.703 1.14,0 0,-3.096 0.84,0 0,3.096 1.14,0 0,0.703 -3.12,0 m -1.27,0 0,-3.799 0.84,0 0,3.799 -0.84,0 m -3.05,0 0,-3.799 2.69,0 0,0.702 -1.85,0 0,3.097 -0.84,0 m -10.94,15.305 c 0.2,-7.758 6.55,-13.984 14.36,-13.985 7.93,0.001 14.36,6.429 14.36,14.36 0,7.931 -6.43,14.359 -14.36,14.359 -7.81,0 -14.16,-6.226 -14.36,-13.984 l 0,-0.75 m 44.3,5.772 0,-12.202 4.64,0 c 4.39,0 6.95,2.614 6.95,6.136 l 0,0.034 c 0,3.522 -2.52,6.032 -6.88,6.032 l -4.71,0 m -9.1,-7.565 4.34,0 0,-4.637 3.39,0 0,12.202 -3.39,0 0,-4.567 -4.34,0 0,4.567 -3.38,0 0,-12.202 3.38,0 0,4.637 m -20.84,-10.037 c -3.38,0.001 -6.42,1.365 -8.63,3.575 -2.21,2.212 -3.58,5.256 -3.58,8.63 0,3.374 1.37,6.418 3.58,8.63 2.21,2.21 5.25,3.574 8.63,3.574 3.37,0 6.42,-1.364 8.63,-3.574 2.21,-2.212 3.57,-5.256 3.57,-8.63 0,-3.374 -1.36,-6.418 -3.57,-8.63 -2.21,-2.21 -5.26,-3.574 -8.63,-3.575 m 3.97,15.197 0.01,-1.669 2.15,0 -0.01,-5.629 1.84,0 0.01,5.629 2.23,0 0,1.669 -6.23,0 m -5.34,-3.038 2.55,-4.26 1.89,0 0,7.298 -1.75,0 0.07,-4.53 -2.63,4.53 -1.9,0 0,-7.298 1.74,0 0.03,4.26 m -8.83,3.038 0.01,-1.669 2.15,0 0,-5.629 1.84,0 0.01,5.629 2.23,0 -0.01,1.669 -6.23,0 m 44.9,-6.799 -1.38,0 0,6.205 1.38,0 c 2.02,0 3.36,-1.133 3.36,-3.085 l 0,-0.035 c 0,-1.969 -1.34,-3.085 -3.36,-3.085"
         id="path6379" />
    </clipPath>
    <clipPath
       clipPathUnits="userSpaceOnUse"
       id="clipPath6385">
      <path
         inkscape:connector-curvature="0"
         d="m 666.141,342.461 0,-347.5044 481.005,0 0,347.5044 -481.005,0"
         id="path6387" />
    </clipPath>
    <clipPath
       clipPathUnits="userSpaceOnUse"
       id="clipPath6393">
      <path
         inkscape:connector-curvature="0"
         d="m 1318.11,850.394 -1303.937,0 0,-836.221 1303.937,0 0,836.221 z"
         id="path6395" />
    </clipPath>
    <clipPath
       clipPathUnits="userSpaceOnUse"
       id="clipPath6401">
      <path
         inkscape:connector-curvature="0"
         d="m 0.014954,864.57 1332.270046,0 0,-864.57 -1332.270046,0 0,864.57 z"
         id="path6403" />
    </clipPath>
    <clipPath
       clipPathUnits="userSpaceOnUse"
       id="clipPath6413">
      <path
         inkscape:connector-curvature="0"
         d="m 1020.148,230.849 -3.539,-67.53 139.147,-7.292 3.54,67.53"
         id="path6415" />
    </clipPath>
    <clipPath
       clipPathUnits="userSpaceOnUse"
       id="clipPath6421">
      <path
         inkscape:connector-curvature="0"
         d="m 1147.126,-5.0434 -132.754,0 -348.231,18.2504 0,104.948 7.773,148.302 222.542,0 0,38.113 250.02,-13.102 0,-214.486 0.67,0 0,-81.4714 -0.02,-0.554 m -53.56,251.1184 c -1.17,0 -1.86,-0.878 -1.86,-2.006 0,-1.096 0.69,-1.974 1.86,-1.974 0.37,0 0.75,0.144 1.05,0.522 l 0.08,-0.431 0.53,0 0,2.053 -1.59,0 0,-0.622 0.84,0 c -0.05,-0.527 -0.36,-0.819 -0.91,-0.819 -0.75,0 -1.03,0.638 -1.03,1.271 0,0.665 0.28,1.304 1.03,1.304 0.4,0 0.71,-0.218 0.81,-0.639 l 0.8,0 c -0.09,0.862 -0.83,1.341 -1.61,1.341 m 10.02,-0.09 0,-0.703 1.87,0 -2.03,-2.436 0,-0.66 3.2,0 0,0.702 -2.09,0 2.04,2.437 0,0.66 -2.99,0 m -3.47,0 0,-0.703 1.14,0 0,-3.096 0.84,0 0,3.096 1.14,0 0,0.703 -3.12,0 m -1.27,0 0,-3.799 0.84,0 0,3.799 -0.84,0 m -3.05,0 0,-3.799 2.69,0 0,0.702 -1.85,0 0,3.097 -0.84,0 m -10.94,15.305 c 0.2,-7.758 6.55,-13.984 14.36,-13.985 7.93,0.001 14.36,6.429 14.36,14.36 0,7.931 -6.43,14.359 -14.36,14.359 -7.81,0 -14.16,-6.226 -14.36,-13.984 l 0,-0.75 m 44.3,5.772 0,-12.202 4.64,0 c 4.39,0 6.95,2.614 6.95,6.136 l 0,0.034 c 0,3.522 -2.52,6.032 -6.88,6.032 l -4.71,0 m -9.1,-7.565 4.34,0 0,-4.637 3.39,0 0,12.202 -3.39,0 0,-4.567 -4.34,0 0,4.567 -3.38,0 0,-12.202 3.38,0 0,4.637 m -20.84,-10.037 c -3.38,0.001 -6.42,1.365 -8.63,3.575 -2.21,2.212 -3.58,5.256 -3.58,8.63 0,3.374 1.37,6.418 3.58,8.63 2.21,2.21 5.25,3.574 8.63,3.574 3.37,0 6.42,-1.364 8.63,-3.574 2.21,-2.212 3.57,-5.256 3.57,-8.63 0,-3.374 -1.36,-6.418 -3.57,-8.63 -2.21,-2.21 -5.26,-3.574 -8.63,-3.575 m 3.97,15.197 0.01,-1.669 2.15,0 -0.01,-5.629 1.84,0 0.01,5.629 2.23,0 0,1.669 -6.23,0 m -5.34,-3.038 2.55,-4.26 1.89,0 0,7.298 -1.75,0 0.07,-4.53 -2.63,4.53 -1.9,0 0,-7.298 1.74,0 0.03,4.26 m -8.83,3.038 0.01,-1.669 2.15,0 0,-5.629 1.84,0 0.01,5.629 2.23,0 -0.01,1.669 -6.23,0 m 44.9,-6.799 -1.38,0 0,6.205 1.38,0 c 2.02,0 3.36,-1.133 3.36,-3.085 l 0,-0.035 c 0,-1.969 -1.34,-3.085 -3.36,-3.085"
         id="path6423" />
    </clipPath>
    <clipPath
       clipPathUnits="userSpaceOnUse"
       id="clipPath6429">
      <path
         inkscape:connector-curvature="0"
         d="m 666.141,342.461 0,-347.5044 481.005,0 0,347.5044 -481.005,0"
         id="path6431" />
    </clipPath>
    <clipPath
       clipPathUnits="userSpaceOnUse"
       id="clipPath6437">
      <path
         inkscape:connector-curvature="0"
         d="m 1318.11,850.394 -1303.937,0 0,-836.221 1303.937,0 0,836.221 z"
         id="path6439" />
    </clipPath>
    <clipPath
       clipPathUnits="userSpaceOnUse"
       id="clipPath6445">
      <path
         inkscape:connector-curvature="0"
         d="m 0.014954,864.57 1332.270046,0 0,-864.57 -1332.270046,0 0,864.57 z"
         id="path6447" />
    </clipPath>
    <clipPath
       clipPathUnits="userSpaceOnUse"
       id="clipPath6457">
      <path
         inkscape:connector-curvature="0"
         d="m 671.044,215.335 -3.534,-67.435 139.144,-7.293 3.534,67.435"
         id="path6459" />
    </clipPath>
    <clipPath
       clipPathUnits="userSpaceOnUse"
       id="clipPath6465">
      <path
         inkscape:connector-curvature="0"
         d="m 1147.126,-5.0434 -132.754,0 -348.231,18.2504 0,104.948 7.773,148.302 222.542,0 0,38.113 250.02,-13.102 0,-214.486 0.67,0 0,-81.4714 -0.02,-0.554 m -53.56,251.1184 c -1.17,0 -1.86,-0.878 -1.86,-2.006 0,-1.096 0.69,-1.974 1.86,-1.974 0.37,0 0.75,0.144 1.05,0.522 l 0.08,-0.431 0.53,0 0,2.053 -1.59,0 0,-0.622 0.84,0 c -0.05,-0.527 -0.36,-0.819 -0.91,-0.819 -0.75,0 -1.03,0.638 -1.03,1.271 0,0.665 0.28,1.304 1.03,1.304 0.4,0 0.71,-0.218 0.81,-0.639 l 0.8,0 c -0.09,0.862 -0.83,1.341 -1.61,1.341 m 10.02,-0.09 0,-0.703 1.87,0 -2.03,-2.436 0,-0.66 3.2,0 0,0.702 -2.09,0 2.04,2.437 0,0.66 -2.99,0 m -3.47,0 0,-0.703 1.14,0 0,-3.096 0.84,0 0,3.096 1.14,0 0,0.703 -3.12,0 m -1.27,0 0,-3.799 0.84,0 0,3.799 -0.84,0 m -3.05,0 0,-3.799 2.69,0 0,0.702 -1.85,0 0,3.097 -0.84,0 m -10.94,15.305 c 0.2,-7.758 6.55,-13.984 14.36,-13.985 7.93,0.001 14.36,6.429 14.36,14.36 0,7.931 -6.43,14.359 -14.36,14.359 -7.81,0 -14.16,-6.226 -14.36,-13.984 l 0,-0.75 m 44.3,5.772 0,-12.202 4.64,0 c 4.39,0 6.95,2.614 6.95,6.136 l 0,0.034 c 0,3.522 -2.52,6.032 -6.88,6.032 l -4.71,0 m -9.1,-7.565 4.34,0 0,-4.637 3.39,0 0,12.202 -3.39,0 0,-4.567 -4.34,0 0,4.567 -3.38,0 0,-12.202 3.38,0 0,4.637 m -20.84,-10.037 c -3.38,0.001 -6.42,1.365 -8.63,3.575 -2.21,2.212 -3.58,5.256 -3.58,8.63 0,3.374 1.37,6.418 3.58,8.63 2.21,2.21 5.25,3.574 8.63,3.574 3.37,0 6.42,-1.364 8.63,-3.574 2.21,-2.212 3.57,-5.256 3.57,-8.63 0,-3.374 -1.36,-6.418 -3.57,-8.63 -2.21,-2.21 -5.26,-3.574 -8.63,-3.575 m 3.97,15.197 0.01,-1.669 2.15,0 -0.01,-5.629 1.84,0 0.01,5.629 2.23,0 0,1.669 -6.23,0 m -5.34,-3.038 2.55,-4.26 1.89,0 0,7.298 -1.75,0 0.07,-4.53 -2.63,4.53 -1.9,0 0,-7.298 1.74,0 0.03,4.26 m -8.83,3.038 0.01,-1.669 2.15,0 0,-5.629 1.84,0 0.01,5.629 2.23,0 -0.01,1.669 -6.23,0 m 44.9,-6.799 -1.38,0 0,6.205 1.38,0 c 2.02,0 3.36,-1.133 3.36,-3.085 l 0,-0.035 c 0,-1.969 -1.34,-3.085 -3.36,-3.085"
         id="path6467" />
    </clipPath>
    <clipPath
       clipPathUnits="userSpaceOnUse"
       id="clipPath6473">
      <path
         inkscape:connector-curvature="0"
         d="m 666.141,342.461 0,-347.5044 481.005,0 0,347.5044 -481.005,0"
         id="path6475" />
    </clipPath>
    <clipPath
       clipPathUnits="userSpaceOnUse"
       id="clipPath6481">
      <path
         inkscape:connector-curvature="0"
         d="m 1318.11,850.394 -1303.937,0 0,-836.221 1303.937,0 0,836.221 z"
         id="path6483" />
    </clipPath>
    <clipPath
       clipPathUnits="userSpaceOnUse"
       id="clipPath6489">
      <path
         inkscape:connector-curvature="0"
         d="m 0.014954,864.57 1332.270046,0 0,-864.57 -1332.270046,0 0,864.57 z"
         id="path6491" />
    </clipPath>
    <clipPath
       clipPathUnits="userSpaceOnUse"
       id="clipPath6501">
      <path
         inkscape:connector-curvature="0"
         d="m 877.665,170.791 -3.534,-67.435 139.144,-7.292 3.534,67.435"
         id="path6503" />
    </clipPath>
    <clipPath
       clipPathUnits="userSpaceOnUse"
       id="clipPath6509">
      <path
         inkscape:connector-curvature="0"
         d="m 1147.126,-5.0434 -132.754,0 -348.231,18.2504 0,104.948 7.773,148.302 222.542,0 0,38.113 250.02,-13.102 0,-214.486 0.67,0 0,-81.4714 -0.02,-0.554 m -53.56,251.1184 c -1.17,0 -1.86,-0.878 -1.86,-2.006 0,-1.096 0.69,-1.974 1.86,-1.974 0.37,0 0.75,0.144 1.05,0.522 l 0.08,-0.431 0.53,0 0,2.053 -1.59,0 0,-0.622 0.84,0 c -0.05,-0.527 -0.36,-0.819 -0.91,-0.819 -0.75,0 -1.03,0.638 -1.03,1.271 0,0.665 0.28,1.304 1.03,1.304 0.4,0 0.71,-0.218 0.81,-0.639 l 0.8,0 c -0.09,0.862 -0.83,1.341 -1.61,1.341 m 10.02,-0.09 0,-0.703 1.87,0 -2.03,-2.436 0,-0.66 3.2,0 0,0.702 -2.09,0 2.04,2.437 0,0.66 -2.99,0 m -3.47,0 0,-0.703 1.14,0 0,-3.096 0.84,0 0,3.096 1.14,0 0,0.703 -3.12,0 m -1.27,0 0,-3.799 0.84,0 0,3.799 -0.84,0 m -3.05,0 0,-3.799 2.69,0 0,0.702 -1.85,0 0,3.097 -0.84,0 m -10.94,15.305 c 0.2,-7.758 6.55,-13.984 14.36,-13.985 7.93,0.001 14.36,6.429 14.36,14.36 0,7.931 -6.43,14.359 -14.36,14.359 -7.81,0 -14.16,-6.226 -14.36,-13.984 l 0,-0.75 m 44.3,5.772 0,-12.202 4.64,0 c 4.39,0 6.95,2.614 6.95,6.136 l 0,0.034 c 0,3.522 -2.52,6.032 -6.88,6.032 l -4.71,0 m -9.1,-7.565 4.34,0 0,-4.637 3.39,0 0,12.202 -3.39,0 0,-4.567 -4.34,0 0,4.567 -3.38,0 0,-12.202 3.38,0 0,4.637 m -20.84,-10.037 c -3.38,0.001 -6.42,1.365 -8.63,3.575 -2.21,2.212 -3.58,5.256 -3.58,8.63 0,3.374 1.37,6.418 3.58,8.63 2.21,2.21 5.25,3.574 8.63,3.574 3.37,0 6.42,-1.364 8.63,-3.574 2.21,-2.212 3.57,-5.256 3.57,-8.63 0,-3.374 -1.36,-6.418 -3.57,-8.63 -2.21,-2.21 -5.26,-3.574 -8.63,-3.575 m 3.97,15.197 0.01,-1.669 2.15,0 -0.01,-5.629 1.84,0 0.01,5.629 2.23,0 0,1.669 -6.23,0 m -5.34,-3.038 2.55,-4.26 1.89,0 0,7.298 -1.75,0 0.07,-4.53 -2.63,4.53 -1.9,0 0,-7.298 1.74,0 0.03,4.26 m -8.83,3.038 0.01,-1.669 2.15,0 0,-5.629 1.84,0 0.01,5.629 2.23,0 -0.01,1.669 -6.23,0 m 44.9,-6.799 -1.38,0 0,6.205 1.38,0 c 2.02,0 3.36,-1.133 3.36,-3.085 l 0,-0.035 c 0,-1.969 -1.34,-3.085 -3.36,-3.085"
         id="path6511" />
    </clipPath>
    <clipPath
       clipPathUnits="userSpaceOnUse"
       id="clipPath6517">
      <path
         inkscape:connector-curvature="0"
         d="m 666.141,342.461 0,-347.5044 481.005,0 0,347.5044 -481.005,0"
         id="path6519" />
    </clipPath>
    <clipPath
       clipPathUnits="userSpaceOnUse"
       id="clipPath6525">
      <path
         inkscape:connector-curvature="0"
         d="m 1318.11,850.394 -1303.937,0 0,-836.221 1303.937,0 0,836.221 z"
         id="path6527" />
    </clipPath>
    <clipPath
       clipPathUnits="userSpaceOnUse"
       id="clipPath6533">
      <path
         inkscape:connector-curvature="0"
         d="m 0.014954,864.57 1332.270046,0 0,-864.57 -1332.270046,0 0,864.57 z"
         id="path6535" />
    </clipPath>
    <clipPath
       clipPathUnits="userSpaceOnUse"
       id="clipPath6545">
      <path
         inkscape:connector-curvature="0"
         d="m 1016.619,163.509 -3.534,-67.435 139.141,-7.292 3.54,67.435"
         id="path6547" />
    </clipPath>
    <clipPath
       clipPathUnits="userSpaceOnUse"
       id="clipPath6553">
      <path
         inkscape:connector-curvature="0"
         d="m 1147.126,-5.0434 -132.754,0 -348.231,18.2504 0,104.948 7.773,148.302 222.542,0 0,38.113 250.02,-13.102 0,-214.486 0.67,0 0,-81.4714 -0.02,-0.554 m -53.56,251.1184 c -1.17,0 -1.86,-0.878 -1.86,-2.006 0,-1.096 0.69,-1.974 1.86,-1.974 0.37,0 0.75,0.144 1.05,0.522 l 0.08,-0.431 0.53,0 0,2.053 -1.59,0 0,-0.622 0.84,0 c -0.05,-0.527 -0.36,-0.819 -0.91,-0.819 -0.75,0 -1.03,0.638 -1.03,1.271 0,0.665 0.28,1.304 1.03,1.304 0.4,0 0.71,-0.218 0.81,-0.639 l 0.8,0 c -0.09,0.862 -0.83,1.341 -1.61,1.341 m 10.02,-0.09 0,-0.703 1.87,0 -2.03,-2.436 0,-0.66 3.2,0 0,0.702 -2.09,0 2.04,2.437 0,0.66 -2.99,0 m -3.47,0 0,-0.703 1.14,0 0,-3.096 0.84,0 0,3.096 1.14,0 0,0.703 -3.12,0 m -1.27,0 0,-3.799 0.84,0 0,3.799 -0.84,0 m -3.05,0 0,-3.799 2.69,0 0,0.702 -1.85,0 0,3.097 -0.84,0 m -10.94,15.305 c 0.2,-7.758 6.55,-13.984 14.36,-13.985 7.93,0.001 14.36,6.429 14.36,14.36 0,7.931 -6.43,14.359 -14.36,14.359 -7.81,0 -14.16,-6.226 -14.36,-13.984 l 0,-0.75 m 44.3,5.772 0,-12.202 4.64,0 c 4.39,0 6.95,2.614 6.95,6.136 l 0,0.034 c 0,3.522 -2.52,6.032 -6.88,6.032 l -4.71,0 m -9.1,-7.565 4.34,0 0,-4.637 3.39,0 0,12.202 -3.39,0 0,-4.567 -4.34,0 0,4.567 -3.38,0 0,-12.202 3.38,0 0,4.637 m -20.84,-10.037 c -3.38,0.001 -6.42,1.365 -8.63,3.575 -2.21,2.212 -3.58,5.256 -3.58,8.63 0,3.374 1.37,6.418 3.58,8.63 2.21,2.21 5.25,3.574 8.63,3.574 3.37,0 6.42,-1.364 8.63,-3.574 2.21,-2.212 3.57,-5.256 3.57,-8.63 0,-3.374 -1.36,-6.418 -3.57,-8.63 -2.21,-2.21 -5.26,-3.574 -8.63,-3.575 m 3.97,15.197 0.01,-1.669 2.15,0 -0.01,-5.629 1.84,0 0.01,5.629 2.23,0 0,1.669 -6.23,0 m -5.34,-3.038 2.55,-4.26 1.89,0 0,7.298 -1.75,0 0.07,-4.53 -2.63,4.53 -1.9,0 0,-7.298 1.74,0 0.03,4.26 m -8.83,3.038 0.01,-1.669 2.15,0 0,-5.629 1.84,0 0.01,5.629 2.23,0 -0.01,1.669 -6.23,0 m 44.9,-6.799 -1.38,0 0,6.205 1.38,0 c 2.02,0 3.36,-1.133 3.36,-3.085 l 0,-0.035 c 0,-1.969 -1.34,-3.085 -3.36,-3.085"
         id="path6555" />
    </clipPath>
    <clipPath
       clipPathUnits="userSpaceOnUse"
       id="clipPath6561">
      <path
         inkscape:connector-curvature="0"
         d="m 666.141,342.461 0,-347.5044 481.005,0 0,347.5044 -481.005,0"
         id="path6563" />
    </clipPath>
    <clipPath
       clipPathUnits="userSpaceOnUse"
       id="clipPath6569">
      <path
         inkscape:connector-curvature="0"
         d="m 1318.11,850.394 -1303.937,0 0,-836.221 1303.937,0 0,836.221 z"
         id="path6571" />
    </clipPath>
    <clipPath
       clipPathUnits="userSpaceOnUse"
       id="clipPath6577">
      <path
         inkscape:connector-curvature="0"
         d="m 0.014954,864.57 1332.270046,0 0,-864.57 -1332.270046,0 0,864.57 z"
         id="path6579" />
    </clipPath>
    <clipPath
       clipPathUnits="userSpaceOnUse"
       id="clipPath6589">
      <path
         inkscape:connector-curvature="0"
         d="m 667.52,148.09 -3.539,-67.53 139.144,-7.293 3.539,67.53"
         id="path6591" />
    </clipPath>
    <clipPath
       clipPathUnits="userSpaceOnUse"
       id="clipPath6597">
      <path
         inkscape:connector-curvature="0"
         d="m 1147.126,-5.0434 -132.754,0 -348.231,18.2504 0,104.948 7.773,148.302 222.542,0 0,38.113 250.02,-13.102 0,-214.486 0.67,0 0,-81.4714 -0.02,-0.554 m -53.56,251.1184 c -1.17,0 -1.86,-0.878 -1.86,-2.006 0,-1.096 0.69,-1.974 1.86,-1.974 0.37,0 0.75,0.144 1.05,0.522 l 0.08,-0.431 0.53,0 0,2.053 -1.59,0 0,-0.622 0.84,0 c -0.05,-0.527 -0.36,-0.819 -0.91,-0.819 -0.75,0 -1.03,0.638 -1.03,1.271 0,0.665 0.28,1.304 1.03,1.304 0.4,0 0.71,-0.218 0.81,-0.639 l 0.8,0 c -0.09,0.862 -0.83,1.341 -1.61,1.341 m 10.02,-0.09 0,-0.703 1.87,0 -2.03,-2.436 0,-0.66 3.2,0 0,0.702 -2.09,0 2.04,2.437 0,0.66 -2.99,0 m -3.47,0 0,-0.703 1.14,0 0,-3.096 0.84,0 0,3.096 1.14,0 0,0.703 -3.12,0 m -1.27,0 0,-3.799 0.84,0 0,3.799 -0.84,0 m -3.05,0 0,-3.799 2.69,0 0,0.702 -1.85,0 0,3.097 -0.84,0 m -10.94,15.305 c 0.2,-7.758 6.55,-13.984 14.36,-13.985 7.93,0.001 14.36,6.429 14.36,14.36 0,7.931 -6.43,14.359 -14.36,14.359 -7.81,0 -14.16,-6.226 -14.36,-13.984 l 0,-0.75 m 44.3,5.772 0,-12.202 4.64,0 c 4.39,0 6.95,2.614 6.95,6.136 l 0,0.034 c 0,3.522 -2.52,6.032 -6.88,6.032 l -4.71,0 m -9.1,-7.565 4.34,0 0,-4.637 3.39,0 0,12.202 -3.39,0 0,-4.567 -4.34,0 0,4.567 -3.38,0 0,-12.202 3.38,0 0,4.637 m -20.84,-10.037 c -3.38,0.001 -6.42,1.365 -8.63,3.575 -2.21,2.212 -3.58,5.256 -3.58,8.63 0,3.374 1.37,6.418 3.58,8.63 2.21,2.21 5.25,3.574 8.63,3.574 3.37,0 6.42,-1.364 8.63,-3.574 2.21,-2.212 3.57,-5.256 3.57,-8.63 0,-3.374 -1.36,-6.418 -3.57,-8.63 -2.21,-2.21 -5.26,-3.574 -8.63,-3.575 m 3.97,15.197 0.01,-1.669 2.15,0 -0.01,-5.629 1.84,0 0.01,5.629 2.23,0 0,1.669 -6.23,0 m -5.34,-3.038 2.55,-4.26 1.89,0 0,7.298 -1.75,0 0.07,-4.53 -2.63,4.53 -1.9,0 0,-7.298 1.74,0 0.03,4.26 m -8.83,3.038 0.01,-1.669 2.15,0 0,-5.629 1.84,0 0.01,5.629 2.23,0 -0.01,1.669 -6.23,0 m 44.9,-6.799 -1.38,0 0,6.205 1.38,0 c 2.02,0 3.36,-1.133 3.36,-3.085 l 0,-0.035 c 0,-1.969 -1.34,-3.085 -3.36,-3.085"
         id="path6599" />
    </clipPath>
    <clipPath
       clipPathUnits="userSpaceOnUse"
       id="clipPath6605">
      <path
         inkscape:connector-curvature="0"
         d="m 666.141,342.461 0,-347.5044 481.005,0 0,347.5044 -481.005,0"
         id="path6607" />
    </clipPath>
    <clipPath
       clipPathUnits="userSpaceOnUse"
       id="clipPath6613">
      <path
         inkscape:connector-curvature="0"
         d="m 1318.11,850.394 -1303.937,0 0,-836.221 1303.937,0 0,836.221 z"
         id="path6615" />
    </clipPath>
    <clipPath
       clipPathUnits="userSpaceOnUse"
       id="clipPath6621">
      <path
         inkscape:connector-curvature="0"
         d="m 0.014954,864.57 1332.270046,0 0,-864.57 -1332.270046,0 0,864.57 z"
         id="path6623" />
    </clipPath>
    <clipPath
       clipPathUnits="userSpaceOnUse"
       id="clipPath6633">
      <path
         inkscape:connector-curvature="0"
         d="M 806.474,140.807 799.41,6.0315 869.03,2.3836 876.093,137.159"
         id="path6635" />
    </clipPath>
    <clipPath
       clipPathUnits="userSpaceOnUse"
       id="clipPath6641">
      <path
         inkscape:connector-curvature="0"
         d="m 1147.126,-5.0434 -132.754,0 -348.231,18.2504 0,104.948 7.773,148.302 222.542,0 0,38.113 250.02,-13.102 0,-214.486 0.67,0 0,-81.4714 -0.02,-0.554 m -53.56,251.1184 c -1.17,0 -1.86,-0.878 -1.86,-2.006 0,-1.096 0.69,-1.974 1.86,-1.974 0.37,0 0.75,0.144 1.05,0.522 l 0.08,-0.431 0.53,0 0,2.053 -1.59,0 0,-0.622 0.84,0 c -0.05,-0.527 -0.36,-0.819 -0.91,-0.819 -0.75,0 -1.03,0.638 -1.03,1.271 0,0.665 0.28,1.304 1.03,1.304 0.4,0 0.71,-0.218 0.81,-0.639 l 0.8,0 c -0.09,0.862 -0.83,1.341 -1.61,1.341 m 10.02,-0.09 0,-0.703 1.87,0 -2.03,-2.436 0,-0.66 3.2,0 0,0.702 -2.09,0 2.04,2.437 0,0.66 -2.99,0 m -3.47,0 0,-0.703 1.14,0 0,-3.096 0.84,0 0,3.096 1.14,0 0,0.703 -3.12,0 m -1.27,0 0,-3.799 0.84,0 0,3.799 -0.84,0 m -3.05,0 0,-3.799 2.69,0 0,0.702 -1.85,0 0,3.097 -0.84,0 m -10.94,15.305 c 0.2,-7.758 6.55,-13.984 14.36,-13.985 7.93,0.001 14.36,6.429 14.36,14.36 0,7.931 -6.43,14.359 -14.36,14.359 -7.81,0 -14.16,-6.226 -14.36,-13.984 l 0,-0.75 m 44.3,5.772 0,-12.202 4.64,0 c 4.39,0 6.95,2.614 6.95,6.136 l 0,0.034 c 0,3.522 -2.52,6.032 -6.88,6.032 l -4.71,0 m -9.1,-7.565 4.34,0 0,-4.637 3.39,0 0,12.202 -3.39,0 0,-4.567 -4.34,0 0,4.567 -3.38,0 0,-12.202 3.38,0 0,4.637 m -20.84,-10.037 c -3.38,0.001 -6.42,1.365 -8.63,3.575 -2.21,2.212 -3.58,5.256 -3.58,8.63 0,3.374 1.37,6.418 3.58,8.63 2.21,2.21 5.25,3.574 8.63,3.574 3.37,0 6.42,-1.364 8.63,-3.574 2.21,-2.212 3.57,-5.256 3.57,-8.63 0,-3.374 -1.36,-6.418 -3.57,-8.63 -2.21,-2.21 -5.26,-3.574 -8.63,-3.575 m 3.97,15.197 0.01,-1.669 2.15,0 -0.01,-5.629 1.84,0 0.01,5.629 2.23,0 0,1.669 -6.23,0 m -5.34,-3.038 2.55,-4.26 1.89,0 0,7.298 -1.75,0 0.07,-4.53 -2.63,4.53 -1.9,0 0,-7.298 1.74,0 0.03,4.26 m -8.83,3.038 0.01,-1.669 2.15,0 0,-5.629 1.84,0 0.01,5.629 2.23,0 -0.01,1.669 -6.23,0 m 44.9,-6.799 -1.38,0 0,6.205 1.38,0 c 2.02,0 3.36,-1.133 3.36,-3.085 l 0,-0.035 c 0,-1.969 -1.34,-3.085 -3.36,-3.085"
         id="path6643" />
    </clipPath>
    <clipPath
       clipPathUnits="userSpaceOnUse"
       id="clipPath6649">
      <path
         inkscape:connector-curvature="0"
         d="m 666.141,342.461 0,-347.5044 481.005,0 0,347.5044 -481.005,0"
         id="path6651" />
    </clipPath>
    <clipPath
       clipPathUnits="userSpaceOnUse"
       id="clipPath6657">
      <path
         inkscape:connector-curvature="0"
         d="m 1318.11,850.394 -1303.937,0 0,-836.221 1303.937,0 0,836.221 z"
         id="path6659" />
    </clipPath>
    <clipPath
       clipPathUnits="userSpaceOnUse"
       id="clipPath6665">
      <path
         inkscape:connector-curvature="0"
         d="m 0.014954,864.57 1332.270046,0 0,-864.57 -1332.270046,0 0,864.57 z"
         id="path6667" />
    </clipPath>
    <clipPath
       clipPathUnits="userSpaceOnUse"
       id="clipPath6677">
      <path
         inkscape:connector-curvature="0"
         d="m 874.141,103.546 -3.539,-67.53 139.144,-7.292 3.539,67.53"
         id="path6679" />
    </clipPath>
    <clipPath
       clipPathUnits="userSpaceOnUse"
       id="clipPath6685">
      <path
         inkscape:connector-curvature="0"
         d="m 1147.126,-5.0434 -132.754,0 -348.231,18.2504 0,104.948 7.773,148.302 222.542,0 0,38.113 250.02,-13.102 0,-214.486 0.67,0 0,-81.4714 -0.02,-0.554 m -53.56,251.1184 c -1.17,0 -1.86,-0.878 -1.86,-2.006 0,-1.096 0.69,-1.974 1.86,-1.974 0.37,0 0.75,0.144 1.05,0.522 l 0.08,-0.431 0.53,0 0,2.053 -1.59,0 0,-0.622 0.84,0 c -0.05,-0.527 -0.36,-0.819 -0.91,-0.819 -0.75,0 -1.03,0.638 -1.03,1.271 0,0.665 0.28,1.304 1.03,1.304 0.4,0 0.71,-0.218 0.81,-0.639 l 0.8,0 c -0.09,0.862 -0.83,1.341 -1.61,1.341 m 10.02,-0.09 0,-0.703 1.87,0 -2.03,-2.436 0,-0.66 3.2,0 0,0.702 -2.09,0 2.04,2.437 0,0.66 -2.99,0 m -3.47,0 0,-0.703 1.14,0 0,-3.096 0.84,0 0,3.096 1.14,0 0,0.703 -3.12,0 m -1.27,0 0,-3.799 0.84,0 0,3.799 -0.84,0 m -3.05,0 0,-3.799 2.69,0 0,0.702 -1.85,0 0,3.097 -0.84,0 m -10.94,15.305 c 0.2,-7.758 6.55,-13.984 14.36,-13.985 7.93,0.001 14.36,6.429 14.36,14.36 0,7.931 -6.43,14.359 -14.36,14.359 -7.81,0 -14.16,-6.226 -14.36,-13.984 l 0,-0.75 m 44.3,5.772 0,-12.202 4.64,0 c 4.39,0 6.95,2.614 6.95,6.136 l 0,0.034 c 0,3.522 -2.52,6.032 -6.88,6.032 l -4.71,0 m -9.1,-7.565 4.34,0 0,-4.637 3.39,0 0,12.202 -3.39,0 0,-4.567 -4.34,0 0,4.567 -3.38,0 0,-12.202 3.38,0 0,4.637 m -20.84,-10.037 c -3.38,0.001 -6.42,1.365 -8.63,3.575 -2.21,2.212 -3.58,5.256 -3.58,8.63 0,3.374 1.37,6.418 3.58,8.63 2.21,2.21 5.25,3.574 8.63,3.574 3.37,0 6.42,-1.364 8.63,-3.574 2.21,-2.212 3.57,-5.256 3.57,-8.63 0,-3.374 -1.36,-6.418 -3.57,-8.63 -2.21,-2.21 -5.26,-3.574 -8.63,-3.575 m 3.97,15.197 0.01,-1.669 2.15,0 -0.01,-5.629 1.84,0 0.01,5.629 2.23,0 0,1.669 -6.23,0 m -5.34,-3.038 2.55,-4.26 1.89,0 0,7.298 -1.75,0 0.07,-4.53 -2.63,4.53 -1.9,0 0,-7.298 1.74,0 0.03,4.26 m -8.83,3.038 0.01,-1.669 2.15,0 0,-5.629 1.84,0 0.01,5.629 2.23,0 -0.01,1.669 -6.23,0 m 44.9,-6.799 -1.38,0 0,6.205 1.38,0 c 2.02,0 3.36,-1.133 3.36,-3.085 l 0,-0.035 c 0,-1.969 -1.34,-3.085 -3.36,-3.085"
         id="path6687" />
    </clipPath>
    <clipPath
       clipPathUnits="userSpaceOnUse"
       id="clipPath6693">
      <path
         inkscape:connector-curvature="0"
         d="m 666.141,342.461 0,-347.5044 481.005,0 0,347.5044 -481.005,0"
         id="path6695" />
    </clipPath>
    <clipPath
       clipPathUnits="userSpaceOnUse"
       id="clipPath6701">
      <path
         inkscape:connector-curvature="0"
         d="m 1318.11,850.394 -1303.937,0 0,-836.221 1303.937,0 0,836.221 z"
         id="path6703" />
    </clipPath>
    <clipPath
       clipPathUnits="userSpaceOnUse"
       id="clipPath6709">
      <path
         inkscape:connector-curvature="0"
         d="m 0.014954,864.57 1332.270046,0 0,-864.57 -1332.270046,0 0,864.57 z"
         id="path6711" />
    </clipPath>
    <clipPath
       clipPathUnits="userSpaceOnUse"
       id="clipPath6721">
      <path
         inkscape:connector-curvature="0"
         d="m 1013.095,96.264 -3.539,-67.53 139.14,-7.292 3.54,67.529"
         id="path6723" />
    </clipPath>
    <clipPath
       clipPathUnits="userSpaceOnUse"
       id="clipPath6729">
      <path
         inkscape:connector-curvature="0"
         d="m 1147.126,-5.0434 -132.754,0 -348.231,18.2504 0,104.948 7.773,148.302 222.542,0 0,38.113 250.02,-13.102 0,-214.486 0.67,0 0,-81.4714 -0.02,-0.554 m -53.56,251.1184 c -1.17,0 -1.86,-0.878 -1.86,-2.006 0,-1.096 0.69,-1.974 1.86,-1.974 0.37,0 0.75,0.144 1.05,0.522 l 0.08,-0.431 0.53,0 0,2.053 -1.59,0 0,-0.622 0.84,0 c -0.05,-0.527 -0.36,-0.819 -0.91,-0.819 -0.75,0 -1.03,0.638 -1.03,1.271 0,0.665 0.28,1.304 1.03,1.304 0.4,0 0.71,-0.218 0.81,-0.639 l 0.8,0 c -0.09,0.862 -0.83,1.341 -1.61,1.341 m 10.02,-0.09 0,-0.703 1.87,0 -2.03,-2.436 0,-0.66 3.2,0 0,0.702 -2.09,0 2.04,2.437 0,0.66 -2.99,0 m -3.47,0 0,-0.703 1.14,0 0,-3.096 0.84,0 0,3.096 1.14,0 0,0.703 -3.12,0 m -1.27,0 0,-3.799 0.84,0 0,3.799 -0.84,0 m -3.05,0 0,-3.799 2.69,0 0,0.702 -1.85,0 0,3.097 -0.84,0 m -10.94,15.305 c 0.2,-7.758 6.55,-13.984 14.36,-13.985 7.93,0.001 14.36,6.429 14.36,14.36 0,7.931 -6.43,14.359 -14.36,14.359 -7.81,0 -14.16,-6.226 -14.36,-13.984 l 0,-0.75 m 44.3,5.772 0,-12.202 4.64,0 c 4.39,0 6.95,2.614 6.95,6.136 l 0,0.034 c 0,3.522 -2.52,6.032 -6.88,6.032 l -4.71,0 m -9.1,-7.565 4.34,0 0,-4.637 3.39,0 0,12.202 -3.39,0 0,-4.567 -4.34,0 0,4.567 -3.38,0 0,-12.202 3.38,0 0,4.637 m -20.84,-10.037 c -3.38,0.001 -6.42,1.365 -8.63,3.575 -2.21,2.212 -3.58,5.256 -3.58,8.63 0,3.374 1.37,6.418 3.58,8.63 2.21,2.21 5.25,3.574 8.63,3.574 3.37,0 6.42,-1.364 8.63,-3.574 2.21,-2.212 3.57,-5.256 3.57,-8.63 0,-3.374 -1.36,-6.418 -3.57,-8.63 -2.21,-2.21 -5.26,-3.574 -8.63,-3.575 m 3.97,15.197 0.01,-1.669 2.15,0 -0.01,-5.629 1.84,0 0.01,5.629 2.23,0 0,1.669 -6.23,0 m -5.34,-3.038 2.55,-4.26 1.89,0 0,7.298 -1.75,0 0.07,-4.53 -2.63,4.53 -1.9,0 0,-7.298 1.74,0 0.03,4.26 m -8.83,3.038 0.01,-1.669 2.15,0 0,-5.629 1.84,0 0.01,5.629 2.23,0 -0.01,1.669 -6.23,0 m 44.9,-6.799 -1.38,0 0,6.205 1.38,0 c 2.02,0 3.36,-1.133 3.36,-3.085 l 0,-0.035 c 0,-1.969 -1.34,-3.085 -3.36,-3.085"
         id="path6731" />
    </clipPath>
    <clipPath
       clipPathUnits="userSpaceOnUse"
       id="clipPath6737">
      <path
         inkscape:connector-curvature="0"
         d="m 666.141,342.461 0,-347.5044 481.005,0 0,347.5044 -481.005,0"
         id="path6739" />
    </clipPath>
    <clipPath
       clipPathUnits="userSpaceOnUse"
       id="clipPath6745">
      <path
         inkscape:connector-curvature="0"
         d="m 1318.11,850.394 -1303.937,0 0,-836.221 1303.937,0 0,836.221 z"
         id="path6747" />
    </clipPath>
    <clipPath
       clipPathUnits="userSpaceOnUse"
       id="clipPath6753">
      <path
         inkscape:connector-curvature="0"
         d="m 0.014954,864.57 1332.270046,0 0,-864.57 -1332.270046,0 0,864.57 z"
         id="path6755" />
    </clipPath>
    <clipPath
       clipPathUnits="userSpaceOnUse"
       id="clipPath6765">
      <path
         inkscape:connector-curvature="0"
         d="M 663.991,80.75 660.456,13.315 799.6,6.0216 803.134,73.457"
         id="path6767" />
    </clipPath>
    <clipPath
       clipPathUnits="userSpaceOnUse"
       id="clipPath6773">
      <path
         inkscape:connector-curvature="0"
         d="m 1147.126,-5.0434 -132.754,0 -348.231,18.2504 0,104.948 7.773,148.302 222.542,0 0,38.113 250.02,-13.102 0,-214.486 0.67,0 0,-81.4714 -0.02,-0.554 m -53.56,251.1184 c -1.17,0 -1.86,-0.878 -1.86,-2.006 0,-1.096 0.69,-1.974 1.86,-1.974 0.37,0 0.75,0.144 1.05,0.522 l 0.08,-0.431 0.53,0 0,2.053 -1.59,0 0,-0.622 0.84,0 c -0.05,-0.527 -0.36,-0.819 -0.91,-0.819 -0.75,0 -1.03,0.638 -1.03,1.271 0,0.665 0.28,1.304 1.03,1.304 0.4,0 0.71,-0.218 0.81,-0.639 l 0.8,0 c -0.09,0.862 -0.83,1.341 -1.61,1.341 m 10.02,-0.09 0,-0.703 1.87,0 -2.03,-2.436 0,-0.66 3.2,0 0,0.702 -2.09,0 2.04,2.437 0,0.66 -2.99,0 m -3.47,0 0,-0.703 1.14,0 0,-3.096 0.84,0 0,3.096 1.14,0 0,0.703 -3.12,0 m -1.27,0 0,-3.799 0.84,0 0,3.799 -0.84,0 m -3.05,0 0,-3.799 2.69,0 0,0.702 -1.85,0 0,3.097 -0.84,0 m -10.94,15.305 c 0.2,-7.758 6.55,-13.984 14.36,-13.985 7.93,0.001 14.36,6.429 14.36,14.36 0,7.931 -6.43,14.359 -14.36,14.359 -7.81,0 -14.16,-6.226 -14.36,-13.984 l 0,-0.75 m 44.3,5.772 0,-12.202 4.64,0 c 4.39,0 6.95,2.614 6.95,6.136 l 0,0.034 c 0,3.522 -2.52,6.032 -6.88,6.032 l -4.71,0 m -9.1,-7.565 4.34,0 0,-4.637 3.39,0 0,12.202 -3.39,0 0,-4.567 -4.34,0 0,4.567 -3.38,0 0,-12.202 3.38,0 0,4.637 m -20.84,-10.037 c -3.38,0.001 -6.42,1.365 -8.63,3.575 -2.21,2.212 -3.58,5.256 -3.58,8.63 0,3.374 1.37,6.418 3.58,8.63 2.21,2.21 5.25,3.574 8.63,3.574 3.37,0 6.42,-1.364 8.63,-3.574 2.21,-2.212 3.57,-5.256 3.57,-8.63 0,-3.374 -1.36,-6.418 -3.57,-8.63 -2.21,-2.21 -5.26,-3.574 -8.63,-3.575 m 3.97,15.197 0.01,-1.669 2.15,0 -0.01,-5.629 1.84,0 0.01,5.629 2.23,0 0,1.669 -6.23,0 m -5.34,-3.038 2.55,-4.26 1.89,0 0,7.298 -1.75,0 0.07,-4.53 -2.63,4.53 -1.9,0 0,-7.298 1.74,0 0.03,4.26 m -8.83,3.038 0.01,-1.669 2.15,0 0,-5.629 1.84,0 0.01,5.629 2.23,0 -0.01,1.669 -6.23,0 m 44.9,-6.799 -1.38,0 0,6.205 1.38,0 c 2.02,0 3.36,-1.133 3.36,-3.085 l 0,-0.035 c 0,-1.969 -1.34,-3.085 -3.36,-3.085"
         id="path6775" />
    </clipPath>
    <clipPath
       clipPathUnits="userSpaceOnUse"
       id="clipPath6781">
      <path
         inkscape:connector-curvature="0"
         d="m 666.141,342.461 0,-347.5044 481.005,0 0,347.5044 -481.005,0"
         id="path6783" />
    </clipPath>
    <clipPath
       clipPathUnits="userSpaceOnUse"
       id="clipPath6789">
      <path
         inkscape:connector-curvature="0"
         d="m 1318.11,850.394 -1303.937,0 0,-836.221 1303.937,0 0,836.221 z"
         id="path6791" />
    </clipPath>
    <clipPath
       clipPathUnits="userSpaceOnUse"
       id="clipPath6797">
      <path
         inkscape:connector-curvature="0"
         d="m 0.014954,864.57 1332.270046,0 0,-864.57 -1332.270046,0 0,864.57 z"
         id="path6799" />
    </clipPath>
    <clipPath
       clipPathUnits="userSpaceOnUse"
       id="clipPath6809">
      <path
         inkscape:connector-curvature="0"
         d="m 870.612,36.206 -1.772,-33.8124 278.096,-14.5746 1.77,33.813"
         id="path6811" />
    </clipPath>
    <clipPath
       clipPathUnits="userSpaceOnUse"
       id="clipPath6817">
      <path
         inkscape:connector-curvature="0"
         d="m 1147.126,-5.0434 -132.754,0 -348.231,18.2504 0,104.948 7.773,148.302 222.542,0 0,38.113 250.02,-13.102 0,-214.486 0.67,0 0,-81.4714 -0.02,-0.554 m -53.56,251.1184 c -1.17,0 -1.86,-0.878 -1.86,-2.006 0,-1.096 0.69,-1.974 1.86,-1.974 0.37,0 0.75,0.144 1.05,0.522 l 0.08,-0.431 0.53,0 0,2.053 -1.59,0 0,-0.622 0.84,0 c -0.05,-0.527 -0.36,-0.819 -0.91,-0.819 -0.75,0 -1.03,0.638 -1.03,1.271 0,0.665 0.28,1.304 1.03,1.304 0.4,0 0.71,-0.218 0.81,-0.639 l 0.8,0 c -0.09,0.862 -0.83,1.341 -1.61,1.341 m 10.02,-0.09 0,-0.703 1.87,0 -2.03,-2.436 0,-0.66 3.2,0 0,0.702 -2.09,0 2.04,2.437 0,0.66 -2.99,0 m -3.47,0 0,-0.703 1.14,0 0,-3.096 0.84,0 0,3.096 1.14,0 0,0.703 -3.12,0 m -1.27,0 0,-3.799 0.84,0 0,3.799 -0.84,0 m -3.05,0 0,-3.799 2.69,0 0,0.702 -1.85,0 0,3.097 -0.84,0 m -10.94,15.305 c 0.2,-7.758 6.55,-13.984 14.36,-13.985 7.93,0.001 14.36,6.429 14.36,14.36 0,7.931 -6.43,14.359 -14.36,14.359 -7.81,0 -14.16,-6.226 -14.36,-13.984 l 0,-0.75 m 44.3,5.772 0,-12.202 4.64,0 c 4.39,0 6.95,2.614 6.95,6.136 l 0,0.034 c 0,3.522 -2.52,6.032 -6.88,6.032 l -4.71,0 m -9.1,-7.565 4.34,0 0,-4.637 3.39,0 0,12.202 -3.39,0 0,-4.567 -4.34,0 0,4.567 -3.38,0 0,-12.202 3.38,0 0,4.637 m -20.84,-10.037 c -3.38,0.001 -6.42,1.365 -8.63,3.575 -2.21,2.212 -3.58,5.256 -3.58,8.63 0,3.374 1.37,6.418 3.58,8.63 2.21,2.21 5.25,3.574 8.63,3.574 3.37,0 6.42,-1.364 8.63,-3.574 2.21,-2.212 3.57,-5.256 3.57,-8.63 0,-3.374 -1.36,-6.418 -3.57,-8.63 -2.21,-2.21 -5.26,-3.574 -8.63,-3.575 m 3.97,15.197 0.01,-1.669 2.15,0 -0.01,-5.629 1.84,0 0.01,5.629 2.23,0 0,1.669 -6.23,0 m -5.34,-3.038 2.55,-4.26 1.89,0 0,7.298 -1.75,0 0.07,-4.53 -2.63,4.53 -1.9,0 0,-7.298 1.74,0 0.03,4.26 m -8.83,3.038 0.01,-1.669 2.15,0 0,-5.629 1.84,0 0.01,5.629 2.23,0 -0.01,1.669 -6.23,0 m 44.9,-6.799 -1.38,0 0,6.205 1.38,0 c 2.02,0 3.36,-1.133 3.36,-3.085 l 0,-0.035 c 0,-1.969 -1.34,-3.085 -3.36,-3.085"
         id="path6819" />
    </clipPath>
    <clipPath
       clipPathUnits="userSpaceOnUse"
       id="clipPath6825">
      <path
         inkscape:connector-curvature="0"
         d="m 666.141,342.461 0,-347.5044 481.005,0 0,347.5044 -481.005,0"
         id="path6827" />
    </clipPath>
    <clipPath
       clipPathUnits="userSpaceOnUse"
       id="clipPath6833">
      <path
         inkscape:connector-curvature="0"
         d="m 1318.11,850.394 -1303.937,0 0,-836.221 1303.937,0 0,836.221 z"
         id="path6835" />
    </clipPath>
    <clipPath
       clipPathUnits="userSpaceOnUse"
       id="clipPath6841">
      <path
         inkscape:connector-curvature="0"
         d="m 0.014954,864.57 1332.270046,0 0,-864.57 -1332.270046,0 0,864.57 z"
         id="path6843" />
    </clipPath>
    <clipPath
       clipPathUnits="userSpaceOnUse"
       id="clipPath6853">
      <path
         inkscape:connector-curvature="0"
         d="m 737.597,316.175 -63.778,0 0,-49.821 63.778,0 0,49.821 z"
         id="path6855" />
    </clipPath>
    <clipPath
       clipPathUnits="userSpaceOnUse"
       id="clipPath6861">
      <path
         inkscape:connector-curvature="0"
         d="m 896.456,266.457 -222.542,0 2.601,49.64 219.941,-11.527 0,-38.113"
         id="path6863" />
    </clipPath>
    <clipPath
       clipPathUnits="userSpaceOnUse"
       id="clipPath6869">
      <path
         inkscape:connector-curvature="0"
         d="m 666.141,342.461 0,-347.5044 481.005,0 0,347.5044 -481.005,0"
         id="path6871" />
    </clipPath>
    <clipPath
       clipPathUnits="userSpaceOnUse"
       id="clipPath6877">
      <path
         inkscape:connector-curvature="0"
         d="m 1318.11,850.394 -1303.937,0 0,-836.221 1303.937,0 0,836.221 z"
         id="path6879" />
    </clipPath>
    <clipPath
       clipPathUnits="userSpaceOnUse"
       id="clipPath6885">
      <path
         inkscape:connector-curvature="0"
         d="m 0.014954,864.57 1332.270046,0 0,-864.57 -1332.270046,0 0,864.57 z"
         id="path6887" />
    </clipPath>
    <clipPath
       clipPathUnits="userSpaceOnUse"
       id="clipPath6897">
      <path
         inkscape:connector-curvature="0"
         d="m 801.186,316.175 -63.777,0 0,-49.821 63.777,0 0,49.821 z"
         id="path6899" />
    </clipPath>
    <clipPath
       clipPathUnits="userSpaceOnUse"
       id="clipPath6905">
      <path
         inkscape:connector-curvature="0"
         d="m 896.456,266.457 -222.542,0 2.601,49.64 219.941,-11.527 0,-38.113"
         id="path6907" />
    </clipPath>
    <clipPath
       clipPathUnits="userSpaceOnUse"
       id="clipPath6913">
      <path
         inkscape:connector-curvature="0"
         d="m 666.141,342.461 0,-347.5044 481.005,0 0,347.5044 -481.005,0"
         id="path6915" />
    </clipPath>
    <clipPath
       clipPathUnits="userSpaceOnUse"
       id="clipPath6921">
      <path
         inkscape:connector-curvature="0"
         d="m 1318.11,850.394 -1303.937,0 0,-836.221 1303.937,0 0,836.221 z"
         id="path6923" />
    </clipPath>
    <clipPath
       clipPathUnits="userSpaceOnUse"
       id="clipPath6929">
      <path
         inkscape:connector-curvature="0"
         d="m 0.014954,864.57 1332.270046,0 0,-864.57 -1332.270046,0 0,864.57 z"
         id="path6931" />
    </clipPath>
    <clipPath
       clipPathUnits="userSpaceOnUse"
       id="clipPath6941">
      <path
         inkscape:connector-curvature="0"
         d="m 864.776,316.175 -63.777,0 0,-49.821 63.777,0 0,49.821 z"
         id="path6943" />
    </clipPath>
    <clipPath
       clipPathUnits="userSpaceOnUse"
       id="clipPath6949">
      <path
         inkscape:connector-curvature="0"
         d="m 896.456,266.457 -222.542,0 2.601,49.64 219.941,-11.527 0,-38.113"
         id="path6951" />
    </clipPath>
    <clipPath
       clipPathUnits="userSpaceOnUse"
       id="clipPath6957">
      <path
         inkscape:connector-curvature="0"
         d="m 666.141,342.461 0,-347.5044 481.005,0 0,347.5044 -481.005,0"
         id="path6959" />
    </clipPath>
    <clipPath
       clipPathUnits="userSpaceOnUse"
       id="clipPath6965">
      <path
         inkscape:connector-curvature="0"
         d="m 1318.11,850.394 -1303.937,0 0,-836.221 1303.937,0 0,836.221 z"
         id="path6967" />
    </clipPath>
    <clipPath
       clipPathUnits="userSpaceOnUse"
       id="clipPath6973">
      <path
         inkscape:connector-curvature="0"
         d="m 0.014954,864.57 1332.270046,0 0,-864.57 -1332.270046,0 0,864.57 z"
         id="path6975" />
    </clipPath>
    <clipPath
       clipPathUnits="userSpaceOnUse"
       id="clipPath6985">
      <path
         inkscape:connector-curvature="0"
         d="m 896.571,316.175 -31.983,0 0,-49.821 31.983,0 0,49.821 z"
         id="path6987" />
    </clipPath>
    <clipPath
       clipPathUnits="userSpaceOnUse"
       id="clipPath6993">
      <path
         inkscape:connector-curvature="0"
         d="m 896.456,266.457 -222.542,0 2.601,49.64 219.941,-11.527 0,-38.113"
         id="path6995" />
    </clipPath>
    <clipPath
       clipPathUnits="userSpaceOnUse"
       id="clipPath7001">
      <path
         inkscape:connector-curvature="0"
         d="m 666.141,342.461 0,-347.5044 481.005,0 0,347.5044 -481.005,0"
         id="path7003" />
    </clipPath>
    <clipPath
       clipPathUnits="userSpaceOnUse"
       id="clipPath7009">
      <path
         inkscape:connector-curvature="0"
         d="m 1318.11,850.394 -1303.937,0 0,-836.221 1303.937,0 0,836.221 z"
         id="path7011" />
    </clipPath>
    <clipPath
       clipPathUnits="userSpaceOnUse"
       id="clipPath7017">
      <path
         inkscape:connector-curvature="0"
         d="m 0.014954,864.57 1332.270046,0 0,-864.57 -1332.270046,0 0,864.57 z"
         id="path7019" />
    </clipPath>
    <clipPath
       clipPathUnits="userSpaceOnUse"
       id="clipPath7029">
      <path
         inkscape:connector-curvature="0"
         d="m 1102.286,257.359 -1.89,0 -2.55,4.26 -0.03,-4.26 -1.74,0 0,7.298 1.9,0 2.63,-4.53 -0.07,4.53 1.75,0 0,-7.298"
         id="path7031" />
    </clipPath>
    <clipPath
       clipPathUnits="userSpaceOnUse"
       id="clipPath7037">
      <path
         inkscape:connector-curvature="0"
         d="m 666.141,342.461 0,-347.5044 481.005,0 0,347.5044 -481.005,0"
         id="path7039" />
    </clipPath>
    <clipPath
       clipPathUnits="userSpaceOnUse"
       id="clipPath7045">
      <path
         inkscape:connector-curvature="0"
         d="m 1318.11,850.394 -1303.937,0 0,-836.221 1303.937,0 0,836.221 z"
         id="path7047" />
    </clipPath>
    <clipPath
       clipPathUnits="userSpaceOnUse"
       id="clipPath7053">
      <path
         inkscape:connector-curvature="0"
         d="m 0.014954,864.57 1332.270046,0 0,-864.57 -1332.270046,0 0,864.57 z"
         id="path7055" />
    </clipPath>
    <clipPath
       clipPathUnits="userSpaceOnUse"
       id="clipPath7065">
      <path
         inkscape:connector-curvature="0"
         d="m 1107.176,257.359 -1.84,0 0.01,5.629 -2.15,0 -0.01,1.669 6.23,0 0,-1.669 -2.23,0 -0.01,-5.629"
         id="path7067" />
    </clipPath>
    <clipPath
       clipPathUnits="userSpaceOnUse"
       id="clipPath7073">
      <path
         inkscape:connector-curvature="0"
         d="m 666.141,342.461 0,-347.5044 481.005,0 0,347.5044 -481.005,0"
         id="path7075" />
    </clipPath>
    <clipPath
       clipPathUnits="userSpaceOnUse"
       id="clipPath7081">
      <path
         inkscape:connector-curvature="0"
         d="m 1318.11,850.394 -1303.937,0 0,-836.221 1303.937,0 0,836.221 z"
         id="path7083" />
    </clipPath>
    <clipPath
       clipPathUnits="userSpaceOnUse"
       id="clipPath7089">
      <path
         inkscape:connector-curvature="0"
         d="m 0.014954,864.57 1332.270046,0 0,-864.57 -1332.270046,0 0,864.57 z"
         id="path7091" />
    </clipPath>
    <clipPath
       clipPathUnits="userSpaceOnUse"
       id="clipPath7101">
      <path
         inkscape:connector-curvature="0"
         d="m 1093.016,257.359 -1.84,0 0,5.629 -2.15,0 -0.01,1.669 6.23,0 0.01,-1.669 -2.23,0 -0.01,-5.629"
         id="path7103" />
    </clipPath>
    <clipPath
       clipPathUnits="userSpaceOnUse"
       id="clipPath7109">
      <path
         inkscape:connector-curvature="0"
         d="m 666.141,342.461 0,-347.5044 481.005,0 0,347.5044 -481.005,0"
         id="path7111" />
    </clipPath>
    <clipPath
       clipPathUnits="userSpaceOnUse"
       id="clipPath7117">
      <path
         inkscape:connector-curvature="0"
         d="m 1318.11,850.394 -1303.937,0 0,-836.221 1303.937,0 0,836.221 z"
         id="path7119" />
    </clipPath>
    <clipPath
       clipPathUnits="userSpaceOnUse"
       id="clipPath7125">
      <path
         inkscape:connector-curvature="0"
         d="m 0.014954,864.57 1332.270046,0 0,-864.57 -1332.270046,0 0,864.57 z"
         id="path7127" />
    </clipPath>
    <clipPath
       clipPathUnits="userSpaceOnUse"
       id="clipPath7137">
      <path
         inkscape:connector-curvature="0"
         d="m 1099.216,247.305 c -7.81,0.001 -14.16,6.227 -14.36,13.985 l 0,0.75 c 0.2,7.758 6.55,13.984 14.36,13.984 7.93,0 14.36,-6.428 14.36,-14.359 0,-7.931 -6.43,-14.359 -14.36,-14.36 m 0,26.564 c -3.38,0 -6.42,-1.364 -8.63,-3.574 -2.21,-2.212 -3.58,-5.256 -3.58,-8.63 0,-3.374 1.37,-6.418 3.58,-8.63 2.21,-2.21 5.25,-3.574 8.63,-3.575 3.37,0.001 6.42,1.365 8.63,3.575 2.21,2.212 3.57,5.256 3.57,8.63 0,3.374 -1.36,6.418 -3.57,8.63 -2.21,2.21 -5.26,3.574 -8.63,3.574"
         id="path7139" />
    </clipPath>
    <clipPath
       clipPathUnits="userSpaceOnUse"
       id="clipPath7145">
      <path
         inkscape:connector-curvature="0"
         d="m 666.141,342.461 0,-347.5044 481.005,0 0,347.5044 -481.005,0"
         id="path7147" />
    </clipPath>
    <clipPath
       clipPathUnits="userSpaceOnUse"
       id="clipPath7153">
      <path
         inkscape:connector-curvature="0"
         d="m 1318.11,850.394 -1303.937,0 0,-836.221 1303.937,0 0,836.221 z"
         id="path7155" />
    </clipPath>
    <clipPath
       clipPathUnits="userSpaceOnUse"
       id="clipPath7161">
      <path
         inkscape:connector-curvature="0"
         d="m 0.014954,864.57 1332.270046,0 0,-864.57 -1332.270046,0 0,864.57 z"
         id="path7163" />
    </clipPath>
    <clipPath
       clipPathUnits="userSpaceOnUse"
       id="clipPath7173">
      <path
         inkscape:connector-curvature="0"
         d="m 1093.566,242.095 c -1.17,0 -1.86,0.878 -1.86,1.974 0,1.128 0.69,2.006 1.86,2.006 0.78,0 1.52,-0.479 1.61,-1.341 l -0.8,0 c -0.1,0.421 -0.41,0.639 -0.81,0.639 -0.75,0 -1.03,-0.639 -1.03,-1.304 0,-0.633 0.28,-1.271 1.03,-1.271 0.55,0 0.86,0.292 0.91,0.819 l -0.84,0 0,0.622 1.59,0 0,-2.053 -0.53,0 -0.08,0.431 c -0.3,-0.378 -0.68,-0.522 -1.05,-0.522"
         id="path7175" />
    </clipPath>
    <clipPath
       clipPathUnits="userSpaceOnUse"
       id="clipPath7181">
      <path
         inkscape:connector-curvature="0"
         d="m 666.141,342.461 0,-347.5044 481.005,0 0,347.5044 -481.005,0"
         id="path7183" />
    </clipPath>
    <clipPath
       clipPathUnits="userSpaceOnUse"
       id="clipPath7189">
      <path
         inkscape:connector-curvature="0"
         d="m 1318.11,850.394 -1303.937,0 0,-836.221 1303.937,0 0,836.221 z"
         id="path7191" />
    </clipPath>
    <clipPath
       clipPathUnits="userSpaceOnUse"
       id="clipPath7197">
      <path
         inkscape:connector-curvature="0"
         d="m 0.014954,864.57 1332.270046,0 0,-864.57 -1332.270046,0 0,864.57 z"
         id="path7199" />
    </clipPath>
    <clipPath
       clipPathUnits="userSpaceOnUse"
       id="clipPath7209">
      <path
         inkscape:connector-curvature="0"
         d="m 1098.486,242.186 -2.69,0 0,3.799 0.84,0 0,-3.097 1.85,0 0,-0.702"
         id="path7211" />
    </clipPath>
    <clipPath
       clipPathUnits="userSpaceOnUse"
       id="clipPath7217">
      <path
         inkscape:connector-curvature="0"
         d="m 666.141,342.461 0,-347.5044 481.005,0 0,347.5044 -481.005,0"
         id="path7219" />
    </clipPath>
    <clipPath
       clipPathUnits="userSpaceOnUse"
       id="clipPath7225">
      <path
         inkscape:connector-curvature="0"
         d="m 1318.11,850.394 -1303.937,0 0,-836.221 1303.937,0 0,836.221 z"
         id="path7227" />
    </clipPath>
    <clipPath
       clipPathUnits="userSpaceOnUse"
       id="clipPath7233">
      <path
         inkscape:connector-curvature="0"
         d="m 0.014954,864.57 1332.270046,0 0,-864.57 -1332.270046,0 0,864.57 z"
         id="path7235" />
    </clipPath>
    <clipPath
       clipPathUnits="userSpaceOnUse"
       id="clipPath7245">
      <path
         inkscape:connector-curvature="0"
         d="m 1099.686,242.186 -0.84,0 0,3.799 0.84,0 0,-3.799"
         id="path7247" />
    </clipPath>
    <clipPath
       clipPathUnits="userSpaceOnUse"
       id="clipPath7253">
      <path
         inkscape:connector-curvature="0"
         d="m 666.141,342.461 0,-347.5044 481.005,0 0,347.5044 -481.005,0"
         id="path7255" />
    </clipPath>
    <clipPath
       clipPathUnits="userSpaceOnUse"
       id="clipPath7261">
      <path
         inkscape:connector-curvature="0"
         d="m 1318.11,850.394 -1303.937,0 0,-836.221 1303.937,0 0,836.221 z"
         id="path7263" />
    </clipPath>
    <clipPath
       clipPathUnits="userSpaceOnUse"
       id="clipPath7269">
      <path
         inkscape:connector-curvature="0"
         d="m 0.014954,864.57 1332.270046,0 0,-864.57 -1332.270046,0 0,864.57 z"
         id="path7271" />
    </clipPath>
    <clipPath
       clipPathUnits="userSpaceOnUse"
       id="clipPath7281">
      <path
         inkscape:connector-curvature="0"
         d="m 1102.096,242.186 -0.84,0 0,3.096 -1.14,0 0,0.703 3.12,0 0,-0.703 -1.14,0 0,-3.096"
         id="path7283" />
    </clipPath>
    <clipPath
       clipPathUnits="userSpaceOnUse"
       id="clipPath7289">
      <path
         inkscape:connector-curvature="0"
         d="m 666.141,342.461 0,-347.5044 481.005,0 0,347.5044 -481.005,0"
         id="path7291" />
    </clipPath>
    <clipPath
       clipPathUnits="userSpaceOnUse"
       id="clipPath7297">
      <path
         inkscape:connector-curvature="0"
         d="m 1318.11,850.394 -1303.937,0 0,-836.221 1303.937,0 0,836.221 z"
         id="path7299" />
    </clipPath>
    <clipPath
       clipPathUnits="userSpaceOnUse"
       id="clipPath7305">
      <path
         inkscape:connector-curvature="0"
         d="m 0.014954,864.57 1332.270046,0 0,-864.57 -1332.270046,0 0,864.57 z"
         id="path7307" />
    </clipPath>
    <clipPath
       clipPathUnits="userSpaceOnUse"
       id="clipPath7317">
      <path
         inkscape:connector-curvature="0"
         d="m 1106.626,242.186 -3.2,0 0,0.66 2.03,2.436 -1.87,0 0,0.703 2.99,0 0,-0.66 -2.04,-2.437 2.09,0 0,-0.702"
         id="path7319" />
    </clipPath>
    <clipPath
       clipPathUnits="userSpaceOnUse"
       id="clipPath7325">
      <path
         inkscape:connector-curvature="0"
         d="m 666.141,342.461 0,-347.5044 481.005,0 0,347.5044 -481.005,0"
         id="path7327" />
    </clipPath>
    <clipPath
       clipPathUnits="userSpaceOnUse"
       id="clipPath7333">
      <path
         inkscape:connector-curvature="0"
         d="m 1318.11,850.394 -1303.937,0 0,-836.221 1303.937,0 0,836.221 z"
         id="path7335" />
    </clipPath>
    <clipPath
       clipPathUnits="userSpaceOnUse"
       id="clipPath7341">
      <path
         inkscape:connector-curvature="0"
         d="m 0.014954,864.57 1332.270046,0 0,-864.57 -1332.270046,0 0,864.57 z"
         id="path7343" />
    </clipPath>
    <clipPath
       clipPathUnits="userSpaceOnUse"
       id="clipPath7353">
      <path
         inkscape:connector-curvature="0"
         d="m 1127.786,254.86 -3.39,0 0,4.637 -4.34,0 0,-4.637 -3.38,0 0,12.202 3.38,0 0,-4.567 4.34,0 0,4.567 3.39,0 0,-12.202"
         id="path7355" />
    </clipPath>
    <clipPath
       clipPathUnits="userSpaceOnUse"
       id="clipPath7361">
      <path
         inkscape:connector-curvature="0"
         d="m 666.141,342.461 0,-347.5044 481.005,0 0,347.5044 -481.005,0"
         id="path7363" />
    </clipPath>
    <clipPath
       clipPathUnits="userSpaceOnUse"
       id="clipPath7369">
      <path
         inkscape:connector-curvature="0"
         d="m 1318.11,850.394 -1303.937,0 0,-836.221 1303.937,0 0,836.221 z"
         id="path7371" />
    </clipPath>
    <clipPath
       clipPathUnits="userSpaceOnUse"
       id="clipPath7377">
      <path
         inkscape:connector-curvature="0"
         d="m 0.014954,864.57 1332.270046,0 0,-864.57 -1332.270046,0 0,864.57 z"
         id="path7379" />
    </clipPath>
    <clipPath
       clipPathUnits="userSpaceOnUse"
       id="clipPath7389">
      <path
         inkscape:connector-curvature="0"
         d="m 1133.796,254.86 -4.64,0 0,12.202 4.71,0 c 4.36,0 6.88,-2.51 6.88,-6.032 l 0,-0.034 c 0,-3.522 -2.56,-6.136 -6.95,-6.136 m -1.26,9.203 0,-6.205 1.38,0 c 2.02,0 3.36,1.116 3.36,3.085 l 0,0.035 c 0,1.952 -1.34,3.085 -3.36,3.085 l -1.38,0"
         id="path7391" />
    </clipPath>
    <clipPath
       clipPathUnits="userSpaceOnUse"
       id="clipPath7397">
      <path
         inkscape:connector-curvature="0"
         d="m 666.141,342.461 0,-347.5044 481.005,0 0,347.5044 -481.005,0"
         id="path7399" />
    </clipPath>
    <clipPath
       clipPathUnits="userSpaceOnUse"
       id="clipPath7405">
      <path
         inkscape:connector-curvature="0"
         d="m 1318.11,850.394 -1303.937,0 0,-836.221 1303.937,0 0,836.221 z"
         id="path7407" />
    </clipPath>
    <clipPath
       clipPathUnits="userSpaceOnUse"
       id="clipPath7413">
      <path
         inkscape:connector-curvature="0"
         d="m 0.014954,864.57 1332.270046,0 0,-864.57 -1332.270046,0 0,864.57 z"
         id="path7415" />
    </clipPath>
    <clipPath
       clipPathUnits="userSpaceOnUse"
       id="clipPath7425">
      <path
         inkscape:connector-curvature="0"
         d="m 1147.146,76.982 -0.67,0 0,214.486 0.42,-0.023 0,-212.074 0.25,0 0,-2.389"
         id="path7427" />
    </clipPath>
    <clipPath
       clipPathUnits="userSpaceOnUse"
       id="clipPath7433">
      <path
         inkscape:connector-curvature="0"
         d="m 666.141,342.461 0,-347.5044 481.005,0 0,347.5044 -481.005,0"
         id="path7435" />
    </clipPath>
    <clipPath
       clipPathUnits="userSpaceOnUse"
       id="clipPath7441">
      <path
         inkscape:connector-curvature="0"
         d="m 1318.11,850.394 -1303.937,0 0,-836.221 1303.937,0 0,836.221 z"
         id="path7443" />
    </clipPath>
    <clipPath
       clipPathUnits="userSpaceOnUse"
       id="clipPath7449">
      <path
         inkscape:connector-curvature="0"
         d="m 0.014954,864.57 1332.270046,0 0,-864.57 -1332.270046,0 0,864.57 z"
         id="path7451" />
    </clipPath>
    <clipPath
       clipPathUnits="userSpaceOnUse"
       id="clipPath7461">
      <path
         inkscape:connector-curvature="0"
         d="m 1147.146,79.371 -0.25,0 0,212.074 0.25,-0.013 0,-212.061"
         id="path7463" />
    </clipPath>
    <clipPath
       clipPathUnits="userSpaceOnUse"
       id="clipPath7469">
      <path
         inkscape:connector-curvature="0"
         d="m 666.141,342.461 0,-347.5044 481.005,0 0,347.5044 -481.005,0"
         id="path7471" />
    </clipPath>
    <clipPath
       clipPathUnits="userSpaceOnUse"
       id="clipPath7477">
      <path
         inkscape:connector-curvature="0"
         d="m 1318.11,850.394 -1303.937,0 0,-836.221 1303.937,0 0,836.221 z"
         id="path7479" />
    </clipPath>
    <clipPath
       clipPathUnits="userSpaceOnUse"
       id="clipPath7485">
      <path
         inkscape:connector-curvature="0"
         d="m 0.014954,864.57 1332.270046,0 0,-864.57 -1332.270046,0 0,864.57 z"
         id="path7487" />
    </clipPath>
    <clipPath
       clipPathUnits="userSpaceOnUse"
       id="clipPath7497">
      <path
         inkscape:connector-curvature="0"
         d="m 1318.11,850.394 -1303.937,0 0,-836.221 1303.937,0 0,836.221 z"
         id="path7499" />
    </clipPath>
    <clipPath
       clipPathUnits="userSpaceOnUse"
       id="clipPath7505">
      <path
         inkscape:connector-curvature="0"
         d="m 0.014954,864.57 1332.270046,0 0,-864.57 -1332.270046,0 0,864.57 z"
         id="path7507" />
    </clipPath>
    <clipPath
       clipPathUnits="userSpaceOnUse"
       id="clipPath7535">
      <path
         inkscape:connector-curvature="0"
         d="m 1219.186,217.248 19.33,0 0,-9.889 -19.33,0 0,9.889 z"
         id="path7537" />
    </clipPath>
    <clipPath
       clipPathUnits="userSpaceOnUse"
       id="clipPath7547">
      <path
         inkscape:connector-curvature="0"
         d="m 1238.486,217.248 19.33,0 0,-9.889 -19.33,0 0,9.889 z"
         id="path7549" />
    </clipPath>
    <clipPath
       clipPathUnits="userSpaceOnUse"
       id="clipPath7587">
      <path
         inkscape:connector-curvature="0"
         d="m 1318.11,850.394 -1303.937,0 0,-836.221 1303.937,0 0,836.221 z"
         id="path7589" />
    </clipPath>
    <clipPath
       clipPathUnits="userSpaceOnUse"
       id="clipPath7595">
      <path
         inkscape:connector-curvature="0"
         d="m 0.014954,864.57 1332.270046,0 0,-864.57 -1332.270046,0 0,864.57 z"
         id="path7597" />
    </clipPath>
  </defs>
  <sodipodi:namedview
     inkscape:document-units="mm"
     id="base"
     pagecolor="#ffffff"
     bordercolor="#666666"
     borderopacity="1.0"
     inkscape:pageopacity="0.0"
     inkscape:pageshadow="2"
     inkscape:zoom="1.3397168"
     inkscape:cx="152.42164"
     inkscape:cy="27.359982"
     inkscape:current-layer="layer1"
     showgrid="false"
     units="px"
     fit-margin-top="1"
     fit-margin-left="1"
     fit-margin-bottom="1"
     fit-margin-right="1"
     inkscape:window-width="1920"
     inkscape:window-height="1017"
     inkscape:window-x="-8"
     inkscape:window-y="-8"
     inkscape:window-maximized="1" />
  <metadata
     id="metadata4">
    <rdf:RDF>
      <cc:Work
         rdf:about="">
        <dc:format>image/svg+xml</dc:format>
        <dc:type
           rdf:resource="http://purl.org/dc/dcmitype/StillImage" />
        <dc:title />
      </cc:Work>
    </rdf:RDF>
  </metadata>
  <g
     inkscape:label="Layer 1"
     inkscape:groupmode="layer"
     id="layer1"
     transform="translate(-229.53879,-213.53319)">
    <path
       inkscape:connector-curvature="0"
       d="m 340.09952,298.76365 c -0.35166,0.7084 -0.88197,1.76863 -2.65059,1.76863 l -8.1441,0 c -0.79752,0 -1.76862,-0.70839 -1.76862,-1.76863 0,-0.79282 0.17339,-1.24319 0.44098,-1.76862 l 9.20434,-18.67139 -20.26644,-30.2683 -10.44284,11.14653 13.36553,19.91459 c 0.79283,1.06494 0.97109,1.59036 0.97109,2.12517 0,0.88197 -0.97109,1.68418 -2.12515,1.68418 l -9.20435,0 c -1.32764,0 -2.12046,-0.88197 -3.00712,-2.12986 l -15.49069,-22.3869 17.17017,-18.49312 c 1.2432,-1.41678 2.39257,-2.12985 4.51772,-2.12985 l 9.90805,0 c 2.12516,0 3.27453,0.79752 4.33477,2.47701 l 16.19907,25.75994 11.50307,-26.1071 c 0.53013,-1.33233 1.32765,-2.12985 3.00712,-2.12985 l 8.23325,0 c 0.97111,0 1.85777,0.79752 1.85777,1.7733 0,0.53013 -0.17828,1.14938 -0.53013,1.76863 l -27.0829,57.43564 z m -49.91078,-20.44001 c 0,2.91799 -2.2143,4.60217 -4.60218,4.60217 l -6.99004,0 c -0.79753,0 -1.77332,-0.80221 -1.77332,-2.12986 l 0,-57.96107 c 0,-3.54193 1.77332,-4.6913 4.86957,-4.6913 l 6.28167,0 c 1.32764,0 2.2143,0.88197 2.2143,2.12048 l 0,58.05958 z m -29.64905,-22.12419 c 8.4068,1.9422 12.38972,6.28165 12.38972,13.44528 0,7.34658 -5.04313,13.28108 -17.08103,13.28108 l -22.83258,0 c -1.14936,0 -1.67949,-0.80221 -1.67949,-2.12986 l 0,-4.33476 c 0,-2.477 1.32764,-4.50834 4.60217,-4.50834 l 20.6183,0 c 2.30342,0 3.18538,-1.06493 3.18538,-1.85776 0,-1.24788 -0.88196,-2.04072 -3.62637,-2.66466 l -13.09812,-2.82416 c -8.13942,-1.77332 -12.47888,-6.19722 -12.47888,-13.01368 0,-7.78758 5.39969,-13.80651 15.7534,-13.80651 l 22.92171,0 c 1.23851,0 2.12516,0.79752 2.12516,2.12985 l 0,4.33008 c 0,2.48169 -1.32763,4.60686 -4.6913,4.60686 l -19.82545,0 c -2.65059,0 -3.44811,0.88196 -3.44811,1.67947 0,1.32765 0.79752,1.85776 3.80466,2.56616 l 13.36083,3.10095"
       style="fill:#e4e4e4;fill-opacity:1;fill-rule:nonzero;stroke:none"
       id="path7557" />
    <path
       id="path7561"
       style="fill:#e4e4e4;fill-opacity:1;fill-rule:nonzero;stroke:none"
       d="m 396.27316,283.31519 c -6.41769,0 -11.83144,-2.80069 -15.53754,-6.30978 -0.60519,-0.60517 -0.90543,-1.10713 -0.90543,-1.91404 0,-1.50121 1.10246,-2.40194 2.40664,-2.40194 0.60048,0 1.30418,0.20153 1.90466,0.80221 3.11032,2.81008 7.12137,5.0103 12.33339,5.0103 6.91964,0 10.42873,-3.20885 10.42873,-7.9189 0,-4.71474 -3.11032,-6.41299 -8.52407,-8.21913 l -5.41374,-1.80615 c -6.61941,-2.2049 -10.9307,-5.1135 -10.9307,-11.73291 0,-7.82037 6.21595,-11.43267 14.04102,-11.43267 4.40981,0 8.12061,1.10715 11.32946,3.31206 0.99924,0.69899 1.4027,1.40269 1.4027,2.30342 0,1.30418 -0.80222,2.50515 -2.40664,2.50515 -0.50197,0 -1.00393,-0.19705 -1.50589,-0.49729 -2.8054,-1.60441 -4.91179,-2.81007 -8.62259,-2.81007 -4.91178,0 -8.42087,1.90466 -8.42087,6.41768 0,3.31205 1.70294,5.21671 6.5162,6.82113 l 5.41375,1.80145 c 7.12137,2.41133 12.83536,5.31523 12.83536,13.13561 0,7.72655 -7.01817,12.93387 -16.34444,12.93387"
       inkscape:connector-curvature="0" />
    <path
       inkscape:connector-curvature="0"
       d="m 439.69101,242.30865 c -8.42086,0 -13.43584,7.52014 -14.13953,15.34051 l 27.27514,0 c -0.70369,-7.82037 -5.11351,-15.34051 -13.13561,-15.34051 z m 18.45084,17.84566 c 0,1.30418 -0.80221,2.40663 -2.50983,2.40663 l -30.08054,0 c 0.50196,8.42087 4.51302,15.84717 14.74003,15.84717 5.41374,0 8.82431,-2.61304 11.7329,-6.42238 0.50197,-0.6943 1.20097,-1.29948 2.20491,-1.29948 1.80614,0 2.60835,1.29948 2.60835,2.50515 0,0.699 -0.40345,1.29948 -0.80221,1.89997 -3.20884,4.41919 -8.1253,8.22382 -15.74395,8.22382 -14.23807,0 -20.65575,-11.02451 -20.65575,-22.95915 0,-12.73685 8.02211,-22.96386 19.95674,-22.96386 11.22625,0 18.54935,9.72974 18.54935,22.76213"
       style="fill:#e4e4e4;fill-opacity:1;fill-rule:nonzero;stroke:none"
       id="path7565" />
    <path
       id="path7569"
       style="fill:#e4e4e4;fill-opacity:1;fill-rule:nonzero;stroke:none"
       d="m 471.37076,282.91644 c -1.60438,0 -2.90852,-1.29946 -2.90852,-2.90384 l 0,-62.57088 c 0,-1.60439 1.30414,-2.90853 2.90852,-2.90853 1.60437,0 2.90852,1.30414 2.90852,2.90853 l 0,62.57088 c 0,1.60438 -1.30415,2.90384 -2.90852,2.90384"
       inkscape:connector-curvature="0" />
    <path
       inkscape:connector-curvature="0"
       d="m 505.35966,242.30865 c -8.42087,0 -13.43586,7.52014 -14.13954,15.34051 l 27.27513,0 c -0.69899,-7.82037 -5.1135,-15.34051 -13.13559,-15.34051 z m 18.45084,17.84566 c 0,1.30418 -0.80222,2.40663 -2.50515,2.40663 l -30.08523,0 c 0.50665,8.42087 4.51301,15.84717 14.7447,15.84717 5.41376,0 8.82432,-2.61304 11.73293,-6.42238 0.49726,-0.6943 1.20096,-1.29948 2.20489,-1.29948 1.80146,0 2.60368,1.29948 2.60368,2.50515 0,0.699 -0.40346,1.29948 -0.80222,1.89997 -3.20885,4.41919 -8.12062,8.22382 -15.73928,8.22382 -14.23805,0 -20.65572,-11.02451 -20.65572,-22.95915 0,-12.73685 8.0174,-22.96386 19.95204,-22.96386 11.23094,0 18.54936,9.72974 18.54936,22.76213"
       style="fill:#e4e4e4;fill-opacity:1;fill-rule:nonzero;stroke:none"
       id="path7573" />
    <path
       id="path7577"
       style="fill:#e4e4e4;fill-opacity:1;fill-rule:nonzero;stroke:none"
       d="m 567.02194,244.01159 c 0.50196,0.60518 0.699,1.10715 0.699,1.70763 0,1.4027 -1.29949,2.60836 -2.70219,2.60836 -0.8069,0 -1.50589,-0.30024 -2.20959,-1.10715 -2.80539,-3.10563 -5.71399,-4.81326 -10.42404,-4.81326 -8.82431,0 -14.44447,7.62334 -14.44447,17.94887 0,10.33021 5.62016,17.94886 14.44447,17.94886 4.71005,0 7.61865,-1.70294 10.42404,-4.81326 0.7037,-0.699 1.30418,-1.10245 2.20959,-1.10245 1.4027,0 2.70219,1.20566 2.70219,2.61305 0,0.6943 -0.19704,1.09776 -0.699,1.69824 -4.01574,4.71005 -9.02135,6.61471 -15.04027,6.61471 -12.03316,0 -19.85353,-9.92206 -19.85353,-22.95915 0,-13.0324 7.82037,-22.95916 19.85353,-22.95916 6.01892,0 11.02453,1.90467 15.04027,6.61471"
       inkscape:connector-curvature="0" />
    <path
       inkscape:connector-curvature="0"
       d="m 587.27444,271.4883 c 0,3.3121 1.10716,5.61555 4.71012,5.61555 l 2.41136,0 c 1.50124,0 2.50518,1.10247 2.50518,2.50989 0,1.50592 -1.20567,2.50517 -2.50518,2.50517 l -2.60839,0 c -8.22395,0 -10.33038,-4.51308 -10.33038,-10.82765 l 0,-27.88074 -6.01432,0 c -1.30419,0 -2.40667,-1.09778 -2.40667,-2.40198 0,-1.30889 1.10248,-2.41136 2.40667,-2.41136 l 6.01432,0 0,-15.13902 c 0,-1.70764 1.20569,-2.90863 2.90864,-2.90863 1.70298,0 2.90865,1.20099 2.90865,2.90863 l 0,15.13902 8.22395,0 c 1.3042,0 2.40197,1.10247 2.40197,2.41136 0,1.3042 -1.09777,2.40198 -2.40197,2.40198 l -8.22395,0 0,28.07778"
       style="fill:#e4e4e4;fill-opacity:1;fill-rule:nonzero;stroke:none"
       id="path7581" />
    <path
       inkscape:connector-curvature="0"
       d="m 627.1856,283.31531 c -1.6182,0 -2.92977,-1.31226 -2.92977,-2.9298 l 0,-62.93943 c 0,-1.6012 1.31091,-2.91277 2.92977,-2.91277 1.61821,0 2.92981,1.31091 2.92981,2.91277 l 0,27.85006 34.18662,0 0,-27.85006 c 0,-1.6012 1.3109,-2.91277 2.9298,-2.91277 1.61817,0 2.91273,1.31091 2.91273,2.91277 l 0,62.93943 c 0,1.6182 -1.29456,2.9298 -2.91273,2.9298 -1.61824,0 -2.9298,-1.31226 -2.9298,-2.9298 l 0,-29.84299 -34.18662,0 0,29.84299 c 0,1.6182 -1.3109,2.9298 -2.92981,2.9298"
       style="fill:#e4e4e4;fill-opacity:1;fill-rule:nonzero;stroke:none"
       id="path6967-0" />
    <path
       inkscape:connector-curvature="0"
       d="m 703.82015,220.58023 -11.70211,0 0,56.68813 11.70211,0 c 16.94853,0 24.10267,-13.32036 24.10267,-28.34405 0,-15.02372 -7.15414,-28.34408 -24.10267,-28.34408 z m 0.40881,61.9345 -14.93852,0 c -1.70337,0 -3.01497,-1.31226 -3.01497,-2.9298 l 0,-61.32127 c 0,-1.6182 1.3109,-2.92977 2.9298,-2.92977 l 14.92148,0 c 19.55469,0 29.65564,14.52971 29.65564,33.59042 0,19.06068 -10.10095,33.59042 -29.55343,33.59042"
       style="fill:#e4e4e4;fill-opacity:1;fill-rule:nonzero;stroke:none"
       id="path6971-9" />
  </g>
</svg>
