<?xml version="1.0" encoding="UTF-8" standalone="no"?>
<!-- Created with Inkscape (http://www.inkscape.org/) -->

<svg
   xmlns:dc="http://purl.org/dc/elements/1.1/"
   xmlns:cc="http://creativecommons.org/ns#"
   xmlns:rdf="http://www.w3.org/1999/02/22-rdf-syntax-ns#"
   xmlns:svg="http://www.w3.org/2000/svg"
   xmlns="http://www.w3.org/2000/svg"
   xmlns:sodipodi="http://sodipodi.sourceforge.net/DTD/sodipodi-0.dtd"
   xmlns:inkscape="http://www.inkscape.org/namespaces/inkscape"
   width="424.67505"
   height="75"
   id="svg10162"
   version="1.1"
   inkscape:version="0.91pre2 r13516"
   sodipodi:docname="sky nostalgie.svg">
  <defs
     id="defs10164" />
  <sodipodi:namedview
     id="base"
     pagecolor="#ffffff"
     bordercolor="#666666"
     borderopacity="1.0"
     inkscape:pageopacity="0.0"
     inkscape:pageshadow="2"
     inkscape:zoom="0.35"
     inkscape:cx="-730.39303"
     inkscape:cy="173.04331"
     inkscape:document-units="px"
     inkscape:current-layer="layer1"
     showgrid="false"
     fit-margin-top="0"
     fit-margin-left="0"
     fit-margin-right="0"
     fit-margin-bottom="0"
     inkscape:window-width="1920"
     inkscape:window-height="1017"
     inkscape:window-x="-8"
     inkscape:window-y="-8"
     inkscape:window-maximized="1" />
  <metadata
     id="metadata10167">
    <rdf:RDF>
      <cc:Work
         rdf:about="">
        <dc:format>image/svg+xml</dc:format>
        <dc:type
           rdf:resource="http://purl.org/dc/dcmitype/StillImage" />
        <dc:title />
      </cc:Work>
    </rdf:RDF>
  </metadata>
  <g
     inkscape:label="Ebene 1"
     inkscape:groupmode="layer"
     id="layer1"
     transform="translate(-171.82161,-630.40549)">
    <path
       inkscape:connector-curvature="0"
       d="m 266.1193,702.91073 c -0.30356,0.60797 -0.76561,1.51992 -2.28511,1.51992 l -7.0021,0 c -0.69182,0 -1.5304,-0.60797 -1.5304,-1.51992 0,-0.68092 0.15682,-1.06918 0.38743,-1.51992 l 7.91404,-16.07966 -17.44235,-26.04822 -8.98323,9.60168 11.49896,17.13836 c 0.68092,0.91195 0.83857,1.36269 0.83857,1.8239 0,0.76478 -0.83857,1.44654 -1.83438,1.44654 l -7.91405,0 c -1.14255,0 -1.83438,-0.75471 -2.5891,-1.82389 l -13.33333,-19.27673 14.77988,-15.91195 c 1.0587,-1.22642 2.0545,-1.83439 3.8784,-1.83439 l 8.5325,0 c 1.83438,0 2.8197,0.69183 3.73165,2.13837 l 13.9413,22.15933 9.90566,-22.46331 c 0.45032,-1.14256 1.14256,-1.83439 2.5891,-1.83439 l 7.08596,0 c 0.83857,0 1.59329,0.69183 1.59329,1.51992 0,0.46122 -0.14675,0.99581 -0.45116,1.5304 l -23.31236,49.43396 z m -42.96645,-17.59958 c 0,2.51572 -1.89728,3.96226 -3.95179,3.96226 l -6.01677,0 c -0.69182,0 -1.53039,-0.68092 -1.53039,-1.82389 l 0,-49.89518 c 0,-3.05032 1.53039,-4.03564 4.19287,-4.03564 l 5.4088,0 c 1.14256,0 1.89728,0.75471 1.89728,1.8239 l 0,49.96855 z m -25.51363,-19.03564 c 7.2327,1.67715 10.66038,5.40881 10.66038,11.57233 0,6.32075 -4.33963,11.42557 -14.69602,11.42557 l -19.65409,0 c -0.9958,0 -1.44654,-0.68092 -1.44654,-1.82389 l 0,-3.74214 c 0,-2.12789 1.14256,-3.87841 3.96227,-3.87841 l 17.74633,0 c 1.98113,0 2.74633,-0.91195 2.74633,-1.60377 0,-1.0587 -0.76562,-1.75053 -3.12369,-2.27464 l -11.27883,-2.44234 c -7.00209,-1.5304 -10.73375,-5.33543 -10.73375,-11.19497 0,-6.7086 4.64361,-11.8868 13.55346,-11.8868 l 19.72746,0 c 1.06918,0 1.83438,0.69183 1.83438,1.83439 l 0,3.72117 c 0,2.13836 -1.14255,3.97275 -4.03564,3.97275 l -17.06498,0 c -2.28512,0 -2.97694,0.75471 -2.97694,1.44654 0,1.14255 0.69182,1.59329 3.28092,2.20125 l 11.49895,2.67296"
       style="fill:#969696;fill-opacity:1;fill-rule:nonzero;stroke:none"
       id="path8095" />
    <path
       inkscape:connector-curvature="0"
       d="m 302.73356,652.9317 c 0,-1.38365 1.03774,-2.50525 2.50524,-2.50525 1.46751,0 2.49476,1.1216 2.49476,2.50525 l 0,4.91614 c 2.50524,-5.26206 7.0021,-7.7673 12.77778,-7.7673 9.15094,0 14.413,6.74004 14.413,16.91824 l 0,19.76939 c 0,1.37317 -1.1216,2.49476 -2.50525,2.49476 -1.37316,0 -2.49475,-1.12159 -2.49475,-2.49476 l 0,-19.68553 c 0,-7.93501 -3.37527,-12.42138 -10.5346,-12.42138 -7.07547,0 -11.65618,5.85953 -11.65618,13.80503 l 0,18.30188 c 0,1.37317 -1.12159,2.49476 -2.49476,2.49476 -1.38365,0 -2.50524,-1.12159 -2.50524,-2.49476 l 0,-33.83647"
       style="fill:#969696;fill-opacity:1;fill-rule:nonzero;stroke:none"
       id="path8099" />
    <path
       inkscape:connector-curvature="0"
       d="m 374.53649,669.84993 c 0,-8.2914 -4.74842,-15.45073 -12.33752,-15.45073 -7.59958,0 -12.34801,7.15933 -12.34801,15.45073 0,8.28093 4.74843,15.45074 12.34801,15.45074 7.5891,0 12.33752,-7.16981 12.33752,-15.45074 z m -29.68553,0 c 0,-10.27253 6.46751,-19.76939 17.34801,-19.76939 10.87002,0 17.34801,9.49686 17.34801,19.76939 0,10.27254 -6.47799,19.75891 -17.34801,19.75891 -10.8805,0 -17.34801,-9.48637 -17.34801,-19.75891"
       style="fill:#969696;fill-opacity:1;fill-rule:nonzero;stroke:none"
       id="path8103" />
    <path
       inkscape:connector-curvature="0"
       d="m 400.16543,689.60884 c -5.52411,0 -10.18868,-2.42138 -13.37527,-5.44025 -2.07547,-1.98113 0.59707,-5.09434 2.93501,-3.01887 2.67296,2.41091 6.1216,4.31866 10.61845,4.31866 5.95388,0 8.97275,-2.76729 8.97275,-6.8239 0,-4.0566 -2.67296,-5.51362 -7.33753,-7.07547 l -4.66457,-1.55136 c -5.69182,-1.89728 -9.40251,-4.40252 -9.40251,-10.09434 0,-6.74004 5.34591,-9.84277 12.08595,-9.84277 3.79455,0 6.98113,0.9434 9.74843,2.85116 2.5891,1.81341 0.43019,5.26205 -2.15933,3.71069 -2.4109,-1.38365 -4.22432,-2.42139 -7.42138,-2.42139 -4.23481,0 -7.25367,1.64571 -7.25367,5.52411 0,2.85116 1.4675,4.48638 5.61845,5.87002 l 4.65408,1.55137 c 6.13208,2.07547 11.04822,4.58071 11.04822,11.31027 0,6.6457 -6.03773,11.13207 -14.06708,11.13207"
       style="fill:#969696;fill-opacity:1;fill-rule:nonzero;stroke:none"
       id="path8107" />
    <path
       inkscape:connector-curvature="0"
       d="m 429.85096,679.42017 c 0,2.85115 0.9434,4.84276 4.0566,4.84276 l 2.07548,0 c 1.2893,0 2.14884,0.9434 2.14884,2.14885 0,1.29979 -1.02725,2.15933 -2.14884,2.15933 l -2.24319,0 c -7.08595,0 -8.89937,-3.88889 -8.89937,-9.31866 l 0,-23.99371 -5.1782,0 c -1.12159,0 -2.06499,-0.95388 -2.06499,-2.07547 0,-1.1216 0.9434,-2.06499 2.06499,-2.06499 l 5.1782,0 0,-11.65619 c 0,-1.38364 1.12159,-2.50524 2.50524,-2.50524 1.38365,0 2.50524,1.1216 2.50524,2.50524 l 0,11.65619 7.07547,0 c 1.1216,0 2.07547,0.94339 2.07547,2.06499 0,1.12159 -0.95387,2.07547 -2.07547,2.07547 l -7.07547,0 0,24.16143"
       style="fill:#969696;fill-opacity:1;fill-rule:nonzero;stroke:none"
       id="path8111" />
    <path
       inkscape:connector-curvature="0"
       d="m 450.90966,677.43903 c 0,5.1782 3.87841,8.11321 9.2348,8.11321 6.21593,0 11.13208,-3.53249 11.13208,-8.28092 0,-4.74843 -4.05661,-8.45912 -10.96436,-8.45912 -6.03774,0 -9.40252,2.93501 -9.40252,8.62683 z m 25.37736,9.15095 c 0,1.38364 -1.03774,2.50524 -2.50524,2.50524 -1.46751,0 -2.50524,-1.20545 -2.50524,-2.50524 l 0,-2.7673 c -2.24319,3.28092 -6.46751,5.61845 -11.90776,5.61845 -8.20755,0 -13.2914,-5.01048 -13.2914,-12.08595 0,-7.50525 4.83228,-12.43187 13.72117,-12.43187 5.77568,0 9.92662,2.85115 11.47799,5.09434 l 0,-6.03774 c 0,-6.21593 -3.44864,-9.67505 -10.78617,-9.67505 -3.10272,0 -5.95388,1.13208 -7.94549,2.15933 -0.42935,0.17862 -0.77568,0.26164 -1.12159,0.26164 -1.28931,0 -2.24319,-0.9434 -2.24319,-2.15933 0,-0.85954 0.34549,-1.46751 1.29979,-1.98114 2.24319,-1.29979 6.55136,-2.50524 10.3564,-2.50524 10.17819,0 15.45073,5.01049 15.45073,13.89937 l 0,22.61007"
       style="fill:#969696;fill-opacity:1;fill-rule:nonzero;stroke:none"
       id="path8115" />
    <path
       inkscape:connector-curvature="0"
       d="m 489.40023,689.26293 c -1.38365,0 -2.50524,-1.12159 -2.50524,-2.50524 l 0,-53.85744 c 0,-1.37317 1.12159,-2.49476 2.50524,-2.49476 1.38364,0 2.50524,1.12159 2.50524,2.49476 l 0,53.85744 c 0,1.38365 -1.1216,2.50524 -2.50524,2.50524"
       style="fill:#969696;fill-opacity:1;fill-rule:nonzero;stroke:none"
       id="path8119" />
    <path
       inkscape:connector-curvature="0"
       d="m 507.26186,669.32583 c 0,7.85115 3.97275,15.02096 11.8239,15.02096 7.33753,0 12.68344,-6.47799 12.68344,-15.02096 0,-8.54298 -5.34591,-15.02097 -12.68344,-15.02097 -7.85115,0 -11.8239,7.16981 -11.8239,15.02097 z m 29.51782,21.22641 c 0,8.55346 -6.29979,14.85325 -16.31027,14.85325 -5.09434,0 -10.45074,-1.81342 -13.98323,-4.58071 -2.32704,-1.80294 0.16772,-5.09434 2.5891,-3.36478 3.28092,2.42138 6.81342,3.80503 11.39413,3.80503 7.93501,0 11.29979,-4.49686 11.29979,-10.53459 l 0,-9.84277 c -2.67296,4.74843 -7.24319,7.68344 -13.28092,7.68344 -9.67506,0 -16.2369,-8.28092 -16.2369,-19.24528 0,-10.95388 6.56184,-19.24529 16.2369,-19.24529 6.03773,0 10.60796,2.93501 13.28092,7.68344 l 0,-4.83228 c 0,-1.38365 1.13207,-2.50525 2.50524,-2.50525 1.38365,0 2.50524,1.1216 2.50524,2.50525 l 0,37.62054"
       style="fill:#969696;fill-opacity:1;fill-rule:nonzero;stroke:none"
       id="path8123" />
    <path
       inkscape:connector-curvature="0"
       d="m 550.49037,689.26293 c -1.37316,0 -2.50524,-1.12159 -2.50524,-2.50524 l 0,-33.82599 c 0,-1.38365 1.13208,-2.50525 2.50524,-2.50525 1.38365,0 2.50524,1.1216 2.50524,2.50525 l 0,33.82599 c 0,1.38365 -1.12159,2.50524 -2.50524,2.50524 z m 0,-52.90356 c 1.89728,0 3.37527,1.4675 3.37527,3.36478 0,1.89727 -1.47799,3.36478 -3.37527,3.36478 -1.89727,0 -3.36478,-1.46751 -3.36478,-3.36478 0,-1.89728 1.46751,-3.36478 3.36478,-3.36478"
       style="fill:#969696;fill-opacity:1;fill-rule:nonzero;stroke:none"
       id="path8127" />
    <path
       inkscape:connector-curvature="0"
       d="m 580.61616,654.31534 c -7.25367,0 -11.57233,6.46751 -12.16981,13.20755 l 23.4696,0 c -0.59707,-6.74004 -4.39203,-13.20755 -11.29979,-13.20755 z m 15.8805,15.3564 c 0,1.13207 -0.69182,2.07547 -2.15933,2.07547 l -25.89098,0 c 0.42935,7.25367 3.8784,13.63732 12.68344,13.63732 4.66457,0 7.59958,-2.24319 10.10482,-5.52411 0.42935,-0.59707 1.02725,-1.1216 1.89727,-1.1216 1.55137,0 2.24319,1.1216 2.24319,2.15933 0,0.59791 -0.34633,1.1216 -0.69182,1.63522 -2.7673,3.80503 -6.99162,7.08596 -13.55346,7.08596 -12.25367,0 -17.77778,-9.49686 -17.77778,-19.7694 0,-10.95387 6.90776,-19.75891 17.18029,-19.75891 9.66457,0 15.96436,8.36478 15.96436,19.58072"
       style="fill:#969696;fill-opacity:1;fill-rule:nonzero;stroke:none"
       id="path8131" />
  </g>
</svg>
