<?xml version="1.0" encoding="UTF-8" standalone="no"?>
<!-- Created with Inkscape (http://www.inkscape.org/) -->

<svg
   xmlns:dc="http://purl.org/dc/elements/1.1/"
   xmlns:cc="http://creativecommons.org/ns#"
   xmlns:rdf="http://www.w3.org/1999/02/22-rdf-syntax-ns#"
   xmlns:svg="http://www.w3.org/2000/svg"
   xmlns="http://www.w3.org/2000/svg"
   xmlns:sodipodi="http://sodipodi.sourceforge.net/DTD/sodipodi-0.dtd"
   xmlns:inkscape="http://www.inkscape.org/namespaces/inkscape"
   width="287.92505"
   height="75"
   id="svg9440"
   version="1.1"
   inkscape:version="0.91pre3 r13670"
   sodipodi:docname="sky krimi.svg">
  <defs
     id="defs9442" />
  <sodipodi:namedview
     id="base"
     pagecolor="#ffffff"
     bordercolor="#666666"
     borderopacity="1.0"
     inkscape:pageopacity="0.0"
     inkscape:pageshadow="2"
     inkscape:zoom="2.8"
     inkscape:cx="98.27195"
     inkscape:cy="47.399803"
     inkscape:document-units="px"
     inkscape:current-layer="layer1"
     showgrid="false"
     fit-margin-top="0"
     fit-margin-left="0"
     fit-margin-right="0"
     fit-margin-bottom="0"
     inkscape:window-width="1920"
     inkscape:window-height="1017"
     inkscape:window-x="-8"
     inkscape:window-y="-8"
     inkscape:window-maximized="1" />
  <metadata
     id="metadata9445">
    <rdf:RDF>
      <cc:Work
         rdf:about="">
        <dc:format>image/svg+xml</dc:format>
        <dc:type
           rdf:resource="http://purl.org/dc/dcmitype/StillImage" />
        <dc:title />
      </cc:Work>
    </rdf:RDF>
  </metadata>
  <g
     inkscape:label="Ebene 1"
     inkscape:groupmode="layer"
     id="layer1"
     transform="translate(-109.11094,-882.83661)">
    <path
       inkscape:connector-curvature="0"
       d="m 204.65595,956.29489 c -0.30372,0.61921 -0.7761,1.54172 -2.31783,1.54172 l -7.10033,0 c -0.6922,0 -1.54172,-0.61836 -1.54172,-1.54172 0,-0.6922 0.1569,-1.08026 0.38848,-1.54173 l 8.02326,-16.28774 -17.67216,-26.39813 -9.10352,9.73281 11.65209,17.35752 c 0.6922,0.92293 0.84952,1.39489 0.84952,1.85635 0,0.76604 -0.84952,1.46832 -1.85637,1.46832 l -8.02326,0 c -1.16415,0 -1.85635,-0.77611 -2.62198,-1.85637 l -13.50845,-19.52852 14.96628,-16.13042 c 1.09074,-1.2271 2.08709,-1.84589 3.94345,-1.84589 l 8.64205,0 c 1.84588,0 2.85272,0.69221 3.78615,2.16052 l 14.11674,22.45465 10.03696,-22.76928 c 0.46145,-1.15368 1.15367,-1.84589 2.62197,-1.84589 l 7.17374,0 c 0.84952,0 1.62564,0.69221 1.62564,1.54174 0,0.46145 -0.15774,0.99635 -0.46147,1.54172 l -23.61881,50.09034 z m -43.5249,-17.82947 c 0,2.54855 -1.92977,4.01687 -4.01687,4.01687 l -6.09349,0 c -0.70311,0 -1.54172,-0.70312 -1.54172,-1.85637 l 0,-50.55181 c 0,-3.08345 1.54172,-4.09029 4.23712,-4.09029 l 5.48519,0 c 1.15367,0 1.92977,0.77611 1.92977,1.85637 l 0,50.62523 z m -25.86323,-19.29779 c 7.33106,1.69904 10.81306,5.48519 10.81306,11.73598 0,6.39764 -4.40493,11.57868 -14.90333,11.57868 l -19.90609,0 c -1.00685,0 -1.46832,-0.70312 -1.46832,-1.85637 l 0,-3.77565 c 0,-2.171 1.16417,-3.94346 4.01689,-3.94346 l 17.97629,0 c 2.01368,0 2.7793,-0.92293 2.7793,-1.61515 0,-1.08025 -0.76604,-1.78295 -3.15687,-2.31782 l -11.43183,-2.46467 c -7.08984,-1.55221 -10.87598,-5.41177 -10.87598,-11.34793 0,-6.79619 4.70909,-12.04015 13.73918,-12.04015 l 19.98999,0 c 1.06977,0 1.84587,0.69221 1.84587,1.84589 l 0,3.78614 c 0,2.1605 -1.15366,4.01687 -4.09028,4.01687 l -17.28411,0 c -2.31782,0 -3.01003,0.7652 -3.01003,1.4683 0,1.15368 0.69221,1.61515 3.31418,2.23394 l 11.65208,2.6954"
       style="fill:#918d8e;fill-opacity:1;fill-rule:nonzero;stroke:none"
       id="path6589" />
    <path
       inkscape:connector-curvature="0"
       d="m 246.82791,919.12568 16.43458,-15.21799 c 0.5244,-0.44049 0.96489,-0.70312 1.75149,-0.70312 1.40538,0 2.35978,1.05929 2.35978,2.27589 0,0.70227 -0.26179,1.22708 -0.8705,1.75148 l -16.70727,14.95579 19.42364,16.26677 c 0.6922,0.6083 0.8705,1.0488 0.8705,1.741 0,1.22708 -0.96488,2.27587 -2.35978,2.27587 -0.78618,0 -1.22709,-0.26178 -1.75149,-0.70311 l -19.15095,-16.43457 0,14.59919 c 0,1.40538 -1.13269,2.53808 -2.53809,2.53808 -1.39489,0 -2.53807,-1.1327 -2.53807,-2.53808 l 0,-54.5582 c 0,-1.40537 1.0488,-2.53807 2.53807,-2.53807 1.4054,0 2.53809,0.96488 2.53809,2.53807 l 0,33.75015"
       style="fill:#918d8e;fill-opacity:1;fill-rule:nonzero;stroke:none"
       id="path6593" />
    <path
       inkscape:connector-curvature="0"
       d="m 293.86626,907.84067 -0.0839,0 c -6.99544,0 -10.76061,7.17374 -10.76061,16.87507 l 0,15.21798 c 0,1.31099 -1.0488,2.53807 -2.53809,2.53807 -1.4788,0 -2.53807,-1.22708 -2.53807,-2.53807 l 0,-34.27454 c 0,-1.4893 1.05927,-2.53809 2.53807,-2.53809 1.48929,0 2.53809,1.04879 2.53809,2.53809 l 0,6.37666 c 1.14318,-4.98177 5.50616,-8.91475 10.76061,-8.91475 l 0.1678,0 c 1.48929,0 2.45417,0.78618 2.45417,2.27589 0,1.39489 -0.88098,2.44369 -2.53807,2.44369"
       style="fill:#918d8e;fill-opacity:1;fill-rule:nonzero;stroke:none"
       id="path6597" />
    <path
       inkscape:connector-curvature="0"
       d="m 306.10566,942.47179 c -1.39488,0 -2.53807,-1.1327 -2.53807,-2.53807 l 0,-34.27454 c 0,-1.3949 1.14319,-2.53809 2.53807,-2.53809 1.3949,0 2.53809,1.14319 2.53809,2.53809 l 0,34.27454 c 0,1.40537 -1.14319,2.53807 -2.53809,2.53807 z m 0,-53.60378 c 1.92979,0 3.40859,1.48927 3.40859,3.40857 0,1.92977 -1.4788,3.40857 -3.40859,3.40857 -1.91927,0 -3.40857,-1.4788 -3.40857,-3.40857 0,-1.9193 1.4893,-3.40857 3.40857,-3.40857"
       style="fill:#918d8e;fill-opacity:1;fill-rule:nonzero;stroke:none"
       id="path6601" />
    <path
       inkscape:connector-curvature="0"
       d="m 320.00218,905.65918 c 0,-1.3949 1.04878,-2.53809 2.53807,-2.53809 1.48928,0 2.53808,1.14319 2.53808,2.53809 l 0,4.98176 c 2.53807,-5.32786 7.07936,-7.86595 12.9421,-7.86595 6.37666,0 10.92843,3.32468 13.1099,8.83083 2.89467,-5.68444 7.69816,-8.83083 14.4314,-8.83083 9.27133,0 14.60968,6.81716 14.60968,17.13728 l 0,20.02145 c 0,1.40537 -1.14318,2.53807 -2.53808,2.53807 -1.40537,0 -2.53807,-1.1327 -2.53807,-2.53807 l 0,-19.93755 c 0,-8.04425 -3.40859,-12.58552 -10.66623,-12.58552 -7.17374,0 -11.8094,5.94666 -11.8094,13.9909 l 0,18.53217 c 0,1.40537 -1.1327,2.53807 -2.53808,2.53807 -1.39489,0 -2.52759,-1.1327 -2.52759,-2.53807 l 0,-19.93755 c 0,-8.04425 -3.41907,-12.58552 -10.66623,-12.58552 -7.17374,0 -11.8094,5.94666 -11.8094,13.9909 l 0,18.53217 c 0,1.40537 -1.1327,2.53807 -2.53808,2.53807 -1.39489,0 -2.53807,-1.1327 -2.53807,-2.53807 l 0,-34.27454"
       style="fill:#918d8e;fill-opacity:1;fill-rule:nonzero;stroke:none"
       id="path6605" />
    <path
       inkscape:connector-curvature="0"
       d="m 393.62742,942.47179 c -1.40539,0 -2.53808,-1.1327 -2.53808,-2.53807 l 0,-34.27454 c 0,-1.3949 1.13269,-2.53809 2.53808,-2.53809 1.3949,0 2.53808,1.14319 2.53808,2.53809 l 0,34.27454 c 0,1.40537 -1.14318,2.53807 -2.53808,2.53807 z m 0,-53.60378 c 1.91928,0 3.40858,1.48927 3.40858,3.40857 0,1.92977 -1.4893,3.40857 -3.40858,3.40857 -1.91929,0 -3.41906,-1.4788 -3.41906,-3.40857 0,-1.9193 1.49977,-3.40857 3.41906,-3.40857"
       style="fill:#918d8e;fill-opacity:1;fill-rule:nonzero;stroke:none"
       id="path6609" />
  </g>
</svg>
