<?xml version="1.0" encoding="UTF-8" standalone="no"?>
<!-- Created with Inkscape (http://www.inkscape.org/) -->

<svg
   xmlns:dc="http://purl.org/dc/elements/1.1/"
   xmlns:cc="http://creativecommons.org/ns#"
   xmlns:rdf="http://www.w3.org/1999/02/22-rdf-syntax-ns#"
   xmlns:svg="http://www.w3.org/2000/svg"
   xmlns="http://www.w3.org/2000/svg"
   xmlns:sodipodi="http://sodipodi.sourceforge.net/DTD/sodipodi-0.dtd"
   xmlns:inkscape="http://www.inkscape.org/namespaces/inkscape"
   width="549.14569"
   height="75"
   id="svg10366"
   version="1.1"
   inkscape:version="0.91pre2 r13516"
   sodipodi:docname="sky sport austria.svg">
  <defs
     id="defs10368" />
  <sodipodi:namedview
     id="base"
     pagecolor="#ffffff"
     bordercolor="#666666"
     borderopacity="1.0"
     inkscape:pageopacity="0.0"
     inkscape:pageshadow="2"
     inkscape:zoom="0.98994949"
     inkscape:cx="211.68342"
     inkscape:cy="232.74143"
     inkscape:document-units="px"
     inkscape:current-layer="layer1"
     showgrid="false"
     fit-margin-top="0"
     fit-margin-left="0"
     fit-margin-right="0"
     fit-margin-bottom="0"
     inkscape:window-width="1920"
     inkscape:window-height="1017"
     inkscape:window-x="-8"
     inkscape:window-y="-8"
     inkscape:window-maximized="1" />
  <metadata
     id="metadata10371">
    <rdf:RDF>
      <cc:Work
         rdf:about="">
        <dc:format>image/svg+xml</dc:format>
        <dc:type
           rdf:resource="http://purl.org/dc/dcmitype/StillImage" />
        <dc:title />
      </cc:Work>
    </rdf:RDF>
  </metadata>
  <g
     inkscape:label="Ebene 1"
     inkscape:groupmode="layer"
     id="layer1"
     transform="translate(-349.4675,-690.10361)">
    <path
       inkscape:connector-curvature="0"
       d="m 447.83755,762.4957 c -0.31474,0.64028 -0.79856,1.58498 -2.38309,1.58498 l -7.30665,0 c -0.71943,0 -1.59623,-0.6295 -1.59623,-1.58498 0,-0.71943 0.15738,-1.11286 0.40468,-1.58499 l 8.26214,-16.77158 -18.19919,-27.16951 -9.375,10.00449 11.99415,17.88445 c 0.71943,0.94424 0.8768,1.4276 0.8768,1.89973 0,0.79856 -0.8768,1.51753 -1.91097,1.51753 l -8.26214,0 c -1.19155,0 -1.91097,-0.79856 -2.69784,-1.91097 l -13.90513,-20.09892 15.41142,-16.61421 c 1.11286,-1.27023 2.14704,-1.91097 4.05801,-1.91097 l 8.89163,0 c 1.91098,0 2.94515,0.71942 3.90063,2.22572 l 14.53463,23.12275 10.33048,-23.4375 c 0.48291,-1.19155 1.19155,-1.91097 2.70908,-1.91097 l 7.38535,0 c 0.87679,0 1.66366,0.71942 1.66366,1.59622 0,0.47213 -0.15737,1.03418 -0.47212,1.58499 l -24.3143,51.57374 z m -44.81789,-18.35657 c 0,2.61916 -1.98966,4.13669 -4.13669,4.13669 l -6.27248,0 c -0.71943,0 -1.58499,-0.71942 -1.58499,-1.91097 l 0,-52.04586 c 0,-3.18121 1.58499,-4.21538 4.37276,-4.21538 l 5.63174,0 c 1.19155,0 1.98966,0.79856 1.98966,1.91097 l 0,52.12455 z m -26.61871,-19.86286 c 7.54272,1.74236 11.1286,5.64299 11.1286,12.07284 0,6.59847 -4.53013,11.92671 -15.34397,11.92671 l -20.5036,0 c -1.02293,0 -1.5063,-0.71942 -1.5063,-1.91097 l 0,-3.88939 c 0,-2.23696 1.19155,-4.058 4.13669,-4.058 l 18.51394,0 c 2.06835,0 2.85522,-0.95549 2.85522,-1.66367 0,-1.11286 -0.78687,-1.83228 -3.24865,-2.38309 l -11.76934,-2.55171 c -7.30665,-1.58498 -11.19604,-5.55306 -11.19604,-11.67941 0,-6.99191 4.84487,-12.39883 14.14119,-12.39883 l 20.58228,0 c 1.11286,0 1.91097,0.71942 1.91097,1.91097 l 0,3.88939 c 0,2.22572 -1.20279,4.13669 -4.21538,4.13669 l -17.79451,0 c -2.39433,0 -3.10252,0.79766 -3.10252,1.5063 0,1.19154 0.70864,1.67491 3.41727,2.3044 l 11.99415,2.78777"
       style="fill:#969696;fill-opacity:1;fill-rule:nonzero;stroke:none"
       id="path4425" />
    <path
       inkscape:connector-curvature="0"
       d="m 498.27595,748.62429 c -5.76663,0 -10.62275,-2.51798 -13.95009,-5.67671 -2.16951,-2.06834 0.6295,-5.30575 3.05756,-3.14748 2.78777,2.51799 6.39613,4.50765 11.07239,4.50765 6.21628,0 9.36376,-2.88894 9.36376,-7.11556 0,-4.23786 -2.78777,-5.76664 -7.65513,-7.38534 l -4.85611,-1.61871 c -5.9465,-1.97841 -9.8134,-4.59757 -9.8134,-10.53282 0,-7.02563 5.57554,-10.26304 12.60117,-10.26304 3.95683,0 7.29541,0.98921 10.17311,2.96762 2.69784,1.88849 0.44964,5.48562 -2.2482,3.86691 -2.51799,-1.43885 -4.41772,-2.51798 -7.74506,-2.51798 -4.40647,0 -7.56519,1.70863 -7.56519,5.76663 0,2.96763 1.52877,4.67626 5.85656,6.11511 l 4.85612,1.61871 c 6.39613,2.16951 11.52203,4.77742 11.52203,11.80305 0,6.9357 -6.29497,11.61196 -14.66952,11.61196"
       style="fill:#969696;fill-opacity:1;fill-rule:nonzero;stroke:none"
       id="path4429" />
    <path
       inkscape:connector-curvature="0"
       d="m 552.74987,728.00829 c 0,-8.82419 -4.13669,-16.11961 -12.33138,-16.11961 -7.65513,0 -13.24191,7.20549 -13.24191,16.11961 0,8.91411 5.58678,16.1196 13.24191,16.1196 8.19469,0 12.33138,-7.29541 12.33138,-16.1196 z M 521.96076,710.3599 c 0,-1.43884 1.16906,-2.60791 2.60791,-2.60791 1.43885,0 2.60791,1.16907 2.60791,2.60791 l 0,5.22707 c 2.79901,-4.95728 7.5652,-8.19469 13.87141,-8.19469 10.08318,0 16.92895,8.82419 16.92895,20.61601 0,11.79181 -6.84577,20.616 -16.92895,20.616 -6.30621,0 -11.0724,-3.23741 -13.87141,-8.19469 l 0,22.0661 c 0,1.43885 -1.16906,2.60791 -2.60791,2.60791 -1.43885,0 -2.60791,-1.16906 -2.60791,-2.60791 l 0,-52.1358"
       style="fill:#969696;fill-opacity:1;fill-rule:nonzero;stroke:none"
       id="path4433" />
    <path
       inkscape:connector-curvature="0"
       d="m 597.03944,728.00829 c 0,-8.64434 -4.94604,-16.11961 -12.87095,-16.11961 -7.92491,0 -12.8822,7.47527 -12.8822,16.11961 0,8.64433 4.95729,16.1196 12.8822,16.1196 7.92491,0 12.87095,-7.47527 12.87095,-16.1196 z m -30.96897,0 c 0,-10.71268 6.7446,-20.61601 18.09802,-20.61601 11.34218,0 18.09802,9.90333 18.09802,20.61601 0,10.71268 -6.75584,20.616 -18.09802,20.616 -11.35342,0 -18.09802,-9.90332 -18.09802,-20.616"
       style="fill:#969696;fill-opacity:1;fill-rule:nonzero;stroke:none"
       id="path4437" />
    <path
       inkscape:connector-curvature="0"
       d="m 627.64871,712.60811 -0.0899,0 c -7.20549,0 -11.0724,7.38534 -11.0724,17.37859 l 0,15.66997 c 0,1.34892 -1.07913,2.60791 -2.60791,2.60791 -1.54002,0 -2.61915,-1.25899 -2.61915,-2.60791 l 0,-35.29677 c 0,-1.52877 1.07913,-2.60791 2.61915,-2.60791 1.52878,0 2.60791,1.07914 2.60791,2.60791 l 0,6.56475 c 1.16907,-5.1259 5.66547,-9.17266 11.0724,-9.17266 l 0.17985,0 c 1.52878,0 2.51799,0.80935 2.51799,2.33813 0,1.43885 -0.89928,2.51799 -2.60791,2.51799"
       style="fill:#969696;fill-opacity:1;fill-rule:nonzero;stroke:none"
       id="path4441" />
    <path
       inkscape:connector-curvature="0"
       d="m 648.61318,738.00154 c 0,2.96763 0.98921,5.03597 4.22662,5.03597 l 2.16952,0 c 1.34892,0 2.2482,0.98921 2.2482,2.2482 0,1.36017 -1.07914,2.25945 -2.2482,2.25945 l -2.34937,0 c -7.3741,0 -9.27383,-4.04677 -9.27383,-9.72347 l 0,-25.03373 -5.39569,0 c -1.16906,0 -2.15827,-0.98921 -2.15827,-2.15827 0,-1.16907 0.98921,-2.15827 2.15827,-2.15827 l 5.39569,0 0,-12.16277 c 0,-1.43885 1.1803,-2.60792 2.61915,-2.60792 1.43885,0 2.60791,1.16907 2.60791,2.60792 l 0,12.16277 7.38535,0 c 1.16906,0 2.15827,0.9892 2.15827,2.15827 0,1.16906 -0.98921,2.15827 -2.15827,2.15827 l -7.38535,0 0,25.21358"
       style="fill:#969696;fill-opacity:1;fill-rule:nonzero;stroke:none"
       id="path4445" />
    <path
       inkscape:connector-curvature="0"
       d="m 680.30158,735.9332 c 0,5.40692 4.04677,8.46447 9.63355,8.46447 6.48606,0 11.61196,-3.69829 11.61196,-8.64433 0,-4.95728 -4.22662,-8.82419 -11.43211,-8.82419 -6.3062,0 -9.8134,3.05755 -9.8134,9.00405 z m 26.47257,9.54361 c 0,1.43885 -1.07913,2.60792 -2.60791,2.60792 -1.52878,0 -2.61915,-1.259 -2.61915,-2.60792 l 0,-2.8777 c -2.33813,3.41727 -6.74461,5.84533 -12.42132,5.84533 -8.5544,0 -13.86016,-5.21583 -13.86016,-12.60117 0,-7.83498 5.03597,-12.97212 14.3098,-12.97212 6.03642,0 10.35297,2.97886 11.97168,5.31699 l 0,-6.3062 c 0,-6.47482 -3.59713,-10.08319 -11.25225,-10.08319 -3.23741,0 -6.20504,1.16907 -8.28462,2.25945 -0.44964,0.17985 -0.80936,0.26978 -1.16907,0.26978 -1.34892,0 -2.33813,-1.00045 -2.33813,-2.25944 0,-0.89928 0.35971,-1.52878 1.34892,-2.06835 2.34937,-1.34892 6.84578,-2.60791 10.80261,-2.60791 10.62275,0 16.1196,5.21583 16.1196,14.48966 l 0,23.59487"
       style="fill:#969696;fill-opacity:1;fill-rule:nonzero;stroke:none"
       id="path4449" />
    <path
       inkscape:connector-curvature="0"
       d="m 750.97379,745.65667 c 0,1.43885 -1.07913,2.60791 -2.60791,2.60791 -1.54002,0 -2.60791,-1.16906 -2.60791,-2.60791 l 0,-5.13714 c -2.61916,5.49685 -7.29542,8.10476 -13.33184,8.10476 -9.53237,0 -15.02922,-7.02563 -15.02922,-17.64838 l 0,-20.61601 c 0,-1.43884 1.16906,-2.60791 2.60791,-2.60791 1.43885,0 2.60791,1.16907 2.60791,2.60791 l 0,20.52608 c 0,8.28463 3.51844,12.97213 10.99371,12.97213 7.3741,0 12.15153,-6.12635 12.15153,-14.41097 l 0,-19.08724 c 0,-1.43884 1.16906,-2.60791 2.60791,-2.60791 1.43885,0 2.60791,1.16907 2.60791,2.60791 l 0,35.29677"
       style="fill:#969696;fill-opacity:1;fill-rule:nonzero;stroke:none"
       id="path4453" />
    <path
       inkscape:connector-curvature="0"
       d="m 775.18692,748.62429 c -5.76663,0 -10.62275,-2.51798 -13.95009,-5.67671 -2.16951,-2.06834 0.6295,-5.30575 3.05756,-3.14748 2.78777,2.51799 6.38489,4.50765 11.07239,4.50765 6.20504,0 9.36376,-2.88894 9.36376,-7.11556 0,-4.23786 -2.79901,-5.76664 -7.65513,-7.38534 l -4.85611,-1.61871 c -5.94649,-1.97841 -9.8134,-4.59757 -9.8134,-10.53282 0,-7.02563 5.57554,-10.26304 12.60117,-10.26304 3.96807,0 7.28417,0.98921 10.17311,2.96762 2.69784,1.88849 0.44964,5.48562 -2.2482,3.86691 -2.52923,-1.43885 -4.41772,-2.51798 -7.74506,-2.51798 -4.40647,0 -7.56519,1.70863 -7.56519,5.76663 0,2.96763 1.52877,4.67626 5.85656,6.11511 l 4.85612,1.61871 c 6.39613,2.16951 11.52203,4.77742 11.52203,11.80305 0,6.9357 -6.29497,11.61196 -14.66952,11.61196"
       style="fill:#969696;fill-opacity:1;fill-rule:nonzero;stroke:none"
       id="path4457" />
    <path
       inkscape:connector-curvature="0"
       d="m 806.1559,738.00154 c 0,2.96763 0.98921,5.03597 4.23786,5.03597 l 2.15827,0 c 1.34892,0 2.2482,0.98921 2.2482,2.2482 0,1.36017 -1.07913,2.25945 -2.2482,2.25945 l -2.34937,0 c -7.3741,0 -9.26259,-4.04677 -9.26259,-9.72347 l 0,-25.03373 -5.40692,0 c -1.16907,0 -2.15828,-0.98921 -2.15828,-2.15827 0,-1.16907 0.98921,-2.15827 2.15828,-2.15827 l 5.40692,0 0,-12.16277 c 0,-1.43885 1.16907,-2.60792 2.59667,-2.60792 1.45009,0 2.61916,1.16907 2.61916,2.60792 l 0,12.16277 7.38534,0 c 1.16907,0 2.15827,0.9892 2.15827,2.15827 0,1.16906 -0.9892,2.15827 -2.15827,2.15827 l -7.38534,0 0,25.21358"
       style="fill:#969696;fill-opacity:1;fill-rule:nonzero;stroke:none"
       id="path4461" />
    <path
       inkscape:connector-curvature="0"
       d="m 840.63207,712.60811 -0.0899,0 c -7.20549,0 -11.07239,7.38534 -11.07239,17.37859 l 0,15.66997 c 0,1.34892 -1.07914,2.60791 -2.61916,2.60791 -1.52877,0 -2.60791,-1.25899 -2.60791,-2.60791 l 0,-35.29677 c 0,-1.52877 1.07914,-2.60791 2.60791,-2.60791 1.54002,0 2.61916,1.07914 2.61916,2.60791 l 0,6.56475 c 1.16906,-5.1259 5.66547,-9.17266 11.07239,-9.17266 l 0.17986,0 c 1.52877,0 2.52922,0.80935 2.52922,2.33813 0,1.43885 -0.91052,2.51799 -2.61915,2.51799"
       style="fill:#969696;fill-opacity:1;fill-rule:nonzero;stroke:none"
       id="path4465" />
    <path
       inkscape:connector-curvature="0"
       d="m 853.23324,748.26458 c -1.43885,0 -2.60792,-1.16906 -2.60792,-2.60791 l 0,-35.29677 c 0,-1.43884 1.16907,-2.60791 2.60792,-2.60791 1.43885,0 2.60791,1.16907 2.60791,2.60791 l 0,35.29677 c 0,1.43885 -1.16906,2.60791 -2.60791,2.60791 z m 0,-55.19334 c 1.97841,0 3.50719,1.52877 3.50719,3.51843 0,1.97842 -1.52878,3.5072 -3.50719,3.5072 -1.97842,0 -3.51844,-1.52878 -3.51844,-3.5072 0,-1.98966 1.54002,-3.51843 3.51844,-3.51843"
       style="fill:#969696;fill-opacity:1;fill-rule:nonzero;stroke:none"
       id="path4469" />
    <path
       id="path4473"
       style="fill:#969696;fill-opacity:1;fill-rule:nonzero;stroke:none"
       d="m 872.14061,735.9332 c 0,5.40692 4.04676,8.46448 9.63354,8.46448 6.48606,0 11.61196,-3.69829 11.61196,-8.64434 0,-4.95728 -4.22662,-8.82419 -11.4321,-8.82419 -6.30621,0 -9.8134,3.05756 -9.8134,9.00405 z m 26.47257,9.54361 c 0,1.43885 -1.07914,2.60792 -2.61915,2.60792 -1.52878,0 -2.60792,-1.25899 -2.60792,-2.60792 l 0,-2.87769 c -2.33813,3.41726 -6.75584,5.84532 -12.42131,5.84532 -8.55441,0 -13.8714,-5.21583 -13.8714,-12.60117 0,-7.83498 5.04721,-12.97212 14.32104,-12.97212 6.03642,0 10.35297,2.97887 11.97167,5.317 l 0,-6.30621 c 0,-6.47482 -3.60836,-10.08318 -11.25224,-10.08318 -3.23741,0 -6.21628,1.16906 -8.28463,2.25944 -0.44964,0.17986 -0.80935,0.26978 -1.16906,0.26978 -1.36016,0 -2.33813,-1.00045 -2.33813,-2.25944 0,-0.89928 0.35971,-1.52877 1.34892,-2.06834 2.33813,-1.34892 6.84577,-2.60792 10.80261,-2.60792 10.62275,0 16.1196,5.21583 16.1196,14.48966 l 0,23.59487"
       inkscape:connector-curvature="0" />
  </g>
</svg>
