<?xml version="1.0" encoding="UTF-8" standalone="no"?>
<!-- Created with Inkscape (http://www.inkscape.org/) -->

<svg
   xmlns:dc="http://purl.org/dc/elements/1.1/"
   xmlns:cc="http://creativecommons.org/ns#"
   xmlns:rdf="http://www.w3.org/1999/02/22-rdf-syntax-ns#"
   xmlns:svg="http://www.w3.org/2000/svg"
   xmlns="http://www.w3.org/2000/svg"
   xmlns:xlink="http://www.w3.org/1999/xlink"
   version="1.1"
   width="832"
   height="188.125"
   id="svg2">
  <metadata
     id="metadata8">
    <rdf:RDF>
      <cc:Work
         rdf:about="">
        <dc:format>image/svg+xml</dc:format>
        <dc:type
           rdf:resource="http://purl.org/dc/dcmitype/StillImage" />
        <dc:title></dc:title>
      </cc:Work>
    </rdf:RDF>
  </metadata>
  <defs
     id="defs6">
    <linearGradient
       id="linearGradient3873">
      <stop
         id="stop3875"
         style="stop-color:#000000;stop-opacity:0"
         offset="0" />
      <stop
         id="stop3877"
         style="stop-color:#000000;stop-opacity:1"
         offset="1" />
    </linearGradient>
    <linearGradient
       id="linearGradient4056">
      <stop
         id="stop4058"
         style="stop-color:#3d3d3d;stop-opacity:1"
         offset="0" />
      <stop
         id="stop4060"
         style="stop-color:#3d3d3d;stop-opacity:1"
         offset="0.82284153" />
      <stop
         id="stop4062"
         style="stop-color:#ffffff;stop-opacity:1"
         offset="0.87788105" />
      <stop
         id="stop4064"
         style="stop-color:#ffffff;stop-opacity:1"
         offset="0.94668067" />
      <stop
         id="stop4066"
         style="stop-color:#434343;stop-opacity:1"
         offset="1" />
    </linearGradient>
    <linearGradient
       id="linearGradient4016">
      <stop
         id="stop4018"
         style="stop-color:#3d3d3d;stop-opacity:1"
         offset="0" />
      <stop
         id="stop4042"
         style="stop-color:#3d3d3d;stop-opacity:1"
         offset="0.22272909" />
      <stop
         id="stop4024"
         style="stop-color:#ffffff;stop-opacity:1"
         offset="0.46173689" />
      <stop
         id="stop4026"
         style="stop-color:#ffffff;stop-opacity:1"
         offset="0.76818359" />
      <stop
         id="stop4020"
         style="stop-color:#434343;stop-opacity:1"
         offset="1" />
    </linearGradient>
    <linearGradient
       id="linearGradient3962">
      <stop
         id="stop3964"
         style="stop-color:#505050;stop-opacity:1"
         offset="0" />
      <stop
         id="stop3966"
         style="stop-color:#808080;stop-opacity:1"
         offset="0.11204819" />
      <stop
         id="stop3968"
         style="stop-color:#808080;stop-opacity:1"
         offset="0.94417667" />
      <stop
         id="stop3970"
         style="stop-color:#b4b4b4;stop-opacity:1"
         offset="1" />
    </linearGradient>
    <linearGradient
       id="linearGradient3946">
      <stop
         id="stop3948"
         style="stop-color:#a0a0a0;stop-opacity:1"
         offset="0" />
      <stop
         id="stop3958"
         style="stop-color:#c8c8c8;stop-opacity:1"
         offset="0.11235955" />
      <stop
         id="stop3956"
         style="stop-color:#c8c8c8;stop-opacity:1"
         offset="0.94382024" />
      <stop
         id="stop3950"
         style="stop-color:#f0f0f0;stop-opacity:1"
         offset="1" />
    </linearGradient>
    <linearGradient
       id="linearGradient3912">
      <stop
         id="stop3914"
         style="stop-color:#505050;stop-opacity:1"
         offset="0" />
      <stop
         id="stop3924"
         style="stop-color:#808080;stop-opacity:1"
         offset="0.11204819" />
      <stop
         id="stop3922"
         style="stop-color:#808080;stop-opacity:1"
         offset="0.88795179" />
      <stop
         id="stop3916"
         style="stop-color:#b4b4b4;stop-opacity:1"
         offset="1" />
    </linearGradient>
    <linearGradient
       id="linearGradient3898">
      <stop
         id="stop3900"
         style="stop-color:#0d1329;stop-opacity:1"
         offset="0" />
      <stop
         id="stop3908"
         style="stop-color:#202f66;stop-opacity:1"
         offset="0.11200321" />
      <stop
         id="stop3910"
         style="stop-color:#202f66;stop-opacity:1"
         offset="0.94379765" />
      <stop
         id="stop3902"
         style="stop-color:#334ba3;stop-opacity:1"
         offset="1" />
    </linearGradient>
    <linearGradient
       id="linearGradient3890">
      <stop
         id="stop3892"
         style="stop-color:#ffffff;stop-opacity:1"
         offset="0" />
      <stop
         id="stop3894"
         style="stop-color:#ffffff;stop-opacity:0"
         offset="1" />
    </linearGradient>
    <linearGradient
       x1="695.35712"
       y1="-46.142857"
       x2="695.35712"
       y2="-401.85715"
       id="linearGradient4145"
       xlink:href="#linearGradient3962"
       gradientUnits="userSpaceOnUse"
       gradientTransform="matrix(0.50033761,0,0,0.50033761,-2.5050642,206.14678)" />
    <linearGradient
       x1="1189.4546"
       y1="-46"
       x2="1189.4546"
       y2="-402"
       id="linearGradient4149"
       xlink:href="#linearGradient3946"
       gradientUnits="userSpaceOnUse"
       gradientTransform="matrix(0.50033761,0,0,0.50033761,-2.5050642,206.14678)" />
    <linearGradient
       x1="13.928571"
       y1="-46.142857"
       x2="13.928571"
       y2="-402"
       id="linearGradient4153"
       xlink:href="#linearGradient3898"
       gradientUnits="userSpaceOnUse"
       gradientTransform="matrix(0.50033761,0,0,0.50033761,-2.5050642,206.14678)" />
    <radialGradient
       cx="49.82143"
       cy="43.910713"
       r="19.285715"
       fx="49.82143"
       fy="43.910713"
       id="radialGradient4168"
       xlink:href="#linearGradient3890"
       gradientUnits="userSpaceOnUse"
       gradientTransform="matrix(1,0,0,0.31944442,0,29.883681)" />
    <linearGradient
       x1="13.928571"
       y1="-46.142857"
       x2="13.928571"
       y2="-402"
       id="linearGradient4108"
       xlink:href="#linearGradient3898-2"
       gradientUnits="userSpaceOnUse"
       gradientTransform="matrix(0.50033761,0,0,0.50033761,-0.50506415,-149.88447)" />
    <linearGradient
       x1="695.35712"
       y1="-46.142857"
       x2="695.35712"
       y2="-401.85715"
       id="linearGradient3999"
       xlink:href="#linearGradient3962-6"
       gradientUnits="userSpaceOnUse" />
    <linearGradient
       x1="1189.4546"
       y1="-46"
       x2="1189.4546"
       y2="-402"
       id="linearGradient3997"
       xlink:href="#linearGradient3946-4"
       gradientUnits="userSpaceOnUse" />
    <radialGradient
       cx="49.82143"
       cy="43.910713"
       r="19.285715"
       fx="49.82143"
       fy="43.910713"
       id="radialGradient3995"
       xlink:href="#linearGradient3890-9"
       gradientUnits="userSpaceOnUse"
       gradientTransform="matrix(1,0,0,0.31944442,0,29.883681)" />
    <linearGradient
       x1="13.928571"
       y1="-46.142857"
       x2="13.928571"
       y2="-402"
       id="linearGradient3993"
       xlink:href="#linearGradient3898-2"
       gradientUnits="userSpaceOnUse" />
    <linearGradient
       id="linearGradient3890-9">
      <stop
         id="stop3892-8"
         style="stop-color:#ffffff;stop-opacity:1"
         offset="0" />
      <stop
         id="stop3894-3"
         style="stop-color:#ffffff;stop-opacity:0"
         offset="1" />
    </linearGradient>
    <linearGradient
       id="linearGradient3898-2">
      <stop
         id="stop3900-4"
         style="stop-color:#0d1329;stop-opacity:1"
         offset="0" />
      <stop
         id="stop3908-5"
         style="stop-color:#202f66;stop-opacity:1"
         offset="0.11200321" />
      <stop
         id="stop3910-2"
         style="stop-color:#202f66;stop-opacity:1"
         offset="0.94379765" />
      <stop
         id="stop3902-9"
         style="stop-color:#334ba3;stop-opacity:1"
         offset="1" />
    </linearGradient>
    <linearGradient
       id="linearGradient3912-2">
      <stop
         id="stop3914-1"
         style="stop-color:#505050;stop-opacity:1"
         offset="0" />
      <stop
         id="stop3924-4"
         style="stop-color:#808080;stop-opacity:1"
         offset="0.11204819" />
      <stop
         id="stop3922-9"
         style="stop-color:#808080;stop-opacity:1"
         offset="0.88795179" />
      <stop
         id="stop3916-8"
         style="stop-color:#b4b4b4;stop-opacity:1"
         offset="1" />
    </linearGradient>
    <linearGradient
       id="linearGradient3946-4">
      <stop
         id="stop3948-5"
         style="stop-color:#a0a0a0;stop-opacity:1"
         offset="0" />
      <stop
         id="stop3958-8"
         style="stop-color:#c8c8c8;stop-opacity:1"
         offset="0.11235955" />
      <stop
         id="stop3956-8"
         style="stop-color:#c8c8c8;stop-opacity:1"
         offset="0.94382024" />
      <stop
         id="stop3950-1"
         style="stop-color:#f0f0f0;stop-opacity:1"
         offset="1" />
    </linearGradient>
    <linearGradient
       id="linearGradient3962-6">
      <stop
         id="stop3964-0"
         style="stop-color:#505050;stop-opacity:1"
         offset="0" />
      <stop
         id="stop3966-3"
         style="stop-color:#808080;stop-opacity:1"
         offset="0.11204819" />
      <stop
         id="stop3968-6"
         style="stop-color:#808080;stop-opacity:1"
         offset="0.94417667" />
      <stop
         id="stop3970-2"
         style="stop-color:#b4b4b4;stop-opacity:1"
         offset="1" />
    </linearGradient>
    <linearGradient
       id="linearGradient4016-2">
      <stop
         id="stop4018-6"
         style="stop-color:#3d3d3d;stop-opacity:1"
         offset="0" />
      <stop
         id="stop4042-0"
         style="stop-color:#3d3d3d;stop-opacity:1"
         offset="0.22272909" />
      <stop
         id="stop4024-4"
         style="stop-color:#ffffff;stop-opacity:1"
         offset="0.46173689" />
      <stop
         id="stop4026-9"
         style="stop-color:#ffffff;stop-opacity:1"
         offset="0.76818359" />
      <stop
         id="stop4020-4"
         style="stop-color:#434343;stop-opacity:1"
         offset="1" />
    </linearGradient>
    <linearGradient
       id="linearGradient4056-8">
      <stop
         id="stop4058-8"
         style="stop-color:#3d3d3d;stop-opacity:1"
         offset="0" />
      <stop
         id="stop4060-2"
         style="stop-color:#3d3d3d;stop-opacity:1"
         offset="0.82284153" />
      <stop
         id="stop4062-7"
         style="stop-color:#ffffff;stop-opacity:1"
         offset="0.87788105" />
      <stop
         id="stop4064-7"
         style="stop-color:#ffffff;stop-opacity:1"
         offset="0.94668067" />
      <stop
         id="stop4066-1"
         style="stop-color:#434343;stop-opacity:1"
         offset="1" />
    </linearGradient>
    <linearGradient
       x1="807.15485"
       y1="89.95752"
       x2="829.34601"
       y2="89.95752"
       id="linearGradient3879"
       xlink:href="#linearGradient3873"
       gradientUnits="userSpaceOnUse" />
    <filter
       x="-0.11775586"
       y="-0.021247929"
       width="1.2355117"
       height="1.0424958"
       color-interpolation-filters="sRGB"
       id="filter3901">
      <feGaussianBlur
         id="feGaussianBlur3903"
         stdDeviation="1.5501642" />
    </filter>
  </defs>
  <path
     d="m 30.267049,5.0110608 c -13.99547,0 -25.2670491,11.2715802 -25.2670491,25.2670492 l 0,127.58609 c 0,13.99547 11.2715791,25.26705 25.2670491,25.26705 l 315.134521,0 0,-178.1201892 z"
     id="rect2987"
     style="fill:url(#linearGradient4153);fill-opacity:1;stroke:none" />
  <path
     d="m 69.107145,43.910713 a 19.285715,6.1607141 0 1 1 -38.57143,0 19.285715,6.1607141 0 1 1 38.57143,0 z"
     transform="matrix(0.31337453,-0.25678773,0.25678773,0.31337453,-9.3069719,14.332205)"
     id="path3888"
     style="fill:url(#radialGradient4168);fill-opacity:1;stroke:none" />
  <path
     d="m 345.40826,5.0110607 465.50782,0 c 5.34034,0 16.63018,9.9829913 16.63018,15.1760783 l 0,145.934801 c 0,8.21276 -9.61477,17.00931 -18.32273,17.00931 l -463.81527,0 z"
     id="rect3871"
     style="fill:url(#linearGradient4149);fill-opacity:1;stroke:none" />
  <path
     d="m 338.6001,5.0110608 c 0,0 -1.50101,4.394195 -1.50101,11.7579342 l 0,154.182165 c 0,6.20395 1.50101,12.18009 1.50101,12.18009 l 15.54174,0 c 0,0 -1.50101,-6.07581 -1.50101,-12.18009 l 0,-154.041445 c 0,-7.5154416 1.50101,-11.8986542 1.50101,-11.8986542 z"
     id="rect3883"
     style="fill:url(#linearGradient4145);fill-opacity:1;stroke:none" />
  <path
     d="m 141.70894,18.461327 c -4.96723,0 -9.5079,2.472553 -9.5079,8.55185 l 0,107.121223 c 0,2.38412 2.57973,4.39911 4.57756,4.39911 l 12.47084,0 c 4.98671,0 9.11327,-3.4842 9.11327,-9.5674 l 0,-107.106345 c 0,-2.395827 -2.18938,-3.398438 -4.1755,-3.398438 z M 76.707436,54.311352 c -18.998805,0 -28.972185,11.676869 -28.972185,25.708422 0,12.470775 7.679487,21.056676 23.0082,24.484806 l 24.473154,5.47319 c 4.976605,1.11297 5.985645,1.51977 5.985645,4.05607 0,1.94709 -1.01107,3.2345 -5.502269,3.2345 l -37.947921,0 c -6.083205,0 -8.52953,3.79354 -8.52953,8.75295 l 0,7.9272 c 0,1.9861 0.984554,4.58502 3.368673,4.58502 l 41.62893,0 c 22.483267,0 32.560727,-12.02512 32.560727,-25.04997 0,-13.47343 -8.78765,-22.059881 -24.01631,-25.47384 L 78.283949,82.521642 c -4.974301,-1.115137 -5.978199,-1.511965 -5.978199,-4.056067 0,-1.939128 1.007175,-2.951591 5.502273,-2.951591 l 36.416007,0 c 6.0676,0 9.52277,-4.072158 9.52277,-9.043307 l 0,-7.904884 c 0,-1.990033 -1.98914,-4.254441 -4.36935,-4.254441 z M 199.0212,53.980774 c -3.74982,0 -6.42662,1.994356 -8.65678,4.399103 l -31.76827,34.110727 28.49626,41.524816 c 1.64493,2.397 3.69098,4.51809 6.18047,4.51809 l 16.97727,0 c 2.5402,0 4.41771,-2.01543 4.41771,-4.15371 0,-1.31109 -0.65931,-2.14768 -1.47983,-3.36868 l -24.62141,-36.638616 18.46391,-20.062893 36.70506,55.058549 -17.04777,34.6531 c -0.45653,1.03013 -0.98904,2.02417 -0.98904,3.01917 0,2.02514 2.48552,3.60293 4.51065,3.60293 l 15.04383,0 c 3.06696,0 4.38973,-1.65741 5.52523,-4.12347 L 300.36518,61.027233 c 0.48715,-1.036384 0.99646,-2.019877 0.99646,-3.026617 0,-2.021214 -2.13967,-4.019842 -4.17261,-4.019842 l -15.16282,0 c -3.03579,0 -4.68633,1.264363 -5.78584,3.736281 L 255.11391,105.21329 225.27166,58.207856 c -1.84175,-2.914637 -3.78492,-4.227082 -8.20977,-4.227082 z"
     id="path5649"
     style="fill:#ffffff;fill-opacity:1;fill-rule:nonzero;stroke:none" />
  <g
     transform="translate(0,-180)"
     id="g4586">
    <rect
       width="16.886395"
       height="93.062798"
       ry="0"
       x="527.56488"
       y="227.53976"
       id="rect3807"
       style="fill:#202f66;fill-opacity:1;stroke:none" />
    <path
       d="m 658.72455,312.151 58.68722,0 C 723.94091,312.151 735,309.7405 735,296.11581 l 0,-5.52918 c 0,-28.02006 -71,-8.09198 -71,-37.55069 l 0,-3.47086 c 0,-10.74301 10.05136,-13.57808 17.94286,-13.57808 l 56.38193,0"
       id="path4572"
       style="fill:none;stroke:#202f66;stroke-width:16.88599968;stroke-linecap:butt;stroke-linejoin:round;stroke-miterlimit:4;stroke-opacity:1;stroke-dasharray:none" />
    <path
       d="m 423.5625,227.53125 0,93.0625 16.875,0 0,-38.09375 57.125,0 0,38.09375 16.875,0 0,-93.0625 -16.875,0 0,38.09375 -57.125,0 0,-38.09375 -16.875,0 z"
       id="rect4574"
       style="fill:#202f66;fill-opacity:1;stroke:none" />
    <path
       d="m 555.5625,227.53125 0,16.90625 38,0 0,76.15625 16.875,0 0,-76.15625 38.1875,0 0,-16.90625 -38.1875,0 -16.875,0 -38,0 z"
       id="rect4581"
       style="fill:#202f66;fill-opacity:1;stroke:none" />
  </g>
  <rect
     width="111.3317"
     height="183.54686"
     ry="28.209047"
     x="718.01428"
     y="2.3214095"
     id="rect3103"
     style="opacity:0.4;fill:url(#linearGradient3879);fill-opacity:1;stroke:none" />
  <path
     d="M 11.170213,179.88032 C 5.4675608,171.69817 9.8600024,162.34759 16.755319,155.94415 46.109553,128.68388 182.92845,102.92142 256.38298,89.18883 329.83751,75.456239 401.14314,66.15922 474.20213,63.922872 c 78.2743,-2.39599 156.89997,-1.961922 235.10638,3.19149 22.53733,1.485098 45.10554,3.723216 67.28724,7.978723 25.36776,4.866745 28.90523,11.24018 38.56383,31.382975 5.89492,12.29372 9.29543,23.85835 10.10638,36.43617 1.37674,21.35325 -2.92553,35.37234 -2.92553,35.37234 0,0 8.53543,-7.2573 8.24468,-28.19148 L 828.98936,35.199468 c -0.13867,-9.984147 -3.61934,-24.493153 -15.69149,-25 -38.92463,-1.6342445 -85.49863,4.255319 -130.05319,4.255319 l -553.19149,0 C 28.108949,14.454787 27.922679,8.9096373 15.159574,9.1356381 7.8836149,9.2644761 3.7234043,20.30714 3.7234043,26.954787 l 0,127.659573 c 0,21.86823 7.4468087,25.26596 7.4468087,25.26596 z"
     id="path3100"
     style="opacity:0.4;fill:#ffffff;stroke:none" />
  <path
     d="m 816.93401,9.87886 c 0,0 3.00896,8.62606 3.00896,18.05379 l 0,120.3586 c 0,17.23343 -3.54981,24.11546 -22.19111,34.6031 15.6562,2.74004 24.14844,-2.74283 28.77323,-21.06275 l 0.9403,-135.02731 C 826.40361,15.85684 816.93401,9.87886 816.93401,9.87886 z"
     id="path3883"
     style="fill:#ffffff;stroke:none;filter:url(#filter3901)" />
  <path
     d="M 30.28125,0 C 13.501842,0 0,13.53309 0,30.3125 L 0,157.84375 C 0,174.62316 13.501842,188.125 30.28125,188.125 l 771.43755,0 C 818.4982,188.125 832,174.62316 832,157.84375 L 832,30.3125 C 832,13.53309 818.4982,0 801.7188,0 z m 0.09375,5.35971 771.25,0 c 13.9936,0 25.0152,11.00427 25.0152,24.98404 0,42.48958 0,84.97917 0,127.46875 0,13.97975 -11.0216,24.95279 -25.0152,24.95279 l -771.25,0 c -13.993582,0 -25.0152926,-10.97304 -25.0152926,-24.95279 0,-42.48958 0,-84.97917 0,-127.46875 0,-13.97977 11.0217106,-24.98404 25.0152926,-24.98404 z"
     id="rect4116"
     style="fill:#333333;stroke:none" />
</svg>
