<?xml version="1.0" encoding="UTF-8" standalone="no"?>
<!-- Created with Inkscape (http://www.inkscape.org/) -->

<svg
   xmlns:dc="http://purl.org/dc/elements/1.1/"
   xmlns:cc="http://creativecommons.org/ns#"
   xmlns:rdf="http://www.w3.org/1999/02/22-rdf-syntax-ns#"
   xmlns:svg="http://www.w3.org/2000/svg"
   xmlns="http://www.w3.org/2000/svg"
   xmlns:xlink="http://www.w3.org/1999/xlink"
   xmlns:sodipodi="http://sodipodi.sourceforge.net/DTD/sodipodi-0.dtd"
   xmlns:inkscape="http://www.inkscape.org/namespaces/inkscape"
   version="1.1"
   width="278.71072"
   height="40"
   viewBox="0 -23.5 278.71073 40"
   id="svg2"
   inkscape:version="0.91pre2 r13516"
   sodipodi:docname="sky cinema+24 hd.svg">
  <sodipodi:namedview
     pagecolor="#ffffff"
     bordercolor="#666666"
     borderopacity="1"
     objecttolerance="10"
     gridtolerance="10"
     guidetolerance="10"
     inkscape:pageopacity="0"
     inkscape:pageshadow="2"
     inkscape:window-width="1920"
     inkscape:window-height="1017"
     id="namedview45"
     showgrid="false"
     inkscape:zoom="3.4087522"
     inkscape:cx="147.13864"
     inkscape:cy="26.513632"
     inkscape:window-x="-8"
     inkscape:window-y="-8"
     inkscape:window-maximized="1"
     inkscape:current-layer="svg2"
     fit-margin-top="0"
     fit-margin-left="0"
     fit-margin-right="0"
     fit-margin-bottom="0" />
  <metadata
     id="metadata8">
    <rdf:RDF>
      <cc:Work
         rdf:about="">
        <dc:format>image/svg+xml</dc:format>
        <dc:type
           rdf:resource="http://purl.org/dc/dcmitype/StillImage" />
        <dc:title></dc:title>
      </cc:Work>
    </rdf:RDF>
  </metadata>
  <defs
     id="defs6">
    <linearGradient
       id="linearGradient3962">
      <stop
         id="stop3964"
         style="stop-color:#505050;stop-opacity:1"
         offset="0" />
      <stop
         id="stop3966"
         style="stop-color:#808080;stop-opacity:1"
         offset="0.11204819" />
      <stop
         id="stop3968"
         style="stop-color:#808080;stop-opacity:1"
         offset="0.94417667" />
      <stop
         id="stop3970"
         style="stop-color:#b4b4b4;stop-opacity:1"
         offset="1" />
    </linearGradient>
    <linearGradient
       id="linearGradient3946">
      <stop
         id="stop3948"
         style="stop-color:#a0a0a0;stop-opacity:1"
         offset="0" />
      <stop
         id="stop3958"
         style="stop-color:#c8c8c8;stop-opacity:1"
         offset="0.11235955" />
      <stop
         id="stop3956"
         style="stop-color:#c8c8c8;stop-opacity:1"
         offset="0.94382024" />
      <stop
         id="stop3950"
         style="stop-color:#f0f0f0;stop-opacity:1"
         offset="1" />
    </linearGradient>
    <linearGradient
       id="linearGradient3898">
      <stop
         id="stop3900"
         style="stop-color:#0d1329;stop-opacity:1"
         offset="0" />
      <stop
         id="stop3908"
         style="stop-color:#202f66;stop-opacity:1"
         offset="0.11200321" />
      <stop
         id="stop3910"
         style="stop-color:#202f66;stop-opacity:1"
         offset="0.94379765" />
      <stop
         id="stop3902"
         style="stop-color:#334ba3;stop-opacity:1"
         offset="1" />
    </linearGradient>
    <linearGradient
       id="linearGradient3890">
      <stop
         id="stop3892"
         style="stop-color:#ffffff;stop-opacity:1"
         offset="0" />
      <stop
         id="stop3894"
         style="stop-color:#ffffff;stop-opacity:0"
         offset="1" />
    </linearGradient>
    <linearGradient
       x1="695.35712"
       y1="-46.142857"
       x2="695.35712"
       y2="-401.85715"
       id="linearGradient4145"
       xlink:href="#linearGradient3962"
       gradientUnits="userSpaceOnUse"
       gradientTransform="matrix(0.13755882,0,0,0.1063841,-21.692481,20.331876)" />
    <linearGradient
       x1="1189.4546"
       y1="-46"
       x2="1189.4546"
       y2="-402"
       id="linearGradient4149"
       xlink:href="#linearGradient3946"
       gradientUnits="userSpaceOnUse"
       gradientTransform="matrix(0.1184888,0,0,0.1063841,-8.9497313,20.331876)" />
    <linearGradient
       x1="13.928571"
       y1="-46.142857"
       x2="13.928571"
       y2="-402"
       id="linearGradient4153"
       xlink:href="#linearGradient3898"
       gradientUnits="userSpaceOnUse"
       gradientTransform="matrix(0.1063841,0,0,0.1063841,-0.532644,25.331876)" />
    <radialGradient
       cx="49.82143"
       cy="43.910713"
       r="19.285715"
       fx="49.82143"
       fy="43.910713"
       id="radialGradient4168"
       xlink:href="#linearGradient3890"
       gradientUnits="userSpaceOnUse"
       gradientTransform="matrix(0.06663115,-0.05459939,0.01744147,0.02128495,-0.34726616,-13.461438)" />
  </defs>
  <rect
     width="201.68517"
     height="37.726059"
     x="73.442314"
     y="-22.434536"
     id="rect3871"
     style="fill:url(#linearGradient4149)" />
  <path
     d="m 72.088245,-22.434528 c 0,0 -0.412675,0.934312 -0.412675,2.500028 l 0,32.78292 c 0,1.31912 0.412675,2.589795 0.412675,2.589795 l 4.272922,0 c 0,0 -0.412676,-1.291866 -0.412676,-2.589795 l 0,-32.753001 c 0,-1.597973 0.412676,-2.529947 0.412676,-2.529947 z m 201.271945,0 c 0,0 0.41268,0.931974 0.41268,2.529947 l 0,32.753001 c 0,1.297929 -0.41268,2.589795 -0.41268,2.589795 l 2.84261,-0.733406 c 0,0 1.29276,-0.537269 1.29276,-1.856389 l 0,-32.78292 c 0,-1.565716 -1.29276,-1.179897 -1.29276,-1.179897 z"
     id="rect3883"
     style="fill:url(#linearGradient4145)"
     inkscape:connector-curvature="0"
     sodipodi:nodetypes="cssccssccsssccsscs" />
  <g
     id="g3056"
     transform="translate(5.6457399e-6,-4.9999996)">
    <path
       style="fill:url(#linearGradient4153)"
       id="rect2987"
       d="m 6.4355145,-17.434528 c -2.9757816,0 -5.372397,2.396609 -5.372397,5.372388 l 0,27.127954 c 0,2.975779 2.3966154,5.372401 5.372397,5.372401 l 67.0053605,0 0,-37.872743 z"
       inkscape:connector-curvature="0" />
    <path
       style="fill:url(#radialGradient4168)"
       id="path3888"
       d="m 5.0232896,-16.300016 a 0.5307094,1.6613512 50.667864 1 1 -2.5700586,2.105979 0.5307094,1.6613512 50.667864 1 1 2.5700586,-2.105979 z"
       inkscape:connector-curvature="0" />
    <path
       style="fill:#ffffff;fill-opacity:1;fill-rule:nonzero;stroke:none"
       id="path5649"
       d="m 30.130804,-14.57467 c -1.056156,0 -2.021613,0.525723 -2.021613,1.818326 l 0,22.776616 c 0,0.506919 0.548513,0.935362 0.973301,0.935362 l 2.651608,0 c 1.060297,0 1.937705,-0.740826 1.937705,-2.034267 l 0,-22.773452 c 0,-0.509408 -0.465515,-0.722585 -0.887814,-0.722585 z m -13.82092,7.622594 c -4.039613,0 -6.1602,2.482788 -6.1602,5.466243 0,2.651594 1.632848,4.477171 4.892108,5.2060694 l 5.203597,1.1637417 c 1.058148,0.2366439 1.272694,0.3231349 1.272694,0.8624229 0,0.41399 -0.214977,0.687728 -1.169917,0.687728 l -8.068661,0 c -1.29344,0 -1.813589,0.8066 -1.813589,1.861097 l 0,1.685514 c 0,0.422291 0.209341,0.974894 0.716263,0.974894 l 8.851336,0 c 4.780496,0 6.923211,-2.556839 6.923211,-5.326242 0,-2.864784 -1.86847,-4.690474 -5.106458,-5.416371 l -5.205179,-1.166893 c -1.057659,-0.237106 -1.271112,-0.321484 -1.271112,-0.862422 0,-0.412302 0.21415,-0.62758 1.169918,-0.62758 l 7.74294,0 c 1.290122,0 2.024776,-0.865836 2.024776,-1.922833 l 0,-1.680775 c 0,-0.423129 -0.42294,-0.904594 -0.929032,-0.904594 z m 26.006919,-0.07026 c -0.797305,0 -1.366458,0.424054 -1.840646,0.935362 l -6.754716,7.252775 6.059007,8.829194 c 0.349753,0.50967 0.784794,0.960667 1.31412,0.960667 l 3.609786,0 c 0.540109,0 0.939313,-0.42853 0.939313,-0.88319 0,-0.278764 -0.140185,-0.456647 -0.314647,-0.716258 l -5.235119,-7.790276 3.925883,-4.265869 7.804399,11.706805 -3.624776,7.368112 c -0.09707,0.219028 -0.210294,0.43038 -0.210294,0.641944 0,0.430593 0.528483,0.766081 0.959076,0.766081 l 3.198688,0 c 0.652111,0 0.933365,-0.352416 1.1748,-0.876751 L 63.865029,-5.524085 c 0.103582,-0.220366 0.211872,-0.42948 0.211872,-0.643532 0,-0.429768 -0.454947,-0.854722 -0.8872,-0.854722 l -3.223989,0 c -0.645483,0 -0.99643,0.268838 -1.230212,0.794423 L 54.243495,3.8709519 47.898297,-6.123559 c -0.391602,-0.619753 -0.804767,-0.898805 -1.7456,-0.898805 z"
       inkscape:connector-curvature="0" />
  </g>
  <g
     id="g3038"
     transform="translate(5.6457399e-6,-4.9999996)">
    <path
       d="m 145.30235,-8.3936916 c -2.27328,0 -4.09967,1.833037 -4.09967,4.1063132 l 0,11.5813978 c 0,2.2732763 1.82639,4.0996686 4.09967,4.0996686 l 12.95017,0 0,-3.5880406 -12.89037,0 c -0.25258,0 -0.45847,-0.2058865 -0.45847,-0.4584718 l 0,-4.053157 13.34884,0 0,-3.58804066 -13.34884,0 0,-4.05315704 c 0,-0.2525853 0.20589,-0.4518273 0.45847,-0.4518273 l 12.89037,0 0,-3.5946852 -12.95017,0 z"
       id="rect3798"
       style="fill:#202f66"
       inkscape:connector-curvature="0" />
    <path
       d="m 198.16498,-8.3918842 c -1.12485,0 -2.61363,0.7818399 -3.28128,2.4800792 l -6.80526,17.307364 3.95948,0 1.72542,-4.3883447 10.45556,0 1.72542,4.3883447 3.95949,0 -6.80194,-17.3040386 c -0.65748,-1.6723522 -2.04824,-2.4834046 -3.28461,-2.4834046 l -1.65228,0 z m 0.379,3.6503056 c 0.0225,-0.00106 0.048,0 0.0765,0 l 0.74801,0 c 0.22259,0 0.23519,0.014182 0.35905,0.3291259 l 3.09179,7.8591251 -7.65633,0 3.10176,-7.8923711 c 0.0969,-0.2466361 0.12186,-0.289346 0.27926,-0.2958799 z"
       id="rect3010"
       style="fill:#202f66"
       inkscape:connector-curvature="0" />
    <rect
       width="3.5904634"
       height="19.787443"
       ry="0"
       x="112.17328"
       y="-8.391881"
       id="rect3807"
       style="fill:#202f66" />
    <path
       d="m 98.156496,-8.3918842 c -3.7888,0 -6.838518,3.049709 -6.838518,6.8385035 l 0,6.1104364 c 0,3.7887944 3.049718,6.8385033 6.838518,6.8385033 l 10.714854,0 0,-3.6237082 -10.804624,0 c -1.730169,0 -3.125029,-1.3915432 -3.125029,-3.1217081 l 0,-6.2966084 c 0,-1.730167 1.39486,-3.1217101 3.125029,-3.1217101 l 10.804624,0 0,-3.6237084 -10.714854,0 z"
       id="rect3809"
       style="fill:#202f66"
       inkscape:connector-curvature="0" />
    <path
       d="m 120.9141,-8.3918842 c -1.09469,0 -1.89163,0.7650127 -1.89163,1.7021473 l 0,18.0852959 3.61705,0 0,-13.6238146 12.86915,13.1716816 c 0.32445,0.332164 0.56203,0.452133 1.1137,0.452133 1.0947,0 1.89165,-0.765019 1.89165,-1.702145 l 0,-18.0852982 -3.61706,0 0,13.6238147 -12.86915,-13.1716812 c -0.32446,-0.3321558 -0.56202,-0.4521335 -1.11371,-0.4521335 z"
       id="path3826"
       style="fill:#202f66"
       inkscape:connector-curvature="0" />
    <path
       d="m 164.81066,-8.3936916 c -1.41779,0.00495 -2.31894,0.8545512 -2.31894,2.35216 l 0,17.4352196 3.59469,0 0,-12.9103017 5.34884,8.2790716 c 1.19157,1.8443485 3.41972,1.8443485 4.61129,0 l 5.34884,-8.2790716 0,12.9103017 3.59469,0 0,-17.4352196 c 0,-1.4976088 -0.90115,-2.3472058 -2.31894,-2.35216 -1.06068,-0.0037 -1.65268,0.3271273 -2.1196,1.0498342 L 173.7409,3.1943508 166.93026,-7.3438574 c -0.46692,-0.7227069 -1.05891,-1.0535402 -2.1196,-1.0498342 z"
       id="rect4522"
       style="fill:#202f66"
       inkscape:connector-curvature="0" />
  </g>
  <path
     d="m 4.4946981,-21.374018 c -1.1206809,0 -3.1424878,1.533686 -3.4251975,4.032626 -5.28e-5,0.0011 5.2e-5,0.0025 0,0.0038 -0.00433,0.09077 -0.00639,0.184059 -0.00639,0.275939 l 0,27.127954 c 0,0.971293 0.2438089,1.8817 0.6729205,2.666246 C 1.6963793,12.48614 1.6798726,12.225429 1.6913924,11.95124 1.7585572,10.35258 2.9014433,9.4966584 6.8337968,7.5325524 12.361657,4.7715384 28.6488,1.8822884 33.499828,1.0155264 c 31.259765,-5.585377 40.047524,-7.779698 71.281272,-9.860473 21.73173,-1.4477574 38.10971,-2.2765364 59.85103,-2.2320164 19.63644,0.04026 55.01339,0.410677 87.44625,4.7119654 11.26843,1.668511 16.80943,3.58663 21.51109,6.72504004 3.55229,2.37119096 3.43563,7.84762396 3.61806,10.71020856 0.0276,0.433131 0.002,0.869124 -0.0541,1.296554 0.31561,-0.696642 0.49431,-1.476325 0.49431,-2.300553 l 0,-27.127954 c 0,-0.06089 -0.002,-0.122398 -0.004,-0.182847 -0.40332,-1.366204 -1.7178,-3.856418 -4.0184,-3.856418 -2.80716,0 -1.61368,1.007325 -22.99092,1.007325 l -223.930906,0 c -18.4590428,-0.008 -19.0304889,-1.280376 -22.2088983,-1.280376 z"
     id="rect3007"
     style="opacity:0.4;fill:#ffffff"
     inkscape:connector-curvature="0" />
  <path
     d="M 6.1784113,-23.500001 C 2.7548379,-23.500001 0,-20.62254 0,-17.054826 L 0,10.061463 C 0,13.629178 2.7548379,16.5 6.1784113,16.5 l 266.3539387,0 c 3.42358,0 6.17839,-2.870822 6.17839,-6.438537 l 0,-27.116289 c 0,-3.567714 -2.75481,-6.445175 -6.17839,-6.445175 z m 0.019129,1.1396 266.3156597,0 c 2.85518,0 5.10395,2.339785 5.10395,5.312226 0,9.0343334 0,18.0686654 0,27.103 0,2.972428 -2.24877,5.305575 -5.10395,5.305575 l -266.3156597,0 c -2.8551697,0 -5.1039758,-2.333147 -5.1039758,-5.305575 0,-9.0343346 0,-18.0686666 0,-27.103 0,-2.972441 2.2488061,-5.312226 5.1039758,-5.312226 z"
     id="rect4116"
     style="fill:#333333"
     inkscape:connector-curvature="0" />
  <path
     style="fill:#202f66"
     id="path3024"
     d="m 216.25155,-1.5938447 c 0,-0.5659081 0.11608,-0.9576946 0.34826,-1.1753605 0.23942,-0.2249076 0.52963,-0.3373648 0.87063,-0.337372 l 2.94929,0 0,-3.1016456 c -10e-6,-0.3409891 0.10157,-0.6275736 0.30472,-0.8597544 0.2104,-0.2321587 0.59856,-0.3482435 1.16448,-0.3482549 0.25393,1.14e-5 0.49335,0.014522 0.71827,0.043532 0.23217,0.021777 0.43169,0.047171 0.59857,0.076181 l 0,4.1899423 4.07023,0 c 0.029,0.1451132 0.058,0.3192405 0.0871,0.5223825 0.0363,0.1958998 0.0544,0.4280695 0.0544,0.6965099 -2e-5,0.5659196 -0.11973,0.96133374 -0.35914,1.18624344 -0.23944,0.2249191 -0.52965,0.3373763 -0.87064,0.337372 l -2.98193,0 0,3.25400716 c -1e-5,0.3410004 -0.10521,0.6275849 -0.31561,0.8597544 -0.21041,0.2249146 -0.59857,0.3373719 -1.16448,0.3373719 -0.25394,0 -0.49699,-0.010883 -0.72916,-0.032649 -0.22492,-0.021766 -0.41718,-0.047159 -0.57679,-0.076181 l 0,-4.34230386 -4.03758,0 c -0.029,-0.1451017 -0.058,-0.319229 -0.0871,-0.5223825 -0.029,-0.20314364 -0.0435,-0.43894104 -0.0435,-0.70739284"
     inkscape:connector-curvature="0" />
  <path
     style="fill:#202f66"
     id="path22260"
     d="m 230.86501,6.3960004 0,-6.30799336 c 0,-2.36882464 1.80994,-4.45818104 4.2986,-5.04373324 l 5.84236,-1.3707243 c 0.42587,-0.106464 1.43731,-0.3992401 1.43731,-1.2509522 l 0,-0.6920162 c 0,-0.8384042 -0.69204,-1.5171123 -1.53046,-1.5171123 l -10.04781,0 0,-3.6064698 10.04781,0 c 2.8746,0 5.16364,2.315593 5.16364,5.1501981 l 0,0.6654002 c 0,2.3155925 -1.86317,4.1520969 -4.27199,4.804189 l -5.92221,1.6368844 c -0.49241,0.14638804 -1.41069,0.42585614 -1.41069,1.22433634 l 0,2.70152456 11.6315,0 0,3.6064688 -15.23806,0"
     inkscape:connector-curvature="0" />
  <path
     style="fill:#202f66"
     id="path3015"
     d="m 259.73776,6.3959884 c -0.37999,-1e-6 -0.7481,-0.02005 -1.10432,-0.06015 -0.35625,-0.02005 -0.62936,-0.05013 -0.81933,-0.09023 l 0,-4.3909408 -10.75823,0 c -0.0475,-0.1603955 -0.095,-0.3608948 -0.14249,-0.6014988 -0.0475,-0.2405946 -0.0713,-0.52129376 -0.0713,-0.84209836 0,-0.3608932 0.0713,-0.711767 0.21374,-1.0526231 0.14249,-0.3408426 0.37998,-0.71176624 0.71246,-1.11277334 l 9.68953,-11.578853 4.20355,0 0,12.270577 3.56232,0 c 0.11873,0.36090594 0.1781,0.82205474 0.17812,1.38344724 -2e-5,0.5814541 -0.15439,0.98245356 -0.4631,1.20299746 -0.28501,0.2205542 -0.62936,0.3308292 -1.03307,0.3308249 l -2.24427,0 0,3.1879438 c -2e-5,0.38095 -0.14251,0.701749 -0.42748,0.962398 -0.26125,0.260649 -0.75998,0.390974 -1.49618,0.390975 m -8.62083,-7.4285113 6.69718,0 0,-7.9999347 -6.69718,7.9999347"
     inkscape:connector-curvature="0" />
</svg>
