<?xml version="1.0" encoding="UTF-8" standalone="no"?>
<!-- Created with Inkscape (http://www.inkscape.org/) -->

<svg
   xmlns:dc="http://purl.org/dc/elements/1.1/"
   xmlns:cc="http://creativecommons.org/ns#"
   xmlns:rdf="http://www.w3.org/1999/02/22-rdf-syntax-ns#"
   xmlns:svg="http://www.w3.org/2000/svg"
   xmlns="http://www.w3.org/2000/svg"
   xmlns:sodipodi="http://sodipodi.sourceforge.net/DTD/sodipodi-0.dtd"
   xmlns:inkscape="http://www.inkscape.org/namespaces/inkscape"
   width="392.84958"
   height="75"
   id="svg10068"
   version="1.1"
   inkscape:version="0.91pre2 r13516"
   sodipodi:docname="sky comedy.svg">
  <defs
     id="defs10070" />
  <sodipodi:namedview
     id="base"
     pagecolor="#ffffff"
     bordercolor="#666666"
     borderopacity="1.0"
     inkscape:pageopacity="0.0"
     inkscape:pageshadow="2"
     inkscape:zoom="0.98994949"
     inkscape:cx="-211.82648"
     inkscape:cy="164.17563"
     inkscape:document-units="px"
     inkscape:current-layer="layer1"
     showgrid="false"
     fit-margin-top="0"
     fit-margin-left="0"
     fit-margin-right="0"
     fit-margin-bottom="0"
     inkscape:window-width="1920"
     inkscape:window-height="1017"
     inkscape:window-x="-8"
     inkscape:window-y="-8"
     inkscape:window-maximized="1" />
  <metadata
     id="metadata10073">
    <rdf:RDF>
      <cc:Work
         rdf:about="">
        <dc:format>image/svg+xml</dc:format>
        <dc:type
           rdf:resource="http://purl.org/dc/dcmitype/StillImage" />
        <dc:title />
      </cc:Work>
    </rdf:RDF>
  </metadata>
  <g
     inkscape:label="Ebene 1"
     inkscape:groupmode="layer"
     id="layer1"
     transform="translate(-292.41384,-621.53781)">
    <path
       inkscape:connector-curvature="0"
       d="m 386.72233,694.04567 c -0.30265,0.60619 -0.76336,1.52672 -2.29008,1.52672 l -7.00494,0 c -0.68523,0 -1.51549,-0.61698 -1.51549,-1.52672 0,-0.68433 0.14638,-1.06646 0.37,-1.52672 l 7.92546,-16.07544 -17.44499,-26.044 -8.98069,9.59811 11.49528,17.1419 c 0.68433,0.90929 0.8415,1.36955 0.8415,1.81859 0,0.76336 -0.8415,1.44813 -1.82982,1.44813 l -7.92546,0 c -1.14504,0 -1.82982,-0.76336 -2.58195,-1.82981 l -13.33633,-19.26359 14.77324,-15.9295 c 1.06646,-1.21239 2.06556,-1.81859 3.89538,-1.81859 l 8.52043,0 c 1.82981,0 2.82891,0.68433 3.73821,2.13292 l 13.94252,22.15985 9.90122,-22.47418 c 0.46071,-1.13381 1.14503,-1.81859 2.59317,-1.81859 l 7.08352,0 c 0.83071,0 1.59407,0.68433 1.59407,1.51549 0,0.45982 -0.14548,0.99911 -0.44903,1.52672 l -23.31612,49.43871 z m -42.96139,-17.60216 c 0,2.5146 -1.90839,3.96273 -3.96273,3.96273 l -6.01706,0 c -0.68433,0 -1.52672,-0.68522 -1.52672,-1.82981 l 0,-49.88774 c 0,-3.04221 1.52672,-4.04132 4.19848,-4.04132 l 5.39964,0 c 1.14503,0 1.90839,0.76336 1.90839,1.82982 l 0,49.96632 z m -25.51639,-19.03906 c 7.22946,1.67265 10.66458,5.41086 10.66458,11.57386 0,6.33139 -4.34441,11.42793 -14.70589,11.42793 l -19.65649,0 c -0.98787,0 -1.43691,-0.68522 -1.43691,-1.82981 l 0,-3.72699 c 0,-2.13291 1.13382,-3.88415 3.95151,-3.88415 l 17.74809,0 c 1.98698,0 2.75034,-0.90929 2.75034,-1.6053 0,-1.06645 -0.76336,-1.75123 -3.13202,-2.27885 l -11.27077,-2.43601 c -7.00494,-1.52672 -10.74315,-5.33229 -10.74315,-11.20341 0,-6.70184 4.64751,-11.87697 13.56084,-11.87697 l 19.73507,0 c 1.06646,0 1.82982,0.68433 1.82982,1.81859 l 0,3.73821 c 0,2.13292 -1.14504,3.96274 -4.04131,3.96274 l -17.06332,0 c -2.27885,0 -2.97485,0.76335 -2.97485,1.44813 0,1.14504 0.696,1.59407 3.27795,2.2115 l 11.50651,2.66053"
       style="fill:#969696;fill-opacity:1;fill-rule:nonzero;stroke:none"
       id="path8035" />
    <path
       inkscape:connector-curvature="0"
       d="m 450.78833,646.90826 c 0.43826,0.51639 0.6062,0.9542 0.6062,1.47059 0,1.20117 -1.12258,2.24517 -2.33498,2.24517 -0.68523,0 -1.29097,-0.25774 -1.89717,-0.95419 -2.41356,-2.67176 -4.91693,-4.14235 -8.96947,-4.14235 -7.59991,0 -12.43825,6.55591 -12.43825,15.44679 0,8.89089 4.83834,15.45802 12.43825,15.45802 4.05254,0 6.55591,-1.47059 8.96947,-4.15357 0.6062,-0.59452 1.12259,-0.94298 1.89717,-0.94298 1.2124,0 2.33498,1.03278 2.33498,2.24518 0,0.60619 -0.16794,0.94297 -0.6062,1.47059 -3.44634,4.05253 -7.76829,5.69151 -12.94342,5.69151 -10.36147,0 -17.09699,-8.54288 -17.09699,-19.76875 0,-11.21464 6.73552,-19.75752 17.09699,-19.75752 5.17513,0 9.49708,1.63898 12.94342,5.69151"
       style="fill:#969696;fill-opacity:1;fill-rule:nonzero;stroke:none"
       id="path8039" />
    <path
       inkscape:connector-curvature="0"
       d="m 488.40621,660.9855 c 0,-8.28469 -4.74854,-15.44679 -12.33723,-15.44679 -7.59991,0 -12.34845,7.1621 -12.34845,15.44679 0,8.28469 4.74854,15.44679 12.34845,15.44679 7.58869,0 12.33723,-7.1621 12.33723,-15.44679 z m -29.69241,0 c 0,-10.27167 6.47732,-19.76875 17.35518,-19.76875 10.86664,0 17.34396,9.49708 17.34396,19.76875 0,10.27166 -6.47732,19.75752 -17.34396,19.75752 -10.87786,0 -17.35518,-9.48586 -17.35518,-19.75752"
       style="fill:#969696;fill-opacity:1;fill-rule:nonzero;stroke:none"
       id="path8043" />
    <path
       inkscape:connector-curvature="0"
       d="m 502.04563,644.06812 c 0,-1.38078 1.03278,-2.50337 2.50337,-2.50337 1.47059,0 2.50337,1.12259 2.50337,2.50337 l 0,4.91693 c 2.50336,-5.26493 6.99371,-7.7683 12.77503,-7.7683 6.29771,0 10.78806,3.28918 12.94342,8.7225 2.85137,-5.61294 7.59991,-8.7225 14.24562,-8.7225 9.14908,0 14.41401,6.73552 14.41401,16.91738 l 0,19.76875 c 0,1.38078 -1.12258,2.50336 -2.50336,2.50336 -1.38078,0 -2.50337,-1.12258 -2.50337,-2.50336 l 0,-19.67895 c 0,-7.94791 -3.36776,-12.42703 -10.52986,-12.42703 -7.08352,0 -11.65245,5.87113 -11.65245,13.80782 l 0,18.29816 c 0,1.38078 -1.12259,2.50336 -2.50337,2.50336 -1.38078,0 -2.50336,-1.12258 -2.50336,-2.50336 l 0,-19.67895 c 0,-7.94791 -3.36776,-12.42703 -10.52987,-12.42703 -7.08352,0 -11.65244,5.87113 -11.65244,13.80782 l 0,18.29816 c 0,1.38078 -1.12259,2.50336 -2.50337,2.50336 -1.38078,0 -2.50337,-1.12258 -2.50337,-2.50336 l 0,-33.83476"
       style="fill:#969696;fill-opacity:1;fill-rule:nonzero;stroke:none"
       id="path8047" />
    <path
       inkscape:connector-curvature="0"
       d="m 586.87949,645.43768 c -7.25191,0 -11.56264,6.47732 -12.16884,13.20161 l 23.47328,0 c -0.60619,-6.72429 -4.40053,-13.20161 -11.30444,-13.20161 z m 15.8846,15.3682 c 0,1.12259 -0.69601,2.06556 -2.15537,2.06556 l -25.89807,0 c 0.42658,7.25191 3.88415,13.63943 12.68523,13.63943 4.65873,0 7.59991,-2.24517 10.10328,-5.52313 0.42658,-0.60619 1.03278,-1.12258 1.89717,-1.12258 1.54917,0 2.24517,1.12258 2.24517,2.15536 0,0.6062 -0.34755,1.12259 -0.696,1.63898 -2.76157,3.79434 -6.99372,7.08352 -13.54962,7.08352 -12.25865,0 -17.77054,-9.49708 -17.77054,-19.76875 0,-10.95644 6.89268,-19.76875 17.17557,-19.76875 9.65424,0 15.96318,8.3745 15.96318,19.60036"
       style="fill:#969696;fill-opacity:1;fill-rule:nonzero;stroke:none"
       id="path8051" />
    <path
       inkscape:connector-curvature="0"
       d="m 614.9217,660.9855 c 0,8.45307 3.97395,15.44679 11.82083,15.44679 7.34172,0 12.69646,-6.90391 12.69646,-15.44679 0,-8.54289 -5.35474,-15.44679 -12.69646,-15.44679 -7.84688,0 -11.82083,6.99371 -11.82083,15.44679 z m 29.52402,16.91738 c 0,1.38078 -1.13381,2.50336 -2.51459,2.50336 -1.36956,0 -2.49214,-1.12258 -2.49214,-2.50336 l 0,-5.00674 c -2.68299,4.74854 -7.25191,7.84688 -13.30265,7.84688 -9.65425,0 -16.22138,-8.45308 -16.22138,-19.75752 0,-11.30445 6.56713,-19.76875 16.22138,-19.76875 6.05074,0 10.61966,3.10956 13.30265,7.85811 l 0,-25.03368 c 0,-1.38078 1.12258,-2.50337 2.49214,-2.50337 1.38078,0 2.51459,1.12259 2.51459,2.50337 l 0,53.8617"
       style="fill:#969696;fill-opacity:1;fill-rule:nonzero;stroke:none"
       id="path8055" />
    <path
       inkscape:connector-curvature="0"
       d="m 684.91496,644.92129 -19.67894,49.79793 c -0.51639,1.3022 -1.20117,1.81859 -2.32375,1.81859 -1.3022,0 -2.33498,-0.86484 -2.33498,-2.15537 0,-0.26942 0.0808,-0.60619 0.16884,-0.86484 l 5.08531,-13.30265 -13.718,-35.03592 c -0.16884,-0.42658 -0.33678,-0.86484 -0.33678,-1.38078 0,-1.29097 0.86394,-2.24517 2.41356,-2.24517 1.20117,0 1.80736,0.60619 2.24517,1.81859 l 11.98923,31.32016 12.25864,-31.49978 c 0.43826,-1.03278 1.04401,-1.63897 2.24517,-1.63897 1.38078,0 2.33498,0.77503 2.33498,2.15536 0,0.34845 -0.17961,0.78581 -0.34845,1.2124"
       style="fill:#969696;fill-opacity:1;fill-rule:nonzero;stroke:none"
       id="path8059" />
  </g>
</svg>
