<?xml version="1.0" encoding="UTF-8" standalone="no"?>
<!-- Created with Inkscape (http://www.inkscape.org/) -->

<svg
   xmlns:dc="http://purl.org/dc/elements/1.1/"
   xmlns:cc="http://creativecommons.org/ns#"
   xmlns:rdf="http://www.w3.org/1999/02/22-rdf-syntax-ns#"
   xmlns:svg="http://www.w3.org/2000/svg"
   xmlns="http://www.w3.org/2000/svg"
   xmlns:sodipodi="http://sodipodi.sourceforge.net/DTD/sodipodi-0.dtd"
   xmlns:inkscape="http://www.inkscape.org/namespaces/inkscape"
   width="421.95203"
   height="75"
   id="svg10113"
   version="1.1"
   inkscape:version="0.91pre2 r13516"
   sodipodi:docname="sky emotion.svg">
  <defs
     id="defs10115" />
  <sodipodi:namedview
     id="base"
     pagecolor="#ffffff"
     bordercolor="#666666"
     borderopacity="1.0"
     inkscape:pageopacity="0.0"
     inkscape:pageshadow="2"
     inkscape:zoom="0.7"
     inkscape:cx="-566.81023"
     inkscape:cy="27.040267"
     inkscape:document-units="px"
     inkscape:current-layer="layer1"
     showgrid="false"
     fit-margin-top="0"
     fit-margin-left="0"
     fit-margin-right="0"
     fit-margin-bottom="0"
     inkscape:window-width="1920"
     inkscape:window-height="1017"
     inkscape:window-x="-8"
     inkscape:window-y="-8"
     inkscape:window-maximized="1" />
  <metadata
     id="metadata10118">
    <rdf:RDF>
      <cc:Work
         rdf:about="">
        <dc:format>image/svg+xml</dc:format>
        <dc:type
           rdf:resource="http://purl.org/dc/dcmitype/StillImage" />
        <dc:title />
      </cc:Work>
    </rdf:RDF>
  </metadata>
  <g
     inkscape:label="Ebene 1"
     inkscape:groupmode="layer"
     id="layer1"
     transform="translate(-305.03705,-484.40245)">
    <path
       inkscape:connector-curvature="0"
       d="m 404.76811,557.78882 c -0.32452,0.64994 -0.80681,1.61363 -2.42044,1.61363 l -7.40699,0 c -0.72882,0 -1.61363,-0.64993 -1.61363,-1.61363 0,-0.71716 0.15688,-1.13178 0.40341,-1.61362 l 8.38189,-16.99911 -18.45585,-27.5437 -9.50246,10.1524 12.16943,18.11968 c 0.71717,0.96369 0.8848,1.45674 0.8848,1.93859 0,0.80681 -0.8848,1.52398 -1.93859,1.52398 l -8.37068,0 c -1.21022,0 -1.9386,-0.79606 -2.74541,-1.92739 l -14.09682,-20.38323 15.63201,-16.84223 c 1.12057,-1.28866 2.17391,-1.92738 4.1013,-1.92738 l 9.03182,0 c 1.92739,0 2.98073,0.72792 3.94442,2.25235 l 14.74675,23.4424 10.46616,-23.76737 c 0.4814,-1.19901 1.21022,-1.92738 2.7454,-1.92738 l 7.48544,0 c 0.8857,0 1.69206,0.72792 1.69206,1.61362 0,0.4823 -0.15688,1.04214 -0.4814,1.60242 l -24.65262,52.28597 z m -45.43926,-18.61273 c 0,2.66697 -2.00583,4.19095 -4.19095,4.19095 l -6.35365,0 c -0.72882,0 -1.61363,-0.71717 -1.61363,-1.92739 l 0,-52.76781 c 0,-3.22726 1.61363,-4.26939 4.42627,-4.26939 l 5.72613,0 c 1.19901,0 2.00583,0.80681 2.00583,1.92739 l 0,52.84625 z m -26.98342,-20.13671 c 7.65352,1.77051 11.27297,5.72614 11.27297,12.24788 0,6.68982 -4.58314,12.07978 -15.54235,12.07978 l -20.78665,0 c -1.04213,0 -1.52398,-0.71717 -1.52398,-1.92739 l 0,-3.94442 c 0,-2.26356 1.19902,-4.1125 4.17974,-4.1125 l 18.76961,0 c 2.09548,0 2.90229,-0.9749 2.90229,-1.69207 0,-1.13178 -0.80681,-1.86015 -3.30569,-2.42044 l -11.92291,-2.57732 c -7.40699,-1.61362 -11.35141,-5.63648 -11.35141,-11.84446 0,-7.09323 4.90811,-12.56163 14.33214,-12.56163 l 20.86508,0 c 1.13178,0 1.93859,0.72792 1.93859,1.92738 l 0,3.95563 c 0,2.25235 -1.21022,4.19094 -4.26938,4.19094 l -18.04124,0 c -2.42044,0 -3.14881,0.79606 -3.14881,1.52398 0,1.21022 0.72882,1.69207 3.46257,2.3308 l 12.16943,2.82384"
       style="fill:#969696;fill-opacity:1;fill-rule:nonzero;stroke:none"
       id="path8063" />
    <path
       inkscape:connector-curvature="0"
       d="m 457.4687,506.39931 c -7.66473,0 -12.23667,6.84671 -12.8754,13.96235 l 24.83192,0 c -0.63918,-7.11564 -4.65038,-13.96235 -11.95652,-13.96235 z m 16.7974,16.24832 c 0,1.18781 -0.72883,2.18512 -2.28598,2.18512 l -27.38682,0 c 0.45899,7.67593 4.11251,14.43299 13.42448,14.43299 4.93052,0 8.03451,-2.37562 10.67906,-5.84939 0.45989,-0.63828 1.09817,-1.18781 2.00583,-1.18781 1.64724,0 2.37562,1.18781 2.37562,2.28597 0,0.63828 -0.37024,1.18781 -0.72882,1.73689 -2.9247,4.01165 -7.39579,7.48543 -14.33214,7.48543 -12.96504,0 -18.80323,-10.05155 -18.80323,-20.90991 0,-11.58673 7.29494,-20.8987 18.1645,-20.8987 10.21963,0 16.88705,8.85254 16.88705,20.71941"
       style="fill:#969696;fill-opacity:1;fill-rule:nonzero;stroke:none"
       id="path8067" />
    <path
       inkscape:connector-curvature="0"
       d="m 484.57537,504.93136 c 0,-1.45675 1.09817,-2.64455 2.64456,-2.64455 1.5576,0 2.65576,1.1878 2.65576,2.64455 l 0,5.19946 c 2.64455,-5.56925 7.38458,-8.2138 13.50291,-8.2138 6.66741,0 11.41865,3.47378 13.69341,9.22232 3.01435,-5.93904 8.03452,-9.22232 15.06051,-9.22232 9.67055,0 15.23981,7.12685 15.23981,17.89556 l 0,20.8987 c 0,1.46795 -1.17661,2.64455 -2.64456,2.64455 -1.45674,0 -2.64455,-1.1766 -2.64455,-2.64455 l 0,-20.80905 c 0,-8.40431 -3.56343,-13.14433 -11.13851,-13.14433 -7.48543,0 -12.32631,6.20797 -12.32631,14.60107 l 0,19.35231 c 0,1.46795 -1.1766,2.64455 -2.64455,2.64455 -1.45675,0 -2.64455,-1.1766 -2.64455,-2.64455 l 0,-20.80905 c 0,-8.40431 -3.56343,-13.14433 -11.13851,-13.14433 -7.48543,0 -12.3151,6.20797 -12.3151,14.60107 l 0,19.35231 c 0,1.46795 -1.18781,2.64455 -2.65576,2.64455 -1.45675,0 -2.64456,-1.1766 -2.64456,-2.64455 l 0,-35.77992"
       style="fill:#969696;fill-opacity:1;fill-rule:nonzero;stroke:none"
       id="path8071" />
    <path
       inkscape:connector-curvature="0"
       d="m 587.43284,522.82692 c 0,-8.76288 -5.02017,-16.33796 -13.05469,-16.33796 -8.02331,0 -13.04348,7.57508 -13.04348,16.33796 0,8.76289 5.02017,16.33797 13.04348,16.33797 8.03452,0 13.05469,-7.57508 13.05469,-16.33797 z m -31.39848,0 c 0,-10.86956 6.84671,-20.9099 18.34379,-20.9099 11.50829,0 18.355,10.04034 18.355,20.9099 0,10.85836 -6.84671,20.8987 -18.355,20.8987 -11.49708,0 -18.34379,-10.04034 -18.34379,-20.8987"
       style="fill:#969696;fill-opacity:1;fill-rule:nonzero;stroke:none"
       id="path8075" />
    <path
       inkscape:connector-curvature="0"
       d="m 610.71836,532.95691 c 0,3.01434 1.00852,5.10982 4.2918,5.10982 l 2.18512,0 c 1.36709,0 2.28597,0.99731 2.28597,2.28597 0,1.3671 -1.09817,2.27476 -2.28597,2.27476 l -2.37562,0 c -7.48543,0 -9.40161,-4.1013 -9.40161,-9.84984 l 0,-25.381 -5.4684,0 c -1.18781,0 -2.19633,-1.00851 -2.19633,-2.19632 0,-1.1766 1.00852,-2.18512 2.19633,-2.18512 l 5.4684,0 0,-12.32631 c 0,-1.45675 1.1878,-2.64456 2.65575,-2.64456 1.45675,0 2.64456,1.18781 2.64456,2.64456 l 0,12.32631 7.48543,0 c 1.18781,0 2.18512,1.00852 2.18512,2.18512 0,1.18781 -0.99731,2.19632 -2.18512,2.19632 l -7.48543,0 0,25.56029"
       style="fill:#969696;fill-opacity:1;fill-rule:nonzero;stroke:none"
       id="path8079" />
    <path
       inkscape:connector-curvature="0"
       d="m 631.7067,543.36704 c -1.46795,0 -2.65575,-1.18781 -2.65575,-2.64455 l 0,-35.77992 c 0,-1.46796 1.1878,-2.64456 2.65575,-2.64456 1.45675,0 2.64456,1.1766 2.64456,2.64456 l 0,35.77992 c 0,1.45674 -1.18781,2.64455 -2.64456,2.64455 z m 0,-55.95025 c 2.00583,0 3.56343,1.5464 3.56343,3.55222 0,2.00583 -1.5576,3.56343 -3.56343,3.56343 -2.01703,0 -3.56342,-1.5576 -3.56342,-3.56343 0,-2.00582 1.54639,-3.55222 3.56342,-3.55222"
       style="fill:#969696;fill-opacity:1;fill-rule:nonzero;stroke:none"
       id="path8083" />
    <path
       inkscape:connector-curvature="0"
       d="m 676.70895,522.82692 c 0,-8.76288 -5.02017,-16.33796 -13.05469,-16.33796 -8.03451,0 -13.05468,7.57508 -13.05468,16.33796 0,8.76289 5.02017,16.33797 13.05468,16.33797 8.03452,0 13.05469,-7.57508 13.05469,-16.33797 z m -31.39848,0 c 0,-10.86956 6.8355,-20.9099 18.34379,-20.9099 11.49709,0 18.34379,10.04034 18.34379,20.9099 0,10.85836 -6.8467,20.8987 -18.34379,20.8987 -11.50829,0 -18.34379,-10.04034 -18.34379,-20.8987"
       style="fill:#969696;fill-opacity:1;fill-rule:nonzero;stroke:none"
       id="path8087" />
    <path
       inkscape:connector-curvature="0"
       d="m 692.94606,504.93136 c 0,-1.45675 1.09816,-2.64455 2.64455,-2.64455 1.5576,0 2.65576,1.1878 2.65576,2.64455 l 0,5.19946 c 2.64456,-5.56925 7.38458,-8.2138 13.50292,-8.2138 9.67055,0 15.2398,7.12685 15.2398,17.89556 l 0,20.8987 c 0,1.46795 -1.18781,2.64455 -2.64455,2.64455 -1.45675,0 -2.64456,-1.1766 -2.64456,-2.64455 l 0,-20.80905 c 0,-8.40431 -3.56342,-13.14433 -11.1385,-13.14433 -7.48543,0 -12.31511,6.20797 -12.31511,14.60107 l 0,19.35231 c 0,1.46795 -1.1878,2.64455 -2.65576,2.64455 -1.45674,0 -2.64455,-1.1766 -2.64455,-2.64455 l 0,-35.77992"
       style="fill:#969696;fill-opacity:1;fill-rule:nonzero;stroke:none"
       id="path8091" />
  </g>
</svg>
