<?xml version="1.0" encoding="UTF-8" standalone="no"?>
<!-- Created with Inkscape (http://www.inkscape.org/) -->

<svg
   xmlns:dc="http://purl.org/dc/elements/1.1/"
   xmlns:cc="http://creativecommons.org/ns#"
   xmlns:rdf="http://www.w3.org/1999/02/22-rdf-syntax-ns#"
   xmlns:svg="http://www.w3.org/2000/svg"
   xmlns="http://www.w3.org/2000/svg"
   xmlns:xlink="http://www.w3.org/1999/xlink"
   xmlns:sodipodi="http://sodipodi.sourceforge.net/DTD/sodipodi-0.dtd"
   xmlns:inkscape="http://www.inkscape.org/namespaces/inkscape"
   version="1.1"
   width="1062.5098"
   height="188.125"
   id="svg2"
   inkscape:version="0.91pre2 r13516"
   sodipodi:docname="sky action hd.svg">
  <sodipodi:namedview
     pagecolor="#ffffff"
     bordercolor="#666666"
     borderopacity="1"
     objecttolerance="10"
     gridtolerance="10"
     guidetolerance="10"
     inkscape:pageopacity="0"
     inkscape:pageshadow="2"
     inkscape:window-width="1920"
     inkscape:window-height="1017"
     id="namedview61"
     showgrid="false"
     fit-margin-top="0"
     fit-margin-left="0"
     fit-margin-right="0"
     fit-margin-bottom="0"
     inkscape:zoom="0.73547511"
     inkscape:cx="756.22318"
     inkscape:cy="94.0625"
     inkscape:window-x="-8"
     inkscape:window-y="-8"
     inkscape:window-maximized="1"
     inkscape:current-layer="svg2" />
  <metadata
     id="metadata8">
    <rdf:RDF>
      <cc:Work
         rdf:about="">
        <dc:format>image/svg+xml</dc:format>
        <dc:type
           rdf:resource="http://purl.org/dc/dcmitype/StillImage" />
        <dc:title></dc:title>
      </cc:Work>
    </rdf:RDF>
  </metadata>
  <defs
     id="defs6">
    <linearGradient
       id="linearGradient4056">
      <stop
         id="stop4058"
         style="stop-color:#3d3d3d;stop-opacity:1"
         offset="0" />
      <stop
         id="stop4060"
         style="stop-color:#3d3d3d;stop-opacity:1"
         offset="0.82284153" />
      <stop
         id="stop4062"
         style="stop-color:#ffffff;stop-opacity:1"
         offset="0.87788105" />
      <stop
         id="stop4064"
         style="stop-color:#ffffff;stop-opacity:1"
         offset="0.94668067" />
      <stop
         id="stop4066"
         style="stop-color:#434343;stop-opacity:1"
         offset="1" />
    </linearGradient>
    <linearGradient
       id="linearGradient4016">
      <stop
         id="stop4018"
         style="stop-color:#3d3d3d;stop-opacity:1"
         offset="0" />
      <stop
         id="stop4042"
         style="stop-color:#3d3d3d;stop-opacity:1"
         offset="0.22272909" />
      <stop
         id="stop4024"
         style="stop-color:#ffffff;stop-opacity:1"
         offset="0.46173689" />
      <stop
         id="stop4026"
         style="stop-color:#ffffff;stop-opacity:1"
         offset="0.76818359" />
      <stop
         id="stop4020"
         style="stop-color:#434343;stop-opacity:1"
         offset="1" />
    </linearGradient>
    <linearGradient
       id="linearGradient3962">
      <stop
         id="stop3964"
         style="stop-color:#505050;stop-opacity:1"
         offset="0" />
      <stop
         id="stop3966"
         style="stop-color:#808080;stop-opacity:1"
         offset="0.11204819" />
      <stop
         id="stop3968"
         style="stop-color:#808080;stop-opacity:1"
         offset="0.94417667" />
      <stop
         id="stop3970"
         style="stop-color:#b4b4b4;stop-opacity:1"
         offset="1" />
    </linearGradient>
    <linearGradient
       id="linearGradient3946">
      <stop
         id="stop3948"
         style="stop-color:#a0a0a0;stop-opacity:1"
         offset="0" />
      <stop
         id="stop3958"
         style="stop-color:#c8c8c8;stop-opacity:1"
         offset="0.11235955" />
      <stop
         id="stop3956"
         style="stop-color:#c8c8c8;stop-opacity:1"
         offset="0.94382024" />
      <stop
         id="stop3950"
         style="stop-color:#f0f0f0;stop-opacity:1"
         offset="1" />
    </linearGradient>
    <linearGradient
       id="linearGradient3912">
      <stop
         id="stop3914"
         style="stop-color:#505050;stop-opacity:1"
         offset="0" />
      <stop
         id="stop3924"
         style="stop-color:#808080;stop-opacity:1"
         offset="0.11204819" />
      <stop
         id="stop3922"
         style="stop-color:#808080;stop-opacity:1"
         offset="0.88795179" />
      <stop
         id="stop3916"
         style="stop-color:#b4b4b4;stop-opacity:1"
         offset="1" />
    </linearGradient>
    <linearGradient
       id="linearGradient3898">
      <stop
         id="stop3900"
         style="stop-color:#0d1329;stop-opacity:1"
         offset="0" />
      <stop
         id="stop3908"
         style="stop-color:#202f66;stop-opacity:1"
         offset="0.11200321" />
      <stop
         id="stop3910"
         style="stop-color:#202f66;stop-opacity:1"
         offset="0.94379765" />
      <stop
         id="stop3902"
         style="stop-color:#334ba3;stop-opacity:1"
         offset="1" />
    </linearGradient>
    <linearGradient
       id="linearGradient3890">
      <stop
         id="stop3892"
         style="stop-color:#ffffff;stop-opacity:1"
         offset="0" />
      <stop
         id="stop3894"
         style="stop-color:#ffffff;stop-opacity:0"
         offset="1" />
    </linearGradient>
    <linearGradient
       x1="695.35712"
       y1="-46.142857"
       x2="695.35712"
       y2="-401.85715"
       id="linearGradient4145"
       xlink:href="#linearGradient3962"
       gradientUnits="userSpaceOnUse"
       gradientTransform="matrix(0.4961361,0,0,0.50033761,0.34671306,206.14678)" />
    <linearGradient
       x1="1189.4546"
       y1="-46"
       x2="1189.4546"
       y2="-402"
       id="linearGradient4149"
       xlink:href="#linearGradient3946"
       gradientUnits="userSpaceOnUse"
       gradientTransform="matrix(0.41067261,0,0,0.50033761,59.844133,206.14678)" />
    <linearGradient
       x1="13.928571"
       y1="-46.142857"
       x2="13.928571"
       y2="-402"
       id="linearGradient4153"
       xlink:href="#linearGradient3898"
       gradientUnits="userSpaceOnUse"
       gradientTransform="matrix(0.50033761,0,0,0.50033761,-2.5050642,206.14678)" />
    <radialGradient
       cx="49.82143"
       cy="43.910713"
       r="19.285715"
       fx="49.82143"
       fy="43.910713"
       id="radialGradient4168"
       xlink:href="#linearGradient3890"
       gradientUnits="userSpaceOnUse"
       gradientTransform="matrix(0.31337453,-0.25678773,0.08202941,0.10010574,-1.6332093,23.696989)" />
  </defs>
  <path
     d="m 30.267049,5.0110608 c -13.99547,0 -25.2670491,11.2715802 -25.2670491,25.2670492 l 0,127.58609 c 0,13.99547 11.2715791,25.26705 25.2670491,25.26705 l 315.134521,0 0,-178.1201892 z"
     id="rect2987"
     style="fill:url(#linearGradient4153);fill-opacity:1;stroke:none"
     inkscape:connector-curvature="0" />
  <path
     d="m 23.625179,10.346837 a 2.4959906,7.8135363 50.667864 1 1 -12.087303,9.90467 2.4959906,7.8135363 50.667864 1 1 12.087303,-9.90467 z"
     id="path3888"
     style="fill:url(#radialGradient4168);fill-opacity:1;stroke:none"
     inkscape:connector-curvature="0" />
  <rect
     width="706.65027"
     height="178.12019"
     x="345.40826"
     y="5.0110607"
     id="rect3871"
     style="fill:url(#linearGradient4149);fill-opacity:1;stroke:none" />
  <path
     d="m 338.5875,5.0110608 c 0,0 -1.48841,4.394195 -1.48841,11.7579342 l 0,154.182165 c 0,6.20395 1.48841,12.18009 1.48841,12.18009 l 15.41123,0 c 0,0 -1.48841,-6.07581 -1.48841,-12.18009 l 0,-154.041445 c 0,-7.5154416 1.48841,-11.8986542 1.48841,-11.8986542 z m 706.0994,0 c 0,0 1.4884,4.3832126 1.4884,11.8986542 l 0,154.041445 c 0,6.10428 -1.4884,12.18009 -1.4884,12.18009 l 7.4178,-0.96143 c 0,0 7.4973,-5.01471 7.4973,-11.21866 l 0,-154.182165 c 0,-7.3637392 -10.8623,-12.9597199 -10.8623,-12.9597199 z"
     id="rect3883"
     style="fill:url(#linearGradient4145);fill-opacity:1;stroke:none"
     inkscape:connector-curvature="0"
     sodipodi:nodetypes="cssccssccsssccsscs" />
  <path
     d="m 141.70894,18.461327 c -4.96723,0 -9.5079,2.472553 -9.5079,8.55185 l 0,107.121223 c 0,2.38412 2.57973,4.39911 4.57756,4.39911 l 12.47084,0 c 4.98671,0 9.11327,-3.4842 9.11327,-9.5674 l 0,-107.106345 c 0,-2.395827 -2.18938,-3.398438 -4.1755,-3.398438 z M 76.707436,54.311352 c -18.998805,0 -28.972185,11.676869 -28.972185,25.708422 0,12.470775 7.679487,21.056676 23.0082,24.484806 l 24.473154,5.47319 c 4.976605,1.11297 5.985645,1.51977 5.985645,4.05607 0,1.94709 -1.01107,3.2345 -5.502269,3.2345 l -37.947921,0 c -6.083205,0 -8.52953,3.79354 -8.52953,8.75295 l 0,7.9272 c 0,1.9861 0.984554,4.58502 3.368673,4.58502 l 41.62893,0 c 22.483267,0 32.560727,-12.02512 32.560727,-25.04997 0,-13.47343 -8.78765,-22.059881 -24.01631,-25.47384 L 78.283949,82.521642 c -4.974301,-1.115137 -5.978199,-1.511965 -5.978199,-4.056067 0,-1.939128 1.007175,-2.951591 5.502273,-2.951591 l 36.416007,0 c 6.0676,0 9.52277,-4.072158 9.52277,-9.043307 l 0,-7.904884 c 0,-1.990033 -1.98914,-4.254441 -4.36935,-4.254441 z M 199.0212,53.980774 c -3.74982,0 -6.42662,1.994356 -8.65678,4.399103 l -31.76827,34.110727 28.49626,41.524816 c 1.64493,2.397 3.69098,4.51809 6.18047,4.51809 l 16.97727,0 c 2.5402,0 4.41771,-2.01543 4.41771,-4.15371 0,-1.31109 -0.65931,-2.14768 -1.47983,-3.36868 l -24.62141,-36.638616 18.46391,-20.062893 36.70506,55.058549 -17.04777,34.6531 c -0.45653,1.03013 -0.98904,2.02417 -0.98904,3.01917 0,2.02514 2.48552,3.60293 4.51065,3.60293 l 15.04383,0 c 3.06696,0 4.38973,-1.65741 5.52523,-4.12347 L 300.36518,61.027233 c 0.48715,-1.036384 0.99646,-2.019877 0.99646,-3.026617 0,-2.021214 -2.13967,-4.019842 -4.17261,-4.019842 l -15.16282,0 c -3.03579,0 -4.68633,1.264363 -5.78584,3.736281 L 255.11391,105.21329 225.27166,58.207856 c -1.84175,-2.914637 -3.78492,-4.227082 -8.20977,-4.227082 z"
     id="path5649"
     style="fill:#ffffff;fill-opacity:1;fill-rule:nonzero;stroke:none"
     inkscape:connector-curvature="0" />
  <path
     d="M 23.90351,0 C 10.658126,0 0,13.53309 0,30.3125 L 0,157.84375 C 0,174.62316 10.658126,188.125 23.90351,188.125 l 1014.70289,0 c 6.1653,0 11.7701,-2.92539 16.0004,-7.74504 4.8578,-5.53462 7.903,-13.56718 7.903,-22.53621 l 0,-127.53125 C 1062.5098,13.53309 1051.8517,0 1038.6064,0 Z m 0.074,5.3597074 1014.55479,0 c 11.0463,0 19.7466,11.0042726 19.7466,24.9840426 l 0,127.46875 c 0,13.97975 -8.7003,24.95279 -19.7466,24.95279 l -1014.55479,0 c -11.046298,0 -19.7466518,-10.97304 -19.7466518,-24.95279 l 0,-127.46875 c 0,-13.97977 8.7003538,-24.9840426 19.7466518,-24.9840426 z"
     id="rect4116"
     style="fill:#333333;stroke:none"
     inkscape:connector-curvature="0"
     sodipodi:nodetypes="sssssssssssssssssss" />
  <path
     d="m 467.99451,47.53975 c -5.29031,0 -12.29222,3.67709 -15.43228,11.66412 l -32.00598,81.39868 18.62194,0 8.11486,-20.63893 49.1738,0 8.11485,20.63893 18.62197,0 -31.99036,-81.38304 c -3.0922,-7.86528 -9.63314,-11.67976 -15.44793,-11.67976 l -7.77087,0 z m 1.78246,17.16784 c 0.10575,-0.005 0.22581,0 0.35961,0 l 3.518,0 c 1.04684,0 1.10611,0.0667 1.68864,1.54792 l 14.54106,36.96244 -36.00867,0 14.58797,-37.1188 c 0.45595,-1.15996 0.57314,-1.36083 1.31339,-1.39156 z"
     id="rect3010"
     style="fill:#202f66;fill-opacity:1;stroke:none"
     inkscape:connector-curvature="0" />
  <path
     d="m 622.24582,47.53975 0,16.80822 38.33837,0 0,76.25458 16.79258,0 0,-76.25458 38.33837,0 0,-16.80822 -38.33837,0 -16.79258,0 -38.33837,0 z"
     id="rect3793"
     style="fill:#202f66;fill-opacity:1;stroke:none"
     inkscape:connector-curvature="0" />
  <rect
     width="16.886395"
     height="93.062798"
     ry="0"
     x="729.56488"
     y="47.539757"
     id="rect3807"
     style="fill:#202f66;fill-opacity:1;stroke:none" />
  <path
     d="m 559.6422,47.53975 c -17.8192,0 -32.1624,14.34316 -32.1624,32.16233 l 0,28.73814 c 0,17.81917 14.3432,32.16233 32.1624,32.16233 l 50.3933,0 0,-17.04275 -50.8155,0 c -8.1372,0 -14.6974,-6.5446 -14.6974,-14.68178 l 0,-29.61373 c 0,-8.13719 6.5602,-14.68179 14.6974,-14.68179 l 50.8155,0 0,-17.04275 -50.3933,0 z"
     id="rect3809"
     style="fill:#202f66;fill-opacity:1;stroke:none"
     inkscape:connector-curvature="0" />
  <path
     d="m 890.67404,47.53975 c -5.14848,0 -8.8966,3.59795 -8.8966,8.00541 l 0,85.05739 17.01147,0 0,-64.07449 60.52519,61.94805 c 1.52593,1.56221 2.64329,2.12644 5.23789,2.12644 5.14847,0 8.89665,-3.59798 8.89665,-8.0054 l 0,-85.0574 -17.01148,0 0,64.07449 -60.52519,-61.94805 c -1.52598,-1.56217 -2.64328,-2.12644 -5.23793,-2.12644 z"
     id="path3826"
     style="fill:#202f66;fill-opacity:1;stroke:none"
     inkscape:connector-curvature="0" />
  <path
     d="m 797.65625,47.53125 c -17.8192,0 -32.1875,14.33708 -32.1875,32.15625 l 0,28.75 c 0,17.81917 14.3683,32.15625 32.1875,32.15625 l 34.21875,0 c 17.8192,0 32.15625,-14.33708 32.15625,-32.15625 l 0,-28.75 c 0,-17.81917 -14.33705,-32.15625 -32.15625,-32.15625 z m -0.4375,17.0625 35.0625,0 C 840.41845,64.59375 847,71.11281 847,79.25 l 0,29.625 c 0,8.13718 -6.58155,14.6875 -14.71875,14.6875 l -35.0625,0 c -8.1372,0 -14.6875,-6.55032 -14.6875,-14.6875 l 0,-29.625 c 0,-8.13719 6.5503,-14.65625 14.6875,-14.65625 z"
     id="path4163"
     style="fill:#202f66;fill-opacity:1;stroke:none"
     inkscape:connector-curvature="0" />
  <path
     d="m 18.116968,9.9988 c -4.283727,0 -12.0119482,7.21308 -13.092587,18.96592 -2.018e-4,0.005 1.992e-4,0.0105 0,0.0156 C 5.007826,29.40705 5,29.84594 5,30.2781 l 0,127.58609 c 0,4.5681 0.9319434,8.84987 2.5721937,12.53971 C 7.420593,169.24526 7.3574938,168.01911 7.4015266,166.72955 7.658258,159.21084 12.026865,155.18536 27.058024,145.94792 48.187897,132.9625 110.44441,119.37405 128.98714,115.29755 248.4755,89.02881 282.06612,78.70864 401.455,68.92251 484.52313,62.11354 547.12685,58.21566 630.23155,58.42505 c 75.05898,0.18912 194.6917,1.9315 318.66413,22.16098 43.07286,7.8472 64.25302,16.86836 82.22472,31.62869 13.5784,11.15201 13.1325,36.90834 13.8298,50.37141 0.1054,2.0371 0.01,4.08761 -0.2073,6.09786 1.2065,-3.2764 1.8896,-6.94332 1.8896,-10.8198 l 0,-127.58609 c 0,-0.28633 -0.01,-0.57598 -0.012,-0.85995 -1.5416,-6.42547 -6.5662,-18.13724 -15.3601,-18.13724 -10.7302,0 -6.1681,4.73757 -87.88124,4.73757 l -840.36753,0 C 32.45054,15.98281 30.266226,9.9988 18.116968,9.9988 Z"
     id="rect3007"
     style="opacity:0.4;fill:#ffffff;fill-opacity:1;stroke:none"
     inkscape:connector-curvature="0" />
</svg>
