<?xml version="1.0" encoding="UTF-8" standalone="no"?>
<!-- Created with Inkscape (http://www.inkscape.org/) -->

<svg
   xmlns:dc="http://purl.org/dc/elements/1.1/"
   xmlns:cc="http://creativecommons.org/ns#"
   xmlns:rdf="http://www.w3.org/1999/02/22-rdf-syntax-ns#"
   xmlns:svg="http://www.w3.org/2000/svg"
   xmlns="http://www.w3.org/2000/svg"
   xmlns:xlink="http://www.w3.org/1999/xlink"
   xmlns:sodipodi="http://sodipodi.sourceforge.net/DTD/sodipodi-0.dtd"
   xmlns:inkscape="http://www.inkscape.org/namespaces/inkscape"
   id="svg2"
   version="1.1"
   inkscape:version="0.48.3.1 r9886"
   width="1106"
   height="188.125"
   sodipodi:docname="Sky Hits HD Germany.svg">
  <metadata
     id="metadata8">
    <rdf:RDF>
      <cc:Work
         rdf:about="">
        <dc:format>image/svg+xml</dc:format>
        <dc:type
           rdf:resource="http://purl.org/dc/dcmitype/StillImage" />
        <dc:title></dc:title>
      </cc:Work>
    </rdf:RDF>
  </metadata>
  <defs
     id="defs6">
    <linearGradient
       id="linearGradient4056">
      <stop
         id="stop4058"
         offset="0"
         style="stop-color:#3d3d3d;stop-opacity:1" />
      <stop
         style="stop-color:#3d3d3d;stop-opacity:1;"
         offset="0.82284153"
         id="stop4060" />
      <stop
         style="stop-color:#ffffff;stop-opacity:1;"
         offset="0.87788105"
         id="stop4062" />
      <stop
         id="stop4064"
         offset="0.94668067"
         style="stop-color:#ffffff;stop-opacity:1;" />
      <stop
         id="stop4066"
         offset="1"
         style="stop-color:#434343;stop-opacity:1" />
    </linearGradient>
    <linearGradient
       id="linearGradient4016">
      <stop
         style="stop-color:#3d3d3d;stop-opacity:1"
         offset="0"
         id="stop4018" />
      <stop
         id="stop4042"
         offset="0.22272909"
         style="stop-color:#3d3d3d;stop-opacity:1;" />
      <stop
         id="stop4024"
         offset="0.46173689"
         style="stop-color:#ffffff;stop-opacity:1;" />
      <stop
         style="stop-color:#ffffff;stop-opacity:1;"
         offset="0.76818359"
         id="stop4026" />
      <stop
         style="stop-color:#434343;stop-opacity:1"
         offset="1"
         id="stop4020" />
    </linearGradient>
    <linearGradient
       id="linearGradient3962">
      <stop
         id="stop3964"
         offset="0"
         style="stop-color:#505050;stop-opacity:1;" />
      <stop
         style="stop-color:#808080;stop-opacity:1;"
         offset="0.11204819"
         id="stop3966" />
      <stop
         style="stop-color:#808080;stop-opacity:1;"
         offset="0.94417667"
         id="stop3968" />
      <stop
         id="stop3970"
         offset="1"
         style="stop-color:#b4b4b4;stop-opacity:1;" />
    </linearGradient>
    <linearGradient
       id="linearGradient3946">
      <stop
         style="stop-color:#a0a0a0;stop-opacity:1;"
         offset="0"
         id="stop3948" />
      <stop
         id="stop3958"
         offset="0.11235955"
         style="stop-color:#c8c8c8;stop-opacity:1;" />
      <stop
         id="stop3956"
         offset="0.94382024"
         style="stop-color:#c8c8c8;stop-opacity:1;" />
      <stop
         style="stop-color:#f0f0f0;stop-opacity:1;"
         offset="1"
         id="stop3950" />
    </linearGradient>
    <linearGradient
       id="linearGradient3912">
      <stop
         style="stop-color:#505050;stop-opacity:1;"
         offset="0"
         id="stop3914" />
      <stop
         id="stop3924"
         offset="0.11204819"
         style="stop-color:#808080;stop-opacity:1;" />
      <stop
         id="stop3922"
         offset="0.88795179"
         style="stop-color:#808080;stop-opacity:1;" />
      <stop
         style="stop-color:#b4b4b4;stop-opacity:1;"
         offset="1"
         id="stop3916" />
    </linearGradient>
    <linearGradient
       id="linearGradient3898">
      <stop
         style="stop-color:#0d1329;stop-opacity:1;"
         offset="0"
         id="stop3900" />
      <stop
         id="stop3908"
         offset="0.11200321"
         style="stop-color:#202f66;stop-opacity:1;" />
      <stop
         style="stop-color:#202f66;stop-opacity:1;"
         offset="0.94379765"
         id="stop3910" />
      <stop
         style="stop-color:#334ba3;stop-opacity:1;"
         offset="1"
         id="stop3902" />
    </linearGradient>
    <linearGradient
       id="linearGradient3890">
      <stop
         style="stop-color:#ffffff;stop-opacity:1;"
         offset="0"
         id="stop3892" />
      <stop
         style="stop-color:#ffffff;stop-opacity:0;"
         offset="1"
         id="stop3894" />
    </linearGradient>
    <linearGradient
       inkscape:collect="always"
       xlink:href="#linearGradient3962"
       id="linearGradient4145"
       gradientUnits="userSpaceOnUse"
       x1="695.35712"
       y1="-46.142857"
       x2="695.35712"
       y2="-401.85715"
       gradientTransform="matrix(0.50033761,0,0,0.50033761,-2.5050642,206.14678)" />
    <linearGradient
       inkscape:collect="always"
       xlink:href="#linearGradient3946"
       id="linearGradient4149"
       gradientUnits="userSpaceOnUse"
       x1="1189.4546"
       y1="-46"
       x2="1189.4546"
       y2="-402"
       gradientTransform="matrix(0.50033761,0,0,0.50033761,-2.5050642,206.14678)" />
    <linearGradient
       inkscape:collect="always"
       xlink:href="#linearGradient3898"
       id="linearGradient4153"
       gradientUnits="userSpaceOnUse"
       x1="13.928571"
       y1="-46.142857"
       x2="13.928571"
       y2="-402"
       gradientTransform="matrix(0.50033761,0,0,0.50033761,-2.5050642,206.14678)" />
    <radialGradient
       inkscape:collect="always"
       xlink:href="#linearGradient3890"
       id="radialGradient4168"
       gradientUnits="userSpaceOnUse"
       gradientTransform="matrix(1,0,0,0.31944442,0,29.883681)"
       cx="49.82143"
       cy="43.910713"
       fx="49.82143"
       fy="43.910713"
       r="19.285715" />
    <linearGradient
       gradientTransform="matrix(0.50033761,0,0,0.50033761,-0.50506415,-149.88447)"
       gradientUnits="userSpaceOnUse"
       xlink:href="#linearGradient3898-2"
       id="linearGradient4108"
       y2="-402"
       x2="13.928571"
       y1="-46.142857"
       x1="13.928571" />
    <linearGradient
       gradientUnits="userSpaceOnUse"
       xlink:href="#linearGradient3962-6"
       id="linearGradient3999"
       y2="-401.85715"
       x2="695.35712"
       y1="-46.142857"
       x1="695.35712" />
    <linearGradient
       gradientUnits="userSpaceOnUse"
       xlink:href="#linearGradient3946-4"
       id="linearGradient3997"
       y2="-402"
       x2="1189.4546"
       y1="-46"
       x1="1189.4546" />
    <radialGradient
       gradientTransform="matrix(1,0,0,0.31944442,0,29.883681)"
       gradientUnits="userSpaceOnUse"
       xlink:href="#linearGradient3890-9"
       id="radialGradient3995"
       fy="43.910713"
       fx="49.82143"
       r="19.285715"
       cy="43.910713"
       cx="49.82143" />
    <linearGradient
       gradientUnits="userSpaceOnUse"
       xlink:href="#linearGradient3898-2"
       id="linearGradient3993"
       y2="-402"
       x2="13.928571"
       y1="-46.142857"
       x1="13.928571" />
    <linearGradient
       id="linearGradient3890-9">
      <stop
         offset="0"
         style="stop-color:#ffffff;stop-opacity:1"
         id="stop3892-8" />
      <stop
         offset="1"
         style="stop-color:#ffffff;stop-opacity:0"
         id="stop3894-3" />
    </linearGradient>
    <linearGradient
       id="linearGradient3898-2">
      <stop
         offset="0"
         style="stop-color:#0d1329;stop-opacity:1"
         id="stop3900-4" />
      <stop
         offset="0.11200321"
         style="stop-color:#202f66;stop-opacity:1"
         id="stop3908-5" />
      <stop
         offset="0.94379765"
         style="stop-color:#202f66;stop-opacity:1"
         id="stop3910-2" />
      <stop
         offset="1"
         style="stop-color:#334ba3;stop-opacity:1"
         id="stop3902-9" />
    </linearGradient>
    <linearGradient
       id="linearGradient3912-2">
      <stop
         offset="0"
         style="stop-color:#505050;stop-opacity:1"
         id="stop3914-1" />
      <stop
         offset="0.11204819"
         style="stop-color:#808080;stop-opacity:1"
         id="stop3924-4" />
      <stop
         offset="0.88795179"
         style="stop-color:#808080;stop-opacity:1"
         id="stop3922-9" />
      <stop
         offset="1"
         style="stop-color:#b4b4b4;stop-opacity:1"
         id="stop3916-8" />
    </linearGradient>
    <linearGradient
       id="linearGradient3946-4">
      <stop
         offset="0"
         style="stop-color:#a0a0a0;stop-opacity:1"
         id="stop3948-5" />
      <stop
         offset="0.11235955"
         style="stop-color:#c8c8c8;stop-opacity:1"
         id="stop3958-8" />
      <stop
         offset="0.94382024"
         style="stop-color:#c8c8c8;stop-opacity:1"
         id="stop3956-8" />
      <stop
         offset="1"
         style="stop-color:#f0f0f0;stop-opacity:1"
         id="stop3950-1" />
    </linearGradient>
    <linearGradient
       id="linearGradient3962-6">
      <stop
         offset="0"
         style="stop-color:#505050;stop-opacity:1"
         id="stop3964-0" />
      <stop
         offset="0.11204819"
         style="stop-color:#808080;stop-opacity:1"
         id="stop3966-3" />
      <stop
         offset="0.94417667"
         style="stop-color:#808080;stop-opacity:1"
         id="stop3968-6" />
      <stop
         offset="1"
         style="stop-color:#b4b4b4;stop-opacity:1"
         id="stop3970-2" />
    </linearGradient>
    <linearGradient
       id="linearGradient4016-2">
      <stop
         offset="0"
         style="stop-color:#3d3d3d;stop-opacity:1"
         id="stop4018-6" />
      <stop
         offset="0.22272909"
         style="stop-color:#3d3d3d;stop-opacity:1"
         id="stop4042-0" />
      <stop
         offset="0.46173689"
         style="stop-color:#ffffff;stop-opacity:1"
         id="stop4024-4" />
      <stop
         offset="0.76818359"
         style="stop-color:#ffffff;stop-opacity:1"
         id="stop4026-9" />
      <stop
         offset="1"
         style="stop-color:#434343;stop-opacity:1"
         id="stop4020-4" />
    </linearGradient>
    <linearGradient
       id="linearGradient4056-8">
      <stop
         offset="0"
         style="stop-color:#3d3d3d;stop-opacity:1"
         id="stop4058-8" />
      <stop
         offset="0.82284153"
         style="stop-color:#3d3d3d;stop-opacity:1"
         id="stop4060-2" />
      <stop
         offset="0.87788105"
         style="stop-color:#ffffff;stop-opacity:1"
         id="stop4062-7" />
      <stop
         offset="0.94668067"
         style="stop-color:#ffffff;stop-opacity:1"
         id="stop4064-7" />
      <stop
         offset="1"
         style="stop-color:#434343;stop-opacity:1"
         id="stop4066-1" />
    </linearGradient>
  </defs>
  <sodipodi:namedview
     pagecolor="#ffffff"
     bordercolor="#666666"
     borderopacity="1"
     objecttolerance="10"
     gridtolerance="10"
     guidetolerance="10"
     inkscape:pageopacity="0"
     inkscape:pageshadow="2"
     inkscape:window-width="1920"
     inkscape:window-height="1028"
     id="namedview4"
     showgrid="false"
     inkscape:zoom="0.94"
     inkscape:cx="723.90882"
     inkscape:cy="322.10478"
     inkscape:window-x="-8"
     inkscape:window-y="-8"
     inkscape:window-maximized="1"
     inkscape:current-layer="svg2"
     showguides="true"
     inkscape:guide-bbox="true"
     fit-margin-top="0"
     fit-margin-left="0"
     fit-margin-right="0"
     fit-margin-bottom="0">
    <sodipodi:guide
       orientation="0,1"
       position="210.20833,-169.82292"
       id="guide4046" />
    <sodipodi:guide
       orientation="0,1"
       position="209.66667,-171.11458"
       id="guide4048" />
    <sodipodi:guide
       orientation="0,1"
       position="210.75,-172.78125"
       id="guide4050" />
    <sodipodi:guide
       orientation="0,1"
       position="212.83333,-174.11458"
       id="guide4052" />
    <sodipodi:guide
       orientation="0,1"
       position="833.37766,-139.3617"
       id="guide4534" />
  </sodipodi:namedview>
  <path
     style="fill:url(#linearGradient4153);fill-opacity:1;stroke:none"
     d="m 30.267049,5.0110608 c -13.99547,0 -25.2670491,11.2715802 -25.2670491,25.2670492 l 0,127.58609 c 0,13.99547 11.2715791,25.26705 25.2670491,25.26705 l 315.134521,0 0,-178.1201892 z"
     id="rect2987"
     inkscape:connector-curvature="0"
     sodipodi:nodetypes="ssssccs" />
  <path
     sodipodi:type="arc"
     style="fill:url(#radialGradient4168);fill-opacity:1;stroke:none"
     id="path3888"
     sodipodi:cx="49.82143"
     sodipodi:cy="43.910713"
     sodipodi:rx="19.285715"
     sodipodi:ry="6.1607141"
     d="m 69.107145,43.910713 a 19.285715,6.1607141 0 1 1 -38.57143,0 19.285715,6.1607141 0 1 1 38.57143,0 z"
     transform="matrix(0.31337453,-0.25678773,0.25678773,0.31337453,-9.3069719,14.332205)" />
  <rect
     style="fill:url(#linearGradient4149);fill-opacity:1;stroke:none"
     id="rect3871"
     width="474.23801"
     height="178.12019"
     x="345.40826"
     y="5.0110607" />
  <path
     style="fill:#000000;fill-opacity:1;stroke:none"
     d="m 817.6682,5.0110608 0,178.1201892 258.0648,0 c 13.9954,0 25.267,-11.27158 25.267,-25.26705 l 0,-127.58609 c 0,-13.995469 -11.2716,-25.2670492 -25.267,-25.2670492 z"
     id="rect3863"
     inkscape:connector-curvature="0"
     sodipodi:nodetypes="ccssssc" />
  <path
     inkscape:connector-curvature="0"
     style="fill:url(#linearGradient4145);fill-opacity:1;stroke:none"
     d="m 338.6001,5.0110608 c 0,0 -1.50101,4.394195 -1.50101,11.7579342 l 0,154.182165 c 0,6.20395 1.50101,12.18009 1.50101,12.18009 l 15.54174,0 c 0,0 -1.50101,-6.07581 -1.50101,-12.18009 l 0,-154.041445 c 0,-7.5154416 1.50101,-11.8986542 1.50101,-11.8986542 z m 472.079,0 c 0,0 1.501,4.3832126 1.501,11.8986542 l 0,154.041445 c 0,6.10428 -1.501,12.18009 -1.501,12.18009 l 13.5404,0 c 0,0 1.501,-5.97614 1.501,-12.18009 l 0,-154.182165 c 0,-7.3637392 -1.501,-11.7579342 -1.501,-11.7579342 z"
     id="rect3883"
     sodipodi:nodetypes="cssccsscccssccsscc" />
  <path
     style="fill:#ffffff;fill-opacity:1;fill-rule:nonzero;stroke:none"
     id="path5649"
     d="m 141.70894,18.461327 c -4.96723,0 -9.5079,2.472553 -9.5079,8.55185 l 0,107.121223 c 0,2.38412 2.57973,4.39911 4.57756,4.39911 l 12.47084,0 c 4.98671,0 9.11327,-3.4842 9.11327,-9.5674 l 0,-107.106345 c 0,-2.395827 -2.18938,-3.398438 -4.1755,-3.398438 z M 76.707436,54.311352 c -18.998805,0 -28.972185,11.676869 -28.972185,25.708422 0,12.470775 7.679487,21.056676 23.0082,24.484806 l 24.473154,5.47319 c 4.976605,1.11297 5.985645,1.51977 5.985645,4.05607 0,1.94709 -1.01107,3.2345 -5.502269,3.2345 l -37.947921,0 c -6.083205,0 -8.52953,3.79354 -8.52953,8.75295 l 0,7.9272 c 0,1.9861 0.984554,4.58502 3.368673,4.58502 l 41.62893,0 c 22.483267,0 32.560727,-12.02512 32.560727,-25.04997 0,-13.47343 -8.78765,-22.059881 -24.01631,-25.47384 L 78.283949,82.521642 c -4.974301,-1.115137 -5.978199,-1.511965 -5.978199,-4.056067 0,-1.939128 1.007175,-2.951591 5.502273,-2.951591 l 36.416007,0 c 6.0676,0 9.52277,-4.072158 9.52277,-9.043307 l 0,-7.904884 c 0,-1.990033 -1.98914,-4.254441 -4.36935,-4.254441 z M 199.0212,53.980774 c -3.74982,0 -6.42662,1.994356 -8.65678,4.399103 l -31.76827,34.110727 28.49626,41.524816 c 1.64493,2.397 3.69098,4.51809 6.18047,4.51809 l 16.97727,0 c 2.5402,0 4.41771,-2.01543 4.41771,-4.15371 0,-1.31109 -0.65931,-2.14768 -1.47983,-3.36868 l -24.62141,-36.638616 18.46391,-20.062893 36.70506,55.058549 -17.04777,34.6531 c -0.45653,1.03013 -0.98904,2.02417 -0.98904,3.01917 0,2.02514 2.48552,3.60293 4.51065,3.60293 l 15.04383,0 c 3.06696,0 4.38973,-1.65741 5.52523,-4.12347 L 300.36518,61.027233 c 0.48715,-1.036384 0.99646,-2.019877 0.99646,-3.026617 0,-2.021214 -2.13967,-4.019842 -4.17261,-4.019842 l -15.16282,0 c -3.03579,0 -4.68633,1.264363 -5.78584,3.736281 L 255.11391,105.21329 225.27166,58.207856 c -1.84175,-2.914637 -3.78492,-4.227082 -8.20977,-4.227082 z"
     inkscape:connector-curvature="0"
     sodipodi:nodetypes="sssssssssssssssssssssssssssssssscsssssccccssscsssssccss" />
  <g
     id="g3859"
     transform="matrix(0.50033761,0,0,0.50033761,-408.50506,-3.9950162)">
    <path
       id="rect3841"
       d="m 2549.3792,103 0,186 34,0 0,-76 114,0 0,76 34,0 0,-186 -34,0 0,76 -114,0 0,-76 z"
       style="fill:#ffffff;fill-opacity:1;stroke:none"
       inkscape:connector-curvature="0"
       sodipodi:nodetypes="ccccccccccccc" />
    <path
       sodipodi:nodetypes="cccsssscccsssscc"
       inkscape:connector-curvature="0"
       id="rect3847"
       d="m 2769.3792,103 0,186 34,0 87.875,0 c 35.0209,0 63.2188,-28.19804 63.2188,-63.21875 l 0,-59.5625 C 2954.473,131.19804 2926.2751,103 2891.2542,103 l -87.875,0 z m 34,34.84375 88.5626,0 c 15.7296,0 28.375,12.67661 28.375,28.40625 l 0,59.5 c 0,15.72964 -12.6454,28.40625 -28.375,28.40625 l -88.5626,0 z"
       style="fill:#ffffff;fill-opacity:1;stroke:none" />
  </g>
  <g
     id="g4586"
     transform="translate(0,-180)">
    <rect
       ry="0"
       y="227.53976"
       x="527.56488"
       height="93.062798"
       width="16.886395"
       id="rect3807"
       style="fill:#202f66;fill-opacity:1;stroke:none" />
    <path
       sodipodi:nodetypes="cssssssc"
       inkscape:connector-curvature="0"
       id="path4572"
       d="m 658.72455,312.151 58.68722,0 C 723.94091,312.151 735,309.7405 735,296.11581 l 0,-5.52918 c 0,-28.02006 -71,-8.09198 -71,-37.55069 l 0,-3.47086 c 0,-10.74301 10.05136,-13.57808 17.94286,-13.57808 l 56.38193,0"
       style="fill:none;stroke:#202f66;stroke-width:16.88599968;stroke-linecap:butt;stroke-linejoin:round;stroke-miterlimit:4;stroke-opacity:1;stroke-dasharray:none" />
    <path
       id="rect4574"
       d="m 423.5625,227.53125 0,93.0625 16.875,0 0,-38.09375 57.125,0 0,38.09375 16.875,0 0,-93.0625 -16.875,0 0,38.09375 -57.125,0 0,-38.09375 -16.875,0 z"
       style="fill:#202f66;fill-opacity:1;stroke:none"
       inkscape:connector-curvature="0" />
    <path
       inkscape:connector-curvature="0"
       id="rect4581"
       d="m 555.5625,227.53125 0,16.90625 38,0 0,76.15625 16.875,0 0,-76.15625 38.1875,0 0,-16.90625 -38.1875,0 -16.875,0 -38,0 z"
       style="fill:#202f66;fill-opacity:1;stroke:none" />
  </g>
  <path
     inkscape:connector-curvature="0"
     style="opacity:0.4;fill:#ffffff;fill-opacity:1;stroke:none"
     d="m 21.823852,9.9988 c -5.494318,0 -15.4065512,7.21308 -16.7925809,18.96592 -2.587e-4,0.005 2.556e-4,0.0105 0,0.0156 -0.021234,0.42673 -0.031271,0.86562 -0.031271,1.29778 l 0,127.58609 c 0,4.5681 1.1953126,8.84987 3.2991012,12.53971 C 8.1046579,169.24526 8.0237268,168.01911 8.0802034,166.72955 8.4094876,159.21084 14.012672,155.18536 33.291667,145.94792 60.392889,132.9625 140.33332,119.86866 164.02617,115.29755 315.77771,86.019845 320.86619,84.696859 473.49404,68.92251 583.04635,57.600092 600.33305,58.21566 706.92332,58.42505 c 96.27081,0.18912 109.71198,1.9315 268.71928,22.16098 55.2453,7.8472 82.411,16.86836 105.4616,31.62869 17.4156,11.15201 16.8437,36.90834 17.7381,50.37141 0.1353,2.0371 0.01,4.08761 -0.2658,6.09786 1.5474,-3.2764 2.4235,-6.94332 2.4235,-10.8198 l 0,-127.58609 c 0,-0.28633 -0.01,-0.57598 -0.015,-0.85995 -1.9772,-6.42547 -8.4217,-18.13724 -19.7008,-18.13724 -13.7625,0 -7.9113,4.73757 -112.7167,4.73757 l -837.85718,0 C 40.208121,15.98281 37.406515,9.9988 21.823852,9.9988 z"
     id="rect3007"
     sodipodi:nodetypes="sccsscssssscsccsscsscs" />
  <path
     style="fill:#333333;stroke:none"
     d="M 30.28125,0 C 13.501842,0 0,13.53309 0,30.3125 L 0,157.84375 C 0,174.62316 13.501842,188.125 30.28125,188.125 l 1045.43755,0 c 16.7794,0 30.2812,-13.50184 30.2812,-30.28125 L 1106,30.3125 C 1106,13.53309 1092.4982,0 1075.7188,0 z m 0.09375,5.3597074 1045.25,0 c 13.9936,0 25.0152,11.0042726 25.0152,24.9840426 0,42.489583 0,84.97917 0,127.46875 0,13.97975 -11.0216,24.95279 -25.0152,24.95279 l -1045.25,0 c -13.993582,0 -25.0152926,-10.97304 -25.0152926,-24.95279 0,-42.48958 0,-84.979167 0,-127.46875 0,-13.97977 11.0217106,-24.9840426 25.0152926,-24.9840426 z"
     id="rect4116"
     inkscape:connector-curvature="0"
     sodipodi:nodetypes="ssssssssssssssssss" />
</svg>
