<?xml version="1.0" encoding="UTF-8" standalone="no"?>
<!-- Created with Inkscape (http://www.inkscape.org/) -->

<svg
   xmlns:dc="http://purl.org/dc/elements/1.1/"
   xmlns:cc="http://creativecommons.org/ns#"
   xmlns:rdf="http://www.w3.org/1999/02/22-rdf-syntax-ns#"
   xmlns:svg="http://www.w3.org/2000/svg"
   xmlns="http://www.w3.org/2000/svg"
   xmlns:sodipodi="http://sodipodi.sourceforge.net/DTD/sodipodi-0.dtd"
   xmlns:inkscape="http://www.inkscape.org/namespaces/inkscape"
   version="1.0"
   width="187.89378"
   height="110.79248"
   id="Logo_sonnenklar.TV"
   inkscape:version="0.48.2 r9819"
   sodipodi:docname="Logo_sonnenklar.TV.svg">
  <metadata
     id="metadata3009">
    <rdf:RDF>
      <cc:Work
         rdf:about="">
        <dc:format>image/svg+xml</dc:format>
        <dc:type
           rdf:resource="http://purl.org/dc/dcmitype/StillImage" />
      </cc:Work>
    </rdf:RDF>
  </metadata>
  <sodipodi:namedview
     pagecolor="#ffffff"
     bordercolor="#666666"
     borderopacity="1"
     objecttolerance="10"
     gridtolerance="10"
     guidetolerance="10"
     inkscape:pageopacity="0"
     inkscape:pageshadow="2"
     inkscape:window-width="1280"
     inkscape:window-height="753"
     id="namedview3007"
     showgrid="false"
     fit-margin-top="0"
     fit-margin-left="0"
     fit-margin-right="0"
     fit-margin-bottom="0"
     inkscape:zoom="0.33258561"
     inkscape:cx="285.53404"
     inkscape:cy="-1.0614363"
     inkscape:window-x="-4"
     inkscape:window-y="-4"
     inkscape:window-maximized="1"
     inkscape:current-layer="Logo_sonnenklar.TV" />
  <defs
     id="defs4" />
  <g
     id="sonne"
     transform="translate(-233.12941,-4.0000776)">
    <path
       d="m 263.89665,82.493114 -29.19303,-1.307735 -1.57421,15.028086 28.65575,3.716109 c -1.07892,-5.875392 -0.34033,-11.978153 2.11149,-17.43646"
       id="path2478"
       style="fill:#ce1f26;fill-opacity:1;fill-rule:nonzero;stroke:none"
       inkscape:connector-curvature="0" />
    <path
       d="M 279.71546,67.430271 252.5224,43.248044 239.21334,56.55131 263.99223,82.622005 c 3.56984,-6.527087 9.0687,-11.839125 15.72323,-15.191734"
       id="path2470"
       style="fill:#f1461c;fill-opacity:1;fill-rule:nonzero;stroke:none"
       inkscape:connector-curvature="0" />
    <path
       d="m 296.157,63.536032 c 4.51552,0 8.82685,0.815343 12.81667,2.307 l 4.64876,-59.7314628 -37.3653,0 4.53001,60.8103798 c 4.67772,-2.173765 9.88259,-3.385917 15.36986,-3.385917"
       id="path2474"
       style="fill:#f67c13;fill-opacity:1;fill-rule:nonzero;stroke:none"
       inkscape:connector-curvature="0" />
    <path
       d="M 330.67511,87.845702 393.16541,32.655829 364.50387,4.0000776 309.24159,65.944407 c 9.96224,3.808795 17.82892,11.831884 21.43352,21.901295"
       id="path2476"
       style="fill:#fab20a;fill-opacity:1;fill-rule:nonzero;stroke:none"
       inkscape:connector-curvature="0" />
    <path
       d="m 332.79674,100.17722 c 0,5.19473 -1.07892,10.13892 -3.02821,14.61534 l 91.25467,0 -0.57059,-40.909061 -89.6182,14.435768 c 1.27588,3.716109 1.96233,7.711723 1.96233,11.857953"
       id="path2472"
       style="fill:#fff200;fill-opacity:1;fill-rule:nonzero;stroke:none"
       inkscape:connector-curvature="0" />
  </g>
</svg>
