<?xml version="1.0" encoding="UTF-8" standalone="no"?>
<!-- Created with Inkscape (http://www.inkscape.org/) -->

<svg
   xmlns:dc="http://purl.org/dc/elements/1.1/"
   xmlns:cc="http://creativecommons.org/ns#"
   xmlns:rdf="http://www.w3.org/1999/02/22-rdf-syntax-ns#"
   xmlns:svg="http://www.w3.org/2000/svg"
   xmlns="http://www.w3.org/2000/svg"
   xmlns:sodipodi="http://sodipodi.sourceforge.net/DTD/sodipodi-0.dtd"
   xmlns:inkscape="http://www.inkscape.org/namespaces/inkscape"
   width="535.03937"
   height="91.416031"
   id="svg81437"
   version="1.1"
   inkscape:version="0.91pre2 r13516"
   sodipodi:docname="sport1+ hd.svg">
  <defs
     id="defs3" />
  <sodipodi:namedview
     inkscape:document-units="mm"
     id="base"
     pagecolor="#ffffff"
     bordercolor="#666666"
     borderopacity="1.0"
     inkscape:pageopacity="0.0"
     inkscape:pageshadow="2"
     inkscape:zoom="1.979899"
     inkscape:cx="169.76906"
     inkscape:cy="50.157316"
     inkscape:current-layer="layer1"
     showgrid="false"
     units="mm"
     fit-margin-top="0.5"
     fit-margin-left="0.5"
     fit-margin-right="0.5"
     fit-margin-bottom="0.5"
     inkscape:window-width="1920"
     inkscape:window-height="1017"
     inkscape:window-x="-8"
     inkscape:window-y="-8"
     inkscape:window-maximized="1" />
  <metadata
     id="metadata4">
    <rdf:RDF>
      <cc:Work
         rdf:about="">
        <dc:format>image/svg+xml</dc:format>
        <dc:type
           rdf:resource="http://purl.org/dc/dcmitype/StillImage" />
        <dc:title />
      </cc:Work>
    </rdf:RDF>
  </metadata>
  <g
     inkscape:label="Layer 1"
     inkscape:groupmode="layer"
     id="layer1"
     transform="translate(-186.28041,-290.85689)">
    <g
       id="g4176">
      <path
         d="m 188.05206,363.63586 3.40012,-12.67505 45.04373,0 c 2.13157,0 4.11757,-1.73645 4.41911,-3.87842 0.14557,-1.06059 -0.15596,-2.12117 -0.84223,-2.90102 -0.62387,-0.71745 -1.4765,-1.11257 -2.41231,-1.11257 l -28.8126,0 c -4.41911,0 -8.26634,-1.68446 -10.83462,-4.73105 -2.55789,-3.05699 -3.54569,-7.14336 -2.76585,-11.52088 1.79884,-10.01319 10.24194,-16.35591 19.26733,-16.35591 l 47.10252,0 -3.40012,12.67505 -45.65721,0 c -1.9756,0 -3.78484,1.59088 -4.39832,3.86802 -0.23915,0.92541 -0.052,1.85083 0.5303,2.62027 0.62387,0.81104 1.61167,1.28934 2.63067,1.28934 l 28.95817,0 c 4.43991,0 8.27674,1.68446 10.83462,4.75185 2.54749,3.05698 3.43131,7.15376 2.70346,11.56247 -1.64287,9.88841 -9.32693,16.4079 -19.43369,16.4079 l -46.33308,0"
         style="fill:#908f91;fill-opacity:1;fill-rule:nonzero;stroke:none"
         id="path75809"
         inkscape:connector-curvature="0" />
      <path
         d="m 430.07377,310.46096 c -15.80482,0 -22.3763,8.17276 -26.71223,24.39349 l -7.72564,28.78141 13.70444,0 7.65286,-28.78141 c 1.62208,-6.07238 5.52129,-11.71844 13.08057,-11.71844 l 16.10636,0 3.33773,-12.67505 -19.44409,0"
         style="fill:#908f91;fill-opacity:1;fill-rule:nonzero;stroke:none"
         id="path75813"
         inkscape:connector-curvature="0" />
      <path
         d="m 489.76816,310.46096 -21.20133,0 4.77264,-17.83241 -13.69405,0 -19.02817,71.00731 13.70444,0 10.83462,-40.51025 21.22213,0 3.38972,-12.66465 z"
         style="fill:#908f91;fill-opacity:1;fill-rule:nonzero;stroke:none"
         id="path75817"
         inkscape:connector-curvature="0" />
      <path
         d="m 312.4308,333.74187 -1.986,7.42411 c -1.40372,5.21975 -6.03079,9.79483 -12.47749,9.79483 l -25.72442,0 7.4553,-27.82481 25.36049,0 c 9.02539,0 8.02719,8.22475 7.37212,10.60587 m -7.37212,-23.28092 -21.96038,0 -13.70444,0 -18.76823,70.04031 13.70445,0 4.52309,-16.8654 29.11414,0 c 12.50868,0 22.03317,-7.89202 25.09015,-19.18414 l 1.9964,-7.43451 c 3.02579,-11.21934 -0.0936,-26.55626 -19.99518,-26.55626"
         style="fill:#908f91;fill-opacity:1;fill-rule:nonzero;stroke:none"
         id="path75821"
         inkscape:connector-curvature="0" />
      <path
         d="m 384.33233,333.74187 -1.986,7.42411 c -1.40372,5.21975 -6.03079,9.79483 -12.47749,9.79483 l -19.54807,0 c -9.01498,0 -8.01678,-8.21435 -7.36172,-10.60587 l 1.986,-7.42411 c 1.39332,-5.21975 6.23875,-9.79483 12.47749,-9.79483 l 19.53767,0 c 9.02539,0 8.02719,8.22475 7.37212,10.60587 m -7.37212,-23.28092 -19.53767,0 c -11.71844,0 -22.03316,7.89202 -25.10055,19.19454 l -1.986,7.42411 c -3.03619,11.22974 -0.22875,26.55626 19.98478,26.55626 l 19.54807,0 c 12.50868,0 22.03317,-7.89202 25.09015,-19.18414 l 1.9964,-7.43451 c 3.02579,-11.21934 -0.0936,-26.55626 -19.99518,-26.55626"
         style="fill:#908f91;fill-opacity:1;fill-rule:nonzero;stroke:none"
         id="path75825"
         inkscape:connector-curvature="0" />
      <g
         transform="matrix(10.397908,0,0,-10.397908,519.81811,292.63894)"
         id="g75827">
        <path
           inkscape:connector-curvature="0"
           id="path75829"
           style="fill:#f9ae0c;fill-opacity:1;fill-rule:nonzero;stroke:none"
           d="m 0,0 c -0.336,-1.016 -1.294,-1.714 -2.374,-1.714 l -0.311,-1.219 1.466,0 -1.045,-3.895 1.745,0 L 1.335,0 0,0" />
      </g>
      <g
         transform="matrix(10.397908,0,0,-10.397908,584.32569,330.71608)"
         id="g75831">
        <path
           inkscape:connector-curvature="0"
           id="path75833"
           style="fill:#f9ae0c;fill-opacity:1;fill-rule:nonzero;stroke:none"
           d="m 0,0 -1.952,0 0.522,1.948 -1.318,0 L -3.27,0 l -1.937,0 -0.327,-1.218 1.938,0 -0.522,-1.948 1.318,0 0.522,1.948 1.952,0 L 0,0 Z" />
      </g>
      <g
         transform="matrix(10.397908,0,0,-10.397908,642.21189,310.46096)"
         id="g75835">
        <path
           inkscape:connector-curvature="0"
           id="path75837"
           style="fill:#918f90;fill-opacity:1;fill-rule:nonzero;stroke:none"
           d="m 0,0 -0.522,-1.948 -3.068,0 0.522,1.948 -1.318,0 -1.37,-5.114 1.318,0 0.521,1.948 3.068,0 -0.521,-1.948 1.318,0 L 1.318,0 0,0 Z" />
      </g>
      <g
         transform="matrix(10.397908,0,0,-10.397908,705.93027,333.74187)"
         id="g75839">
        <path
           inkscape:connector-curvature="0"
           id="path75841"
           style="fill:#918f90;fill-opacity:1;fill-rule:nonzero;stroke:none"
           d="m 0,0 -0.191,-0.714 c -0.135,-0.502 -0.58,-0.942 -1.2,-0.942 l -2.479,0 0.717,2.676 2.444,0 C 0.159,1.02 0.063,0.229 0,0 m -0.709,2.239 -3.435,0 -1.37,-5.114 4.123,0 c 1.203,0 2.119,0.759 2.413,1.845 l 0.192,0.714 c 0.291,1.08 -0.009,2.555 -1.923,2.555" />
      </g>
    </g>
  </g>
</svg>
