<?xml version="1.0" encoding="UTF-8" standalone="no"?>
<!-- Created with Inkscape (http://www.inkscape.org/) -->
<svg
   xmlns:svg="http://www.w3.org/2000/svg"
   xmlns="http://www.w3.org/2000/svg"
   version="1.0"
   width="744.09448"
   height="496.06299"
   id="svg2957">
  <defs
     id="defs2959" />
  <g
     id="layer1">
    <g
       transform="matrix(3.543307,0,0,3.543307,5.37707e-4,-7.045208e-4)"
       style="fill-rule:evenodd"
       id="Ebene_x0020_1">
  
  <g
   id="_48929816">
   <path
   d="M 5.2136,101.113 L 204.9996,101.113 L 204.9996,133.8466 L 5.2136,133.8466 L 5.2136,101.113 L 5.2136,101.113 z M 200.0996,117.1008 C 200.0996,111.4076 196.9696,108.7459 192.5334,108.7459 C 188.0725,108.7459 184.4003,112.0484 184.4003,117.5444 C 184.4003,122.6953 186.8895,125.928 191.9665,125.928 C 196.4766,125.928 200.0996,122.5967 200.0996,117.1008 z M 196.6738,117.3472 C 196.6738,121.3398 194.3571,123.0157 192.1883,123.0157 C 189.2062,123.0157 187.826,120.7237 187.826,117.1994 C 187.826,113.4532 189.9456,111.6294 192.2376,111.6294 C 195.0965,111.6294 196.6738,113.6504 196.6738,117.3472 L 196.6738,117.3472 z M 178.1118,125.6528 L 178.1118,109.017 L 174.9079,109.017 L 174.9079,125.6528 L 178.1118,125.6528 z M 168.4009,117.0515 C 168.4009,111.2105 165.1231,108.9184 159.9721,108.9184 C 157.9265,108.9184 155.9056,108.9924 154.5994,109.0417 L 154.5994,125.6281 C 156.0042,125.6815 157.5076,125.7555 159.2328,125.7555 C 164.6548,125.7555 168.4009,122.7693 168.4009,117.0515 L 168.4009,117.0515 z M 164.9505,117.2979 C 164.9505,121.2412 162.6831,123.0157 159.5532,123.0157 C 158.9124,123.0157 158.2469,122.9664 157.8033,122.8925 L 157.8033,111.6787 C 158.3209,111.6294 159.011,111.6048 159.7503,111.6048 C 163.5457,111.6048 164.9505,113.7243 164.9505,117.2979 z M 148.9695,125.6528 L 143.0299,109.017 L 139.407,109.017 L 133.5906,125.6528 L 136.8192,125.6528 L 137.9776,122.2517 L 144.2622,122.2517 L 145.4205,125.6528 L 148.9695,125.6528 L 148.9695,125.6528 z M 143.4242,119.7132 L 138.7909,119.7132 L 140.2942,115.4742 C 140.6146,114.513 140.8857,113.5518 141.0829,112.6892 L 141.1076,112.6892 C 141.3047,113.6257 141.5512,114.439 141.8716,115.3509 L 143.4242,119.7132 L 143.4242,119.7132 z M 129.397,125.6528 L 125.4044,120.0582 C 124.9854,119.4914 124.5171,118.8506 124.0489,118.2345 C 126.5627,117.8401 128.2879,116.0657 128.2879,113.6011 C 128.2879,110.2 125.9219,108.9184 122.2497,108.9184 C 120.3274,108.9184 118.7747,108.9431 117.4685,109.017 L 117.4685,125.6528 L 120.6724,125.6528 L 120.6724,118.7767 L 120.7956,118.7767 L 125.429,125.6528 L 129.397,125.6528 L 129.397,125.6528 z M 124.9361,113.9215 C 124.9361,115.4742 123.7531,116.46 121.8308,116.46 C 121.3379,116.46 120.8942,116.4353 120.6724,116.4107 L 120.6724,111.6048 C 120.9928,111.5555 121.4611,111.5309 121.9293,111.5309 C 123.9503,111.5309 124.9361,112.3195 124.9361,113.9215 L 124.9361,113.9215 z M 111.3644,125.6528 L 107.3718,120.0582 C 106.9528,119.4914 106.4845,118.8506 106.0163,118.2345 C 108.5301,117.8401 110.2553,116.0657 110.2553,113.6011 C 110.2553,110.2 107.8893,108.9184 104.2171,108.9184 C 102.2948,108.9184 100.7421,108.9431 99.4359,109.017 L 99.4359,125.6528 L 102.6398,125.6528 L 102.6398,118.7767 L 102.763,118.7767 L 107.3964,125.6528 L 111.3644,125.6528 L 111.3644,125.6528 z M 106.9035,113.9215 C 106.9035,115.4742 105.7205,116.46 103.7982,116.46 C 103.3053,116.46 102.8616,116.4353 102.6398,116.4107 L 102.6398,111.6048 C 102.9602,111.5555 103.4285,111.5309 103.8967,111.5309 C 105.9177,111.5309 106.9035,112.3195 106.9035,113.9215 L 106.9035,113.9215 z M 91.8667,119.1956 L 91.8667,109.017 L 88.6874,109.017 L 88.6874,119.3928 C 88.6874,122.2271 87.6523,123.2622 85.1877,123.2622 C 82.4274,123.2622 81.7373,121.7834 81.7373,119.6886 L 81.7373,109.017 L 78.5334,109.017 L 78.5334,119.8857 C 78.5334,123.065 79.7164,125.928 84.9659,125.928 C 89.3528,125.928 91.8667,123.7551 91.8667,119.1956 z M 72.7955,111.7527 L 72.7955,109.017 L 60.9656,109.017 L 60.9656,111.7527 L 65.2786,111.7527 L 65.2786,125.6528 L 68.4825,125.6528 L 68.4825,111.7527 L 72.7955,111.7527 z M 58.5507,125.6528 L 58.5507,122.8432 L 53.1533,122.8432 L 53.1533,109.017 L 49.9494,109.017 L 49.9494,125.6528 L 58.5507,125.6528 L 58.5507,125.6528 z M 42.2667,119.1956 L 42.2667,109.017 L 39.0874,109.017 L 39.0874,119.3928 C 39.0874,122.2271 38.0523,123.2622 35.5877,123.2622 C 32.8274,123.2622 32.1373,121.7834 32.1373,119.6886 L 32.1373,109.017 L 28.9334,109.017 L 28.9334,119.8857 C 28.9334,123.065 30.1164,125.928 35.3659,125.928 C 39.7528,125.928 42.2667,123.7551 42.2667,119.1956 L 42.2667,119.1956 z M 23.4398,125.6528 L 17.0812,117.0515 L 23.1687,109.017 L 19.2747,109.017 L 13.8773,116.5586 L 13.8773,109.017 L 10.6734,109.017 L 10.6734,125.6528 L 13.8773,125.6528 L 13.8773,117.6676 L 19.2254,125.6528 L 23.4398,125.6528 L 23.4398,125.6528 z "
   style="fill:#fec20f"
   id="_48025128" />

   <path
   d="M 59.6079,65.1452 C 59.6079,38.718 25.9164,43.7279 25.9164,30.577 C 25.9164,25.8176 29.6738,22.3107 37.8149,22.3107 C 42.8248,22.3107 48.0851,23.1874 52.8446,24.5651 L 53.9718,7.6568 C 48.7114,6.6547 43.0752,6.1538 38.5664,6.1538 C 17.3996,6.1538 5.0001,16.6745 5.0001,32.581 C 5.0001,60.8868 38.6916,53.4972 38.6916,67.9007 C 38.6916,73.9125 33.5565,76.9184 26.4173,76.9184 C 20.2803,76.9184 13.3916,75.5407 8.6323,73.7873 L 7.6303,91.8229 C 13.0159,93.0962 19.0278,93.7225 24.9144,93.7225 C 46.457,93.7225 59.6079,81.5526 59.6079,65.1452 L 59.6079,65.1452 z M 204.9939,92.1987 L 204.9939,73.6378 C 195.4626,73.6378 187.9379,73.6378 178.2812,74.1394 L 178.1558,74.014 L 183.2977,68.2451 C 196.9675,52.8194 202.8619,41.0307 202.8619,30.4961 C 202.8619,17.0771 194.4593,6.1663 176.4,6.1663 C 166.3671,6.1663 158.717,8.4237 153.0734,11.1827 L 156.0833,28.4896 C 159.9711,25.9813 165.74,23.9747 171.0073,23.9747 C 177.905,23.9747 181.5419,28.1133 181.5419,33.8823 C 181.5419,39.4004 178.1558,47.803 163.2318,64.2319 L 152.5718,75.8952 L 152.5718,92.1987 L 204.9939,92.1987 L 204.9939,92.1987 z M 135.3823,92.1986 L 117.4719,65.02 C 115.468,61.8888 113.2135,58.7576 110.959,55.5012 C 122.2314,52.7457 129.6209,43.4775 129.6209,32.0799 C 129.6209,14.1696 117.5971,7.0305 97.6829,7.0305 C 87.5378,7.0305 78.3948,7.1558 71.2557,7.6568 L 71.2557,92.1986 L 90.7943,92.1986 L 90.7943,59.1333 L 91.5458,59.1333 L 111.5853,92.1986 L 135.3823,92.1986 z M 109.2056,33.7081 C 109.2056,40.8473 103.9453,45.2309 95.6789,45.2309 C 93.8002,45.2309 91.7962,45.1057 90.7943,44.9804 L 90.7943,23.3126 C 91.9215,23.1874 94.1759,23.0622 96.1799,23.0622 C 105.323,23.0622 109.2056,27.07 109.2056,33.7081 L 109.2056,33.7081 z "
   id="_46864928" />

  </g>

 </g>
  </g>
</svg>
