<?xml version="1.0" encoding="UTF-8" standalone="no"?>
<!-- Created with Inkscape (http://www.inkscape.org/) -->

<svg
   xmlns:dc="http://purl.org/dc/elements/1.1/"
   xmlns:cc="http://creativecommons.org/ns#"
   xmlns:rdf="http://www.w3.org/1999/02/22-rdf-syntax-ns#"
   xmlns:svg="http://www.w3.org/2000/svg"
   xmlns="http://www.w3.org/2000/svg"
   xmlns:sodipodi="http://sodipodi.sourceforge.net/DTD/sodipodi-0.dtd"
   xmlns:inkscape="http://www.inkscape.org/namespaces/inkscape"
   width="708.66138"
   height="184.51373"
   id="svg23136"
   sodipodi:version="0.32"
   inkscape:version="0.91pre3 r13670"
   version="1.0"
   sodipodi:docname="sr fernsehen.svg"
   inkscape:output_extension="org.inkscape.output.svg.inkscape">
  <defs
     id="defs23138" />
  <sodipodi:namedview
     id="base"
     pagecolor="#ffffff"
     bordercolor="#666666"
     borderopacity="1.0"
     inkscape:pageopacity="0.0"
     inkscape:pageshadow="2"
     inkscape:zoom="0.98994949"
     inkscape:cx="189.38574"
     inkscape:cy="153.89404"
     inkscape:document-units="px"
     inkscape:current-layer="layer1"
     inkscape:window-width="1920"
     inkscape:window-height="1017"
     inkscape:window-x="-8"
     inkscape:window-y="-8"
     showgrid="false"
     inkscape:window-maximized="1" />
  <metadata
     id="metadata23141">
    <rdf:RDF>
      <cc:Work
         rdf:about="">
        <dc:format>image/svg+xml</dc:format>
        <dc:type
           rdf:resource="http://purl.org/dc/dcmitype/StillImage" />
      </cc:Work>
    </rdf:RDF>
  </metadata>
  <g
     inkscape:label="Ebene 1"
     inkscape:groupmode="layer"
     id="layer1"
     transform="translate(-290.35207,-385.92166)">
    <g
       id="g4174">
      <path
         d="m 586.10229,493.93975 c 0,-18.43484 -23.4356,-14.936 -23.4356,-24.11216 0,-3.31729 2.6406,-5.75997 8.2519,-5.75997 3.63088,0 7.26176,0.61001 10.56255,1.56793 l 0.82523,-11.78375 c -3.79593,-0.69319 -7.59186,-1.03913 -10.7276,-1.03913 -14.85347,0 -23.43547,7.32778 -23.43547,18.41834 0,19.7387 23.43547,14.58953 23.43547,24.62393 0,4.19191 -3.63088,6.28799 -8.58199,6.28799 -4.29106,0 -9.07713,-0.95727 -12.37792,-2.17861 l -0.66018,12.57598 c 3.79592,0.87408 7.92181,1.3032 12.04782,1.3032 15.01866,0 24.09579,-8.46646 24.09579,-19.90375"
         class="ps04 ps11 ps24"
         id="path8275"
         style="font-size:10px;font-family:fnt0;letter-spacing:0;word-spacing:0;fill:#e4e4e4;fill-rule:nonzero;stroke:none;stroke-width:0.285;stroke-linecap:butt;stroke-linejoin:miter;stroke-miterlimit:4;stroke-dasharray:none;fill-opacity:1"
         inkscape:connector-curvature="0" />
      <path
         d="m 634.12868,443.1077 c 0,-3.74641 -2.97069,-6.89865 -6.76662,-6.89865 -3.79592,0 -6.93166,3.15224 -6.93166,6.89865 0,3.84544 3.13574,6.89866 6.93166,6.89866 3.79593,0 6.76662,-3.05322 6.76662,-6.89866 m -18.15439,0 c 0,-3.74641 -3.13574,-6.89865 -6.93154,-6.89865 -3.79592,0 -6.93166,3.15224 -6.93166,6.89865 0,3.84544 3.13574,6.89866 6.93166,6.89866 3.7958,0 6.93154,-3.05322 6.93154,-6.89866 m 27.06648,46.54112 0,-35.79702 -13.36819,0 0,36.58911 c 0,8.82969 -2.9707,12.04796 -10.72746,12.04796 -8.41708,0 -10.56255,-4.35709 -10.56255,-11.25574 l 0,-37.38133 -13.53324,0 0,38.15704 c 0,11.80026 4.45611,21.91718 23.27056,21.91718 15.6787,0 24.92088,-7.67437 24.92088,-24.2772"
         class="ps04 ps11 ps24"
         id="path8277"
         style="font-size:10px;font-family:fnt0;letter-spacing:0;word-spacing:0;fill:#e4e4e4;fill-rule:nonzero;stroke:none;stroke-width:0.285;stroke-linecap:butt;stroke-linejoin:miter;stroke-miterlimit:4;stroke-dasharray:none;fill-opacity:1"
         inkscape:connector-curvature="0" />
      <path
         d="m 701.13457,482.13949 c 0,-20.94354 -11.88278,-28.63429 -29.54204,-28.63429 -7.92181,0 -15.51366,0.26408 -20.13481,0.52815 l 0,58.67133 c 5.44638,0.26408 11.38777,0.52815 17.49421,0.52815 19.30959,0 32.18264,-10.90901 32.18264,-31.09334 m -14.68843,1.05629 c 0,12.57598 -6.93166,18.33582 -16.33889,18.33582 -1.98055,0 -3.79592,-0.16505 -4.95124,-0.34726 l 0,-36.06109 c 1.48541,-0.18221 3.30078,-0.18221 5.61129,-0.18221 12.21301,0 15.67884,7.16273 15.67884,18.25342"
         class="ps04 ps11 ps24"
         id="path8279"
         style="font-size:10px;font-family:fnt0;letter-spacing:0;word-spacing:0;fill:#e4e4e4;fill-rule:nonzero;stroke:none;stroke-width:0.285;stroke-linecap:butt;stroke-linejoin:miter;stroke-miterlimit:4;stroke-dasharray:none;fill-opacity:1"
         inkscape:connector-curvature="0" />
      <path
         d="m 780.02324,453.8518 -13.53311,0 -6.60157,28.28769 c -0.99028,3.76292 -1.65046,7.8723 -2.31064,12.41093 l 0,0 c -0.66019,-4.45611 -1.48529,-8.82956 -2.31052,-12.14686 l -7.75676,-28.55176 -14.02838,0 -7.7569,29.07991 c -0.99027,3.92783 -1.65032,7.85579 -2.14546,11.96531 l -0.16505,0 c -0.33009,-4.19204 -0.99027,-8.56549 -1.98042,-12.31191 l -6.76662,-28.73331 -14.52351,0 14.68856,58.95191 15.51366,0 7.09671,-28.20517 c 0.99028,-4.19203 1.65033,-8.48296 2.14547,-13.02159 l 0,0 c 0.66018,4.90173 1.32037,9.52275 2.31051,13.45071 l 6.93167,27.77605 16.50393,0 14.68843,-58.95191 z"
         class="ps04 ps11 ps24"
         id="path8281"
         style="font-size:10px;font-family:fnt0;letter-spacing:0;word-spacing:0;fill:#e4e4e4;fill-rule:nonzero;stroke:none;stroke-width:0.285;stroke-linecap:butt;stroke-linejoin:miter;stroke-miterlimit:4;stroke-dasharray:none;fill-opacity:1"
         inkscape:connector-curvature="0" />
      <path
         d="m 819.3026,512.80371 0,-11.70123 -19.63968,0 0,-13.0216 18.48449,0 0,-11.09069 -18.48449,0 0,-11.70123 19.63968,0 0,-11.43716 -33.17279,0 0,58.95191 33.17279,0 z"
         class="ps04 ps11 ps24"
         id="path8283"
         style="font-size:10px;font-family:fnt0;letter-spacing:0;word-spacing:0;fill:#e4e4e4;fill-rule:nonzero;stroke:none;stroke-width:0.285;stroke-linecap:butt;stroke-linejoin:miter;stroke-miterlimit:4;stroke-dasharray:none;fill-opacity:1"
         inkscape:connector-curvature="0" />
      <path
         d="m 864.68839,493.93975 c 0,-18.43484 -23.4356,-14.936 -23.4356,-24.11216 0,-3.31729 2.64073,-5.75997 8.41708,-5.75997 3.46583,0 7.09671,0.61001 10.39749,1.56793 l 0.82523,-11.78375 c -3.63087,-0.69319 -7.59171,-1.03913 -10.72745,-1.03913 -14.85361,0 -23.43561,7.32778 -23.43561,18.41834 0,19.7387 23.43561,14.58953 23.43561,24.62393 0,4.19191 -3.46584,6.28799 -8.58213,6.28799 -4.29093,0 -9.07713,-0.95727 -12.37792,-2.17861 l -0.66018,12.57598 c 3.79592,0.87408 7.92194,1.3032 12.04796,1.3032 15.01852,0 24.09565,-8.46646 24.09565,-19.90375"
         class="ps04 ps11 ps24"
         id="path8285"
         style="font-size:10px;font-family:fnt0;letter-spacing:0;word-spacing:0;fill:#e4e4e4;fill-rule:nonzero;stroke:none;stroke-width:0.285;stroke-linecap:butt;stroke-linejoin:miter;stroke-miterlimit:4;stroke-dasharray:none;fill-opacity:1"
         inkscape:connector-curvature="0" />
      <path
         d="m 911.88955,465.47051 0,-11.61871 -41.75491,0 0,11.61871 14.02838,0 0,47.3332 13.53324,0 0,-47.3332 14.19329,0 z"
         class="ps04 ps11 ps24"
         id="path8287"
         style="font-size:10px;font-family:fnt0;letter-spacing:0;word-spacing:0;fill:#e4e4e4;fill-rule:nonzero;stroke:none;stroke-width:0.285;stroke-linecap:butt;stroke-linejoin:miter;stroke-miterlimit:4;stroke-dasharray:none;fill-opacity:1"
         inkscape:connector-curvature="0" />
      <path
         d="m 738.92851,521.86434 -22.44532,0 -8.582,44.84127 5.94139,0 3.96097,-20.31637 15.51367,0 0.99027,-4.91823 -15.51379,0 2.64073,-14.5564 16.33889,0 1.15533,-5.05027 z"
         class="ps04 ps11 ps24"
         id="path8289"
         style="font-size:10px;font-family:fnt0;letter-spacing:0;word-spacing:0;fill:#e4e4e4;fill-rule:nonzero;stroke:none;stroke-width:0.285;stroke-linecap:butt;stroke-linejoin:miter;stroke-miterlimit:4;stroke-dasharray:none;fill-opacity:1"
         inkscape:connector-curvature="0" />
      <path
         d="m 765.49986,540.59639 c 0,-3.91145 -2.64061,-7.49282 -9.73732,-7.49282 -10.89264,0 -17.98922,10.69458 -17.98922,23.50162 0,7.44318 3.46584,10.69445 11.05756,10.69445 4.29106,0 8.08698,-0.7262 11.38777,-1.98042 l 0,-4.7862 c -2.97069,1.18833 -6.27148,1.93104 -9.40722,1.93104 -5.28134,0 -7.09672,-1.33687 -7.09672,-6.45303 0,-1.18833 0.16505,-2.85517 0.3301,-3.84544 14.19329,-0.54399 21.45505,-4.45611 21.45505,-11.5692 m -5.94139,0.74205 c 0,3.97748 -4.45611,6.04055 -14.68857,6.43653 1.48542,-5.57829 4.95125,-10.1663 10.23246,-10.1663 2.6406,0 4.45611,1.33674 4.45611,3.72977"
         class="ps04 ps11 ps24"
         id="path8291"
         style="font-size:10px;font-family:fnt0;letter-spacing:0;word-spacing:0;fill:#e4e4e4;fill-rule:nonzero;stroke:none;stroke-width:0.285;stroke-linecap:butt;stroke-linejoin:miter;stroke-miterlimit:4;stroke-dasharray:none;fill-opacity:1"
         inkscape:connector-curvature="0" />
      <path
         d="m 793.22639,533.10357 c -6.43653,-1.07214 -10.39737,4.7697 -14.02825,12.80704 l -0.16504,-0.066 c 1.81537,-5.77634 2.80565,-9.29169 3.30079,-12.14685 l -5.61144,0 -6.27148,33.00787 5.77648,0 1.48528,-7.44331 c 1.65046,-9.15965 8.25203,-22.11523 14.35847,-20.38238 l 1.15532,-5.77635 z"
         class="ps04 ps11 ps24"
         id="path8293"
         style="font-size:10px;font-family:fnt0;letter-spacing:0;word-spacing:0;fill:#e4e4e4;fill-rule:nonzero;stroke:none;stroke-width:0.285;stroke-linecap:butt;stroke-linejoin:miter;stroke-miterlimit:4;stroke-dasharray:none;fill-opacity:1"
         inkscape:connector-curvature="0" />
      <path
         d="m 828.04977,544.26028 c 1.15532,-6.91516 -0.82523,-11.22273 -6.93167,-11.22273 -6.93166,0 -12.213,6.7006 -15.34874,13.68179 l -0.16505,0 c 2.31064,-7.0472 3.30079,-10.82662 3.63088,-13.0216 l -5.6113,0 c -0.99028,4.85208 -2.14547,11.02454 -2.97069,15.74472 l -3.30079,17.26315 5.77634,0 1.48542,-7.44331 c 1.48528,-8.16951 8.2519,-21.12509 14.35833,-21.12509 2.9707,0 3.96098,2.26113 2.9707,7.44331 l -4.12589,21.12509 5.77635,0 4.45611,-22.44533 z"
         class="ps04 ps11 ps24"
         id="path8295"
         style="font-size:10px;font-family:fnt0;letter-spacing:0;word-spacing:0;fill:#e4e4e4;fill-rule:nonzero;stroke:none;stroke-width:0.285;stroke-linecap:butt;stroke-linejoin:miter;stroke-miterlimit:4;stroke-dasharray:none;fill-opacity:1"
         inkscape:connector-curvature="0" />
      <path
         d="m 857.26158,533.5657 c -1.65032,-0.26407 -3.30078,-0.46213 -5.6113,-0.46213 -8.58199,0 -13.0381,4.37359 -13.0381,10.0179 0,7.97132 9.90236,8.84606 9.90236,14.09426 0,3.44933 -2.80565,5.18231 -7.26175,5.18231 -1.81538,0 -3.63075,-0.34594 -5.28121,-0.87408 l -1.15532,5.31435 c 1.65046,0.33009 3.46583,0.46212 5.61143,0.46212 9.40722,0 14.35834,-5.24819 14.35834,-10.76046 0,-7.42681 -10.06741,-8.8297 -10.06741,-14.0779 0,-2.78914 2.31064,-4.85208 6.60157,-4.85208 1.65046,0 3.30079,0.26407 4.95125,0.80806 l 0.99028,-4.85209 z"
         class="ps04 ps11 ps24"
         id="path8297"
         style="font-size:10px;font-family:fnt0;letter-spacing:0;word-spacing:0;fill:#e4e4e4;fill-rule:nonzero;stroke:none;stroke-width:0.285;stroke-linecap:butt;stroke-linejoin:miter;stroke-miterlimit:4;stroke-dasharray:none;fill-opacity:1"
         inkscape:connector-curvature="0" />
      <path
         d="m 890.4345,540.59639 c 0,-3.91145 -2.6406,-7.49282 -9.57227,-7.49282 -11.05755,0 -18.15426,10.69458 -18.15426,23.50162 0,7.44318 3.63088,10.69445 11.2226,10.69445 4.29106,0 8.08698,-0.7262 11.22272,-1.98042 l 0,-4.7862 c -2.80564,1.18833 -6.10643,1.93104 -9.24217,1.93104 -5.28134,0 -7.09672,-1.33687 -7.09672,-6.45303 0,-1.18833 0.16505,-2.85517 0.3301,-3.84544 14.19329,-0.54399 21.29,-4.45611 21.29,-11.5692 m -5.77634,0.74205 c 0,3.97748 -4.62116,6.04055 -14.85348,6.43653 1.65033,-5.57829 5.11616,-10.1663 10.39737,-10.1663 2.6406,0 4.45611,1.33674 4.45611,3.72977"
         class="ps04 ps11 ps24"
         id="path8299"
         style="font-size:10px;font-family:fnt0;letter-spacing:0;word-spacing:0;fill:#e4e4e4;fill-rule:nonzero;stroke:none;stroke-width:0.285;stroke-linecap:butt;stroke-linejoin:miter;stroke-miterlimit:4;stroke-dasharray:none;fill-opacity:1"
         inkscape:connector-curvature="0" />
      <path
         d="m 927.56839,544.26028 c 1.32037,-6.91516 -0.82523,-11.22273 -6.93167,-11.22273 -6.93166,0 -12.21287,6.7006 -15.34861,13.68179 l -0.16505,0 c 2.47556,-7.24526 3.13575,-10.43051 3.7958,-13.0216 l 2.97069,-15.48065 -5.94139,0 -9.24218,48.48852 5.94139,0 1.32037,-7.44331 c 1.65033,-8.16951 8.41695,-21.12509 14.52339,-21.12509 2.97069,0 3.96097,2.26113 2.80578,7.44331 l -3.96097,21.12509 5.77634,0 4.45611,-22.44533 z"
         class="ps04 ps11 ps24"
         id="path8301"
         style="font-size:10px;font-family:fnt0;letter-spacing:0;word-spacing:0;fill:#e4e4e4;fill-rule:nonzero;stroke:none;stroke-width:0.285;stroke-linecap:butt;stroke-linejoin:miter;stroke-miterlimit:4;stroke-dasharray:none;fill-opacity:1"
         inkscape:connector-curvature="0" />
      <path
         d="m 962.39164,540.59639 c 0,-3.91145 -2.64061,-7.49282 -9.73732,-7.49282 -11.05768,0 -18.15439,10.69458 -18.15439,23.50162 0,7.44318 3.63087,10.69445 11.22272,10.69445 4.29107,0 8.08686,-0.7262 11.38765,-1.98042 l 0,-4.7862 c -2.9707,1.18833 -6.27148,1.93104 -9.40723,1.93104 -5.2812,0 -7.09658,-1.33687 -7.09658,-6.45303 0,-1.18833 0.16505,-2.85517 0.3301,-3.84544 14.19342,-0.54399 21.45518,-4.45611 21.45518,-11.5692 m -5.94139,0.74205 c 0,3.97748 -4.45611,6.04055 -14.85361,6.43653 1.65046,-5.57829 5.11629,-10.1663 10.3975,-10.1663 2.6406,0 4.45611,1.33674 4.45611,3.72977"
         class="ps04 ps11 ps24"
         id="path8303"
         style="font-size:10px;font-family:fnt0;letter-spacing:0;word-spacing:0;fill:#e4e4e4;fill-rule:nonzero;stroke:none;stroke-width:0.285;stroke-linecap:butt;stroke-linejoin:miter;stroke-miterlimit:4;stroke-dasharray:none;fill-opacity:1"
         inkscape:connector-curvature="0" />
      <path
         d="m 998.70016,544.26028 c 1.15533,-6.91516 -0.82523,-11.22273 -6.93153,-11.22273 -6.93167,0 -12.21301,6.7006 -15.34875,13.68179 l -0.16504,0 c 2.31064,-7.0472 3.30078,-10.82662 3.79592,-13.0216 l -5.94139,0 c -0.82523,4.85208 -1.98042,11.02454 -2.80565,15.74472 l -3.30078,17.26315 5.77634,0 1.32037,-7.44331 c 1.65032,-8.16951 8.41695,-21.12509 14.52338,-21.12509 2.9707,0 3.96097,2.26113 2.9707,7.44331 l -4.12589,21.12509 5.77635,0 4.45597,-22.44533 z"
         class="ps04 ps11 ps24"
         id="path8305"
         style="font-size:10px;font-family:fnt0;letter-spacing:0;word-spacing:0;fill:#e4e4e4;fill-rule:nonzero;stroke:none;stroke-width:0.285;stroke-linecap:butt;stroke-linejoin:miter;stroke-miterlimit:4;stroke-dasharray:none;fill-opacity:1"
         inkscape:connector-curvature="0" />
      <path
         d="m 366.76518,475.835 c 0,-36.12711 -46.04597,-29.27797 -46.04597,-47.25081 0,-6.50242 5.28134,-11.28862 16.33889,-11.28862 6.76662,0 14.02838,1.18833 20.46491,3.06973 l 1.65032,-23.10551 c -7.26162,-1.36975 -15.01852,-2.04644 -21.12495,-2.04644 -28.88186,0 -45.88093,14.37484 -45.88093,36.1106 0,38.68519 46.04597,28.58477 46.04597,48.27396 0,8.20239 -6.93166,12.31191 -16.66898,12.31191 -8.41695,0 -17.8243,-1.88153 -24.42575,-4.27456 l -1.32036,24.6403 c 7.26175,1.71648 15.51366,2.57472 23.60064,2.57472 29.37686,0 47.36621,-16.60296 47.36621,-39.01528"
         class="ps04 ps11 ps24"
         id="path8307"
         style="font-size:10px;font-family:fnt0;letter-spacing:0;word-spacing:0;fill:#e4e4e4;fill-rule:nonzero;stroke:none;stroke-width:0.285;stroke-linecap:butt;stroke-linejoin:miter;stroke-miterlimit:4;stroke-dasharray:none;fill-opacity:1"
         inkscape:connector-curvature="0" />
      <path
         d="M 470.40982,512.80371 445.8189,475.65345 c -2.80565,-4.27456 -5.77634,-8.54899 -8.74704,-13.0051 15.34861,-3.76291 25.41602,-16.43791 25.41602,-32.00109 0,-24.47539 -16.33889,-34.22921 -43.57028,-34.22921 -13.86334,0 -26.4063,0.16505 -36.14362,0.8424 l 0,115.54392 26.73639,0 0,-45.18774 0.99028,0 27.39657,45.18774 32.51274,0 z M 434.5963,432.85875 c 0,9.77032 -7.26176,15.76123 -18.48435,15.76123 -2.64074,0 -5.28134,-0.18221 -6.60158,-0.34726 l 0,-29.60793 c 1.48528,-0.18221 4.62103,-0.34725 7.26163,-0.34725 12.54296,0 17.8243,5.47926 17.8243,14.53989"
         class="ps04 ps11 ps24"
         id="path8309"
         style="font-size:10px;font-family:fnt0;letter-spacing:0;word-spacing:0;fill:#e4e4e4;fill-rule:nonzero;stroke:none;stroke-width:0.285;stroke-linecap:butt;stroke-linejoin:miter;stroke-miterlimit:4;stroke-dasharray:none;fill-opacity:1"
         inkscape:connector-curvature="0" />
      <path
         d="m 290.35207,525.72628 179.72766,0 0,44.7091 -179.72766,0 0,-44.7091 z"
         class="ps035 ps11 ps24"
         id="path8311"
         style="font-size:10px;font-family:fnt0;letter-spacing:0;word-spacing:0;fill:#003e89;fill-rule:nonzero;stroke:none;stroke-width:0.285;stroke-linecap:butt;stroke-linejoin:miter;stroke-miterlimit:4;stroke-dasharray:none"
         inkscape:connector-curvature="0" />
      <path
         d="m 505.89325,385.92166 c 15.34862,0 27.72654,12.39442 27.72654,27.69352 0,15.24959 -12.37792,27.66065 -27.72654,27.66065 -15.1837,0 -27.56162,-12.41106 -27.56162,-27.66065 0,-15.2991 12.37792,-27.69352 27.56162,-27.69352 m 11.2226,38.86674 0,-27.67716 -27.89158,9.98489 0,6.88215 9.24218,-3.3338 0,20.81151 18.6494,-6.66759 z m -11.2226,-34.79037 c -13.0381,0 -23.60064,10.54604 -23.60064,23.61715 0,13.0216 10.56254,23.60065 23.60064,23.60065 13.20315,0 23.76557,-10.57905 23.76557,-23.60065 0,-13.07111 -10.56242,-23.61715 -23.76557,-23.61715"
         class="ps04 ps11 ps24"
         id="path8313"
         style="font-size:10px;font-family:fnt0;letter-spacing:0;word-spacing:0;fill:#e4e4e4;fill-rule:nonzero;stroke:none;stroke-width:0.285;stroke-linecap:butt;stroke-linejoin:miter;stroke-miterlimit:4;stroke-dasharray:none;fill-opacity:1"
         inkscape:connector-curvature="0" />
    </g>
  </g>
</svg>
