<?xml version="1.0" encoding="UTF-8" standalone="no"?>
<!-- Created with Inkscape (http://www.inkscape.org/) -->
<svg
   xmlns:dc="http://purl.org/dc/elements/1.1/"
   xmlns:cc="http://web.resource.org/cc/"
   xmlns:rdf="http://www.w3.org/1999/02/22-rdf-syntax-ns#"
   xmlns:svg="http://www.w3.org/2000/svg"
   xmlns="http://www.w3.org/2000/svg"
   xmlns:sodipodi="http://sodipodi.sourceforge.net/DTD/sodipodi-0.dtd"
   xmlns:inkscape="http://www.inkscape.org/namespaces/inkscape"
   width="708.66138"
   height="184.51373"
   id="svg23136"
   sodipodi:version="0.32"
   inkscape:version="0.46dev+devel"
   version="1.0"
   sodipodi:docname="sr_logo.svg"
   inkscape:output_extension="org.inkscape.output.svg.inkscape">
  <defs
     id="defs23138" />
  <sodipodi:namedview
     id="base"
     pagecolor="#ffffff"
     bordercolor="#666666"
     borderopacity="1.0"
     inkscape:pageopacity="0.0"
     inkscape:pageshadow="2"
     inkscape:zoom="0.98994949"
     inkscape:cx="350"
     inkscape:cy="153.89404"
     inkscape:document-units="px"
     inkscape:current-layer="layer1"
     inkscape:window-width="1400"
     inkscape:window-height="994"
     inkscape:window-x="-4"
     inkscape:window-y="-4" />
  <metadata
     id="metadata23141">
    <rdf:RDF>
      <cc:Work
         rdf:about="">
        <dc:format>image/svg+xml</dc:format>
        <dc:type
           rdf:resource="http://purl.org/dc/dcmitype/StillImage" />
      </cc:Work>
    </rdf:RDF>
  </metadata>
  <g
     inkscape:label="Ebene 1"
     inkscape:groupmode="layer"
     id="layer1"
     transform="translate(-290.35207,-385.92166)">
    <g
       id="g23164"
       transform="matrix(13.203677,0,0,13.203677,-3543.3638,-6961.4115)">
      <path
         d="M 312.75122,564.64205 C 312.75122,563.24586 310.97629,563.51085 310.97629,562.81588 C 310.97629,562.56464 311.17628,562.37964 311.60126,562.37964 C 311.87625,562.37964 312.15124,562.42589 312.40123,562.49839 L 312.46373,561.60593 C 312.17624,561.55343 311.88875,561.52718 311.65126,561.52718 C 310.52631,561.52718 309.87634,562.08216 309.87634,562.92212 C 309.87634,564.41706 311.65126,564.02708 311.65126,564.78705 C 311.65126,565.10453 311.37627,565.26328 311.00129,565.26328 C 310.6763,565.26328 310.31382,565.19078 310.06383,565.09828 L 310.01383,566.05074 C 310.30132,566.11699 310.6138,566.14949 310.92629,566.14949 C 312.06375,566.14949 312.75122,565.50827 312.75122,564.64205"
         class="ps04 ps11 ps24"
         id="path8275"
         style="font-size:10px;letter-spacing:0;word-spacing:0;fill:#000000;fill-rule:nonzero;stroke:none;stroke-width:0.285;stroke-linecap:butt;stroke-linejoin:miter;stroke-miterlimit:4;stroke-dasharray:none;font-family:fnt0" />
      <path
         d="M 316.38857,560.79221 C 316.38857,560.50847 316.16358,560.26973 315.87609,560.26973 C 315.5886,560.26973 315.35111,560.50847 315.35111,560.79221 C 315.35111,561.08345 315.5886,561.31469 315.87609,561.31469 C 316.16358,561.31469 316.38857,561.08345 316.38857,560.79221 M 315.01362,560.79221 C 315.01362,560.50847 314.77613,560.26973 314.48865,560.26973 C 314.20116,560.26973 313.96367,560.50847 313.96367,560.79221 C 313.96367,561.08345 314.20116,561.31469 314.48865,561.31469 C 314.77613,561.31469 315.01362,561.08345 315.01362,560.79221 M 317.06354,564.31707 L 317.06354,561.60593 L 316.05108,561.60593 L 316.05108,564.37706 C 316.05108,565.04579 315.82609,565.28953 315.23862,565.28953 C 314.60114,565.28953 314.43865,564.95954 314.43865,564.43706 L 314.43865,561.60593 L 313.41369,561.60593 L 313.41369,564.49581 C 313.41369,565.38952 313.75118,566.15574 315.17612,566.15574 C 316.36357,566.15574 317.06354,565.57451 317.06354,564.31707"
         class="ps04 ps11 ps24"
         id="path8277"
         style="font-size:10px;letter-spacing:0;word-spacing:0;fill:#000000;fill-rule:nonzero;stroke:none;stroke-width:0.285;stroke-linecap:butt;stroke-linejoin:miter;stroke-miterlimit:4;stroke-dasharray:none;font-family:fnt0" />
      <path
         d="M 321.46336,563.74834 C 321.46336,562.16215 320.5634,561.57968 319.22595,561.57968 C 318.62598,561.57968 318.051,561.59968 317.70101,561.61968 L 317.70101,566.06324 C 318.1135,566.08324 318.56348,566.10324 319.02596,566.10324 C 320.4884,566.10324 321.46336,565.27703 321.46336,563.74834 M 320.35091,563.82834 C 320.35091,564.7808 319.82593,565.21703 319.11346,565.21703 C 318.96346,565.21703 318.82597,565.20453 318.73847,565.19078 L 318.73847,562.45964 C 318.85097,562.44589 318.98846,562.44589 319.16345,562.44589 C 320.08842,562.44589 320.35091,562.98837 320.35091,563.82834"
         class="ps04 ps11 ps24"
         id="path8279"
         style="font-size:10px;letter-spacing:0;word-spacing:0;fill:#000000;fill-rule:nonzero;stroke:none;stroke-width:0.285;stroke-linecap:butt;stroke-linejoin:miter;stroke-miterlimit:4;stroke-dasharray:none;font-family:fnt0" />
      <path
         d="M 327.43811,561.60593 L 326.41316,561.60593 L 325.91318,563.74834 C 325.83818,564.03333 325.78818,564.34456 325.73818,564.6883 L 325.73818,564.6883 C 325.68819,564.35081 325.62569,564.01958 325.56319,563.76834 L 324.97572,561.60593 L 323.91326,561.60593 L 323.32578,563.80834 C 323.25079,564.10582 323.20079,564.40331 323.16329,564.71455 L 323.15079,564.71455 C 323.12579,564.39706 323.07579,564.06583 323.0008,563.78209 L 322.48832,561.60593 L 321.38836,561.60593 L 322.50082,566.07074 L 323.67577,566.07074 L 324.21325,563.93458 C 324.28824,563.61709 324.33824,563.29211 324.37574,562.94837 L 324.37574,562.94837 C 324.42574,563.31961 324.47574,563.66959 324.55073,563.96708 L 325.07571,566.07074 L 326.32566,566.07074 L 327.43811,561.60593 z"
         class="ps04 ps11 ps24"
         id="path8281"
         style="font-size:10px;letter-spacing:0;word-spacing:0;fill:#000000;fill-rule:nonzero;stroke:none;stroke-width:0.285;stroke-linecap:butt;stroke-linejoin:miter;stroke-miterlimit:4;stroke-dasharray:none;font-family:fnt0" />
      <path
         d="M 330.41299,566.07074 L 330.41299,565.18453 L 328.92555,565.18453 L 328.92555,564.19832 L 330.3255,564.19832 L 330.3255,563.35835 L 328.92555,563.35835 L 328.92555,562.47214 L 330.41299,562.47214 L 330.41299,561.60593 L 327.9006,561.60593 L 327.9006,566.07074 L 330.41299,566.07074 z"
         class="ps04 ps11 ps24"
         id="path8283"
         style="font-size:10px;letter-spacing:0;word-spacing:0;fill:#000000;fill-rule:nonzero;stroke:none;stroke-width:0.285;stroke-linecap:butt;stroke-linejoin:miter;stroke-miterlimit:4;stroke-dasharray:none;font-family:fnt0" />
      <path
         d="M 333.85035,564.64205 C 333.85035,563.24586 332.07542,563.51085 332.07542,562.81588 C 332.07542,562.56464 332.27542,562.37964 332.7129,562.37964 C 332.97539,562.37964 333.25038,562.42589 333.50037,562.49839 L 333.56286,561.60593 C 333.28787,561.55343 332.98789,561.52718 332.7504,561.52718 C 331.62544,561.52718 330.97547,562.08216 330.97547,562.92212 C 330.97547,564.41706 332.7504,564.02708 332.7504,564.78705 C 332.7504,565.10453 332.48791,565.26328 332.10042,565.26328 C 331.77544,565.26328 331.41295,565.19078 331.16296,565.09828 L 331.11296,566.05074 C 331.40045,566.11699 331.71294,566.14949 332.02543,566.14949 C 333.16288,566.14949 333.85035,565.50827 333.85035,564.64205"
         class="ps04 ps11 ps24"
         id="path8285"
         style="font-size:10px;letter-spacing:0;word-spacing:0;fill:#000000;fill-rule:nonzero;stroke:none;stroke-width:0.285;stroke-linecap:butt;stroke-linejoin:miter;stroke-miterlimit:4;stroke-dasharray:none;font-family:fnt0" />
      <path
         d="M 337.4252,562.48589 L 337.4252,561.60593 L 334.26283,561.60593 L 334.26283,562.48589 L 335.32529,562.48589 L 335.32529,566.07074 L 336.35025,566.07074 L 336.35025,562.48589 L 337.4252,562.48589 z"
         class="ps04 ps11 ps24"
         id="path8287"
         style="font-size:10px;letter-spacing:0;word-spacing:0;fill:#000000;fill-rule:nonzero;stroke:none;stroke-width:0.285;stroke-linecap:butt;stroke-linejoin:miter;stroke-miterlimit:4;stroke-dasharray:none;font-family:fnt0" />
      <path
         d="M 324.32574,566.75696 L 322.62581,566.75696 L 321.97584,570.15308 L 322.42582,570.15308 L 322.72581,568.61439 L 323.90076,568.61439 L 323.97576,568.2419 L 322.8008,568.2419 L 323.0008,567.13945 L 324.23825,567.13945 L 324.32574,566.75696 z"
         class="ps04 ps11 ps24"
         id="path8289"
         style="font-size:10px;letter-spacing:0;word-spacing:0;fill:#000000;fill-rule:nonzero;stroke:none;stroke-width:0.285;stroke-linecap:butt;stroke-linejoin:miter;stroke-miterlimit:4;stroke-dasharray:none;font-family:fnt0" />
      <path
         d="M 326.33816,568.17566 C 326.33816,567.87942 326.13817,567.60818 325.60069,567.60818 C 324.77572,567.60818 324.23825,568.41815 324.23825,569.38811 C 324.23825,569.95183 324.50074,570.19807 325.07571,570.19807 C 325.4007,570.19807 325.68819,570.14308 325.93818,570.04808 L 325.93818,569.68559 C 325.71319,569.77559 325.4632,569.83184 325.22571,569.83184 C 324.82572,569.83184 324.68823,569.73059 324.68823,569.34311 C 324.68823,569.25311 324.70073,569.12687 324.71323,569.05187 C 325.78818,569.01062 326.33816,568.71438 326.33816,568.17566 M 325.88818,568.2319 C 325.88818,568.53314 325.55069,568.68939 324.77572,568.71938 C 324.88822,568.2969 325.15071,567.94942 325.55069,567.94942 C 325.75068,567.94942 325.88818,568.05066 325.88818,568.2319"
         class="ps04 ps11 ps24"
         id="path8291"
         style="font-size:10px;letter-spacing:0;word-spacing:0;fill:#000000;fill-rule:nonzero;stroke:none;stroke-width:0.285;stroke-linecap:butt;stroke-linejoin:miter;stroke-miterlimit:4;stroke-dasharray:none;font-family:fnt0" />
      <path
         d="M 328.43807,567.60818 C 327.95059,567.52693 327.65061,567.96942 327.37562,568.57814 L 327.36312,568.57314 C 327.50061,568.13566 327.57561,567.86942 327.61311,567.65318 L 327.18812,567.65318 L 326.71314,570.15308 L 327.15063,570.15308 L 327.26312,569.58935 C 327.38812,568.89563 327.8881,567.91442 328.35058,568.04566 L 328.43807,567.60818 z"
         class="ps04 ps11 ps24"
         id="path8293"
         style="font-size:10px;letter-spacing:0;word-spacing:0;fill:#000000;fill-rule:nonzero;stroke:none;stroke-width:0.285;stroke-linecap:butt;stroke-linejoin:miter;stroke-miterlimit:4;stroke-dasharray:none;font-family:fnt0" />
      <path
         d="M 331.07547,568.45315 C 331.16296,567.92942 331.01297,567.60318 330.55049,567.60318 C 330.02551,567.60318 329.62552,568.11066 329.38803,568.63939 L 329.37553,568.63939 C 329.55053,568.10566 329.62552,567.81942 329.65052,567.65318 L 329.22554,567.65318 C 329.15054,568.02066 329.06305,568.48814 329.00055,568.84563 L 328.75056,570.15308 L 329.18804,570.15308 L 329.30054,569.58935 C 329.41303,568.97062 329.92551,567.98941 330.38799,567.98941 C 330.61298,567.98941 330.68798,568.16066 330.61298,568.55314 L 330.3005,570.15308 L 330.73798,570.15308 L 331.07547,568.45315 z"
         class="ps04 ps11 ps24"
         id="path8295"
         style="font-size:10px;letter-spacing:0;word-spacing:0;fill:#000000;fill-rule:nonzero;stroke:none;stroke-width:0.285;stroke-linecap:butt;stroke-linejoin:miter;stroke-miterlimit:4;stroke-dasharray:none;font-family:fnt0" />
      <path
         d="M 333.28787,567.64318 C 333.16288,567.62318 333.03788,567.60818 332.86289,567.60818 C 332.21292,567.60818 331.87543,567.93942 331.87543,568.3669 C 331.87543,568.97062 332.6254,569.03687 332.6254,569.43435 C 332.6254,569.69559 332.41291,569.82684 332.07542,569.82684 C 331.93793,569.82684 331.80044,569.80059 331.67544,569.76059 L 331.58794,570.16308 C 331.71294,570.18807 331.85043,570.19807 332.01293,570.19807 C 332.7254,570.19807 333.10038,569.80059 333.10038,569.38311 C 333.10038,568.82063 332.33791,568.71438 332.33791,568.3169 C 332.33791,568.10566 332.51291,567.94942 332.83789,567.94942 C 332.96289,567.94942 333.08788,567.96942 333.21288,568.01066 L 333.28787,567.64318 z"
         class="ps04 ps11 ps24"
         id="path8297"
         style="font-size:10px;letter-spacing:0;word-spacing:0;fill:#000000;fill-rule:nonzero;stroke:none;stroke-width:0.285;stroke-linecap:butt;stroke-linejoin:miter;stroke-miterlimit:4;stroke-dasharray:none;font-family:fnt0" />
      <path
         d="M 335.80027,568.17566 C 335.80027,567.87942 335.60028,567.60818 335.0753,567.60818 C 334.23784,567.60818 333.70036,568.41815 333.70036,569.38811 C 333.70036,569.95183 333.97535,570.19807 334.55032,570.19807 C 334.87531,570.19807 335.1628,570.14308 335.40029,570.04808 L 335.40029,569.68559 C 335.1878,569.77559 334.93781,569.83184 334.70032,569.83184 C 334.30033,569.83184 334.16284,569.73059 334.16284,569.34311 C 334.16284,569.25311 334.17534,569.12687 334.18784,569.05187 C 335.26279,569.01062 335.80027,568.71438 335.80027,568.17566 M 335.36279,568.2319 C 335.36279,568.53314 335.0128,568.68939 334.23784,568.71938 C 334.36283,568.2969 334.62532,567.94942 335.0253,567.94942 C 335.22529,567.94942 335.36279,568.05066 335.36279,568.2319"
         class="ps04 ps11 ps24"
         id="path8299"
         style="font-size:10px;letter-spacing:0;word-spacing:0;fill:#000000;fill-rule:nonzero;stroke:none;stroke-width:0.285;stroke-linecap:butt;stroke-linejoin:miter;stroke-miterlimit:4;stroke-dasharray:none;font-family:fnt0" />
      <path
         d="M 338.61266,568.45315 C 338.71265,567.92942 338.55016,567.60318 338.08768,567.60318 C 337.5627,567.60318 337.16272,568.11066 336.92523,568.63939 L 336.91273,568.63939 C 337.10022,568.09066 337.15022,567.84942 337.20021,567.65318 L 337.4252,566.48073 L 336.97522,566.48073 L 336.27525,570.15308 L 336.72523,570.15308 L 336.82523,569.58935 C 336.95022,568.97062 337.4627,567.98941 337.92518,567.98941 C 338.15017,567.98941 338.22517,568.16066 338.13768,568.55314 L 337.83769,570.15308 L 338.27517,570.15308 L 338.61266,568.45315 z"
         class="ps04 ps11 ps24"
         id="path8301"
         style="font-size:10px;letter-spacing:0;word-spacing:0;fill:#000000;fill-rule:nonzero;stroke:none;stroke-width:0.285;stroke-linecap:butt;stroke-linejoin:miter;stroke-miterlimit:4;stroke-dasharray:none;font-family:fnt0" />
      <path
         d="M 341.25005,568.17566 C 341.25005,567.87942 341.05006,567.60818 340.51258,567.60818 C 339.67511,567.60818 339.13763,568.41815 339.13763,569.38811 C 339.13763,569.95183 339.41262,570.19807 339.9876,570.19807 C 340.31259,570.19807 340.60007,570.14308 340.85006,570.04808 L 340.85006,569.68559 C 340.62507,569.77559 340.37508,569.83184 340.13759,569.83184 C 339.73761,569.83184 339.60012,569.73059 339.60012,569.34311 C 339.60012,569.25311 339.61261,569.12687 339.62511,569.05187 C 340.70007,569.01062 341.25005,568.71438 341.25005,568.17566 M 340.80007,568.2319 C 340.80007,568.53314 340.46258,568.68939 339.67511,568.71938 C 339.80011,568.2969 340.0626,567.94942 340.46258,567.94942 C 340.66257,567.94942 340.80007,568.05066 340.80007,568.2319"
         class="ps04 ps11 ps24"
         id="path8303"
         style="font-size:10px;letter-spacing:0;word-spacing:0;fill:#000000;fill-rule:nonzero;stroke:none;stroke-width:0.285;stroke-linecap:butt;stroke-linejoin:miter;stroke-miterlimit:4;stroke-dasharray:none;font-family:fnt0" />
      <path
         d="M 343.99993,568.45315 C 344.08743,567.92942 343.93744,567.60318 343.47496,567.60318 C 342.94998,567.60318 342.54999,568.11066 342.3125,568.63939 L 342.3,568.63939 C 342.475,568.10566 342.54999,567.81942 342.58749,567.65318 L 342.13751,567.65318 C 342.07501,568.02066 341.98752,568.48814 341.92502,568.84563 L 341.67503,570.15308 L 342.11251,570.15308 L 342.21251,569.58935 C 342.3375,568.97062 342.84998,567.98941 343.31246,567.98941 C 343.53745,567.98941 343.61245,568.16066 343.53745,568.55314 L 343.22497,570.15308 L 343.66245,570.15308 L 343.99993,568.45315 z"
         class="ps04 ps11 ps24"
         id="path8305"
         style="font-size:10px;letter-spacing:0;word-spacing:0;fill:#000000;fill-rule:nonzero;stroke:none;stroke-width:0.285;stroke-linecap:butt;stroke-linejoin:miter;stroke-miterlimit:4;stroke-dasharray:none;font-family:fnt0" />
      <path
         d="M 296.1394,563.27086 C 296.1394,560.53472 292.65204,561.05345 292.65204,559.69225 C 292.65204,559.19978 293.05203,558.83729 293.88949,558.83729 C 294.40197,558.83729 294.95195,558.92729 295.43943,559.06978 L 295.56442,557.31985 C 295.01445,557.21611 294.42697,557.16486 293.96449,557.16486 C 291.77708,557.16486 290.48963,558.25356 290.48963,559.89975 C 290.48963,562.82963 293.97699,562.06466 293.97699,563.55585 C 293.97699,564.17707 293.45201,564.48831 292.71454,564.48831 C 292.07707,564.48831 291.36459,564.34581 290.86462,564.16457 L 290.76462,566.03074 C 291.3146,566.16074 291.93957,566.22574 292.55205,566.22574 C 294.77695,566.22574 296.1394,564.96829 296.1394,563.27086"
         class="ps04 ps11 ps24"
         id="path8307"
         style="font-size:10px;letter-spacing:0;word-spacing:0;fill:#000000;fill-rule:nonzero;stroke:none;stroke-width:0.285;stroke-linecap:butt;stroke-linejoin:miter;stroke-miterlimit:4;stroke-dasharray:none;font-family:fnt0" />
      <path
         d="M 303.98908,566.07074 L 302.12665,563.25711 C 301.91416,562.93337 301.68917,562.60964 301.46418,562.27215 C 302.62663,561.98716 303.3891,561.0272 303.3891,559.8485 C 303.3891,557.99482 302.15165,557.2561 300.08924,557.2561 C 299.03928,557.2561 298.08932,557.2686 297.35185,557.31985 L 297.35185,566.07074 L 299.37677,566.07074 L 299.37677,562.64838 L 299.45176,562.64838 L 301.52668,566.07074 L 303.98908,566.07074 z M 301.27669,560.01599 C 301.27669,560.75596 300.72671,561.20969 299.87675,561.20969 C 299.67675,561.20969 299.47676,561.19594 299.37677,561.18344 L 299.37677,558.94104 C 299.48926,558.92729 299.72675,558.91479 299.92674,558.91479 C 300.8767,558.91479 301.27669,559.32977 301.27669,560.01599"
         class="ps04 ps11 ps24"
         id="path8309"
         style="font-size:10px;letter-spacing:0;word-spacing:0;fill:#000000;fill-rule:nonzero;stroke:none;stroke-width:0.285;stroke-linecap:butt;stroke-linejoin:miter;stroke-miterlimit:4;stroke-dasharray:none;font-family:fnt0" />
      <path
         d="M 290.35214,567.04945 L 303.96408,567.04945 L 303.96408,570.43556 L 290.35214,570.43556 L 290.35214,567.04945 z"
         class="ps035 ps11 ps24"
         id="path8311"
         style="font-size:10px;letter-spacing:0;word-spacing:0;fill:#003e89;fill-rule:nonzero;stroke:none;stroke-width:0.285;stroke-linecap:butt;stroke-linejoin:miter;stroke-miterlimit:4;stroke-dasharray:none;font-family:fnt0" />
      <path
         d="M 306.67647,556.46114 C 307.83892,556.46114 308.77638,557.39985 308.77638,558.55855 C 308.77638,559.7135 307.83892,560.65347 306.67647,560.65347 C 305.52651,560.65347 304.58905,559.7135 304.58905,558.55855 C 304.58905,557.39985 305.52651,556.46114 306.67647,556.46114 M 307.52643,559.40477 L 307.52643,557.3086 L 305.41402,558.06482 L 305.41402,558.58605 L 306.11399,558.33356 L 306.11399,559.90975 L 307.52643,559.40477 z M 306.67647,556.76987 C 305.68901,556.76987 304.88904,557.56859 304.88904,558.55855 C 304.88904,559.54476 305.68901,560.34598 306.67647,560.34598 C 307.67643,560.34598 308.47639,559.54476 308.47639,558.55855 C 308.47639,557.56859 307.67643,556.76987 306.67647,556.76987"
         class="ps04 ps11 ps24"
         id="path8313"
         style="font-size:10px;letter-spacing:0;word-spacing:0;fill:#000000;fill-rule:nonzero;stroke:none;stroke-width:0.285;stroke-linecap:butt;stroke-linejoin:miter;stroke-miterlimit:4;stroke-dasharray:none;font-family:fnt0" />
    </g>
  </g>
</svg>
