<?xml version="1.0" encoding="UTF-8" standalone="no"?>
<!-- Created with Inkscape (http://www.inkscape.org/) -->

<svg
   xmlns:dc="http://purl.org/dc/elements/1.1/"
   xmlns:cc="http://creativecommons.org/ns#"
   xmlns:rdf="http://www.w3.org/1999/02/22-rdf-syntax-ns#"
   xmlns:svg="http://www.w3.org/2000/svg"
   xmlns="http://www.w3.org/2000/svg"
   xmlns:sodipodi="http://sodipodi.sourceforge.net/DTD/sodipodi-0.dtd"
   xmlns:inkscape="http://www.inkscape.org/namespaces/inkscape"
   width="365.56689"
   height="71.121574"
   id="svg3007"
   version="1.1"
   inkscape:version="0.91pre2 r13516"
   sodipodi:docname="swr bw hd.svg">
  <defs
     id="defs3009">
    <inkscape:perspective
       sodipodi:type="inkscape:persp3d"
       inkscape:vp_x="0 : 526.18109 : 1"
       inkscape:vp_y="0 : 1000 : 0"
       inkscape:vp_z="744.09448 : 526.18109 : 1"
       inkscape:persp3d-origin="372.04724 : 350.78739 : 1"
       id="perspective3015" />
    <inkscape:perspective
       id="perspective2995"
       inkscape:persp3d-origin="0.5 : 0.33333333 : 1"
       inkscape:vp_z="1 : 0.5 : 1"
       inkscape:vp_y="0 : 1000 : 0"
       inkscape:vp_x="0 : 0.5 : 1"
       sodipodi:type="inkscape:persp3d" />
    <inkscape:perspective
       sodipodi:type="inkscape:persp3d"
       inkscape:vp_x="0 : 0.5 : 1"
       inkscape:vp_y="0 : 1000 : 0"
       inkscape:vp_z="1 : 0.5 : 1"
       inkscape:persp3d-origin="0.5 : 0.33333333 : 1"
       id="perspective3721" />
    <inkscape:perspective
       id="perspective3749"
       inkscape:persp3d-origin="372.04724 : 350.78739 : 1"
       inkscape:vp_z="744.09448 : 526.18109 : 1"
       inkscape:vp_y="0 : 1000 : 0"
       inkscape:vp_x="0 : 526.18109 : 1"
       sodipodi:type="inkscape:persp3d" />
  </defs>
  <sodipodi:namedview
     id="base"
     pagecolor="#ffffff"
     bordercolor="#666666"
     borderopacity="1.0"
     inkscape:pageopacity="0.0"
     inkscape:pageshadow="2"
     inkscape:zoom="1.2533547"
     inkscape:cx="69.250371"
     inkscape:cy="-12.537972"
     inkscape:document-units="px"
     inkscape:current-layer="layer1"
     showgrid="false"
     inkscape:window-width="1920"
     inkscape:window-height="1017"
     inkscape:window-x="-8"
     inkscape:window-y="-8"
     inkscape:window-maximized="1"
     fit-margin-top="0"
     fit-margin-left="0"
     fit-margin-right="0"
     fit-margin-bottom="0" />
  <metadata
     id="metadata3012">
    <rdf:RDF>
      <cc:Work
         rdf:about="">
        <dc:format>image/svg+xml</dc:format>
        <dc:type
           rdf:resource="http://purl.org/dc/dcmitype/StillImage" />
        <dc:title></dc:title>
      </cc:Work>
    </rdf:RDF>
  </metadata>
  <g
     inkscape:label="Ebene 1"
     inkscape:groupmode="layer"
     id="layer1"
     transform="translate(260.52659,-418.39114)">
    <path
       inkscape:connector-curvature="0"
       d="m -118.64534,441.87404 c 0,-4.94554 -2.91059,-7.93228 -9.76427,-7.93228 -1.50198,0 -3.19185,0.0939 -4.03689,0.18725 l 1.1e-4,16.1436 c 0.75094,0.0932 2.25323,0.18652 3.66131,0.18652 6.19654,-1.1e-4 10.13974,-3.26598 10.13974,-8.58498 l 0,-1.1e-4 z m 19.495623,43.58278 -17.719713,0 -15.01371,-24.63978 -0.56325,0 0,24.63978 -14.57567,0 0,-63.04208 c 5.32559,-0.37472 12.14602,-0.46861 19.73917,-0.46861 14.89951,0 23.58826,5.34183 23.58826,18.71495 1.1e-4,8.49161 -5.23073,15.39713 -13.64215,17.45004 1.68211,2.42603 3.27086,4.75913 4.85973,7.09192 l 13.327333,20.25378 0,0 z"
       style="fill:#e4e4e4;fill-rule:evenodd;stroke:none;stroke-width:0.53537226;fill-opacity:1"
       id="_47386248" />
    <path
       inkscape:connector-curvature="0"
       d="m -245.32832,486.40945 c -4.38367,0 -8.97436,-0.4683 -12.98511,-1.40489 l 0.64557,-13.81295 c 3.54436,1.30792 8.88843,2.66608 13.46127,2.66608 5.34714,0 9.19358,-2.24218 9.19358,-6.72654 0,-10.74368 -24.76257,-5.42139 -25.24032,-26.34506 -0.27053,-11.85 9.32869,-19.67778 25.14611,-19.67778 3.35871,0 7.55597,0.37271 11.47348,1.1179 l -0.0302,12.86637 c -3.54437,-1.02762 -8.27112,-1.96793 -12.00593,-1.96793 -6.09755,0 -9.00632,2.61658 -9.00632,6.1668 0,9.80899 25.2401,6.07248 25.2401,25.78445 0,12.24778 -9.79402,21.33355 -25.89216,21.33355 l 0,0 0,0 z"
       style="fill:#e4e4e4;fill-rule:evenodd;stroke:none;stroke-width:0.53537226;fill-opacity:1"
       id="_47674960" />
    <polygon
       points="75.5633,32.7718 82.2833,70.8816 83.9448,70.8816 92.964,70.8816 97.7694,70.8816 108.261,11.5056 94.4367,11.5056 94.4367,11.5056 88.4544,48.2621 82.4724,11.5056 79.3353,11.5056 71.7915,11.5056 68.6546,11.5056 62.6724,48.2621 56.6902,11.5056 42.8657,11.5056 53.3575,70.8816 58.1628,70.8816 67.182,70.8816 68.8436,70.8816 "
       style="fill:#e4e4e4;fill-rule:evenodd;stroke:none;fill-opacity:1"
       id="_159878992"
       transform="matrix(1.0621422,0,0,1.0621422,-265.56404,410.20107)" />
    <polygon
       points="166.761,74.1714 199.471,41.1911 166.761,8.2109 166.761,8.2109 166.761,29.6681 178.284,41.1911 166.761,52.7142 "
       style="fill:#e4e4e4;fill-rule:evenodd;stroke:none;fill-opacity:1"
       id="_47267192"
       transform="matrix(1.0621422,0,0,1.0621422,-265.56404,410.20107)" />
    <polygon
       points="196.151,74.1714 228.861,41.1911 196.151,8.2109 196.151,8.2109 196.151,29.6681 207.674,41.1911 196.151,52.7142 "
       style="fill:#e4e4e4;fill-rule:evenodd;stroke:none;fill-opacity:1"
       id="_46559656"
       transform="matrix(1.0621422,0,0,1.0621422,-265.56404,410.20107)" />
    <path
       inkscape:connector-curvature="0"
       id="path3064"
       style="font-size:96.67694855px;font-style:normal;font-variant:normal;font-weight:500;font-stretch:normal;text-align:start;line-height:125%;letter-spacing:0px;word-spacing:0px;writing-mode:lr-tb;text-anchor:start;fill:#e4e4e4;fill-opacity:1;stroke:none;font-family:TheSansCorrespondence;-inkscape-font-specification:TheSansCorrespondence Medium"
       d="m 44.225135,486.38684 -8.314217,0 0,-30.35656 -34.0302863,0 0,30.35656 -8.4108945,0 0,-65.25694 8.4108945,0 0,27.84296 34.0302863,0 0,-27.84296 8.314217,0 0,65.25694" />
    <path
       inkscape:connector-curvature="0"
       id="path3066"
       style="font-size:96.67694855px;font-style:normal;font-variant:normal;font-weight:500;font-stretch:normal;text-align:start;line-height:125%;letter-spacing:0px;word-spacing:0px;writing-mode:lr-tb;text-anchor:start;fill:#e4e4e4;fill-opacity:1;stroke:none;font-family:TheSansCorrespondence;-inkscape-font-specification:TheSansCorrespondence Medium"
       d="m 105.0403,453.03329 c -6e-5,5.60729 -0.90238,10.50559 -2.70695,14.6949 -1.8047,4.18935 -4.318296,7.70194 -7.540807,10.53779 -3.222612,2.77141 -7.025235,4.86607 -11.40788,6.284 -4.382723,1.41793 -9.152114,2.12689 -14.308188,2.12689 -1.28905,0 -2.739202,-0.0322 -4.350463,-0.0967 -1.54685,0 -3.254808,-0.0322 -5.123878,-0.0967 -1.611296,-0.0645 -2.996998,-0.0967 -4.157109,-0.0967 -1.095682,0 -1.997999,0 -2.706954,0 l 0,-65.16026 c 0.708955,6e-5 1.514595,6e-5 2.416923,0 0.902307,6e-5 1.901301,-0.0322 2.996986,-0.0967 6.058402,-0.19329 10.698891,-0.28996 13.92148,-0.29003 10.569975,7e-5 18.690831,2.64257 24.362591,7.92751 5.736109,5.28506 8.604189,13.37369 8.604249,24.26591 m -8.797603,0.58007 c -5.1e-5,-17.33735 -8.346486,-26.00605 -25.039329,-26.0061 -1.289052,5e-5 -2.513625,0.0645 -3.673724,0.19335 -1.095694,0.0645 -2.868103,0.0967 -5.317232,0.0967 l -1.063447,0 0,51.23878 c 1.224557,0.19336 2.642484,0.35449 4.253786,0.48338 1.61126,0.0645 3.125864,0.0967 4.543816,0.0967 3.995951,1e-5 7.605221,-0.54783 10.827819,-1.64351 3.222525,-1.09566 5.961702,-2.73917 8.21754,-4.93052 2.3202,-2.19133 4.092609,-4.89828 5.317232,-8.12086 1.288975,-3.287 1.933488,-7.08962 1.933539,-11.40788" />
  </g>
</svg>
