<?xml version="1.0" encoding="UTF-8" standalone="no"?>
<!-- Created with Inkscape (http://www.inkscape.org/) -->
<svg
   xmlns:svg="http://www.w3.org/2000/svg"
   xmlns="http://www.w3.org/2000/svg"
   version="1.0"
   width="885.82672"
   height="194.88188"
   id="svg2016">
  <defs
     id="defs2018" />
  <g
     transform="translate(-3921.145,3129.956)"
     id="layer1">
    <g
       transform="translate(17.71659,17.64959)"
       id="g6625">
      <path
         d="M 4219.2101,-3129.9563 L 4219.2101,-3084.8975 L 4240.441,-3060.6783 L 4219.2101,-3036.4592 L 4219.2101,-2991.2127 L 4279.611,-3060.6783 L 4219.2101,-3129.9563 z "
         style="font-size:8px;letter-spacing:0;word-spacing:0;fill:#e1002f;fill-rule:nonzero;stroke:none;font-family:fnt0, &quot;TheSansCd&quot;, Arial"
         id="path5079" />
      <path
         d="M 4166.8737,-3084.522 C 4166.8737,-3094.2847 4161.7717,-3100.2926 4149.9219,-3100.2926 C 4147.2886,-3100.2926 4144.3262,-3100.1048 4142.8449,-3099.917 L 4142.8449,-3068.0004 C 4144.1616,-3067.8126 4146.7949,-3067.6249 4149.2636,-3067.6249 C 4159.9613,-3067.6249 4166.8737,-3074.0083 4166.8737,-3084.522 M 4200.6125,-2998.347 L 4170.0007,-2998.347 L 4143.8325,-3046.9729 L 4142.8449,-3046.9729 L 4142.8449,-2998.347 L 4117.6643,-2998.347 L 4117.6643,-3123.0097 C 4126.8807,-3123.7607 4138.7305,-3123.9485 4151.8969,-3123.9485 C 4177.736,-3123.9485 4192.8773,-3113.4347 4192.8773,-3086.9626 C 4192.8773,-3070.0657 4183.6608,-3056.5479 4169.1778,-3052.4176 C 4171.9757,-3047.5362 4174.7735,-3043.0304 4177.5714,-3038.3367 L 4200.6125,-2998.347"
         style="font-size:8px;letter-spacing:0;word-spacing:0;fill:#003156;fill-rule:nonzero;stroke:none;font-family:fnt0, &quot;TheSansCd&quot;, Arial"
         id="path5088" />
      <path
         d="M 3946.9946,-2996.4695 C 3939.424,-2996.4695 3931.5242,-2997.2205 3924.4472,-2999.098 L 3925.5992,-3026.5088 C 3931.6887,-3023.8804 3941.0698,-3021.2519 3948.9697,-3021.2519 C 3958.1862,-3021.2519 3964.9339,-3025.7577 3964.9339,-3034.5818 C 3964.9339,-3055.797 3921.9785,-3045.2832 3921.1556,-3086.7749 C 3920.6619,-3110.243 3937.2845,-3125.6382 3964.7693,-3125.6382 C 3970.5296,-3125.6382 3977.9357,-3124.8872 3984.6835,-3123.3852 L 3984.6835,-3098.0396 C 3978.4295,-3099.917 3970.2005,-3101.7945 3963.7818,-3101.7945 C 3953.2488,-3101.7945 3948.1467,-3096.7254 3948.1467,-3089.5911 C 3948.1467,-3070.2533 3991.9251,-3077.5754 3991.9251,-3038.5244 C 3991.9251,-3014.3054 3974.9733,-2996.4695 3946.9946,-2996.4695"
         style="font-size:8px;letter-spacing:0;word-spacing:0;fill:#003156;fill-rule:nonzero;stroke:none;font-family:fnt0, &quot;TheSansCd&quot;, Arial"
         id="path5090" />
      <path
         d="M 4085.9002,-3123.0097 L 4074.8734,-3045.8465 L 4063.8466,-3123.0097 L 4058.0863,-3123.0097 L 4044.2615,-3123.0097 L 4038.5012,-3123.0097 L 4027.4744,-3045.8465 L 4016.4475,-3123.0097 L 3990.9375,-3123.0097 L 4010.1935,-2998.1592 L 4019.0808,-2998.1592 L 4035.7033,-2998.1592 L 4038.8303,-2998.1592 L 4051.1739,-3078.3264 L 4063.5174,-2998.1592 L 4066.6444,-2998.1592 L 4083.267,-2998.1592 L 4092.1543,-2998.1592 L 4111.4102,-3123.0097 L 4085.9002,-3123.0097 z "
         style="font-size:8px;letter-spacing:0;word-spacing:0;fill:#003156;fill-rule:nonzero;stroke:none;font-family:fnt0, &quot;TheSansCd&quot;, Arial"
         id="path5094" />
      <path
         d="M 4273.5216,-3129.9563 L 4273.5216,-3084.8975 L 4294.7524,-3060.6783 L 4273.5216,-3036.4592 L 4273.5216,-2991.2127 L 4333.7578,-3060.6783 L 4273.5216,-3129.9563 z "
         style="font-size:8px;letter-spacing:0;word-spacing:0;fill:#e1002f;fill-rule:nonzero;stroke:none;font-family:fnt0, &quot;TheSansCd&quot;, Arial"
         id="path5098" />
      <path
         d="M 4387.0818,-3048.2872 C 4387.0818,-3068.0004 4365.1927,-3064.2455 4365.1927,-3074.0083 C 4365.1927,-3077.3876 4367.6614,-3080.0161 4372.9279,-3080.0161 C 4376.0549,-3080.0161 4379.5111,-3079.4529 4382.6381,-3078.3264 L 4383.2965,-3090.9053 C 4380.0048,-3091.6563 4376.2195,-3092.0317 4373.4217,-3092.0317 C 4359.5969,-3092.0317 4351.5325,-3084.1464 4351.5325,-3072.5063 C 4351.5325,-3051.4789 4373.4217,-3056.9235 4373.4217,-3046.4098 C 4373.4217,-3041.9039 4370.1301,-3039.6509 4365.5219,-3039.6509 C 4361.5719,-3039.6509 4356.9636,-3040.7774 4354.0012,-3041.9039 L 4353.3429,-3028.5739 C 4356.7991,-3027.6352 4360.749,-3027.2597 4364.5344,-3027.2597 C 4378.5237,-3027.2597 4387.0818,-3036.2715 4387.0818,-3048.2872"
         style="font-size:8px;letter-spacing:0;word-spacing:0;fill:#003156;fill-rule:nonzero;stroke:none;font-family:fnt0, &quot;TheSansCd&quot;, Arial"
         id="path5102" />
      <path
         d="M 4431.1893,-3102.3578 C 4431.1893,-3106.3004 4428.3914,-3109.6798 4424.7706,-3109.6798 C 4421.3144,-3109.6798 4418.3521,-3106.3004 4418.3521,-3102.3578 C 4418.3521,-3098.2273 4421.3144,-3095.0357 4424.7706,-3095.0357 C 4428.3914,-3095.0357 4431.1893,-3098.2273 4431.1893,-3102.3578 M 4414.2375,-3102.3578 C 4414.2375,-3106.3004 4411.2751,-3109.6798 4407.8189,-3109.6798 C 4404.3627,-3109.6798 4401.4003,-3106.3004 4401.4003,-3102.3578 C 4401.4003,-3098.2273 4404.3627,-3095.0357 4407.8189,-3095.0357 C 4411.2751,-3095.0357 4414.2375,-3098.2273 4414.2375,-3102.3578 M 4439.4183,-3052.9808 L 4439.4183,-3090.9053 L 4426.9102,-3090.9053 L 4426.9102,-3052.0421 C 4426.9102,-3042.6548 4424.1124,-3039.2754 4417.0354,-3039.2754 C 4409.3001,-3039.2754 4407.1606,-3043.9691 4407.1606,-3051.2911 L 4407.1606,-3090.9053 L 4394.4879,-3090.9053 L 4394.4879,-3050.3524 C 4394.4879,-3037.9612 4398.767,-3027.2597 4416.2125,-3027.2597 C 4430.6955,-3027.2597 4439.4183,-3035.3327 4439.4183,-3052.9808"
         style="font-size:8px;letter-spacing:0;word-spacing:0;fill:#003156;fill-rule:evenodd;stroke:none;font-family:fnt0, &quot;TheSansCd&quot;, Arial"
         id="path5106" />
      <path
         d="M 4495.3755,-3060.8661 C 4495.3755,-3083.02 4484.3486,-3091.2808 4467.8906,-3091.2808 C 4460.4846,-3091.2808 4453.4076,-3090.9053 4449.1285,-3090.7176 L 4449.1285,-3028.3862 C 4454.2304,-3028.1985 4459.6617,-3027.823 4465.422,-3027.823 C 4483.3612,-3027.823 4495.3755,-3039.4632 4495.3755,-3060.8661 M 4481.7153,-3059.7396 C 4481.7153,-3046.4098 4475.2967,-3040.4019 4466.574,-3040.4019 C 4464.5991,-3040.4019 4462.9532,-3040.5896 4461.8012,-3040.7774 L 4461.8012,-3078.8896 C 4463.2824,-3079.0773 4464.9282,-3079.0773 4467.0677,-3079.0773 C 4478.4238,-3079.0773 4481.7153,-3071.5676 4481.7153,-3059.7396"
         style="font-size:8px;letter-spacing:0;word-spacing:0;fill:#003156;fill-rule:evenodd;stroke:none;font-family:fnt0, &quot;TheSansCd&quot;, Arial"
         id="path5110" />
      <path
         d="M 4571.2469,-3090.9053 L 4558.5742,-3090.9053 L 4552.3202,-3060.8661 C 4551.4973,-3056.9235 4550.839,-3052.6053 4550.3453,-3047.7239 L 4550.3453,-3047.7239 C 4549.6869,-3052.4176 4548.8641,-3057.1112 4548.0412,-3060.6783 L 4540.9642,-3090.9053 L 4527.7978,-3090.9053 L 4520.7208,-3060.1151 C 4519.7334,-3055.797 4519.2396,-3051.6666 4518.5813,-3047.3485 L 4518.5813,-3047.3485 C 4518.2522,-3051.8543 4517.5938,-3056.3602 4516.7709,-3060.4906 L 4510.3523,-3090.9053 L 4496.8567,-3090.9053 L 4510.5169,-3028.3862 L 4524.9999,-3028.3862 L 4531.5832,-3058.2376 C 4532.406,-3062.7436 4533.0644,-3067.2495 4533.5581,-3072.1308 L 4533.5581,-3072.1308 C 4534.0518,-3066.8739 4534.7102,-3061.9926 4535.6976,-3057.8622 L 4542.1162,-3028.3862 L 4557.4222,-3028.3862 L 4571.2469,-3090.9053"
         style="font-size:8px;letter-spacing:0;word-spacing:0;fill:#003156;fill-rule:nonzero;stroke:none;font-family:fnt0, &quot;TheSansCd&quot;, Arial"
         id="path5114" />
      <path
         d="M 4606.7962,-3028.3862 L 4606.7962,-3040.7774 L 4588.5278,-3040.7774 L 4588.5278,-3054.6705 L 4605.8088,-3054.6705 L 4605.8088,-3066.3107 L 4588.5278,-3066.3107 L 4588.5278,-3078.7019 L 4606.7962,-3078.7019 L 4606.7962,-3090.9053 L 4575.8551,-3090.9053 L 4575.8551,-3028.3862 L 4606.7962,-3028.3862 z "
         style="font-size:8px;letter-spacing:0;word-spacing:0;fill:#003156;fill-rule:nonzero;stroke:none;font-family:fnt0, &quot;TheSansCd&quot;, Arial"
         id="path5118" />
      <path
         d="M 4648.5996,-3048.2872 C 4648.5996,-3068.0004 4626.875,-3064.2455 4626.875,-3074.0083 C 4626.875,-3077.3876 4629.1791,-3080.0161 4634.4457,-3080.0161 C 4637.7373,-3080.0161 4641.1934,-3079.4529 4644.3204,-3078.3264 L 4644.9788,-3090.9053 C 4641.5226,-3091.6563 4637.9019,-3092.0317 4634.9394,-3092.0317 C 4621.2793,-3092.0317 4613.2148,-3084.1464 4613.2148,-3072.5063 C 4613.2148,-3051.4789 4635.104,-3056.9235 4635.104,-3046.4098 C 4635.104,-3041.9039 4631.8124,-3039.6509 4627.2042,-3039.6509 C 4623.0897,-3039.6509 4618.646,-3040.7774 4615.519,-3041.9039 L 4615.0252,-3028.5739 C 4618.4814,-3027.6352 4622.2668,-3027.2597 4626.2167,-3027.2597 C 4640.0414,-3027.2597 4648.5996,-3036.2715 4648.5996,-3048.2872"
         style="font-size:8px;letter-spacing:0;word-spacing:0;fill:#003156;fill-rule:nonzero;stroke:none;font-family:fnt0, &quot;TheSansCd&quot;, Arial"
         id="path5122" />
      <path
         d="M 4688.0988,-3078.5141 L 4688.0988,-3090.9053 L 4649.2579,-3090.9053 L 4649.2579,-3078.5141 L 4662.4243,-3078.5141 L 4662.4243,-3028.3862 L 4674.9323,-3028.3862 L 4674.9323,-3078.5141 L 4688.0988,-3078.5141 z "
         style="font-size:8px;letter-spacing:0;word-spacing:0;fill:#003156;fill-rule:nonzero;stroke:none;font-family:fnt0, &quot;TheSansCd&quot;, Arial"
         id="path5126" />
      <path
         d="M 4531.4185,-3020.3132 L 4509.3649,-3020.3132 L 4501.3003,-2971.1239 L 4508.0482,-2971.1239 L 4511.669,-2992.7146 L 4525.9874,-2992.7146 L 4527.1395,-2999.098 L 4512.6564,-2999.098 L 4515.1252,-3013.5543 L 4530.2665,-3013.5543 L 4531.4185,-3020.3132 z "
         style="font-size:8px;letter-spacing:0;word-spacing:0;fill:#003156;fill-rule:nonzero;stroke:none;font-family:fnt0, &quot;TheSansCd&quot;, Arial"
         id="path5130" />
      <path
         d="M 4556.4348,-2999.4735 C 4556.4348,-3003.7916 4553.966,-3008.1098 4546.7245,-3008.1098 C 4536.5206,-3008.1098 4529.1144,-2996.8451 4529.1144,-2982.3886 C 4529.1144,-2974.3156 4532.406,-2970.373 4539.9767,-2970.373 C 4544.2558,-2970.373 4548.0412,-2971.3117 4551.3327,-2972.6259 L 4551.3327,-2978.8215 C 4548.5349,-2977.5073 4545.2432,-2976.5686 4542.2809,-2976.5686 C 4537.508,-2976.5686 4535.8622,-2977.8827 4535.8622,-2982.9519 C 4535.8622,-2984.0783 4536.0268,-2985.5804 4536.1914,-2986.519 C 4549.1932,-2987.0823 4556.4348,-2991.4004 4556.4348,-2999.4735 M 4549.6869,-2998.5348 C 4549.6869,-2994.4043 4545.737,-2992.3392 4537.0143,-2991.9636 C 4538.3309,-2997.4083 4541.2933,-3002.2896 4545.9016,-3002.2896 C 4548.3703,-3002.2896 4549.6869,-3000.9754 4549.6869,-2998.5348"
         style="font-size:8px;letter-spacing:0;word-spacing:0;fill:#003156;fill-rule:evenodd;stroke:none;font-family:fnt0, &quot;TheSansCd&quot;, Arial"
         id="path5134" />
      <path
         d="M 4582.1092,-3008.1098 C 4576.1843,-3009.2362 4572.5636,-3003.4161 4569.1074,-2994.9676 L 4568.9428,-2995.1554 C 4570.7532,-3000.7877 4571.5761,-3004.3548 4571.9052,-3007.3588 L 4565.4866,-3007.3588 C 4564.6637,-3001.9142 4563.5117,-2995.1554 4562.6888,-2990.0862 L 4559.5618,-2971.1239 L 4566.1449,-2971.1239 L 4567.6262,-2979.197 C 4569.4366,-2990.2739 4575.3614,-3002.2896 4580.628,-3000.5999 L 4582.1092,-3008.1098"
         style="font-size:8px;letter-spacing:0;word-spacing:0;fill:#003156;fill-rule:nonzero;stroke:none;font-family:fnt0, &quot;TheSansCd&quot;, Arial"
         id="path5138" />
      <path
         d="M 4614.0377,-2995.9063 C 4615.1898,-3003.2283 4613.3794,-3008.1098 4607.29,-3008.1098 C 4601.0359,-3008.1098 4596.2631,-3001.5386 4593.3007,-2994.4043 L 4593.136,-2994.4043 C 4595.1111,-3001.1632 4595.9339,-3005.1058 4596.4277,-3007.3588 L 4589.6798,-3007.3588 C 4589.0216,-3002.4774 4588.0341,-2996.094 4587.0466,-2990.0862 L 4583.755,-2971.1239 L 4590.5028,-2971.1239 L 4591.8194,-2979.7602 C 4593.3007,-2988.3965 4599.5547,-3001.3509 4604.6567,-3001.3509 C 4607.1254,-3001.3509 4607.9483,-2999.2857 4607.1254,-2994.0289 L 4603.1755,-2971.1239 L 4609.9232,-2971.1239 L 4614.0377,-2995.9063"
         style="font-size:8px;letter-spacing:0;word-spacing:0;fill:#003156;fill-rule:nonzero;stroke:none;font-family:fnt0, &quot;TheSansCd&quot;, Arial"
         id="path5142" />
      <path
         d="M 4640.3706,-3007.5465 C 4638.7248,-3007.922 4637.0789,-3008.1098 4634.9394,-3008.1098 C 4626.2167,-3008.1098 4621.9376,-3003.0406 4621.9376,-2996.6573 C 4621.9376,-2988.021 4630.8249,-2987.0823 4630.8249,-2981.6377 C 4630.8249,-2978.446 4628.3562,-2976.7563 4624.5709,-2976.7563 C 4622.7605,-2976.7563 4621.1147,-2977.1318 4619.4689,-2977.6951 L 4618.3168,-2970.9362 C 4619.9627,-2970.5607 4621.6084,-2970.373 4623.748,-2970.373 C 4633.129,-2970.373 4637.9019,-2976.3808 4637.9019,-2982.5764 C 4637.9019,-2990.4617 4628.85,-2992.3392 4628.85,-2997.4083 C 4628.85,-3000.2245 4630.8249,-3002.1019 4634.4457,-3002.1019 C 4636.0915,-3002.1019 4637.7373,-3001.9142 4639.054,-3001.3509 L 4640.3706,-3007.5465"
         style="font-size:8px;letter-spacing:0;word-spacing:0;fill:#003156;fill-rule:nonzero;stroke:none;font-family:fnt0, &quot;TheSansCd&quot;, Arial"
         id="path5146" />
      <path
         d="M 4671.3116,-2999.4735 C 4671.3116,-3003.7916 4668.8429,-3008.1098 4661.6013,-3008.1098 C 4651.3974,-3008.1098 4643.9914,-2996.8451 4643.9914,-2982.3886 C 4643.9914,-2974.3156 4647.2829,-2970.373 4655.0182,-2970.373 C 4659.1327,-2970.373 4663.0827,-2971.3117 4666.2096,-2972.6259 L 4666.2096,-2978.8215 C 4663.4117,-2977.5073 4660.1202,-2976.5686 4657.1577,-2976.5686 C 4652.3849,-2976.5686 4650.7391,-2977.8827 4650.7391,-2982.9519 C 4650.7391,-2984.0783 4650.9036,-2985.5804 4651.0683,-2986.519 C 4664.2346,-2987.0823 4671.3116,-2991.4004 4671.3116,-2999.4735 M 4664.7284,-2998.5348 C 4664.7284,-2994.4043 4660.6139,-2992.3392 4651.8912,-2991.9636 C 4653.2078,-2997.4083 4656.1702,-3002.2896 4660.7785,-3002.2896 C 4663.2472,-3002.2896 4664.7284,-3000.9754 4664.7284,-2998.5348"
         style="font-size:8px;letter-spacing:0;word-spacing:0;fill:#003156;fill-rule:evenodd;stroke:none;font-family:fnt0, &quot;TheSansCd&quot;, Arial"
         id="path5150" />
      <path
         d="M 4704.7213,-2995.9063 C 4705.8734,-3003.2283 4704.063,-3008.1098 4697.9736,-3008.1098 C 4691.555,-3008.1098 4686.9467,-3001.5386 4683.8196,-2994.4043 L 4683.8196,-2994.4043 C 4685.9592,-3001.5386 4686.7821,-3005.1058 4687.2759,-3008.1098 L 4690.0737,-3024.2558 L 4683.3259,-3024.2558 L 4674.4386,-2971.1239 L 4681.1864,-2971.1239 L 4682.503,-2979.7602 C 4683.9843,-2988.3965 4690.2383,-3001.3509 4695.3403,-3001.3509 C 4697.809,-3001.3509 4698.6319,-2999.2857 4697.809,-2994.0289 L 4693.8591,-2971.1239 L 4700.6069,-2971.1239 L 4704.7213,-2995.9063"
         style="font-size:8px;letter-spacing:0;word-spacing:0;fill:#003156;fill-rule:nonzero;stroke:none;font-family:fnt0, &quot;TheSansCd&quot;, Arial"
         id="path5154" />
      <path
         d="M 4737.802,-2999.4735 C 4737.802,-3003.7916 4735.3332,-3008.1098 4728.0917,-3008.1098 C 4717.8878,-3008.1098 4710.4816,-2996.8451 4710.4816,-2982.3886 C 4710.4816,-2974.3156 4713.7733,-2970.373 4721.344,-2970.373 C 4725.623,-2970.373 4729.4084,-2971.3117 4732.6999,-2972.6259 L 4732.6999,-2978.8215 C 4729.9021,-2977.5073 4726.6105,-2976.5686 4723.6481,-2976.5686 C 4718.8752,-2976.5686 4717.2295,-2977.8827 4717.2295,-2982.9519 C 4717.2295,-2984.0783 4717.394,-2985.5804 4717.5586,-2986.519 C 4730.5605,-2987.0823 4737.802,-2991.4004 4737.802,-2999.4735 M 4731.0542,-2998.5348 C 4731.0542,-2994.4043 4727.1042,-2992.3392 4718.3815,-2991.9636 C 4719.6982,-2997.4083 4722.6606,-3002.2896 4727.2688,-3002.2896 C 4729.7376,-3002.2896 4731.0542,-3000.9754 4731.0542,-2998.5348"
         style="font-size:8px;letter-spacing:0;word-spacing:0;fill:#003156;fill-rule:evenodd;stroke:none;font-family:fnt0, &quot;TheSansCd&quot;, Arial"
         id="path5163" />
      <path
         d="M 4771.2117,-2995.9063 C 4772.3638,-3003.2283 4770.5534,-3008.1098 4764.4639,-3008.1098 C 4758.0453,-3008.1098 4753.2725,-3001.5386 4750.31,-2994.4043 L 4750.1455,-2994.4043 C 4752.2851,-3001.1632 4753.1079,-3005.1058 4753.4371,-3007.3588 L 4746.8538,-3007.3588 C 4746.1955,-3002.4774 4745.0435,-2996.094 4744.056,-2990.0862 L 4740.929,-2971.1239 L 4747.6768,-2971.1239 L 4748.9934,-2979.7602 C 4750.4746,-2988.3965 4756.7287,-3001.3509 4761.8307,-3001.3509 C 4764.2994,-3001.3509 4765.1222,-2999.2857 4764.1348,-2994.0289 L 4760.3495,-2971.1239 L 4767.0972,-2971.1239 L 4771.2117,-2995.9063"
         style="font-size:8px;letter-spacing:0;word-spacing:0;fill:#003156;fill-rule:nonzero;stroke:none;font-family:fnt0, &quot;TheSansCd&quot;, Arial"
         id="path5165" />
    </g>
  </g>
</svg>
