<?xml version="1.0" encoding="UTF-8" standalone="no"?>
<!-- Generator: Adobe Illustrator 15.0.2, SVG Export Plug-In . SVG Version: 6.00 Build 0)  -->

<svg
   xmlns:dc="http://purl.org/dc/elements/1.1/"
   xmlns:cc="http://creativecommons.org/ns#"
   xmlns:rdf="http://www.w3.org/1999/02/22-rdf-syntax-ns#"
   xmlns:svg="http://www.w3.org/2000/svg"
   xmlns="http://www.w3.org/2000/svg"
   xmlns:sodipodi="http://sodipodi.sourceforge.net/DTD/sodipodi-0.dtd"
   xmlns:inkscape="http://www.inkscape.org/namespaces/inkscape"
   version="1.1"
   id="Ebene_1"
   x="0px"
   y="0px"
   width="505.53125"
   height="98.25"
   viewBox="0 0 505.53125 98.25"
   enable-background="new 0 0 565 137"
   xml:space="preserve"
   inkscape:version="0.48.2 r9819"
   sodipodi:docname="AJAX.svg"><metadata
   id="metadata9"><rdf:RDF><cc:Work
       rdf:about=""><dc:format>image/svg+xml</dc:format><dc:type
         rdf:resource="http://purl.org/dc/dcmitype/StillImage" /></cc:Work></rdf:RDF></metadata><defs
   id="defs7" /><sodipodi:namedview
   pagecolor="#ffffff"
   bordercolor="#666666"
   borderopacity="1"
   objecttolerance="10"
   gridtolerance="10"
   guidetolerance="10"
   inkscape:pageopacity="0"
   inkscape:pageshadow="2"
   inkscape:window-width="640"
   inkscape:window-height="480"
   id="namedview5"
   showgrid="false"
   fit-margin-top="0"
   fit-margin-left="0"
   fit-margin-right="0"
   fit-margin-bottom="0"
   inkscape:zoom="0.80597658"
   inkscape:cx="179.62535"
   inkscape:cy="24.530912"
   inkscape:window-x="0"
   inkscape:window-y="0"
   inkscape:window-maximized="0"
   inkscape:current-layer="Ebene_1" />
<path
   stroke-miterlimit="10"
   d="M 41.767,55.4295 0.515,13.8385 v 27.058 l 14.533,14.533 -14.533,14.531 v 27.064 l 41.252,-41.595 z m -4.184,41.596 41.252,-41.596 -41.252,-41.591 v 27.058 l 14.532,14.533 -14.532,14.531 v 27.065 z m 93.963,-63.988 0.033,-15.277 c -4.649,-0.885 -9.633,-1.328 -13.621,-1.328 -18.781,0 -30.179,9.293 -29.858,23.364 0.568,24.846 29.971,18.526 29.971,31.283 0,5.326 -4.568,7.987 -10.918,7.987 -5.428,0 -11.774,-1.613 -15.982,-3.166 l -0.768,16.4 c 4.762,1.111 10.213,1.67 15.419,1.67 19.113,0 30.743,-10.789 30.743,-25.334 0,-23.404 -29.968,-18.967 -29.968,-30.613 0,-4.217 3.454,-7.324 10.694,-7.324 4.435,0 10.044,1.118 14.255,2.338 m 73.551,59.838 13.231,-74.883 h -17.433 l -7.546,46.355 -7.545,-46.355 h -3.956 -9.515 -3.954 l -7.545,46.355 -7.543,-46.355 h -17.436 l 13.233,74.883 h 6.06 11.374 2.094 l 8.476,-48.062 8.476,48.062 h 2.096 11.373 6.06 z m 51.146,-51.786 c 0,6.318 -4.684,10.193 -12.04,10.193 -1.675,0 -3.457,-0.11 -4.348,-0.221 v -19.169 c 1.004,-0.108 3.01,-0.221 4.793,-0.221 8.139,0 11.595,3.544 11.595,9.418 m 7.323,27.702 c -1.887,-2.772 -3.773,-5.541 -5.771,-8.422 9.987,-2.439 16.198,-10.64 16.198,-20.722 0,-15.878 -10.316,-22.22 -28.006,-22.22 -9.018,0 -17.116,0.112 -23.44,0.558 v 74.853 h 17.307 v -29.256 h 0.669 l 17.827,29.256 h 21.041 l -15.825,-24.047 z m 28.88,-37.389 v 12.312 c 3.644,0.251 7.915,0.754 10.93,1.256 v 47.868 h 19.223 v -62.567 c -10.68,-0.377 -20.982,0.126 -30.153,1.131 m 32.288,-19.599 c 0,-6.282 -5.277,-11.307 -11.684,-11.307 -6.533,0 -11.685,5.151 -11.685,11.307 0,6.282 5.151,11.307 11.685,11.307 6.407,0 11.684,-5.025 11.684,-11.307 m 59.298,81.034 h 9.423 v -43.47 c 0,-11.182 -4.522,-20.102 -18.845,-20.102 -10.805,0 -18.72,6.031 -22.363,15.202 l -0.251,-0.126 c 0.753,-3.894 1.13,-9.925 1.13,-13.945 -6.406,-0.251 -14.698,0.126 -20.227,0.879 v 5.403 c 3.644,0.251 7.915,0.753 10.93,1.256 v 54.902 h 9.297 v -29.9 c 0,-14.825 7.915,-25.881 19.098,-25.881 9.171,0 11.809,5.654 11.809,15.453 v 40.329 z m 66.46,-83.295 0.879,-7.915 c -3.392,-0.754 -6.784,-1.131 -10.301,-1.131 -14.951,0 -23.62,8.041 -23.62,25.504 v 4.397 h -13.568 v 7.412 h 13.568 v 55.028 h 9.423 v -55.028 h 18.468 v -7.412 h -18.468 v -4.649 c 0,-12.06 4.271,-17.588 13.82,-17.588 3.266,0 6.659,0.377 9.799,1.382 m 44.725,51.635 c 0,17.211 -8.92,24.75 -18.72,24.75 -12.186,0 -19.096,-8.795 -19.096,-24.75 0,-16.709 9.297,-24.123 19.096,-24.123 12.439,0.001 18.72,9.047 18.72,24.123 m 9.8,-0.629 c 0,-22.864 -12.438,-31.282 -27.64,-31.282 -18.72,0 -29.775,14.825 -29.775,32.665 0,21.859 10.805,32.035 27.514,32.035 18.467,0 29.901,-14.823 29.901,-33.418"
   id="path3"
   inkscape:connector-curvature="0"
   style="stroke:#000000;stroke-miterlimit:10" />
</svg>