<?xml version="1.0" encoding="UTF-8" standalone="no"?>
<!-- Created with Inkscape (http://www.inkscape.org/) -->

<svg
   xmlns:dc="http://purl.org/dc/elements/1.1/"
   xmlns:cc="http://creativecommons.org/ns#"
   xmlns:rdf="http://www.w3.org/1999/02/22-rdf-syntax-ns#"
   xmlns:svg="http://www.w3.org/2000/svg"
   xmlns="http://www.w3.org/2000/svg"
   xmlns:xlink="http://www.w3.org/1999/xlink"
   version="1.1"
   width="540"
   height="170"
   id="svg2985"
   xml:space="preserve"><metadata
     id="metadata2991"><rdf:RDF><cc:Work
         rdf:about=""><dc:format>image/svg+xml</dc:format><dc:type
           rdf:resource="http://purl.org/dc/dcmitype/StillImage" /><dc:title></dc:title></cc:Work></rdf:RDF></metadata><defs
     id="defs2989"><linearGradient
       x1="0"
       y1="0"
       x2="1"
       y2="0"
       id="linearGradient4140"
       gradientUnits="userSpaceOnUse"
       gradientTransform="matrix(2.8844,-4.1193,-4.1193,-2.8844,474.9,223.83)"
       spreadMethod="pad"><stop
         id="stop4142"
         style="stop-color:#ea593e;stop-opacity:1"
         offset="0" /><stop
         id="stop4144"
         style="stop-color:#ea593e;stop-opacity:0"
         offset="0.19882762" /><stop
         id="stop4146"
         style="stop-color:#bf2529;stop-opacity:0"
         offset="0.82496721" /><stop
         id="stop4148"
         style="stop-color:#951f21;stop-opacity:1"
         offset="1" /></linearGradient><linearGradient
       x1="0"
       y1="0"
       x2="1"
       y2="0"
       id="linearGradient4031"
       gradientUnits="userSpaceOnUse"
       gradientTransform="matrix(2.8844,-4.1193,-4.1193,-2.8844,474.9,223.83)"
       spreadMethod="pad"><stop
         id="stop4033"
         style="stop-color:#e13e32;stop-opacity:1"
         offset="0" /><stop
         id="stop4035"
         style="stop-color:#d92729;stop-opacity:1"
         offset="0.5" /><stop
         id="stop4037"
         style="stop-color:#b22427;stop-opacity:1"
         offset="1" /></linearGradient><linearGradient
       x1="0"
       y1="0"
       x2="1"
       y2="0"
       id="linearGradient4010"
       gradientUnits="userSpaceOnUse"
       gradientTransform="matrix(2.8844,-4.1193,-4.1193,-2.8844,474.9,223.83)"
       spreadMethod="pad"><stop
         id="stop4012"
         style="stop-color:#ea593e;stop-opacity:1"
         offset="0" /><stop
         id="stop4018"
         style="stop-color:#ea593e;stop-opacity:0"
         offset="0.14548044" /><stop
         id="stop4016"
         style="stop-color:#bf2529;stop-opacity:0"
         offset="0.85413778" /><stop
         id="stop4014"
         style="stop-color:#951f21;stop-opacity:1"
         offset="1" /></linearGradient><linearGradient
       x1="0"
       y1="0"
       x2="1"
       y2="0"
       id="linearGradient3999"
       gradientUnits="userSpaceOnUse"
       gradientTransform="matrix(2.8844,-4.1193,-4.1193,-2.8844,474.9,223.83)"
       spreadMethod="pad"><stop
         id="stop4001"
         style="stop-color:#e32a1e;stop-opacity:1"
         offset="0" /><stop
         id="stop4005"
         style="stop-color:#db2828;stop-opacity:1"
         offset="0.5" /><stop
         id="stop4003"
         style="stop-color:#d1292d;stop-opacity:1"
         offset="1" /></linearGradient><linearGradient
       x1="0"
       y1="0"
       x2="1"
       y2="0"
       id="linearGradient3908"
       gradientUnits="userSpaceOnUse"
       gradientTransform="matrix(2.8844,-4.1193,-4.1193,-2.8844,474.9,223.83)"
       spreadMethod="pad"><stop
         id="stop3910"
         style="stop-color:#ea573d;stop-opacity:1"
         offset="0" /><stop
         id="stop3912"
         style="stop-color:#e12f28;stop-opacity:0"
         offset="1" /></linearGradient><linearGradient
       x1="0"
       y1="0"
       x2="1"
       y2="0"
       id="linearGradient149751-7-7"
       gradientUnits="userSpaceOnUse"
       gradientTransform="matrix(2.8844,-4.1193,-4.1193,-2.8844,474.9,223.83)"
       spreadMethod="pad"><stop
         id="stop149753-4-1"
         style="stop-color:#e93a28;stop-opacity:1"
         offset="0" /><stop
         id="stop149755-0-1"
         style="stop-color:#d51d29;stop-opacity:1"
         offset="1" /></linearGradient><linearGradient
       x1="0"
       y1="0"
       x2="1"
       y2="0"
       id="linearGradient149751-7-7-7"
       gradientUnits="userSpaceOnUse"
       gradientTransform="matrix(2.8844,-4.1193,-4.1193,-2.8844,474.9,223.83)"
       spreadMethod="pad"><stop
         id="stop149753-4-1-6"
         style="stop-color:#e93a28;stop-opacity:1"
         offset="0" /><stop
         id="stop149755-0-1-1"
         style="stop-color:#d51d29;stop-opacity:1"
         offset="1" /></linearGradient><linearGradient
       x1="0"
       y1="0"
       x2="1"
       y2="0"
       id="linearGradient149751-7-7-7-3"
       gradientUnits="userSpaceOnUse"
       gradientTransform="matrix(2.8844,-4.1193,-4.1193,-2.8844,474.9,223.83)"
       spreadMethod="pad"><stop
         id="stop149753-4-1-6-2"
         style="stop-color:#e93a28;stop-opacity:1"
         offset="0" /><stop
         id="stop149755-0-1-1-2"
         style="stop-color:#d51d29;stop-opacity:1"
         offset="1" /></linearGradient><linearGradient
       x1="0"
       y1="0"
       x2="1"
       y2="0"
       id="linearGradient3073"
       xlink:href="#linearGradient149751-7-7-7-3"
       gradientUnits="userSpaceOnUse"
       gradientTransform="matrix(0.66250608,166.62027,-115.93345,0.95215792,307.8011,1.3580265)"
       spreadMethod="pad" /><linearGradient
       x1="0"
       y1="0"
       x2="1"
       y2="0"
       id="linearGradient3075"
       xlink:href="#linearGradient149751-7-7-7"
       gradientUnits="userSpaceOnUse"
       gradientTransform="matrix(0.66250608,166.62027,-115.93345,0.95215792,181.80581,1.3580265)"
       spreadMethod="pad" /><linearGradient
       x1="0"
       y1="0"
       x2="1"
       y2="0"
       id="linearGradient3077"
       xlink:href="#linearGradient149751-7-7"
       gradientUnits="userSpaceOnUse"
       gradientTransform="matrix(0.66250608,166.62027,-115.93345,0.95215792,55.811002,1.3586878)"
       spreadMethod="pad" /><linearGradient
       x1="0"
       y1="0"
       x2="1"
       y2="0"
       id="linearGradient3032"
       xlink:href="#linearGradient149751-7-7"
       gradientUnits="userSpaceOnUse"
       gradientTransform="matrix(0.66250608,166.62027,-115.93345,0.95215792,56.811002,2.3586878)"
       spreadMethod="pad" /><linearGradient
       x1="0"
       y1="0"
       x2="1"
       y2="0"
       id="linearGradient3035"
       xlink:href="#linearGradient149751-7-7-7"
       gradientUnits="userSpaceOnUse"
       gradientTransform="matrix(0.66250608,166.62027,-115.93345,0.95215792,182.80581,2.3580265)"
       spreadMethod="pad" /><linearGradient
       x1="0"
       y1="0"
       x2="1"
       y2="0"
       id="linearGradient3038"
       xlink:href="#linearGradient149751-7-7-7-3"
       gradientUnits="userSpaceOnUse"
       gradientTransform="matrix(0.66250608,166.62027,-115.93345,0.95215792,308.8011,2.3580265)"
       spreadMethod="pad" /><linearGradient
       x1="0"
       y1="0"
       x2="1"
       y2="0"
       id="linearGradient3055"
       xlink:href="#linearGradient149751-7-7-7-3"
       gradientUnits="userSpaceOnUse"
       gradientTransform="matrix(0.66250608,166.62027,-115.93345,0.95215792,308.8011,2.3580265)"
       spreadMethod="pad" /><linearGradient
       x1="0"
       y1="0"
       x2="1"
       y2="0"
       id="linearGradient3057"
       xlink:href="#linearGradient149751-7-7-7"
       gradientUnits="userSpaceOnUse"
       gradientTransform="matrix(0.66250608,166.62027,-115.93345,0.95215792,182.80581,2.3580265)"
       spreadMethod="pad" /><linearGradient
       x1="0"
       y1="0"
       x2="1"
       y2="0"
       id="linearGradient3059"
       xlink:href="#linearGradient149751-7-7"
       gradientUnits="userSpaceOnUse"
       gradientTransform="matrix(0.66250608,166.62027,-115.93345,0.95215792,56.811002,2.3586878)"
       spreadMethod="pad" /><linearGradient
       x1="0"
       y1="0"
       x2="1"
       y2="0"
       id="linearGradient3098-1"
       xlink:href="#linearGradient149751-7-7-74"
       gradientUnits="userSpaceOnUse"
       gradientTransform="matrix(0.66250608,166.62027,-115.93345,0.95215792,56.811002,2.3586878)"
       spreadMethod="pad" /><linearGradient
       x1="0"
       y1="0"
       x2="1"
       y2="0"
       id="linearGradient149751-7-7-74"
       gradientUnits="userSpaceOnUse"
       gradientTransform="matrix(2.8844,-4.1193,-4.1193,-2.8844,474.9,223.83)"
       spreadMethod="pad"><stop
         id="stop149753-4-1-0"
         style="stop-color:#79e928;stop-opacity:0.69874477"
         offset="0" /><stop
         id="stop149755-0-1-9"
         style="stop-color:#1dbcd5;stop-opacity:0"
         offset="1" /></linearGradient><linearGradient
       x1="0"
       y1="0"
       x2="1"
       y2="0"
       id="linearGradient3927"
       xlink:href="#linearGradient4031"
       gradientUnits="userSpaceOnUse"
       gradientTransform="matrix(0.66243115,166.62027,-115.92034,0.95215792,307.76629,1.3580228)"
       spreadMethod="pad" /><linearGradient
       x1="0"
       y1="0"
       x2="1"
       y2="0"
       id="linearGradient149751-7-7-2"
       gradientUnits="userSpaceOnUse"
       gradientTransform="matrix(2.8844,-4.1193,-4.1193,-2.8844,474.9,223.83)"
       spreadMethod="pad"><stop
         id="stop149753-4-1-4"
         style="stop-color:#e93a28;stop-opacity:1"
         offset="0" /><stop
         id="stop149755-0-1-5"
         style="stop-color:#d51d29;stop-opacity:1"
         offset="1" /></linearGradient><linearGradient
       x1="0"
       y1="0"
       x2="1"
       y2="0"
       id="linearGradient149751-7-7-7-1"
       gradientUnits="userSpaceOnUse"
       gradientTransform="matrix(2.8844,-4.1193,-4.1193,-2.8844,474.9,223.83)"
       spreadMethod="pad"><stop
         id="stop149753-4-1-6-7"
         style="stop-color:#e93a28;stop-opacity:1"
         offset="0" /><stop
         id="stop149755-0-1-1-1"
         style="stop-color:#d51d29;stop-opacity:1"
         offset="1" /></linearGradient><linearGradient
       x1="0"
       y1="0"
       x2="1"
       y2="0"
       id="linearGradient3927-1"
       xlink:href="#linearGradient149751-7-7-7-3-5"
       gradientUnits="userSpaceOnUse"
       gradientTransform="matrix(0.66243115,166.62027,-115.92034,0.95215792,307.76629,1.3580228)"
       spreadMethod="pad" /><linearGradient
       x1="0"
       y1="0"
       x2="1"
       y2="0"
       id="linearGradient149751-7-7-7-3-5"
       gradientUnits="userSpaceOnUse"
       gradientTransform="matrix(2.8844,-4.1193,-4.1193,-2.8844,474.9,223.83)"
       spreadMethod="pad"><stop
         id="stop149753-4-1-6-2-2"
         style="stop-color:#e93a28;stop-opacity:1"
         offset="0" /><stop
         id="stop149755-0-1-1-2-7"
         style="stop-color:#d51d29;stop-opacity:1"
         offset="1" /></linearGradient><linearGradient
       x1="-0.0018792338"
       y1="2.6105914"
       x2="1.9035712"
       y2="0.3851935"
       id="linearGradient4008"
       xlink:href="#linearGradient4010"
       gradientUnits="userSpaceOnUse"
       gradientTransform="matrix(0.66243115,166.62027,-115.92034,0.95215792,307.76629,1.35803)"
       spreadMethod="pad" /><linearGradient
       x1="0"
       y1="0"
       x2="1"
       y2="0"
       id="linearGradient3927-8"
       xlink:href="#linearGradient4031-2"
       gradientUnits="userSpaceOnUse"
       gradientTransform="matrix(0.66243115,166.62027,-115.92034,0.95215792,307.76629,1.3580228)"
       spreadMethod="pad" /><linearGradient
       x1="0"
       y1="0"
       x2="1"
       y2="0"
       id="linearGradient4031-2"
       gradientUnits="userSpaceOnUse"
       gradientTransform="matrix(2.8844,-4.1193,-4.1193,-2.8844,474.9,223.83)"
       spreadMethod="pad"><stop
         id="stop4033-4"
         style="stop-color:#e13e32;stop-opacity:1"
         offset="0" /><stop
         id="stop4035-5"
         style="stop-color:#d92729;stop-opacity:1"
         offset="0.5" /><stop
         id="stop4037-2"
         style="stop-color:#b22427;stop-opacity:1"
         offset="1" /></linearGradient><linearGradient
       x1="0"
       y1="0"
       x2="1"
       y2="0"
       id="linearGradient4098"
       xlink:href="#linearGradient4031-2"
       gradientUnits="userSpaceOnUse"
       gradientTransform="matrix(0.66243115,166.62027,-115.92034,0.95215792,307.76629,1.3580235)"
       spreadMethod="pad" /><linearGradient
       x1="-0.0019355299"
       y1="1.6322571"
       x2="0.88655597"
       y2="0.5742836"
       id="linearGradient4138"
       xlink:href="#linearGradient4140"
       gradientUnits="userSpaceOnUse"
       gradientTransform="matrix(0.66243115,166.62027,-115.92034,0.95215792,307.76629,1.3580235)"
       spreadMethod="pad" /></defs><g
     transform="matrix(38.945465,0,0,-38.94987,-18493.458,8723.4304)"
     id="g61819"
     style="fill:#da2a2a;fill-opacity:1"><path
       d="m 484.271,219.741 0.05,0 0,-0.14 0.03,0 0,0.14 0.05,0 0,0.024 -0.13,0"
       id="path149833"
       style="fill:#da2a2a;fill-opacity:1;fill-rule:nonzero;stroke:none" /><path
       d="m 484.568,219.765 -0.046,-0.121 -0.047,0.121 -0.045,0 0,-0.164 0.03,0 0,0.134 0.052,-0.134 0.019,0 0.052,0.134 10e-4,0 0,-0.134 0.029,0 0,0.164"
       id="path149837"
       style="fill:#da2a2a;fill-opacity:1;fill-rule:nonzero;stroke:none" /></g><g
     transform="matrix(40.59018,0,0,-40.594771,-19291.063,9086.0374)"
     id="g61828"
     style="fill:#da2a2a;fill-opacity:1"><path
       d="m 486.557,222.678 c -0.001,0.016 -0.013,0.028 -0.029,0.03 -0.001,0 -0.002,0 -0.004,0 l -0.311,0 c -0.001,0 -0.002,0 -0.004,0 -0.016,-0.002 -0.029,-0.016 -0.029,-0.033 l 0,-0.764 -0.849,0 0,0.764 c 0,0 0,0 0,10e-4 -0.001,0.016 -0.013,0.03 -0.03,0.032 -10e-4,0 -0.002,0 -0.004,0 l -0.314,0 c -10e-4,0 -0.002,0 -0.003,0 -0.017,-0.002 -0.03,-0.016 -0.03,-0.033 l 0,-1.923 c 0,-0.018 0.015,-0.033 0.033,-0.033 l 0.314,0 c 0.019,0 0.033,0.015 0.034,0.033 l 0,0.807 0.848,0 0.001,0.001 0,-0.808 c 0,-0.018 0.014,-0.032 0.033,-0.032 l 0.311,0 c 0.018,0 0.032,0.013 0.033,0.03 10e-4,0.001 10e-4,0.002 10e-4,0.002 l 0,1.923 c 0,10e-4 0,0.002 -10e-4,0.003"
       id="path149841"
       style="fill:#da2a2a;fill-opacity:1;fill-rule:nonzero;stroke:none" /><path
       d="m 487.669,221.072 -0.358,0 0,1.283 0.358,0 c 0.426,0 0.518,-0.347 0.518,-0.639 0,-0.24 -0.069,-0.644 -0.518,-0.644 m -0.389,-0.353 c 0.004,0.001 0.008,0.002 0.013,0.003 -0.004,-0.002 -0.009,-0.003 -0.013,-0.003 m 0.392,1.989 -0.704,0 c -0.001,0 -0.002,0 -0.003,0 -0.017,-0.002 -0.03,-0.016 -0.03,-0.033 l 0,-1.923 c 0,-0.018 0.015,-0.033 0.033,-0.033 0.008,0 0.719,0 0.726,0.001 0.532,0.01 0.874,0.395 0.874,0.993 0,0.614 -0.343,0.995 -0.896,0.995"
       id="path149845"
       style="fill:#da2a2a;fill-opacity:1;fill-rule:nonzero;stroke:none" /></g><g
     id="g4156"><rect
       width="86.809814"
       height="98.773003"
       x="14.417178"
       y="41.165646"
       id="rect4050"
       style="fill:#ffffff;fill-opacity:1;stroke:none" /><rect
       width="64.417175"
       height="101.84049"
       x="151.22699"
       y="38.711655"
       id="rect4052"
       style="fill:#ffffff;fill-opacity:1;stroke:none" /><rect
       width="73.312881"
       height="107.36196"
       x="272.39264"
       y="29.81595"
       id="rect4054"
       style="fill:#ffffff;fill-opacity:1;stroke:none" /><path
       d="M 7.03125,0 C 3.1634105,-0.00173189 0.03834566,3.2363089 0,7.03125 l 0,155.9375 C -0.0017598,167.06496 3.2436079,169.9616 7.03125,170 L 104.5,170 c 4.52946,-0.0585 7.07314,-3.09575 7.03125,-7.03125 l 0,-155.9375 C 111.53325,2.6537562 108.72874,0.018366 104.5,0 z m 126,0 C 129.1634,-0.00173197 126.0384,3.236309 126,7.03125 l 0,155.9375 c -0.002,4.09621 3.24361,6.99285 7.03125,7.03125 l 97.4375,0 c 4.52947,-0.0585 7.07314,-3.09575 7.03125,-7.03125 l 0,-155.9375 C 237.502,2.6537561 234.69749,0.018366 230.46875,0 z M 259,0 c -3.86783,-0.00173197 -6.99285,3.236309 -7.03125,7.03125 l 0,155.9375 c -0.002,4.09621 3.24361,6.99285 7.03125,7.03125 l 97.4375,0 c 4.52945,-0.0585 7.07314,-3.09575 7.03125,-7.03125 l 0,-155.9375 C 363.47075,2.6537561 360.66623,0.018366 356.4375,0 z m 54.9375,45.25 c 10.71,0 20.45134,4.183773 27.65625,11 0.42844,0.545298 0.43604,1.306152 -0.0312,1.8125 l -9.0625,9 c -0.49661,0.496668 -1.38837,0.514436 -1.9375,0 -4.43978,-3.933937 -10.23794,-6.34375 -16.625,-6.34375 -13.74775,0 -24.9375,11.149246 -24.9375,24.9375 0,13.71036 11.18975,24.90625 24.9375,24.90625 6.37836,0 12.15632,-2.4193 16.59375,-6.34375 0.54524,-0.50635 1.46246,-0.50635 1.96875,0 l 9.0625,9 c 0.46728,0.50635 0.45968,1.30616 0.0312,1.8125 C 334.38884,121.84748 324.6475,126 313.9375,126 291.62175,126 273.53125,107.93558 273.53125,85.65625 273.53125,63.337974 291.62175,45.25 313.9375,45.25 z M 23.5,45.5625 l 64.5,0 c 0.739963,0 1.375,0.603703 1.375,1.34375 l 0,12.71875 C 89.375,60.403997 88.739963,61 88,61 l -24.125,0 0,63.375 c 0,0.74005 -0.603786,1.34375 -1.34375,1.34375 l -12.78125,0 c -0.739964,0 -1.34375,-0.6037 -1.34375,-1.34375 L 48.40625,61 23.5,61 c -0.739963,0 -1.34375,-0.596003 -1.34375,-1.375 l 0,-12.71875 c 0,-0.740047 0.603787,-1.34375 1.34375,-1.34375 z m 135.71875,0 12.71875,0 c 0.77891,0 1.375,0.634953 1.375,1.375 l 0,55.9375 c 0,4.08973 3.31697,7.375 7.40625,7.375 l 23.53125,0 c 0.77891,0 1.34375,0.63495 1.34375,1.375 l 0,12.75 c 0,0.74005 -0.56484,1.34375 -1.34375,1.34375 l -28.90625,0 c -12.18994,0 -17.5,-7.81053 -17.5,-17.9375 l 0,-60.84375 c 0,-0.740047 0.63504,-1.375 1.375,-1.375 z"
       id="path149757-5-4-1"
       style="fill:url(#linearGradient3927);stroke:none;display:inline" /><path
       d="M 7.03125,0 C 3.1634105,-0.002 0.03834566,3.23631 0,7.03125 l 0,155.9375 C -0.0017598,167.06496 3.2436079,169.9616 7.03125,170 L 104.5,170 c 4.52946,-0.0585 7.07314,-3.09575 7.03125,-7.03125 l 0,-155.9375 C 111.53325,2.65376 108.72874,0.01837 104.5,0 z M 259,0 c -3.86783,-0.002 -6.99285,3.23631 -7.03125,7.03125 l 0,155.9375 c -0.002,4.09621 3.24361,6.99285 7.03125,7.03125 l 97.4375,0 c 4.52945,-0.0585 7.07314,-3.09575 7.03125,-7.03125 l 0,-155.9375 C 363.47075,2.65376 360.66623,0.01837 356.4375,0 z m 54.9375,45.25 c 10.71,0 20.45134,4.18377 27.65625,11 0.42844,0.5453 0.43604,1.30615 -0.0312,1.8125 l -9.0625,9 c -0.49661,0.49667 -1.38837,0.51444 -1.9375,0 -4.43978,-3.93394 -10.23794,-6.34375 -16.625,-6.34375 -13.74775,0 -24.9375,11.14925 -24.9375,24.9375 0,13.71036 11.18975,24.90625 24.9375,24.90625 6.37836,0 12.15632,-2.4193 16.59375,-6.34375 0.54524,-0.50635 1.46246,-0.50635 1.96875,0 l 9.0625,9 c 0.46728,0.50635 0.45968,1.30616 0.0312,1.8125 C 334.38884,121.84748 324.6475,126 313.9375,126 291.62175,126 273.53125,107.93558 273.53125,85.65625 273.53125,63.33797 291.62175,45.25 313.9375,45.25 z M 23.5,45.5625 l 64.5,0 c 0.739963,0 1.375,0.6037 1.375,1.34375 l 0,12.71875 C 89.375,60.404 88.739963,61 88,61 l -24.125,0 0,63.375 c 0,0.74005 -0.603786,1.34375 -1.34375,1.34375 l -12.78125,0 c -0.739964,0 -1.34375,-0.6037 -1.34375,-1.34375 L 48.40625,61 23.5,61 c -0.739963,0 -1.34375,-0.596 -1.34375,-1.375 l 0,-12.71875 c 0,-0.74005 0.603787,-1.34375 1.34375,-1.34375 z"
       id="path149757-5-4-1-6"
       style="fill:url(#linearGradient4008);fill-opacity:1;stroke:none;display:inline" /><path
       d="M 133.03125,6.9448316e-7 C 129.1634,-0.00173128 126.0384,3.2363097 126,7.0312507 l 0,155.9374993 c -0.002,4.09621 3.24361,6.99285 7.03125,7.03125 l 97.4375,0 c 4.52947,-0.0585 7.07314,-3.09575 7.03125,-7.03125 l 0,-155.9374993 C 237.502,2.6537568 234.69749,0.01836669 230.46875,6.9448316e-7 z M 159.21875,45.562501 l 12.71875,0 c 0.77891,0 1.375,0.634953 1.375,1.375 l 0,55.937499 c 0,4.08973 3.31697,7.375 7.40625,7.375 l 23.53125,0 c 0.77891,0 1.34375,0.63495 1.34375,1.375 l 0,12.75 c 0,0.74005 -0.56484,1.34375 -1.34375,1.34375 l -28.90625,0 c -12.18994,0 -17.5,-7.81053 -17.5,-17.9375 l 0,-60.843749 c 0,-0.740047 0.63504,-1.375 1.375,-1.375 z"
       id="path149757-5-4-1-9"
       style="fill:url(#linearGradient4138);fill-opacity:1;stroke:none;display:inline" /></g></svg>